<?xml version="1.0" encoding="UTF-8" standalone="no"?>
<!DOCTYPE svg PUBLIC "-//W3C//DTD SVG 1.1//EN"
 "http://www.w3.org/Graphics/SVG/1.1/DTD/svg11.dtd">
<!-- Generated by graphviz version 2.42.4 (0)
 -->
<!-- Title: TRANSFORM_QUICK_OPS Pages: 1 -->
<svg width="938pt" height="582pt"
 viewBox="0.00 0.00 938.00 582.00" xmlns="http://www.w3.org/2000/svg" xmlns:xlink="http://www.w3.org/1999/xlink">
<g id="graph0" class="graph" transform="scale(1 1) rotate(0) translate(4 578)">
<title>TRANSFORM_QUICK_OPS</title>
<text text-anchor="middle" x="465" y="-550.8" font-family="Cascadia Code PL" font-size="24.00" fill="white">QUICK TRANSFORM OPERATIONS STATE MACHINE</text>
<g id="clust3" class="cluster">
<title>cluster_flip</title>
<polygon fill="transparent" stroke="orange" stroke-dasharray="5,2" points="8,-14 8,-262 320,-262 320,-14 8,-14"/>
<text text-anchor="middle" x="59.5" y="-249.2" font-family="Cascadia Code PL" font-size="11.00" fill="white">FLIP OPERATIONS</text>
</g>
<g id="clust4" class="cluster">
<title>cluster_rotate</title>
<polygon fill="transparent" stroke="orange" stroke-dasharray="5,2" points="328,-8 328,-262 640,-262 640,-8 328,-8"/>
<text text-anchor="middle" x="388" y="-249.2" font-family="Cascadia Code PL" font-size="11.00" fill="white">ROTATE OPERATIONS</text>
</g>
<g id="clust5" class="cluster">
<title>cluster_scale</title>
<polygon fill="transparent" stroke="orange" stroke-dasharray="5,2" points="648,-8 648,-262 922,-262 922,-8 648,-8"/>
<text text-anchor="middle" x="704.5" y="-249.2" font-family="Cascadia Code PL" font-size="11.00" fill="white">SCALE OPERATIONS</text>
</g>
<g id="clust6" class="cluster">
<title>cluster_post</title>
<polygon fill="transparent" stroke="orange" stroke-dasharray="5,2" points="507,-404 507,-532 657,-532 657,-404 507,-404"/>
<text text-anchor="middle" x="562.5" y="-519.2" font-family="Cascadia Code PL" font-size="11.00" fill="white">POST&#45;TRANSFORM</text>
</g>
<g id="clust7" class="cluster">
<title>cluster_legend</title>
<polygon fill="transparent" stroke="white" stroke-dasharray="5,2" points="715,-323.64 715,-486.36 915,-486.36 915,-323.64 715,-323.64"/>
<text text-anchor="middle" x="743" y="-473.56" font-family="Cascadia Code PL" font-size="11.00" fill="white">LEGEND</text>
</g>
<!-- MAIN -->
<g id="node1" class="node">
<title>MAIN</title>
<polygon fill="none" stroke="orange" stroke-width="2" points="472,-476 469,-480 448,-480 445,-476 374,-476 374,-440 472,-440 472,-476"/>
<text text-anchor="middle" x="423" y="-461.6" font-family="Cascadia Code PL" font-size="13.00" fill="orange">QUICK</text>
<text text-anchor="middle" x="423" y="-447.6" font-family="Cascadia Code PL" font-size="13.00" fill="orange">TRANSFORMS</text>
</g>
<!-- S_IDLE -->
<g id="node2" class="node">
<title>S_IDLE</title>
<polygon fill="none" stroke="white" points="486,-366 360,-366 360,-298 486,-298 486,-366"/>
<text text-anchor="middle" x="423" y="-353.2" font-family="Cascadia Code PL" font-size="11.00" fill="cyan">1 · IDLE</text>
<text text-anchor="middle" x="423" y="-341.2" font-family="Cascadia Code PL" font-size="11.00" fill="cyan">─────────────────</text>
<text text-anchor="middle" x="423" y="-329.2" font-family="Cascadia Code PL" font-size="11.00" fill="cyan">Current layer selected</text>
<text text-anchor="middle" x="423" y="-317.2" font-family="Cascadia Code PL" font-size="11.00" fill="cyan">Original pixel data</text>
<text text-anchor="middle" x="423" y="-305.2" font-family="Cascadia Code PL" font-size="11.00" fill="cyan">No transform pending</text>
</g>
<!-- MAIN&#45;&gt;S_IDLE -->
<g id="edge1" class="edge">
<title>MAIN&#45;&gt;S_IDLE</title>
<path fill="none" stroke="#555555" stroke-dasharray="1,5" d="M423,-439.76C423,-420.86 423,-390.08 423,-366.41"/>
</g>
<!-- FLIP_H -->
<g id="node3" class="node">
<title>FLIP_H</title>
<polygon fill="none" stroke="white" points="147.5,-234 16.5,-234 16.5,-154 147.5,-154 147.5,-234"/>
<text text-anchor="middle" x="82" y="-221.2" font-family="Cascadia Code PL" font-size="11.00" fill="cyan">Flip Horizontal</text>
<text text-anchor="middle" x="82" y="-209.2" font-family="Cascadia Code PL" font-size="11.00" fill="cyan">─────────────────</text>
<text text-anchor="middle" x="82" y="-197.2" font-family="Cascadia Code PL" font-size="11.00" fill="cyan">Edit → Flip Horizontal</text>
<text text-anchor="middle" x="82" y="-185.2" font-family="Cascadia Code PL" font-size="11.00" fill="cyan">Mirror pixels left↔right</text>
<text text-anchor="middle" x="82" y="-173.2" font-family="Cascadia Code PL" font-size="11.00" fill="cyan">Immediate application</text>
<text text-anchor="middle" x="82" y="-161.2" font-family="Cascadia Code PL" font-size="11.00" fill="cyan">No preview step</text>
</g>
<!-- S_IDLE&#45;&gt;FLIP_H -->
<g id="edge8" class="edge">
<title>S_IDLE&#45;&gt;FLIP_H</title>
<path fill="none" stroke="#6699ff" d="M360,-323.25C304.07,-314.42 221.46,-296.5 157,-262 146.42,-256.34 136.11,-248.88 126.69,-241.01"/>
<polygon fill="#6699ff" stroke="#6699ff" points="128.85,-238.24 119,-234.32 124.26,-243.53 128.85,-238.24"/>
<text text-anchor="middle" x="204" y="-272.8" font-family="Cascadia Code PL" font-size="9.00" fill="#aaaaaa"> &#160;Flip H</text>
</g>
<!-- FLIP_V -->
<g id="node4" class="node">
<title>FLIP_V</title>
<polygon fill="none" stroke="white" points="312,-234 166,-234 166,-154 312,-154 312,-234"/>
<text text-anchor="middle" x="239" y="-221.2" font-family="Cascadia Code PL" font-size="11.00" fill="cyan">Flip Vertical</text>
<text text-anchor="middle" x="239" y="-209.2" font-family="Cascadia Code PL" font-size="11.00" fill="cyan">─────────────────</text>
<text text-anchor="middle" x="239" y="-197.2" font-family="Cascadia Code PL" font-size="11.00" fill="cyan">Edit → Flip Vertical</text>
<text text-anchor="middle" x="239" y="-185.2" font-family="Cascadia Code PL" font-size="11.00" fill="cyan">Mirror pixels top↔bottom</text>
<text text-anchor="middle" x="239" y="-173.2" font-family="Cascadia Code PL" font-size="11.00" fill="cyan">Immediate application</text>
<text text-anchor="middle" x="239" y="-161.2" font-family="Cascadia Code PL" font-size="11.00" fill="cyan">No preview step</text>
</g>
<!-- S_IDLE&#45;&gt;FLIP_V -->
<g id="edge9" class="edge">
<title>S_IDLE&#45;&gt;FLIP_V</title>
<path fill="none" stroke="#6699ff" d="M374.26,-297.87C358.12,-286.68 340.15,-273.98 324,-262 314.78,-255.16 305.12,-247.77 295.75,-240.48"/>
<polygon fill="#6699ff" stroke="#6699ff" points="297.65,-237.52 287.61,-234.12 293.33,-243.03 297.65,-237.52"/>
<text text-anchor="middle" x="361.5" y="-272.8" font-family="Cascadia Code PL" font-size="9.00" fill="#aaaaaa"> &#160;Flip V</text>
</g>
<!-- ROT_CW -->
<g id="node7" class="node">
<title>ROT_CW</title>
<polygon fill="none" stroke="white" points="471.5,-234 336.5,-234 336.5,-154 471.5,-154 471.5,-234"/>
<text text-anchor="middle" x="404" y="-221.2" font-family="Cascadia Code PL" font-size="11.00" fill="cyan">Rotate 90° CW</text>
<text text-anchor="middle" x="404" y="-209.2" font-family="Cascadia Code PL" font-size="11.00" fill="cyan">─────────────────</text>
<text text-anchor="middle" x="404" y="-197.2" font-family="Cascadia Code PL" font-size="11.00" fill="cyan">Edit → Rotate → 90° CW</text>
<text text-anchor="middle" x="404" y="-185.2" font-family="Cascadia Code PL" font-size="11.00" fill="cyan">Swap width↔height</text>
<text text-anchor="middle" x="404" y="-173.2" font-family="Cascadia Code PL" font-size="11.00" fill="cyan">Remap pixels:</text>
<text text-anchor="middle" x="404" y="-161.2" font-family="Cascadia Code PL" font-size="11.00" fill="cyan"> &#160;dst(y,W&#45;1&#45;x) = src(x,y)</text>
</g>
<!-- S_IDLE&#45;&gt;ROT_CW -->
<g id="edge10" class="edge">
<title>S_IDLE&#45;&gt;ROT_CW</title>
<path fill="none" stroke="#6699ff" d="M418.35,-297.73C416.11,-281.69 413.38,-262.13 410.9,-244.39"/>
<polygon fill="#6699ff" stroke="#6699ff" points="414.33,-243.62 409.48,-234.2 407.39,-244.59 414.33,-243.62"/>
<text text-anchor="middle" x="438" y="-272.8" font-family="Cascadia Code PL" font-size="9.00" fill="#aaaaaa"> &#160;Rotate CW</text>
</g>
<!-- ROT_CCW -->
<g id="node8" class="node">
<title>ROT_CCW</title>
<polygon fill="none" stroke="white" points="632,-234 490,-234 490,-154 632,-154 632,-234"/>
<text text-anchor="middle" x="561" y="-221.2" font-family="Cascadia Code PL" font-size="11.00" fill="cyan">Rotate 90° CCW</text>
<text text-anchor="middle" x="561" y="-209.2" font-family="Cascadia Code PL" font-size="11.00" fill="cyan">─────────────────</text>
<text text-anchor="middle" x="561" y="-197.2" font-family="Cascadia Code PL" font-size="11.00" fill="cyan">Edit → Rotate → 90° CCW</text>
<text text-anchor="middle" x="561" y="-185.2" font-family="Cascadia Code PL" font-size="11.00" fill="cyan">Swap width↔height</text>
<text text-anchor="middle" x="561" y="-173.2" font-family="Cascadia Code PL" font-size="11.00" fill="cyan">Remap pixels:</text>
<text text-anchor="middle" x="561" y="-161.2" font-family="Cascadia Code PL" font-size="11.00" fill="cyan"> &#160;dst(H&#45;1&#45;y,x) = src(x,y)</text>
</g>
<!-- S_IDLE&#45;&gt;ROT_CCW -->
<g id="edge11" class="edge">
<title>S_IDLE&#45;&gt;ROT_CCW</title>
<path fill="none" stroke="#6699ff" d="M456.76,-297.73C473.95,-280.79 495.12,-259.92 513.89,-241.43"/>
<polygon fill="#6699ff" stroke="#6699ff" points="516.55,-243.71 521.22,-234.2 511.64,-238.73 516.55,-243.71"/>
<text text-anchor="middle" x="509" y="-272.8" font-family="Cascadia Code PL" font-size="9.00" fill="#aaaaaa"> &#160;Rotate CCW</text>
</g>
<!-- SCALE_UP -->
<g id="node11" class="node">
<title>SCALE_UP</title>
<polygon fill="none" stroke="white" points="777.5,-234 656.5,-234 656.5,-154 777.5,-154 777.5,-234"/>
<text text-anchor="middle" x="717" y="-221.2" font-family="Cascadia Code PL" font-size="11.00" fill="cyan">Scale +50%</text>
<text text-anchor="middle" x="717" y="-209.2" font-family="Cascadia Code PL" font-size="11.00" fill="cyan">─────────────────</text>
<text text-anchor="middle" x="717" y="-197.2" font-family="Cascadia Code PL" font-size="11.00" fill="cyan">Edit → Scale → +50%</text>
<text text-anchor="middle" x="717" y="-185.2" font-family="Cascadia Code PL" font-size="11.00" fill="cyan">Enlarge layer pixels</text>
<text text-anchor="middle" x="717" y="-173.2" font-family="Cascadia Code PL" font-size="11.00" fill="cyan">Nearest&#45;neighbor</text>
<text text-anchor="middle" x="717" y="-161.2" font-family="Cascadia Code PL" font-size="11.00" fill="cyan">interpolation</text>
</g>
<!-- S_IDLE&#45;&gt;SCALE_UP -->
<g id="edge12" class="edge">
<title>S_IDLE&#45;&gt;SCALE_UP</title>
<path fill="none" stroke="#6699ff" d="M486.02,-319.09C531.95,-308.6 594.54,-290.49 644,-262 654.03,-256.22 663.83,-248.85 672.83,-241.13"/>
<polygon fill="#6699ff" stroke="#6699ff" points="675.38,-243.54 680.52,-234.28 670.72,-238.32 675.38,-243.54"/>
<text text-anchor="middle" x="652" y="-272.8" font-family="Cascadia Code PL" font-size="9.00" fill="#aaaaaa"> &#160;Scale +50%</text>
</g>
<!-- SCALE_DOWN -->
<g id="node12" class="node">
<title>SCALE_DOWN</title>
<polygon fill="none" stroke="white" points="914,-234 796,-234 796,-154 914,-154 914,-234"/>
<text text-anchor="middle" x="855" y="-221.2" font-family="Cascadia Code PL" font-size="11.00" fill="cyan">Scale &#45;50%</text>
<text text-anchor="middle" x="855" y="-209.2" font-family="Cascadia Code PL" font-size="11.00" fill="cyan">─────────────────</text>
<text text-anchor="middle" x="855" y="-197.2" font-family="Cascadia Code PL" font-size="11.00" fill="cyan">Edit → Scale → &#45;50%</text>
<text text-anchor="middle" x="855" y="-185.2" font-family="Cascadia Code PL" font-size="11.00" fill="cyan">Shrink layer pixels</text>
<text text-anchor="middle" x="855" y="-173.2" font-family="Cascadia Code PL" font-size="11.00" fill="cyan">Nearest&#45;neighbor</text>
<text text-anchor="middle" x="855" y="-161.2" font-family="Cascadia Code PL" font-size="11.00" fill="cyan">interpolation</text>
</g>
<!-- S_IDLE&#45;&gt;SCALE_DOWN -->
<g id="edge13" class="edge">
<title>S_IDLE&#45;&gt;SCALE_DOWN</title>
<path fill="none" stroke="#6699ff" d="M486.18,-330.04C561.79,-326.49 690.29,-312.68 787,-262 797.22,-256.65 806.91,-249.25 815.6,-241.32"/>
<polygon fill="#6699ff" stroke="#6699ff" points="818.18,-243.7 822.97,-234.25 813.33,-238.64 818.18,-243.7"/>
<text text-anchor="middle" x="793" y="-272.8" font-family="Cascadia Code PL" font-size="9.00" fill="#aaaaaa"> &#160;Scale &#45;50%</text>
</g>
<!-- FH_EXEC -->
<g id="node5" class="node">
<title>FH_EXEC</title>
<polygon fill="none" stroke="white" points="145,-102 19,-102 19,-22 145,-22 145,-102"/>
<text text-anchor="middle" x="82" y="-89.2" font-family="Cascadia Code PL" font-size="11.00" fill="cyan">Execute Flip H</text>
<text text-anchor="middle" x="82" y="-77.2" font-family="Cascadia Code PL" font-size="11.00" fill="cyan">─────────────────</text>
<text text-anchor="middle" x="82" y="-65.2" font-family="Cascadia Code PL" font-size="11.00" fill="cyan">1. Snapshot layer img</text>
<text text-anchor="middle" x="82" y="-53.2" font-family="Cascadia Code PL" font-size="11.00" fill="cyan">2. _PUTIMAGE flip X</text>
<text text-anchor="middle" x="82" y="-41.2" font-family="Cascadia Code PL" font-size="11.00" fill="cyan">3. HISTORY_record</text>
<text text-anchor="middle" x="82" y="-29.2" font-family="Cascadia Code PL" font-size="11.00" fill="cyan">4. SCENE_DIRTY=TRUE</text>
</g>
<!-- FLIP_H&#45;&gt;FH_EXEC -->
<g id="edge2" class="edge">
<title>FLIP_H&#45;&gt;FH_EXEC</title>
<path fill="none" stroke="#cccc66" d="M82,-154C82,-141 82,-126.35 82,-112.66"/>
<polygon fill="#cccc66" stroke="#cccc66" points="85.5,-112.43 82,-102.43 78.5,-112.43 85.5,-112.43"/>
<text text-anchor="middle" x="96" y="-128.8" font-family="Cascadia Code PL" font-size="9.00" fill="#aaaaaa"> &#160;Apply</text>
</g>
<!-- FV_EXEC -->
<g id="node6" class="node">
<title>FV_EXEC</title>
<polygon fill="none" stroke="white" points="302,-102 176,-102 176,-22 302,-22 302,-102"/>
<text text-anchor="middle" x="239" y="-89.2" font-family="Cascadia Code PL" font-size="11.00" fill="cyan">Execute Flip V</text>
<text text-anchor="middle" x="239" y="-77.2" font-family="Cascadia Code PL" font-size="11.00" fill="cyan">─────────────────</text>
<text text-anchor="middle" x="239" y="-65.2" font-family="Cascadia Code PL" font-size="11.00" fill="cyan">1. Snapshot layer img</text>
<text text-anchor="middle" x="239" y="-53.2" font-family="Cascadia Code PL" font-size="11.00" fill="cyan">2. _PUTIMAGE flip Y</text>
<text text-anchor="middle" x="239" y="-41.2" font-family="Cascadia Code PL" font-size="11.00" fill="cyan">3. HISTORY_record</text>
<text text-anchor="middle" x="239" y="-29.2" font-family="Cascadia Code PL" font-size="11.00" fill="cyan">4. SCENE_DIRTY=TRUE</text>
</g>
<!-- FLIP_V&#45;&gt;FV_EXEC -->
<g id="edge3" class="edge">
<title>FLIP_V&#45;&gt;FV_EXEC</title>
<path fill="none" stroke="#cccc66" d="M239,-154C239,-141 239,-126.35 239,-112.66"/>
<polygon fill="#cccc66" stroke="#cccc66" points="242.5,-112.43 239,-102.43 235.5,-112.43 242.5,-112.43"/>
<text text-anchor="middle" x="253" y="-128.8" font-family="Cascadia Code PL" font-size="9.00" fill="#aaaaaa"> &#160;Apply</text>
</g>
<!-- RCW_EXEC -->
<g id="node9" class="node">
<title>RCW_EXEC</title>
<polygon fill="none" stroke="white" points="465.5,-108 342.5,-108 342.5,-16 465.5,-16 465.5,-108"/>
<text text-anchor="middle" x="404" y="-95.2" font-family="Cascadia Code PL" font-size="11.00" fill="cyan">Execute Rotate CW</text>
<text text-anchor="middle" x="404" y="-83.2" font-family="Cascadia Code PL" font-size="11.00" fill="cyan">─────────────────</text>
<text text-anchor="middle" x="404" y="-71.2" font-family="Cascadia Code PL" font-size="11.00" fill="cyan">1. Create new image</text>
<text text-anchor="middle" x="404" y="-59.2" font-family="Cascadia Code PL" font-size="11.00" fill="cyan"> &#160;&#160;(H×W swapped)</text>
<text text-anchor="middle" x="404" y="-47.2" font-family="Cascadia Code PL" font-size="11.00" fill="cyan">2. Copy rotated pixels</text>
<text text-anchor="middle" x="404" y="-35.2" font-family="Cascadia Code PL" font-size="11.00" fill="cyan">3. Replace layer img</text>
<text text-anchor="middle" x="404" y="-23.2" font-family="Cascadia Code PL" font-size="11.00" fill="cyan">4. HISTORY_record</text>
</g>
<!-- ROT_CW&#45;&gt;RCW_EXEC -->
<g id="edge4" class="edge">
<title>ROT_CW&#45;&gt;RCW_EXEC</title>
<path fill="none" stroke="#cccc66" d="M404,-154C404,-142.89 404,-130.57 404,-118.68"/>
<polygon fill="#cccc66" stroke="#cccc66" points="407.5,-118.38 404,-108.38 400.5,-118.38 407.5,-118.38"/>
<text text-anchor="middle" x="418" y="-128.8" font-family="Cascadia Code PL" font-size="9.00" fill="#aaaaaa"> &#160;Apply</text>
</g>
<!-- RCCW_EXEC -->
<g id="node10" class="node">
<title>RCCW_EXEC</title>
<polygon fill="none" stroke="white" points="622.5,-108 499.5,-108 499.5,-16 622.5,-16 622.5,-108"/>
<text text-anchor="middle" x="561" y="-95.2" font-family="Cascadia Code PL" font-size="11.00" fill="cyan">Execute Rotate CCW</text>
<text text-anchor="middle" x="561" y="-83.2" font-family="Cascadia Code PL" font-size="11.00" fill="cyan">─────────────────</text>
<text text-anchor="middle" x="561" y="-71.2" font-family="Cascadia Code PL" font-size="11.00" fill="cyan">1. Create new image</text>
<text text-anchor="middle" x="561" y="-59.2" font-family="Cascadia Code PL" font-size="11.00" fill="cyan"> &#160;&#160;(H×W swapped)</text>
<text text-anchor="middle" x="561" y="-47.2" font-family="Cascadia Code PL" font-size="11.00" fill="cyan">2. Copy rotated pixels</text>
<text text-anchor="middle" x="561" y="-35.2" font-family="Cascadia Code PL" font-size="11.00" fill="cyan">3. Replace layer img</text>
<text text-anchor="middle" x="561" y="-23.2" font-family="Cascadia Code PL" font-size="11.00" fill="cyan">4. HISTORY_record</text>
</g>
<!-- ROT_CCW&#45;&gt;RCCW_EXEC -->
<g id="edge5" class="edge">
<title>ROT_CCW&#45;&gt;RCCW_EXEC</title>
<path fill="none" stroke="#cccc66" d="M561,-154C561,-142.89 561,-130.57 561,-118.68"/>
<polygon fill="#cccc66" stroke="#cccc66" points="564.5,-118.38 561,-108.38 557.5,-118.38 564.5,-118.38"/>
<text text-anchor="middle" x="575" y="-128.8" font-family="Cascadia Code PL" font-size="9.00" fill="#aaaaaa"> &#160;Apply</text>
</g>
<!-- SU_EXEC -->
<g id="node13" class="node">
<title>SU_EXEC</title>
<polygon fill="none" stroke="white" points="775,-108 659,-108 659,-16 775,-16 775,-108"/>
<text text-anchor="middle" x="717" y="-95.2" font-family="Cascadia Code PL" font-size="11.00" fill="cyan">Execute Scale Up</text>
<text text-anchor="middle" x="717" y="-83.2" font-family="Cascadia Code PL" font-size="11.00" fill="cyan">─────────────────</text>
<text text-anchor="middle" x="717" y="-71.2" font-family="Cascadia Code PL" font-size="11.00" fill="cyan">1. Create new image</text>
<text text-anchor="middle" x="717" y="-59.2" font-family="Cascadia Code PL" font-size="11.00" fill="cyan"> &#160;&#160;(W×1.5, H×1.5)</text>
<text text-anchor="middle" x="717" y="-47.2" font-family="Cascadia Code PL" font-size="11.00" fill="cyan">2. _PUTIMAGE scale</text>
<text text-anchor="middle" x="717" y="-35.2" font-family="Cascadia Code PL" font-size="11.00" fill="cyan">3. Replace layer img</text>
<text text-anchor="middle" x="717" y="-23.2" font-family="Cascadia Code PL" font-size="11.00" fill="cyan">4. HISTORY_record</text>
</g>
<!-- SCALE_UP&#45;&gt;SU_EXEC -->
<g id="edge6" class="edge">
<title>SCALE_UP&#45;&gt;SU_EXEC</title>
<path fill="none" stroke="#cccc66" d="M717,-154C717,-142.89 717,-130.57 717,-118.68"/>
<polygon fill="#cccc66" stroke="#cccc66" points="720.5,-118.38 717,-108.38 713.5,-118.38 720.5,-118.38"/>
<text text-anchor="middle" x="731" y="-128.8" font-family="Cascadia Code PL" font-size="9.00" fill="#aaaaaa"> &#160;Apply</text>
</g>
<!-- SD_EXEC -->
<g id="node14" class="node">
<title>SD_EXEC</title>
<polygon fill="none" stroke="white" points="913,-108 797,-108 797,-16 913,-16 913,-108"/>
<text text-anchor="middle" x="855" y="-95.2" font-family="Cascadia Code PL" font-size="11.00" fill="cyan">Execute Scale Down</text>
<text text-anchor="middle" x="855" y="-83.2" font-family="Cascadia Code PL" font-size="11.00" fill="cyan">─────────────────</text>
<text text-anchor="middle" x="855" y="-71.2" font-family="Cascadia Code PL" font-size="11.00" fill="cyan">1. Create new image</text>
<text text-anchor="middle" x="855" y="-59.2" font-family="Cascadia Code PL" font-size="11.00" fill="cyan"> &#160;&#160;(W×0.5, H×0.5)</text>
<text text-anchor="middle" x="855" y="-47.2" font-family="Cascadia Code PL" font-size="11.00" fill="cyan">2. _PUTIMAGE scale</text>
<text text-anchor="middle" x="855" y="-35.2" font-family="Cascadia Code PL" font-size="11.00" fill="cyan">3. Replace layer img</text>
<text text-anchor="middle" x="855" y="-23.2" font-family="Cascadia Code PL" font-size="11.00" fill="cyan">4. HISTORY_record</text>
</g>
<!-- SCALE_DOWN&#45;&gt;SD_EXEC -->
<g id="edge7" class="edge">
<title>SCALE_DOWN&#45;&gt;SD_EXEC</title>
<path fill="none" stroke="#cccc66" d="M855,-154C855,-142.89 855,-130.57 855,-118.68"/>
<polygon fill="#cccc66" stroke="#cccc66" points="858.5,-118.38 855,-108.38 851.5,-118.38 858.5,-118.38"/>
<text text-anchor="middle" x="869" y="-128.8" font-family="Cascadia Code PL" font-size="9.00" fill="#aaaaaa"> &#160;Apply</text>
</g>
<!-- P1 -->
<g id="node15" class="node">
<title>P1</title>
<polygon fill="none" stroke="white" points="648.5,-504 515.5,-504 515.5,-412 648.5,-412 648.5,-504"/>
<text text-anchor="middle" x="582" y="-491.2" font-family="Cascadia Code PL" font-size="11.00" fill="cyan">Invalidation</text>
<text text-anchor="middle" x="582" y="-479.2" font-family="Cascadia Code PL" font-size="11.00" fill="cyan">─────────────────</text>
<text text-anchor="middle" x="582" y="-467.2" font-family="Cascadia Code PL" font-size="11.00" fill="cyan">SCENE_DIRTY = TRUE</text>
<text text-anchor="middle" x="582" y="-455.2" font-family="Cascadia Code PL" font-size="11.00" fill="cyan">CANVAS_DIRTY = TRUE</text>
<text text-anchor="middle" x="582" y="-443.2" font-family="Cascadia Code PL" font-size="11.00" fill="cyan">BLEND_invalidate_cache</text>
<text text-anchor="middle" x="582" y="-431.2" font-family="Cascadia Code PL" font-size="11.00" fill="cyan">contentDirty = TRUE</text>
<text text-anchor="middle" x="582" y="-419.2" font-family="Cascadia Code PL" font-size="11.00" fill="cyan">for affected layer</text>
</g>
<!-- L1 -->
<g id="node16" class="node">
<title>L1</title>
<ellipse fill="white" stroke="white" cx="834" cy="-458" rx="0.36" ry="0.36"/>
</g>
<!-- L2 -->
<g id="node17" class="node">
<title>L2</title>
<ellipse fill="white" stroke="white" cx="834" cy="-332" rx="0.36" ry="0.36"/>
</g>
<!-- L1&#45;&gt;L2 -->
<g id="edge14" class="edge">
<title>L1&#45;&gt;L2</title>
<path fill="none" stroke="#6699ff" d="M834,-456.91C834,-453.83 834,-372.68 834,-343.4"/>
<polygon fill="#6699ff" stroke="#6699ff" points="837.5,-343.09 834,-333.09 830.5,-343.09 837.5,-343.09"/>
<text text-anchor="middle" x="870.5" y="-386.8" font-family="Cascadia Code PL" font-size="9.00" fill="#aaaaaa"> Execute operation</text>
</g>
<!-- L3 -->
<g id="node18" class="node">
<title>L3</title>
<ellipse fill="white" stroke="white" cx="741" cy="-458" rx="0.36" ry="0.36"/>
</g>
<!-- L4 -->
<g id="node19" class="node">
<title>L4</title>
<ellipse fill="white" stroke="white" cx="741" cy="-332" rx="0.36" ry="0.36"/>
</g>
<!-- L3&#45;&gt;L4 -->
<g id="edge15" class="edge">
<title>L3&#45;&gt;L4</title>
<path fill="none" stroke="#cccc66" d="M741,-456.91C741,-453.83 741,-372.68 741,-343.4"/>
<polygon fill="#cccc66" stroke="#cccc66" points="744.5,-343.09 741,-333.09 737.5,-343.09 744.5,-343.09"/>
<text text-anchor="middle" x="776" y="-386.8" font-family="Cascadia Code PL" font-size="9.00" fill="#aaaaaa"> Commit / Record</text>
</g>
</g>
</svg>
