<?xml version="1.0" encoding="UTF-8" standalone="no"?>
<!DOCTYPE svg PUBLIC "-//W3C//DTD SVG 1.1//EN"
 "http://www.w3.org/Graphics/SVG/1.1/DTD/svg11.dtd">
<!-- Generated by graphviz version 2.42.4 (0)
 -->
<!-- Title: TRANSFORM_OVERLAY Pages: 1 -->
<svg width="2524pt" height="910pt"
 viewBox="0.00 0.00 2523.50 910.00" xmlns="http://www.w3.org/2000/svg" xmlns:xlink="http://www.w3.org/1999/xlink">
<g id="graph0" class="graph" transform="scale(1 1) rotate(0) translate(4 906)">
<title>TRANSFORM_OVERLAY</title>
<text text-anchor="middle" x="1257.75" y="-878.8" font-family="Cascadia Code PL" font-size="24.00" fill="white">TRANSFORM OVERLAY STATE MACHINE</text>
<text text-anchor="middle" x="1257.75" y="-852.8" font-family="Cascadia Code PL" font-size="24.00" fill="white">(Scale / Rotate / Shear / Distort / Perspective)</text>
<g id="clust3" class="cluster">
<title>cluster_modes</title>
<polygon fill="transparent" stroke="orange" stroke-dasharray="5,2" points="653.5,-146 653.5,-834 890.5,-834 890.5,-146 653.5,-146"/>
<text text-anchor="middle" x="772" y="-821.2" font-family="Cascadia Code PL" font-size="11.00" fill="white">TRANSFORM MODES (TRANSFORM_MODE_*)</text>
</g>
<g id="clust4" class="cluster">
<title>cluster_handles</title>
<polygon fill="transparent" stroke="orange" stroke-dasharray="5,2" points="898.5,-724 898.5,-828 1324.5,-828 1324.5,-724 898.5,-724"/>
<text text-anchor="middle" x="948" y="-815.2" font-family="Cascadia Code PL" font-size="11.00" fill="white">HANDLE SYSTEM</text>
</g>
<g id="clust5" class="cluster">
<title>cluster_modifiers</title>
<polygon fill="transparent" stroke="orange" stroke-dasharray="5,2" points="1332.5,-724 1332.5,-828 1768.5,-828 1768.5,-724 1332.5,-724"/>
<text text-anchor="middle" x="1378.5" y="-815.2" font-family="Cascadia Code PL" font-size="11.00" fill="white">MODIFIER KEYS</text>
</g>
<g id="clust6" class="cluster">
<title>cluster_preview</title>
<polygon fill="transparent" stroke="orange" stroke-dasharray="5,2" points="1776.5,-718 1776.5,-834 2140.5,-834 2140.5,-718 1776.5,-718"/>
<text text-anchor="middle" x="1837.5" y="-821.2" font-family="Cascadia Code PL" font-size="11.00" fill="white">PREVIEW RENDERING</text>
</g>
<g id="clust7" class="cluster">
<title>cluster_legend</title>
<polygon fill="transparent" stroke="white" stroke-dasharray="5,2" points="2148.5,-631.64 2148.5,-794.36 2507.5,-794.36 2507.5,-631.64 2148.5,-631.64"/>
<text text-anchor="middle" x="2176.5" y="-781.56" font-family="Cascadia Code PL" font-size="11.00" fill="white">LEGEND</text>
</g>
<!-- MAIN -->
<g id="node1" class="node">
<title>MAIN</title>
<polygon fill="none" stroke="orange" stroke-width="2" points="348,-784 345,-788 324,-788 321,-784 257,-784 257,-748 348,-748 348,-784"/>
<text text-anchor="middle" x="302.5" y="-769.6" font-family="Cascadia Code PL" font-size="13.00" fill="orange">TRANSFORM</text>
<text text-anchor="middle" x="302.5" y="-755.6" font-family="Cascadia Code PL" font-size="13.00" fill="orange">OVERLAY</text>
</g>
<!-- S_IDLE -->
<g id="node2" class="node">
<title>S_IDLE</title>
<polygon fill="none" stroke="white" points="382,-674 223,-674 223,-606 382,-606 382,-674"/>
<text text-anchor="middle" x="302.5" y="-661.2" font-family="Cascadia Code PL" font-size="11.00" fill="cyan">1 · IDLE</text>
<text text-anchor="middle" x="302.5" y="-649.2" font-family="Cascadia Code PL" font-size="11.00" fill="cyan">─────────────────</text>
<text text-anchor="middle" x="302.5" y="-637.2" font-family="Cascadia Code PL" font-size="11.00" fill="cyan">TRANSFORM.ACTIVE = FALSE</text>
<text text-anchor="middle" x="302.5" y="-625.2" font-family="Cascadia Code PL" font-size="11.00" fill="cyan">No overlay visible</text>
<text text-anchor="middle" x="302.5" y="-613.2" font-family="Cascadia Code PL" font-size="11.00" fill="cyan">Normal drawing mode</text>
</g>
<!-- MAIN&#45;&gt;S_IDLE -->
<g id="edge9" class="edge">
<title>MAIN&#45;&gt;S_IDLE</title>
<path fill="none" stroke="#555555" stroke-dasharray="1,5" d="M302.5,-747.76C302.5,-728.86 302.5,-698.08 302.5,-674.41"/>
</g>
<!-- S_ACTIVATED -->
<g id="node3" class="node">
<title>S_ACTIVATED</title>
<polygon fill="none" stroke="white" points="380.5,-534 224.5,-534 224.5,-442 380.5,-442 380.5,-534"/>
<text text-anchor="middle" x="302.5" y="-521.2" font-family="Cascadia Code PL" font-size="11.00" fill="cyan">2 · ACTIVATED</text>
<text text-anchor="middle" x="302.5" y="-509.2" font-family="Cascadia Code PL" font-size="11.00" fill="cyan">─────────────────</text>
<text text-anchor="middle" x="302.5" y="-497.2" font-family="Cascadia Code PL" font-size="11.00" fill="cyan">TRANSFORM.ACTIVE = TRUE</text>
<text text-anchor="middle" x="302.5" y="-485.2" font-family="Cascadia Code PL" font-size="11.00" fill="cyan">MODE set (Scale/Rotate/etc)</text>
<text text-anchor="middle" x="302.5" y="-473.2" font-family="Cascadia Code PL" font-size="11.00" fill="cyan">SRC image captured</text>
<text text-anchor="middle" x="302.5" y="-461.2" font-family="Cascadia Code PL" font-size="11.00" fill="cyan">4 corner handles shown</text>
<text text-anchor="middle" x="302.5" y="-449.2" font-family="Cascadia Code PL" font-size="11.00" fill="cyan">Pivot point shown</text>
</g>
<!-- S_IDLE&#45;&gt;S_ACTIVATED -->
<g id="edge1" class="edge">
<title>S_IDLE&#45;&gt;S_ACTIVATED</title>
<path fill="none" stroke="#66cc66" d="M302.5,-605.71C302.5,-587.69 302.5,-564.97 302.5,-544.37"/>
<polygon fill="#66cc66" stroke="#66cc66" points="306,-544.14 302.5,-534.14 299,-544.14 306,-544.14"/>
<text text-anchor="middle" x="362.5" y="-574.8" font-family="Cascadia Code PL" font-size="9.00" fill="#aaaaaa"> &#160;Edit → Transform...</text>
<text text-anchor="middle" x="362.5" y="-564.8" font-family="Cascadia Code PL" font-size="9.00" fill="#aaaaaa"> &#160;CMD_execute_action</text>
<text text-anchor="middle" x="362.5" y="-554.8" font-family="Cascadia Code PL" font-size="9.00" fill="#aaaaaa"> &#160;TRANSFORM_activate(mode)</text>
</g>
<!-- S_HOVERING -->
<g id="node4" class="node">
<title>S_HOVERING</title>
<polygon fill="none" stroke="white" points="371,-386 234,-386 234,-306 371,-306 371,-386"/>
<text text-anchor="middle" x="302.5" y="-373.2" font-family="Cascadia Code PL" font-size="11.00" fill="cyan">3 · HOVERING</text>
<text text-anchor="middle" x="302.5" y="-361.2" font-family="Cascadia Code PL" font-size="11.00" fill="cyan">─────────────────</text>
<text text-anchor="middle" x="302.5" y="-349.2" font-family="Cascadia Code PL" font-size="11.00" fill="cyan">Mouse over overlay</text>
<text text-anchor="middle" x="302.5" y="-337.2" font-family="Cascadia Code PL" font-size="11.00" fill="cyan">Handle hit detection</text>
<text text-anchor="middle" x="302.5" y="-325.2" font-family="Cascadia Code PL" font-size="11.00" fill="cyan">Cursor changes on hover</text>
<text text-anchor="middle" x="302.5" y="-313.2" font-family="Cascadia Code PL" font-size="11.00" fill="cyan">GRABBED = &#45;1 (none)</text>
</g>
<!-- S_ACTIVATED&#45;&gt;S_HOVERING -->
<g id="edge2" class="edge">
<title>S_ACTIVATED&#45;&gt;S_HOVERING</title>
<path fill="none" stroke="#66cc66" d="M302.5,-441.93C302.5,-427.38 302.5,-411.18 302.5,-396.34"/>
<polygon fill="#66cc66" stroke="#66cc66" points="306,-396.32 302.5,-386.32 299,-396.32 306,-396.32"/>
<text text-anchor="middle" x="333" y="-416.8" font-family="Cascadia Code PL" font-size="9.00" fill="#aaaaaa"> &#160;Mouse enters</text>
<text text-anchor="middle" x="333" y="-406.8" font-family="Cascadia Code PL" font-size="9.00" fill="#aaaaaa"> &#160;overlay region</text>
</g>
<!-- S_GRABBED -->
<g id="node5" class="node">
<title>S_GRABBED</title>
<polygon fill="none" stroke="white" points="153,-234 0,-234 0,-154 153,-154 153,-234"/>
<text text-anchor="middle" x="76.5" y="-221.2" font-family="Cascadia Code PL" font-size="11.00" fill="cyan">4 · GRABBED</text>
<text text-anchor="middle" x="76.5" y="-209.2" font-family="Cascadia Code PL" font-size="11.00" fill="cyan">─────────────────</text>
<text text-anchor="middle" x="76.5" y="-197.2" font-family="Cascadia Code PL" font-size="11.00" fill="cyan">GRABBED = handle index</text>
<text text-anchor="middle" x="76.5" y="-185.2" font-family="Cascadia Code PL" font-size="11.00" fill="cyan">0&#45;3 = corners (TL/TR/BR/BL)</text>
<text text-anchor="middle" x="76.5" y="-173.2" font-family="Cascadia Code PL" font-size="11.00" fill="cyan">4 = body (move all)</text>
<text text-anchor="middle" x="76.5" y="-161.2" font-family="Cascadia Code PL" font-size="11.00" fill="cyan">DRAG_OFX/OFY set</text>
</g>
<!-- S_HOVERING&#45;&gt;S_GRABBED -->
<g id="edge3" class="edge">
<title>S_HOVERING&#45;&gt;S_GRABBED</title>
<path fill="none" stroke="#66cc66" d="M233.97,-337.64C172.46,-329.45 88.81,-313.85 68.5,-288 58.89,-275.77 57.61,-259.64 59.77,-244.25"/>
<polygon fill="#66cc66" stroke="#66cc66" points="63.23,-244.77 61.63,-234.29 56.35,-243.48 63.23,-244.77"/>
<text text-anchor="middle" x="127" y="-280.8" font-family="Cascadia Code PL" font-size="9.00" fill="#aaaaaa"> &#160;Mouse press on handle</text>
<text text-anchor="middle" x="127" y="-270.8" font-family="Cascadia Code PL" font-size="9.00" fill="#aaaaaa"> &#160;TRANSFORM_mouse_press()</text>
<text text-anchor="middle" x="127" y="-260.8" font-family="Cascadia Code PL" font-size="9.00" fill="#aaaaaa"> &#160;GRABBED = handle idx</text>
</g>
<!-- S_COMMITTED -->
<g id="node7" class="node">
<title>S_COMMITTED</title>
<polygon fill="none" stroke="white" points="471,-240 342,-240 342,-148 471,-148 471,-240"/>
<text text-anchor="middle" x="406.5" y="-227.2" font-family="Cascadia Code PL" font-size="11.00" fill="cyan">6 · COMMITTED</text>
<text text-anchor="middle" x="406.5" y="-215.2" font-family="Cascadia Code PL" font-size="11.00" fill="cyan">─────────────────</text>
<text text-anchor="middle" x="406.5" y="-203.2" font-family="Cascadia Code PL" font-size="11.00" fill="cyan">TRANSFORM_commit()</text>
<text text-anchor="middle" x="406.5" y="-191.2" font-family="Cascadia Code PL" font-size="11.00" fill="cyan">Apply warp to layer</text>
<text text-anchor="middle" x="406.5" y="-179.2" font-family="Cascadia Code PL" font-size="11.00" fill="cyan">HISTORY_record</text>
<text text-anchor="middle" x="406.5" y="-167.2" font-family="Cascadia Code PL" font-size="11.00" fill="cyan">ACTIVE = FALSE</text>
<text text-anchor="middle" x="406.5" y="-155.2" font-family="Cascadia Code PL" font-size="11.00" fill="cyan">PREV_TOOL restored</text>
</g>
<!-- S_HOVERING&#45;&gt;S_COMMITTED -->
<g id="edge6" class="edge">
<title>S_HOVERING&#45;&gt;S_COMMITTED</title>
<path fill="none" stroke="#cccc66" d="M329.55,-305.98C341.72,-288.44 356.27,-267.45 369.42,-248.48"/>
<polygon fill="#cccc66" stroke="#cccc66" points="372.34,-250.41 375.16,-240.2 366.59,-246.43 372.34,-250.41"/>
<text text-anchor="middle" x="410" y="-275.8" font-family="Cascadia Code PL" font-size="9.00" fill="#aaaaaa"> &#160;Press Enter</text>
<text text-anchor="middle" x="410" y="-265.8" font-family="Cascadia Code PL" font-size="9.00" fill="#aaaaaa"> &#160;TRANSFORM_commit()</text>
</g>
<!-- S_CANCELLED -->
<g id="node8" class="node">
<title>S_CANCELLED</title>
<polygon fill="none" stroke="white" points="617.5,-234 489.5,-234 489.5,-154 617.5,-154 617.5,-234"/>
<text text-anchor="middle" x="553.5" y="-221.2" font-family="Cascadia Code PL" font-size="11.00" fill="cyan">7 · CANCELLED</text>
<text text-anchor="middle" x="553.5" y="-209.2" font-family="Cascadia Code PL" font-size="11.00" fill="cyan">─────────────────</text>
<text text-anchor="middle" x="553.5" y="-197.2" font-family="Cascadia Code PL" font-size="11.00" fill="cyan">TRANSFORM_cancel()</text>
<text text-anchor="middle" x="553.5" y="-185.2" font-family="Cascadia Code PL" font-size="11.00" fill="cyan">Restore layer from SRC</text>
<text text-anchor="middle" x="553.5" y="-173.2" font-family="Cascadia Code PL" font-size="11.00" fill="cyan">ACTIVE = FALSE</text>
<text text-anchor="middle" x="553.5" y="-161.2" font-family="Cascadia Code PL" font-size="11.00" fill="cyan">PREV_TOOL restored</text>
</g>
<!-- S_HOVERING&#45;&gt;S_CANCELLED -->
<g id="edge7" class="edge">
<title>S_HOVERING&#45;&gt;S_CANCELLED</title>
<path fill="none" stroke="#cc6666" stroke-dasharray="5,2" d="M371.02,-328.08C400.58,-318.94 434.68,-305.8 462.5,-288 481.97,-275.54 500.41,-258.18 515.54,-241.83"/>
<polygon fill="#cc6666" stroke="#cc6666" points="518.14,-244.18 522.25,-234.41 512.95,-239.48 518.14,-244.18"/>
<text text-anchor="middle" x="545.5" y="-275.8" font-family="Cascadia Code PL" font-size="9.00" fill="#aaaaaa"> &#160;Press Escape</text>
<text text-anchor="middle" x="545.5" y="-265.8" font-family="Cascadia Code PL" font-size="9.00" fill="#aaaaaa"> &#160;TRANSFORM_cancel()</text>
</g>
<!-- S_DRAGGING -->
<g id="node6" class="node">
<title>S_DRAGGING</title>
<polygon fill="none" stroke="white" points="218,-92 57,-92 57,0 218,0 218,-92"/>
<text text-anchor="middle" x="137.5" y="-79.2" font-family="Cascadia Code PL" font-size="11.00" fill="cyan">5 · DRAGGING</text>
<text text-anchor="middle" x="137.5" y="-67.2" font-family="Cascadia Code PL" font-size="11.00" fill="cyan">─────────────────</text>
<text text-anchor="middle" x="137.5" y="-55.2" font-family="Cascadia Code PL" font-size="11.00" fill="cyan">TRANSFORM_mouse_hold()</text>
<text text-anchor="middle" x="137.5" y="-43.2" font-family="Cascadia Code PL" font-size="11.00" fill="cyan">updates handle positions</text>
<text text-anchor="middle" x="137.5" y="-31.2" font-family="Cascadia Code PL" font-size="11.00" fill="cyan">PREVIEW_DIRTY = TRUE</text>
<text text-anchor="middle" x="137.5" y="-19.2" font-family="Cascadia Code PL" font-size="11.00" fill="cyan">Warped preview recomputed</text>
<text text-anchor="middle" x="137.5" y="-7.2" font-family="Cascadia Code PL" font-size="11.00" fill="cyan">each frame</text>
</g>
<!-- S_GRABBED&#45;&gt;S_DRAGGING -->
<g id="edge4" class="edge">
<title>S_GRABBED&#45;&gt;S_DRAGGING</title>
<path fill="none" stroke="#cccc66" d="M92.85,-153.87C99.55,-137.84 107.42,-119 114.67,-101.64"/>
<polygon fill="#cccc66" stroke="#cccc66" points="118,-102.76 118.62,-92.18 111.54,-100.06 118,-102.76"/>
<text text-anchor="middle" x="139.5" y="-122.8" font-family="Cascadia Code PL" font-size="9.00" fill="#aaaaaa"> &#160;Mouse move</text>
<text text-anchor="middle" x="139.5" y="-112.8" font-family="Cascadia Code PL" font-size="9.00" fill="#aaaaaa"> &#160;Begin drag</text>
</g>
<!-- S_DRAGGING&#45;&gt;S_HOVERING -->
<g id="edge5" class="edge">
<title>S_DRAGGING&#45;&gt;S_HOVERING</title>
<path fill="none" stroke="#cc6666" stroke-dasharray="5,2" d="M163.4,-92.2C166.33,-98.1 169.11,-104.13 171.5,-110 194.12,-165.65 179.5,-187.39 208.5,-240 220.07,-261 236.56,-281.3 252.5,-298.37"/>
<polygon fill="#cc6666" stroke="#cc6666" points="250.33,-301.17 259.77,-305.98 255.39,-296.33 250.33,-301.17"/>
<text text-anchor="middle" x="270.5" y="-206.8" font-family="Cascadia Code PL" font-size="9.00" fill="#aaaaaa"> &#160;Mouse release</text>
<text text-anchor="middle" x="270.5" y="-196.8" font-family="Cascadia Code PL" font-size="9.00" fill="#aaaaaa"> &#160;TRANSFORM_mouse_release()</text>
<text text-anchor="middle" x="270.5" y="-186.8" font-family="Cascadia Code PL" font-size="9.00" fill="#aaaaaa"> &#160;GRABBED = &#45;1</text>
<text text-anchor="middle" x="270.5" y="-176.8" font-family="Cascadia Code PL" font-size="9.00" fill="#aaaaaa"> &#160;Finalize drag step</text>
</g>
<!-- S_DRAGGING&#45;&gt;S_DRAGGING -->
<g id="edge8" class="edge">
<title>S_DRAGGING&#45;&gt;S_DRAGGING</title>
<path fill="none" stroke="#88aacc" d="M218.27,-58.24C228.93,-56.15 236,-52.07 236,-46 236,-42.11 233.1,-39.04 228.21,-36.79"/>
<polygon fill="#88aacc" stroke="#88aacc" points="228.86,-33.32 218.27,-33.76 226.82,-40.02 228.86,-33.32"/>
<text text-anchor="middle" x="286.5" y="-53.8" font-family="Cascadia Code PL" font-size="9.00" fill="#aaaaaa"> &#160;Mouse moves</text>
<text text-anchor="middle" x="286.5" y="-43.8" font-family="Cascadia Code PL" font-size="9.00" fill="#aaaaaa"> &#160;Update handle positions</text>
<text text-anchor="middle" x="286.5" y="-33.8" font-family="Cascadia Code PL" font-size="9.00" fill="#aaaaaa"> &#160;Recompute preview</text>
</g>
<!-- M_SCALE -->
<g id="node9" class="node">
<title>M_SCALE</title>
<polygon fill="none" stroke="white" points="832.5,-806 710.5,-806 710.5,-726 832.5,-726 832.5,-806"/>
<text text-anchor="middle" x="771.5" y="-793.2" font-family="Cascadia Code PL" font-size="11.00" fill="cyan">MODE_SCALE (1)</text>
<text text-anchor="middle" x="771.5" y="-781.2" font-family="Cascadia Code PL" font-size="11.00" fill="cyan">─────────────────</text>
<text text-anchor="middle" x="771.5" y="-769.2" font-family="Cascadia Code PL" font-size="11.00" fill="cyan">Drag corners to scale</text>
<text text-anchor="middle" x="771.5" y="-757.2" font-family="Cascadia Code PL" font-size="11.00" fill="cyan">SCALE_X/Y computed</text>
<text text-anchor="middle" x="771.5" y="-745.2" font-family="Cascadia Code PL" font-size="11.00" fill="cyan">from corner deltas</text>
<text text-anchor="middle" x="771.5" y="-733.2" font-family="Cascadia Code PL" font-size="11.00" fill="cyan">Shift = lock aspect</text>
</g>
<!-- M_ROTATE -->
<g id="node10" class="node">
<title>M_ROTATE</title>
<polygon fill="none" stroke="white" points="836.5,-680 706.5,-680 706.5,-600 836.5,-600 836.5,-680"/>
<text text-anchor="middle" x="771.5" y="-667.2" font-family="Cascadia Code PL" font-size="11.00" fill="cyan">MODE_ROTATE (2)</text>
<text text-anchor="middle" x="771.5" y="-655.2" font-family="Cascadia Code PL" font-size="11.00" fill="cyan">─────────────────</text>
<text text-anchor="middle" x="771.5" y="-643.2" font-family="Cascadia Code PL" font-size="11.00" fill="cyan">Drag corners around</text>
<text text-anchor="middle" x="771.5" y="-631.2" font-family="Cascadia Code PL" font-size="11.00" fill="cyan">PIVOT (center point)</text>
<text text-anchor="middle" x="771.5" y="-619.2" font-family="Cascadia Code PL" font-size="11.00" fill="cyan">ANGLE computed from</text>
<text text-anchor="middle" x="771.5" y="-607.2" font-family="Cascadia Code PL" font-size="11.00" fill="cyan">mouse angle to pivot</text>
</g>
<!-- M_SCALE&#45;&gt;M_ROTATE -->
<!-- M_SHEAR -->
<g id="node11" class="node">
<title>M_SHEAR</title>
<polygon fill="none" stroke="white" points="847.5,-522 695.5,-522 695.5,-454 847.5,-454 847.5,-522"/>
<text text-anchor="middle" x="771.5" y="-509.2" font-family="Cascadia Code PL" font-size="11.00" fill="cyan">MODE_SHEAR (3)</text>
<text text-anchor="middle" x="771.5" y="-497.2" font-family="Cascadia Code PL" font-size="11.00" fill="cyan">─────────────────</text>
<text text-anchor="middle" x="771.5" y="-485.2" font-family="Cascadia Code PL" font-size="11.00" fill="cyan">Skew one axis</text>
<text text-anchor="middle" x="771.5" y="-473.2" font-family="Cascadia Code PL" font-size="11.00" fill="cyan">Drag top/bottom = H shear</text>
<text text-anchor="middle" x="771.5" y="-461.2" font-family="Cascadia Code PL" font-size="11.00" fill="cyan">Drag left/right = V shear</text>
</g>
<!-- M_ROTATE&#45;&gt;M_SHEAR -->
<!-- M_DISTORT -->
<g id="node12" class="node">
<title>M_DISTORT</title>
<polygon fill="none" stroke="white" points="841,-380 702,-380 702,-312 841,-312 841,-380"/>
<text text-anchor="middle" x="771.5" y="-367.2" font-family="Cascadia Code PL" font-size="11.00" fill="cyan">MODE_DISTORT (4)</text>
<text text-anchor="middle" x="771.5" y="-355.2" font-family="Cascadia Code PL" font-size="11.00" fill="cyan">─────────────────</text>
<text text-anchor="middle" x="771.5" y="-343.2" font-family="Cascadia Code PL" font-size="11.00" fill="cyan">Free&#45;form corner drag</text>
<text text-anchor="middle" x="771.5" y="-331.2" font-family="Cascadia Code PL" font-size="11.00" fill="cyan">Each corner independent</text>
<text text-anchor="middle" x="771.5" y="-319.2" font-family="Cascadia Code PL" font-size="11.00" fill="cyan">Arbitrary quadrilateral</text>
</g>
<!-- M_SHEAR&#45;&gt;M_DISTORT -->
<!-- M_PERSPECTIVE -->
<g id="node13" class="node">
<title>M_PERSPECTIVE</title>
<polygon fill="none" stroke="white" points="837,-234 706,-234 706,-154 837,-154 837,-234"/>
<text text-anchor="middle" x="771.5" y="-221.2" font-family="Cascadia Code PL" font-size="11.00" fill="cyan">MODE_PERSPECTIVE (5)</text>
<text text-anchor="middle" x="771.5" y="-209.2" font-family="Cascadia Code PL" font-size="11.00" fill="cyan">─────────────────</text>
<text text-anchor="middle" x="771.5" y="-197.2" font-family="Cascadia Code PL" font-size="11.00" fill="cyan">Homography transform</text>
<text text-anchor="middle" x="771.5" y="-185.2" font-family="Cascadia Code PL" font-size="11.00" fill="cyan">Perspective projection</text>
<text text-anchor="middle" x="771.5" y="-173.2" font-family="Cascadia Code PL" font-size="11.00" fill="cyan">Corner movement with</text>
<text text-anchor="middle" x="771.5" y="-161.2" font-family="Cascadia Code PL" font-size="11.00" fill="cyan">perspective constraints</text>
</g>
<!-- M_DISTORT&#45;&gt;M_PERSPECTIVE -->
<!-- H1 -->
<g id="node14" class="node">
<title>H1</title>
<polygon fill="none" stroke="white" points="1316.5,-800 1176.5,-800 1176.5,-732 1316.5,-732 1316.5,-800"/>
<text text-anchor="middle" x="1246.5" y="-787.2" font-family="Cascadia Code PL" font-size="11.00" fill="cyan">Corner Handles (0&#45;3)</text>
<text text-anchor="middle" x="1246.5" y="-775.2" font-family="Cascadia Code PL" font-size="11.00" fill="cyan">─────────────────</text>
<text text-anchor="middle" x="1246.5" y="-763.2" font-family="Cascadia Code PL" font-size="11.00" fill="cyan">TRANSFORM_HX/HY(0..3)</text>
<text text-anchor="middle" x="1246.5" y="-751.2" font-family="Cascadia Code PL" font-size="11.00" fill="cyan">TL=0, TR=1, BR=2, BL=3</text>
<text text-anchor="middle" x="1246.5" y="-739.2" font-family="Cascadia Code PL" font-size="11.00" fill="cyan">Drag to transform</text>
</g>
<!-- H2 -->
<g id="node15" class="node">
<title>H2</title>
<polygon fill="none" stroke="white" points="1158.5,-800 1046.5,-800 1046.5,-732 1158.5,-732 1158.5,-800"/>
<text text-anchor="middle" x="1102.5" y="-787.2" font-family="Cascadia Code PL" font-size="11.00" fill="cyan">Body Drag (4)</text>
<text text-anchor="middle" x="1102.5" y="-775.2" font-family="Cascadia Code PL" font-size="11.00" fill="cyan">─────────────────</text>
<text text-anchor="middle" x="1102.5" y="-763.2" font-family="Cascadia Code PL" font-size="11.00" fill="cyan">GRABBED = 4</text>
<text text-anchor="middle" x="1102.5" y="-751.2" font-family="Cascadia Code PL" font-size="11.00" fill="cyan">Translate all corners</text>
<text text-anchor="middle" x="1102.5" y="-739.2" font-family="Cascadia Code PL" font-size="11.00" fill="cyan">equally (move)</text>
</g>
<!-- H3 -->
<g id="node16" class="node">
<title>H3</title>
<polygon fill="none" stroke="white" points="1028.5,-800 906.5,-800 906.5,-732 1028.5,-732 1028.5,-800"/>
<text text-anchor="middle" x="967.5" y="-787.2" font-family="Cascadia Code PL" font-size="11.00" fill="cyan">Pivot Point</text>
<text text-anchor="middle" x="967.5" y="-775.2" font-family="Cascadia Code PL" font-size="11.00" fill="cyan">─────────────────</text>
<text text-anchor="middle" x="967.5" y="-763.2" font-family="Cascadia Code PL" font-size="11.00" fill="cyan">TRANSFORM_PX/PY</text>
<text text-anchor="middle" x="967.5" y="-751.2" font-family="Cascadia Code PL" font-size="11.00" fill="cyan">Center of rotation</text>
<text text-anchor="middle" x="967.5" y="-739.2" font-family="Cascadia Code PL" font-size="11.00" fill="cyan">Displayed as crosshair</text>
</g>
<!-- MOD_SHIFT -->
<g id="node17" class="node">
<title>MOD_SHIFT</title>
<polygon fill="none" stroke="white" points="1760,-800 1629,-800 1629,-732 1760,-732 1760,-800"/>
<text text-anchor="middle" x="1694.5" y="-787.2" font-family="Cascadia Code PL" font-size="11.00" fill="cyan">SHIFT held</text>
<text text-anchor="middle" x="1694.5" y="-775.2" font-family="Cascadia Code PL" font-size="11.00" fill="cyan">─────────────────</text>
<text text-anchor="middle" x="1694.5" y="-763.2" font-family="Cascadia Code PL" font-size="11.00" fill="cyan">Constrain drag to</text>
<text text-anchor="middle" x="1694.5" y="-751.2" font-family="Cascadia Code PL" font-size="11.00" fill="cyan">X or Y axis only</text>
<text text-anchor="middle" x="1694.5" y="-739.2" font-family="Cascadia Code PL" font-size="11.00" fill="cyan">Lock horizontal/vertical</text>
</g>
<!-- MOD_CTRL -->
<g id="node18" class="node">
<title>MOD_CTRL</title>
<polygon fill="none" stroke="white" points="1610.5,-800 1504.5,-800 1504.5,-732 1610.5,-732 1610.5,-800"/>
<text text-anchor="middle" x="1557.5" y="-787.2" font-family="Cascadia Code PL" font-size="11.00" fill="cyan">CTRL held</text>
<text text-anchor="middle" x="1557.5" y="-775.2" font-family="Cascadia Code PL" font-size="11.00" fill="cyan">─────────────────</text>
<text text-anchor="middle" x="1557.5" y="-763.2" font-family="Cascadia Code PL" font-size="11.00" fill="cyan">Scale from center</text>
<text text-anchor="middle" x="1557.5" y="-751.2" font-family="Cascadia Code PL" font-size="11.00" fill="cyan">Pivot stays fixed</text>
<text text-anchor="middle" x="1557.5" y="-739.2" font-family="Cascadia Code PL" font-size="11.00" fill="cyan">Symmetric scaling</text>
</g>
<!-- MOD_ARROW -->
<g id="node19" class="node">
<title>MOD_ARROW</title>
<polygon fill="none" stroke="white" points="1486,-800 1341,-800 1341,-732 1486,-732 1486,-800"/>
<text text-anchor="middle" x="1413.5" y="-787.2" font-family="Cascadia Code PL" font-size="11.00" fill="cyan">Arrow Keys</text>
<text text-anchor="middle" x="1413.5" y="-775.2" font-family="Cascadia Code PL" font-size="11.00" fill="cyan">─────────────────</text>
<text text-anchor="middle" x="1413.5" y="-763.2" font-family="Cascadia Code PL" font-size="11.00" fill="cyan">TRANSFORM_rotate_step()</text>
<text text-anchor="middle" x="1413.5" y="-751.2" font-family="Cascadia Code PL" font-size="11.00" fill="cyan">Fine rotation control</text>
<text text-anchor="middle" x="1413.5" y="-739.2" font-family="Cascadia Code PL" font-size="11.00" fill="cyan">+/&#45; degrees per press</text>
</g>
<!-- PR1 -->
<g id="node20" class="node">
<title>PR1</title>
<polygon fill="none" stroke="white" points="2133,-806 1966,-806 1966,-726 2133,-726 2133,-806"/>
<text text-anchor="middle" x="2049.5" y="-793.2" font-family="Cascadia Code PL" font-size="11.00" fill="cyan">TRANSFORM_PREVIEW_IMG</text>
<text text-anchor="middle" x="2049.5" y="-781.2" font-family="Cascadia Code PL" font-size="11.00" fill="cyan">─────────────────</text>
<text text-anchor="middle" x="2049.5" y="-769.2" font-family="Cascadia Code PL" font-size="11.00" fill="cyan">Warped preview image</text>
<text text-anchor="middle" x="2049.5" y="-757.2" font-family="Cascadia Code PL" font-size="11.00" fill="cyan">Updated each drag step</text>
<text text-anchor="middle" x="2049.5" y="-745.2" font-family="Cascadia Code PL" font-size="11.00" fill="cyan">TRANSFORM_PREVIEW_DIRTY</text>
<text text-anchor="middle" x="2049.5" y="-733.2" font-family="Cascadia Code PL" font-size="11.00" fill="cyan">flags when recompute needed</text>
</g>
<!-- PR2 -->
<g id="node21" class="node">
<title>PR2</title>
<polygon fill="none" stroke="white" points="1948,-806 1785,-806 1785,-726 1948,-726 1948,-806"/>
<text text-anchor="middle" x="1866.5" y="-793.2" font-family="Cascadia Code PL" font-size="11.00" fill="cyan">TRANSFORM_render_overlay()</text>
<text text-anchor="middle" x="1866.5" y="-781.2" font-family="Cascadia Code PL" font-size="11.00" fill="cyan">─────────────────</text>
<text text-anchor="middle" x="1866.5" y="-769.2" font-family="Cascadia Code PL" font-size="11.00" fill="cyan">Draw handle squares</text>
<text text-anchor="middle" x="1866.5" y="-757.2" font-family="Cascadia Code PL" font-size="11.00" fill="cyan">Draw guide lines</text>
<text text-anchor="middle" x="1866.5" y="-745.2" font-family="Cascadia Code PL" font-size="11.00" fill="cyan">Draw pivot crosshair</text>
<text text-anchor="middle" x="1866.5" y="-733.2" font-family="Cascadia Code PL" font-size="11.00" fill="cyan">Draw warped preview</text>
</g>
<!-- L1 -->
<g id="node22" class="node">
<title>L1</title>
<ellipse fill="white" stroke="white" cx="2438.5" cy="-766" rx="0.36" ry="0.36"/>
</g>
<!-- L2 -->
<g id="node23" class="node">
<title>L2</title>
<ellipse fill="white" stroke="white" cx="2438.5" cy="-640" rx="0.36" ry="0.36"/>
</g>
<!-- L1&#45;&gt;L2 -->
<g id="edge14" class="edge">
<title>L1&#45;&gt;L2</title>
<path fill="none" stroke="#66cc66" d="M2438.5,-764.91C2438.5,-761.83 2438.5,-680.68 2438.5,-651.4"/>
<polygon fill="#66cc66" stroke="#66cc66" points="2442,-651.09 2438.5,-641.09 2435,-651.09 2442,-651.09"/>
<text text-anchor="middle" x="2469" y="-700.8" font-family="Cascadia Code PL" font-size="9.00" fill="#aaaaaa"> Activate / Start</text>
</g>
<!-- L3 -->
<g id="node24" class="node">
<title>L3</title>
<ellipse fill="white" stroke="white" cx="2348.5" cy="-766" rx="0.36" ry="0.36"/>
</g>
<!-- L4 -->
<g id="node25" class="node">
<title>L4</title>
<ellipse fill="white" stroke="white" cx="2348.5" cy="-640" rx="0.36" ry="0.36"/>
</g>
<!-- L3&#45;&gt;L4 -->
<g id="edge15" class="edge">
<title>L3&#45;&gt;L4</title>
<path fill="none" stroke="#cc6666" stroke-dasharray="5,2" d="M2348.5,-764.91C2348.5,-761.83 2348.5,-680.68 2348.5,-651.4"/>
<polygon fill="#cc6666" stroke="#cc6666" points="2352,-651.09 2348.5,-641.09 2345,-651.09 2352,-651.09"/>
<text text-anchor="middle" x="2382" y="-700.8" font-family="Cascadia Code PL" font-size="9.00" fill="#aaaaaa"> Cancel / Release</text>
</g>
<!-- L5 -->
<g id="node26" class="node">
<title>L5</title>
<ellipse fill="white" stroke="white" cx="2255.5" cy="-766" rx="0.36" ry="0.36"/>
</g>
<!-- L6 -->
<g id="node27" class="node">
<title>L6</title>
<ellipse fill="white" stroke="white" cx="2255.5" cy="-640" rx="0.36" ry="0.36"/>
</g>
<!-- L5&#45;&gt;L6 -->
<g id="edge16" class="edge">
<title>L5&#45;&gt;L6</title>
<path fill="none" stroke="#cccc66" d="M2255.5,-764.91C2255.5,-761.83 2255.5,-680.68 2255.5,-651.4"/>
<polygon fill="#cccc66" stroke="#cccc66" points="2259,-651.09 2255.5,-641.09 2252,-651.09 2259,-651.09"/>
<text text-anchor="middle" x="2290.5" y="-700.8" font-family="Cascadia Code PL" font-size="9.00" fill="#aaaaaa"> Commit / Record</text>
</g>
<!-- L7 -->
<g id="node28" class="node">
<title>L7</title>
<ellipse fill="white" stroke="white" cx="2174.5" cy="-766" rx="0.36" ry="0.36"/>
</g>
<!-- L8 -->
<g id="node29" class="node">
<title>L8</title>
<ellipse fill="white" stroke="white" cx="2174.5" cy="-640" rx="0.36" ry="0.36"/>
</g>
<!-- L7&#45;&gt;L8 -->
<g id="edge17" class="edge">
<title>L7&#45;&gt;L8</title>
<path fill="none" stroke="#88aacc" d="M2174.5,-764.91C2174.5,-761.83 2174.5,-680.68 2174.5,-651.4"/>
<polygon fill="#88aacc" stroke="#88aacc" points="2178,-651.09 2174.5,-641.09 2171,-651.09 2178,-651.09"/>
<text text-anchor="middle" x="2203.5" y="-700.8" font-family="Cascadia Code PL" font-size="9.00" fill="#aaaaaa"> Self&#45;transition</text>
</g>
</g>
</svg>
