<?xml version="1.0" encoding="UTF-8" standalone="no"?>
<!DOCTYPE svg PUBLIC "-//W3C//DTD SVG 1.1//EN"
 "http://www.w3.org/Graphics/SVG/1.1/DTD/svg11.dtd">
<!-- Generated by graphviz version 2.42.4 (0)
 -->
<!-- Title: KEYBOARD_OPERATION Pages: 1 -->
<svg width="2465pt" height="881pt"
 viewBox="0.00 0.00 2465.00 881.36" xmlns="http://www.w3.org/2000/svg" xmlns:xlink="http://www.w3.org/1999/xlink">
<g id="graph0" class="graph" transform="scale(1 1) rotate(0) translate(4 877.36)">
<title>KEYBOARD_OPERATION</title>
<text text-anchor="middle" x="1228.5" y="-850.16" font-family="Cascadia Code PL" font-size="24.00" fill="white">KEYBOARD OPERATION STATE MACHINE</text>
<g id="clust2" class="cluster">
<title>cluster_modifiers</title>
<polygon fill="transparent" stroke="orange" stroke-dasharray="5,2" points="8,-229.5 8,-710.5 509,-710.5 509,-229.5 8,-229.5"/>
<text text-anchor="middle" x="126.5" y="-697.7" font-family="Cascadia Code PL" font-size="11.00" fill="orange">MODIFIER TRACKING — MODIFIERS_update()</text>
</g>
<g id="clust3" class="cluster">
<title>cluster_hotkeys</title>
<polygon fill="transparent" stroke="orange" stroke-dasharray="5,2" points="517,-584 517,-749 1601,-749 1601,-584 517,-584"/>
<text text-anchor="middle" x="650.5" y="-736.2" font-family="Cascadia Code PL" font-size="11.00" fill="orange">HOTKEY CATEGORIES — KEYBOARD_input_handler()</text>
</g>
<g id="clust4" class="cluster">
<title>cluster_chords</title>
<polygon fill="transparent" stroke="orange" stroke-dasharray="5,2" points="1609,-224 1609,-710.5 1886,-710.5 1886,-224 1609,-224"/>
<text text-anchor="middle" x="1747.5" y="-697.7" font-family="Cascadia Code PL" font-size="11.00" fill="orange">CHORD PATTERNS — _KEYDOWN() with STATIC guard</text>
</g>
<g id="clust7" class="cluster">
<title>cluster_legend</title>
<polygon fill="transparent" stroke="white" stroke-dasharray="5,2" points="2118,-648.14 2118,-831.36 2449,-831.36 2449,-648.14 2118,-648.14"/>
<text text-anchor="middle" x="2146" y="-818.56" font-family="Cascadia Code PL" font-size="11.00" fill="white">LEGEND</text>
</g>
<g id="clust5" class="cluster">
<title>cluster_routing</title>
<polygon fill="transparent" stroke="orange" stroke-dasharray="5,2" points="1894,-8 1894,-716 2110,-716 2110,-8 1894,-8"/>
<text text-anchor="middle" x="1967" y="-703.2" font-family="Cascadia Code PL" font-size="11.00" fill="orange">INPUT ROUTING PRIORITY</text>
</g>
<!-- MODIFIERS_F -->
<g id="node1" class="node">
<title>MODIFIERS_F</title>
<polygon fill="none" stroke="orange" stroke-width="2" points="301,-821 298,-825 277,-825 274,-821 219,-821 219,-785 301,-785 301,-821"/>
<text text-anchor="middle" x="260" y="-799.6" font-family="Cascadia Code PL" font-size="13.00" fill="orange">MODIFIERS</text>
</g>
<!-- MOD_NONE -->
<g id="node5" class="node">
<title>MOD_NONE</title>
<polygon fill="none" stroke="white" points="328.5,-682.5 191.5,-682.5 191.5,-630.5 328.5,-630.5 328.5,-682.5"/>
<text text-anchor="middle" x="260" y="-670.5" font-family="Cascadia Code PL" font-size="10.00" fill="cyan">No Modifiers</text>
<text text-anchor="middle" x="260" y="-659.5" font-family="Cascadia Code PL" font-size="10.00" fill="cyan">────────────</text>
<text text-anchor="middle" x="260" y="-648.5" font-family="Cascadia Code PL" font-size="10.00" fill="cyan">MODIFIERS.none% = TRUE</text>
<text text-anchor="middle" x="260" y="-637.5" font-family="Cascadia Code PL" font-size="10.00" fill="cyan">All ctrl/shift/alt = FALSE</text>
</g>
<!-- MODIFIERS_F&#45;&gt;MOD_NONE -->
<g id="edge22" class="edge">
<title>MODIFIERS_F&#45;&gt;MOD_NONE</title>
<path fill="none" stroke="#555555" stroke-dasharray="1,5" d="M260,-784.86C260,-766.58 260,-736.71 260,-710.5"/>
</g>
<!-- HOTKEYS_F -->
<g id="node2" class="node">
<title>HOTKEYS_F</title>
<polygon fill="none" stroke="orange" stroke-width="2" points="1565,-821 1562,-825 1541,-825 1538,-821 1495,-821 1495,-785 1565,-785 1565,-821"/>
<text text-anchor="middle" x="1530" y="-799.6" font-family="Cascadia Code PL" font-size="13.00" fill="orange">HOTKEYS</text>
</g>
<!-- HK_TOOLS -->
<g id="node13" class="node">
<title>HK_TOOLS</title>
<polygon fill="none" stroke="white" points="1592.5,-715.5 1467.5,-715.5 1467.5,-597.5 1592.5,-597.5 1592.5,-715.5"/>
<text text-anchor="middle" x="1530" y="-703.5" font-family="Cascadia Code PL" font-size="10.00" fill="cyan">Tool Switching</text>
<text text-anchor="middle" x="1530" y="-692.5" font-family="Cascadia Code PL" font-size="10.00" fill="cyan">────────────</text>
<text text-anchor="middle" x="1530" y="-681.5" font-family="Cascadia Code PL" font-size="10.00" fill="cyan">KEYBOARD_tools()</text>
<text text-anchor="middle" x="1530" y="-670.5" font-family="Cascadia Code PL" font-size="10.00" fill="cyan">D=Dot, B=Brush, L=Line</text>
<text text-anchor="middle" x="1530" y="-659.5" font-family="Cascadia Code PL" font-size="10.00" fill="cyan">R=Rect, E=Ellipse</text>
<text text-anchor="middle" x="1530" y="-648.5" font-family="Cascadia Code PL" font-size="10.00" fill="cyan">F=Fill, P=Picker</text>
<text text-anchor="middle" x="1530" y="-637.5" font-family="Cascadia Code PL" font-size="10.00" fill="cyan">M=Marquee, V=Move</text>
<text text-anchor="middle" x="1530" y="-626.5" font-family="Cascadia Code PL" font-size="10.00" fill="cyan">T=Text, S=Spray</text>
<text text-anchor="middle" x="1530" y="-615.5" font-family="Cascadia Code PL" font-size="10.00" fill="cyan">K=Custom Brush</text>
<text text-anchor="middle" x="1530" y="-604.5" font-family="Cascadia Code PL" font-size="10.00" fill="cyan">A=Pan, Z=Zoom</text>
</g>
<!-- HOTKEYS_F&#45;&gt;HK_TOOLS -->
<g id="edge23" class="edge">
<title>HOTKEYS_F&#45;&gt;HK_TOOLS</title>
<path fill="none" stroke="#555555" stroke-dasharray="1,5" d="M1530,-784.86C1530,-775.33 1530,-762.66 1530,-749"/>
</g>
<!-- CHORDS_F -->
<g id="node3" class="node">
<title>CHORDS_F</title>
<polygon fill="none" stroke="orange" stroke-width="2" points="1777.5,-821 1774.5,-825 1753.5,-825 1750.5,-821 1710.5,-821 1710.5,-785 1777.5,-785 1777.5,-821"/>
<text text-anchor="middle" x="1744" y="-799.6" font-family="Cascadia Code PL" font-size="13.00" fill="orange">CHORDS</text>
</g>
<!-- CH_IDLE -->
<g id="node19" class="node">
<title>CH_IDLE</title>
<polygon fill="none" stroke="white" points="1809.5,-682.5 1678.5,-682.5 1678.5,-630.5 1809.5,-630.5 1809.5,-682.5"/>
<text text-anchor="middle" x="1744" y="-670.5" font-family="Cascadia Code PL" font-size="10.00" fill="cyan">No Key Down</text>
<text text-anchor="middle" x="1744" y="-659.5" font-family="Cascadia Code PL" font-size="10.00" fill="cyan">────────────</text>
<text text-anchor="middle" x="1744" y="-648.5" font-family="Cascadia Code PL" font-size="10.00" fill="cyan">STATIC pressed% = FALSE</text>
<text text-anchor="middle" x="1744" y="-637.5" font-family="Cascadia Code PL" font-size="10.00" fill="cyan">Waiting for chord</text>
</g>
<!-- CHORDS_F&#45;&gt;CH_IDLE -->
<g id="edge24" class="edge">
<title>CHORDS_F&#45;&gt;CH_IDLE</title>
<path fill="none" stroke="#555555" stroke-dasharray="1,5" d="M1744,-784.86C1744,-766.58 1744,-736.71 1744,-710.5"/>
</g>
<!-- ROUTING_F -->
<g id="node4" class="node">
<title>ROUTING_F</title>
<polygon fill="none" stroke="orange" stroke-width="2" points="2058.5,-821 2055.5,-825 2034.5,-825 2031.5,-821 1945.5,-821 1945.5,-785 2058.5,-785 2058.5,-821"/>
<text text-anchor="middle" x="2002" y="-799.6" font-family="Cascadia Code PL" font-size="13.00" fill="orange">INPUT ROUTING</text>
</g>
<!-- R1 -->
<g id="node23" class="node">
<title>R1</title>
<polygon fill="none" stroke="white" points="2102,-688 1902,-688 1902,-625 2102,-625 2102,-688"/>
<text text-anchor="middle" x="2002" y="-676" font-family="Cascadia Code PL" font-size="10.00" fill="cyan">1. Command Palette</text>
<text text-anchor="middle" x="2002" y="-665" font-family="Cascadia Code PL" font-size="10.00" fill="cyan">────────────</text>
<text text-anchor="middle" x="2002" y="-654" font-family="Cascadia Code PL" font-size="10.00" fill="cyan">IF CMD.VISIBLE THEN</text>
<text text-anchor="middle" x="2002" y="-643" font-family="Cascadia Code PL" font-size="10.00" fill="cyan"> &#160;KEYBOARD_handle_command_palette%</text>
<text text-anchor="middle" x="2002" y="-632" font-family="Cascadia Code PL" font-size="10.00" fill="cyan"> &#160;EXIT</text>
</g>
<!-- ROUTING_F&#45;&gt;R1 -->
<g id="edge25" class="edge">
<title>ROUTING_F&#45;&gt;R1</title>
<path fill="none" stroke="#555555" stroke-dasharray="1,5" d="M2002,-784.86C2002,-767.84 2002,-740.8 2002,-716"/>
</g>
<!-- MOD_CTRL -->
<g id="node6" class="node">
<title>MOD_CTRL</title>
<polygon fill="none" stroke="white" points="164.5,-532.5 15.5,-532.5 15.5,-480.5 164.5,-480.5 164.5,-532.5"/>
<text text-anchor="middle" x="90" y="-520.5" font-family="Cascadia Code PL" font-size="10.00" fill="cyan">Ctrl Only</text>
<text text-anchor="middle" x="90" y="-509.5" font-family="Cascadia Code PL" font-size="10.00" fill="cyan">────────────</text>
<text text-anchor="middle" x="90" y="-498.5" font-family="Cascadia Code PL" font-size="10.00" fill="cyan">MODIFIERS.ctrlOnly% = TRUE</text>
<text text-anchor="middle" x="90" y="-487.5" font-family="Cascadia Code PL" font-size="10.00" fill="cyan">Command shortcuts active</text>
</g>
<!-- MOD_NONE&#45;&gt;MOD_CTRL -->
<g id="edge1" class="edge">
<title>MOD_NONE&#45;&gt;MOD_CTRL</title>
<path fill="none" stroke="#88aacc" d="M231.16,-630.39C202.34,-605.3 157.93,-566.64 126.64,-539.4"/>
<polygon fill="#88aacc" stroke="#88aacc" points="128.82,-536.66 118.98,-532.73 124.22,-541.94 128.82,-536.66"/>
<text text-anchor="middle" x="183" y="-563.1" font-family="Cascadia Code PL" font-size="8.00" fill="#aaaaaa"> Ctrl down</text>
</g>
<!-- MOD_SHIFT -->
<g id="node7" class="node">
<title>MOD_SHIFT</title>
<polygon fill="none" stroke="white" points="337,-538 183,-538 183,-475 337,-475 337,-538"/>
<text text-anchor="middle" x="260" y="-526" font-family="Cascadia Code PL" font-size="10.00" fill="cyan">Shift Only</text>
<text text-anchor="middle" x="260" y="-515" font-family="Cascadia Code PL" font-size="10.00" fill="cyan">────────────</text>
<text text-anchor="middle" x="260" y="-504" font-family="Cascadia Code PL" font-size="10.00" fill="cyan">MODIFIERS.shiftOnly% = TRUE</text>
<text text-anchor="middle" x="260" y="-493" font-family="Cascadia Code PL" font-size="10.00" fill="cyan">Crosshair assistant</text>
<text text-anchor="middle" x="260" y="-482" font-family="Cascadia Code PL" font-size="10.00" fill="cyan">Constrain axis/aspect</text>
</g>
<!-- MOD_NONE&#45;&gt;MOD_SHIFT -->
<g id="edge2" class="edge">
<title>MOD_NONE&#45;&gt;MOD_SHIFT</title>
<path fill="none" stroke="#88aacc" d="M260,-630.39C260,-607.9 260,-574.49 260,-548.18"/>
<polygon fill="#88aacc" stroke="#88aacc" points="263.5,-548.12 260,-538.12 256.5,-548.12 263.5,-548.12"/>
<text text-anchor="middle" x="280.5" y="-563.1" font-family="Cascadia Code PL" font-size="8.00" fill="#aaaaaa"> Shift down</text>
</g>
<!-- MOD_ALT -->
<g id="node8" class="node">
<title>MOD_ALT</title>
<polygon fill="none" stroke="white" points="501,-538 355,-538 355,-475 501,-475 501,-538"/>
<text text-anchor="middle" x="428" y="-526" font-family="Cascadia Code PL" font-size="10.00" fill="cyan">Alt Only</text>
<text text-anchor="middle" x="428" y="-515" font-family="Cascadia Code PL" font-size="10.00" fill="cyan">────────────</text>
<text text-anchor="middle" x="428" y="-504" font-family="Cascadia Code PL" font-size="10.00" fill="cyan">MODIFIERS.altOnly% = TRUE</text>
<text text-anchor="middle" x="428" y="-493" font-family="Cascadia Code PL" font-size="10.00" fill="cyan">Temp color picker</text>
<text text-anchor="middle" x="428" y="-482" font-family="Cascadia Code PL" font-size="10.00" fill="cyan">Menu bar access</text>
</g>
<!-- MOD_NONE&#45;&gt;MOD_ALT -->
<g id="edge3" class="edge">
<title>MOD_NONE&#45;&gt;MOD_ALT</title>
<path fill="none" stroke="#88aacc" d="M288.5,-630.39C315.05,-607 355,-571.81 385.35,-545.07"/>
<polygon fill="#88aacc" stroke="#88aacc" points="388.05,-547.36 393.24,-538.12 383.43,-542.1 388.05,-547.36"/>
<text text-anchor="middle" x="385.5" y="-563.1" font-family="Cascadia Code PL" font-size="8.00" fill="#aaaaaa"> Alt down</text>
</g>
<!-- MOD_CS -->
<g id="node9" class="node">
<title>MOD_CS</title>
<polygon fill="none" stroke="white" points="170.5,-412 21.5,-412 21.5,-349 170.5,-349 170.5,-412"/>
<text text-anchor="middle" x="96" y="-400" font-family="Cascadia Code PL" font-size="10.00" fill="cyan">Ctrl+Shift</text>
<text text-anchor="middle" x="96" y="-389" font-family="Cascadia Code PL" font-size="10.00" fill="cyan">────────────</text>
<text text-anchor="middle" x="96" y="-378" font-family="Cascadia Code PL" font-size="10.00" fill="cyan">MODIFIERS.ctrlShift% = TRUE</text>
<text text-anchor="middle" x="96" y="-367" font-family="Cascadia Code PL" font-size="10.00" fill="cyan">UI panel toggles</text>
<text text-anchor="middle" x="96" y="-356" font-family="Cascadia Code PL" font-size="10.00" fill="cyan">Ctrl+Shift+Arrow</text>
</g>
<!-- MOD_CTRL&#45;&gt;MOD_CS -->
<g id="edge4" class="edge">
<title>MOD_CTRL&#45;&gt;MOD_CS</title>
<path fill="none" stroke="#88aacc" d="M91.21,-480.41C92.02,-463.73 93.1,-441.45 94.03,-422.26"/>
<polygon fill="#88aacc" stroke="#88aacc" points="97.52,-422.42 94.51,-412.27 90.53,-422.09 97.52,-422.42"/>
<text text-anchor="middle" x="106.5" y="-441.6" font-family="Cascadia Code PL" font-size="8.00" fill="#aaaaaa"> +Shift</text>
</g>
<!-- MOD_CA -->
<g id="node10" class="node">
<title>MOD_CA</title>
<polygon fill="none" stroke="white" points="329.5,-412 188.5,-412 188.5,-349 329.5,-349 329.5,-412"/>
<text text-anchor="middle" x="259" y="-400" font-family="Cascadia Code PL" font-size="10.00" fill="cyan">Ctrl+Alt</text>
<text text-anchor="middle" x="259" y="-389" font-family="Cascadia Code PL" font-size="10.00" fill="cyan">────────────</text>
<text text-anchor="middle" x="259" y="-378" font-family="Cascadia Code PL" font-size="10.00" fill="cyan">MODIFIERS.ctrlAlt% = TRUE</text>
<text text-anchor="middle" x="259" y="-367" font-family="Cascadia Code PL" font-size="10.00" fill="cyan">Zoom assistant</text>
<text text-anchor="middle" x="259" y="-356" font-family="Cascadia Code PL" font-size="10.00" fill="cyan">Advanced hotkeys</text>
</g>
<!-- MOD_CTRL&#45;&gt;MOD_CA -->
<g id="edge5" class="edge">
<title>MOD_CTRL&#45;&gt;MOD_CA</title>
<path fill="none" stroke="#88aacc" d="M109.81,-480.18C123.08,-464.37 141.63,-444.36 161,-430 167.17,-425.43 173.83,-421.09 180.68,-417.03"/>
<polygon fill="#88aacc" stroke="#88aacc" points="182.48,-420.03 189.43,-412.04 179.01,-413.95 182.48,-420.03"/>
<text text-anchor="middle" x="170.5" y="-441.6" font-family="Cascadia Code PL" font-size="8.00" fill="#aaaaaa"> +Alt</text>
</g>
<!-- MOD_SHIFT&#45;&gt;MOD_CS -->
<g id="edge6" class="edge">
<title>MOD_SHIFT&#45;&gt;MOD_CS</title>
<path fill="none" stroke="#88aacc" d="M232.87,-474.81C219.08,-460.23 201.56,-443.16 184,-430 178.24,-425.69 172.05,-421.5 165.72,-417.52"/>
<polygon fill="#88aacc" stroke="#88aacc" points="167.39,-414.44 157.03,-412.22 163.75,-420.42 167.39,-414.44"/>
<text text-anchor="middle" x="226" y="-441.6" font-family="Cascadia Code PL" font-size="8.00" fill="#aaaaaa"> +Ctrl</text>
</g>
<!-- MOD_SA -->
<g id="node11" class="node">
<title>MOD_SA</title>
<polygon fill="none" stroke="white" points="494,-406.5 348,-406.5 348,-354.5 494,-354.5 494,-406.5"/>
<text text-anchor="middle" x="421" y="-394.5" font-family="Cascadia Code PL" font-size="10.00" fill="cyan">Shift+Alt</text>
<text text-anchor="middle" x="421" y="-383.5" font-family="Cascadia Code PL" font-size="10.00" fill="cyan">────────────</text>
<text text-anchor="middle" x="421" y="-372.5" font-family="Cascadia Code PL" font-size="10.00" fill="cyan">MODIFIERS.shiftAlt% = TRUE</text>
<text text-anchor="middle" x="421" y="-361.5" font-family="Cascadia Code PL" font-size="10.00" fill="cyan">Special combos</text>
</g>
<!-- MOD_SHIFT&#45;&gt;MOD_SA -->
<g id="edge7" class="edge">
<title>MOD_SHIFT&#45;&gt;MOD_SA</title>
<path fill="none" stroke="#88aacc" d="M285.42,-474.67C298.42,-460.06 315.04,-443 332,-430 340.55,-423.44 350.11,-417.25 359.7,-411.61"/>
<polygon fill="#88aacc" stroke="#88aacc" points="361.53,-414.6 368.48,-406.61 358.06,-408.52 361.53,-414.6"/>
<text text-anchor="middle" x="341.5" y="-441.6" font-family="Cascadia Code PL" font-size="8.00" fill="#aaaaaa"> +Alt</text>
</g>
<!-- MOD_ALT&#45;&gt;MOD_CA -->
<g id="edge8" class="edge">
<title>MOD_ALT&#45;&gt;MOD_CA</title>
<path fill="none" stroke="#88aacc" d="M400.56,-474.69C386.6,-460.08 368.85,-443.02 351,-430 344.85,-425.51 338.22,-421.18 331.45,-417.09"/>
<polygon fill="#88aacc" stroke="#88aacc" points="333.22,-414.06 322.82,-412.03 329.68,-420.1 333.22,-414.06"/>
<text text-anchor="middle" x="393" y="-441.6" font-family="Cascadia Code PL" font-size="8.00" fill="#aaaaaa"> +Ctrl</text>
</g>
<!-- MOD_ALT&#45;&gt;MOD_SA -->
<g id="edge9" class="edge">
<title>MOD_ALT&#45;&gt;MOD_SA</title>
<path fill="none" stroke="#88aacc" d="M426.27,-474.85C425.28,-457.26 424.03,-435.11 422.99,-416.79"/>
<polygon fill="#88aacc" stroke="#88aacc" points="426.49,-416.58 422.43,-406.79 419.5,-416.98 426.49,-416.58"/>
<text text-anchor="middle" x="437.5" y="-441.6" font-family="Cascadia Code PL" font-size="8.00" fill="#aaaaaa"> +Shift</text>
</g>
<!-- MOD_CSA -->
<g id="node12" class="node">
<title>MOD_CSA</title>
<polygon fill="none" stroke="white" points="339.5,-289.5 178.5,-289.5 178.5,-237.5 339.5,-237.5 339.5,-289.5"/>
<text text-anchor="middle" x="259" y="-277.5" font-family="Cascadia Code PL" font-size="10.00" fill="cyan">Ctrl+Shift+Alt</text>
<text text-anchor="middle" x="259" y="-266.5" font-family="Cascadia Code PL" font-size="10.00" fill="cyan">────────────</text>
<text text-anchor="middle" x="259" y="-255.5" font-family="Cascadia Code PL" font-size="10.00" fill="cyan">MODIFIERS.ctrlShiftAlt% = TRUE</text>
<text text-anchor="middle" x="259" y="-244.5" font-family="Cascadia Code PL" font-size="10.00" fill="cyan">All three held</text>
</g>
<!-- MOD_CS&#45;&gt;MOD_CSA -->
<g id="edge10" class="edge">
<title>MOD_CS&#45;&gt;MOD_CSA</title>
<path fill="none" stroke="#88aacc" d="M139.25,-348.98C162.69,-332.45 191.58,-312.06 215.11,-295.46"/>
<polygon fill="#88aacc" stroke="#88aacc" points="217.37,-298.16 223.52,-289.53 213.33,-292.44 217.37,-298.16"/>
<text text-anchor="middle" x="196.5" y="-320.1" font-family="Cascadia Code PL" font-size="8.00" fill="#aaaaaa"> +Alt</text>
</g>
<!-- MOD_CA&#45;&gt;MOD_CSA -->
<g id="edge11" class="edge">
<title>MOD_CA&#45;&gt;MOD_CSA</title>
<path fill="none" stroke="#88aacc" d="M259,-348.98C259,-333.95 259,-315.74 259,-300.08"/>
<polygon fill="#88aacc" stroke="#88aacc" points="262.5,-299.72 259,-289.72 255.5,-299.72 262.5,-299.72"/>
<text text-anchor="middle" x="271.5" y="-320.1" font-family="Cascadia Code PL" font-size="8.00" fill="#aaaaaa"> +Shift</text>
</g>
<!-- MOD_SA&#45;&gt;MOD_CSA -->
<g id="edge12" class="edge">
<title>MOD_SA&#45;&gt;MOD_CSA</title>
<path fill="none" stroke="#88aacc" d="M385.45,-354.26C361.08,-336.96 328.59,-313.9 302.64,-295.48"/>
<polygon fill="#88aacc" stroke="#88aacc" points="304.65,-292.61 294.47,-289.68 300.6,-298.32 304.65,-292.61"/>
<text text-anchor="middle" x="360" y="-320.1" font-family="Cascadia Code PL" font-size="8.00" fill="#aaaaaa"> +Ctrl</text>
</g>
<!-- HK_FILE -->
<g id="node14" class="node">
<title>HK_FILE</title>
<polygon fill="none" stroke="white" points="1449,-704.5 1267,-704.5 1267,-608.5 1449,-608.5 1449,-704.5"/>
<text text-anchor="middle" x="1358" y="-692.5" font-family="Cascadia Code PL" font-size="10.00" fill="cyan">File Operations</text>
<text text-anchor="middle" x="1358" y="-681.5" font-family="Cascadia Code PL" font-size="10.00" fill="cyan">────────────</text>
<text text-anchor="middle" x="1358" y="-670.5" font-family="Cascadia Code PL" font-size="10.00" fill="cyan">Ctrl+N = New</text>
<text text-anchor="middle" x="1358" y="-659.5" font-family="Cascadia Code PL" font-size="10.00" fill="cyan">Ctrl+O = Open</text>
<text text-anchor="middle" x="1358" y="-648.5" font-family="Cascadia Code PL" font-size="10.00" fill="cyan">Ctrl+S = Save</text>
<text text-anchor="middle" x="1358" y="-637.5" font-family="Cascadia Code PL" font-size="10.00" fill="cyan">Ctrl+Shift+S = Save As</text>
<text text-anchor="middle" x="1358" y="-626.5" font-family="Cascadia Code PL" font-size="10.00" fill="cyan">Ctrl+E = Export BMP</text>
<text text-anchor="middle" x="1358" y="-615.5" font-family="Cascadia Code PL" font-size="10.00" fill="cyan">Ctrl+Shift+Q = Re&#45;export QB64 code</text>
</g>
<!-- HK_EDIT -->
<g id="node15" class="node">
<title>HK_EDIT</title>
<polygon fill="none" stroke="white" points="1248.5,-704.5 1139.5,-704.5 1139.5,-608.5 1248.5,-608.5 1248.5,-704.5"/>
<text text-anchor="middle" x="1194" y="-692.5" font-family="Cascadia Code PL" font-size="10.00" fill="cyan">Edit Operations</text>
<text text-anchor="middle" x="1194" y="-681.5" font-family="Cascadia Code PL" font-size="10.00" fill="cyan">────────────</text>
<text text-anchor="middle" x="1194" y="-670.5" font-family="Cascadia Code PL" font-size="10.00" fill="cyan">Ctrl+Z = Undo</text>
<text text-anchor="middle" x="1194" y="-659.5" font-family="Cascadia Code PL" font-size="10.00" fill="cyan">Ctrl+Y = Redo</text>
<text text-anchor="middle" x="1194" y="-648.5" font-family="Cascadia Code PL" font-size="10.00" fill="cyan">Ctrl+C = Copy</text>
<text text-anchor="middle" x="1194" y="-637.5" font-family="Cascadia Code PL" font-size="10.00" fill="cyan">Ctrl+X = Cut</text>
<text text-anchor="middle" x="1194" y="-626.5" font-family="Cascadia Code PL" font-size="10.00" fill="cyan">Ctrl+V = Paste</text>
<text text-anchor="middle" x="1194" y="-615.5" font-family="Cascadia Code PL" font-size="10.00" fill="cyan">Del = Clear selection</text>
</g>
<!-- HK_COLOR -->
<g id="node16" class="node">
<title>HK_COLOR</title>
<polygon fill="none" stroke="white" points="1121.5,-704.5 972.5,-704.5 972.5,-608.5 1121.5,-608.5 1121.5,-704.5"/>
<text text-anchor="middle" x="1047" y="-692.5" font-family="Cascadia Code PL" font-size="10.00" fill="cyan">Color &amp; Opacity</text>
<text text-anchor="middle" x="1047" y="-681.5" font-family="Cascadia Code PL" font-size="10.00" fill="cyan">────────────</text>
<text text-anchor="middle" x="1047" y="-670.5" font-family="Cascadia Code PL" font-size="10.00" fill="cyan">1–0 = Opacity 10–100%</text>
<text text-anchor="middle" x="1047" y="-659.5" font-family="Cascadia Code PL" font-size="10.00" fill="cyan">X = Swap FG/BG</text>
<text text-anchor="middle" x="1047" y="-648.5" font-family="Cascadia Code PL" font-size="10.00" fill="cyan">[ ] = Prev/Next palette</text>
<text text-anchor="middle" x="1047" y="-637.5" font-family="Cascadia Code PL" font-size="10.00" fill="cyan">, . = Brush size ±1</text>
<text text-anchor="middle" x="1047" y="-626.5" font-family="Cascadia Code PL" font-size="10.00" fill="cyan">Ctrl+I = Invert colors</text>
<text text-anchor="middle" x="1047" y="-615.5" font-family="Cascadia Code PL" font-size="10.00" fill="cyan">Ctrl+Alt+R = Random palette</text>
</g>
<!-- HK_VIEW -->
<g id="node17" class="node">
<title>HK_VIEW</title>
<polygon fill="none" stroke="white" points="954.5,-721 745.5,-721 745.5,-592 954.5,-592 954.5,-721"/>
<text text-anchor="middle" x="850" y="-709" font-family="Cascadia Code PL" font-size="10.00" fill="cyan">View Controls</text>
<text text-anchor="middle" x="850" y="-698" font-family="Cascadia Code PL" font-size="10.00" fill="cyan">────────────</text>
<text text-anchor="middle" x="850" y="-687" font-family="Cascadia Code PL" font-size="10.00" fill="cyan">+ &#45; = Zoom in/out</text>
<text text-anchor="middle" x="850" y="-676" font-family="Cascadia Code PL" font-size="10.00" fill="cyan">0 = Fit to screen</text>
<text text-anchor="middle" x="850" y="-665" font-family="Cascadia Code PL" font-size="10.00" fill="cyan">G = Toggle grid</text>
<text text-anchor="middle" x="850" y="-654" font-family="Cascadia Code PL" font-size="10.00" fill="cyan"># = Toggle grid snap</text>
<text text-anchor="middle" x="850" y="-643" font-family="Cascadia Code PL" font-size="10.00" fill="cyan">Ctrl+Shift+? = Grid from brush size</text>
<text text-anchor="middle" x="850" y="-632" font-family="Cascadia Code PL" font-size="10.00" fill="cyan">Tab = Toggle UI</text>
<text text-anchor="middle" x="850" y="-621" font-family="Cascadia Code PL" font-size="10.00" fill="cyan">F11 = Fullscreen</text>
<text text-anchor="middle" x="850" y="-610" font-family="Cascadia Code PL" font-size="10.00" fill="cyan">Ctrl+Shift+Left/Right = Hide L/R UI</text>
<text text-anchor="middle" x="850" y="-599" font-family="Cascadia Code PL" font-size="10.00" fill="cyan">Ctrl+Shift+Up/Down = Hide top/bottom UI</text>
</g>
<!-- HK_LAYER -->
<g id="node18" class="node">
<title>HK_LAYER</title>
<polygon fill="none" stroke="white" points="727.5,-704.5 524.5,-704.5 524.5,-608.5 727.5,-608.5 727.5,-704.5"/>
<text text-anchor="middle" x="626" y="-692.5" font-family="Cascadia Code PL" font-size="10.00" fill="cyan">Layer Hotkeys</text>
<text text-anchor="middle" x="626" y="-681.5" font-family="Cascadia Code PL" font-size="10.00" fill="cyan">────────────</text>
<text text-anchor="middle" x="626" y="-670.5" font-family="Cascadia Code PL" font-size="10.00" fill="cyan">Ctrl+Shift+N = New layer</text>
<text text-anchor="middle" x="626" y="-659.5" font-family="Cascadia Code PL" font-size="10.00" fill="cyan">Ctrl+Shift+E = Merge down</text>
<text text-anchor="middle" x="626" y="-648.5" font-family="Cascadia Code PL" font-size="10.00" fill="cyan">Ctrl+Shift+R = Rename layer</text>
<text text-anchor="middle" x="626" y="-637.5" font-family="Cascadia Code PL" font-size="10.00" fill="cyan">PgUp/PgDn = Select layer</text>
<text text-anchor="middle" x="626" y="-626.5" font-family="Cascadia Code PL" font-size="10.00" fill="cyan">Ctrl+PgUp/PgDn = Move layer</text>
<text text-anchor="middle" x="626" y="-615.5" font-family="Cascadia Code PL" font-size="10.00" fill="cyan">Ctrl+Home/End = Arrange to top/bottom</text>
</g>
<!-- CH_MOD -->
<g id="node20" class="node">
<title>CH_MOD</title>
<polygon fill="none" stroke="white" points="1745,-538 1617,-538 1617,-475 1745,-475 1745,-538"/>
<text text-anchor="middle" x="1681" y="-526" font-family="Cascadia Code PL" font-size="10.00" fill="cyan">Modifier Held</text>
<text text-anchor="middle" x="1681" y="-515" font-family="Cascadia Code PL" font-size="10.00" fill="cyan">────────────</text>
<text text-anchor="middle" x="1681" y="-504" font-family="Cascadia Code PL" font-size="10.00" fill="cyan">Ctrl/Alt/Shift detected</text>
<text text-anchor="middle" x="1681" y="-493" font-family="Cascadia Code PL" font-size="10.00" fill="cyan">MODIFIERS_update() ran</text>
<text text-anchor="middle" x="1681" y="-482" font-family="Cascadia Code PL" font-size="10.00" fill="cyan">Watch for key press</text>
</g>
<!-- CH_IDLE&#45;&gt;CH_MOD -->
<g id="edge13" class="edge">
<title>CH_IDLE&#45;&gt;CH_MOD</title>
<path fill="none" stroke="#66cc66" d="M1692.48,-630.39C1670.86,-616.92 1647.99,-598.07 1636,-574 1631.43,-564.83 1633.2,-555.44 1638.03,-546.72"/>
<polygon fill="#66cc66" stroke="#66cc66" points="1641.06,-548.49 1643.77,-538.25 1635.27,-544.57 1641.06,-548.49"/>
<text text-anchor="middle" x="1718.5" y="-567.6" font-family="Cascadia Code PL" font-size="8.00" fill="#aaaaaa"> Modifier key pressed</text>
<text text-anchor="middle" x="1718.5" y="-558.6" font-family="Cascadia Code PL" font-size="8.00" fill="#aaaaaa"> _KEYDOWN(100303/100304/100305/100306)</text>
</g>
<!-- CH_FIRE -->
<g id="node21" class="node">
<title>CH_FIRE</title>
<polygon fill="none" stroke="white" points="1759,-412 1641,-412 1641,-349 1759,-349 1759,-412"/>
<text text-anchor="middle" x="1700" y="-400" font-family="Cascadia Code PL" font-size="10.00" fill="cyan">Chord Fired</text>
<text text-anchor="middle" x="1700" y="-389" font-family="Cascadia Code PL" font-size="10.00" fill="cyan">────────────</text>
<text text-anchor="middle" x="1700" y="-378" font-family="Cascadia Code PL" font-size="10.00" fill="cyan">pressed% = TRUE</text>
<text text-anchor="middle" x="1700" y="-367" font-family="Cascadia Code PL" font-size="10.00" fill="cyan">CMD_execute_action()</text>
<text text-anchor="middle" x="1700" y="-356" font-family="Cascadia Code PL" font-size="10.00" fill="cyan">One&#45;shot guard active</text>
</g>
<!-- CH_MOD&#45;&gt;CH_FIRE -->
<g id="edge14" class="edge">
<title>CH_MOD&#45;&gt;CH_FIRE</title>
<path fill="none" stroke="#66cc66" d="M1676.31,-474.71C1675.08,-460.9 1674.87,-444.49 1678,-430 1678.6,-427.2 1679.38,-424.38 1680.29,-421.56"/>
<polygon fill="#66cc66" stroke="#66cc66" points="1683.59,-422.73 1683.76,-412.13 1677.02,-420.31 1683.59,-422.73"/>
<text text-anchor="middle" x="1728.5" y="-446.1" font-family="Cascadia Code PL" font-size="8.00" fill="#aaaaaa"> Action key pressed</text>
<text text-anchor="middle" x="1728.5" y="-437.1" font-family="Cascadia Code PL" font-size="8.00" fill="#aaaaaa"> IF NOT pressed% THEN fire</text>
</g>
<!-- CH_WAIT -->
<g id="node22" class="node">
<title>CH_WAIT</title>
<polygon fill="none" stroke="white" points="1805.5,-295 1696.5,-295 1696.5,-232 1805.5,-232 1805.5,-295"/>
<text text-anchor="middle" x="1751" y="-283" font-family="Cascadia Code PL" font-size="10.00" fill="cyan">Waiting Release</text>
<text text-anchor="middle" x="1751" y="-272" font-family="Cascadia Code PL" font-size="10.00" fill="cyan">────────────</text>
<text text-anchor="middle" x="1751" y="-261" font-family="Cascadia Code PL" font-size="10.00" fill="cyan">pressed% = TRUE</text>
<text text-anchor="middle" x="1751" y="-250" font-family="Cascadia Code PL" font-size="10.00" fill="cyan">Key still held</text>
<text text-anchor="middle" x="1751" y="-239" font-family="Cascadia Code PL" font-size="10.00" fill="cyan">Blocked until release</text>
</g>
<!-- CH_FIRE&#45;&gt;CH_WAIT -->
<g id="edge15" class="edge">
<title>CH_FIRE&#45;&gt;CH_WAIT</title>
<path fill="none" stroke="#cccc66" d="M1713.53,-348.98C1719.58,-335.34 1726.8,-319.07 1733.27,-304.47"/>
<polygon fill="#cccc66" stroke="#cccc66" points="1736.55,-305.72 1737.4,-295.16 1730.15,-302.88 1736.55,-305.72"/>
<text text-anchor="middle" x="1761" y="-324.6" font-family="Cascadia Code PL" font-size="8.00" fill="#aaaaaa"> Same frame</text>
<text text-anchor="middle" x="1761" y="-315.6" font-family="Cascadia Code PL" font-size="8.00" fill="#aaaaaa"> pressed% = TRUE</text>
</g>
<!-- CH_WAIT&#45;&gt;CH_IDLE -->
<g id="edge16" class="edge">
<title>CH_WAIT&#45;&gt;CH_IDLE</title>
<path fill="none" stroke="#cc6666" stroke-dasharray="5,2" d="M1785.2,-295.02C1789.57,-300.55 1793.42,-306.61 1796,-313 1827.63,-391.22 1803.41,-566.36 1801,-574 1795.49,-591.48 1784.75,-608.48 1774.06,-622.39"/>
<polygon fill="#cc6666" stroke="#cc6666" points="1771.33,-620.21 1767.82,-630.21 1776.79,-624.58 1771.33,-620.21"/>
<text text-anchor="middle" x="1850.5" y="-450.6" font-family="Cascadia Code PL" font-size="8.00" fill="#aaaaaa"> Key released</text>
<text text-anchor="middle" x="1850.5" y="-441.6" font-family="Cascadia Code PL" font-size="8.00" fill="#aaaaaa"> NOT _KEYDOWN(key)</text>
<text text-anchor="middle" x="1850.5" y="-432.6" font-family="Cascadia Code PL" font-size="8.00" fill="#aaaaaa"> pressed% = FALSE</text>
</g>
<!-- R2 -->
<g id="node24" class="node">
<title>R2</title>
<polygon fill="none" stroke="white" points="2082.5,-538 1921.5,-538 1921.5,-475 2082.5,-475 2082.5,-538"/>
<text text-anchor="middle" x="2002" y="-526" font-family="Cascadia Code PL" font-size="10.00" fill="cyan">2. Menu Bar</text>
<text text-anchor="middle" x="2002" y="-515" font-family="Cascadia Code PL" font-size="10.00" fill="cyan">────────────</text>
<text text-anchor="middle" x="2002" y="-504" font-family="Cascadia Code PL" font-size="10.00" fill="cyan">IF MENU_BAR.openMenu ≥ 0</text>
<text text-anchor="middle" x="2002" y="-493" font-family="Cascadia Code PL" font-size="10.00" fill="cyan"> &#160;OR MENU_BAR.kbActive</text>
<text text-anchor="middle" x="2002" y="-482" font-family="Cascadia Code PL" font-size="10.00" fill="cyan"> &#160;KEYBOARD_handle_menubar%</text>
</g>
<!-- R1&#45;&gt;R2 -->
<g id="edge17" class="edge">
<title>R1&#45;&gt;R2</title>
<path fill="none" stroke="#88aacc" d="M2002,-624.83C2002,-602.71 2002,-572.6 2002,-548.42"/>
<polygon fill="#88aacc" stroke="#88aacc" points="2005.5,-548.13 2002,-538.13 1998.5,-548.13 2005.5,-548.13"/>
<text text-anchor="middle" x="2029.5" y="-563.1" font-family="Cascadia Code PL" font-size="8.00" fill="#aaaaaa"> Not consumed</text>
</g>
<!-- R3 -->
<g id="node25" class="node">
<title>R3</title>
<polygon fill="none" stroke="white" points="2055.5,-412 1948.5,-412 1948.5,-349 2055.5,-349 2055.5,-412"/>
<text text-anchor="middle" x="2002" y="-400" font-family="Cascadia Code PL" font-size="10.00" fill="cyan">3. Modal Tools</text>
<text text-anchor="middle" x="2002" y="-389" font-family="Cascadia Code PL" font-size="10.00" fill="cyan">────────────</text>
<text text-anchor="middle" x="2002" y="-378" font-family="Cascadia Code PL" font-size="10.00" fill="cyan">Image Import, Crop,</text>
<text text-anchor="middle" x="2002" y="-367" font-family="Cascadia Code PL" font-size="10.00" fill="cyan">RefImg Reposition,</text>
<text text-anchor="middle" x="2002" y="-356" font-family="Cascadia Code PL" font-size="10.00" fill="cyan">Transform, Fill&#45;Adj</text>
</g>
<!-- R2&#45;&gt;R3 -->
<g id="edge18" class="edge">
<title>R2&#45;&gt;R3</title>
<path fill="none" stroke="#88aacc" d="M2002,-474.85C2002,-459.05 2002,-439.57 2002,-422.49"/>
<polygon fill="#88aacc" stroke="#88aacc" points="2005.5,-422.23 2002,-412.23 1998.5,-422.23 2005.5,-422.23"/>
<text text-anchor="middle" x="2029.5" y="-441.6" font-family="Cascadia Code PL" font-size="8.00" fill="#aaaaaa"> Not consumed</text>
</g>
<!-- R4 -->
<g id="node26" class="node">
<title>R4</title>
<polygon fill="none" stroke="white" points="2077,-295 1927,-295 1927,-232 2077,-232 2077,-295"/>
<text text-anchor="middle" x="2002" y="-283" font-family="Cascadia Code PL" font-size="10.00" fill="cyan">4. Text Tool Editing</text>
<text text-anchor="middle" x="2002" y="-272" font-family="Cascadia Code PL" font-size="10.00" fill="cyan">────────────</text>
<text text-anchor="middle" x="2002" y="-261" font-family="Cascadia Code PL" font-size="10.00" fill="cyan">IF TEXT.ACTIVE THEN</text>
<text text-anchor="middle" x="2002" y="-250" font-family="Cascadia Code PL" font-size="10.00" fill="cyan"> &#160;KEYBOARD_handle_text_tool</text>
<text text-anchor="middle" x="2002" y="-239" font-family="Cascadia Code PL" font-size="10.00" fill="cyan"> &#160;Most keys consumed</text>
</g>
<!-- R3&#45;&gt;R4 -->
<g id="edge19" class="edge">
<title>R3&#45;&gt;R4</title>
<path fill="none" stroke="#88aacc" d="M2002,-348.98C2002,-335.6 2002,-319.69 2002,-305.3"/>
<polygon fill="#88aacc" stroke="#88aacc" points="2005.5,-305.16 2002,-295.16 1998.5,-305.16 2005.5,-305.16"/>
<text text-anchor="middle" x="2029.5" y="-320.1" font-family="Cascadia Code PL" font-size="8.00" fill="#aaaaaa"> Not consumed</text>
</g>
<!-- R5 -->
<g id="node27" class="node">
<title>R5</title>
<polygon fill="none" stroke="white" points="2066.5,-187 1937.5,-187 1937.5,-124 2066.5,-124 2066.5,-187"/>
<text text-anchor="middle" x="2002" y="-175" font-family="Cascadia Code PL" font-size="10.00" fill="cyan">5. Normal Hotkeys</text>
<text text-anchor="middle" x="2002" y="-164" font-family="Cascadia Code PL" font-size="10.00" fill="cyan">────────────</text>
<text text-anchor="middle" x="2002" y="-153" font-family="Cascadia Code PL" font-size="10.00" fill="cyan">Tool switching</text>
<text text-anchor="middle" x="2002" y="-142" font-family="Cascadia Code PL" font-size="10.00" fill="cyan">File/Edit/View commands</text>
<text text-anchor="middle" x="2002" y="-131" font-family="Cascadia Code PL" font-size="10.00" fill="cyan">Color/Opacity changes</text>
</g>
<!-- R4&#45;&gt;R5 -->
<g id="edge20" class="edge">
<title>R4&#45;&gt;R5</title>
<path fill="none" stroke="#88aacc" d="M2002,-231.84C2002,-221.07 2002,-208.8 2002,-197.33"/>
<polygon fill="#88aacc" stroke="#88aacc" points="2005.5,-197.09 2002,-187.09 1998.5,-197.09 2005.5,-197.09"/>
<text text-anchor="middle" x="2029.5" y="-207.6" font-family="Cascadia Code PL" font-size="8.00" fill="#aaaaaa"> Not consumed</text>
</g>
<!-- R6 -->
<g id="node28" class="node">
<title>R6</title>
<polygon fill="none" stroke="white" points="2052,-79 1952,-79 1952,-16 2052,-16 2052,-79"/>
<text text-anchor="middle" x="2002" y="-67" font-family="Cascadia Code PL" font-size="10.00" fill="cyan">6. Layer Keys</text>
<text text-anchor="middle" x="2002" y="-56" font-family="Cascadia Code PL" font-size="10.00" fill="cyan">────────────</text>
<text text-anchor="middle" x="2002" y="-45" font-family="Cascadia Code PL" font-size="10.00" fill="cyan">_KEYDOWN&#45;based</text>
<text text-anchor="middle" x="2002" y="-34" font-family="Cascadia Code PL" font-size="10.00" fill="cyan">PgUp/PgDn/Arrow</text>
<text text-anchor="middle" x="2002" y="-23" font-family="Cascadia Code PL" font-size="10.00" fill="cyan">Per&#45;frame repeat</text>
</g>
<!-- R5&#45;&gt;R6 -->
<g id="edge21" class="edge">
<title>R5&#45;&gt;R6</title>
<path fill="none" stroke="#88aacc" d="M2002,-123.84C2002,-113.07 2002,-100.8 2002,-89.33"/>
<polygon fill="#88aacc" stroke="#88aacc" points="2005.5,-89.09 2002,-79.09 1998.5,-89.09 2005.5,-89.09"/>
<text text-anchor="middle" x="2029.5" y="-99.6" font-family="Cascadia Code PL" font-size="8.00" fill="#aaaaaa"> Not consumed</text>
</g>
<!-- L1 -->
<g id="node29" class="node">
<title>L1</title>
<ellipse fill="white" stroke="white" cx="2361" cy="-803" rx="0.36" ry="0.36"/>
</g>
<!-- L2 -->
<g id="node30" class="node">
<title>L2</title>
<ellipse fill="white" stroke="white" cx="2361" cy="-656.5" rx="0.36" ry="0.36"/>
</g>
<!-- L1&#45;&gt;L2 -->
<g id="edge26" class="edge">
<title>L1&#45;&gt;L2</title>
<path fill="none" stroke="#66cc66" d="M2361,-801.9C2361,-798.24 2361,-700.15 2361,-667.77"/>
<polygon fill="#66cc66" stroke="#66cc66" points="2364.5,-667.6 2361,-657.6 2357.5,-667.6 2364.5,-667.6"/>
<text text-anchor="middle" x="2401" y="-759.8" font-family="Cascadia Code PL" font-size="9.00" fill="#aaaaaa"> Key Press / Activate</text>
</g>
<!-- L3 -->
<g id="node31" class="node">
<title>L3</title>
<ellipse fill="white" stroke="white" cx="2240" cy="-803" rx="0.36" ry="0.36"/>
</g>
<!-- L4 -->
<g id="node32" class="node">
<title>L4</title>
<ellipse fill="white" stroke="white" cx="2240" cy="-656.5" rx="0.36" ry="0.36"/>
</g>
<!-- L3&#45;&gt;L4 -->
<g id="edge27" class="edge">
<title>L3&#45;&gt;L4</title>
<path fill="none" stroke="#cc6666" stroke-dasharray="5,2" d="M2240,-801.9C2240,-798.24 2240,-700.15 2240,-667.77"/>
<polygon fill="#cc6666" stroke="#cc6666" points="2243.5,-667.6 2240,-657.6 2236.5,-667.6 2243.5,-667.6"/>
<text text-anchor="middle" x="2289" y="-759.8" font-family="Cascadia Code PL" font-size="9.00" fill="#aaaaaa"> Key Release / Deactivate</text>
</g>
<!-- L5 -->
<g id="node33" class="node">
<title>L5</title>
<ellipse fill="white" stroke="white" cx="2144" cy="-803" rx="0.36" ry="0.36"/>
</g>
<!-- L6 -->
<g id="node34" class="node">
<title>L6</title>
<ellipse fill="white" stroke="white" cx="2144" cy="-656.5" rx="0.36" ry="0.36"/>
</g>
<!-- L5&#45;&gt;L6 -->
<g id="edge28" class="edge">
<title>L5&#45;&gt;L6</title>
<path fill="none" stroke="#cccc66" d="M2144,-801.9C2144,-798.24 2144,-700.15 2144,-667.77"/>
<polygon fill="#cccc66" stroke="#cccc66" points="2147.5,-667.6 2144,-657.6 2140.5,-667.6 2147.5,-667.6"/>
<text text-anchor="middle" x="2180.5" y="-759.8" font-family="Cascadia Code PL" font-size="9.00" fill="#aaaaaa"> Guard / One&#45;Shot</text>
</g>
</g>
</svg>
