<?xml version="1.0" encoding="UTF-8" standalone="no"?>
<!DOCTYPE svg PUBLIC "-//W3C//DTD SVG 1.1//EN"
 "http://www.w3.org/Graphics/SVG/1.1/DTD/svg11.dtd">
<!-- Generated by graphviz version 2.42.4 (0)
 -->
<!-- Title: MOUSE_OPERATION Pages: 1 -->
<svg width="3367pt" height="647pt"
 viewBox="0.00 0.00 3366.66 646.86" xmlns="http://www.w3.org/2000/svg" xmlns:xlink="http://www.w3.org/1999/xlink">
<g id="graph0" class="graph" transform="scale(1 1) rotate(0) translate(4 642.86)">
<title>MOUSE_OPERATION</title>
<text text-anchor="middle" x="1679.33" y="-615.66" font-family="Cascadia Code PL" font-size="24.00" fill="white">MOUSE OPERATION STATE MACHINE</text>
<g id="clust9" class="cluster">
<title>cluster_legend</title>
<polygon fill="transparent" stroke="white" stroke-dasharray="5,2" points="3028.66,-441.14 3028.66,-596.86 3350.66,-596.86 3350.66,-441.14 3028.66,-441.14"/>
<text text-anchor="middle" x="3056.66" y="-584.06" font-family="Cascadia Code PL" font-size="11.00" fill="white">LEGEND</text>
</g>
<g id="clust2" class="cluster">
<title>cluster_gestures</title>
<polygon fill="transparent" stroke="orange" stroke-dasharray="5,2" points="1535.66,-249 1535.66,-514.5 2226.66,-514.5 2226.66,-249 1535.66,-249"/>
<text text-anchor="middle" x="1569.16" y="-501.7" font-family="Cascadia Code PL" font-size="11.00" fill="orange">GESTURES</text>
</g>
<g id="clust3" class="cluster">
<title>cluster_guards</title>
<polygon fill="transparent" stroke="orange" stroke-dasharray="5,2" points="1246.66,-8 1246.66,-353.5 1527.66,-353.5 1527.66,-8 1246.66,-8"/>
<text text-anchor="middle" x="1387.16" y="-340.7" font-family="Cascadia Code PL" font-size="11.00" fill="orange">GUARD LOGIC — MOUSE_should_skip_tool_actions%()</text>
</g>
<g id="clust4" class="cluster">
<title>cluster_deferred</title>
<polygon fill="transparent" stroke="orange" stroke-dasharray="5,2" points="2234.66,-260 2234.66,-498 3020.66,-498 3020.66,-260 2234.66,-260"/>
<text text-anchor="middle" x="2371.16" y="-485.2" font-family="Cascadia Code PL" font-size="11.00" fill="orange">DEFERRED ACTIONS — MOUSE_input_handler_loop()</text>
</g>
<!-- MAIN_STATES -->
<g id="node1" class="node">
<title>MAIN_STATES</title>
<polygon fill="none" stroke="orange" stroke-width="2" points="346.66,-586.5 343.66,-590.5 322.66,-590.5 319.66,-586.5 252.66,-586.5 252.66,-550.5 346.66,-550.5 346.66,-586.5"/>
<text text-anchor="middle" x="299.66" y="-565.1" font-family="Cascadia Code PL" font-size="13.00" fill="orange">MAIN STATES</text>
</g>
<!-- M_IDLE -->
<g id="node5" class="node">
<title>M_IDLE</title>
<polygon fill="none" stroke="white" points="371.16,-489.5 228.16,-489.5 228.16,-409.5 371.16,-409.5 371.16,-489.5"/>
<text text-anchor="middle" x="299.66" y="-476.7" font-family="Cascadia Code PL" font-size="11.00" fill="cyan">1 · IDLE</text>
<text text-anchor="middle" x="299.66" y="-464.7" font-family="Cascadia Code PL" font-size="11.00" fill="cyan">─────────────────</text>
<text text-anchor="middle" x="299.66" y="-452.7" font-family="Cascadia Code PL" font-size="11.00" fill="cyan">B1=0, B2=0, B3=0</text>
<text text-anchor="middle" x="299.66" y="-440.7" font-family="Cascadia Code PL" font-size="11.00" fill="cyan">DRAG = &quot;&quot;</text>
<text text-anchor="middle" x="299.66" y="-428.7" font-family="Cascadia Code PL" font-size="11.00" fill="cyan">No buttons pressed</text>
<text text-anchor="middle" x="299.66" y="-416.7" font-family="Cascadia Code PL" font-size="11.00" fill="cyan">MOUSE_process_frame%()</text>
</g>
<!-- MAIN_STATES&#45;&gt;M_IDLE -->
<g id="edge26" class="edge">
<title>MAIN_STATES&#45;&gt;M_IDLE</title>
<path fill="none" stroke="#555555" stroke-dasharray="1,5" d="M299.66,-550.49C299.66,-534.64 299.66,-510.43 299.66,-489.8"/>
</g>
<!-- GESTURES -->
<g id="node2" class="node">
<title>GESTURES</title>
<polygon fill="none" stroke="orange" stroke-width="2" points="2204.66,-586.5 2201.66,-590.5 2180.66,-590.5 2177.66,-586.5 2128.66,-586.5 2128.66,-550.5 2204.66,-550.5 2204.66,-586.5"/>
<text text-anchor="middle" x="2166.66" y="-565.1" font-family="Cascadia Code PL" font-size="13.00" fill="orange">GESTURES</text>
</g>
<!-- G_CLICK -->
<g id="node11" class="node">
<title>G_CLICK</title>
<polygon fill="none" stroke="white" points="2218.16,-486.5 2115.16,-486.5 2115.16,-412.5 2218.16,-412.5 2218.16,-486.5"/>
<text text-anchor="middle" x="2166.66" y="-474.5" font-family="Cascadia Code PL" font-size="10.00" fill="cyan">Single Click</text>
<text text-anchor="middle" x="2166.66" y="-463.5" font-family="Cascadia Code PL" font-size="10.00" fill="cyan">────────────</text>
<text text-anchor="middle" x="2166.66" y="-452.5" font-family="Cascadia Code PL" font-size="10.00" fill="cyan">B1 press + release</text>
<text text-anchor="middle" x="2166.66" y="-441.5" font-family="Cascadia Code PL" font-size="10.00" fill="cyan">No significant drag</text>
<text text-anchor="middle" x="2166.66" y="-430.5" font-family="Cascadia Code PL" font-size="10.00" fill="cyan">Used by: dot, fill,</text>
<text text-anchor="middle" x="2166.66" y="-419.5" font-family="Cascadia Code PL" font-size="10.00" fill="cyan">picker, palette click</text>
</g>
<!-- GESTURES&#45;&gt;G_CLICK -->
<g id="edge27" class="edge">
<title>GESTURES&#45;&gt;G_CLICK</title>
<path fill="none" stroke="#555555" stroke-dasharray="1,5" d="M2166.66,-550.49C2166.66,-540.73 2166.66,-527.81 2166.66,-514.5"/>
</g>
<!-- GUARDS -->
<g id="node3" class="node">
<title>GUARDS</title>
<polygon fill="none" stroke="orange" stroke-width="2" points="1381.66,-586.5 1378.66,-590.5 1357.66,-590.5 1354.66,-586.5 1281.66,-586.5 1281.66,-550.5 1381.66,-550.5 1381.66,-586.5"/>
<text text-anchor="middle" x="1331.66" y="-565.1" font-family="Cascadia Code PL" font-size="13.00" fill="orange">GUARD LOGIC</text>
</g>
<!-- GD_CHECK -->
<g id="node18" class="node">
<title>GD_CHECK</title>
<polygon fill="none" stroke="white" points="1407.66,-325.5 1255.66,-325.5 1255.66,-262.5 1407.66,-262.5 1407.66,-325.5"/>
<text text-anchor="middle" x="1331.66" y="-313.5" font-family="Cascadia Code PL" font-size="10.00" fill="cyan">Check UI_CHROME_CLICKED%</text>
<text text-anchor="middle" x="1331.66" y="-302.5" font-family="Cascadia Code PL" font-size="10.00" fill="cyan">────────────</text>
<text text-anchor="middle" x="1331.66" y="-291.5" font-family="Cascadia Code PL" font-size="10.00" fill="cyan">IF TRUE → consume OLD_B*</text>
<text text-anchor="middle" x="1331.66" y="-280.5" font-family="Cascadia Code PL" font-size="10.00" fill="cyan">transitions, skip tool</text>
<text text-anchor="middle" x="1331.66" y="-269.5" font-family="Cascadia Code PL" font-size="10.00" fill="cyan">dispatch entirely</text>
</g>
<!-- GUARDS&#45;&gt;GD_CHECK -->
<g id="edge28" class="edge">
<title>GUARDS&#45;&gt;GD_CHECK</title>
<path fill="none" stroke="#555555" stroke-dasharray="1,5" d="M1331.66,-550.45C1331.66,-511.84 1331.66,-416.17 1331.66,-353.5"/>
</g>
<!-- DEFERRED -->
<g id="node4" class="node">
<title>DEFERRED</title>
<polygon fill="none" stroke="orange" stroke-width="2" points="2672.16,-586.5 2669.16,-590.5 2648.16,-590.5 2645.16,-586.5 2539.16,-586.5 2539.16,-550.5 2672.16,-550.5 2672.16,-586.5"/>
<text text-anchor="middle" x="2605.66" y="-565.1" font-family="Cascadia Code PL" font-size="13.00" fill="orange">DEFERRED ACTIONS</text>
</g>
<!-- DA_NONE -->
<g id="node21" class="node">
<title>DA_NONE</title>
<polygon fill="none" stroke="white" points="2670.66,-470 2540.66,-470 2540.66,-429 2670.66,-429 2670.66,-470"/>
<text text-anchor="middle" x="2605.66" y="-458" font-family="Cascadia Code PL" font-size="10.00" fill="cyan">No Deferred Action</text>
<text text-anchor="middle" x="2605.66" y="-447" font-family="Cascadia Code PL" font-size="10.00" fill="cyan">────────────</text>
<text text-anchor="middle" x="2605.66" y="-436" font-family="Cascadia Code PL" font-size="10.00" fill="cyan">DEFERRED_ACTION% = 0</text>
</g>
<!-- DEFERRED&#45;&gt;DA_NONE -->
<g id="edge29" class="edge">
<title>DEFERRED&#45;&gt;DA_NONE</title>
<path fill="none" stroke="#555555" stroke-dasharray="1,5" d="M2605.66,-550.49C2605.66,-536.7 2605.66,-516.58 2605.66,-498"/>
</g>
<!-- M_PRESS -->
<g id="node6" class="node">
<title>M_PRESS</title>
<polygon fill="none" stroke="white" points="1103.16,-489.5 940.16,-489.5 940.16,-409.5 1103.16,-409.5 1103.16,-489.5"/>
<text text-anchor="middle" x="1021.66" y="-476.7" font-family="Cascadia Code PL" font-size="11.00" fill="cyan">2 · BUTTON PRESS</text>
<text text-anchor="middle" x="1021.66" y="-464.7" font-family="Cascadia Code PL" font-size="11.00" fill="cyan">─────────────────</text>
<text text-anchor="middle" x="1021.66" y="-452.7" font-family="Cascadia Code PL" font-size="11.00" fill="cyan">B1 AND NOT OLD_B1</text>
<text text-anchor="middle" x="1021.66" y="-440.7" font-family="Cascadia Code PL" font-size="11.00" fill="cyan">Transition detected</text>
<text text-anchor="middle" x="1021.66" y="-428.7" font-family="Cascadia Code PL" font-size="11.00" fill="cyan">Check UI_CHROME_CLICKED%</text>
<text text-anchor="middle" x="1021.66" y="-416.7" font-family="Cascadia Code PL" font-size="11.00" fill="cyan">Route: GUI or Tool</text>
</g>
<!-- M_IDLE&#45;&gt;M_PRESS -->
<g id="edge1" class="edge">
<title>M_IDLE&#45;&gt;M_PRESS</title>
<path fill="none" stroke="#66cc66" d="M371.19,-449.5C503.04,-449.5 784.17,-449.5 929.86,-449.5"/>
<polygon fill="#66cc66" stroke="#66cc66" points="930.11,-453 940.11,-449.5 930.11,-446 930.11,-453"/>
<text text-anchor="middle" x="655.66" y="-465.3" font-family="Cascadia Code PL" font-size="9.00" fill="#aaaaaa"> &#160;B1 AND NOT OLD_B1</text>
<text text-anchor="middle" x="655.66" y="-455.3" font-family="Cascadia Code PL" font-size="9.00" fill="#aaaaaa"> &#160;(button down transition)</text>
</g>
<!-- M_SUPPRESS -->
<g id="node10" class="node">
<title>M_SUPPRESS</title>
<polygon fill="none" stroke="white" points="151.16,-206.5 12.16,-206.5 12.16,-126.5 151.16,-126.5 151.16,-206.5"/>
<text text-anchor="middle" x="81.66" y="-193.7" font-family="Cascadia Code PL" font-size="11.00" fill="cyan">6 · SUPPRESSED</text>
<text text-anchor="middle" x="81.66" y="-181.7" font-family="Cascadia Code PL" font-size="11.00" fill="cyan">─────────────────</text>
<text text-anchor="middle" x="81.66" y="-169.7" font-family="Cascadia Code PL" font-size="11.00" fill="cyan">SUPPRESS_FRAMES% &gt; 0</text>
<text text-anchor="middle" x="81.66" y="-157.7" font-family="Cascadia Code PL" font-size="11.00" fill="cyan">Post&#45;dialog drain</text>
<text text-anchor="middle" x="81.66" y="-145.7" font-family="Cascadia Code PL" font-size="11.00" fill="cyan">Ignore all input</text>
<text text-anchor="middle" x="81.66" y="-133.7" font-family="Cascadia Code PL" font-size="11.00" fill="cyan">Decrement each frame</text>
</g>
<!-- M_IDLE&#45;&gt;M_SUPPRESS -->
<g id="edge8" class="edge">
<title>M_IDLE&#45;&gt;M_SUPPRESS</title>
<path fill="none" stroke="#cc66cc" d="M228.01,-446.62C161.06,-440.59 64.47,-419.98 16.66,-353.5 -10.46,-315.79 1.32,-292.84 16.66,-249 20.86,-237 27.64,-225.46 35.28,-215.01"/>
<polygon fill="#cc66cc" stroke="#cc66cc" points="38.21,-216.94 41.56,-206.89 32.67,-212.66 38.21,-216.94"/>
<text text-anchor="middle" x="77.16" y="-301.8" font-family="Cascadia Code PL" font-size="9.00" fill="#aaaaaa"> &#160;Native dialog returned</text>
<text text-anchor="middle" x="77.16" y="-291.8" font-family="Cascadia Code PL" font-size="9.00" fill="#aaaaaa"> &#160;MOUSE_cleanup_after_dialog</text>
<text text-anchor="middle" x="77.16" y="-281.8" font-family="Cascadia Code PL" font-size="9.00" fill="#aaaaaa"> &#160;SUPPRESS_FRAMES% = 2</text>
</g>
<!-- M_HOLD -->
<g id="node7" class="node">
<title>M_HOLD</title>
<polygon fill="none" stroke="white" points="633.16,-334 476.16,-334 476.16,-254 633.16,-254 633.16,-334"/>
<text text-anchor="middle" x="554.66" y="-321.2" font-family="Cascadia Code PL" font-size="11.00" fill="cyan">3 · DRAGGING / HOLD</text>
<text text-anchor="middle" x="554.66" y="-309.2" font-family="Cascadia Code PL" font-size="11.00" fill="cyan">─────────────────</text>
<text text-anchor="middle" x="554.66" y="-297.2" font-family="Cascadia Code PL" font-size="11.00" fill="cyan">B1% = TRUE (ongoing)</text>
<text text-anchor="middle" x="554.66" y="-285.2" font-family="Cascadia Code PL" font-size="11.00" fill="cyan">MOUSE_dispatch_tool_hold()</text>
<text text-anchor="middle" x="554.66" y="-273.2" font-family="Cascadia Code PL" font-size="11.00" fill="cyan">Continuous brush stroke</text>
<text text-anchor="middle" x="554.66" y="-261.2" font-family="Cascadia Code PL" font-size="11.00" fill="cyan">Preview rendering active</text>
</g>
<!-- M_PRESS&#45;&gt;M_HOLD -->
<g id="edge2" class="edge">
<title>M_PRESS&#45;&gt;M_HOLD</title>
<path fill="none" stroke="#66cc66" d="M940.05,-421.67C856.97,-394.37 728.57,-352.16 643.11,-324.07"/>
<polygon fill="#66cc66" stroke="#66cc66" points="644.01,-320.69 633.42,-320.89 641.83,-327.34 644.01,-320.69"/>
<text text-anchor="middle" x="904.16" y="-384.3" font-family="Cascadia Code PL" font-size="9.00" fill="#aaaaaa"> &#160;Tool dispatch</text>
<text text-anchor="middle" x="904.16" y="-374.3" font-family="Cascadia Code PL" font-size="9.00" fill="#aaaaaa"> &#160;MOUSE_dispatch_tool_hold()</text>
<text text-anchor="middle" x="904.16" y="-364.3" font-family="Cascadia Code PL" font-size="9.00" fill="#aaaaaa"> &#160;NOT UI_CHROME_CLICKED%</text>
</g>
<!-- M_UI_CONSUMED -->
<g id="node9" class="node">
<title>M_UI_CONSUMED</title>
<polygon fill="none" stroke="white" points="1173.66,-206.5 1003.66,-206.5 1003.66,-126.5 1173.66,-126.5 1173.66,-206.5"/>
<text text-anchor="middle" x="1088.66" y="-193.7" font-family="Cascadia Code PL" font-size="11.00" fill="cyan">5 · UI CONSUMED</text>
<text text-anchor="middle" x="1088.66" y="-181.7" font-family="Cascadia Code PL" font-size="11.00" fill="cyan">─────────────────</text>
<text text-anchor="middle" x="1088.66" y="-169.7" font-family="Cascadia Code PL" font-size="11.00" fill="cyan">UI_CHROME_CLICKED% = TRUE</text>
<text text-anchor="middle" x="1088.66" y="-157.7" font-family="Cascadia Code PL" font-size="11.00" fill="cyan">Tool actions blocked</text>
<text text-anchor="middle" x="1088.66" y="-145.7" font-family="Cascadia Code PL" font-size="11.00" fill="cyan">GUI owns this click cycle</text>
<text text-anchor="middle" x="1088.66" y="-133.7" font-family="Cascadia Code PL" font-size="11.00" fill="cyan">Wait for all buttons up</text>
</g>
<!-- M_PRESS&#45;&gt;M_UI_CONSUMED -->
<g id="edge3" class="edge">
<title>M_PRESS&#45;&gt;M_UI_CONSUMED</title>
<path fill="none" stroke="#cccc66" d="M1040.91,-409.09C1048.4,-392.3 1056.43,-372.29 1061.66,-353.5 1074.29,-308.1 1081.26,-254.73 1084.94,-216.83"/>
<polygon fill="#cccc66" stroke="#cccc66" points="1088.45,-216.85 1085.89,-206.57 1081.48,-216.2 1088.45,-216.85"/>
<text text-anchor="middle" x="1156.16" y="-301.8" font-family="Cascadia Code PL" font-size="9.00" fill="#aaaaaa"> &#160;GUI element clicked</text>
<text text-anchor="middle" x="1156.16" y="-291.8" font-family="Cascadia Code PL" font-size="9.00" fill="#aaaaaa"> &#160;MOUSE_handle_gui_early%() = TRUE</text>
<text text-anchor="middle" x="1156.16" y="-281.8" font-family="Cascadia Code PL" font-size="9.00" fill="#aaaaaa"> &#160;UI_CHROME_CLICKED% = TRUE</text>
</g>
<!-- M_PRESS&#45;&gt;GD_CHECK -->
<g id="edge25" class="edge">
<title>M_PRESS&#45;&gt;GD_CHECK</title>
<path fill="none" stroke="#555555" stroke-dasharray="1,5" d="M1103.4,-417.05C1142.95,-400.94 1190.97,-380.04 1237.65,-355.55"/>
<polygon fill="#555555" stroke="#555555" points="1239.47,-358.55 1246.66,-350.77 1236.19,-352.37 1239.47,-358.55"/>
<text text-anchor="middle" x="1268.66" y="-374.3" font-family="Cascadia Code PL" font-size="9.00" fill="#aaaaaa"> &#160;Route through guard</text>
</g>
<!-- M_HOLD&#45;&gt;M_HOLD -->
<g id="edge4" class="edge">
<title>M_HOLD&#45;&gt;M_HOLD</title>
<path fill="none" stroke="#88aacc" d="M633.41,-304.31C644.07,-302.58 651.16,-299.15 651.16,-294 651.16,-290.7 648.25,-288.11 643.35,-286.21"/>
<polygon fill="#88aacc" stroke="#88aacc" points="643.97,-282.76 633.41,-283.69 642.24,-289.54 643.97,-282.76"/>
<text text-anchor="middle" x="706.66" y="-301.8" font-family="Cascadia Code PL" font-size="9.00" fill="#aaaaaa"> &#160;B1% still held</text>
<text text-anchor="middle" x="706.66" y="-291.8" font-family="Cascadia Code PL" font-size="9.00" fill="#aaaaaa"> &#160;Continuous stroke</text>
<text text-anchor="middle" x="706.66" y="-281.8" font-family="Cascadia Code PL" font-size="9.00" fill="#aaaaaa"> &#160;Interpolate brush positions</text>
</g>
<!-- M_RELEASE -->
<g id="node8" class="node">
<title>M_RELEASE</title>
<polygon fill="none" stroke="white" points="1053.16,-334 884.16,-334 884.16,-254 1053.16,-254 1053.16,-334"/>
<text text-anchor="middle" x="968.66" y="-321.2" font-family="Cascadia Code PL" font-size="11.00" fill="cyan">4 · BUTTON RELEASE</text>
<text text-anchor="middle" x="968.66" y="-309.2" font-family="Cascadia Code PL" font-size="11.00" fill="cyan">─────────────────</text>
<text text-anchor="middle" x="968.66" y="-297.2" font-family="Cascadia Code PL" font-size="11.00" fill="cyan">NOT B1% AND OLD_B1%</text>
<text text-anchor="middle" x="968.66" y="-285.2" font-family="Cascadia Code PL" font-size="11.00" fill="cyan">MOUSE_dispatch_tool_release()</text>
<text text-anchor="middle" x="968.66" y="-273.2" font-family="Cascadia Code PL" font-size="11.00" fill="cyan">Commit stroke to HISTORY</text>
<text text-anchor="middle" x="968.66" y="-261.2" font-family="Cascadia Code PL" font-size="11.00" fill="cyan">Reset tool state</text>
</g>
<!-- M_HOLD&#45;&gt;M_RELEASE -->
<g id="edge5" class="edge">
<title>M_HOLD&#45;&gt;M_RELEASE</title>
<path fill="none" stroke="#cc6666" d="M633.5,-294C701.95,-294 801.23,-294 873.97,-294"/>
<polygon fill="#cc6666" stroke="#cc6666" points="874.05,-297.5 884.05,-294 874.05,-290.5 874.05,-297.5"/>
<text text-anchor="middle" x="758.66" y="-309.8" font-family="Cascadia Code PL" font-size="9.00" fill="#aaaaaa"> &#160;NOT B1% AND OLD_B1%</text>
<text text-anchor="middle" x="758.66" y="-299.8" font-family="Cascadia Code PL" font-size="9.00" fill="#aaaaaa"> &#160;Button released</text>
</g>
<!-- M_RELEASE&#45;&gt;M_IDLE -->
<g id="edge6" class="edge">
<title>M_RELEASE&#45;&gt;M_IDLE</title>
<path fill="none" stroke="#cc6666" stroke-dasharray="5,2" d="M883.85,-324.33C849.16,-335.2 808.38,-346.56 770.66,-353.5 725.06,-361.89 712.46,-354.35 666.66,-361.5 567.28,-377 455.03,-405.22 381.14,-425.32"/>
<polygon fill="#cc6666" stroke="#cc6666" points="380.14,-421.96 371.42,-427.97 381.99,-428.71 380.14,-421.96"/>
<text text-anchor="middle" x="711.66" y="-384.3" font-family="Cascadia Code PL" font-size="9.00" fill="#aaaaaa"> &#160;Tool release complete</text>
<text text-anchor="middle" x="711.66" y="-374.3" font-family="Cascadia Code PL" font-size="9.00" fill="#aaaaaa"> &#160;HISTORY recorded</text>
<text text-anchor="middle" x="711.66" y="-364.3" font-family="Cascadia Code PL" font-size="9.00" fill="#aaaaaa"> &#160;Reset drag state</text>
</g>
<!-- M_UI_CONSUMED&#45;&gt;M_IDLE -->
<g id="edge7" class="edge">
<title>M_UI_CONSUMED&#45;&gt;M_IDLE</title>
<path fill="none" stroke="#cc6666" stroke-dasharray="5,2" d="M1003.34,-170.25C810.8,-177.31 355.65,-199.15 308.66,-249 271.4,-288.52 276.37,-354.38 285.84,-399.54"/>
<polygon fill="#cc6666" stroke="#cc6666" points="282.45,-400.42 288.05,-409.41 289.28,-398.89 282.45,-400.42"/>
<text text-anchor="middle" x="387.66" y="-301.8" font-family="Cascadia Code PL" font-size="9.00" fill="#aaaaaa"> &#160;All buttons released</text>
<text text-anchor="middle" x="387.66" y="-291.8" font-family="Cascadia Code PL" font-size="9.00" fill="#aaaaaa"> &#160;MOUSE_should_skip_tool_actions%()</text>
<text text-anchor="middle" x="387.66" y="-281.8" font-family="Cascadia Code PL" font-size="9.00" fill="#aaaaaa"> &#160;Resets UI_CHROME_CLICKED% = FALSE</text>
</g>
<!-- M_SUPPRESS&#45;&gt;M_IDLE -->
<g id="edge9" class="edge">
<title>M_SUPPRESS&#45;&gt;M_IDLE</title>
<path fill="none" stroke="#cc66cc" stroke-dasharray="5,2" d="M111.82,-206.79C120.91,-219.77 130.39,-234.59 137.66,-249 159.77,-292.87 144.79,-313.76 173.66,-353.5 187.4,-372.42 205.99,-389.29 224.67,-403.36"/>
<polygon fill="#cc66cc" stroke="#cc66cc" points="222.81,-406.34 232.95,-409.43 226.95,-400.7 222.81,-406.34"/>
<text text-anchor="middle" x="225.66" y="-296.8" font-family="Cascadia Code PL" font-size="9.00" fill="#aaaaaa"> &#160;SUPPRESS_FRAMES% = 0</text>
<text text-anchor="middle" x="225.66" y="-286.8" font-family="Cascadia Code PL" font-size="9.00" fill="#aaaaaa"> &#160;Drain complete</text>
</g>
<!-- G_DBLCLICK -->
<g id="node12" class="node">
<title>G_DBLCLICK</title>
<polygon fill="none" stroke="white" points="2069.16,-331 1938.16,-331 1938.16,-257 2069.16,-257 2069.16,-331"/>
<text text-anchor="middle" x="2003.66" y="-319" font-family="Cascadia Code PL" font-size="10.00" fill="cyan">Double Click</text>
<text text-anchor="middle" x="2003.66" y="-308" font-family="Cascadia Code PL" font-size="10.00" fill="cyan">────────────</text>
<text text-anchor="middle" x="2003.66" y="-297" font-family="Cascadia Code PL" font-size="10.00" fill="cyan">Two B1 clicks within</text>
<text text-anchor="middle" x="2003.66" y="-286" font-family="Cascadia Code PL" font-size="10.00" fill="cyan">B1_CLICK_TIME threshold</text>
<text text-anchor="middle" x="2003.66" y="-275" font-family="Cascadia Code PL" font-size="10.00" fill="cyan">Used by: text re&#45;edit,</text>
<text text-anchor="middle" x="2003.66" y="-264" font-family="Cascadia Code PL" font-size="10.00" fill="cyan">layer rename</text>
</g>
<!-- G_CLICK&#45;&gt;G_DBLCLICK -->
<g id="edge10" class="edge">
<title>G_CLICK&#45;&gt;G_DBLCLICK</title>
<path fill="none" stroke="#88aacc" d="M2117.14,-412.23C2108.77,-405.57 2100.31,-398.51 2092.66,-391.5 2074.87,-375.22 2056.58,-355.92 2041.25,-338.87"/>
<polygon fill="#88aacc" stroke="#88aacc" points="2043.69,-336.35 2034.42,-331.21 2038.47,-341 2043.69,-336.35"/>
<text text-anchor="middle" x="2123.66" y="-379.1" font-family="Cascadia Code PL" font-size="8.00" fill="#aaaaaa"> Second click</text>
<text text-anchor="middle" x="2123.66" y="-370.1" font-family="Cascadia Code PL" font-size="8.00" fill="#aaaaaa"> within threshold</text>
</g>
<!-- G_DRAG -->
<g id="node13" class="node">
<title>G_DRAG</title>
<polygon fill="none" stroke="white" points="2218.16,-331 2087.16,-331 2087.16,-257 2218.16,-257 2218.16,-331"/>
<text text-anchor="middle" x="2152.66" y="-319" font-family="Cascadia Code PL" font-size="10.00" fill="cyan">Left Drag</text>
<text text-anchor="middle" x="2152.66" y="-308" font-family="Cascadia Code PL" font-size="10.00" fill="cyan">────────────</text>
<text text-anchor="middle" x="2152.66" y="-297" font-family="Cascadia Code PL" font-size="10.00" fill="cyan">B1 held + movement</text>
<text text-anchor="middle" x="2152.66" y="-286" font-family="Cascadia Code PL" font-size="10.00" fill="cyan">DRAG = tool mode string</text>
<text text-anchor="middle" x="2152.66" y="-275" font-family="Cascadia Code PL" font-size="10.00" fill="cyan">Used by: brush, line,</text>
<text text-anchor="middle" x="2152.66" y="-264" font-family="Cascadia Code PL" font-size="10.00" fill="cyan">rect, ellipse, marquee</text>
</g>
<!-- G_CLICK&#45;&gt;G_DRAG -->
<g id="edge11" class="edge">
<title>G_CLICK&#45;&gt;G_DRAG</title>
<path fill="none" stroke="#88aacc" d="M2163.34,-412.12C2161.4,-390.9 2158.94,-363.93 2156.87,-341.22"/>
<polygon fill="#88aacc" stroke="#88aacc" points="2160.35,-340.76 2155.95,-331.12 2153.37,-341.39 2160.35,-340.76"/>
<text text-anchor="middle" x="2181.16" y="-379.1" font-family="Cascadia Code PL" font-size="8.00" fill="#aaaaaa"> B1 held +</text>
<text text-anchor="middle" x="2181.16" y="-370.1" font-family="Cascadia Code PL" font-size="8.00" fill="#aaaaaa"> movement</text>
</g>
<!-- G_RIGHT -->
<g id="node14" class="node">
<title>G_RIGHT</title>
<polygon fill="none" stroke="white" points="2097.16,-481 1956.16,-481 1956.16,-418 2097.16,-418 2097.16,-481"/>
<text text-anchor="middle" x="2026.66" y="-469" font-family="Cascadia Code PL" font-size="10.00" fill="cyan">Right Click</text>
<text text-anchor="middle" x="2026.66" y="-458" font-family="Cascadia Code PL" font-size="10.00" fill="cyan">────────────</text>
<text text-anchor="middle" x="2026.66" y="-447" font-family="Cascadia Code PL" font-size="10.00" fill="cyan">B2 press</text>
<text text-anchor="middle" x="2026.66" y="-436" font-family="Cascadia Code PL" font-size="10.00" fill="cyan">MOUSE_handle_right_click()</text>
<text text-anchor="middle" x="2026.66" y="-425" font-family="Cascadia Code PL" font-size="10.00" fill="cyan">Context menus, BG color</text>
</g>
<!-- G_MIDDLE -->
<g id="node15" class="node">
<title>G_MIDDLE</title>
<polygon fill="none" stroke="white" points="1937.66,-481 1819.66,-481 1819.66,-418 1937.66,-418 1937.66,-481"/>
<text text-anchor="middle" x="1878.66" y="-469" font-family="Cascadia Code PL" font-size="10.00" fill="cyan">Middle Click / Drag</text>
<text text-anchor="middle" x="1878.66" y="-458" font-family="Cascadia Code PL" font-size="10.00" fill="cyan">────────────</text>
<text text-anchor="middle" x="1878.66" y="-447" font-family="Cascadia Code PL" font-size="10.00" fill="cyan">B3 press or hold</text>
<text text-anchor="middle" x="1878.66" y="-436" font-family="Cascadia Code PL" font-size="10.00" fill="cyan">Pan canvas (assistant)</text>
<text text-anchor="middle" x="1878.66" y="-425" font-family="Cascadia Code PL" font-size="10.00" fill="cyan">SPACE + B1 equivalent</text>
</g>
<!-- G_WHEEL -->
<g id="node16" class="node">
<title>G_WHEEL</title>
<polygon fill="none" stroke="white" points="1801.66,-486.5 1681.66,-486.5 1681.66,-412.5 1801.66,-412.5 1801.66,-486.5"/>
<text text-anchor="middle" x="1741.66" y="-474.5" font-family="Cascadia Code PL" font-size="10.00" fill="cyan">Scroll Wheel</text>
<text text-anchor="middle" x="1741.66" y="-463.5" font-family="Cascadia Code PL" font-size="10.00" fill="cyan">────────────</text>
<text text-anchor="middle" x="1741.66" y="-452.5" font-family="Cascadia Code PL" font-size="10.00" fill="cyan">MOUSE.SW% ≠ 0</text>
<text text-anchor="middle" x="1741.66" y="-441.5" font-family="Cascadia Code PL" font-size="10.00" fill="cyan">Zoom in/out (canvas)</text>
<text text-anchor="middle" x="1741.66" y="-430.5" font-family="Cascadia Code PL" font-size="10.00" fill="cyan">Scroll lists (panels)</text>
<text text-anchor="middle" x="1741.66" y="-419.5" font-family="Cascadia Code PL" font-size="10.00" fill="cyan">MOUSE.OSW → history</text>
</g>
<!-- G_SWIPE -->
<g id="node17" class="node">
<title>G_SWIPE</title>
<polygon fill="none" stroke="white" points="1663.16,-481 1544.16,-481 1544.16,-418 1663.16,-418 1663.16,-481"/>
<text text-anchor="middle" x="1603.66" y="-469" font-family="Cascadia Code PL" font-size="10.00" fill="cyan">Visibility Swipe</text>
<text text-anchor="middle" x="1603.66" y="-458" font-family="Cascadia Code PL" font-size="10.00" fill="cyan">────────────</text>
<text text-anchor="middle" x="1603.66" y="-447" font-family="Cascadia Code PL" font-size="10.00" fill="cyan">B1 drag over eye icons</text>
<text text-anchor="middle" x="1603.66" y="-436" font-family="Cascadia Code PL" font-size="10.00" fill="cyan">LAYER_PANEL visibility</text>
<text text-anchor="middle" x="1603.66" y="-425" font-family="Cascadia Code PL" font-size="10.00" fill="cyan">visSwiping% = TRUE</text>
</g>
<!-- GD_CHECK&#45;&gt;M_UI_CONSUMED -->
<g id="edge13" class="edge">
<title>GD_CHECK&#45;&gt;M_UI_CONSUMED</title>
<path fill="none" stroke="#cc6666" stroke-dasharray="5,2" d="M1246.66,-251.39C1244.98,-250.58 1243.31,-249.79 1241.66,-249 1229.27,-243.1 1225.9,-242.19 1213.66,-236 1198.43,-228.3 1182.33,-219.78 1166.94,-211.44"/>
<polygon fill="#cc6666" stroke="#cc6666" points="1168.43,-208.26 1157.97,-206.55 1165.08,-214.41 1168.43,-208.26"/>
<text text-anchor="middle" x="1270.66" y="-229.6" font-family="Cascadia Code PL" font-size="8.00" fill="#aaaaaa"> UI_CHROME_CLICKED% = TRUE</text>
</g>
<!-- GD_MODAL -->
<g id="node19" class="node">
<title>GD_MODAL</title>
<polygon fill="none" stroke="white" points="1401.66,-209 1261.66,-209 1261.66,-124 1401.66,-124 1401.66,-209"/>
<text text-anchor="middle" x="1331.66" y="-197" font-family="Cascadia Code PL" font-size="10.00" fill="cyan">Modal Override Check</text>
<text text-anchor="middle" x="1331.66" y="-186" font-family="Cascadia Code PL" font-size="10.00" fill="cyan">────────────</text>
<text text-anchor="middle" x="1331.66" y="-175" font-family="Cascadia Code PL" font-size="10.00" fill="cyan">IMG_IMPORT.STATE &gt; IDLE?</text>
<text text-anchor="middle" x="1331.66" y="-164" font-family="Cascadia Code PL" font-size="10.00" fill="cyan">TRANSFORM.ACTIVE?</text>
<text text-anchor="middle" x="1331.66" y="-153" font-family="Cascadia Code PL" font-size="10.00" fill="cyan">FILL_ADJ.ACTIVE%?</text>
<text text-anchor="middle" x="1331.66" y="-142" font-family="Cascadia Code PL" font-size="10.00" fill="cyan">SCRN.panning%?</text>
<text text-anchor="middle" x="1331.66" y="-131" font-family="Cascadia Code PL" font-size="10.00" fill="cyan">REFIMG.REPOSITION?</text>
</g>
<!-- GD_CHECK&#45;&gt;GD_MODAL -->
<g id="edge12" class="edge">
<title>GD_CHECK&#45;&gt;GD_MODAL</title>
<path fill="none" stroke="#66cc66" d="M1331.66,-262.3C1331.66,-249.45 1331.66,-234.16 1331.66,-219.64"/>
<polygon fill="#66cc66" stroke="#66cc66" points="1335.16,-219.25 1331.66,-209.25 1328.16,-219.25 1335.16,-219.25"/>
<text text-anchor="middle" x="1390.16" y="-229.6" font-family="Cascadia Code PL" font-size="8.00" fill="#aaaaaa"> UI_CHROME_CLICKED% = FALSE</text>
</g>
<!-- GD_PASS -->
<g id="node20" class="node">
<title>GD_PASS</title>
<polygon fill="none" stroke="white" points="1392.66,-79 1270.66,-79 1270.66,-16 1392.66,-16 1392.66,-79"/>
<text text-anchor="middle" x="1331.66" y="-67" font-family="Cascadia Code PL" font-size="10.00" fill="cyan">Tool Dispatch Allowed</text>
<text text-anchor="middle" x="1331.66" y="-56" font-family="Cascadia Code PL" font-size="10.00" fill="cyan">────────────</text>
<text text-anchor="middle" x="1331.66" y="-45" font-family="Cascadia Code PL" font-size="10.00" fill="cyan">All guards pass</text>
<text text-anchor="middle" x="1331.66" y="-34" font-family="Cascadia Code PL" font-size="10.00" fill="cyan">Proceed to tool handler</text>
<text text-anchor="middle" x="1331.66" y="-23" font-family="Cascadia Code PL" font-size="10.00" fill="cyan">for CURRENT_TOOL%</text>
</g>
<!-- GD_MODAL&#45;&gt;GD_PASS -->
<g id="edge14" class="edge">
<title>GD_MODAL&#45;&gt;GD_PASS</title>
<path fill="none" stroke="#66cc66" d="M1331.66,-123.92C1331.66,-112.77 1331.66,-100.72 1331.66,-89.6"/>
<polygon fill="#66cc66" stroke="#66cc66" points="1335.16,-89.28 1331.66,-79.28 1328.16,-89.28 1335.16,-89.28"/>
<text text-anchor="middle" x="1362.16" y="-99.6" font-family="Cascadia Code PL" font-size="8.00" fill="#aaaaaa"> No modal active</text>
</g>
<!-- DA_SAVE -->
<g id="node22" class="node">
<title>DA_SAVE</title>
<polygon fill="none" stroke="white" points="2369.66,-320 2261.66,-320 2261.66,-268 2369.66,-268 2369.66,-320"/>
<text text-anchor="middle" x="2315.66" y="-308" font-family="Cascadia Code PL" font-size="10.00" fill="cyan">1 · Save</text>
<text text-anchor="middle" x="2315.66" y="-297" font-family="Cascadia Code PL" font-size="10.00" fill="cyan">────────────</text>
<text text-anchor="middle" x="2315.66" y="-286" font-family="Cascadia Code PL" font-size="10.00" fill="cyan">_SAVEFILEDIALOG$()</text>
<text text-anchor="middle" x="2315.66" y="-275" font-family="Cascadia Code PL" font-size="10.00" fill="cyan">DRW or BMP export</text>
</g>
<!-- DA_NONE&#45;&gt;DA_SAVE -->
<g id="edge15" class="edge">
<title>DA_NONE&#45;&gt;DA_SAVE</title>
<path fill="none" stroke="#88aacc" d="M2540.52,-447.35C2450.92,-444.23 2296.7,-432.82 2261.66,-391.5 2245.25,-372.15 2260.16,-347.07 2278.44,-327.33"/>
<polygon fill="#88aacc" stroke="#88aacc" points="2281.07,-329.65 2285.55,-320.05 2276.06,-324.76 2281.07,-329.65"/>
<text text-anchor="middle" x="2286.66" y="-379.1" font-family="Cascadia Code PL" font-size="8.00" fill="#aaaaaa"> Menu/hotkey</text>
<text text-anchor="middle" x="2286.66" y="-370.1" font-family="Cascadia Code PL" font-size="8.00" fill="#aaaaaa"> triggers save</text>
</g>
<!-- DA_IMPORT -->
<g id="node23" class="node">
<title>DA_IMPORT</title>
<polygon fill="none" stroke="white" points="2534.16,-320 2421.16,-320 2421.16,-268 2534.16,-268 2534.16,-320"/>
<text text-anchor="middle" x="2477.66" y="-308" font-family="Cascadia Code PL" font-size="10.00" fill="cyan">2 · Import Image</text>
<text text-anchor="middle" x="2477.66" y="-297" font-family="Cascadia Code PL" font-size="10.00" fill="cyan">────────────</text>
<text text-anchor="middle" x="2477.66" y="-286" font-family="Cascadia Code PL" font-size="10.00" fill="cyan">_OPENFILEDIALOG$()</text>
<text text-anchor="middle" x="2477.66" y="-275" font-family="Cascadia Code PL" font-size="10.00" fill="cyan">IMAGE_IMPORT_start</text>
</g>
<!-- DA_NONE&#45;&gt;DA_IMPORT -->
<g id="edge16" class="edge">
<title>DA_NONE&#45;&gt;DA_IMPORT</title>
<path fill="none" stroke="#88aacc" d="M2540.53,-437.92C2490.48,-428.31 2427.33,-412.44 2411.66,-391.5 2395.95,-370.52 2412.89,-346.15 2433.53,-327.15"/>
<polygon fill="#88aacc" stroke="#88aacc" points="2436.02,-329.62 2441.25,-320.4 2431.41,-324.35 2436.02,-329.62"/>
<text text-anchor="middle" x="2440.66" y="-379.1" font-family="Cascadia Code PL" font-size="8.00" fill="#aaaaaa"> Menu/hotkey</text>
<text text-anchor="middle" x="2440.66" y="-370.1" font-family="Cascadia Code PL" font-size="8.00" fill="#aaaaaa"> triggers import</text>
</g>
<!-- DA_OPEN -->
<g id="node24" class="node">
<title>DA_OPEN</title>
<polygon fill="none" stroke="white" points="2690.16,-320 2579.16,-320 2579.16,-268 2690.16,-268 2690.16,-320"/>
<text text-anchor="middle" x="2634.66" y="-308" font-family="Cascadia Code PL" font-size="10.00" fill="cyan">3 · Open DRW</text>
<text text-anchor="middle" x="2634.66" y="-297" font-family="Cascadia Code PL" font-size="10.00" fill="cyan">────────────</text>
<text text-anchor="middle" x="2634.66" y="-286" font-family="Cascadia Code PL" font-size="10.00" fill="cyan">_OPENFILEDIALOG$()</text>
<text text-anchor="middle" x="2634.66" y="-275" font-family="Cascadia Code PL" font-size="10.00" fill="cyan">DRW_load_binary</text>
</g>
<!-- DA_NONE&#45;&gt;DA_OPEN -->
<g id="edge17" class="edge">
<title>DA_NONE&#45;&gt;DA_OPEN</title>
<path fill="none" stroke="#88aacc" d="M2588.28,-428.83C2574.92,-411.21 2560.22,-384.66 2569.66,-361.5 2574.85,-348.75 2583.8,-337.12 2593.42,-327.27"/>
<polygon fill="#88aacc" stroke="#88aacc" points="2596.09,-329.56 2600.86,-320.1 2591.23,-324.52 2596.09,-329.56"/>
<text text-anchor="middle" x="2595.66" y="-379.1" font-family="Cascadia Code PL" font-size="8.00" fill="#aaaaaa"> Menu/hotkey</text>
<text text-anchor="middle" x="2595.66" y="-370.1" font-family="Cascadia Code PL" font-size="8.00" fill="#aaaaaa"> triggers open</text>
</g>
<!-- DA_EXPORT -->
<g id="node25" class="node">
<title>DA_EXPORT</title>
<polygon fill="none" stroke="white" points="2805.16,-320 2714.16,-320 2714.16,-268 2805.16,-268 2805.16,-320"/>
<text text-anchor="middle" x="2759.66" y="-308" font-family="Cascadia Code PL" font-size="10.00" fill="cyan">4 · Export</text>
<text text-anchor="middle" x="2759.66" y="-297" font-family="Cascadia Code PL" font-size="10.00" fill="cyan">────────────</text>
<text text-anchor="middle" x="2759.66" y="-286" font-family="Cascadia Code PL" font-size="10.00" fill="cyan">BMP/BSAVE/BAS</text>
<text text-anchor="middle" x="2759.66" y="-275" font-family="Cascadia Code PL" font-size="10.00" fill="cyan">export pipeline</text>
</g>
<!-- DA_NONE&#45;&gt;DA_EXPORT -->
<g id="edge18" class="edge">
<title>DA_NONE&#45;&gt;DA_EXPORT</title>
<path fill="none" stroke="#88aacc" d="M2637.26,-428.75C2652.39,-418.55 2670.3,-405.36 2684.66,-391.5 2704.34,-372.5 2723.22,-348.17 2737.11,-328.69"/>
<polygon fill="#88aacc" stroke="#88aacc" points="2740.06,-330.59 2742.94,-320.39 2734.33,-326.56 2740.06,-330.59"/>
<text text-anchor="middle" x="2740.16" y="-379.1" font-family="Cascadia Code PL" font-size="8.00" fill="#aaaaaa"> Menu/hotkey</text>
<text text-anchor="middle" x="2740.16" y="-370.1" font-family="Cascadia Code PL" font-size="8.00" fill="#aaaaaa"> triggers export</text>
</g>
<!-- DA_DRAWER -->
<g id="node26" class="node">
<title>DA_DRAWER</title>
<polygon fill="none" stroke="white" points="2946.66,-320 2826.66,-320 2826.66,-268 2946.66,-268 2946.66,-320"/>
<text text-anchor="middle" x="2886.66" y="-308" font-family="Cascadia Code PL" font-size="10.00" fill="cyan">5 · Drawer Import</text>
<text text-anchor="middle" x="2886.66" y="-297" font-family="Cascadia Code PL" font-size="10.00" fill="cyan">────────────</text>
<text text-anchor="middle" x="2886.66" y="-286" font-family="Cascadia Code PL" font-size="10.00" fill="cyan">Import .dset file</text>
<text text-anchor="middle" x="2886.66" y="-275" font-family="Cascadia Code PL" font-size="10.00" fill="cyan">DRAWER_IMPORT_dset</text>
</g>
<!-- DA_NONE&#45;&gt;DA_DRAWER -->
<g id="edge19" class="edge">
<title>DA_NONE&#45;&gt;DA_DRAWER</title>
<path fill="none" stroke="#88aacc" d="M2670.67,-447.07C2721.36,-442.81 2790.93,-429.67 2838.66,-391.5 2858,-376.03 2870.17,-350.77 2877.42,-329.97"/>
<polygon fill="#88aacc" stroke="#88aacc" points="2880.83,-330.77 2880.59,-320.18 2874.18,-328.61 2880.83,-330.77"/>
<text text-anchor="middle" x="2891.66" y="-379.1" font-family="Cascadia Code PL" font-size="8.00" fill="#aaaaaa"> Drawer btn</text>
<text text-anchor="middle" x="2891.66" y="-370.1" font-family="Cascadia Code PL" font-size="8.00" fill="#aaaaaa"> triggers import</text>
</g>
<!-- DA_SAVE&#45;&gt;DA_NONE -->
<g id="edge20" class="edge">
<title>DA_SAVE&#45;&gt;DA_NONE</title>
<path fill="none" stroke="#cc6666" stroke-dasharray="5,2" d="M2316.95,-320.06C2319.47,-342.05 2326.61,-373.26 2346.66,-391.5 2373.26,-415.71 2463.85,-431.6 2530.42,-440.31"/>
<polygon fill="#cc6666" stroke="#cc6666" points="2530.11,-443.79 2540.48,-441.59 2531,-436.85 2530.11,-443.79"/>
<text text-anchor="middle" x="2373.66" y="-379.1" font-family="Cascadia Code PL" font-size="8.00" fill="#aaaaaa"> Dialog returns</text>
<text text-anchor="middle" x="2373.66" y="-370.1" font-family="Cascadia Code PL" font-size="8.00" fill="#aaaaaa"> cleanup</text>
</g>
<!-- DA_IMPORT&#45;&gt;DA_NONE -->
<g id="edge21" class="edge">
<title>DA_IMPORT&#45;&gt;DA_NONE</title>
<path fill="none" stroke="#cc6666" stroke-dasharray="5,2" d="M2480.72,-320.34C2484.35,-341.31 2492.16,-370.9 2508.66,-391.5 2519.17,-404.63 2533.59,-415.38 2548.1,-423.86"/>
<polygon fill="#cc6666" stroke="#cc6666" points="2546.66,-427.07 2557.11,-428.85 2550.05,-420.94 2546.66,-427.07"/>
<text text-anchor="middle" x="2535.66" y="-379.1" font-family="Cascadia Code PL" font-size="8.00" fill="#aaaaaa"> Dialog returns</text>
<text text-anchor="middle" x="2535.66" y="-370.1" font-family="Cascadia Code PL" font-size="8.00" fill="#aaaaaa"> cleanup</text>
</g>
<!-- DA_OPEN&#45;&gt;DA_NONE -->
<g id="edge22" class="edge">
<title>DA_OPEN&#45;&gt;DA_NONE</title>
<path fill="none" stroke="#cc6666" stroke-dasharray="5,2" d="M2632.24,-320.16C2630.13,-339.72 2626.62,-367.5 2621.66,-391.5 2619.79,-400.54 2617.26,-410.26 2614.77,-419.06"/>
<polygon fill="#cc6666" stroke="#cc6666" points="2611.34,-418.3 2611.9,-428.88 2618.06,-420.27 2611.34,-418.3"/>
<text text-anchor="middle" x="2653.66" y="-379.1" font-family="Cascadia Code PL" font-size="8.00" fill="#aaaaaa"> Dialog returns</text>
<text text-anchor="middle" x="2653.66" y="-370.1" font-family="Cascadia Code PL" font-size="8.00" fill="#aaaaaa"> cleanup</text>
</g>
<!-- DA_EXPORT&#45;&gt;DA_NONE -->
<g id="edge23" class="edge">
<title>DA_EXPORT&#45;&gt;DA_NONE</title>
<path fill="none" stroke="#cc6666" stroke-dasharray="5,2" d="M2772.09,-320.33C2780.41,-341.29 2787.41,-370.88 2772.66,-391.5 2751.65,-420.87 2714.59,-435.28 2680.7,-442.27"/>
<polygon fill="#cc6666" stroke="#cc6666" points="2679.96,-438.85 2670.78,-444.14 2681.26,-445.73 2679.96,-438.85"/>
<text text-anchor="middle" x="2807.66" y="-379.1" font-family="Cascadia Code PL" font-size="8.00" fill="#aaaaaa"> Dialog returns</text>
<text text-anchor="middle" x="2807.66" y="-370.1" font-family="Cascadia Code PL" font-size="8.00" fill="#aaaaaa"> cleanup</text>
</g>
<!-- DA_DRAWER&#45;&gt;DA_NONE -->
<g id="edge24" class="edge">
<title>DA_DRAWER&#45;&gt;DA_NONE</title>
<path fill="none" stroke="#cc6666" stroke-dasharray="5,2" d="M2909.72,-320.28C2925.97,-341.22 2941.99,-370.79 2924.66,-391.5 2894.16,-427.93 2765.07,-441.1 2680.74,-445.85"/>
<polygon fill="#cc6666" stroke="#cc6666" points="2680.49,-442.35 2670.69,-446.38 2680.86,-449.34 2680.49,-442.35"/>
<text text-anchor="middle" x="2958.66" y="-379.1" font-family="Cascadia Code PL" font-size="8.00" fill="#aaaaaa"> Dialog returns</text>
<text text-anchor="middle" x="2958.66" y="-370.1" font-family="Cascadia Code PL" font-size="8.00" fill="#aaaaaa"> cleanup</text>
</g>
<!-- L1 -->
<g id="node27" class="node">
<title>L1</title>
<ellipse fill="white" stroke="white" cx="3278.66" cy="-568.5" rx="0.36" ry="0.36"/>
</g>
<!-- L2 -->
<g id="node28" class="node">
<title>L2</title>
<ellipse fill="white" stroke="white" cx="3278.66" cy="-449.5" rx="0.36" ry="0.36"/>
</g>
<!-- L1&#45;&gt;L2 -->
<g id="edge30" class="edge">
<title>L1&#45;&gt;L2</title>
<path fill="none" stroke="#66cc66" d="M3278.66,-567.42C3278.66,-564.53 3278.66,-488.65 3278.66,-460.71"/>
<polygon fill="#66cc66" stroke="#66cc66" points="3282.16,-460.58 3278.66,-450.58 3275.16,-460.58 3282.16,-460.58"/>
<text text-anchor="middle" x="3310.66" y="-525.3" font-family="Cascadia Code PL" font-size="9.00" fill="#aaaaaa"> Activate / Press</text>
</g>
<!-- L3 -->
<g id="node29" class="node">
<title>L3</title>
<ellipse fill="white" stroke="white" cx="3194.66" cy="-568.5" rx="0.36" ry="0.36"/>
</g>
<!-- L4 -->
<g id="node30" class="node">
<title>L4</title>
<ellipse fill="white" stroke="white" cx="3194.66" cy="-449.5" rx="0.36" ry="0.36"/>
</g>
<!-- L3&#45;&gt;L4 -->
<g id="edge31" class="edge">
<title>L3&#45;&gt;L4</title>
<path fill="none" stroke="#cc6666" stroke-dasharray="5,2" d="M3194.66,-567.42C3194.66,-564.53 3194.66,-488.65 3194.66,-460.71"/>
<polygon fill="#cc6666" stroke="#cc6666" points="3198.16,-460.58 3194.66,-450.58 3191.16,-460.58 3198.16,-460.58"/>
<text text-anchor="middle" x="3225.16" y="-525.3" font-family="Cascadia Code PL" font-size="9.00" fill="#aaaaaa"> Release / Reset</text>
</g>
<!-- L5 -->
<g id="node31" class="node">
<title>L5</title>
<ellipse fill="white" stroke="white" cx="3137.66" cy="-568.5" rx="0.36" ry="0.36"/>
</g>
<!-- L6 -->
<g id="node32" class="node">
<title>L6</title>
<ellipse fill="white" stroke="white" cx="3137.66" cy="-449.5" rx="0.36" ry="0.36"/>
</g>
<!-- L5&#45;&gt;L6 -->
<g id="edge32" class="edge">
<title>L5&#45;&gt;L6</title>
<path fill="none" stroke="#cccc66" d="M3137.66,-567.42C3137.66,-564.53 3137.66,-488.65 3137.66,-460.71"/>
<polygon fill="#cccc66" stroke="#cccc66" points="3141.16,-460.58 3137.66,-450.58 3134.16,-460.58 3141.16,-460.58"/>
<text text-anchor="middle" x="3154.66" y="-525.3" font-family="Cascadia Code PL" font-size="9.00" fill="#aaaaaa"> Commit</text>
</g>
<!-- L7 -->
<g id="node33" class="node">
<title>L7</title>
<ellipse fill="white" stroke="white" cx="3054.66" cy="-568.5" rx="0.36" ry="0.36"/>
</g>
<!-- L8 -->
<g id="node34" class="node">
<title>L8</title>
<ellipse fill="white" stroke="white" cx="3054.66" cy="-449.5" rx="0.36" ry="0.36"/>
</g>
<!-- L7&#45;&gt;L8 -->
<g id="edge33" class="edge">
<title>L7&#45;&gt;L8</title>
<path fill="none" stroke="#cc66cc" d="M3054.66,-567.42C3054.66,-564.53 3054.66,-488.65 3054.66,-460.71"/>
<polygon fill="#cc66cc" stroke="#cc66cc" points="3058.16,-460.58 3054.66,-450.58 3051.16,-460.58 3058.16,-460.58"/>
<text text-anchor="middle" x="3084.66" y="-525.3" font-family="Cascadia Code PL" font-size="9.00" fill="#aaaaaa"> Modal/Special</text>
</g>
</g>
</svg>
