<?xml version="1.0" encoding="UTF-8" standalone="no"?>
<!DOCTYPE svg PUBLIC "-//W3C//DTD SVG 1.1//EN"
 "http://www.w3.org/Graphics/SVG/1.1/DTD/svg11.dtd">
<!-- Generated by graphviz version 2.42.4 (0)
 -->
<!-- Title: SOUND_MUSIC Pages: 1 -->
<svg width="1220pt" height="570pt"
 viewBox="0.00 0.00 1220.00 570.00" xmlns="http://www.w3.org/2000/svg" xmlns:xlink="http://www.w3.org/1999/xlink">
<g id="graph0" class="graph" transform="scale(1 1) rotate(0) translate(4 566)">
<title>SOUND_MUSIC</title>
<text text-anchor="middle" x="606" y="-538.8" font-family="Cascadia Code PL" font-size="24.00" fill="white">SOUND &amp; MUSIC STATE MACHINE</text>
<g id="clust2" class="cluster">
<title>cluster_sfx</title>
<polygon fill="transparent" stroke="orange" stroke-dasharray="5,2" points="8,-14 8,-382 400,-382 400,-14 8,-14"/>
<text text-anchor="middle" x="68" y="-369.2" font-family="Cascadia Code PL" font-size="11.00" fill="orange">SFX — SOUND_play()</text>
</g>
<g id="clust6" class="cluster">
<title>cluster_legend</title>
<polygon fill="transparent" stroke="white" stroke-dasharray="5,2" points="989,-311.64 989,-483.36 1204,-483.36 1204,-311.64 989,-311.64"/>
<text text-anchor="middle" x="1017" y="-470.56" font-family="Cascadia Code PL" font-size="11.00" fill="white">LEGEND</text>
</g>
<g id="clust3" class="cluster">
<title>cluster_music</title>
<polygon fill="transparent" stroke="orange" stroke-dasharray="5,2" points="408,-8 408,-382 808,-382 808,-8 408,-8"/>
<text text-anchor="middle" x="472" y="-369.2" font-family="Cascadia Code PL" font-size="11.00" fill="orange">MUSIC — MUSIC_tick()</text>
</g>
<g id="clust4" class="cluster">
<title>cluster_loop</title>
<polygon fill="transparent" stroke="orange" stroke-dasharray="5,2" points="727,-410 727,-520 981,-520 981,-410 727,-410"/>
<text text-anchor="middle" x="801" y="-507.2" font-family="Cascadia Code PL" font-size="11.00" fill="orange">MAIN&#45;LOOP INTEGRATION</text>
</g>
<!-- SFX_F -->
<g id="node1" class="node">
<title>SFX_F</title>
<polygon fill="none" stroke="orange" stroke-width="2" points="253,-473 250,-477 229,-477 226,-473 141,-473 141,-437 253,-437 253,-473"/>
<text text-anchor="middle" x="197" y="-451.6" font-family="Cascadia Code PL" font-size="13.00" fill="orange">SFX (ONE&#45;SHOT)</text>
</g>
<!-- SFX_IDLE -->
<g id="node3" class="node">
<title>SFX_IDLE</title>
<polygon fill="none" stroke="white" points="268.5,-354 125.5,-354 125.5,-286 268.5,-286 268.5,-354"/>
<text text-anchor="middle" x="197" y="-341.2" font-family="Cascadia Code PL" font-size="11.00" fill="cyan">1 · IDLE</text>
<text text-anchor="middle" x="197" y="-329.2" font-family="Cascadia Code PL" font-size="11.00" fill="cyan">─────────────────</text>
<text text-anchor="middle" x="197" y="-317.2" font-family="Cascadia Code PL" font-size="11.00" fill="cyan">No sample loaded</text>
<text text-anchor="middle" x="197" y="-305.2" font-family="Cascadia Code PL" font-size="11.00" fill="cyan">SOUND.* table populated</text>
<text text-anchor="middle" x="197" y="-293.2" font-family="Cascadia Code PL" font-size="11.00" fill="cyan">at init</text>
</g>
<!-- SFX_F&#45;&gt;SFX_IDLE -->
<g id="edge13" class="edge">
<title>SFX_F&#45;&gt;SFX_IDLE</title>
<path fill="none" stroke="#555555" stroke-dasharray="1,5" d="M197,-436.88C197,-422.85 197,-402.09 197,-382"/>
</g>
<!-- MUSIC_F -->
<g id="node2" class="node">
<title>MUSIC_F</title>
<polygon fill="none" stroke="orange" stroke-width="2" points="717.5,-473 714.5,-477 693.5,-477 690.5,-473 598.5,-473 598.5,-437 717.5,-437 717.5,-473"/>
<text text-anchor="middle" x="658" y="-451.6" font-family="Cascadia Code PL" font-size="13.00" fill="orange">MUSIC (PLAYLIST)</text>
</g>
<!-- M_OFF -->
<g id="node7" class="node">
<title>M_OFF</title>
<polygon fill="none" stroke="white" points="715.5,-354 600.5,-354 600.5,-286 715.5,-286 715.5,-354"/>
<text text-anchor="middle" x="658" y="-341.2" font-family="Cascadia Code PL" font-size="11.00" fill="cyan">1 · OFF</text>
<text text-anchor="middle" x="658" y="-329.2" font-family="Cascadia Code PL" font-size="11.00" fill="cyan">─────────────────</text>
<text text-anchor="middle" x="658" y="-317.2" font-family="Cascadia Code PL" font-size="11.00" fill="cyan">No track playing</text>
<text text-anchor="middle" x="658" y="-305.2" font-family="Cascadia Code PL" font-size="11.00" fill="cyan">User disabled music</text>
<text text-anchor="middle" x="658" y="-293.2" font-family="Cascadia Code PL" font-size="11.00" fill="cyan">or playlist empty</text>
</g>
<!-- MUSIC_F&#45;&gt;M_OFF -->
<g id="edge14" class="edge">
<title>MUSIC_F&#45;&gt;M_OFF</title>
<path fill="none" stroke="#555555" stroke-dasharray="1,5" d="M658,-436.88C658,-422.85 658,-402.09 658,-382"/>
</g>
<!-- SFX_LOAD -->
<g id="node4" class="node">
<title>SFX_LOAD</title>
<polygon fill="none" stroke="white" points="252.5,-230 141.5,-230 141.5,-162 252.5,-162 252.5,-230"/>
<text text-anchor="middle" x="197" y="-217.2" font-family="Cascadia Code PL" font-size="11.00" fill="cyan">2 · LOADED</text>
<text text-anchor="middle" x="197" y="-205.2" font-family="Cascadia Code PL" font-size="11.00" fill="cyan">─────────────────</text>
<text text-anchor="middle" x="197" y="-193.2" font-family="Cascadia Code PL" font-size="11.00" fill="cyan">_SNDOPEN handles</text>
<text text-anchor="middle" x="197" y="-181.2" font-family="Cascadia Code PL" font-size="11.00" fill="cyan">cached per&#45;sample</text>
<text text-anchor="middle" x="197" y="-169.2" font-family="Cascadia Code PL" font-size="11.00" fill="cyan">Ready for playback</text>
</g>
<!-- SFX_IDLE&#45;&gt;SFX_LOAD -->
<g id="edge1" class="edge">
<title>SFX_IDLE&#45;&gt;SFX_LOAD</title>
<path fill="none" stroke="#66cc66" d="M197,-285.99C197,-271.88 197,-255.23 197,-240.16"/>
<polygon fill="#66cc66" stroke="#66cc66" points="200.5,-240.04 197,-230.04 193.5,-240.04 200.5,-240.04"/>
<text text-anchor="middle" x="242.5" y="-255.8" font-family="Cascadia Code PL" font-size="9.00" fill="#aaaaaa"> &#160;SOUND_init at startup</text>
</g>
<!-- SFX_PLAY -->
<g id="node5" class="node">
<title>SFX_PLAY</title>
<polygon fill="none" stroke="white" points="183,-90 57,-90 57,-22 183,-22 183,-90"/>
<text text-anchor="middle" x="120" y="-77.2" font-family="Cascadia Code PL" font-size="11.00" fill="cyan">3 · PLAYING</text>
<text text-anchor="middle" x="120" y="-65.2" font-family="Cascadia Code PL" font-size="11.00" fill="cyan">─────────────────</text>
<text text-anchor="middle" x="120" y="-53.2" font-family="Cascadia Code PL" font-size="11.00" fill="cyan">_SNDPLAYCOPY fired</text>
<text text-anchor="middle" x="120" y="-41.2" font-family="Cascadia Code PL" font-size="11.00" fill="cyan">Non&#45;blocking, layered</text>
<text text-anchor="middle" x="120" y="-29.2" font-family="Cascadia Code PL" font-size="11.00" fill="cyan">Volume = SFX volume</text>
</g>
<!-- SFX_LOAD&#45;&gt;SFX_PLAY -->
<g id="edge2" class="edge">
<title>SFX_LOAD&#45;&gt;SFX_PLAY</title>
<path fill="none" stroke="#66cc66" d="M141.21,-193.44C104.59,-189.15 59.16,-176.93 35,-144 22.76,-127.32 32.35,-110.66 48.84,-96.45"/>
<polygon fill="#66cc66" stroke="#66cc66" points="51.19,-99.05 56.85,-90.1 46.84,-93.57 51.19,-99.05"/>
<text text-anchor="middle" x="80.5" y="-136.8" font-family="Cascadia Code PL" font-size="9.00" fill="#aaaaaa"> &#160;Trigger event</text>
<text text-anchor="middle" x="80.5" y="-126.8" font-family="Cascadia Code PL" font-size="9.00" fill="#aaaaaa"> &#160;(click, palette change,</text>
<text text-anchor="middle" x="80.5" y="-116.8" font-family="Cascadia Code PL" font-size="9.00" fill="#aaaaaa"> &#160;brush draw)</text>
</g>
<!-- SFX_DISABLED -->
<g id="node6" class="node">
<title>SFX_DISABLED</title>
<polygon fill="none" stroke="white" points="336.5,-90 213.5,-90 213.5,-22 336.5,-22 336.5,-90"/>
<text text-anchor="middle" x="275" y="-77.2" font-family="Cascadia Code PL" font-size="11.00" fill="cyan">4 · DISABLED</text>
<text text-anchor="middle" x="275" y="-65.2" font-family="Cascadia Code PL" font-size="11.00" fill="cyan">─────────────────</text>
<text text-anchor="middle" x="275" y="-53.2" font-family="Cascadia Code PL" font-size="11.00" fill="cyan">CFG.SFX_VOLUME = 0</text>
<text text-anchor="middle" x="275" y="-41.2" font-family="Cascadia Code PL" font-size="11.00" fill="cyan">or mute toggled</text>
<text text-anchor="middle" x="275" y="-29.2" font-family="Cascadia Code PL" font-size="11.00" fill="cyan">No playback occurs</text>
</g>
<!-- SFX_LOAD&#45;&gt;SFX_DISABLED -->
<g id="edge4" class="edge">
<title>SFX_LOAD&#45;&gt;SFX_DISABLED</title>
<path fill="none" stroke="#cc6666" stroke-dasharray="5,2" d="M215.68,-161.95C226.31,-143.14 239.74,-119.39 251.13,-99.24"/>
<polygon fill="#cc6666" stroke="#cc6666" points="254.33,-100.69 256.2,-90.26 248.23,-97.25 254.33,-100.69"/>
<text text-anchor="middle" x="267" y="-126.8" font-family="Cascadia Code PL" font-size="9.00" fill="#aaaaaa"> &#160;Volume → 0</text>
</g>
<!-- SFX_PLAY&#45;&gt;SFX_LOAD -->
<g id="edge3" class="edge">
<title>SFX_PLAY&#45;&gt;SFX_LOAD</title>
<path fill="none" stroke="#cc6666" stroke-dasharray="5,2" d="M127.45,-90.27C132.1,-107.12 139.12,-127.46 149,-144 151.01,-147.37 153.28,-150.7 155.71,-153.94"/>
<polygon fill="#cc6666" stroke="#cc6666" points="153.03,-156.2 162.01,-161.82 158.49,-151.83 153.03,-156.2"/>
<text text-anchor="middle" x="187" y="-131.8" font-family="Cascadia Code PL" font-size="9.00" fill="#aaaaaa"> &#160;Sample completes</text>
<text text-anchor="middle" x="187" y="-121.8" font-family="Cascadia Code PL" font-size="9.00" fill="#aaaaaa"> &#160;(auto)</text>
</g>
<!-- SFX_DISABLED&#45;&gt;SFX_LOAD -->
<g id="edge5" class="edge">
<title>SFX_DISABLED&#45;&gt;SFX_LOAD</title>
<path fill="none" stroke="#66cc66" d="M294.93,-90.23C302.4,-107.27 306.93,-127.79 297,-144 288.77,-157.43 275.78,-167.46 261.85,-174.9"/>
<polygon fill="#66cc66" stroke="#66cc66" points="260.04,-171.89 252.59,-179.43 263.11,-178.18 260.04,-171.89"/>
<text text-anchor="middle" x="337" y="-126.8" font-family="Cascadia Code PL" font-size="9.00" fill="#aaaaaa"> &#160;Volume restored</text>
</g>
<!-- M_PLAYING -->
<g id="node8" class="node">
<title>M_PLAYING</title>
<polygon fill="none" stroke="white" points="638.5,-230 519.5,-230 519.5,-162 638.5,-162 638.5,-230"/>
<text text-anchor="middle" x="579" y="-217.2" font-family="Cascadia Code PL" font-size="11.00" fill="cyan">2 · PLAYING</text>
<text text-anchor="middle" x="579" y="-205.2" font-family="Cascadia Code PL" font-size="11.00" fill="cyan">─────────────────</text>
<text text-anchor="middle" x="579" y="-193.2" font-family="Cascadia Code PL" font-size="11.00" fill="cyan">Current track loaded</text>
<text text-anchor="middle" x="579" y="-181.2" font-family="Cascadia Code PL" font-size="11.00" fill="cyan">_SNDPLAY active</text>
<text text-anchor="middle" x="579" y="-169.2" font-family="Cascadia Code PL" font-size="11.00" fill="cyan">MUSIC_tick monitors</text>
</g>
<!-- M_OFF&#45;&gt;M_PLAYING -->
<g id="edge6" class="edge">
<title>M_OFF&#45;&gt;M_PLAYING</title>
<path fill="none" stroke="#66cc66" d="M600.47,-301.35C584.96,-293.67 570,-282.9 561,-268 555.82,-259.43 555.53,-249.41 557.62,-239.65"/>
<polygon fill="#66cc66" stroke="#66cc66" points="560.98,-240.62 560.39,-230.04 554.26,-238.67 560.98,-240.62"/>
<text text-anchor="middle" x="598.5" y="-260.8" font-family="Cascadia Code PL" font-size="9.00" fill="#aaaaaa"> &#160;Music toggled on</text>
<text text-anchor="middle" x="598.5" y="-250.8" font-family="Cascadia Code PL" font-size="9.00" fill="#aaaaaa"> &#160;Playlist available</text>
</g>
<!-- M_PLAYING&#45;&gt;M_OFF -->
<g id="edge12" class="edge">
<title>M_PLAYING&#45;&gt;M_OFF</title>
<path fill="none" stroke="#cc6666" stroke-dasharray="5,2" d="M621.66,-230.29C627,-235.78 631.98,-241.74 636,-248 641.49,-256.55 645.68,-266.56 648.86,-276.32"/>
<polygon fill="#cc6666" stroke="#cc6666" points="645.51,-277.34 651.71,-285.94 652.22,-275.35 645.51,-277.34"/>
<text text-anchor="middle" x="683" y="-255.8" font-family="Cascadia Code PL" font-size="9.00" fill="#aaaaaa"> &#160;Music toggled off</text>
</g>
<!-- M_PAUSED -->
<g id="node9" class="node">
<title>M_PAUSED</title>
<polygon fill="none" stroke="white" points="551.5,-90 440.5,-90 440.5,-22 551.5,-22 551.5,-90"/>
<text text-anchor="middle" x="496" y="-77.2" font-family="Cascadia Code PL" font-size="11.00" fill="cyan">3 · PAUSED</text>
<text text-anchor="middle" x="496" y="-65.2" font-family="Cascadia Code PL" font-size="11.00" fill="cyan">─────────────────</text>
<text text-anchor="middle" x="496" y="-53.2" font-family="Cascadia Code PL" font-size="11.00" fill="cyan">User pressed pause</text>
<text text-anchor="middle" x="496" y="-41.2" font-family="Cascadia Code PL" font-size="11.00" fill="cyan">_SNDPAUSE state</text>
<text text-anchor="middle" x="496" y="-29.2" font-family="Cascadia Code PL" font-size="11.00" fill="cyan">Resume on toggle</text>
</g>
<!-- M_PLAYING&#45;&gt;M_PAUSED -->
<g id="edge7" class="edge">
<title>M_PLAYING&#45;&gt;M_PAUSED</title>
<path fill="none" stroke="#cccc66" d="M535.47,-161.87C530.05,-156.35 525.02,-150.34 521,-144 512.66,-130.84 507.03,-114.83 503.27,-100.14"/>
<polygon fill="#cccc66" stroke="#cccc66" points="506.64,-99.18 500.94,-90.24 499.82,-100.78 506.64,-99.18"/>
<text text-anchor="middle" x="548.5" y="-126.8" font-family="Cascadia Code PL" font-size="9.00" fill="#aaaaaa"> &#160;Pause action</text>
</g>
<!-- M_NEXT -->
<g id="node10" class="node">
<title>M_NEXT</title>
<polygon fill="none" stroke="white" points="780,-96 656,-96 656,-16 780,-16 780,-96"/>
<text text-anchor="middle" x="718" y="-83.2" font-family="Cascadia Code PL" font-size="11.00" fill="cyan">4 · ADVANCING</text>
<text text-anchor="middle" x="718" y="-71.2" font-family="Cascadia Code PL" font-size="11.00" fill="cyan">─────────────────</text>
<text text-anchor="middle" x="718" y="-59.2" font-family="Cascadia Code PL" font-size="11.00" fill="cyan">Current track ended</text>
<text text-anchor="middle" x="718" y="-47.2" font-family="Cascadia Code PL" font-size="11.00" fill="cyan">MUSIC_tick detects</text>
<text text-anchor="middle" x="718" y="-35.2" font-family="Cascadia Code PL" font-size="11.00" fill="cyan">Free handle, load next</text>
<text text-anchor="middle" x="718" y="-23.2" font-family="Cascadia Code PL" font-size="11.00" fill="cyan">Shuffle or sequential</text>
</g>
<!-- M_PLAYING&#45;&gt;M_NEXT -->
<g id="edge9" class="edge">
<title>M_PLAYING&#45;&gt;M_NEXT</title>
<path fill="none" stroke="#cccc66" d="M580.71,-161.72C583.03,-145.81 588.12,-127.37 599,-114 611.37,-98.79 628.77,-87.38 646.46,-78.93"/>
<polygon fill="#cccc66" stroke="#cccc66" points="648.02,-82.07 655.7,-74.78 645.15,-75.68 648.02,-82.07"/>
<text text-anchor="middle" x="647.5" y="-131.8" font-family="Cascadia Code PL" font-size="9.00" fill="#aaaaaa"> &#160;Track finished</text>
<text text-anchor="middle" x="647.5" y="-121.8" font-family="Cascadia Code PL" font-size="9.00" fill="#aaaaaa"> &#160;_SNDPLAYING returns 0</text>
</g>
<!-- M_PAUSED&#45;&gt;M_PLAYING -->
<g id="edge8" class="edge">
<title>M_PAUSED&#45;&gt;M_PLAYING</title>
<path fill="none" stroke="#66cc66" d="M454.54,-90.02C439,-106.44 427.76,-126.47 440,-144 455.92,-166.8 483.21,-179.44 509.41,-186.43"/>
<polygon fill="#66cc66" stroke="#66cc66" points="508.83,-189.89 519.37,-188.84 510.48,-183.09 508.83,-189.89"/>
<text text-anchor="middle" x="471.5" y="-126.8" font-family="Cascadia Code PL" font-size="9.00" fill="#aaaaaa"> &#160;Resume action</text>
</g>
<!-- M_NEXT&#45;&gt;M_OFF -->
<g id="edge11" class="edge">
<title>M_NEXT&#45;&gt;M_OFF</title>
<path fill="none" stroke="#cc6666" stroke-dasharray="5,2" d="M777.74,-96.17C782.63,-101.59 786.88,-107.54 790,-114 795.81,-126 793.19,-131.05 790,-144 775.12,-204.42 765.16,-220.47 725,-268 721.72,-271.88 718.1,-275.64 714.29,-279.25"/>
<polygon fill="#cc6666" stroke="#cc6666" points="711.88,-276.72 706.77,-286 716.55,-281.93 711.88,-276.72"/>
<text text-anchor="middle" x="815" y="-193.8" font-family="Cascadia Code PL" font-size="9.00" fill="#aaaaaa"> &#160;Playlist empty</text>
</g>
<!-- M_NEXT&#45;&gt;M_PLAYING -->
<g id="edge10" class="edge">
<title>M_NEXT&#45;&gt;M_PLAYING</title>
<path fill="none" stroke="#66cc66" d="M715.59,-96.42C712.81,-112.71 707.19,-130.81 696,-144 683.42,-158.82 665.73,-169.47 647.9,-177.07"/>
<polygon fill="#66cc66" stroke="#66cc66" points="646.59,-173.82 638.6,-180.77 649.18,-180.33 646.59,-173.82"/>
<text text-anchor="middle" x="748.5" y="-126.8" font-family="Cascadia Code PL" font-size="9.00" fill="#aaaaaa"> &#160;Next track loaded</text>
</g>
<!-- ML1 -->
<g id="node11" class="node">
<title>ML1</title>
<polygon fill="none" stroke="white" points="973.5,-492 866.5,-492 866.5,-418 973.5,-418 973.5,-492"/>
<text text-anchor="middle" x="920" y="-480" font-family="Cascadia Code PL" font-size="10.00" fill="cyan">MUSIC_tick</text>
<text text-anchor="middle" x="920" y="-469" font-family="Cascadia Code PL" font-size="10.00" fill="cyan">────────────</text>
<text text-anchor="middle" x="920" y="-458" font-family="Cascadia Code PL" font-size="10.00" fill="cyan">Called in DRAW.BAS</text>
<text text-anchor="middle" x="920" y="-447" font-family="Cascadia Code PL" font-size="10.00" fill="cyan">step 5 every frame</text>
<text text-anchor="middle" x="920" y="-436" font-family="Cascadia Code PL" font-size="10.00" fill="cyan">Auto&#45;shuffle to next</text>
<text text-anchor="middle" x="920" y="-425" font-family="Cascadia Code PL" font-size="10.00" fill="cyan">when track ends</text>
</g>
<!-- ML2 -->
<g id="node12" class="node">
<title>ML2</title>
<polygon fill="none" stroke="white" points="848.5,-486.5 735.5,-486.5 735.5,-423.5 848.5,-423.5 848.5,-486.5"/>
<text text-anchor="middle" x="792" y="-474.5" font-family="Cascadia Code PL" font-size="10.00" fill="cyan">SFX trigger</text>
<text text-anchor="middle" x="792" y="-463.5" font-family="Cascadia Code PL" font-size="10.00" fill="cyan">────────────</text>
<text text-anchor="middle" x="792" y="-452.5" font-family="Cascadia Code PL" font-size="10.00" fill="cyan">Fired from event sites</text>
<text text-anchor="middle" x="792" y="-441.5" font-family="Cascadia Code PL" font-size="10.00" fill="cyan">(GUI clicks, paint,</text>
<text text-anchor="middle" x="792" y="-430.5" font-family="Cascadia Code PL" font-size="10.00" fill="cyan">undo, save)</text>
</g>
<!-- L1 -->
<g id="node13" class="node">
<title>L1</title>
<ellipse fill="white" stroke="white" cx="1161" cy="-455" rx="0.36" ry="0.36"/>
</g>
<!-- L2 -->
<g id="node14" class="node">
<title>L2</title>
<ellipse fill="white" stroke="white" cx="1161" cy="-320" rx="0.36" ry="0.36"/>
</g>
<!-- L1&#45;&gt;L2 -->
<g id="edge15" class="edge">
<title>L1&#45;&gt;L2</title>
<path fill="none" stroke="#66cc66" d="M1161,-453.9C1161,-450.57 1161,-361.91 1161,-331.29"/>
<polygon fill="#66cc66" stroke="#66cc66" points="1164.5,-331.09 1161,-321.09 1157.5,-331.09 1164.5,-331.09"/>
<text text-anchor="middle" x="1178.5" y="-392.8" font-family="Cascadia Code PL" font-size="9.00" fill="#aaaaaa"> Activate</text>
</g>
<!-- L3 -->
<g id="node15" class="node">
<title>L3</title>
<ellipse fill="white" stroke="white" cx="1080" cy="-455" rx="0.36" ry="0.36"/>
</g>
<!-- L4 -->
<g id="node16" class="node">
<title>L4</title>
<ellipse fill="white" stroke="white" cx="1080" cy="-320" rx="0.36" ry="0.36"/>
</g>
<!-- L3&#45;&gt;L4 -->
<g id="edge16" class="edge">
<title>L3&#45;&gt;L4</title>
<path fill="none" stroke="#cc6666" stroke-dasharray="5,2" d="M1080,-453.9C1080,-450.57 1080,-361.91 1080,-331.29"/>
<polygon fill="#cc6666" stroke="#cc6666" points="1083.5,-331.09 1080,-321.09 1076.5,-331.09 1083.5,-331.09"/>
<text text-anchor="middle" x="1109" y="-392.8" font-family="Cascadia Code PL" font-size="9.00" fill="#aaaaaa"> Stop / Disable</text>
</g>
<!-- L5 -->
<g id="node17" class="node">
<title>L5</title>
<ellipse fill="white" stroke="white" cx="1015" cy="-455" rx="0.36" ry="0.36"/>
</g>
<!-- L6 -->
<g id="node18" class="node">
<title>L6</title>
<ellipse fill="white" stroke="white" cx="1015" cy="-320" rx="0.36" ry="0.36"/>
</g>
<!-- L5&#45;&gt;L6 -->
<g id="edge17" class="edge">
<title>L5&#45;&gt;L6</title>
<path fill="none" stroke="#cccc66" d="M1015,-453.9C1015,-450.57 1015,-361.91 1015,-331.29"/>
<polygon fill="#cccc66" stroke="#cccc66" points="1018.5,-331.09 1015,-321.09 1011.5,-331.09 1018.5,-331.09"/>
<text text-anchor="middle" x="1036" y="-392.8" font-family="Cascadia Code PL" font-size="9.00" fill="#aaaaaa"> Transition</text>
</g>
</g>
</svg>
