<?xml version="1.0" encoding="UTF-8" standalone="no"?>
<!DOCTYPE svg PUBLIC "-//W3C//DTD SVG 1.1//EN"
 "http://www.w3.org/Graphics/SVG/1.1/DTD/svg11.dtd">
<!-- Generated by graphviz version 2.42.4 (0)
 -->
<!-- Title: G Pages: 1 -->
<svg width="482pt" height="150pt"
 viewBox="0.00 0.00 482.00 150.00" xmlns="http://www.w3.org/2000/svg" xmlns:xlink="http://www.w3.org/1999/xlink">
<g id="graph0" class="graph" transform="scale(1 1) rotate(0) translate(4 146)">
<title>G</title>
<text text-anchor="middle" x="237" y="-118.8" font-family="Cascadia Code PL" font-size="24.00" fill="white">DRAW UI STATES</text>
<!-- IDLE -->
<g id="node1" class="node">
<title>IDLE</title>
<polygon fill="none" stroke="white" points="276,-108 222,-108 222,-72 276,-72 276,-108"/>
<text text-anchor="middle" x="249" y="-86.9" font-family="Cascadia Code PL" font-size="12.00" fill="cyan">IDLE</text>
</g>
<!-- WIDGETS -->
<g id="node2" class="node">
<title>WIDGETS</title>
<polygon fill="none" stroke="orange" stroke-width="2" points="66,-36 63,-40 42,-40 39,-36 0,-36 0,0 66,0 66,-36"/>
<text text-anchor="middle" x="33" y="-14.9" font-family="Cascadia Code PL" font-size="12.00" fill="cyan">WIDGETS</text>
</g>
<!-- IDLE&#45;&gt;WIDGETS -->
<g id="edge1" class="edge">
<title>IDLE&#45;&gt;WIDGETS:n</title>
<path fill="none" stroke="gray" d="M221.64,-88C168.74,-85.39 55.87,-76.28 36.01,-45.7"/>
<polygon fill="gray" stroke="gray" points="39.31,-44.51 33,-36 32.62,-46.59 39.31,-44.51"/>
</g>
<!-- ASSISTANTS -->
<g id="node3" class="node">
<title>ASSISTANTS</title>
<polygon fill="none" stroke="orange" stroke-width="2" points="167.5,-36 164.5,-40 143.5,-40 140.5,-36 84.5,-36 84.5,0 167.5,0 167.5,-36"/>
<text text-anchor="middle" x="126" y="-14.9" font-family="Cascadia Code PL" font-size="12.00" fill="cyan">ASSISTANTS</text>
</g>
<!-- IDLE&#45;&gt;ASSISTANTS -->
<g id="edge2" class="edge">
<title>IDLE&#45;&gt;ASSISTANTS:n</title>
<path fill="none" stroke="gray" d="M221.7,-88.76C188.58,-87.01 136.05,-78.96 127.27,-45.98"/>
<polygon fill="gray" stroke="gray" points="130.73,-45.48 126,-36 123.79,-46.36 130.73,-45.48"/>
</g>
<!-- DRAW -->
<g id="node4" class="node">
<title>DRAW</title>
<polygon fill="none" stroke="orange" stroke-width="2" points="240,-36 237,-40 216,-40 213,-36 186,-36 186,0 240,0 240,-36"/>
<text text-anchor="middle" x="213" y="-14.9" font-family="Cascadia Code PL" font-size="12.00" fill="cyan">DRAW</text>
</g>
<!-- IDLE&#45;&gt;DRAW -->
<g id="edge3" class="edge">
<title>IDLE&#45;&gt;DRAW:n</title>
<path fill="none" stroke="gray" d="M229.74,-71.79C223.32,-64.63 217.11,-55.71 214.41,-45.97"/>
<polygon fill="gray" stroke="gray" points="217.87,-45.41 213,-36 210.94,-46.39 217.87,-45.41"/>
</g>
<!-- TOOLS -->
<g id="node5" class="node">
<title>TOOLS</title>
<polygon fill="none" stroke="orange" stroke-width="2" points="312,-36 309,-40 288,-40 285,-36 258,-36 258,0 312,0 312,-36"/>
<text text-anchor="middle" x="285" y="-14.9" font-family="Cascadia Code PL" font-size="12.00" fill="cyan">TOOLS</text>
</g>
<!-- IDLE&#45;&gt;TOOLS -->
<g id="edge4" class="edge">
<title>IDLE&#45;&gt;TOOLS:n</title>
<path fill="none" stroke="gray" d="M268.26,-71.79C274.68,-64.63 280.89,-55.71 283.59,-45.97"/>
<polygon fill="gray" stroke="gray" points="287.06,-46.39 285,-36 280.13,-45.41 287.06,-46.39"/>
</g>
<!-- EDITORS -->
<g id="node6" class="node">
<title>EDITORS</title>
<polygon fill="none" stroke="orange" stroke-width="2" points="393.5,-36 390.5,-40 369.5,-40 366.5,-36 330.5,-36 330.5,0 393.5,0 393.5,-36"/>
<text text-anchor="middle" x="362" y="-14.9" font-family="Cascadia Code PL" font-size="12.00" fill="cyan">EDITORS</text>
</g>
<!-- IDLE&#45;&gt;EDITORS -->
<g id="edge5" class="edge">
<title>IDLE&#45;&gt;EDITORS:n</title>
<path fill="none" stroke="gray" d="M276.07,-87.8C306.36,-84.99 352.32,-75.79 360.67,-45.94"/>
<polygon fill="gray" stroke="gray" points="364.15,-46.37 362,-36 357.21,-45.45 364.15,-46.37"/>
</g>
<!-- COLORS -->
<g id="node7" class="node">
<title>COLORS</title>
<polygon fill="none" stroke="orange" stroke-width="2" points="474,-36 471,-40 450,-40 447,-36 412,-36 412,0 474,0 474,-36"/>
<text text-anchor="middle" x="443" y="-14.9" font-family="Cascadia Code PL" font-size="12.00" fill="cyan">COLORS</text>
</g>
<!-- IDLE&#45;&gt;COLORS -->
<g id="edge6" class="edge">
<title>IDLE&#45;&gt;COLORS:n</title>
<path fill="none" stroke="gray" d="M276.38,-87.24C324.43,-83.47 420.63,-72.66 439.68,-45.76"/>
<polygon fill="gray" stroke="gray" points="443.09,-46.59 443,-36 436.46,-44.34 443.09,-46.59"/>
</g>
</g>
</svg>
