<?xml version="1.0" encoding="UTF-8" standalone="no"?>
<!DOCTYPE svg PUBLIC "-//W3C//DTD SVG 1.1//EN"
 "http://www.w3.org/Graphics/SVG/1.1/DTD/svg11.dtd">
<!-- Generated by graphviz version 2.42.4 (0)
 -->
<!-- Title: LAYER_ARRANGE Pages: 1 -->
<svg width="883pt" height="902pt"
 viewBox="0.00 0.00 883.00 902.00" xmlns="http://www.w3.org/2000/svg" xmlns:xlink="http://www.w3.org/1999/xlink">
<g id="graph0" class="graph" transform="scale(1 1) rotate(0) translate(4 898)">
<title>LAYER_ARRANGE</title>
<text text-anchor="middle" x="437.5" y="-870.8" font-family="Cascadia Code PL" font-size="24.00" fill="white">LAYER ARRANGE STATE MACHINE</text>
<g id="clust3" class="cluster">
<title>cluster_keyboard</title>
<polygon fill="transparent" stroke="orange" stroke-dasharray="5,2" points="255,-428 255,-556 867,-556 867,-428 255,-428"/>
<text text-anchor="middle" x="315.5" y="-543.2" font-family="Cascadia Code PL" font-size="11.00" fill="white">KEYBOARD ARRANGE</text>
</g>
<g id="clust4" class="cluster">
<title>cluster_drag</title>
<polygon fill="transparent" stroke="orange" stroke-dasharray="5,2" points="8,-8 8,-708 247,-708 247,-8 8,-8"/>
<text text-anchor="middle" x="95" y="-695.2" font-family="Cascadia Code PL" font-size="11.00" fill="white">DRAG REORDER (LAYERS PANEL)</text>
</g>
<g id="clust5" class="cluster">
<title>cluster_post</title>
<polygon fill="transparent" stroke="orange" stroke-dasharray="5,2" points="258,-736 258,-852 436,-852 436,-736 258,-736"/>
<text text-anchor="middle" x="305.5" y="-839.2" font-family="Cascadia Code PL" font-size="11.00" fill="white">POST&#45;ARRANGE</text>
</g>
<g id="clust6" class="cluster">
<title>cluster_legend</title>
<polygon fill="transparent" stroke="white" stroke-dasharray="5,2" points="472,-637.64 472,-812.36 839,-812.36 839,-637.64 472,-637.64"/>
<text text-anchor="middle" x="500" y="-799.56" font-family="Cascadia Code PL" font-size="11.00" fill="white">LEGEND</text>
</g>
<!-- MAIN -->
<g id="node1" class="node">
<title>MAIN</title>
<polygon fill="none" stroke="orange" stroke-width="2" points="193,-802 190,-806 169,-806 166,-802 119,-802 119,-766 193,-766 193,-802"/>
<text text-anchor="middle" x="156" y="-787.6" font-family="Cascadia Code PL" font-size="13.00" fill="orange">LAYER</text>
<text text-anchor="middle" x="156" y="-773.6" font-family="Cascadia Code PL" font-size="13.00" fill="orange">ARRANGE</text>
</g>
<!-- S_IDLE -->
<g id="node2" class="node">
<title>S_IDLE</title>
<polygon fill="none" stroke="white" points="238.5,-680 73.5,-680 73.5,-612 238.5,-612 238.5,-680"/>
<text text-anchor="middle" x="156" y="-667.2" font-family="Cascadia Code PL" font-size="11.00" fill="cyan">1 · IDLE</text>
<text text-anchor="middle" x="156" y="-655.2" font-family="Cascadia Code PL" font-size="11.00" fill="cyan">─────────────────</text>
<text text-anchor="middle" x="156" y="-643.2" font-family="Cascadia Code PL" font-size="11.00" fill="cyan">CURRENT_LAYER% active</text>
<text text-anchor="middle" x="156" y="-631.2" font-family="Cascadia Code PL" font-size="11.00" fill="cyan">Each layer has zIndex</text>
<text text-anchor="middle" x="156" y="-619.2" font-family="Cascadia Code PL" font-size="11.00" fill="cyan">RENDER_ORDER_DIRTY=FALSE</text>
</g>
<!-- MAIN&#45;&gt;S_IDLE -->
<g id="edge1" class="edge">
<title>MAIN&#45;&gt;S_IDLE</title>
<path fill="none" stroke="#555555" stroke-dasharray="1,5" d="M156,-765.78C156,-744.33 156,-707.24 156,-680.2"/>
</g>
<!-- K_UP -->
<g id="node3" class="node">
<title>K_UP</title>
<polygon fill="none" stroke="white" points="389,-528 263,-528 263,-436 389,-436 389,-528"/>
<text text-anchor="middle" x="326" y="-515.2" font-family="Cascadia Code PL" font-size="11.00" fill="cyan">Move Up</text>
<text text-anchor="middle" x="326" y="-503.2" font-family="Cascadia Code PL" font-size="11.00" fill="cyan">─────────────────</text>
<text text-anchor="middle" x="326" y="-491.2" font-family="Cascadia Code PL" font-size="11.00" fill="cyan">Layer → Arrange → Up</text>
<text text-anchor="middle" x="326" y="-479.2" font-family="Cascadia Code PL" font-size="11.00" fill="cyan">Swap zIndex with</text>
<text text-anchor="middle" x="326" y="-467.2" font-family="Cascadia Code PL" font-size="11.00" fill="cyan">layer above</text>
<text text-anchor="middle" x="326" y="-455.2" font-family="Cascadia Code PL" font-size="11.00" fill="cyan">HISTORY_record</text>
<text text-anchor="middle" x="326" y="-443.2" font-family="Cascadia Code PL" font-size="11.00" fill="cyan"> &#160;LAYER_REORDER</text>
</g>
<!-- S_IDLE&#45;&gt;K_UP -->
<g id="edge8" class="edge">
<title>S_IDLE&#45;&gt;K_UP</title>
<path fill="none" stroke="#6699ff" d="M200.09,-611.85C207.23,-606.07 214.43,-599.99 221,-594 240.9,-575.86 261.53,-554.65 279.18,-535.65"/>
<polygon fill="#6699ff" stroke="#6699ff" points="281.83,-537.94 286.05,-528.22 276.69,-533.19 281.83,-537.94"/>
<text text-anchor="middle" x="276" y="-576.8" font-family="Cascadia Code PL" font-size="9.00" fill="#aaaaaa"> &#160;Arrange Up</text>
</g>
<!-- K_DOWN -->
<g id="node4" class="node">
<title>K_DOWN</title>
<polygon fill="none" stroke="white" points="547,-522 407,-522 407,-442 547,-442 547,-522"/>
<text text-anchor="middle" x="477" y="-509.2" font-family="Cascadia Code PL" font-size="11.00" fill="cyan">Move Down</text>
<text text-anchor="middle" x="477" y="-497.2" font-family="Cascadia Code PL" font-size="11.00" fill="cyan">─────────────────</text>
<text text-anchor="middle" x="477" y="-485.2" font-family="Cascadia Code PL" font-size="11.00" fill="cyan">Layer → Arrange → Down</text>
<text text-anchor="middle" x="477" y="-473.2" font-family="Cascadia Code PL" font-size="11.00" fill="cyan">Swap zIndex with</text>
<text text-anchor="middle" x="477" y="-461.2" font-family="Cascadia Code PL" font-size="11.00" fill="cyan">layer below</text>
<text text-anchor="middle" x="477" y="-449.2" font-family="Cascadia Code PL" font-size="11.00" fill="cyan">HISTORY_record</text>
</g>
<!-- S_IDLE&#45;&gt;K_DOWN -->
<g id="edge9" class="edge">
<title>S_IDLE&#45;&gt;K_DOWN</title>
<path fill="none" stroke="#6699ff" d="M238.77,-624.17C287.51,-609.63 349,-587.19 398,-556 409.92,-548.41 421.69,-538.94 432.36,-529.35"/>
<polygon fill="#6699ff" stroke="#6699ff" points="434.94,-531.73 439.92,-522.38 430.2,-526.58 434.94,-531.73"/>
<text text-anchor="middle" x="411" y="-576.8" font-family="Cascadia Code PL" font-size="9.00" fill="#aaaaaa"> &#160;Arrange Down</text>
</g>
<!-- K_TOP -->
<g id="node5" class="node">
<title>K_TOP</title>
<polygon fill="none" stroke="white" points="695,-522 565,-522 565,-442 695,-442 695,-522"/>
<text text-anchor="middle" x="630" y="-509.2" font-family="Cascadia Code PL" font-size="11.00" fill="cyan">Move to Top</text>
<text text-anchor="middle" x="630" y="-497.2" font-family="Cascadia Code PL" font-size="11.00" fill="cyan">─────────────────</text>
<text text-anchor="middle" x="630" y="-485.2" font-family="Cascadia Code PL" font-size="11.00" fill="cyan">Layer → Arrange → Top</text>
<text text-anchor="middle" x="630" y="-473.2" font-family="Cascadia Code PL" font-size="11.00" fill="cyan">Set zIndex = max</text>
<text text-anchor="middle" x="630" y="-461.2" font-family="Cascadia Code PL" font-size="11.00" fill="cyan">Shift others down</text>
<text text-anchor="middle" x="630" y="-449.2" font-family="Cascadia Code PL" font-size="11.00" fill="cyan">HISTORY_record</text>
</g>
<!-- S_IDLE&#45;&gt;K_TOP -->
<g id="edge10" class="edge">
<title>S_IDLE&#45;&gt;K_TOP</title>
<path fill="none" stroke="#6699ff" d="M238.58,-642.4C323.91,-636.28 458.08,-616.79 556,-556 567.84,-548.65 579.28,-539.08 589.47,-529.32"/>
<polygon fill="#6699ff" stroke="#6699ff" points="592.02,-531.72 596.66,-522.19 587.09,-526.74 592.02,-531.72"/>
<text text-anchor="middle" x="563.5" y="-576.8" font-family="Cascadia Code PL" font-size="9.00" fill="#aaaaaa"> &#160;Arrange Top</text>
</g>
<!-- K_BOTTOM -->
<g id="node6" class="node">
<title>K_BOTTOM</title>
<polygon fill="none" stroke="white" points="859,-522 713,-522 713,-442 859,-442 859,-522"/>
<text text-anchor="middle" x="786" y="-509.2" font-family="Cascadia Code PL" font-size="11.00" fill="cyan">Move to Bottom</text>
<text text-anchor="middle" x="786" y="-497.2" font-family="Cascadia Code PL" font-size="11.00" fill="cyan">─────────────────</text>
<text text-anchor="middle" x="786" y="-485.2" font-family="Cascadia Code PL" font-size="11.00" fill="cyan">Layer → Arrange →Bottom</text>
<text text-anchor="middle" x="786" y="-473.2" font-family="Cascadia Code PL" font-size="11.00" fill="cyan">Set zIndex = 0</text>
<text text-anchor="middle" x="786" y="-461.2" font-family="Cascadia Code PL" font-size="11.00" fill="cyan">Shift others up</text>
<text text-anchor="middle" x="786" y="-449.2" font-family="Cascadia Code PL" font-size="11.00" fill="cyan">HISTORY_record</text>
</g>
<!-- S_IDLE&#45;&gt;K_BOTTOM -->
<g id="edge11" class="edge">
<title>S_IDLE&#45;&gt;K_BOTTOM</title>
<path fill="none" stroke="#6699ff" d="M238.54,-636.37C355.82,-623.95 560.27,-601.69 594,-594 644.43,-582.5 659.37,-582.15 704,-556 716.83,-548.48 729.45,-538.77 740.8,-528.9"/>
<polygon fill="#6699ff" stroke="#6699ff" points="743.33,-531.34 748.45,-522.06 738.66,-526.12 743.33,-531.34"/>
<text text-anchor="middle" x="723" y="-576.8" font-family="Cascadia Code PL" font-size="9.00" fill="#aaaaaa"> &#160;Arrange Bottom</text>
</g>
<!-- D_PENDING -->
<g id="node7" class="node">
<title>D_PENDING</title>
<polygon fill="none" stroke="white" points="180.5,-522 37.5,-522 37.5,-442 180.5,-442 180.5,-522"/>
<text text-anchor="middle" x="109" y="-509.2" font-family="Cascadia Code PL" font-size="11.00" fill="cyan">Drag Pending</text>
<text text-anchor="middle" x="109" y="-497.2" font-family="Cascadia Code PL" font-size="11.00" fill="cyan">─────────────────</text>
<text text-anchor="middle" x="109" y="-485.2" font-family="Cascadia Code PL" font-size="11.00" fill="cyan">dragPending = TRUE</text>
<text text-anchor="middle" x="109" y="-473.2" font-family="Cascadia Code PL" font-size="11.00" fill="cyan">Mouse down on layer row</text>
<text text-anchor="middle" x="109" y="-461.2" font-family="Cascadia Code PL" font-size="11.00" fill="cyan">dragStartY = mouseY</text>
<text text-anchor="middle" x="109" y="-449.2" font-family="Cascadia Code PL" font-size="11.00" fill="cyan">Waiting for threshold</text>
</g>
<!-- S_IDLE&#45;&gt;D_PENDING -->
<g id="edge12" class="edge">
<title>S_IDLE&#45;&gt;D_PENDING</title>
<path fill="none" stroke="#66cc66" d="M92.96,-611.8C87.42,-606.56 82.57,-600.64 79,-594 68.64,-574.72 72.66,-551.59 80.64,-531.45"/>
<polygon fill="#66cc66" stroke="#66cc66" points="83.91,-532.7 84.69,-522.14 77.49,-529.91 83.91,-532.7"/>
<text text-anchor="middle" x="107.5" y="-581.8" font-family="Cascadia Code PL" font-size="9.00" fill="#aaaaaa"> &#160;Mouse down</text>
<text text-anchor="middle" x="107.5" y="-571.8" font-family="Cascadia Code PL" font-size="9.00" fill="#aaaaaa"> &#160;on layer row</text>
</g>
<!-- D_PENDING&#45;&gt;S_IDLE -->
<g id="edge3" class="edge">
<title>D_PENDING&#45;&gt;S_IDLE</title>
<path fill="none" stroke="#cc6666" stroke-dasharray="5,2" d="M125.51,-522.09C130.64,-535.25 136,-550.11 140,-564 143.5,-576.16 146.49,-589.57 148.9,-601.91"/>
<polygon fill="#cc6666" stroke="#cc6666" points="145.51,-602.8 150.79,-611.98 152.39,-601.51 145.51,-602.8"/>
<text text-anchor="middle" x="182" y="-586.8" font-family="Cascadia Code PL" font-size="9.00" fill="#aaaaaa"> &#160;Mouse release</text>
<text text-anchor="middle" x="182" y="-576.8" font-family="Cascadia Code PL" font-size="9.00" fill="#aaaaaa"> &#160;before threshold</text>
<text text-anchor="middle" x="182" y="-566.8" font-family="Cascadia Code PL" font-size="9.00" fill="#aaaaaa"> &#160;(was a click)</text>
</g>
<!-- D_DRAGGING -->
<g id="node8" class="node">
<title>D_DRAGGING</title>
<polygon fill="none" stroke="white" points="186,-370 32,-370 32,-290 186,-290 186,-370"/>
<text text-anchor="middle" x="109" y="-357.2" font-family="Cascadia Code PL" font-size="11.00" fill="cyan">Dragging</text>
<text text-anchor="middle" x="109" y="-345.2" font-family="Cascadia Code PL" font-size="11.00" fill="cyan">─────────────────</text>
<text text-anchor="middle" x="109" y="-333.2" font-family="Cascadia Code PL" font-size="11.00" fill="cyan">isDragging = TRUE</text>
<text text-anchor="middle" x="109" y="-321.2" font-family="Cascadia Code PL" font-size="11.00" fill="cyan">dragLayerIdx = source</text>
<text text-anchor="middle" x="109" y="-309.2" font-family="Cascadia Code PL" font-size="11.00" fill="cyan">dragPreviewY tracks mouse</text>
<text text-anchor="middle" x="109" y="-297.2" font-family="Cascadia Code PL" font-size="11.00" fill="cyan">Drop target indicator shown</text>
</g>
<!-- D_PENDING&#45;&gt;D_DRAGGING -->
<g id="edge2" class="edge">
<title>D_PENDING&#45;&gt;D_DRAGGING</title>
<path fill="none" stroke="#66cc66" d="M109,-441.98C109,-423.13 109,-400.31 109,-380.27"/>
<polygon fill="#66cc66" stroke="#66cc66" points="112.5,-380.08 109,-370.08 105.5,-380.08 112.5,-380.08"/>
<text text-anchor="middle" x="141" y="-410.8" font-family="Cascadia Code PL" font-size="9.00" fill="#aaaaaa"> &#160;Mouse moves</text>
<text text-anchor="middle" x="141" y="-400.8" font-family="Cascadia Code PL" font-size="9.00" fill="#aaaaaa"> &#160;past threshold</text>
<text text-anchor="middle" x="141" y="-390.8" font-family="Cascadia Code PL" font-size="9.00" fill="#aaaaaa"> &#160;(5px minimum)</text>
</g>
<!-- D_AUTOSCROLL -->
<g id="node9" class="node">
<title>D_AUTOSCROLL</title>
<polygon fill="none" stroke="white" points="141.5,-234 16.5,-234 16.5,-154 141.5,-154 141.5,-234"/>
<text text-anchor="middle" x="79" y="-221.2" font-family="Cascadia Code PL" font-size="11.00" fill="cyan">Auto&#45;Scroll</text>
<text text-anchor="middle" x="79" y="-209.2" font-family="Cascadia Code PL" font-size="11.00" fill="cyan">─────────────────</text>
<text text-anchor="middle" x="79" y="-197.2" font-family="Cascadia Code PL" font-size="11.00" fill="cyan">Drag near panel edge</text>
<text text-anchor="middle" x="79" y="-185.2" font-family="Cascadia Code PL" font-size="11.00" fill="cyan">autoScrollTimer active</text>
<text text-anchor="middle" x="79" y="-173.2" font-family="Cascadia Code PL" font-size="11.00" fill="cyan">Panel scrolls to reveal</text>
<text text-anchor="middle" x="79" y="-161.2" font-family="Cascadia Code PL" font-size="11.00" fill="cyan">more layers</text>
</g>
<!-- D_DRAGGING&#45;&gt;D_AUTOSCROLL -->
<g id="edge4" class="edge">
<title>D_DRAGGING&#45;&gt;D_AUTOSCROLL</title>
<path fill="none" stroke="#88aacc" d="M47.29,-289.64C42.4,-284.29 38.15,-278.4 35,-272 30.31,-262.47 31.34,-252.49 35.35,-242.99"/>
<polygon fill="#88aacc" stroke="#88aacc" points="38.49,-244.54 40.02,-234.06 32.29,-241.3 38.49,-244.54"/>
<text text-anchor="middle" x="61" y="-264.8" font-family="Cascadia Code PL" font-size="9.00" fill="#aaaaaa"> &#160;Mouse near</text>
<text text-anchor="middle" x="61" y="-254.8" font-family="Cascadia Code PL" font-size="9.00" fill="#aaaaaa"> &#160;panel edge</text>
</g>
<!-- D_DROP -->
<g id="node10" class="node">
<title>D_DROP</title>
<polygon fill="none" stroke="white" points="204,-108 50,-108 50,-16 204,-16 204,-108"/>
<text text-anchor="middle" x="127" y="-95.2" font-family="Cascadia Code PL" font-size="11.00" fill="cyan">Drop</text>
<text text-anchor="middle" x="127" y="-83.2" font-family="Cascadia Code PL" font-size="11.00" fill="cyan">─────────────────</text>
<text text-anchor="middle" x="127" y="-71.2" font-family="Cascadia Code PL" font-size="11.00" fill="cyan">Release mouse</text>
<text text-anchor="middle" x="127" y="-59.2" font-family="Cascadia Code PL" font-size="11.00" fill="cyan">LAYER_PANEL_handle_drop()</text>
<text text-anchor="middle" x="127" y="-47.2" font-family="Cascadia Code PL" font-size="11.00" fill="cyan">Move layer to</text>
<text text-anchor="middle" x="127" y="-35.2" font-family="Cascadia Code PL" font-size="11.00" fill="cyan">dropTargetZIndex</text>
<text text-anchor="middle" x="127" y="-23.2" font-family="Cascadia Code PL" font-size="11.00" fill="cyan">HISTORY_record</text>
</g>
<!-- D_DRAGGING&#45;&gt;D_DROP -->
<g id="edge6" class="edge">
<title>D_DRAGGING&#45;&gt;D_DROP</title>
<path fill="none" stroke="#cccc66" d="M156.15,-289.96C160.51,-284.39 164.3,-278.37 167,-272 192.31,-212.25 186.46,-188.21 168,-126 167.16,-123.19 166.16,-120.38 165.02,-117.6"/>
<polygon fill="#cccc66" stroke="#cccc66" points="168.08,-115.88 160.69,-108.29 161.74,-118.84 168.08,-115.88"/>
<text text-anchor="middle" x="213.5" y="-191.8" font-family="Cascadia Code PL" font-size="9.00" fill="#aaaaaa"> &#160;Mouse release</text>
</g>
<!-- D_AUTOSCROLL&#45;&gt;D_DRAGGING -->
<g id="edge5" class="edge">
<title>D_AUTOSCROLL&#45;&gt;D_DRAGGING</title>
<path fill="none" stroke="#88aacc" d="M87.82,-234.4C91,-248.61 94.63,-264.83 97.98,-279.78"/>
<polygon fill="#88aacc" stroke="#88aacc" points="94.64,-280.89 100.24,-289.88 101.47,-279.36 94.64,-280.89"/>
<text text-anchor="middle" x="129" y="-264.8" font-family="Cascadia Code PL" font-size="9.00" fill="#aaaaaa"> &#160;Mouse moved</text>
<text text-anchor="middle" x="129" y="-254.8" font-family="Cascadia Code PL" font-size="9.00" fill="#aaaaaa"> &#160;away from edge</text>
</g>
<!-- D_AUTOSCROLL&#45;&gt;D_DROP -->
<g id="edge7" class="edge">
<title>D_AUTOSCROLL&#45;&gt;D_DROP</title>
<path fill="none" stroke="#cccc66" d="M93.4,-154C97.59,-142.67 102.23,-130.07 106.71,-117.96"/>
<polygon fill="#cccc66" stroke="#cccc66" points="110.07,-118.97 110.25,-108.38 103.5,-116.55 110.07,-118.97"/>
<text text-anchor="middle" x="133.5" y="-128.8" font-family="Cascadia Code PL" font-size="9.00" fill="#aaaaaa"> &#160;Mouse release</text>
</g>
<!-- P1 -->
<g id="node11" class="node">
<title>P1</title>
<polygon fill="none" stroke="white" points="428,-824 266,-824 266,-744 428,-744 428,-824"/>
<text text-anchor="middle" x="347" y="-811.2" font-family="Cascadia Code PL" font-size="11.00" fill="cyan">Invalidation</text>
<text text-anchor="middle" x="347" y="-799.2" font-family="Cascadia Code PL" font-size="11.00" fill="cyan">─────────────────</text>
<text text-anchor="middle" x="347" y="-787.2" font-family="Cascadia Code PL" font-size="11.00" fill="cyan">RENDER_ORDER_DIRTY=TRUE</text>
<text text-anchor="middle" x="347" y="-775.2" font-family="Cascadia Code PL" font-size="11.00" fill="cyan">SCENE_DIRTY = TRUE</text>
<text text-anchor="middle" x="347" y="-763.2" font-family="Cascadia Code PL" font-size="11.00" fill="cyan">BLEND_invalidate_cache</text>
<text text-anchor="middle" x="347" y="-751.2" font-family="Cascadia Code PL" font-size="11.00" fill="cyan">Composite below reset</text>
</g>
<!-- L1 -->
<g id="node12" class="node">
<title>L1</title>
<ellipse fill="white" stroke="white" cx="770" cy="-784" rx="0.36" ry="0.36"/>
</g>
<!-- L2 -->
<g id="node13" class="node">
<title>L2</title>
<ellipse fill="white" stroke="white" cx="770" cy="-646" rx="0.36" ry="0.36"/>
</g>
<!-- L1&#45;&gt;L2 -->
<g id="edge13" class="edge">
<title>L1&#45;&gt;L2</title>
<path fill="none" stroke="#66cc66" d="M770,-782.9C770,-779.5 770,-688.84 770,-657.52"/>
<polygon fill="#66cc66" stroke="#66cc66" points="773.5,-657.1 770,-647.1 766.5,-657.1 773.5,-657.1"/>
<text text-anchor="middle" x="800.5" y="-718.8" font-family="Cascadia Code PL" font-size="9.00" fill="#aaaaaa"> Activate / Start</text>
</g>
<!-- L3 -->
<g id="node14" class="node">
<title>L3</title>
<ellipse fill="white" stroke="white" cx="687" cy="-784" rx="0.36" ry="0.36"/>
</g>
<!-- L4 -->
<g id="node15" class="node">
<title>L4</title>
<ellipse fill="white" stroke="white" cx="687" cy="-646" rx="0.36" ry="0.36"/>
</g>
<!-- L3&#45;&gt;L4 -->
<g id="edge14" class="edge">
<title>L3&#45;&gt;L4</title>
<path fill="none" stroke="#cc6666" stroke-dasharray="5,2" d="M687,-782.9C687,-779.5 687,-688.84 687,-657.52"/>
<polygon fill="#cc6666" stroke="#cc6666" points="690.5,-657.1 687,-647.1 683.5,-657.1 690.5,-657.1"/>
<text text-anchor="middle" x="717" y="-718.8" font-family="Cascadia Code PL" font-size="9.00" fill="#aaaaaa"> Cancel / Abort</text>
</g>
<!-- L5 -->
<g id="node16" class="node">
<title>L5</title>
<ellipse fill="white" stroke="white" cx="594" cy="-784" rx="0.36" ry="0.36"/>
</g>
<!-- L6 -->
<g id="node17" class="node">
<title>L6</title>
<ellipse fill="white" stroke="white" cx="594" cy="-646" rx="0.36" ry="0.36"/>
</g>
<!-- L5&#45;&gt;L6 -->
<g id="edge15" class="edge">
<title>L5&#45;&gt;L6</title>
<path fill="none" stroke="#cccc66" d="M594,-782.9C594,-779.5 594,-688.84 594,-657.52"/>
<polygon fill="#cccc66" stroke="#cccc66" points="597.5,-657.1 594,-647.1 590.5,-657.1 597.5,-657.1"/>
<text text-anchor="middle" x="629" y="-718.8" font-family="Cascadia Code PL" font-size="9.00" fill="#aaaaaa"> Commit / Record</text>
</g>
<!-- L7 -->
<g id="node18" class="node">
<title>L7</title>
<ellipse fill="white" stroke="white" cx="498" cy="-784" rx="0.36" ry="0.36"/>
</g>
<!-- L8 -->
<g id="node19" class="node">
<title>L8</title>
<ellipse fill="white" stroke="white" cx="498" cy="-646" rx="0.36" ry="0.36"/>
</g>
<!-- L7&#45;&gt;L8 -->
<g id="edge16" class="edge">
<title>L7&#45;&gt;L8</title>
<path fill="none" stroke="#6699ff" d="M498,-782.9C498,-779.5 498,-688.84 498,-657.52"/>
<polygon fill="#6699ff" stroke="#6699ff" points="501.5,-657.1 498,-647.1 494.5,-657.1 501.5,-657.1"/>
<text text-anchor="middle" x="534.5" y="-718.8" font-family="Cascadia Code PL" font-size="9.00" fill="#aaaaaa"> Rearrange / Move</text>
</g>
</g>
</svg>
