<?xml version="1.0" encoding="UTF-8" standalone="no"?>
<!DOCTYPE svg PUBLIC "-//W3C//DTD SVG 1.1//EN"
 "http://www.w3.org/Graphics/SVG/1.1/DTD/svg11.dtd">
<!-- Generated by graphviz version 2.42.4 (0)
 -->
<!-- Title: LAYER_ALIGN_DIST Pages: 1 -->
<svg width="1722pt" height="570pt"
 viewBox="0.00 0.00 1722.00 570.00" xmlns="http://www.w3.org/2000/svg" xmlns:xlink="http://www.w3.org/1999/xlink">
<g id="graph0" class="graph" transform="scale(1 1) rotate(0) translate(4 566)">
<title>LAYER_ALIGN_DIST</title>
<text text-anchor="middle" x="857" y="-538.8" font-family="Cascadia Code PL" font-size="24.00" fill="white">LAYER ALIGN / DISTRIBUTE STATE MACHINE</text>
<g id="clust3" class="cluster">
<title>cluster_align</title>
<polygon fill="transparent" stroke="orange" stroke-dasharray="5,2" points="8,-128 8,-232 803,-232 803,-128 8,-128"/>
<text text-anchor="middle" x="65" y="-219.2" font-family="Cascadia Code PL" font-size="11.00" fill="white">ALIGN OPERATIONS</text>
</g>
<g id="clust4" class="cluster">
<title>cluster_distribute</title>
<polygon fill="transparent" stroke="orange" stroke-dasharray="5,2" points="811,-122 811,-238 1089,-238 1089,-122 811,-122"/>
<text text-anchor="middle" x="881" y="-225.2" font-family="Cascadia Code PL" font-size="11.00" fill="white">DISTRIBUTE OPERATIONS</text>
</g>
<g id="clust5" class="cluster">
<title>cluster_execution</title>
<polygon fill="transparent" stroke="orange" stroke-dasharray="5,2" points="1097,-8 1097,-508 1247,-508 1247,-8 1097,-8"/>
<text text-anchor="middle" x="1150" y="-495.2" font-family="Cascadia Code PL" font-size="11.00" fill="white">EXECUTION FLOW</text>
</g>
<g id="clust6" class="cluster">
<title>cluster_multisel</title>
<polygon fill="transparent" stroke="orange" stroke-dasharray="5,2" points="1255,-392 1255,-520 1416,-520 1416,-392 1255,-392"/>
<text text-anchor="middle" x="1335.5" y="-507.2" font-family="Cascadia Code PL" font-size="11.00" fill="white">MULTI&#45;SELECT REQUIREMENT</text>
</g>
<g id="clust7" class="cluster">
<title>cluster_legend</title>
<polygon fill="transparent" stroke="white" stroke-dasharray="5,2" points="1424,-305.64 1424,-474.36 1706,-474.36 1706,-305.64 1424,-305.64"/>
<text text-anchor="middle" x="1452" y="-461.56" font-family="Cascadia Code PL" font-size="11.00" fill="white">LEGEND</text>
</g>
<!-- MAIN -->
<g id="node1" class="node">
<title>MAIN</title>
<polygon fill="none" stroke="orange" stroke-width="2" points="585,-464 582,-468 561,-468 558,-464 487,-464 487,-428 585,-428 585,-464"/>
<text text-anchor="middle" x="536" y="-449.6" font-family="Cascadia Code PL" font-size="13.00" fill="orange">LAYER ALIGN</text>
<text text-anchor="middle" x="536" y="-435.6" font-family="Cascadia Code PL" font-size="13.00" fill="orange">&amp; DISTRIBUTE</text>
</g>
<!-- S_IDLE -->
<g id="node2" class="node">
<title>S_IDLE</title>
<polygon fill="none" stroke="white" points="598.5,-354 473.5,-354 473.5,-274 598.5,-274 598.5,-354"/>
<text text-anchor="middle" x="536" y="-341.2" font-family="Cascadia Code PL" font-size="11.00" fill="cyan">1 · IDLE</text>
<text text-anchor="middle" x="536" y="-329.2" font-family="Cascadia Code PL" font-size="11.00" fill="cyan">─────────────────</text>
<text text-anchor="middle" x="536" y="-317.2" font-family="Cascadia Code PL" font-size="11.00" fill="cyan">Layers positioned</text>
<text text-anchor="middle" x="536" y="-305.2" font-family="Cascadia Code PL" font-size="11.00" fill="cyan">at their current</text>
<text text-anchor="middle" x="536" y="-293.2" font-family="Cascadia Code PL" font-size="11.00" fill="cyan">offsets (if moved)</text>
<text text-anchor="middle" x="536" y="-281.2" font-family="Cascadia Code PL" font-size="11.00" fill="cyan">CURRENT_LAYER% set</text>
</g>
<!-- MAIN&#45;&gt;S_IDLE -->
<g id="edge1" class="edge">
<title>MAIN&#45;&gt;S_IDLE</title>
<path fill="none" stroke="#555555" stroke-dasharray="1,5" d="M536,-427.74C536,-409.09 536,-378.76 536,-354.25"/>
</g>
<!-- AL -->
<g id="node3" class="node">
<title>AL</title>
<polygon fill="none" stroke="white" points="131.5,-204 16.5,-204 16.5,-136 131.5,-136 131.5,-204"/>
<text text-anchor="middle" x="74" y="-191.2" font-family="Cascadia Code PL" font-size="11.00" fill="cyan">Align Left</text>
<text text-anchor="middle" x="74" y="-179.2" font-family="Cascadia Code PL" font-size="11.00" fill="cyan">─────────────────</text>
<text text-anchor="middle" x="74" y="-167.2" font-family="Cascadia Code PL" font-size="11.00" fill="cyan">All selected layers</text>
<text text-anchor="middle" x="74" y="-155.2" font-family="Cascadia Code PL" font-size="11.00" fill="cyan">aligned to left edge</text>
<text text-anchor="middle" x="74" y="-143.2" font-family="Cascadia Code PL" font-size="11.00" fill="cyan">of canvas (x=0)</text>
</g>
<!-- S_IDLE&#45;&gt;AL -->
<g id="edge5" class="edge">
<title>S_IDLE&#45;&gt;AL</title>
<path fill="none" stroke="#6699ff" d="M473.2,-312.48C391.76,-309.36 247.42,-295.3 140,-238 127.6,-231.38 116.07,-221.64 106.23,-211.62"/>
<polygon fill="#6699ff" stroke="#6699ff" points="108.78,-209.21 99.38,-204.31 103.67,-214 108.78,-209.21"/>
<text text-anchor="middle" x="191.5" y="-248.8" font-family="Cascadia Code PL" font-size="9.00" fill="#aaaaaa"> &#160;Align Left</text>
</g>
<!-- AC -->
<g id="node4" class="node">
<title>AC</title>
<polygon fill="none" stroke="white" points="270.5,-204 149.5,-204 149.5,-136 270.5,-136 270.5,-204"/>
<text text-anchor="middle" x="210" y="-191.2" font-family="Cascadia Code PL" font-size="11.00" fill="cyan">Align Center</text>
<text text-anchor="middle" x="210" y="-179.2" font-family="Cascadia Code PL" font-size="11.00" fill="cyan">─────────────────</text>
<text text-anchor="middle" x="210" y="-167.2" font-family="Cascadia Code PL" font-size="11.00" fill="cyan">All selected layers</text>
<text text-anchor="middle" x="210" y="-155.2" font-family="Cascadia Code PL" font-size="11.00" fill="cyan">centered horizontally</text>
<text text-anchor="middle" x="210" y="-143.2" font-family="Cascadia Code PL" font-size="11.00" fill="cyan">on canvas</text>
</g>
<!-- S_IDLE&#45;&gt;AC -->
<g id="edge6" class="edge">
<title>S_IDLE&#45;&gt;AC</title>
<path fill="none" stroke="#6699ff" d="M473.48,-303.32C419.51,-293.01 340.84,-273.18 280,-238 267.7,-230.89 255.89,-221.17 245.59,-211.34"/>
<polygon fill="#6699ff" stroke="#6699ff" points="247.94,-208.75 238.37,-204.2 243.02,-213.72 247.94,-208.75"/>
<text text-anchor="middle" x="340" y="-248.8" font-family="Cascadia Code PL" font-size="9.00" fill="#aaaaaa"> &#160;Align Center</text>
</g>
<!-- AR -->
<g id="node5" class="node">
<title>AR</title>
<polygon fill="none" stroke="white" points="411,-204 289,-204 289,-136 411,-136 411,-204"/>
<text text-anchor="middle" x="350" y="-191.2" font-family="Cascadia Code PL" font-size="11.00" fill="cyan">Align Right</text>
<text text-anchor="middle" x="350" y="-179.2" font-family="Cascadia Code PL" font-size="11.00" fill="cyan">─────────────────</text>
<text text-anchor="middle" x="350" y="-167.2" font-family="Cascadia Code PL" font-size="11.00" fill="cyan">All selected layers</text>
<text text-anchor="middle" x="350" y="-155.2" font-family="Cascadia Code PL" font-size="11.00" fill="cyan">aligned to right edge</text>
<text text-anchor="middle" x="350" y="-143.2" font-family="Cascadia Code PL" font-size="11.00" fill="cyan">of canvas</text>
</g>
<!-- S_IDLE&#45;&gt;AR -->
<g id="edge7" class="edge">
<title>S_IDLE&#45;&gt;AR</title>
<path fill="none" stroke="#6699ff" d="M473.39,-275.59C455.65,-264.18 436.65,-251.16 420,-238 409.59,-229.77 398.94,-220.25 389.2,-211.02"/>
<polygon fill="#6699ff" stroke="#6699ff" points="391.58,-208.45 381.95,-204.04 386.73,-213.49 391.58,-208.45"/>
<text text-anchor="middle" x="466.5" y="-248.8" font-family="Cascadia Code PL" font-size="9.00" fill="#aaaaaa"> &#160;Align Right</text>
</g>
<!-- AT -->
<g id="node6" class="node">
<title>AT</title>
<polygon fill="none" stroke="white" points="545,-204 429,-204 429,-136 545,-136 545,-204"/>
<text text-anchor="middle" x="487" y="-191.2" font-family="Cascadia Code PL" font-size="11.00" fill="cyan">Align Top</text>
<text text-anchor="middle" x="487" y="-179.2" font-family="Cascadia Code PL" font-size="11.00" fill="cyan">─────────────────</text>
<text text-anchor="middle" x="487" y="-167.2" font-family="Cascadia Code PL" font-size="11.00" fill="cyan">All selected layers</text>
<text text-anchor="middle" x="487" y="-155.2" font-family="Cascadia Code PL" font-size="11.00" fill="cyan">aligned to top edge</text>
<text text-anchor="middle" x="487" y="-143.2" font-family="Cascadia Code PL" font-size="11.00" fill="cyan">of canvas (y=0)</text>
</g>
<!-- S_IDLE&#45;&gt;AT -->
<g id="edge8" class="edge">
<title>S_IDLE&#45;&gt;AT</title>
<path fill="none" stroke="#6699ff" d="M522.48,-273.82C516.06,-255.23 508.38,-232.96 501.81,-213.91"/>
<polygon fill="#6699ff" stroke="#6699ff" points="505.05,-212.59 498.48,-204.28 498.44,-214.87 505.05,-212.59"/>
<text text-anchor="middle" x="537.5" y="-248.8" font-family="Cascadia Code PL" font-size="9.00" fill="#aaaaaa"> &#160;Align Top</text>
</g>
<!-- AM -->
<g id="node7" class="node">
<title>AM</title>
<polygon fill="none" stroke="white" points="670.5,-204 563.5,-204 563.5,-136 670.5,-136 670.5,-204"/>
<text text-anchor="middle" x="617" y="-191.2" font-family="Cascadia Code PL" font-size="11.00" fill="cyan">Align Middle</text>
<text text-anchor="middle" x="617" y="-179.2" font-family="Cascadia Code PL" font-size="11.00" fill="cyan">─────────────────</text>
<text text-anchor="middle" x="617" y="-167.2" font-family="Cascadia Code PL" font-size="11.00" fill="cyan">All selected layers</text>
<text text-anchor="middle" x="617" y="-155.2" font-family="Cascadia Code PL" font-size="11.00" fill="cyan">centered vertically</text>
<text text-anchor="middle" x="617" y="-143.2" font-family="Cascadia Code PL" font-size="11.00" fill="cyan">on canvas</text>
</g>
<!-- S_IDLE&#45;&gt;AM -->
<g id="edge9" class="edge">
<title>S_IDLE&#45;&gt;AM</title>
<path fill="none" stroke="#6699ff" d="M558.35,-273.82C569.1,-254.97 582.01,-232.35 592.97,-213.12"/>
<polygon fill="#6699ff" stroke="#6699ff" points="596.1,-214.7 598.02,-204.28 590.02,-211.23 596.1,-214.7"/>
<text text-anchor="middle" x="603" y="-248.8" font-family="Cascadia Code PL" font-size="9.00" fill="#aaaaaa"> &#160;Align Middle</text>
</g>
<!-- AB -->
<g id="node8" class="node">
<title>AB</title>
<polygon fill="none" stroke="white" points="795.5,-204 688.5,-204 688.5,-136 795.5,-136 795.5,-204"/>
<text text-anchor="middle" x="742" y="-191.2" font-family="Cascadia Code PL" font-size="11.00" fill="cyan">Align Bottom</text>
<text text-anchor="middle" x="742" y="-179.2" font-family="Cascadia Code PL" font-size="11.00" fill="cyan">─────────────────</text>
<text text-anchor="middle" x="742" y="-167.2" font-family="Cascadia Code PL" font-size="11.00" fill="cyan">All selected layers</text>
<text text-anchor="middle" x="742" y="-155.2" font-family="Cascadia Code PL" font-size="11.00" fill="cyan">aligned to bottom</text>
<text text-anchor="middle" x="742" y="-143.2" font-family="Cascadia Code PL" font-size="11.00" fill="cyan">edge of canvas</text>
</g>
<!-- S_IDLE&#45;&gt;AB -->
<g id="edge10" class="edge">
<title>S_IDLE&#45;&gt;AB</title>
<path fill="none" stroke="#6699ff" d="M598.68,-286.18C625.03,-273.46 655.24,-256.9 680,-238 690.04,-230.33 699.84,-220.95 708.57,-211.66"/>
<polygon fill="#6699ff" stroke="#6699ff" points="711.17,-214 715.33,-204.26 706,-209.28 711.17,-214"/>
<text text-anchor="middle" x="694" y="-248.8" font-family="Cascadia Code PL" font-size="9.00" fill="#aaaaaa"> &#160;Align Bottom</text>
</g>
<!-- DH -->
<g id="node9" class="node">
<title>DH</title>
<polygon fill="none" stroke="white" points="941,-210 819,-210 819,-130 941,-130 941,-210"/>
<text text-anchor="middle" x="880" y="-197.2" font-family="Cascadia Code PL" font-size="11.00" fill="cyan">Distribute Horizontal</text>
<text text-anchor="middle" x="880" y="-185.2" font-family="Cascadia Code PL" font-size="11.00" fill="cyan">─────────────────</text>
<text text-anchor="middle" x="880" y="-173.2" font-family="Cascadia Code PL" font-size="11.00" fill="cyan">Evenly space selected</text>
<text text-anchor="middle" x="880" y="-161.2" font-family="Cascadia Code PL" font-size="11.00" fill="cyan">layers horizontally</text>
<text text-anchor="middle" x="880" y="-149.2" font-family="Cascadia Code PL" font-size="11.00" fill="cyan">Equal gaps between</text>
<text text-anchor="middle" x="880" y="-137.2" font-family="Cascadia Code PL" font-size="11.00" fill="cyan">bounding boxes</text>
</g>
<!-- S_IDLE&#45;&gt;DH -->
<g id="edge11" class="edge">
<title>S_IDLE&#45;&gt;DH</title>
<path fill="none" stroke="#cc66cc" d="M598.64,-304.28C655.71,-294.38 740.93,-274.63 807,-238 817.34,-232.26 827.4,-224.78 836.57,-216.89"/>
<polygon fill="#cc66cc" stroke="#cc66cc" points="838.93,-219.48 844.05,-210.21 834.26,-214.26 838.93,-219.48"/>
<text text-anchor="middle" x="812" y="-248.8" font-family="Cascadia Code PL" font-size="9.00" fill="#aaaaaa"> &#160;Distribute H</text>
</g>
<!-- DV -->
<g id="node10" class="node">
<title>DV</title>
<polygon fill="none" stroke="white" points="1081,-210 959,-210 959,-130 1081,-130 1081,-210"/>
<text text-anchor="middle" x="1020" y="-197.2" font-family="Cascadia Code PL" font-size="11.00" fill="cyan">Distribute Vertical</text>
<text text-anchor="middle" x="1020" y="-185.2" font-family="Cascadia Code PL" font-size="11.00" fill="cyan">─────────────────</text>
<text text-anchor="middle" x="1020" y="-173.2" font-family="Cascadia Code PL" font-size="11.00" fill="cyan">Evenly space selected</text>
<text text-anchor="middle" x="1020" y="-161.2" font-family="Cascadia Code PL" font-size="11.00" fill="cyan">layers vertically</text>
<text text-anchor="middle" x="1020" y="-149.2" font-family="Cascadia Code PL" font-size="11.00" fill="cyan">Equal gaps between</text>
<text text-anchor="middle" x="1020" y="-137.2" font-family="Cascadia Code PL" font-size="11.00" fill="cyan">bounding boxes</text>
</g>
<!-- S_IDLE&#45;&gt;DV -->
<g id="edge12" class="edge">
<title>S_IDLE&#45;&gt;DV</title>
<path fill="none" stroke="#cc66cc" d="M598.82,-312.7C683.17,-309.9 835.62,-296.3 950,-238 960.54,-232.63 970.57,-225.15 979.57,-217.14"/>
<polygon fill="#cc66cc" stroke="#cc66cc" points="981.97,-219.69 986.89,-210.31 977.19,-214.57 981.97,-219.69"/>
<text text-anchor="middle" x="954.5" y="-248.8" font-family="Cascadia Code PL" font-size="9.00" fill="#aaaaaa"> &#160;Distribute V</text>
</g>
<!-- E1 -->
<g id="node11" class="node">
<title>E1</title>
<polygon fill="none" stroke="white" points="1233.5,-480 1110.5,-480 1110.5,-412 1233.5,-412 1233.5,-480"/>
<text text-anchor="middle" x="1172" y="-467.2" font-family="Cascadia Code PL" font-size="11.00" fill="cyan">1. Snapshot</text>
<text text-anchor="middle" x="1172" y="-455.2" font-family="Cascadia Code PL" font-size="11.00" fill="cyan">─────────────────</text>
<text text-anchor="middle" x="1172" y="-443.2" font-family="Cascadia Code PL" font-size="11.00" fill="cyan">Save current position</text>
<text text-anchor="middle" x="1172" y="-431.2" font-family="Cascadia Code PL" font-size="11.00" fill="cyan">of each affected layer</text>
<text text-anchor="middle" x="1172" y="-419.2" font-family="Cascadia Code PL" font-size="11.00" fill="cyan">HISTORY group begin</text>
</g>
<!-- E2 -->
<g id="node12" class="node">
<title>E2</title>
<polygon fill="none" stroke="white" points="1236,-354 1108,-354 1108,-274 1236,-274 1236,-354"/>
<text text-anchor="middle" x="1172" y="-341.2" font-family="Cascadia Code PL" font-size="11.00" fill="cyan">2. Compute</text>
<text text-anchor="middle" x="1172" y="-329.2" font-family="Cascadia Code PL" font-size="11.00" fill="cyan">─────────────────</text>
<text text-anchor="middle" x="1172" y="-317.2" font-family="Cascadia Code PL" font-size="11.00" fill="cyan">Calculate target</text>
<text text-anchor="middle" x="1172" y="-305.2" font-family="Cascadia Code PL" font-size="11.00" fill="cyan">positions based on</text>
<text text-anchor="middle" x="1172" y="-293.2" font-family="Cascadia Code PL" font-size="11.00" fill="cyan">alignment/distribution</text>
<text text-anchor="middle" x="1172" y="-281.2" font-family="Cascadia Code PL" font-size="11.00" fill="cyan">canvas bounds</text>
</g>
<!-- E1&#45;&gt;E2 -->
<g id="edge2" class="edge">
<title>E1&#45;&gt;E2</title>
<path fill="none" stroke="#cccc66" d="M1172,-411.86C1172,-397.42 1172,-380.19 1172,-364.3"/>
<polygon fill="#cccc66" stroke="#cccc66" points="1175.5,-364.09 1172,-354.09 1168.5,-364.09 1175.5,-364.09"/>
<text text-anchor="middle" x="1186" y="-374.8" font-family="Cascadia Code PL" font-size="9.00" fill="#aaaaaa"> &#160;Saved</text>
</g>
<!-- E3 -->
<g id="node13" class="node">
<title>E3</title>
<polygon fill="none" stroke="white" points="1236.5,-204 1107.5,-204 1107.5,-136 1236.5,-136 1236.5,-204"/>
<text text-anchor="middle" x="1172" y="-191.2" font-family="Cascadia Code PL" font-size="11.00" fill="cyan">3. Apply</text>
<text text-anchor="middle" x="1172" y="-179.2" font-family="Cascadia Code PL" font-size="11.00" fill="cyan">─────────────────</text>
<text text-anchor="middle" x="1172" y="-167.2" font-family="Cascadia Code PL" font-size="11.00" fill="cyan">Move layer content</text>
<text text-anchor="middle" x="1172" y="-155.2" font-family="Cascadia Code PL" font-size="11.00" fill="cyan">to computed positions</text>
<text text-anchor="middle" x="1172" y="-143.2" font-family="Cascadia Code PL" font-size="11.00" fill="cyan">Update layer offsets</text>
</g>
<!-- E2&#45;&gt;E3 -->
<g id="edge3" class="edge">
<title>E2&#45;&gt;E3</title>
<path fill="none" stroke="#cccc66" d="M1172,-273.82C1172,-255.4 1172,-233.37 1172,-214.43"/>
<polygon fill="#cccc66" stroke="#cccc66" points="1175.5,-214.28 1172,-204.28 1168.5,-214.28 1175.5,-214.28"/>
<text text-anchor="middle" x="1195" y="-248.8" font-family="Cascadia Code PL" font-size="9.00" fill="#aaaaaa"> &#160;Computed</text>
</g>
<!-- E4 -->
<g id="node14" class="node">
<title>E4</title>
<polygon fill="none" stroke="white" points="1238.5,-84 1105.5,-84 1105.5,-16 1238.5,-16 1238.5,-84"/>
<text text-anchor="middle" x="1172" y="-71.2" font-family="Cascadia Code PL" font-size="11.00" fill="cyan">4. Record</text>
<text text-anchor="middle" x="1172" y="-59.2" font-family="Cascadia Code PL" font-size="11.00" fill="cyan">─────────────────</text>
<text text-anchor="middle" x="1172" y="-47.2" font-family="Cascadia Code PL" font-size="11.00" fill="cyan">HISTORY group end</text>
<text text-anchor="middle" x="1172" y="-35.2" font-family="Cascadia Code PL" font-size="11.00" fill="cyan">SCENE_DIRTY = TRUE</text>
<text text-anchor="middle" x="1172" y="-23.2" font-family="Cascadia Code PL" font-size="11.00" fill="cyan">BLEND_invalidate_cache</text>
</g>
<!-- E3&#45;&gt;E4 -->
<g id="edge4" class="edge">
<title>E3&#45;&gt;E4</title>
<path fill="none" stroke="#cccc66" d="M1172,-135.82C1172,-123 1172,-108.15 1172,-94.5"/>
<polygon fill="#cccc66" stroke="#cccc66" points="1175.5,-94.34 1172,-84.34 1168.5,-94.34 1175.5,-94.34"/>
<text text-anchor="middle" x="1190" y="-104.8" font-family="Cascadia Code PL" font-size="9.00" fill="#aaaaaa"> &#160;Applied</text>
</g>
<!-- M1 -->
<g id="node15" class="node">
<title>M1</title>
<polygon fill="none" stroke="white" points="1398.5,-492 1271.5,-492 1271.5,-400 1398.5,-400 1398.5,-492"/>
<text text-anchor="middle" x="1335" y="-479.2" font-family="Cascadia Code PL" font-size="11.00" fill="cyan">Multi&#45;Select Active</text>
<text text-anchor="middle" x="1335" y="-467.2" font-family="Cascadia Code PL" font-size="11.00" fill="cyan">─────────────────</text>
<text text-anchor="middle" x="1335" y="-455.2" font-family="Cascadia Code PL" font-size="11.00" fill="cyan">Ctrl+Click layers</text>
<text text-anchor="middle" x="1335" y="-443.2" font-family="Cascadia Code PL" font-size="11.00" fill="cyan">to select multiple</text>
<text text-anchor="middle" x="1335" y="-431.2" font-family="Cascadia Code PL" font-size="11.00" fill="cyan">Align/Distribute needs</text>
<text text-anchor="middle" x="1335" y="-419.2" font-family="Cascadia Code PL" font-size="11.00" fill="cyan">≥ 2 selected layers</text>
<text text-anchor="middle" x="1335" y="-407.2" font-family="Cascadia Code PL" font-size="11.00" fill="cyan">to be meaningful</text>
</g>
<!-- L1 -->
<g id="node16" class="node">
<title>L1</title>
<ellipse fill="white" stroke="white" cx="1634" cy="-446" rx="0.36" ry="0.36"/>
</g>
<!-- L2 -->
<g id="node17" class="node">
<title>L2</title>
<ellipse fill="white" stroke="white" cx="1634" cy="-314" rx="0.36" ry="0.36"/>
</g>
<!-- L1&#45;&gt;L2 -->
<g id="edge13" class="edge">
<title>L1&#45;&gt;L2</title>
<path fill="none" stroke="#6699ff" d="M1634,-444.91C1634,-441.67 1634,-355.8 1634,-325.48"/>
<polygon fill="#6699ff" stroke="#6699ff" points="1637.5,-325.09 1634,-315.09 1630.5,-325.09 1637.5,-325.09"/>
<text text-anchor="middle" x="1666" y="-374.8" font-family="Cascadia Code PL" font-size="9.00" fill="#aaaaaa"> Align operation</text>
</g>
<!-- L3 -->
<g id="node18" class="node">
<title>L3</title>
<ellipse fill="white" stroke="white" cx="1529" cy="-446" rx="0.36" ry="0.36"/>
</g>
<!-- L4 -->
<g id="node19" class="node">
<title>L4</title>
<ellipse fill="white" stroke="white" cx="1529" cy="-314" rx="0.36" ry="0.36"/>
</g>
<!-- L3&#45;&gt;L4 -->
<g id="edge14" class="edge">
<title>L3&#45;&gt;L4</title>
<path fill="none" stroke="#cc66cc" d="M1529,-444.91C1529,-441.67 1529,-355.8 1529,-325.48"/>
<polygon fill="#cc66cc" stroke="#cc66cc" points="1532.5,-325.09 1529,-315.09 1525.5,-325.09 1532.5,-325.09"/>
<text text-anchor="middle" x="1570" y="-374.8" font-family="Cascadia Code PL" font-size="9.00" fill="#aaaaaa"> Distribute operation</text>
</g>
<!-- L5 -->
<g id="node20" class="node">
<title>L5</title>
<ellipse fill="white" stroke="white" cx="1450" cy="-446" rx="0.36" ry="0.36"/>
</g>
<!-- L6 -->
<g id="node21" class="node">
<title>L6</title>
<ellipse fill="white" stroke="white" cx="1450" cy="-314" rx="0.36" ry="0.36"/>
</g>
<!-- L5&#45;&gt;L6 -->
<g id="edge15" class="edge">
<title>L5&#45;&gt;L6</title>
<path fill="none" stroke="#cccc66" d="M1450,-444.91C1450,-441.67 1450,-355.8 1450,-325.48"/>
<polygon fill="#cccc66" stroke="#cccc66" points="1453.5,-325.09 1450,-315.09 1446.5,-325.09 1453.5,-325.09"/>
<text text-anchor="middle" x="1478" y="-374.8" font-family="Cascadia Code PL" font-size="9.00" fill="#aaaaaa"> Step / Record</text>
</g>
</g>
</svg>
