<?xml version="1.0" encoding="UTF-8" standalone="no"?>
<!DOCTYPE svg PUBLIC "-//W3C//DTD SVG 1.1//EN"
 "http://www.w3.org/Graphics/SVG/1.1/DTD/svg11.dtd">
<!-- Generated by graphviz version 2.42.4 (0)
 -->
<!-- Title: LAYER_ALIGN_DIST Pages: 1 -->
<svg width="2205pt" height="594pt"
 viewBox="0.00 0.00 2205.00 594.00" xmlns="http://www.w3.org/2000/svg" xmlns:xlink="http://www.w3.org/1999/xlink">
<g id="graph0" class="graph" transform="scale(1 1) rotate(0) translate(4 590)">
<title>LAYER_ALIGN_DIST</title>
<text text-anchor="middle" x="1098.5" y="-562.8" font-family="Cascadia Code PL" font-size="24.00" fill="white">LAYER ALIGN / DISTRIBUTE STATE MACHINE</text>
<g id="clust3" class="cluster">
<title>cluster_align</title>
<polygon fill="transparent" stroke="orange" stroke-dasharray="5,2" points="8,-134 8,-250 1066,-250 1066,-134 8,-134"/>
<text text-anchor="middle" x="70" y="-237.2" font-family="Cascadia Code PL" font-size="11.00" fill="white">ALIGN OPERATIONS</text>
</g>
<g id="clust4" class="cluster">
<title>cluster_distribute</title>
<polygon fill="transparent" stroke="orange" stroke-dasharray="5,2" points="1074,-134 1074,-250 1420,-250 1420,-134 1074,-134"/>
<text text-anchor="middle" x="1151.5" y="-237.2" font-family="Cascadia Code PL" font-size="11.00" fill="white">DISTRIBUTE OPERATIONS</text>
</g>
<g id="clust5" class="cluster">
<title>cluster_execution</title>
<polygon fill="transparent" stroke="orange" stroke-dasharray="5,2" points="1428,-8 1428,-532 1618,-532 1618,-8 1428,-8"/>
<text text-anchor="middle" x="1486" y="-519.2" font-family="Cascadia Code PL" font-size="11.00" fill="white">EXECUTION FLOW</text>
</g>
<g id="clust6" class="cluster">
<title>cluster_multisel</title>
<polygon fill="transparent" stroke="orange" stroke-dasharray="5,2" points="1626,-416 1626,-544 1870,-544 1870,-416 1626,-416"/>
<text text-anchor="middle" x="1714.5" y="-531.2" font-family="Cascadia Code PL" font-size="11.00" fill="white">MULTI&#45;SELECT REQUIREMENT</text>
</g>
<g id="clust7" class="cluster">
<title>cluster_legend</title>
<polygon fill="transparent" stroke="white" stroke-dasharray="5,2" points="1878,-323.64 1878,-498.36 2189,-498.36 2189,-323.64 1878,-323.64"/>
<text text-anchor="middle" x="1908.5" y="-485.56" font-family="Cascadia Code PL" font-size="11.00" fill="white">LEGEND</text>
</g>
<!-- MAIN -->
<g id="node1" class="node">
<title>MAIN</title>
<polygon fill="none" stroke="orange" stroke-width="2" points="733,-488 730,-492 709,-492 706,-488 623,-488 623,-452 733,-452 733,-488"/>
<text text-anchor="middle" x="678" y="-473.6" font-family="Cascadia Code PL" font-size="13.00" fill="orange">LAYER ALIGN</text>
<text text-anchor="middle" x="678" y="-459.6" font-family="Cascadia Code PL" font-size="13.00" fill="orange">&amp; DISTRIBUTE</text>
</g>
<!-- S_IDLE -->
<g id="node2" class="node">
<title>S_IDLE</title>
<polygon fill="none" stroke="white" points="793,-378 563,-378 563,-286 793,-286 793,-378"/>
<text text-anchor="middle" x="678" y="-365.2" font-family="Cascadia Code PL" font-size="11.00" fill="cyan">1 · IDLE</text>
<text text-anchor="middle" x="678" y="-353.2" font-family="Cascadia Code PL" font-size="11.00" fill="cyan">─────────────────</text>
<text text-anchor="middle" x="678" y="-341.2" font-family="Cascadia Code PL" font-size="11.00" fill="cyan">Content pixels sit at</text>
<text text-anchor="middle" x="678" y="-329.2" font-family="Cascadia Code PL" font-size="11.00" fill="cyan">current positions in</text>
<text text-anchor="middle" x="678" y="-317.2" font-family="Cascadia Code PL" font-size="11.00" fill="cyan">each layer&#39;s buffer</text>
<text text-anchor="middle" x="678" y="-305.2" font-family="Cascadia Code PL" font-size="11.00" fill="cyan">CURRENT_LAYER% / MULTI_SELECT set</text>
<text text-anchor="middle" x="678" y="-293.2" font-family="Cascadia Code PL" font-size="11.00" fill="cyan">(actions 1901&#45;1908)</text>
</g>
<!-- MAIN&#45;&gt;S_IDLE -->
<g id="edge1" class="edge">
<title>MAIN&#45;&gt;S_IDLE</title>
<path fill="none" stroke="#555555" stroke-dasharray="1,5" d="M678,-451.78C678,-433.33 678,-403.32 678,-378.08"/>
</g>
<!-- AL -->
<g id="node3" class="node">
<title>AL</title>
<polygon fill="none" stroke="white" points="163.5,-222 16.5,-222 16.5,-142 163.5,-142 163.5,-222"/>
<text text-anchor="middle" x="90" y="-209.2" font-family="Cascadia Code PL" font-size="11.00" fill="cyan">1901 Align Left</text>
<text text-anchor="middle" x="90" y="-197.2" font-family="Cascadia Code PL" font-size="11.00" fill="cyan">─────────────────</text>
<text text-anchor="middle" x="90" y="-185.2" font-family="Cascadia Code PL" font-size="11.00" fill="cyan">Content left edge to</text>
<text text-anchor="middle" x="90" y="-173.2" font-family="Cascadia Code PL" font-size="11.00" fill="cyan">reference left.</text>
<text text-anchor="middle" x="90" y="-161.2" font-family="Cascadia Code PL" font-size="11.00" fill="cyan">Multi: to left&#45;most layer</text>
<text text-anchor="middle" x="90" y="-149.2" font-family="Cascadia Code PL" font-size="11.00" fill="cyan">Single: to canvas x=0</text>
</g>
<!-- S_IDLE&#45;&gt;AL -->
<g id="edge5" class="edge">
<title>S_IDLE&#45;&gt;AL</title>
<path fill="none" stroke="#6699ff" d="M562.91,-329.28C457.33,-323.89 298.72,-306.01 173,-250 160.73,-244.54 148.76,-236.79 137.89,-228.5"/>
<polygon fill="#6699ff" stroke="#6699ff" points="139.81,-225.56 129.81,-222.07 135.46,-231.04 139.81,-225.56"/>
<text text-anchor="middle" x="236.5" y="-260.8" font-family="Cascadia Code PL" font-size="9.00" fill="#aaaaaa"> &#160;Align Left</text>
</g>
<!-- AC -->
<g id="node4" class="node">
<title>AC</title>
<polygon fill="none" stroke="white" points="352,-216 182,-216 182,-148 352,-148 352,-216"/>
<text text-anchor="middle" x="267" y="-203.2" font-family="Cascadia Code PL" font-size="11.00" fill="cyan">1902 Align Center H</text>
<text text-anchor="middle" x="267" y="-191.2" font-family="Cascadia Code PL" font-size="11.00" fill="cyan">─────────────────</text>
<text text-anchor="middle" x="267" y="-179.2" font-family="Cascadia Code PL" font-size="11.00" fill="cyan">Center content horizontally.</text>
<text text-anchor="middle" x="267" y="-167.2" font-family="Cascadia Code PL" font-size="11.00" fill="cyan">Multi: on bbox of selection</text>
<text text-anchor="middle" x="267" y="-155.2" font-family="Cascadia Code PL" font-size="11.00" fill="cyan">Single: on canvas</text>
</g>
<!-- S_IDLE&#45;&gt;AC -->
<g id="edge6" class="edge">
<title>S_IDLE&#45;&gt;AC</title>
<path fill="none" stroke="#6699ff" d="M562.65,-312.19C500.95,-299.51 424.76,-279.6 361,-250 345.05,-242.59 328.98,-232.39 314.76,-222.18"/>
<polygon fill="#6699ff" stroke="#6699ff" points="316.74,-219.29 306.61,-216.18 312.59,-224.93 316.74,-219.29"/>
<text text-anchor="middle" x="433" y="-260.8" font-family="Cascadia Code PL" font-size="9.00" fill="#aaaaaa"> &#160;Align Center</text>
</g>
<!-- AR -->
<g id="node5" class="node">
<title>AR</title>
<polygon fill="none" stroke="white" points="525.5,-222 370.5,-222 370.5,-142 525.5,-142 525.5,-222"/>
<text text-anchor="middle" x="448" y="-209.2" font-family="Cascadia Code PL" font-size="11.00" fill="cyan">1903 Align Right</text>
<text text-anchor="middle" x="448" y="-197.2" font-family="Cascadia Code PL" font-size="11.00" fill="cyan">─────────────────</text>
<text text-anchor="middle" x="448" y="-185.2" font-family="Cascadia Code PL" font-size="11.00" fill="cyan">Content right edge to</text>
<text text-anchor="middle" x="448" y="-173.2" font-family="Cascadia Code PL" font-size="11.00" fill="cyan">reference right.</text>
<text text-anchor="middle" x="448" y="-161.2" font-family="Cascadia Code PL" font-size="11.00" fill="cyan">Multi: to right&#45;most layer</text>
<text text-anchor="middle" x="448" y="-149.2" font-family="Cascadia Code PL" font-size="11.00" fill="cyan">Single: to canvas right</text>
</g>
<!-- S_IDLE&#45;&gt;AR -->
<g id="edge7" class="edge">
<title>S_IDLE&#45;&gt;AR</title>
<path fill="none" stroke="#6699ff" d="M592.97,-285.95C573.27,-274.75 552.63,-262.39 534,-250 524.03,-243.37 513.73,-235.92 503.88,-228.46"/>
<polygon fill="#6699ff" stroke="#6699ff" points="505.79,-225.52 495.73,-222.22 501.54,-231.08 505.79,-225.52"/>
<text text-anchor="middle" x="589" y="-260.8" font-family="Cascadia Code PL" font-size="9.00" fill="#aaaaaa"> &#160;Align Right</text>
</g>
<!-- AT -->
<g id="node6" class="node">
<title>AT</title>
<polygon fill="none" stroke="white" points="690.5,-222 543.5,-222 543.5,-142 690.5,-142 690.5,-222"/>
<text text-anchor="middle" x="617" y="-209.2" font-family="Cascadia Code PL" font-size="11.00" fill="cyan">1904 Align Top</text>
<text text-anchor="middle" x="617" y="-197.2" font-family="Cascadia Code PL" font-size="11.00" fill="cyan">─────────────────</text>
<text text-anchor="middle" x="617" y="-185.2" font-family="Cascadia Code PL" font-size="11.00" fill="cyan">Content top edge to</text>
<text text-anchor="middle" x="617" y="-173.2" font-family="Cascadia Code PL" font-size="11.00" fill="cyan">reference top.</text>
<text text-anchor="middle" x="617" y="-161.2" font-family="Cascadia Code PL" font-size="11.00" fill="cyan">Multi: to top&#45;most layer</text>
<text text-anchor="middle" x="617" y="-149.2" font-family="Cascadia Code PL" font-size="11.00" fill="cyan">Single: to canvas y=0</text>
</g>
<!-- S_IDLE&#45;&gt;AT -->
<g id="edge8" class="edge">
<title>S_IDLE&#45;&gt;AT</title>
<path fill="none" stroke="#6699ff" d="M659.37,-285.79C652.33,-268.72 644.3,-249.23 637.13,-231.84"/>
<polygon fill="#6699ff" stroke="#6699ff" points="640.3,-230.34 633.25,-222.42 633.82,-233 640.3,-230.34"/>
<text text-anchor="middle" x="674.5" y="-260.8" font-family="Cascadia Code PL" font-size="9.00" fill="#aaaaaa"> &#160;Align Top</text>
</g>
<!-- AM -->
<g id="node7" class="node">
<title>AM</title>
<polygon fill="none" stroke="white" points="871.5,-216 708.5,-216 708.5,-148 871.5,-148 871.5,-216"/>
<text text-anchor="middle" x="790" y="-203.2" font-family="Cascadia Code PL" font-size="11.00" fill="cyan">1905 Align Middle V</text>
<text text-anchor="middle" x="790" y="-191.2" font-family="Cascadia Code PL" font-size="11.00" fill="cyan">─────────────────</text>
<text text-anchor="middle" x="790" y="-179.2" font-family="Cascadia Code PL" font-size="11.00" fill="cyan">Center content vertically.</text>
<text text-anchor="middle" x="790" y="-167.2" font-family="Cascadia Code PL" font-size="11.00" fill="cyan">Multi: on bbox of selection</text>
<text text-anchor="middle" x="790" y="-155.2" font-family="Cascadia Code PL" font-size="11.00" fill="cyan">Single: on canvas</text>
</g>
<!-- S_IDLE&#45;&gt;AM -->
<g id="edge9" class="edge">
<title>S_IDLE&#45;&gt;AM</title>
<path fill="none" stroke="#6699ff" d="M712.21,-285.79C727.01,-266.24 744.2,-243.52 758.66,-224.41"/>
<polygon fill="#6699ff" stroke="#6699ff" points="761.64,-226.28 764.88,-216.19 756.06,-222.05 761.64,-226.28"/>
<text text-anchor="middle" x="760.5" y="-260.8" font-family="Cascadia Code PL" font-size="9.00" fill="#aaaaaa"> &#160;Align Middle</text>
</g>
<!-- AB -->
<g id="node8" class="node">
<title>AB</title>
<polygon fill="none" stroke="white" points="1058.5,-222 889.5,-222 889.5,-142 1058.5,-142 1058.5,-222"/>
<text text-anchor="middle" x="974" y="-209.2" font-family="Cascadia Code PL" font-size="11.00" fill="cyan">1906 Align Bottom</text>
<text text-anchor="middle" x="974" y="-197.2" font-family="Cascadia Code PL" font-size="11.00" fill="cyan">─────────────────</text>
<text text-anchor="middle" x="974" y="-185.2" font-family="Cascadia Code PL" font-size="11.00" fill="cyan">Content bottom edge to</text>
<text text-anchor="middle" x="974" y="-173.2" font-family="Cascadia Code PL" font-size="11.00" fill="cyan">reference bottom.</text>
<text text-anchor="middle" x="974" y="-161.2" font-family="Cascadia Code PL" font-size="11.00" fill="cyan">Multi: to bottom&#45;most layer</text>
<text text-anchor="middle" x="974" y="-149.2" font-family="Cascadia Code PL" font-size="11.00" fill="cyan">Single: to canvas bottom</text>
</g>
<!-- S_IDLE&#45;&gt;AB -->
<g id="edge10" class="edge">
<title>S_IDLE&#45;&gt;AB</title>
<path fill="none" stroke="#6699ff" d="M793.26,-290.68C822.53,-278.91 853.47,-265.11 881,-250 892.68,-243.59 904.61,-235.95 915.86,-228.17"/>
<polygon fill="#6699ff" stroke="#6699ff" points="918.16,-230.83 924.31,-222.2 914.12,-225.11 918.16,-230.83"/>
<text text-anchor="middle" x="897.5" y="-260.8" font-family="Cascadia Code PL" font-size="9.00" fill="#aaaaaa"> &#160;Align Bottom</text>
</g>
<!-- DH -->
<g id="node9" class="node">
<title>DH</title>
<polygon fill="none" stroke="white" points="1238,-222 1082,-222 1082,-142 1238,-142 1238,-222"/>
<text text-anchor="middle" x="1160" y="-209.2" font-family="Cascadia Code PL" font-size="11.00" fill="cyan">1907 Distribute H</text>
<text text-anchor="middle" x="1160" y="-197.2" font-family="Cascadia Code PL" font-size="11.00" fill="cyan">─────────────────</text>
<text text-anchor="middle" x="1160" y="-185.2" font-family="Cascadia Code PL" font-size="11.00" fill="cyan">Sort selected by X,</text>
<text text-anchor="middle" x="1160" y="-173.2" font-family="Cascadia Code PL" font-size="11.00" fill="cyan">evenly space content</text>
<text text-anchor="middle" x="1160" y="-161.2" font-family="Cascadia Code PL" font-size="11.00" fill="cyan">boxes between extremes</text>
<text text-anchor="middle" x="1160" y="-149.2" font-family="Cascadia Code PL" font-size="11.00" fill="cyan">Equal gaps (needs &gt;= 2)</text>
</g>
<!-- S_IDLE&#45;&gt;DH -->
<g id="edge11" class="edge">
<title>S_IDLE&#45;&gt;DH</title>
<path fill="none" stroke="#cc66cc" d="M793.14,-320.55C873.49,-310.11 981.71,-289.62 1070,-250 1082.73,-244.29 1095.38,-236.53 1107,-228.31"/>
<polygon fill="#cc66cc" stroke="#cc66cc" points="1109.25,-231 1115.26,-222.27 1105.12,-225.35 1109.25,-231"/>
<text text-anchor="middle" x="1080.5" y="-260.8" font-family="Cascadia Code PL" font-size="9.00" fill="#aaaaaa"> &#160;Distribute H</text>
</g>
<!-- DV -->
<g id="node10" class="node">
<title>DV</title>
<polygon fill="none" stroke="white" points="1412,-222 1256,-222 1256,-142 1412,-142 1412,-222"/>
<text text-anchor="middle" x="1334" y="-209.2" font-family="Cascadia Code PL" font-size="11.00" fill="cyan">1908 Distribute V</text>
<text text-anchor="middle" x="1334" y="-197.2" font-family="Cascadia Code PL" font-size="11.00" fill="cyan">─────────────────</text>
<text text-anchor="middle" x="1334" y="-185.2" font-family="Cascadia Code PL" font-size="11.00" fill="cyan">Sort selected by Y,</text>
<text text-anchor="middle" x="1334" y="-173.2" font-family="Cascadia Code PL" font-size="11.00" fill="cyan">evenly space content</text>
<text text-anchor="middle" x="1334" y="-161.2" font-family="Cascadia Code PL" font-size="11.00" fill="cyan">boxes between extremes</text>
<text text-anchor="middle" x="1334" y="-149.2" font-family="Cascadia Code PL" font-size="11.00" fill="cyan">Equal gaps (needs &gt;= 2)</text>
</g>
<!-- S_IDLE&#45;&gt;DV -->
<g id="edge12" class="edge">
<title>S_IDLE&#45;&gt;DV</title>
<path fill="none" stroke="#cc66cc" d="M793.26,-321.58C935.24,-308.76 1167.41,-283.54 1247,-250 1259.86,-244.58 1272.49,-236.78 1283.95,-228.4"/>
<polygon fill="#cc66cc" stroke="#cc66cc" points="1286.24,-231.06 1292.09,-222.22 1282.01,-225.48 1286.24,-231.06"/>
<text text-anchor="middle" x="1252" y="-260.8" font-family="Cascadia Code PL" font-size="9.00" fill="#aaaaaa"> &#160;Distribute V</text>
</g>
<!-- E1 -->
<g id="node11" class="node">
<title>E1</title>
<polygon fill="none" stroke="white" points="1605,-504 1441,-504 1441,-436 1605,-436 1605,-504"/>
<text text-anchor="middle" x="1523" y="-491.2" font-family="Cascadia Code PL" font-size="11.00" fill="cyan">1. Snapshot</text>
<text text-anchor="middle" x="1523" y="-479.2" font-family="Cascadia Code PL" font-size="11.00" fill="cyan">─────────────────</text>
<text text-anchor="middle" x="1523" y="-467.2" font-family="Cascadia Code PL" font-size="11.00" fill="cyan">HISTORY_begin_group</text>
<text text-anchor="middle" x="1523" y="-455.2" font-family="Cascadia Code PL" font-size="11.00" fill="cyan">_COPYIMAGE before&#45;image</text>
<text text-anchor="middle" x="1523" y="-443.2" font-family="Cascadia Code PL" font-size="11.00" fill="cyan">per affected layer</text>
</g>
<!-- E2 -->
<g id="node12" class="node">
<title>E2</title>
<polygon fill="none" stroke="white" points="1606.5,-366 1439.5,-366 1439.5,-298 1606.5,-298 1606.5,-366"/>
<text text-anchor="middle" x="1523" y="-353.2" font-family="Cascadia Code PL" font-size="11.00" fill="cyan">2. Compute</text>
<text text-anchor="middle" x="1523" y="-341.2" font-family="Cascadia Code PL" font-size="11.00" fill="cyan">─────────────────</text>
<text text-anchor="middle" x="1523" y="-329.2" font-family="Cascadia Code PL" font-size="11.00" fill="cyan">LAYER_get_content_bounds</text>
<text text-anchor="middle" x="1523" y="-317.2" font-family="Cascadia Code PL" font-size="11.00" fill="cyan">Calc dx/dy from ref</text>
<text text-anchor="middle" x="1523" y="-305.2" font-family="Cascadia Code PL" font-size="11.00" fill="cyan">(anchor / bbox / canvas)</text>
</g>
<!-- E1&#45;&gt;E2 -->
<g id="edge2" class="edge">
<title>E1&#45;&gt;E2</title>
<path fill="none" stroke="#cccc66" d="M1523,-435.73C1523,-417.87 1523,-395.63 1523,-376.42"/>
<polygon fill="#cccc66" stroke="#cccc66" points="1526.5,-376.4 1523,-366.4 1519.5,-376.4 1526.5,-376.4"/>
<text text-anchor="middle" x="1540" y="-398.8" font-family="Cascadia Code PL" font-size="9.00" fill="#aaaaaa"> &#160;Saved</text>
</g>
<!-- E3 -->
<g id="node13" class="node">
<title>E3</title>
<polygon fill="none" stroke="white" points="1609.5,-216 1436.5,-216 1436.5,-148 1609.5,-148 1609.5,-216"/>
<text text-anchor="middle" x="1523" y="-203.2" font-family="Cascadia Code PL" font-size="11.00" fill="cyan">3. Apply</text>
<text text-anchor="middle" x="1523" y="-191.2" font-family="Cascadia Code PL" font-size="11.00" fill="cyan">─────────────────</text>
<text text-anchor="middle" x="1523" y="-179.2" font-family="Cascadia Code PL" font-size="11.00" fill="cyan">LAYER_translate_content</text>
<text text-anchor="middle" x="1523" y="-167.2" font-family="Cascadia Code PL" font-size="11.00" fill="cyan">shifts pixels in buffer</text>
<text text-anchor="middle" x="1523" y="-155.2" font-family="Cascadia Code PL" font-size="11.00" fill="cyan">layer.contentDirty% = TRUE</text>
</g>
<!-- E2&#45;&gt;E3 -->
<g id="edge3" class="edge">
<title>E2&#45;&gt;E3</title>
<path fill="none" stroke="#cccc66" d="M1523,-297.79C1523,-276.65 1523,-249.06 1523,-226.22"/>
<polygon fill="#cccc66" stroke="#cccc66" points="1526.5,-226.1 1523,-216.1 1519.5,-226.1 1526.5,-226.1"/>
<text text-anchor="middle" x="1550" y="-260.8" font-family="Cascadia Code PL" font-size="9.00" fill="#aaaaaa"> &#160;Computed</text>
</g>
<!-- E4 -->
<g id="node14" class="node">
<title>E4</title>
<polygon fill="none" stroke="white" points="1605,-96 1441,-96 1441,-16 1605,-16 1605,-96"/>
<text text-anchor="middle" x="1523" y="-83.2" font-family="Cascadia Code PL" font-size="11.00" fill="cyan">4. Record</text>
<text text-anchor="middle" x="1523" y="-71.2" font-family="Cascadia Code PL" font-size="11.00" fill="cyan">─────────────────</text>
<text text-anchor="middle" x="1523" y="-59.2" font-family="Cascadia Code PL" font-size="11.00" fill="cyan">HISTORY_record_transform</text>
<text text-anchor="middle" x="1523" y="-47.2" font-family="Cascadia Code PL" font-size="11.00" fill="cyan">HISTORY_end_group</text>
<text text-anchor="middle" x="1523" y="-35.2" font-family="Cascadia Code PL" font-size="11.00" fill="cyan">BLEND_invalidate_cache</text>
<text text-anchor="middle" x="1523" y="-23.2" font-family="Cascadia Code PL" font-size="11.00" fill="cyan">SCENE_DIRTY% = TRUE</text>
</g>
<!-- E3&#45;&gt;E4 -->
<g id="edge4" class="edge">
<title>E3&#45;&gt;E4</title>
<path fill="none" stroke="#cccc66" d="M1523,-147.77C1523,-135.08 1523,-120.32 1523,-106.44"/>
<polygon fill="#cccc66" stroke="#cccc66" points="1526.5,-106.05 1523,-96.05 1519.5,-106.05 1526.5,-106.05"/>
<text text-anchor="middle" x="1543" y="-116.8" font-family="Cascadia Code PL" font-size="9.00" fill="#aaaaaa"> &#160;Applied</text>
</g>
<!-- M1 -->
<g id="node15" class="node">
<title>M1</title>
<polygon fill="none" stroke="white" points="1861.5,-516 1634.5,-516 1634.5,-424 1861.5,-424 1861.5,-516"/>
<text text-anchor="middle" x="1748" y="-503.2" font-family="Cascadia Code PL" font-size="11.00" fill="cyan">Reference depends on selection</text>
<text text-anchor="middle" x="1748" y="-491.2" font-family="Cascadia Code PL" font-size="11.00" fill="cyan">─────────────────</text>
<text text-anchor="middle" x="1748" y="-479.2" font-family="Cascadia Code PL" font-size="11.00" fill="cyan">MULTI_SELECT_has_any% (COUNT&gt;1):</text>
<text text-anchor="middle" x="1748" y="-467.2" font-family="Cascadia Code PL" font-size="11.00" fill="cyan">edge aligns → extreme selected</text>
<text text-anchor="middle" x="1748" y="-455.2" font-family="Cascadia Code PL" font-size="11.00" fill="cyan">layer (anchor stays put);</text>
<text text-anchor="middle" x="1748" y="-443.2" font-family="Cascadia Code PL" font-size="11.00" fill="cyan">center/dist → bbox of selection.</text>
<text text-anchor="middle" x="1748" y="-431.2" font-family="Cascadia Code PL" font-size="11.00" fill="cyan">Single layer → canvas bounds</text>
</g>
<!-- L1 -->
<g id="node16" class="node">
<title>L1</title>
<ellipse fill="white" stroke="white" cx="2109" cy="-470" rx="0.36" ry="0.36"/>
</g>
<!-- L2 -->
<g id="node17" class="node">
<title>L2</title>
<ellipse fill="white" stroke="white" cx="2109" cy="-332" rx="0.36" ry="0.36"/>
</g>
<!-- L1&#45;&gt;L2 -->
<g id="edge13" class="edge">
<title>L1&#45;&gt;L2</title>
<path fill="none" stroke="#6699ff" d="M2109,-468.9C2109,-465.5 2109,-374.84 2109,-343.52"/>
<polygon fill="#6699ff" stroke="#6699ff" points="2112.5,-343.1 2109,-333.1 2105.5,-343.1 2112.5,-343.1"/>
<text text-anchor="middle" x="2145" y="-398.8" font-family="Cascadia Code PL" font-size="9.00" fill="#aaaaaa"> Align operation</text>
</g>
<!-- L3 -->
<g id="node18" class="node">
<title>L3</title>
<ellipse fill="white" stroke="white" cx="1992" cy="-470" rx="0.36" ry="0.36"/>
</g>
<!-- L4 -->
<g id="node19" class="node">
<title>L4</title>
<ellipse fill="white" stroke="white" cx="1992" cy="-332" rx="0.36" ry="0.36"/>
</g>
<!-- L3&#45;&gt;L4 -->
<g id="edge14" class="edge">
<title>L3&#45;&gt;L4</title>
<path fill="none" stroke="#cc66cc" d="M1992,-468.9C1992,-465.5 1992,-374.84 1992,-343.52"/>
<polygon fill="#cc66cc" stroke="#cc66cc" points="1995.5,-343.1 1992,-333.1 1988.5,-343.1 1995.5,-343.1"/>
<text text-anchor="middle" x="2039" y="-398.8" font-family="Cascadia Code PL" font-size="9.00" fill="#aaaaaa"> Distribute operation</text>
</g>
<!-- L5 -->
<g id="node20" class="node">
<title>L5</title>
<ellipse fill="white" stroke="white" cx="1904" cy="-470" rx="0.36" ry="0.36"/>
</g>
<!-- L6 -->
<g id="node21" class="node">
<title>L6</title>
<ellipse fill="white" stroke="white" cx="1904" cy="-332" rx="0.36" ry="0.36"/>
</g>
<!-- L5&#45;&gt;L6 -->
<g id="edge15" class="edge">
<title>L5&#45;&gt;L6</title>
<path fill="none" stroke="#cccc66" d="M1904,-468.9C1904,-465.5 1904,-374.84 1904,-343.52"/>
<polygon fill="#cccc66" stroke="#cccc66" points="1907.5,-343.1 1904,-333.1 1900.5,-343.1 1907.5,-343.1"/>
<text text-anchor="middle" x="1936.5" y="-398.8" font-family="Cascadia Code PL" font-size="9.00" fill="#aaaaaa"> Step / Record</text>
</g>
</g>
</svg>
