<?xml version="1.0" encoding="UTF-8" standalone="no"?>
<!DOCTYPE svg PUBLIC "-//W3C//DTD SVG 1.1//EN"
 "http://www.w3.org/Graphics/SVG/1.1/DTD/svg11.dtd">
<!-- Generated by graphviz version 2.42.4 (0)
 -->
<!-- Title: LAYER_ADD_DELETE Pages: 1 -->
<svg width="760pt" height="1116pt"
 viewBox="0.00 0.00 760.00 1116.36" xmlns="http://www.w3.org/2000/svg" xmlns:xlink="http://www.w3.org/1999/xlink">
<g id="graph0" class="graph" transform="scale(1 1) rotate(0) translate(4 1112.36)">
<title>LAYER_ADD_DELETE</title>
<text text-anchor="middle" x="376" y="-1085.16" font-family="Cascadia Code PL" font-size="24.00" fill="white">LAYER ADD / DUPLICATE / DELETE STATE MACHINE</text>
<g id="clust3" class="cluster">
<title>cluster_add</title>
<polygon fill="transparent" stroke="orange" stroke-dasharray="5,2" points="8,-110 8,-848 228,-848 228,-110 8,-110"/>
<text text-anchor="middle" x="62.5" y="-835.2" font-family="Cascadia Code PL" font-size="11.00" fill="white">ADD NEW LAYER</text>
</g>
<g id="clust4" class="cluster">
<title>cluster_duplicate</title>
<polygon fill="transparent" stroke="orange" stroke-dasharray="5,2" points="236,-242 236,-848 436,-848 436,-242 236,-242"/>
<text text-anchor="middle" x="293.5" y="-835.2" font-family="Cascadia Code PL" font-size="11.00" fill="white">DUPLICATE LAYER</text>
</g>
<g id="clust5" class="cluster">
<title>cluster_delete</title>
<polygon fill="transparent" stroke="orange" stroke-dasharray="5,2" points="444,-8 444,-860 672,-860 672,-8 444,-8"/>
<text text-anchor="middle" x="492" y="-847.2" font-family="Cascadia Code PL" font-size="11.00" fill="white">DELETE LAYER</text>
</g>
<g id="clust6" class="cluster">
<title>cluster_legend</title>
<polygon fill="transparent" stroke="white" stroke-dasharray="5,2" points="429,-931.64 429,-1066.36 744,-1066.36 744,-931.64 429,-931.64"/>
<text text-anchor="middle" x="459.5" y="-1053.56" font-family="Cascadia Code PL" font-size="11.00" fill="white">LEGEND</text>
</g>
<!-- MAIN -->
<g id="node1" class="node">
<title>MAIN</title>
<polygon fill="none" stroke="orange" stroke-width="2" points="390.5,-1056 387.5,-1060 366.5,-1060 363.5,-1056 281.5,-1056 281.5,-1020 390.5,-1020 390.5,-1056"/>
<text text-anchor="middle" x="336" y="-1041.6" font-family="Cascadia Code PL" font-size="13.00" fill="orange">LAYER</text>
<text text-anchor="middle" x="336" y="-1027.6" font-family="Cascadia Code PL" font-size="13.00" fill="orange">ADD / DELETE</text>
</g>
<!-- S_IDLE -->
<g id="node2" class="node">
<title>S_IDLE</title>
<polygon fill="none" stroke="white" points="421,-974 251,-974 251,-906 421,-906 421,-974"/>
<text text-anchor="middle" x="336" y="-961.2" font-family="Cascadia Code PL" font-size="11.00" fill="cyan">1 · IDLE</text>
<text text-anchor="middle" x="336" y="-949.2" font-family="Cascadia Code PL" font-size="11.00" fill="cyan">─────────────────</text>
<text text-anchor="middle" x="336" y="-937.2" font-family="Cascadia Code PL" font-size="11.00" fill="cyan">CURRENT_LAYER% = active</text>
<text text-anchor="middle" x="336" y="-925.2" font-family="Cascadia Code PL" font-size="11.00" fill="cyan">LAYERS(1..128) available</text>
<text text-anchor="middle" x="336" y="-913.2" font-family="Cascadia Code PL" font-size="11.00" fill="cyan">Layer panel showing</text>
</g>
<!-- MAIN&#45;&gt;S_IDLE -->
<g id="edge1" class="edge">
<title>MAIN&#45;&gt;S_IDLE</title>
<path fill="none" stroke="#555555" stroke-dasharray="1,5" d="M336,-1019.84C336,-1007.22 336,-989.67 336,-974.33"/>
</g>
<!-- ADD_TRIGGER -->
<g id="node3" class="node">
<title>ADD_TRIGGER</title>
<polygon fill="none" stroke="white" points="201.5,-820 70.5,-820 70.5,-740 201.5,-740 201.5,-820"/>
<text text-anchor="middle" x="136" y="-807.2" font-family="Cascadia Code PL" font-size="11.00" fill="cyan">Trigger (action 701)</text>
<text text-anchor="middle" x="136" y="-795.2" font-family="Cascadia Code PL" font-size="11.00" fill="cyan">─────────────────</text>
<text text-anchor="middle" x="136" y="-783.2" font-family="Cascadia Code PL" font-size="11.00" fill="cyan">Click + button</text>
<text text-anchor="middle" x="136" y="-771.2" font-family="Cascadia Code PL" font-size="11.00" fill="cyan">or Layer → New</text>
<text text-anchor="middle" x="136" y="-759.2" font-family="Cascadia Code PL" font-size="11.00" fill="cyan">or Ctrl+Shift+N</text>
<text text-anchor="middle" x="136" y="-747.2" font-family="Cascadia Code PL" font-size="11.00" fill="cyan">LAYERS_new%</text>
</g>
<!-- S_IDLE&#45;&gt;ADD_TRIGGER -->
<g id="edge15" class="edge">
<title>S_IDLE&#45;&gt;ADD_TRIGGER</title>
<path fill="none" stroke="#66cc66" d="M285.43,-905.74C277.16,-899.98 268.76,-893.93 261,-888 235.93,-868.84 209.21,-846.29 186.95,-826.84"/>
<polygon fill="#66cc66" stroke="#66cc66" points="189.09,-824.07 179.27,-820.1 184.48,-829.33 189.09,-824.07"/>
<text text-anchor="middle" x="296.5" y="-880.8" font-family="Cascadia Code PL" font-size="9.00" fill="#aaaaaa"> &#160;Add new layer</text>
<text text-anchor="middle" x="296.5" y="-870.8" font-family="Cascadia Code PL" font-size="9.00" fill="#aaaaaa"> &#160;command</text>
</g>
<!-- DUP_TRIGGER -->
<g id="node8" class="node">
<title>DUP_TRIGGER</title>
<polygon fill="none" stroke="white" points="401.5,-820 270.5,-820 270.5,-740 401.5,-740 401.5,-820"/>
<text text-anchor="middle" x="336" y="-807.2" font-family="Cascadia Code PL" font-size="11.00" fill="cyan">Trigger (action 707)</text>
<text text-anchor="middle" x="336" y="-795.2" font-family="Cascadia Code PL" font-size="11.00" fill="cyan">─────────────────</text>
<text text-anchor="middle" x="336" y="-783.2" font-family="Cascadia Code PL" font-size="11.00" fill="cyan">Layer → Duplicate</text>
<text text-anchor="middle" x="336" y="-771.2" font-family="Cascadia Code PL" font-size="11.00" fill="cyan">or Ctrl+Shift+D</text>
<text text-anchor="middle" x="336" y="-759.2" font-family="Cascadia Code PL" font-size="11.00" fill="cyan">LAYERS_duplicate</text>
<text text-anchor="middle" x="336" y="-747.2" font-family="Cascadia Code PL" font-size="11.00" fill="cyan">(multi&#45;select: each)</text>
</g>
<!-- S_IDLE&#45;&gt;DUP_TRIGGER -->
<g id="edge16" class="edge">
<title>S_IDLE&#45;&gt;DUP_TRIGGER</title>
<path fill="none" stroke="#66cc66" d="M336,-905.88C336,-884.02 336,-855 336,-830.44"/>
<polygon fill="#66cc66" stroke="#66cc66" points="339.5,-830.22 336,-820.22 332.5,-830.22 339.5,-830.22"/>
<text text-anchor="middle" x="373" y="-880.8" font-family="Cascadia Code PL" font-size="9.00" fill="#aaaaaa"> &#160;Duplicate layer</text>
<text text-anchor="middle" x="373" y="-870.8" font-family="Cascadia Code PL" font-size="9.00" fill="#aaaaaa"> &#160;command</text>
</g>
<!-- DEL_TRIGGER -->
<g id="node12" class="node">
<title>DEL_TRIGGER</title>
<polygon fill="none" stroke="white" points="626,-832 452,-832 452,-728 626,-728 626,-832"/>
<text text-anchor="middle" x="539" y="-819.2" font-family="Cascadia Code PL" font-size="11.00" fill="cyan">Trigger (action 702)</text>
<text text-anchor="middle" x="539" y="-807.2" font-family="Cascadia Code PL" font-size="11.00" fill="cyan">─────────────────</text>
<text text-anchor="middle" x="539" y="-795.2" font-family="Cascadia Code PL" font-size="11.00" fill="cyan">Click trash button</text>
<text text-anchor="middle" x="539" y="-783.2" font-family="Cascadia Code PL" font-size="11.00" fill="cyan">or Layer → Delete</text>
<text text-anchor="middle" x="539" y="-771.2" font-family="Cascadia Code PL" font-size="11.00" fill="cyan">or Ctrl+Shift+Del</text>
<text text-anchor="middle" x="539" y="-759.2" font-family="Cascadia Code PL" font-size="11.00" fill="cyan">LAYERS_delete (multi&#45;select:</text>
<text text-anchor="middle" x="539" y="-747.2" font-family="Cascadia Code PL" font-size="11.00" fill="cyan">all selected; group:</text>
<text text-anchor="middle" x="539" y="-735.2" font-family="Cascadia Code PL" font-size="11.00" fill="cyan">LAYERS_delete_group)</text>
</g>
<!-- S_IDLE&#45;&gt;DEL_TRIGGER -->
<g id="edge17" class="edge">
<title>S_IDLE&#45;&gt;DEL_TRIGGER</title>
<path fill="none" stroke="#cc6666" stroke-dasharray="5,2" d="M388.67,-905.89C397.26,-900.11 405.98,-894.02 414,-888 434.29,-872.78 455.53,-855.26 474.64,-838.85"/>
<polygon fill="#cc6666" stroke="#cc6666" points="477.12,-841.32 482.4,-832.14 472.55,-836.03 477.12,-841.32"/>
<text text-anchor="middle" x="468" y="-880.8" font-family="Cascadia Code PL" font-size="9.00" fill="#aaaaaa"> &#160;Delete layer</text>
<text text-anchor="middle" x="468" y="-870.8" font-family="Cascadia Code PL" font-size="9.00" fill="#aaaaaa"> &#160;command</text>
</g>
<!-- ADD_ALLOC -->
<g id="node4" class="node">
<title>ADD_ALLOC</title>
<polygon fill="none" stroke="white" points="220,-672 16,-672 16,-508 220,-508 220,-672"/>
<text text-anchor="middle" x="118" y="-659.2" font-family="Cascadia Code PL" font-size="11.00" fill="cyan">Allocate</text>
<text text-anchor="middle" x="118" y="-647.2" font-family="Cascadia Code PL" font-size="11.00" fill="cyan">─────────────────</text>
<text text-anchor="middle" x="118" y="-635.2" font-family="Cascadia Code PL" font-size="11.00" fill="cyan">Guard LAYER_COUNT% &lt;</text>
<text text-anchor="middle" x="118" y="-623.2" font-family="Cascadia Code PL" font-size="11.00" fill="cyan"> &#160;CFG.NUM_LAYERS%</text>
<text text-anchor="middle" x="118" y="-611.2" font-family="Cascadia Code PL" font-size="11.00" fill="cyan">Find free slot in</text>
<text text-anchor="middle" x="118" y="-599.2" font-family="Cascadia Code PL" font-size="11.00" fill="cyan">LAYERS(1..128)</text>
<text text-anchor="middle" x="118" y="-587.2" font-family="Cascadia Code PL" font-size="11.00" fill="cyan">_NEWIMAGE 32&#45;bit,</text>
<text text-anchor="middle" x="118" y="-575.2" font-family="Cascadia Code PL" font-size="11.00" fill="cyan">CLS _RGBA32(0,0,0,0)</text>
<text text-anchor="middle" x="118" y="-563.2" font-family="Cascadia Code PL" font-size="11.00" fill="cyan">Set defaults:</text>
<text text-anchor="middle" x="118" y="-551.2" font-family="Cascadia Code PL" font-size="11.00" fill="cyan">• name = &quot;Layer N&quot;</text>
<text text-anchor="middle" x="118" y="-539.2" font-family="Cascadia Code PL" font-size="11.00" fill="cyan">• visible% = TRUE</text>
<text text-anchor="middle" x="118" y="-527.2" font-family="Cascadia Code PL" font-size="11.00" fill="cyan">• opacity% = 255</text>
<text text-anchor="middle" x="118" y="-515.2" font-family="Cascadia Code PL" font-size="11.00" fill="cyan">• blendMode% = BLEND_NORMAL</text>
</g>
<!-- ADD_TRIGGER&#45;&gt;ADD_ALLOC -->
<g id="edge2" class="edge">
<title>ADD_TRIGGER&#45;&gt;ADD_ALLOC</title>
<path fill="none" stroke="#66cc66" d="M132.23,-739.59C130.62,-722.83 128.68,-702.52 126.75,-682.37"/>
<polygon fill="#66cc66" stroke="#66cc66" points="130.21,-681.81 125.77,-672.19 123.24,-682.48 130.21,-681.81"/>
<text text-anchor="middle" x="151.5" y="-697.8" font-family="Cascadia Code PL" font-size="9.00" fill="#aaaaaa"> &#160;Execute</text>
</g>
<!-- ADD_REORDER -->
<g id="node5" class="node">
<title>ADD_REORDER</title>
<polygon fill="none" stroke="white" points="195.5,-462 40.5,-462 40.5,-370 195.5,-370 195.5,-462"/>
<text text-anchor="middle" x="118" y="-449.2" font-family="Cascadia Code PL" font-size="11.00" fill="cyan">Z&#45;Order Update</text>
<text text-anchor="middle" x="118" y="-437.2" font-family="Cascadia Code PL" font-size="11.00" fill="cyan">─────────────────</text>
<text text-anchor="middle" x="118" y="-425.2" font-family="Cascadia Code PL" font-size="11.00" fill="cyan">Insert above current</text>
<text text-anchor="middle" x="118" y="-413.2" font-family="Cascadia Code PL" font-size="11.00" fill="cyan">newZ% = currentZ% + 1</text>
<text text-anchor="middle" x="118" y="-401.2" font-family="Cascadia Code PL" font-size="11.00" fill="cyan">Shift zIndex up for</text>
<text text-anchor="middle" x="118" y="-389.2" font-family="Cascadia Code PL" font-size="11.00" fill="cyan">layers above current</text>
<text text-anchor="middle" x="118" y="-377.2" font-family="Cascadia Code PL" font-size="11.00" fill="cyan">Inherit parentGroupIdx%</text>
</g>
<!-- ADD_ALLOC&#45;&gt;ADD_REORDER -->
<g id="edge3" class="edge">
<title>ADD_ALLOC&#45;&gt;ADD_REORDER</title>
<path fill="none" stroke="#66cc66" d="M118,-507.78C118,-495.8 118,-483.69 118,-472.39"/>
<polygon fill="#66cc66" stroke="#66cc66" points="121.5,-472.26 118,-462.26 114.5,-472.26 121.5,-472.26"/>
<text text-anchor="middle" x="144.5" y="-482.8" font-family="Cascadia Code PL" font-size="9.00" fill="#aaaaaa"> &#160;Slot found</text>
</g>
<!-- ADD_HISTORY -->
<g id="node6" class="node">
<title>ADD_HISTORY</title>
<polygon fill="none" stroke="white" points="216,-324 20,-324 20,-244 216,-244 216,-324"/>
<text text-anchor="middle" x="118" y="-311.2" font-family="Cascadia Code PL" font-size="11.00" fill="cyan">History Record</text>
<text text-anchor="middle" x="118" y="-299.2" font-family="Cascadia Code PL" font-size="11.00" fill="cyan">─────────────────</text>
<text text-anchor="middle" x="118" y="-287.2" font-family="Cascadia Code PL" font-size="11.00" fill="cyan">IF NOT HISTORY_IN_PROGRESS%</text>
<text text-anchor="middle" x="118" y="-275.2" font-family="Cascadia Code PL" font-size="11.00" fill="cyan">HISTORY_record_layer_add</text>
<text text-anchor="middle" x="118" y="-263.2" font-family="Cascadia Code PL" font-size="11.00" fill="cyan"> &#160;historyId&amp;, newIndex%,</text>
<text text-anchor="middle" x="118" y="-251.2" font-family="Cascadia Code PL" font-size="11.00" fill="cyan"> &#160;newZ%, &quot;Layer Add&quot;</text>
</g>
<!-- ADD_REORDER&#45;&gt;ADD_HISTORY -->
<g id="edge4" class="edge">
<title>ADD_REORDER&#45;&gt;ADD_HISTORY</title>
<path fill="none" stroke="#cccc66" d="M118,-369.9C118,-358.44 118,-346.07 118,-334.41"/>
<polygon fill="#cccc66" stroke="#cccc66" points="121.5,-334.39 118,-324.39 114.5,-334.39 121.5,-334.39"/>
<text text-anchor="middle" x="154.5" y="-344.8" font-family="Cascadia Code PL" font-size="9.00" fill="#aaaaaa"> &#160;Order updated</text>
</g>
<!-- ADD_DONE -->
<g id="node7" class="node">
<title>ADD_DONE</title>
<polygon fill="none" stroke="white" points="199.5,-198 36.5,-198 36.5,-118 199.5,-118 199.5,-198"/>
<text text-anchor="middle" x="118" y="-185.2" font-family="Cascadia Code PL" font-size="11.00" fill="cyan">Complete</text>
<text text-anchor="middle" x="118" y="-173.2" font-family="Cascadia Code PL" font-size="11.00" fill="cyan">─────────────────</text>
<text text-anchor="middle" x="118" y="-161.2" font-family="Cascadia Code PL" font-size="11.00" fill="cyan">LAYERS_select newIndex%</text>
<text text-anchor="middle" x="118" y="-149.2" font-family="Cascadia Code PL" font-size="11.00" fill="cyan">BLEND_invalidate_cache</text>
<text text-anchor="middle" x="118" y="-137.2" font-family="Cascadia Code PL" font-size="11.00" fill="cyan">INVALIDATE_scene</text>
<text text-anchor="middle" x="118" y="-125.2" font-family="Cascadia Code PL" font-size="11.00" fill="cyan">returns newIndex%</text>
</g>
<!-- ADD_HISTORY&#45;&gt;ADD_DONE -->
<g id="edge5" class="edge">
<title>ADD_HISTORY&#45;&gt;ADD_DONE</title>
<path fill="none" stroke="#cccc66" d="M118,-243.77C118,-232.57 118,-220.23 118,-208.5"/>
<polygon fill="#cccc66" stroke="#cccc66" points="121.5,-208.4 118,-198.4 114.5,-208.4 121.5,-208.4"/>
<text text-anchor="middle" x="135" y="-218.8" font-family="Cascadia Code PL" font-size="9.00" fill="#aaaaaa"> &#160;Saved</text>
</g>
<!-- DUP_COPY -->
<g id="node9" class="node">
<title>DUP_COPY</title>
<polygon fill="none" stroke="white" points="428,-630 244,-630 244,-550 428,-550 428,-630"/>
<text text-anchor="middle" x="336" y="-617.2" font-family="Cascadia Code PL" font-size="11.00" fill="cyan">Copy Pixels</text>
<text text-anchor="middle" x="336" y="-605.2" font-family="Cascadia Code PL" font-size="11.00" fill="cyan">─────────────────</text>
<text text-anchor="middle" x="336" y="-593.2" font-family="Cascadia Code PL" font-size="11.00" fill="cyan">_COPYIMAGE of source</text>
<text text-anchor="middle" x="336" y="-581.2" font-family="Cascadia Code PL" font-size="11.00" fill="cyan">Copy all properties:</text>
<text text-anchor="middle" x="336" y="-569.2" font-family="Cascadia Code PL" font-size="11.00" fill="cyan">name, opacity%, blendMode%</text>
<text text-anchor="middle" x="336" y="-557.2" font-family="Cascadia Code PL" font-size="11.00" fill="cyan">visible%, opacityLock%</text>
</g>
<!-- DUP_TRIGGER&#45;&gt;DUP_COPY -->
<g id="edge6" class="edge">
<title>DUP_TRIGGER&#45;&gt;DUP_COPY</title>
<path fill="none" stroke="#66cc66" d="M336,-739.59C336,-710.67 336,-671.19 336,-640.19"/>
<polygon fill="#66cc66" stroke="#66cc66" points="339.5,-640.04 336,-630.04 332.5,-640.04 339.5,-640.04"/>
<text text-anchor="middle" x="357.5" y="-697.8" font-family="Cascadia Code PL" font-size="9.00" fill="#aaaaaa"> &#160;Execute</text>
</g>
<!-- DUP_INSERT -->
<g id="node10" class="node">
<title>DUP_INSERT</title>
<polygon fill="none" stroke="white" points="406,-456 266,-456 266,-376 406,-376 406,-456"/>
<text text-anchor="middle" x="336" y="-443.2" font-family="Cascadia Code PL" font-size="11.00" fill="cyan">Insert Above</text>
<text text-anchor="middle" x="336" y="-431.2" font-family="Cascadia Code PL" font-size="11.00" fill="cyan">─────────────────</text>
<text text-anchor="middle" x="336" y="-419.2" font-family="Cascadia Code PL" font-size="11.00" fill="cyan">New layer inserted</text>
<text text-anchor="middle" x="336" y="-407.2" font-family="Cascadia Code PL" font-size="11.00" fill="cyan">above source layer</text>
<text text-anchor="middle" x="336" y="-395.2" font-family="Cascadia Code PL" font-size="11.00" fill="cyan">zIndex% = source + 1</text>
<text text-anchor="middle" x="336" y="-383.2" font-family="Cascadia Code PL" font-size="11.00" fill="cyan">Shift layers above</text>
</g>
<!-- DUP_COPY&#45;&gt;DUP_INSERT -->
<g id="edge7" class="edge">
<title>DUP_COPY&#45;&gt;DUP_INSERT</title>
<path fill="none" stroke="#66cc66" d="M336,-549.97C336,-525.21 336,-492.95 336,-466.41"/>
<polygon fill="#66cc66" stroke="#66cc66" points="339.5,-466.17 336,-456.17 332.5,-466.17 339.5,-466.17"/>
<text text-anchor="middle" x="368" y="-482.8" font-family="Cascadia Code PL" font-size="9.00" fill="#aaaaaa"> &#160;Pixels copied</text>
</g>
<!-- DUP_DONE -->
<g id="node11" class="node">
<title>DUP_DONE</title>
<polygon fill="none" stroke="white" points="417.5,-318 254.5,-318 254.5,-250 417.5,-250 417.5,-318"/>
<text text-anchor="middle" x="336" y="-305.2" font-family="Cascadia Code PL" font-size="11.00" fill="cyan">Complete</text>
<text text-anchor="middle" x="336" y="-293.2" font-family="Cascadia Code PL" font-size="11.00" fill="cyan">─────────────────</text>
<text text-anchor="middle" x="336" y="-281.2" font-family="Cascadia Code PL" font-size="11.00" fill="cyan">CURRENT_LAYER% = copy</text>
<text text-anchor="middle" x="336" y="-269.2" font-family="Cascadia Code PL" font-size="11.00" fill="cyan">HISTORY_record_layer_add</text>
<text text-anchor="middle" x="336" y="-257.2" font-family="Cascadia Code PL" font-size="11.00" fill="cyan">INVALIDATE_scene</text>
</g>
<!-- DUP_INSERT&#45;&gt;DUP_DONE -->
<g id="edge8" class="edge">
<title>DUP_INSERT&#45;&gt;DUP_DONE</title>
<path fill="none" stroke="#cccc66" d="M336,-376C336,-361.05 336,-343.9 336,-328.55"/>
<polygon fill="#cccc66" stroke="#cccc66" points="339.5,-328.26 336,-318.26 332.5,-328.26 339.5,-328.26"/>
<text text-anchor="middle" x="358" y="-344.8" font-family="Cascadia Code PL" font-size="9.00" fill="#aaaaaa"> &#160;Inserted</text>
</g>
<!-- DEL_CHECK -->
<g id="node13" class="node">
<title>DEL_CHECK</title>
<polygon fill="none" stroke="white" points="664,-630 452,-630 452,-550 664,-550 664,-630"/>
<text text-anchor="middle" x="558" y="-617.2" font-family="Cascadia Code PL" font-size="11.00" fill="cyan">Guard Check</text>
<text text-anchor="middle" x="558" y="-605.2" font-family="Cascadia Code PL" font-size="11.00" fill="cyan">─────────────────</text>
<text text-anchor="middle" x="558" y="-593.2" font-family="Cascadia Code PL" font-size="11.00" fill="cyan">Must have &gt; 1 layer</text>
<text text-anchor="middle" x="558" y="-581.2" font-family="Cascadia Code PL" font-size="11.00" fill="cyan">(CASE 702: IF LAYER_COUNT% &gt; 1)</text>
<text text-anchor="middle" x="558" y="-569.2" font-family="Cascadia Code PL" font-size="11.00" fill="cyan">Cannot delete last</text>
<text text-anchor="middle" x="558" y="-557.2" font-family="Cascadia Code PL" font-size="11.00" fill="cyan">remaining layer</text>
</g>
<!-- DEL_TRIGGER&#45;&gt;DEL_CHECK -->
<g id="edge9" class="edge">
<title>DEL_TRIGGER&#45;&gt;DEL_CHECK</title>
<path fill="none" stroke="#cc6666" stroke-dasharray="5,2" d="M516.76,-727.95C513.73,-715.59 512.43,-702.38 515,-690 518.54,-672.98 525.15,-655.3 532.16,-639.67"/>
<polygon fill="#cc6666" stroke="#cc6666" points="535.5,-640.77 536.54,-630.23 529.16,-637.82 535.5,-640.77"/>
<text text-anchor="middle" x="536.5" y="-697.8" font-family="Cascadia Code PL" font-size="9.00" fill="#aaaaaa"> &#160;Execute</text>
</g>
<!-- DEL_CHECK&#45;&gt;DEL_TRIGGER -->
<g id="edge11" class="edge">
<title>DEL_CHECK&#45;&gt;DEL_TRIGGER</title>
<path fill="none" stroke="#cc6666" stroke-dasharray="5,2" d="M560.63,-630.03C561.54,-653.35 561.58,-683.49 558,-710 557.66,-712.53 557.25,-715.1 556.78,-717.69"/>
<polygon fill="#cc6666" stroke="#cc6666" points="553.31,-717.2 554.75,-727.7 560.17,-718.59 553.31,-717.2"/>
<text text-anchor="middle" x="589.5" y="-702.8" font-family="Cascadia Code PL" font-size="9.00" fill="#aaaaaa"> &#160;Only 1 layer</text>
<text text-anchor="middle" x="589.5" y="-692.8" font-family="Cascadia Code PL" font-size="9.00" fill="#aaaaaa"> &#160;Abort</text>
</g>
<!-- DEL_SNAPSHOT -->
<g id="node14" class="node">
<title>DEL_SNAPSHOT</title>
<polygon fill="none" stroke="white" points="656,-456 460,-456 460,-376 656,-376 656,-456"/>
<text text-anchor="middle" x="558" y="-443.2" font-family="Cascadia Code PL" font-size="11.00" fill="cyan">Snapshot</text>
<text text-anchor="middle" x="558" y="-431.2" font-family="Cascadia Code PL" font-size="11.00" fill="cyan">─────────────────</text>
<text text-anchor="middle" x="558" y="-419.2" font-family="Cascadia Code PL" font-size="11.00" fill="cyan">IF NOT HISTORY_IN_PROGRESS%</text>
<text text-anchor="middle" x="558" y="-407.2" font-family="Cascadia Code PL" font-size="11.00" fill="cyan">HISTORY_record_layer_delete</text>
<text text-anchor="middle" x="558" y="-395.2" font-family="Cascadia Code PL" font-size="11.00" fill="cyan"> &#160;historyId&amp;, delSlot%,</text>
<text text-anchor="middle" x="558" y="-383.2" font-family="Cascadia Code PL" font-size="11.00" fill="cyan"> &#160;deletedZ%, &quot;Layer Delete&quot;</text>
</g>
<!-- DEL_CHECK&#45;&gt;DEL_SNAPSHOT -->
<g id="edge10" class="edge">
<title>DEL_CHECK&#45;&gt;DEL_SNAPSHOT</title>
<path fill="none" stroke="#cccc66" d="M558,-549.97C558,-525.21 558,-492.95 558,-466.41"/>
<polygon fill="#cccc66" stroke="#cccc66" points="561.5,-466.17 558,-456.17 554.5,-466.17 561.5,-466.17"/>
<text text-anchor="middle" x="582" y="-482.8" font-family="Cascadia Code PL" font-size="9.00" fill="#aaaaaa"> &#160;&gt; 1 layer</text>
</g>
<!-- DEL_FREE -->
<g id="node15" class="node">
<title>DEL_FREE</title>
<polygon fill="none" stroke="white" points="649,-324 467,-324 467,-244 649,-244 649,-324"/>
<text text-anchor="middle" x="558" y="-311.2" font-family="Cascadia Code PL" font-size="11.00" fill="cyan">Free Resources</text>
<text text-anchor="middle" x="558" y="-299.2" font-family="Cascadia Code PL" font-size="11.00" fill="cyan">─────────────────</text>
<text text-anchor="middle" x="558" y="-287.2" font-family="Cascadia Code PL" font-size="11.00" fill="cyan">SAFE_FREEIMAGE imgHandle&amp;</text>
<text text-anchor="middle" x="558" y="-275.2" font-family="Cascadia Code PL" font-size="11.00" fill="cyan">+ opacityCacheImg&amp;</text>
<text text-anchor="middle" x="558" y="-263.2" font-family="Cascadia Code PL" font-size="11.00" fill="cyan">+ apronCacheImg&amp;</text>
<text text-anchor="middle" x="558" y="-251.2" font-family="Cascadia Code PL" font-size="11.00" fill="cyan">Clear layer slot</text>
</g>
<!-- DEL_SNAPSHOT&#45;&gt;DEL_FREE -->
<g id="edge12" class="edge">
<title>DEL_SNAPSHOT&#45;&gt;DEL_FREE</title>
<path fill="none" stroke="#cc6666" stroke-dasharray="5,2" d="M558,-376C558,-363 558,-348.35 558,-334.66"/>
<polygon fill="#cc6666" stroke="#cc6666" points="561.5,-334.43 558,-324.43 554.5,-334.43 561.5,-334.43"/>
<text text-anchor="middle" x="575" y="-344.8" font-family="Cascadia Code PL" font-size="9.00" fill="#aaaaaa"> &#160;Saved</text>
</g>
<!-- DEL_REINDEX -->
<g id="node16" class="node">
<title>DEL_REINDEX</title>
<polygon fill="none" stroke="white" points="642,-198 474,-198 474,-118 642,-118 642,-198"/>
<text text-anchor="middle" x="558" y="-185.2" font-family="Cascadia Code PL" font-size="11.00" fill="cyan">Reindex</text>
<text text-anchor="middle" x="558" y="-173.2" font-family="Cascadia Code PL" font-size="11.00" fill="cyan">─────────────────</text>
<text text-anchor="middle" x="558" y="-161.2" font-family="Cascadia Code PL" font-size="11.00" fill="cyan">Shift zIndex% down</text>
<text text-anchor="middle" x="558" y="-149.2" font-family="Cascadia Code PL" font-size="11.00" fill="cyan">for layers above</text>
<text text-anchor="middle" x="558" y="-137.2" font-family="Cascadia Code PL" font-size="11.00" fill="cyan">LAYERS_select next valid</text>
<text text-anchor="middle" x="558" y="-125.2" font-family="Cascadia Code PL" font-size="11.00" fill="cyan">CURRENT_LAYER% updated</text>
</g>
<!-- DEL_FREE&#45;&gt;DEL_REINDEX -->
<g id="edge13" class="edge">
<title>DEL_FREE&#45;&gt;DEL_REINDEX</title>
<path fill="none" stroke="#cc6666" stroke-dasharray="5,2" d="M558,-243.77C558,-232.57 558,-220.23 558,-208.5"/>
<polygon fill="#cc6666" stroke="#cc6666" points="561.5,-208.4 558,-198.4 554.5,-208.4 561.5,-208.4"/>
<text text-anchor="middle" x="573.5" y="-218.8" font-family="Cascadia Code PL" font-size="9.00" fill="#aaaaaa"> &#160;Freed</text>
</g>
<!-- DEL_DONE -->
<g id="node17" class="node">
<title>DEL_DONE</title>
<polygon fill="none" stroke="white" points="633,-72 483,-72 483,-16 633,-16 633,-72"/>
<text text-anchor="middle" x="558" y="-59.2" font-family="Cascadia Code PL" font-size="11.00" fill="cyan">Complete</text>
<text text-anchor="middle" x="558" y="-47.2" font-family="Cascadia Code PL" font-size="11.00" fill="cyan">─────────────────</text>
<text text-anchor="middle" x="558" y="-35.2" font-family="Cascadia Code PL" font-size="11.00" fill="cyan">BLEND_invalidate_cache</text>
<text text-anchor="middle" x="558" y="-23.2" font-family="Cascadia Code PL" font-size="11.00" fill="cyan">INVALIDATE_scene</text>
</g>
<!-- DEL_REINDEX&#45;&gt;DEL_DONE -->
<g id="edge14" class="edge">
<title>DEL_REINDEX&#45;&gt;DEL_DONE</title>
<path fill="none" stroke="#cccc66" d="M558,-117.83C558,-106.24 558,-93.59 558,-82.13"/>
<polygon fill="#cccc66" stroke="#cccc66" points="561.5,-82 558,-72 554.5,-82.01 561.5,-82"/>
<text text-anchor="middle" x="573" y="-92.8" font-family="Cascadia Code PL" font-size="9.00" fill="#aaaaaa"> &#160;Done</text>
</g>
<!-- L1 -->
<g id="node18" class="node">
<title>L1</title>
<ellipse fill="white" stroke="white" cx="657" cy="-1038" rx="0.36" ry="0.36"/>
</g>
<!-- L2 -->
<g id="node19" class="node">
<title>L2</title>
<ellipse fill="white" stroke="white" cx="657" cy="-940" rx="0.36" ry="0.36"/>
</g>
<!-- L1&#45;&gt;L2 -->
<g id="edge18" class="edge">
<title>L1&#45;&gt;L2</title>
<path fill="none" stroke="#66cc66" d="M657,-1036.93C657,-1034.63 657,-975.78 657,-951.42"/>
<polygon fill="#66cc66" stroke="#66cc66" points="660.5,-951.07 657,-941.07 653.5,-951.07 660.5,-951.07"/>
<text text-anchor="middle" x="696.5" y="-994.8" font-family="Cascadia Code PL" font-size="9.00" fill="#aaaaaa"> Create / Activate</text>
</g>
<!-- L3 -->
<g id="node20" class="node">
<title>L3</title>
<ellipse fill="white" stroke="white" cx="557" cy="-1038" rx="0.36" ry="0.36"/>
</g>
<!-- L4 -->
<g id="node21" class="node">
<title>L4</title>
<ellipse fill="white" stroke="white" cx="557" cy="-940" rx="0.36" ry="0.36"/>
</g>
<!-- L3&#45;&gt;L4 -->
<g id="edge19" class="edge">
<title>L3&#45;&gt;L4</title>
<path fill="none" stroke="#cc6666" stroke-dasharray="5,2" d="M557,-1036.93C557,-1034.63 557,-975.78 557,-951.42"/>
<polygon fill="#cc6666" stroke="#cc6666" points="560.5,-951.07 557,-941.07 553.5,-951.07 560.5,-951.07"/>
<text text-anchor="middle" x="595.5" y="-994.8" font-family="Cascadia Code PL" font-size="9.00" fill="#aaaaaa"> Delete / Remove</text>
</g>
<!-- L5 -->
<g id="node22" class="node">
<title>L5</title>
<ellipse fill="white" stroke="white" cx="455" cy="-1038" rx="0.36" ry="0.36"/>
</g>
<!-- L6 -->
<g id="node23" class="node">
<title>L6</title>
<ellipse fill="white" stroke="white" cx="455" cy="-940" rx="0.36" ry="0.36"/>
</g>
<!-- L5&#45;&gt;L6 -->
<g id="edge20" class="edge">
<title>L5&#45;&gt;L6</title>
<path fill="none" stroke="#cccc66" d="M455,-1036.93C455,-1034.63 455,-975.78 455,-951.42"/>
<polygon fill="#cccc66" stroke="#cccc66" points="458.5,-951.07 455,-941.07 451.5,-951.07 458.5,-951.07"/>
<text text-anchor="middle" x="494.5" y="-994.8" font-family="Cascadia Code PL" font-size="9.00" fill="#aaaaaa"> Commit / Record</text>
</g>
</g>
</svg>
