<?xml version="1.0" encoding="UTF-8" standalone="no"?>
<!DOCTYPE svg PUBLIC "-//W3C//DTD SVG 1.1//EN"
 "http://www.w3.org/Graphics/SVG/1.1/DTD/svg11.dtd">
<!-- Generated by graphviz version 2.42.4 (0)
 -->
<!-- Title: LAYER_ADD_DELETE Pages: 1 -->
<svg width="663pt" height="1044pt"
 viewBox="0.00 0.00 663.00 1044.36" xmlns="http://www.w3.org/2000/svg" xmlns:xlink="http://www.w3.org/1999/xlink">
<g id="graph0" class="graph" transform="scale(1 1) rotate(0) translate(4 1040.36)">
<title>LAYER_ADD_DELETE</title>
<text text-anchor="middle" x="327.5" y="-1013.16" font-family="Cascadia Code PL" font-size="24.00" fill="white">LAYER ADD / DUPLICATE / DELETE STATE MACHINE</text>
<g id="clust3" class="cluster">
<title>cluster_add</title>
<polygon fill="transparent" stroke="orange" stroke-dasharray="5,2" points="8,-128 8,-788 186,-788 186,-128 8,-128"/>
<text text-anchor="middle" x="57.5" y="-775.2" font-family="Cascadia Code PL" font-size="11.00" fill="white">ADD NEW LAYER</text>
</g>
<g id="clust4" class="cluster">
<title>cluster_duplicate</title>
<polygon fill="transparent" stroke="orange" stroke-dasharray="5,2" points="194,-254 194,-782 366,-782 366,-254 194,-254"/>
<text text-anchor="middle" x="245.5" y="-769.2" font-family="Cascadia Code PL" font-size="11.00" fill="white">DUPLICATE LAYER</text>
</g>
<g id="clust5" class="cluster">
<title>cluster_delete</title>
<polygon fill="transparent" stroke="orange" stroke-dasharray="5,2" points="374,-8 374,-788 552,-788 552,-8 374,-8"/>
<text text-anchor="middle" x="416" y="-775.2" font-family="Cascadia Code PL" font-size="11.00" fill="white">DELETE LAYER</text>
</g>
<g id="clust6" class="cluster">
<title>cluster_legend</title>
<polygon fill="transparent" stroke="white" stroke-dasharray="5,2" points="362,-859.64 362,-994.36 647,-994.36 647,-859.64 362,-859.64"/>
<text text-anchor="middle" x="390" y="-981.56" font-family="Cascadia Code PL" font-size="11.00" fill="white">LEGEND</text>
</g>
<!-- MAIN -->
<g id="node1" class="node">
<title>MAIN</title>
<polygon fill="none" stroke="orange" stroke-width="2" points="329,-984 326,-988 305,-988 302,-984 231,-984 231,-948 329,-948 329,-984"/>
<text text-anchor="middle" x="280" y="-969.6" font-family="Cascadia Code PL" font-size="13.00" fill="orange">LAYER</text>
<text text-anchor="middle" x="280" y="-955.6" font-family="Cascadia Code PL" font-size="13.00" fill="orange">ADD / DELETE</text>
</g>
<!-- S_IDLE -->
<g id="node2" class="node">
<title>S_IDLE</title>
<polygon fill="none" stroke="white" points="354.5,-902 205.5,-902 205.5,-834 354.5,-834 354.5,-902"/>
<text text-anchor="middle" x="280" y="-889.2" font-family="Cascadia Code PL" font-size="11.00" fill="cyan">1 · IDLE</text>
<text text-anchor="middle" x="280" y="-877.2" font-family="Cascadia Code PL" font-size="11.00" fill="cyan">─────────────────</text>
<text text-anchor="middle" x="280" y="-865.2" font-family="Cascadia Code PL" font-size="11.00" fill="cyan">CURRENT_LAYER% = active</text>
<text text-anchor="middle" x="280" y="-853.2" font-family="Cascadia Code PL" font-size="11.00" fill="cyan">LAYERS(1..64) available</text>
<text text-anchor="middle" x="280" y="-841.2" font-family="Cascadia Code PL" font-size="11.00" fill="cyan">Layer panel showing</text>
</g>
<!-- MAIN&#45;&gt;S_IDLE -->
<g id="edge1" class="edge">
<title>MAIN&#45;&gt;S_IDLE</title>
<path fill="none" stroke="#555555" stroke-dasharray="1,5" d="M280,-947.84C280,-935.22 280,-917.67 280,-902.33"/>
</g>
<!-- ADD_TRIGGER -->
<g id="node3" class="node">
<title>ADD_TRIGGER</title>
<polygon fill="none" stroke="white" points="168,-760 46,-760 46,-692 168,-692 168,-760"/>
<text text-anchor="middle" x="107" y="-747.2" font-family="Cascadia Code PL" font-size="11.00" fill="cyan">Trigger</text>
<text text-anchor="middle" x="107" y="-735.2" font-family="Cascadia Code PL" font-size="11.00" fill="cyan">─────────────────</text>
<text text-anchor="middle" x="107" y="-723.2" font-family="Cascadia Code PL" font-size="11.00" fill="cyan">Click + button</text>
<text text-anchor="middle" x="107" y="-711.2" font-family="Cascadia Code PL" font-size="11.00" fill="cyan">or Layer → New Layer</text>
<text text-anchor="middle" x="107" y="-699.2" font-family="Cascadia Code PL" font-size="11.00" fill="cyan">or Ctrl+Shift+N</text>
</g>
<!-- S_IDLE&#45;&gt;ADD_TRIGGER -->
<g id="edge15" class="edge">
<title>S_IDLE&#45;&gt;ADD_TRIGGER</title>
<path fill="none" stroke="#66cc66" d="M237.58,-833.95C230.03,-828.01 222.27,-821.84 215,-816 195.12,-800.01 173.38,-782.17 154.65,-766.68"/>
<polygon fill="#66cc66" stroke="#66cc66" points="156.75,-763.88 146.82,-760.2 152.29,-769.27 156.75,-763.88"/>
<text text-anchor="middle" x="245.5" y="-808.8" font-family="Cascadia Code PL" font-size="9.00" fill="#aaaaaa"> &#160;Add new layer</text>
<text text-anchor="middle" x="245.5" y="-798.8" font-family="Cascadia Code PL" font-size="9.00" fill="#aaaaaa"> &#160;command</text>
</g>
<!-- DUP_TRIGGER -->
<g id="node8" class="node">
<title>DUP_TRIGGER</title>
<polygon fill="none" stroke="white" points="333,-754 227,-754 227,-698 333,-698 333,-754"/>
<text text-anchor="middle" x="280" y="-741.2" font-family="Cascadia Code PL" font-size="11.00" fill="cyan">Trigger</text>
<text text-anchor="middle" x="280" y="-729.2" font-family="Cascadia Code PL" font-size="11.00" fill="cyan">─────────────────</text>
<text text-anchor="middle" x="280" y="-717.2" font-family="Cascadia Code PL" font-size="11.00" fill="cyan">Layer → Duplicate</text>
<text text-anchor="middle" x="280" y="-705.2" font-family="Cascadia Code PL" font-size="11.00" fill="cyan">or Ctrl+J</text>
</g>
<!-- S_IDLE&#45;&gt;DUP_TRIGGER -->
<g id="edge16" class="edge">
<title>S_IDLE&#45;&gt;DUP_TRIGGER</title>
<path fill="none" stroke="#66cc66" d="M280,-833.82C280,-812.98 280,-786.04 280,-764.43"/>
<polygon fill="#66cc66" stroke="#66cc66" points="283.5,-764.3 280,-754.3 276.5,-764.3 283.5,-764.3"/>
<text text-anchor="middle" x="312" y="-808.8" font-family="Cascadia Code PL" font-size="9.00" fill="#aaaaaa"> &#160;Duplicate layer</text>
<text text-anchor="middle" x="312" y="-798.8" font-family="Cascadia Code PL" font-size="9.00" fill="#aaaaaa"> &#160;command</text>
</g>
<!-- DEL_TRIGGER -->
<g id="node12" class="node">
<title>DEL_TRIGGER</title>
<polygon fill="none" stroke="white" points="488,-760 382,-760 382,-692 488,-692 488,-760"/>
<text text-anchor="middle" x="435" y="-747.2" font-family="Cascadia Code PL" font-size="11.00" fill="cyan">Trigger</text>
<text text-anchor="middle" x="435" y="-735.2" font-family="Cascadia Code PL" font-size="11.00" fill="cyan">─────────────────</text>
<text text-anchor="middle" x="435" y="-723.2" font-family="Cascadia Code PL" font-size="11.00" fill="cyan">Click trash button</text>
<text text-anchor="middle" x="435" y="-711.2" font-family="Cascadia Code PL" font-size="11.00" fill="cyan">or Layer → Delete</text>
<text text-anchor="middle" x="435" y="-699.2" font-family="Cascadia Code PL" font-size="11.00" fill="cyan">or hotkey</text>
</g>
<!-- S_IDLE&#45;&gt;DEL_TRIGGER -->
<g id="edge17" class="edge">
<title>S_IDLE&#45;&gt;DEL_TRIGGER</title>
<path fill="none" stroke="#cc6666" stroke-dasharray="5,2" d="M326.12,-833.92C333.59,-828.14 341.12,-822.03 348,-816 365.03,-801.06 382.7,-783.43 397.64,-767.82"/>
<polygon fill="#cc6666" stroke="#cc6666" points="400.39,-770 404.73,-760.34 395.31,-765.18 400.39,-770"/>
<text text-anchor="middle" x="393.5" y="-808.8" font-family="Cascadia Code PL" font-size="9.00" fill="#aaaaaa"> &#160;Delete layer</text>
<text text-anchor="middle" x="393.5" y="-798.8" font-family="Cascadia Code PL" font-size="9.00" fill="#aaaaaa"> &#160;command</text>
</g>
<!-- ADD_ALLOC -->
<g id="node4" class="node">
<title>ADD_ALLOC</title>
<polygon fill="none" stroke="white" points="170,-636 38,-636 38,-508 170,-508 170,-636"/>
<text text-anchor="middle" x="104" y="-623.2" font-family="Cascadia Code PL" font-size="11.00" fill="cyan">Allocate</text>
<text text-anchor="middle" x="104" y="-611.2" font-family="Cascadia Code PL" font-size="11.00" fill="cyan">─────────────────</text>
<text text-anchor="middle" x="104" y="-599.2" font-family="Cascadia Code PL" font-size="11.00" fill="cyan">Find free slot in</text>
<text text-anchor="middle" x="104" y="-587.2" font-family="Cascadia Code PL" font-size="11.00" fill="cyan">LAYERS(1..64)</text>
<text text-anchor="middle" x="104" y="-575.2" font-family="Cascadia Code PL" font-size="11.00" fill="cyan">Create _NEWIMAGE</text>
<text text-anchor="middle" x="104" y="-563.2" font-family="Cascadia Code PL" font-size="11.00" fill="cyan">Set defaults:</text>
<text text-anchor="middle" x="104" y="-551.2" font-family="Cascadia Code PL" font-size="11.00" fill="cyan">• name = &quot;Layer N&quot;</text>
<text text-anchor="middle" x="104" y="-539.2" font-family="Cascadia Code PL" font-size="11.00" fill="cyan">• visible = TRUE</text>
<text text-anchor="middle" x="104" y="-527.2" font-family="Cascadia Code PL" font-size="11.00" fill="cyan">• opacity = 255</text>
<text text-anchor="middle" x="104" y="-515.2" font-family="Cascadia Code PL" font-size="11.00" fill="cyan">• blendMode = Normal</text>
</g>
<!-- ADD_TRIGGER&#45;&gt;ADD_ALLOC -->
<g id="edge2" class="edge">
<title>ADD_TRIGGER&#45;&gt;ADD_ALLOC</title>
<path fill="none" stroke="#66cc66" d="M106.34,-691.64C106.08,-678.31 105.76,-662.39 105.45,-646.6"/>
<polygon fill="#66cc66" stroke="#66cc66" points="108.95,-646.21 105.25,-636.28 101.95,-646.34 108.95,-646.21"/>
<text text-anchor="middle" x="122.5" y="-661.8" font-family="Cascadia Code PL" font-size="9.00" fill="#aaaaaa"> &#160;Execute</text>
</g>
<!-- ADD_REORDER -->
<g id="node5" class="node">
<title>ADD_REORDER</title>
<polygon fill="none" stroke="white" points="178,-462 16,-462 16,-382 178,-382 178,-462"/>
<text text-anchor="middle" x="97" y="-449.2" font-family="Cascadia Code PL" font-size="11.00" fill="cyan">Z&#45;Order Update</text>
<text text-anchor="middle" x="97" y="-437.2" font-family="Cascadia Code PL" font-size="11.00" fill="cyan">─────────────────</text>
<text text-anchor="middle" x="97" y="-425.2" font-family="Cascadia Code PL" font-size="11.00" fill="cyan">Insert above current</text>
<text text-anchor="middle" x="97" y="-413.2" font-family="Cascadia Code PL" font-size="11.00" fill="cyan">Shift zIndex for</text>
<text text-anchor="middle" x="97" y="-401.2" font-family="Cascadia Code PL" font-size="11.00" fill="cyan">layers above</text>
<text text-anchor="middle" x="97" y="-389.2" font-family="Cascadia Code PL" font-size="11.00" fill="cyan">RENDER_ORDER_DIRTY=TRUE</text>
</g>
<!-- ADD_ALLOC&#45;&gt;ADD_REORDER -->
<g id="edge3" class="edge">
<title>ADD_ALLOC&#45;&gt;ADD_REORDER</title>
<path fill="none" stroke="#66cc66" d="M101.01,-507.81C100.45,-495.9 99.87,-483.6 99.33,-472.2"/>
<polygon fill="#66cc66" stroke="#66cc66" points="102.81,-471.84 98.85,-462.01 95.82,-472.17 102.81,-471.84"/>
<text text-anchor="middle" x="123" y="-482.8" font-family="Cascadia Code PL" font-size="9.00" fill="#aaaaaa"> &#160;Slot found</text>
</g>
<!-- ADD_HISTORY -->
<g id="node6" class="node">
<title>ADD_HISTORY</title>
<polygon fill="none" stroke="white" points="153.5,-336 40.5,-336 40.5,-256 153.5,-256 153.5,-336"/>
<text text-anchor="middle" x="97" y="-323.2" font-family="Cascadia Code PL" font-size="11.00" fill="cyan">History Record</text>
<text text-anchor="middle" x="97" y="-311.2" font-family="Cascadia Code PL" font-size="11.00" fill="cyan">─────────────────</text>
<text text-anchor="middle" x="97" y="-299.2" font-family="Cascadia Code PL" font-size="11.00" fill="cyan">HISTORY_record</text>
<text text-anchor="middle" x="97" y="-287.2" font-family="Cascadia Code PL" font-size="11.00" fill="cyan"> &#160;kind = LAYER_ADD</text>
<text text-anchor="middle" x="97" y="-275.2" font-family="Cascadia Code PL" font-size="11.00" fill="cyan"> &#160;primaryLayerId</text>
<text text-anchor="middle" x="97" y="-263.2" font-family="Cascadia Code PL" font-size="11.00" fill="cyan"> &#160;img = snapshot</text>
</g>
<!-- ADD_REORDER&#45;&gt;ADD_HISTORY -->
<g id="edge4" class="edge">
<title>ADD_REORDER&#45;&gt;ADD_HISTORY</title>
<path fill="none" stroke="#cccc66" d="M97,-381.77C97,-370.57 97,-358.23 97,-346.5"/>
<polygon fill="#cccc66" stroke="#cccc66" points="100.5,-346.4 97,-336.4 93.5,-346.4 100.5,-346.4"/>
<text text-anchor="middle" x="128.5" y="-356.8" font-family="Cascadia Code PL" font-size="9.00" fill="#aaaaaa"> &#160;Order updated</text>
</g>
<!-- ADD_DONE -->
<g id="node7" class="node">
<title>ADD_DONE</title>
<polygon fill="none" stroke="white" points="164.5,-204 29.5,-204 29.5,-136 164.5,-136 164.5,-204"/>
<text text-anchor="middle" x="97" y="-191.2" font-family="Cascadia Code PL" font-size="11.00" fill="cyan">Complete</text>
<text text-anchor="middle" x="97" y="-179.2" font-family="Cascadia Code PL" font-size="11.00" fill="cyan">─────────────────</text>
<text text-anchor="middle" x="97" y="-167.2" font-family="Cascadia Code PL" font-size="11.00" fill="cyan">CURRENT_LAYER%=new</text>
<text text-anchor="middle" x="97" y="-155.2" font-family="Cascadia Code PL" font-size="11.00" fill="cyan">SCENE_DIRTY=TRUE</text>
<text text-anchor="middle" x="97" y="-143.2" font-family="Cascadia Code PL" font-size="11.00" fill="cyan">CANVAS_DIRTY=TRUE</text>
</g>
<!-- ADD_HISTORY&#45;&gt;ADD_DONE -->
<g id="edge5" class="edge">
<title>ADD_HISTORY&#45;&gt;ADD_DONE</title>
<path fill="none" stroke="#cccc66" d="M97,-255.77C97,-242.54 97,-227.7 97,-214.18"/>
<polygon fill="#cccc66" stroke="#cccc66" points="100.5,-214.15 97,-204.15 93.5,-214.15 100.5,-214.15"/>
<text text-anchor="middle" x="111" y="-230.8" font-family="Cascadia Code PL" font-size="9.00" fill="#aaaaaa"> &#160;Saved</text>
</g>
<!-- DUP_COPY -->
<g id="node9" class="node">
<title>DUP_COPY</title>
<polygon fill="none" stroke="white" points="344,-612 216,-612 216,-532 344,-532 344,-612"/>
<text text-anchor="middle" x="280" y="-599.2" font-family="Cascadia Code PL" font-size="11.00" fill="cyan">Copy Pixels</text>
<text text-anchor="middle" x="280" y="-587.2" font-family="Cascadia Code PL" font-size="11.00" fill="cyan">─────────────────</text>
<text text-anchor="middle" x="280" y="-575.2" font-family="Cascadia Code PL" font-size="11.00" fill="cyan">_COPYIMAGE of source</text>
<text text-anchor="middle" x="280" y="-563.2" font-family="Cascadia Code PL" font-size="11.00" fill="cyan">Copy all properties:</text>
<text text-anchor="middle" x="280" y="-551.2" font-family="Cascadia Code PL" font-size="11.00" fill="cyan">name, opacity, blend</text>
<text text-anchor="middle" x="280" y="-539.2" font-family="Cascadia Code PL" font-size="11.00" fill="cyan">visible, locked</text>
</g>
<!-- DUP_TRIGGER&#45;&gt;DUP_COPY -->
<g id="edge6" class="edge">
<title>DUP_TRIGGER&#45;&gt;DUP_COPY</title>
<path fill="none" stroke="#66cc66" d="M280,-697.83C280,-676.89 280,-647.37 280,-622.3"/>
<polygon fill="#66cc66" stroke="#66cc66" points="283.5,-622.22 280,-612.22 276.5,-622.22 283.5,-622.22"/>
<text text-anchor="middle" x="297.5" y="-661.8" font-family="Cascadia Code PL" font-size="9.00" fill="#aaaaaa"> &#160;Execute</text>
</g>
<!-- DUP_INSERT -->
<g id="node10" class="node">
<title>DUP_INSERT</title>
<polygon fill="none" stroke="white" points="337,-462 223,-462 223,-382 337,-382 337,-462"/>
<text text-anchor="middle" x="280" y="-449.2" font-family="Cascadia Code PL" font-size="11.00" fill="cyan">Insert Above</text>
<text text-anchor="middle" x="280" y="-437.2" font-family="Cascadia Code PL" font-size="11.00" fill="cyan">─────────────────</text>
<text text-anchor="middle" x="280" y="-425.2" font-family="Cascadia Code PL" font-size="11.00" fill="cyan">New layer inserted</text>
<text text-anchor="middle" x="280" y="-413.2" font-family="Cascadia Code PL" font-size="11.00" fill="cyan">above source layer</text>
<text text-anchor="middle" x="280" y="-401.2" font-family="Cascadia Code PL" font-size="11.00" fill="cyan">zIndex = source + 1</text>
<text text-anchor="middle" x="280" y="-389.2" font-family="Cascadia Code PL" font-size="11.00" fill="cyan">Shift layers above</text>
</g>
<!-- DUP_COPY&#45;&gt;DUP_INSERT -->
<g id="edge7" class="edge">
<title>DUP_COPY&#45;&gt;DUP_INSERT</title>
<path fill="none" stroke="#66cc66" d="M280,-531.73C280,-513.51 280,-491.65 280,-472.33"/>
<polygon fill="#66cc66" stroke="#66cc66" points="283.5,-472.2 280,-462.2 276.5,-472.2 283.5,-472.2"/>
<text text-anchor="middle" x="308" y="-482.8" font-family="Cascadia Code PL" font-size="9.00" fill="#aaaaaa"> &#160;Pixels copied</text>
</g>
<!-- DUP_DONE -->
<g id="node11" class="node">
<title>DUP_DONE</title>
<polygon fill="none" stroke="white" points="357.5,-330 202.5,-330 202.5,-262 357.5,-262 357.5,-330"/>
<text text-anchor="middle" x="280" y="-317.2" font-family="Cascadia Code PL" font-size="11.00" fill="cyan">Complete</text>
<text text-anchor="middle" x="280" y="-305.2" font-family="Cascadia Code PL" font-size="11.00" fill="cyan">─────────────────</text>
<text text-anchor="middle" x="280" y="-293.2" font-family="Cascadia Code PL" font-size="11.00" fill="cyan">CURRENT_LAYER%=copy</text>
<text text-anchor="middle" x="280" y="-281.2" font-family="Cascadia Code PL" font-size="11.00" fill="cyan">HISTORY_record LAYER_ADD</text>
<text text-anchor="middle" x="280" y="-269.2" font-family="Cascadia Code PL" font-size="11.00" fill="cyan">SCENE_DIRTY=TRUE</text>
</g>
<!-- DUP_INSERT&#45;&gt;DUP_DONE -->
<g id="edge8" class="edge">
<title>DUP_INSERT&#45;&gt;DUP_DONE</title>
<path fill="none" stroke="#cccc66" d="M280,-381.77C280,-368.54 280,-353.7 280,-340.18"/>
<polygon fill="#cccc66" stroke="#cccc66" points="283.5,-340.15 280,-330.15 276.5,-340.15 283.5,-340.15"/>
<text text-anchor="middle" x="298.5" y="-356.8" font-family="Cascadia Code PL" font-size="9.00" fill="#aaaaaa"> &#160;Inserted</text>
</g>
<!-- DEL_CHECK -->
<g id="node13" class="node">
<title>DEL_CHECK</title>
<polygon fill="none" stroke="white" points="519,-606 407,-606 407,-538 519,-538 519,-606"/>
<text text-anchor="middle" x="463" y="-593.2" font-family="Cascadia Code PL" font-size="11.00" fill="cyan">Guard Check</text>
<text text-anchor="middle" x="463" y="-581.2" font-family="Cascadia Code PL" font-size="11.00" fill="cyan">─────────────────</text>
<text text-anchor="middle" x="463" y="-569.2" font-family="Cascadia Code PL" font-size="11.00" fill="cyan">Must have &gt; 1 layer</text>
<text text-anchor="middle" x="463" y="-557.2" font-family="Cascadia Code PL" font-size="11.00" fill="cyan">Cannot delete last</text>
<text text-anchor="middle" x="463" y="-545.2" font-family="Cascadia Code PL" font-size="11.00" fill="cyan">remaining layer</text>
</g>
<!-- DEL_TRIGGER&#45;&gt;DEL_CHECK -->
<g id="edge9" class="edge">
<title>DEL_TRIGGER&#45;&gt;DEL_CHECK</title>
<path fill="none" stroke="#cc6666" stroke-dasharray="5,2" d="M421.69,-691.66C418.58,-679.73 416.96,-666.23 420,-654 423.31,-640.7 429.25,-627.19 435.69,-615.11"/>
<polygon fill="#cc6666" stroke="#cc6666" points="438.85,-616.62 440.67,-606.18 432.74,-613.21 438.85,-616.62"/>
<text text-anchor="middle" x="437.5" y="-661.8" font-family="Cascadia Code PL" font-size="9.00" fill="#aaaaaa"> &#160;Execute</text>
</g>
<!-- DEL_CHECK&#45;&gt;DEL_TRIGGER -->
<g id="edge11" class="edge">
<title>DEL_CHECK&#45;&gt;DEL_TRIGGER</title>
<path fill="none" stroke="#cc6666" stroke-dasharray="5,2" d="M462.82,-606.12C462.12,-626.02 460.13,-651.72 455,-674 454.36,-676.78 453.59,-679.61 452.74,-682.44"/>
<polygon fill="#cc6666" stroke="#cc6666" points="449.4,-681.38 449.57,-691.98 456.05,-683.59 449.4,-681.38"/>
<text text-anchor="middle" x="484" y="-666.8" font-family="Cascadia Code PL" font-size="9.00" fill="#aaaaaa"> &#160;Only 1 layer</text>
<text text-anchor="middle" x="484" y="-656.8" font-family="Cascadia Code PL" font-size="9.00" fill="#aaaaaa"> &#160;Abort</text>
</g>
<!-- DEL_SNAPSHOT -->
<g id="node14" class="node">
<title>DEL_SNAPSHOT</title>
<polygon fill="none" stroke="white" points="526,-462 400,-462 400,-382 526,-382 526,-462"/>
<text text-anchor="middle" x="463" y="-449.2" font-family="Cascadia Code PL" font-size="11.00" fill="cyan">Snapshot</text>
<text text-anchor="middle" x="463" y="-437.2" font-family="Cascadia Code PL" font-size="11.00" fill="cyan">─────────────────</text>
<text text-anchor="middle" x="463" y="-425.2" font-family="Cascadia Code PL" font-size="11.00" fill="cyan">HISTORY_record</text>
<text text-anchor="middle" x="463" y="-413.2" font-family="Cascadia Code PL" font-size="11.00" fill="cyan"> &#160;kind = LAYER_DELETE</text>
<text text-anchor="middle" x="463" y="-401.2" font-family="Cascadia Code PL" font-size="11.00" fill="cyan"> &#160;img = _COPYIMAGE</text>
<text text-anchor="middle" x="463" y="-389.2" font-family="Cascadia Code PL" font-size="11.00" fill="cyan"> &#160;Store properties</text>
</g>
<!-- DEL_CHECK&#45;&gt;DEL_SNAPSHOT -->
<g id="edge10" class="edge">
<title>DEL_CHECK&#45;&gt;DEL_SNAPSHOT</title>
<path fill="none" stroke="#cccc66" d="M463,-537.79C463,-518.52 463,-493.9 463,-472.4"/>
<polygon fill="#cccc66" stroke="#cccc66" points="466.5,-472.14 463,-462.14 459.5,-472.14 466.5,-472.14"/>
<text text-anchor="middle" x="482.5" y="-482.8" font-family="Cascadia Code PL" font-size="9.00" fill="#aaaaaa"> &#160;&gt; 1 layer</text>
</g>
<!-- DEL_FREE -->
<g id="node15" class="node">
<title>DEL_FREE</title>
<polygon fill="none" stroke="white" points="544,-330 382,-330 382,-262 544,-262 544,-330"/>
<text text-anchor="middle" x="463" y="-317.2" font-family="Cascadia Code PL" font-size="11.00" fill="cyan">Free Resources</text>
<text text-anchor="middle" x="463" y="-305.2" font-family="Cascadia Code PL" font-size="11.00" fill="cyan">─────────────────</text>
<text text-anchor="middle" x="463" y="-293.2" font-family="Cascadia Code PL" font-size="11.00" fill="cyan">_FREEIMAGE imgHandle&amp;</text>
<text text-anchor="middle" x="463" y="-281.2" font-family="Cascadia Code PL" font-size="11.00" fill="cyan">Clear layer slot</text>
<text text-anchor="middle" x="463" y="-269.2" font-family="Cascadia Code PL" font-size="11.00" fill="cyan">RENDER_ORDER_DIRTY=TRUE</text>
</g>
<!-- DEL_SNAPSHOT&#45;&gt;DEL_FREE -->
<g id="edge12" class="edge">
<title>DEL_SNAPSHOT&#45;&gt;DEL_FREE</title>
<path fill="none" stroke="#cc6666" stroke-dasharray="5,2" d="M463,-381.77C463,-368.54 463,-353.7 463,-340.18"/>
<polygon fill="#cc6666" stroke="#cc6666" points="466.5,-340.15 463,-330.15 459.5,-340.15 466.5,-340.15"/>
<text text-anchor="middle" x="477" y="-356.8" font-family="Cascadia Code PL" font-size="9.00" fill="#aaaaaa"> &#160;Saved</text>
</g>
<!-- DEL_REINDEX -->
<g id="node16" class="node">
<title>DEL_REINDEX</title>
<polygon fill="none" stroke="white" points="539,-210 387,-210 387,-130 539,-130 539,-210"/>
<text text-anchor="middle" x="463" y="-197.2" font-family="Cascadia Code PL" font-size="11.00" fill="cyan">Reindex</text>
<text text-anchor="middle" x="463" y="-185.2" font-family="Cascadia Code PL" font-size="11.00" fill="cyan">─────────────────</text>
<text text-anchor="middle" x="463" y="-173.2" font-family="Cascadia Code PL" font-size="11.00" fill="cyan">Shift zIndex values</text>
<text text-anchor="middle" x="463" y="-161.2" font-family="Cascadia Code PL" font-size="11.00" fill="cyan">for layers above</text>
<text text-anchor="middle" x="463" y="-149.2" font-family="Cascadia Code PL" font-size="11.00" fill="cyan">Select next valid layer</text>
<text text-anchor="middle" x="463" y="-137.2" font-family="Cascadia Code PL" font-size="11.00" fill="cyan">CURRENT_LAYER% updated</text>
</g>
<!-- DEL_FREE&#45;&gt;DEL_REINDEX -->
<g id="edge13" class="edge">
<title>DEL_FREE&#45;&gt;DEL_REINDEX</title>
<path fill="none" stroke="#cc6666" stroke-dasharray="5,2" d="M463,-261.77C463,-249.08 463,-234.32 463,-220.44"/>
<polygon fill="#cc6666" stroke="#cc6666" points="466.5,-220.05 463,-210.05 459.5,-220.05 466.5,-220.05"/>
<text text-anchor="middle" x="476.5" y="-230.8" font-family="Cascadia Code PL" font-size="9.00" fill="#aaaaaa"> &#160;Freed</text>
</g>
<!-- DEL_DONE -->
<g id="node17" class="node">
<title>DEL_DONE</title>
<polygon fill="none" stroke="white" points="529.5,-84 396.5,-84 396.5,-16 529.5,-16 529.5,-84"/>
<text text-anchor="middle" x="463" y="-71.2" font-family="Cascadia Code PL" font-size="11.00" fill="cyan">Complete</text>
<text text-anchor="middle" x="463" y="-59.2" font-family="Cascadia Code PL" font-size="11.00" fill="cyan">─────────────────</text>
<text text-anchor="middle" x="463" y="-47.2" font-family="Cascadia Code PL" font-size="11.00" fill="cyan">SCENE_DIRTY=TRUE</text>
<text text-anchor="middle" x="463" y="-35.2" font-family="Cascadia Code PL" font-size="11.00" fill="cyan">CANVAS_DIRTY=TRUE</text>
<text text-anchor="middle" x="463" y="-23.2" font-family="Cascadia Code PL" font-size="11.00" fill="cyan">BLEND_invalidate_cache</text>
</g>
<!-- DEL_REINDEX&#45;&gt;DEL_DONE -->
<g id="edge14" class="edge">
<title>DEL_REINDEX&#45;&gt;DEL_DONE</title>
<path fill="none" stroke="#cccc66" d="M463,-129.71C463,-118.42 463,-106.03 463,-94.5"/>
<polygon fill="#cccc66" stroke="#cccc66" points="466.5,-94.21 463,-84.21 459.5,-94.21 466.5,-94.21"/>
<text text-anchor="middle" x="476" y="-104.8" font-family="Cascadia Code PL" font-size="9.00" fill="#aaaaaa"> &#160;Done</text>
</g>
<!-- L1 -->
<g id="node18" class="node">
<title>L1</title>
<ellipse fill="white" stroke="white" cx="571" cy="-966" rx="0.36" ry="0.36"/>
</g>
<!-- L2 -->
<g id="node19" class="node">
<title>L2</title>
<ellipse fill="white" stroke="white" cx="571" cy="-868" rx="0.36" ry="0.36"/>
</g>
<!-- L1&#45;&gt;L2 -->
<g id="edge18" class="edge">
<title>L1&#45;&gt;L2</title>
<path fill="none" stroke="#66cc66" d="M571,-964.93C571,-962.63 571,-903.78 571,-879.42"/>
<polygon fill="#66cc66" stroke="#66cc66" points="574.5,-879.07 571,-869.07 567.5,-879.07 574.5,-879.07"/>
<text text-anchor="middle" x="605" y="-922.8" font-family="Cascadia Code PL" font-size="9.00" fill="#aaaaaa"> Create / Activate</text>
</g>
<!-- L3 -->
<g id="node20" class="node">
<title>L3</title>
<ellipse fill="white" stroke="white" cx="481" cy="-966" rx="0.36" ry="0.36"/>
</g>
<!-- L4 -->
<g id="node21" class="node">
<title>L4</title>
<ellipse fill="white" stroke="white" cx="481" cy="-868" rx="0.36" ry="0.36"/>
</g>
<!-- L3&#45;&gt;L4 -->
<g id="edge19" class="edge">
<title>L3&#45;&gt;L4</title>
<path fill="none" stroke="#cc6666" stroke-dasharray="5,2" d="M481,-964.93C481,-962.63 481,-903.78 481,-879.42"/>
<polygon fill="#cc6666" stroke="#cc6666" points="484.5,-879.07 481,-869.07 477.5,-879.07 484.5,-879.07"/>
<text text-anchor="middle" x="514.5" y="-922.8" font-family="Cascadia Code PL" font-size="9.00" fill="#aaaaaa"> Delete / Remove</text>
</g>
<!-- L5 -->
<g id="node22" class="node">
<title>L5</title>
<ellipse fill="white" stroke="white" cx="388" cy="-966" rx="0.36" ry="0.36"/>
</g>
<!-- L6 -->
<g id="node23" class="node">
<title>L6</title>
<ellipse fill="white" stroke="white" cx="388" cy="-868" rx="0.36" ry="0.36"/>
</g>
<!-- L5&#45;&gt;L6 -->
<g id="edge20" class="edge">
<title>L5&#45;&gt;L6</title>
<path fill="none" stroke="#cccc66" d="M388,-964.93C388,-962.63 388,-903.78 388,-879.42"/>
<polygon fill="#cccc66" stroke="#cccc66" points="391.5,-879.07 388,-869.07 384.5,-879.07 391.5,-879.07"/>
<text text-anchor="middle" x="423" y="-922.8" font-family="Cascadia Code PL" font-size="9.00" fill="#aaaaaa"> Commit / Record</text>
</g>
</g>
</svg>
