<?xml version="1.0" encoding="UTF-8" standalone="no"?>
<!DOCTYPE svg PUBLIC "-//W3C//DTD SVG 1.1//EN"
 "http://www.w3.org/Graphics/SVG/1.1/DTD/svg11.dtd">
<!-- Generated by graphviz version 2.42.4 (0)
 -->
<!-- Title: LAYER_SYMBOL Pages: 1 -->
<svg width="1189pt" height="659pt"
 viewBox="0.00 0.00 1188.50 659.00" xmlns="http://www.w3.org/2000/svg" xmlns:xlink="http://www.w3.org/1999/xlink">
<g id="graph0" class="graph" transform="scale(1 1) rotate(0) translate(4 655)">
<title>LAYER_SYMBOL</title>
<text text-anchor="middle" x="590.25" y="-627.8" font-family="Cascadia Code PL" font-size="24.00" fill="white">LAYER SYMBOL STATE MACHINE</text>
<g id="clust2" class="cluster">
<title>cluster_sync</title>
<polygon fill="transparent" stroke="orange" stroke-dasharray="5,2" points="418.5,-134.5 418.5,-603.5 574.5,-603.5 574.5,-134.5 418.5,-134.5"/>
<text text-anchor="middle" x="478" y="-590.7" font-family="Cascadia Code PL" font-size="11.00" fill="orange">SYNC PROPAGATION</text>
</g>
<g id="clust3" class="cluster">
<title>cluster_ops</title>
<polygon fill="transparent" stroke="orange" stroke-dasharray="5,2" points="582.5,-510 582.5,-609 984.5,-609 984.5,-510 582.5,-510"/>
<text text-anchor="middle" x="648.5" y="-596.2" font-family="Cascadia Code PL" font-size="11.00" fill="orange">ALLOWED OPERATIONS</text>
</g>
<g id="clust5" class="cluster">
<title>cluster_legend</title>
<polygon fill="transparent" stroke="white" stroke-dasharray="5,2" points="992.5,-429.64 992.5,-577.86 1172.5,-577.86 1172.5,-429.64 992.5,-429.64"/>
<text text-anchor="middle" x="1020.5" y="-565.06" font-family="Cascadia Code PL" font-size="11.00" fill="white">LEGEND</text>
</g>
<!-- MAIN -->
<g id="node1" class="node">
<title>MAIN</title>
<polygon fill="none" stroke="orange" stroke-width="2" points="257,-567.5 254,-571.5 233,-571.5 230,-567.5 90,-567.5 90,-531.5 257,-531.5 257,-567.5"/>
<text text-anchor="middle" x="173.5" y="-546.1" font-family="Cascadia Code PL" font-size="13.00" fill="orange">SYMBOL LAYER LIFECYCLE</text>
</g>
<!-- S_NORMAL -->
<g id="node2" class="node">
<title>S_NORMAL</title>
<polygon fill="none" stroke="white" points="239,-472 108,-472 108,-404 239,-404 239,-472"/>
<text text-anchor="middle" x="173.5" y="-459.2" font-family="Cascadia Code PL" font-size="11.00" fill="cyan">1 · NORMAL LAYER</text>
<text text-anchor="middle" x="173.5" y="-447.2" font-family="Cascadia Code PL" font-size="11.00" fill="cyan">─────────────────</text>
<text text-anchor="middle" x="173.5" y="-435.2" font-family="Cascadia Code PL" font-size="11.00" fill="cyan">LAYER_TYPE_RASTER</text>
<text text-anchor="middle" x="173.5" y="-423.2" font-family="Cascadia Code PL" font-size="11.00" fill="cyan">No symbol relationship</text>
<text text-anchor="middle" x="173.5" y="-411.2" font-family="Cascadia Code PL" font-size="11.00" fill="cyan">Standard pixel layer</text>
</g>
<!-- MAIN&#45;&gt;S_NORMAL -->
<g id="edge11" class="edge">
<title>MAIN&#45;&gt;S_NORMAL</title>
<path fill="none" stroke="#555555" stroke-dasharray="1,5" d="M173.5,-531.39C173.5,-515.63 173.5,-491.81 173.5,-472.3"/>
</g>
<!-- S_PARENT -->
<g id="node3" class="node">
<title>S_PARENT</title>
<polygon fill="none" stroke="white" points="255.5,-348 91.5,-348 91.5,-280 255.5,-280 255.5,-348"/>
<text text-anchor="middle" x="173.5" y="-335.2" font-family="Cascadia Code PL" font-size="11.00" fill="cyan">2 · SYMBOL PARENT</text>
<text text-anchor="middle" x="173.5" y="-323.2" font-family="Cascadia Code PL" font-size="11.00" fill="cyan">─────────────────</text>
<text text-anchor="middle" x="173.5" y="-311.2" font-family="Cascadia Code PL" font-size="11.00" fill="cyan">LAYER_TYPE_SYMBOL_PARENT</text>
<text text-anchor="middle" x="173.5" y="-299.2" font-family="Cascadia Code PL" font-size="11.00" fill="cyan">Source of truth</text>
<text text-anchor="middle" x="173.5" y="-287.2" font-family="Cascadia Code PL" font-size="11.00" fill="cyan">Edits propagate to children</text>
</g>
<!-- S_NORMAL&#45;&gt;S_PARENT -->
<g id="edge1" class="edge">
<title>S_NORMAL&#45;&gt;S_PARENT</title>
<path fill="none" stroke="#66cc66" d="M173.5,-403.99C173.5,-389.88 173.5,-373.23 173.5,-358.16"/>
<polygon fill="#66cc66" stroke="#66cc66" points="177,-358.04 173.5,-348.04 170,-358.04 177,-358.04"/>
<text text-anchor="middle" x="226.5" y="-378.8" font-family="Cascadia Code PL" font-size="9.00" fill="#aaaaaa"> &#160;Convert to Symbol Parent</text>
<text text-anchor="middle" x="226.5" y="-368.8" font-family="Cascadia Code PL" font-size="9.00" fill="#aaaaaa"> &#160;(Layer menu / context)</text>
</g>
<!-- S_CHILD -->
<g id="node4" class="node">
<title>S_CHILD</title>
<polygon fill="none" stroke="white" points="330,-214 175,-214 175,-134 330,-134 330,-214"/>
<text text-anchor="middle" x="252.5" y="-201.2" font-family="Cascadia Code PL" font-size="11.00" fill="cyan">3 · SYMBOL CHILD</text>
<text text-anchor="middle" x="252.5" y="-189.2" font-family="Cascadia Code PL" font-size="11.00" fill="cyan">─────────────────</text>
<text text-anchor="middle" x="252.5" y="-177.2" font-family="Cascadia Code PL" font-size="11.00" fill="cyan">LAYER_TYPE_SYMBOL_CHILD</text>
<text text-anchor="middle" x="252.5" y="-165.2" font-family="Cascadia Code PL" font-size="11.00" fill="cyan">symbolParentIdx points</text>
<text text-anchor="middle" x="252.5" y="-153.2" font-family="Cascadia Code PL" font-size="11.00" fill="cyan">to parent layer</text>
<text text-anchor="middle" x="252.5" y="-141.2" font-family="Cascadia Code PL" font-size="11.00" fill="cyan">Auto&#45;syncs on parent edit</text>
</g>
<!-- S_PARENT&#45;&gt;S_CHILD -->
<g id="edge2" class="edge">
<title>S_PARENT&#45;&gt;S_CHILD</title>
<path fill="none" stroke="#66cc66" d="M192.42,-279.95C202.2,-262.87 214.3,-241.73 225.08,-222.9"/>
<polygon fill="#66cc66" stroke="#66cc66" points="228.15,-224.58 230.08,-214.16 222.08,-221.1 228.15,-224.58"/>
<text text-anchor="middle" x="261" y="-254.8" font-family="Cascadia Code PL" font-size="9.00" fill="#aaaaaa"> &#160;Place Instance</text>
<text text-anchor="middle" x="261" y="-244.8" font-family="Cascadia Code PL" font-size="9.00" fill="#aaaaaa"> &#160;Creates child layer</text>
<text text-anchor="middle" x="261" y="-234.8" font-family="Cascadia Code PL" font-size="9.00" fill="#aaaaaa"> &#160;symbolParentIdx set</text>
</g>
<!-- S_RASTERIZED -->
<g id="node6" class="node">
<title>S_RASTERIZED</title>
<polygon fill="none" stroke="white" points="135,-68 0,-68 0,0 135,0 135,-68"/>
<text text-anchor="middle" x="67.5" y="-55.2" font-family="Cascadia Code PL" font-size="11.00" fill="cyan">5 · RASTERIZED</text>
<text text-anchor="middle" x="67.5" y="-43.2" font-family="Cascadia Code PL" font-size="11.00" fill="cyan">─────────────────</text>
<text text-anchor="middle" x="67.5" y="-31.2" font-family="Cascadia Code PL" font-size="11.00" fill="cyan">Parent or child flattened</text>
<text text-anchor="middle" x="67.5" y="-19.2" font-family="Cascadia Code PL" font-size="11.00" fill="cyan">Symbol bond broken</text>
<text text-anchor="middle" x="67.5" y="-7.2" font-family="Cascadia Code PL" font-size="11.00" fill="cyan">Pure raster layer</text>
</g>
<!-- S_PARENT&#45;&gt;S_RASTERIZED -->
<g id="edge5" class="edge">
<title>S_PARENT&#45;&gt;S_RASTERIZED</title>
<path fill="none" stroke="#cccc66" d="M128.75,-279.94C109.02,-262.68 87.79,-239.79 76.5,-214 57.56,-170.75 57.91,-115.89 61.34,-78.37"/>
<polygon fill="#cccc66" stroke="#cccc66" points="64.84,-78.58 62.37,-68.27 57.87,-77.86 64.84,-78.58"/>
<text text-anchor="middle" x="121" y="-176.8" font-family="Cascadia Code PL" font-size="9.00" fill="#aaaaaa"> &#160;Rasterize parent</text>
<text text-anchor="middle" x="121" y="-166.8" font-family="Cascadia Code PL" font-size="9.00" fill="#aaaaaa"> &#160;All children detached</text>
</g>
<!-- S_DETACHED -->
<g id="node5" class="node">
<title>S_DETACHED</title>
<polygon fill="none" stroke="white" points="380,-68 231,-68 231,0 380,0 380,-68"/>
<text text-anchor="middle" x="305.5" y="-55.2" font-family="Cascadia Code PL" font-size="11.00" fill="cyan">4 · DETACHED</text>
<text text-anchor="middle" x="305.5" y="-43.2" font-family="Cascadia Code PL" font-size="11.00" fill="cyan">─────────────────</text>
<text text-anchor="middle" x="305.5" y="-31.2" font-family="Cascadia Code PL" font-size="11.00" fill="cyan">Child → Normal</text>
<text text-anchor="middle" x="305.5" y="-19.2" font-family="Cascadia Code PL" font-size="11.00" fill="cyan">Link severed</text>
<text text-anchor="middle" x="305.5" y="-7.2" font-family="Cascadia Code PL" font-size="11.00" fill="cyan">Independent edits allowed</text>
</g>
<!-- S_CHILD&#45;&gt;S_DETACHED -->
<g id="edge3" class="edge">
<title>S_CHILD&#45;&gt;S_DETACHED</title>
<path fill="none" stroke="#cccc66" d="M247.28,-134C246.75,-118.5 248.14,-100.86 254.5,-86 255.9,-82.74 257.61,-79.57 259.55,-76.52"/>
<polygon fill="#cccc66" stroke="#cccc66" points="262.52,-78.39 265.56,-68.24 256.85,-74.28 262.52,-78.39"/>
<text text-anchor="middle" x="299.5" y="-108.8" font-family="Cascadia Code PL" font-size="9.00" fill="#aaaaaa"> &#160;Detach Symbol</text>
<text text-anchor="middle" x="299.5" y="-98.8" font-family="Cascadia Code PL" font-size="9.00" fill="#aaaaaa"> &#160;Type → RASTER</text>
<text text-anchor="middle" x="299.5" y="-88.8" font-family="Cascadia Code PL" font-size="9.00" fill="#aaaaaa"> &#160;symbolParentIdx = &#45;1</text>
</g>
<!-- S_CHILD&#45;&gt;S_RASTERIZED -->
<g id="edge6" class="edge">
<title>S_CHILD&#45;&gt;S_RASTERIZED</title>
<path fill="none" stroke="#cccc66" d="M175.13,-133.84C165.9,-128.23 156.82,-122.24 148.5,-116 132.79,-104.22 117.15,-89.48 103.87,-75.82"/>
<polygon fill="#cccc66" stroke="#cccc66" points="106.18,-73.17 96.74,-68.36 101.12,-78.01 106.18,-73.17"/>
<text text-anchor="middle" x="196.5" y="-103.8" font-family="Cascadia Code PL" font-size="9.00" fill="#aaaaaa"> &#160;Rasterize child</text>
<text text-anchor="middle" x="196.5" y="-93.8" font-family="Cascadia Code PL" font-size="9.00" fill="#aaaaaa"> &#160;Bake current sync state</text>
</g>
<!-- S_DETACHED&#45;&gt;S_NORMAL -->
<g id="edge4" class="edge">
<title>S_DETACHED&#45;&gt;S_NORMAL</title>
<path fill="none" stroke="#cc6666" stroke-dasharray="5,2" d="M335.49,-68.06C339.18,-73.7 342.39,-79.77 344.5,-86 348.78,-98.63 344.91,-102.67 344.5,-116 340.74,-238.97 364.9,-293.76 283.5,-386 273.82,-396.96 261.3,-405.73 248.18,-412.69"/>
<polygon fill="#cc6666" stroke="#cc6666" points="246.44,-409.65 239.04,-417.22 249.55,-415.92 246.44,-409.65"/>
<text text-anchor="middle" x="371.5" y="-244.8" font-family="Cascadia Code PL" font-size="9.00" fill="#aaaaaa"> &#160;(immediate)</text>
</g>
<!-- S_RASTERIZED&#45;&gt;S_NORMAL -->
<g id="edge7" class="edge">
<title>S_RASTERIZED&#45;&gt;S_NORMAL</title>
<path fill="none" stroke="#cc6666" stroke-dasharray="5,2" d="M53.24,-68.2C36.05,-112.86 11.68,-194.5 30.5,-262 45.64,-316.29 88.81,-364.75 123.78,-396.83"/>
<polygon fill="#cc6666" stroke="#cc6666" points="121.79,-399.74 131.56,-403.82 126.47,-394.53 121.79,-399.74"/>
<text text-anchor="middle" x="56.5" y="-244.8" font-family="Cascadia Code PL" font-size="9.00" fill="#aaaaaa"> &#160;(immediate)</text>
</g>
<!-- SY1 -->
<g id="node7" class="node">
<title>SY1</title>
<polygon fill="none" stroke="white" points="554.5,-575.5 438.5,-575.5 438.5,-523.5 554.5,-523.5 554.5,-575.5"/>
<text text-anchor="middle" x="496.5" y="-563.5" font-family="Cascadia Code PL" font-size="10.00" fill="cyan">Parent Edit Detected</text>
<text text-anchor="middle" x="496.5" y="-552.5" font-family="Cascadia Code PL" font-size="10.00" fill="cyan">────────────</text>
<text text-anchor="middle" x="496.5" y="-541.5" font-family="Cascadia Code PL" font-size="10.00" fill="cyan">contentDirty% = TRUE</text>
<text text-anchor="middle" x="496.5" y="-530.5" font-family="Cascadia Code PL" font-size="10.00" fill="cyan">on parent layer</text>
</g>
<!-- SY2 -->
<g id="node8" class="node">
<title>SY2</title>
<polygon fill="none" stroke="white" points="566.5,-469.5 426.5,-469.5 426.5,-406.5 566.5,-406.5 566.5,-469.5"/>
<text text-anchor="middle" x="496.5" y="-457.5" font-family="Cascadia Code PL" font-size="10.00" fill="cyan">Find Children</text>
<text text-anchor="middle" x="496.5" y="-446.5" font-family="Cascadia Code PL" font-size="10.00" fill="cyan">────────────</text>
<text text-anchor="middle" x="496.5" y="-435.5" font-family="Cascadia Code PL" font-size="10.00" fill="cyan">Scan layers for</text>
<text text-anchor="middle" x="496.5" y="-424.5" font-family="Cascadia Code PL" font-size="10.00" fill="cyan">symbolParentIdx == parent</text>
<text text-anchor="middle" x="496.5" y="-413.5" font-family="Cascadia Code PL" font-size="10.00" fill="cyan">Build child list</text>
</g>
<!-- SY1&#45;&gt;SY2 -->
<g id="edge8" class="edge">
<title>SY1&#45;&gt;SY2</title>
<path fill="none" stroke="#88aacc" d="M496.5,-523.38C496.5,-510.57 496.5,-494.68 496.5,-480.15"/>
<polygon fill="#88aacc" stroke="#88aacc" points="500,-479.87 496.5,-469.87 493,-479.87 500,-479.87"/>
</g>
<!-- SY3 -->
<g id="node9" class="node">
<title>SY3</title>
<polygon fill="none" stroke="white" points="555.5,-345.5 437.5,-345.5 437.5,-282.5 555.5,-282.5 555.5,-345.5"/>
<text text-anchor="middle" x="496.5" y="-333.5" font-family="Cascadia Code PL" font-size="10.00" fill="cyan">Replicate Pixels</text>
<text text-anchor="middle" x="496.5" y="-322.5" font-family="Cascadia Code PL" font-size="10.00" fill="cyan">────────────</text>
<text text-anchor="middle" x="496.5" y="-311.5" font-family="Cascadia Code PL" font-size="10.00" fill="cyan">Copy parent image</text>
<text text-anchor="middle" x="496.5" y="-300.5" font-family="Cascadia Code PL" font-size="10.00" fill="cyan">Apply child transforms</text>
<text text-anchor="middle" x="496.5" y="-289.5" font-family="Cascadia Code PL" font-size="10.00" fill="cyan">(scale, position)</text>
</g>
<!-- SY2&#45;&gt;SY3 -->
<g id="edge9" class="edge">
<title>SY2&#45;&gt;SY3</title>
<path fill="none" stroke="#88aacc" d="M496.5,-406.21C496.5,-391.04 496.5,-372.54 496.5,-356.17"/>
<polygon fill="#88aacc" stroke="#88aacc" points="500,-355.78 496.5,-345.78 493,-355.78 500,-355.78"/>
</g>
<!-- SY4 -->
<g id="node10" class="node">
<title>SY4</title>
<polygon fill="none" stroke="white" points="558,-205.5 435,-205.5 435,-142.5 558,-142.5 558,-205.5"/>
<text text-anchor="middle" x="496.5" y="-193.5" font-family="Cascadia Code PL" font-size="10.00" fill="cyan">Mark Children Dirty</text>
<text text-anchor="middle" x="496.5" y="-182.5" font-family="Cascadia Code PL" font-size="10.00" fill="cyan">────────────</text>
<text text-anchor="middle" x="496.5" y="-171.5" font-family="Cascadia Code PL" font-size="10.00" fill="cyan">Each child</text>
<text text-anchor="middle" x="496.5" y="-160.5" font-family="Cascadia Code PL" font-size="10.00" fill="cyan">contentDirty% = TRUE</text>
<text text-anchor="middle" x="496.5" y="-149.5" font-family="Cascadia Code PL" font-size="10.00" fill="cyan">BLEND_invalidate_cache</text>
</g>
<!-- SY3&#45;&gt;SY4 -->
<g id="edge10" class="edge">
<title>SY3&#45;&gt;SY4</title>
<path fill="none" stroke="#88aacc" d="M496.5,-282.37C496.5,-262.72 496.5,-236.98 496.5,-215.62"/>
<polygon fill="#88aacc" stroke="#88aacc" points="500,-215.54 496.5,-205.54 493,-215.54 500,-215.54"/>
</g>
<!-- O_PARENT -->
<g id="node11" class="node">
<title>O_PARENT</title>
<polygon fill="none" stroke="white" points="976,-575.5 859,-575.5 859,-523.5 976,-523.5 976,-575.5"/>
<text text-anchor="middle" x="917.5" y="-563.5" font-family="Cascadia Code PL" font-size="10.00" fill="cyan">On Parent</text>
<text text-anchor="middle" x="917.5" y="-552.5" font-family="Cascadia Code PL" font-size="10.00" fill="cyan">────────────</text>
<text text-anchor="middle" x="917.5" y="-541.5" font-family="Cascadia Code PL" font-size="10.00" fill="cyan">Draw, paint, transform</text>
<text text-anchor="middle" x="917.5" y="-530.5" font-family="Cascadia Code PL" font-size="10.00" fill="cyan">All children update</text>
</g>
<!-- O_CHILD_OK -->
<g id="node12" class="node">
<title>O_CHILD_OK</title>
<polygon fill="none" stroke="white" points="840.5,-575.5 720.5,-575.5 720.5,-523.5 840.5,-523.5 840.5,-575.5"/>
<text text-anchor="middle" x="780.5" y="-563.5" font-family="Cascadia Code PL" font-size="10.00" fill="cyan">Child: Position/Scale</text>
<text text-anchor="middle" x="780.5" y="-552.5" font-family="Cascadia Code PL" font-size="10.00" fill="cyan">────────────</text>
<text text-anchor="middle" x="780.5" y="-541.5" font-family="Cascadia Code PL" font-size="10.00" fill="cyan">Move tool, transform</text>
<text text-anchor="middle" x="780.5" y="-530.5" font-family="Cascadia Code PL" font-size="10.00" fill="cyan">Independent of parent</text>
</g>
<!-- O_CHILD_NO -->
<g id="node13" class="node">
<title>O_CHILD_NO</title>
<polygon fill="none" stroke="white" points="702.5,-581 590.5,-581 590.5,-518 702.5,-518 702.5,-581"/>
<text text-anchor="middle" x="646.5" y="-569" font-family="Cascadia Code PL" font-size="10.00" fill="cyan">Child: Paint Locked</text>
<text text-anchor="middle" x="646.5" y="-558" font-family="Cascadia Code PL" font-size="10.00" fill="cyan">────────────</text>
<text text-anchor="middle" x="646.5" y="-547" font-family="Cascadia Code PL" font-size="10.00" fill="cyan">Direct pixel edits</text>
<text text-anchor="middle" x="646.5" y="-536" font-family="Cascadia Code PL" font-size="10.00" fill="cyan">blocked or warned</text>
<text text-anchor="middle" x="646.5" y="-525" font-family="Cascadia Code PL" font-size="10.00" fill="cyan">Must detach to paint</text>
</g>
<!-- L1 -->
<g id="node14" class="node">
<title>L1</title>
<ellipse fill="white" stroke="white" cx="1130.5" cy="-549.5" rx="0.36" ry="0.36"/>
</g>
<!-- L2 -->
<g id="node15" class="node">
<title>L2</title>
<ellipse fill="white" stroke="white" cx="1130.5" cy="-438" rx="0.36" ry="0.36"/>
</g>
<!-- L1&#45;&gt;L2 -->
<g id="edge12" class="edge">
<title>L1&#45;&gt;L2</title>
<path fill="none" stroke="#66cc66" d="M1130.5,-548.42C1130.5,-545.74 1130.5,-476.04 1130.5,-449.31"/>
<polygon fill="#66cc66" stroke="#66cc66" points="1134,-449.08 1130.5,-439.08 1127,-449.08 1134,-449.08"/>
<text text-anchor="middle" x="1147.5" y="-492.8" font-family="Cascadia Code PL" font-size="9.00" fill="#aaaaaa"> Convert</text>
</g>
<!-- L3 -->
<g id="node16" class="node">
<title>L3</title>
<ellipse fill="white" stroke="white" cx="1083.5" cy="-549.5" rx="0.36" ry="0.36"/>
</g>
<!-- L4 -->
<g id="node17" class="node">
<title>L4</title>
<ellipse fill="white" stroke="white" cx="1083.5" cy="-438" rx="0.36" ry="0.36"/>
</g>
<!-- L3&#45;&gt;L4 -->
<g id="edge13" class="edge">
<title>L3&#45;&gt;L4</title>
<path fill="none" stroke="#cc6666" stroke-dasharray="5,2" d="M1083.5,-548.42C1083.5,-545.74 1083.5,-476.04 1083.5,-449.31"/>
<polygon fill="#cc6666" stroke="#cc6666" points="1087,-449.08 1083.5,-439.08 1080,-449.08 1087,-449.08"/>
<text text-anchor="middle" x="1095.5" y="-492.8" font-family="Cascadia Code PL" font-size="9.00" fill="#aaaaaa"> Reset</text>
</g>
<!-- L5 -->
<g id="node18" class="node">
<title>L5</title>
<ellipse fill="white" stroke="white" cx="1018.5" cy="-549.5" rx="0.36" ry="0.36"/>
</g>
<!-- L6 -->
<g id="node19" class="node">
<title>L6</title>
<ellipse fill="white" stroke="white" cx="1018.5" cy="-438" rx="0.36" ry="0.36"/>
</g>
<!-- L5&#45;&gt;L6 -->
<g id="edge14" class="edge">
<title>L5&#45;&gt;L6</title>
<path fill="none" stroke="#cccc66" d="M1018.5,-548.42C1018.5,-545.74 1018.5,-476.04 1018.5,-449.31"/>
<polygon fill="#cccc66" stroke="#cccc66" points="1022,-449.08 1018.5,-439.08 1015,-449.08 1022,-449.08"/>
<text text-anchor="middle" x="1039.5" y="-492.8" font-family="Cascadia Code PL" font-size="9.00" fill="#aaaaaa"> Transition</text>
</g>
</g>
</svg>
