<?xml version="1.0" encoding="UTF-8" standalone="no"?>
<!DOCTYPE svg PUBLIC "-//W3C//DTD SVG 1.1//EN"
 "http://www.w3.org/Graphics/SVG/1.1/DTD/svg11.dtd">
<!-- Generated by graphviz version 2.42.4 (0)
 -->
<!-- Title: LAYER_MULTISELECT Pages: 1 -->
<svg width="1623pt" height="572pt"
 viewBox="0.00 0.00 1622.98 572.00" xmlns="http://www.w3.org/2000/svg" xmlns:xlink="http://www.w3.org/1999/xlink">
<g id="graph0" class="graph" transform="scale(1 1) rotate(0) translate(4 568)">
<title>LAYER_MULTISELECT</title>
<text text-anchor="middle" x="807.49" y="-540.8" font-family="Cascadia Code PL" font-size="24.00" fill="white">LAYER MULTI&#45;SELECT STATE MACHINE</text>
<g id="clust3" class="cluster">
<title>cluster_operations</title>
<polygon fill="transparent" stroke="orange" stroke-dasharray="5,2" points="191.98,-418 191.98,-522 869.98,-522 869.98,-418 191.98,-418"/>
<text text-anchor="middle" x="267.98" y="-509.2" font-family="Cascadia Code PL" font-size="11.00" fill="white">MULTI&#45;SELECT OPERATIONS</text>
</g>
<g id="clust4" class="cluster">
<title>cluster_solo</title>
<polygon fill="transparent" stroke="orange" stroke-dasharray="5,2" points="877.98,-272 877.98,-522 1073.98,-522 1073.98,-272 877.98,-272"/>
<text text-anchor="middle" x="916.98" y="-509.2" font-family="Cascadia Code PL" font-size="11.00" fill="white">SOLO MODE</text>
</g>
<g id="clust5" class="cluster">
<title>cluster_vis_swipe</title>
<polygon fill="transparent" stroke="orange" stroke-dasharray="5,2" points="1081.98,-272 1081.98,-522 1281.98,-522 1281.98,-272 1081.98,-272"/>
<text text-anchor="middle" x="1130.98" y="-509.2" font-family="Cascadia Code PL" font-size="11.00" fill="white">VISIBILITY SWIPE</text>
</g>
<g id="clust6" class="cluster">
<title>cluster_legend</title>
<polygon fill="transparent" stroke="white" stroke-dasharray="5,2" points="1289.98,-311.64 1289.98,-488.36 1606.98,-488.36 1606.98,-311.64 1289.98,-311.64"/>
<text text-anchor="middle" x="1317.98" y="-475.56" font-family="Cascadia Code PL" font-size="11.00" fill="white">LEGEND</text>
</g>
<!-- MAIN -->
<g id="node1" class="node">
<title>MAIN</title>
<polygon fill="none" stroke="orange" stroke-width="2" points="181.48,-478 178.48,-482 157.48,-482 154.48,-478 80.48,-478 80.48,-442 181.48,-442 181.48,-478"/>
<text text-anchor="middle" x="130.98" y="-463.6" font-family="Cascadia Code PL" font-size="13.00" fill="orange">LAYER</text>
<text text-anchor="middle" x="130.98" y="-449.6" font-family="Cascadia Code PL" font-size="13.00" fill="orange">MULTI&#45;SELECT</text>
</g>
<!-- S_SINGLE -->
<g id="node2" class="node">
<title>S_SINGLE</title>
<polygon fill="none" stroke="white" points="205.48,-354 56.48,-354 56.48,-286 205.48,-286 205.48,-354"/>
<text text-anchor="middle" x="130.98" y="-341.2" font-family="Cascadia Code PL" font-size="11.00" fill="cyan">1 · SINGLE SELECT</text>
<text text-anchor="middle" x="130.98" y="-329.2" font-family="Cascadia Code PL" font-size="11.00" fill="cyan">─────────────────</text>
<text text-anchor="middle" x="130.98" y="-317.2" font-family="Cascadia Code PL" font-size="11.00" fill="cyan">CURRENT_LAYER% = active</text>
<text text-anchor="middle" x="130.98" y="-305.2" font-family="Cascadia Code PL" font-size="11.00" fill="cyan">Only one layer selected</text>
<text text-anchor="middle" x="130.98" y="-293.2" font-family="Cascadia Code PL" font-size="11.00" fill="cyan">Normal painting mode</text>
</g>
<!-- MAIN&#45;&gt;S_SINGLE -->
<g id="edge7" class="edge">
<title>MAIN&#45;&gt;S_SINGLE</title>
<path fill="none" stroke="#555555" stroke-dasharray="1,5" d="M130.98,-441.8C130.98,-419.91 130.98,-381.62 130.98,-354.01"/>
</g>
<!-- S_MULTI -->
<g id="node3" class="node">
<title>S_MULTI</title>
<polygon fill="none" stroke="white" points="173.48,-80 40.48,-80 40.48,0 173.48,0 173.48,-80"/>
<text text-anchor="middle" x="106.98" y="-67.2" font-family="Cascadia Code PL" font-size="11.00" fill="cyan">2 · MULTI&#45;SELECT</text>
<text text-anchor="middle" x="106.98" y="-55.2" font-family="Cascadia Code PL" font-size="11.00" fill="cyan">─────────────────</text>
<text text-anchor="middle" x="106.98" y="-43.2" font-family="Cascadia Code PL" font-size="11.00" fill="cyan">Multiple layers selected</text>
<text text-anchor="middle" x="106.98" y="-31.2" font-family="Cascadia Code PL" font-size="11.00" fill="cyan">Highlighted in panel</text>
<text text-anchor="middle" x="106.98" y="-19.2" font-family="Cascadia Code PL" font-size="11.00" fill="cyan">Operations apply to</text>
<text text-anchor="middle" x="106.98" y="-7.2" font-family="Cascadia Code PL" font-size="11.00" fill="cyan">all selected layers</text>
</g>
<!-- S_SINGLE&#45;&gt;S_MULTI -->
<g id="edge1" class="edge">
<title>S_SINGLE&#45;&gt;S_MULTI</title>
<path fill="none" stroke="#66cc66" d="M73.87,-285.8C49.04,-267.99 22.55,-243.59 8.98,-214 -3.62,-186.53 -2.11,-174.12 8.98,-146 17.62,-124.07 33.24,-104.02 49.51,-87.45"/>
<polygon fill="#66cc66" stroke="#66cc66" points="52.32,-89.59 57.01,-80.09 47.42,-84.6 52.32,-89.59"/>
<text text-anchor="middle" x="46.98" y="-187.8" font-family="Cascadia Code PL" font-size="9.00" fill="#aaaaaa"> &#160;Ctrl+Click another</text>
<text text-anchor="middle" x="46.98" y="-177.8" font-family="Cascadia Code PL" font-size="9.00" fill="#aaaaaa"> &#160;layer in panel</text>
<text text-anchor="middle" x="46.98" y="-167.8" font-family="Cascadia Code PL" font-size="9.00" fill="#aaaaaa"> &#160;Add to selection</text>
</g>
<!-- S_RANGE -->
<g id="node4" class="node">
<title>S_RANGE</title>
<polygon fill="none" stroke="white" points="330.98,-214 202.98,-214 202.98,-146 330.98,-146 330.98,-214"/>
<text text-anchor="middle" x="266.98" y="-201.2" font-family="Cascadia Code PL" font-size="11.00" fill="cyan">3 · RANGE SELECT</text>
<text text-anchor="middle" x="266.98" y="-189.2" font-family="Cascadia Code PL" font-size="11.00" fill="cyan">─────────────────</text>
<text text-anchor="middle" x="266.98" y="-177.2" font-family="Cascadia Code PL" font-size="11.00" fill="cyan">Shift+Click selects</text>
<text text-anchor="middle" x="266.98" y="-165.2" font-family="Cascadia Code PL" font-size="11.00" fill="cyan">contiguous range from</text>
<text text-anchor="middle" x="266.98" y="-153.2" font-family="Cascadia Code PL" font-size="11.00" fill="cyan">anchor to clicked layer</text>
</g>
<!-- S_SINGLE&#45;&gt;S_RANGE -->
<g id="edge2" class="edge">
<title>S_SINGLE&#45;&gt;S_RANGE</title>
<path fill="none" stroke="#66cc66" d="M136.96,-285.71C141.56,-268.03 149.51,-246.94 162.98,-232 168.22,-226.18 179.91,-219.18 193.64,-212.25"/>
<polygon fill="#66cc66" stroke="#66cc66" points="195.45,-215.26 202.9,-207.72 192.38,-208.97 195.45,-215.26"/>
<text text-anchor="middle" x="199.98" y="-254.8" font-family="Cascadia Code PL" font-size="9.00" fill="#aaaaaa"> &#160;Shift+Click layer</text>
<text text-anchor="middle" x="199.98" y="-244.8" font-family="Cascadia Code PL" font-size="9.00" fill="#aaaaaa"> &#160;Select range from</text>
<text text-anchor="middle" x="199.98" y="-234.8" font-family="Cascadia Code PL" font-size="9.00" fill="#aaaaaa"> &#160;current to clicked</text>
</g>
<!-- S_MULTI&#45;&gt;S_SINGLE -->
<g id="edge4" class="edge">
<title>S_MULTI&#45;&gt;S_SINGLE</title>
<path fill="none" stroke="#cc6666" stroke-dasharray="5,2" d="M108.01,-80.24C109.18,-115.35 111.52,-168.2 115.98,-214 117.96,-234.41 121.06,-256.94 123.92,-275.87"/>
<polygon fill="#cc6666" stroke="#cc6666" points="120.5,-276.64 125.48,-285.99 127.42,-275.57 120.5,-276.64"/>
<text text-anchor="middle" x="154.98" y="-187.8" font-family="Cascadia Code PL" font-size="9.00" fill="#aaaaaa"> &#160;Click layer without</text>
<text text-anchor="middle" x="154.98" y="-177.8" font-family="Cascadia Code PL" font-size="9.00" fill="#aaaaaa"> &#160;Ctrl modifier</text>
<text text-anchor="middle" x="154.98" y="-167.8" font-family="Cascadia Code PL" font-size="9.00" fill="#aaaaaa"> &#160;Deselect all others</text>
</g>
<!-- S_MULTI&#45;&gt;S_MULTI -->
<g id="edge3" class="edge">
<title>S_MULTI&#45;&gt;S_MULTI</title>
<path fill="none" stroke="#88aacc" d="M173.57,-52.43C184.2,-50.61 191.48,-46.47 191.48,-40 191.48,-35.86 188.49,-32.67 183.55,-30.43"/>
<polygon fill="#88aacc" stroke="#88aacc" points="184.15,-26.96 173.57,-27.57 182.22,-33.69 184.15,-26.96"/>
<text text-anchor="middle" x="239.48" y="-47.8" font-family="Cascadia Code PL" font-size="9.00" fill="#aaaaaa"> &#160;Ctrl+Click: toggle</text>
<text text-anchor="middle" x="239.48" y="-37.8" font-family="Cascadia Code PL" font-size="9.00" fill="#aaaaaa"> &#160;layer in selection</text>
<text text-anchor="middle" x="239.48" y="-27.8" font-family="Cascadia Code PL" font-size="9.00" fill="#aaaaaa"> &#160;Add/remove individual</text>
</g>
<!-- S_RANGE&#45;&gt;S_SINGLE -->
<g id="edge5" class="edge">
<title>S_RANGE&#45;&gt;S_SINGLE</title>
<path fill="none" stroke="#cc6666" stroke-dasharray="5,2" d="M260.46,-214.2C256,-230.09 248.69,-248.54 236.98,-262 230.39,-269.57 222.55,-276.3 214.16,-282.24"/>
<polygon fill="#cc6666" stroke="#cc6666" points="211.99,-279.48 205.6,-287.93 215.87,-285.31 211.99,-279.48"/>
<text text-anchor="middle" x="291.48" y="-249.8" font-family="Cascadia Code PL" font-size="9.00" fill="#aaaaaa"> &#160;Click without Shift</text>
<text text-anchor="middle" x="291.48" y="-239.8" font-family="Cascadia Code PL" font-size="9.00" fill="#aaaaaa"> &#160;Deselect range</text>
</g>
<!-- S_RANGE&#45;&gt;S_MULTI -->
<g id="edge6" class="edge">
<title>S_RANGE&#45;&gt;S_MULTI</title>
<path fill="none" stroke="#6699ff" d="M228.65,-145.95C208.14,-128.26 182.56,-106.19 160.16,-86.87"/>
<polygon fill="#6699ff" stroke="#6699ff" points="162.24,-84.04 152.38,-80.16 157.66,-89.34 162.24,-84.04"/>
<text text-anchor="middle" x="246.98" y="-120.8" font-family="Cascadia Code PL" font-size="9.00" fill="#aaaaaa"> &#160;Ctrl+Click</text>
<text text-anchor="middle" x="246.98" y="-110.8" font-family="Cascadia Code PL" font-size="9.00" fill="#aaaaaa"> &#160;Switch to individual</text>
<text text-anchor="middle" x="246.98" y="-100.8" font-family="Cascadia Code PL" font-size="9.00" fill="#aaaaaa"> &#160;multi&#45;select</text>
</g>
<!-- OP_MERGE -->
<g id="node5" class="node">
<title>OP_MERGE</title>
<polygon fill="none" stroke="white" points="861.98,-494 725.98,-494 725.98,-426 861.98,-426 861.98,-494"/>
<text text-anchor="middle" x="793.98" y="-481.2" font-family="Cascadia Code PL" font-size="11.00" fill="cyan">Merge Selected</text>
<text text-anchor="middle" x="793.98" y="-469.2" font-family="Cascadia Code PL" font-size="11.00" fill="cyan">─────────────────</text>
<text text-anchor="middle" x="793.98" y="-457.2" font-family="Cascadia Code PL" font-size="11.00" fill="cyan">Layer → Merge Selected</text>
<text text-anchor="middle" x="793.98" y="-445.2" font-family="Cascadia Code PL" font-size="11.00" fill="cyan">Composite all selected</text>
<text text-anchor="middle" x="793.98" y="-433.2" font-family="Cascadia Code PL" font-size="11.00" fill="cyan">into bottom&#45;most layer</text>
</g>
<!-- OP_DELETE -->
<g id="node6" class="node">
<title>OP_DELETE</title>
<polygon fill="none" stroke="white" points="707.48,-488 600.48,-488 600.48,-432 707.48,-432 707.48,-488"/>
<text text-anchor="middle" x="653.98" y="-475.2" font-family="Cascadia Code PL" font-size="11.00" fill="cyan">Delete Selected</text>
<text text-anchor="middle" x="653.98" y="-463.2" font-family="Cascadia Code PL" font-size="11.00" fill="cyan">─────────────────</text>
<text text-anchor="middle" x="653.98" y="-451.2" font-family="Cascadia Code PL" font-size="11.00" fill="cyan">Delete all selected</text>
<text text-anchor="middle" x="653.98" y="-439.2" font-family="Cascadia Code PL" font-size="11.00" fill="cyan">layers (keep ≥ 1)</text>
</g>
<!-- OP_VISIBLE -->
<g id="node7" class="node">
<title>OP_VISIBLE</title>
<polygon fill="none" stroke="white" points="581.98,-488 475.98,-488 475.98,-432 581.98,-432 581.98,-488"/>
<text text-anchor="middle" x="528.98" y="-475.2" font-family="Cascadia Code PL" font-size="11.00" fill="cyan">Toggle Visibility</text>
<text text-anchor="middle" x="528.98" y="-463.2" font-family="Cascadia Code PL" font-size="11.00" fill="cyan">─────────────────</text>
<text text-anchor="middle" x="528.98" y="-451.2" font-family="Cascadia Code PL" font-size="11.00" fill="cyan">Show/hide all</text>
<text text-anchor="middle" x="528.98" y="-439.2" font-family="Cascadia Code PL" font-size="11.00" fill="cyan">selected layers</text>
</g>
<!-- OP_LOCK -->
<g id="node8" class="node">
<title>OP_LOCK</title>
<polygon fill="none" stroke="white" points="457.98,-488 351.98,-488 351.98,-432 457.98,-432 457.98,-488"/>
<text text-anchor="middle" x="404.98" y="-475.2" font-family="Cascadia Code PL" font-size="11.00" fill="cyan">Toggle Lock</text>
<text text-anchor="middle" x="404.98" y="-463.2" font-family="Cascadia Code PL" font-size="11.00" fill="cyan">─────────────────</text>
<text text-anchor="middle" x="404.98" y="-451.2" font-family="Cascadia Code PL" font-size="11.00" fill="cyan">Lock/unlock all</text>
<text text-anchor="middle" x="404.98" y="-439.2" font-family="Cascadia Code PL" font-size="11.00" fill="cyan">selected layers</text>
</g>
<!-- OP_ALIGN -->
<g id="node9" class="node">
<title>OP_ALIGN</title>
<polygon fill="none" stroke="white" points="333.98,-494 199.98,-494 199.98,-426 333.98,-426 333.98,-494"/>
<text text-anchor="middle" x="266.98" y="-481.2" font-family="Cascadia Code PL" font-size="11.00" fill="cyan">Align / Distribute</text>
<text text-anchor="middle" x="266.98" y="-469.2" font-family="Cascadia Code PL" font-size="11.00" fill="cyan">─────────────────</text>
<text text-anchor="middle" x="266.98" y="-457.2" font-family="Cascadia Code PL" font-size="11.00" fill="cyan">Align or distribute</text>
<text text-anchor="middle" x="266.98" y="-445.2" font-family="Cascadia Code PL" font-size="11.00" fill="cyan">all selected layers</text>
<text text-anchor="middle" x="266.98" y="-433.2" font-family="Cascadia Code PL" font-size="11.00" fill="cyan">(see ALIGN&#45;DISTRIBUTE)</text>
</g>
<!-- SOLO_OFF -->
<g id="node10" class="node">
<title>SOLO_OFF</title>
<polygon fill="none" stroke="white" points="1015.98,-494 909.98,-494 909.98,-426 1015.98,-426 1015.98,-494"/>
<text text-anchor="middle" x="962.98" y="-481.2" font-family="Cascadia Code PL" font-size="11.00" fill="cyan">Solo OFF</text>
<text text-anchor="middle" x="962.98" y="-469.2" font-family="Cascadia Code PL" font-size="11.00" fill="cyan">─────────────────</text>
<text text-anchor="middle" x="962.98" y="-457.2" font-family="Cascadia Code PL" font-size="11.00" fill="cyan">soloLayer = &#45;1</text>
<text text-anchor="middle" x="962.98" y="-445.2" font-family="Cascadia Code PL" font-size="11.00" fill="cyan">All layers show</text>
<text text-anchor="middle" x="962.98" y="-433.2" font-family="Cascadia Code PL" font-size="11.00" fill="cyan">normal visibility</text>
</g>
<!-- SOLO_ON -->
<g id="node11" class="node">
<title>SOLO_ON</title>
<polygon fill="none" stroke="white" points="1031.48,-360 904.48,-360 904.48,-280 1031.48,-280 1031.48,-360"/>
<text text-anchor="middle" x="967.98" y="-347.2" font-family="Cascadia Code PL" font-size="11.00" fill="cyan">Solo ON</text>
<text text-anchor="middle" x="967.98" y="-335.2" font-family="Cascadia Code PL" font-size="11.00" fill="cyan">─────────────────</text>
<text text-anchor="middle" x="967.98" y="-323.2" font-family="Cascadia Code PL" font-size="11.00" fill="cyan">soloLayer = layerIdx</text>
<text text-anchor="middle" x="967.98" y="-311.2" font-family="Cascadia Code PL" font-size="11.00" fill="cyan">All other layers hidden</text>
<text text-anchor="middle" x="967.98" y="-299.2" font-family="Cascadia Code PL" font-size="11.00" fill="cyan">savedVisibility() stored</text>
<text text-anchor="middle" x="967.98" y="-287.2" font-family="Cascadia Code PL" font-size="11.00" fill="cyan">Alt+Click eye icon</text>
</g>
<!-- SOLO_OFF&#45;&gt;SOLO_ON -->
<g id="edge8" class="edge">
<title>SOLO_OFF&#45;&gt;SOLO_ON</title>
<path fill="none" stroke="#66cc66" d="M916.93,-425.87C912.11,-420.45 907.9,-414.48 904.98,-408 899.48,-395.85 899.57,-390.19 904.98,-378 906.43,-374.73 908.17,-371.57 910.13,-368.53"/>
<polygon fill="#66cc66" stroke="#66cc66" points="913.09,-370.4 916.19,-360.27 907.45,-366.26 913.09,-370.4"/>
<text text-anchor="middle" x="934.98" y="-395.8" font-family="Cascadia Code PL" font-size="9.00" fill="#aaaaaa"> &#160;Alt+Click eye</text>
<text text-anchor="middle" x="934.98" y="-385.8" font-family="Cascadia Code PL" font-size="9.00" fill="#aaaaaa"> &#160;Solo this layer</text>
</g>
<!-- SOLO_ON&#45;&gt;SOLO_OFF -->
<g id="edge9" class="edge">
<title>SOLO_ON&#45;&gt;SOLO_OFF</title>
<path fill="none" stroke="#cc6666" stroke-dasharray="5,2" d="M966.66,-360.41C966.15,-375.32 965.55,-392.44 964.98,-408 964.88,-410.52 964.79,-413.11 964.69,-415.72"/>
<polygon fill="#cc6666" stroke="#cc6666" points="961.19,-415.68 964.3,-425.81 968.18,-415.95 961.19,-415.68"/>
<text text-anchor="middle" x="1005.48" y="-400.8" font-family="Cascadia Code PL" font-size="9.00" fill="#aaaaaa"> &#160;Alt+Click same eye</text>
<text text-anchor="middle" x="1005.48" y="-390.8" font-family="Cascadia Code PL" font-size="9.00" fill="#aaaaaa"> &#160;or click any eye</text>
<text text-anchor="middle" x="1005.48" y="-380.8" font-family="Cascadia Code PL" font-size="9.00" fill="#aaaaaa"> &#160;Restore visibility</text>
</g>
<!-- VS_IDLE -->
<g id="node12" class="node">
<title>VS_IDLE</title>
<polygon fill="none" stroke="white" points="1237.48,-494 1118.48,-494 1118.48,-426 1237.48,-426 1237.48,-494"/>
<text text-anchor="middle" x="1177.98" y="-481.2" font-family="Cascadia Code PL" font-size="11.00" fill="cyan">Idle</text>
<text text-anchor="middle" x="1177.98" y="-469.2" font-family="Cascadia Code PL" font-size="11.00" fill="cyan">─────────────────</text>
<text text-anchor="middle" x="1177.98" y="-457.2" font-family="Cascadia Code PL" font-size="11.00" fill="cyan">visSwiping = FALSE</text>
<text text-anchor="middle" x="1177.98" y="-445.2" font-family="Cascadia Code PL" font-size="11.00" fill="cyan">Normal click toggles</text>
<text text-anchor="middle" x="1177.98" y="-433.2" font-family="Cascadia Code PL" font-size="11.00" fill="cyan">single layer visibility</text>
</g>
<!-- VS_ACTIVE -->
<g id="node13" class="node">
<title>VS_ACTIVE</title>
<polygon fill="none" stroke="white" points="1252.48,-360 1111.48,-360 1111.48,-280 1252.48,-280 1252.48,-360"/>
<text text-anchor="middle" x="1181.98" y="-347.2" font-family="Cascadia Code PL" font-size="11.00" fill="cyan">Swiping</text>
<text text-anchor="middle" x="1181.98" y="-335.2" font-family="Cascadia Code PL" font-size="11.00" fill="cyan">─────────────────</text>
<text text-anchor="middle" x="1181.98" y="-323.2" font-family="Cascadia Code PL" font-size="11.00" fill="cyan">visSwiping = TRUE</text>
<text text-anchor="middle" x="1181.98" y="-311.2" font-family="Cascadia Code PL" font-size="11.00" fill="cyan">Drag over eye icons</text>
<text text-anchor="middle" x="1181.98" y="-299.2" font-family="Cascadia Code PL" font-size="11.00" fill="cyan">visSwipeAction = on/off</text>
<text text-anchor="middle" x="1181.98" y="-287.2" font-family="Cascadia Code PL" font-size="11.00" fill="cyan">All swiped layers toggled</text>
</g>
<!-- VS_IDLE&#45;&gt;VS_ACTIVE -->
<g id="edge10" class="edge">
<title>VS_IDLE&#45;&gt;VS_ACTIVE</title>
<path fill="none" stroke="#66cc66" d="M1122.36,-425.99C1117.01,-420.65 1112.33,-414.65 1108.98,-408 1102.97,-396.1 1103.13,-389.98 1108.98,-378 1110.66,-374.55 1112.67,-371.24 1114.92,-368.08"/>
<polygon fill="#66cc66" stroke="#66cc66" points="1117.83,-370.05 1121.42,-360.08 1112.4,-365.64 1117.83,-370.05"/>
<text text-anchor="middle" x="1146.98" y="-395.8" font-family="Cascadia Code PL" font-size="9.00" fill="#aaaaaa"> &#160;Click+drag over</text>
<text text-anchor="middle" x="1146.98" y="-385.8" font-family="Cascadia Code PL" font-size="9.00" fill="#aaaaaa"> &#160;multiple eye icons</text>
</g>
<!-- VS_ACTIVE&#45;&gt;VS_IDLE -->
<g id="edge11" class="edge">
<title>VS_ACTIVE&#45;&gt;VS_IDLE</title>
<path fill="none" stroke="#cc6666" stroke-dasharray="5,2" d="M1185.03,-360.01C1185.75,-375.02 1186.05,-392.32 1184.98,-408 1184.8,-410.54 1184.58,-413.14 1184.33,-415.76"/>
<polygon fill="#cc6666" stroke="#cc6666" points="1180.83,-415.54 1183.19,-425.87 1187.78,-416.33 1180.83,-415.54"/>
<text text-anchor="middle" x="1218.48" y="-395.8" font-family="Cascadia Code PL" font-size="9.00" fill="#aaaaaa"> &#160;Mouse release</text>
<text text-anchor="middle" x="1218.48" y="-385.8" font-family="Cascadia Code PL" font-size="9.00" fill="#aaaaaa"> &#160;Swipe complete</text>
</g>
<!-- L1 -->
<g id="node14" class="node">
<title>L1</title>
<ellipse fill="white" stroke="white" cx="1531.98" cy="-460" rx="0.36" ry="0.36"/>
</g>
<!-- L2 -->
<g id="node15" class="node">
<title>L2</title>
<ellipse fill="white" stroke="white" cx="1531.98" cy="-320" rx="0.36" ry="0.36"/>
</g>
<!-- L1&#45;&gt;L2 -->
<g id="edge12" class="edge">
<title>L1&#45;&gt;L2</title>
<path fill="none" stroke="#66cc66" d="M1531.98,-458.9C1531.98,-455.43 1531.98,-362.59 1531.98,-331.24"/>
<polygon fill="#66cc66" stroke="#66cc66" points="1535.48,-331.1 1531.98,-321.1 1528.48,-331.1 1535.48,-331.1"/>
<text text-anchor="middle" x="1565.48" y="-390.8" font-family="Cascadia Code PL" font-size="9.00" fill="#aaaaaa"> Select / Activate</text>
</g>
<!-- L3 -->
<g id="node16" class="node">
<title>L3</title>
<ellipse fill="white" stroke="white" cx="1472.98" cy="-460" rx="0.36" ry="0.36"/>
</g>
<!-- L4 -->
<g id="node17" class="node">
<title>L4</title>
<ellipse fill="white" stroke="white" cx="1472.98" cy="-320" rx="0.36" ry="0.36"/>
</g>
<!-- L3&#45;&gt;L4 -->
<g id="edge13" class="edge">
<title>L3&#45;&gt;L4</title>
<path fill="none" stroke="#cc6666" stroke-dasharray="5,2" d="M1472.98,-458.9C1472.98,-455.43 1472.98,-362.59 1472.98,-331.24"/>
<polygon fill="#cc6666" stroke="#cc6666" points="1476.48,-331.1 1472.98,-321.1 1469.48,-331.1 1476.48,-331.1"/>
<text text-anchor="middle" x="1490.98" y="-390.8" font-family="Cascadia Code PL" font-size="9.00" fill="#aaaaaa"> Deselect</text>
</g>
<!-- L5 -->
<g id="node18" class="node">
<title>L5</title>
<ellipse fill="white" stroke="white" cx="1396.98" cy="-460" rx="0.36" ry="0.36"/>
</g>
<!-- L6 -->
<g id="node19" class="node">
<title>L6</title>
<ellipse fill="white" stroke="white" cx="1396.98" cy="-320" rx="0.36" ry="0.36"/>
</g>
<!-- L5&#45;&gt;L6 -->
<g id="edge14" class="edge">
<title>L5&#45;&gt;L6</title>
<path fill="none" stroke="#6699ff" d="M1396.98,-458.9C1396.98,-455.43 1396.98,-362.59 1396.98,-331.24"/>
<polygon fill="#6699ff" stroke="#6699ff" points="1400.48,-331.1 1396.98,-321.1 1393.48,-331.1 1400.48,-331.1"/>
<text text-anchor="middle" x="1423.48" y="-390.8" font-family="Cascadia Code PL" font-size="9.00" fill="#aaaaaa"> Mode switch</text>
</g>
<!-- L7 -->
<g id="node20" class="node">
<title>L7</title>
<ellipse fill="white" stroke="white" cx="1315.98" cy="-460" rx="0.36" ry="0.36"/>
</g>
<!-- L8 -->
<g id="node21" class="node">
<title>L8</title>
<ellipse fill="white" stroke="white" cx="1315.98" cy="-320" rx="0.36" ry="0.36"/>
</g>
<!-- L7&#45;&gt;L8 -->
<g id="edge15" class="edge">
<title>L7&#45;&gt;L8</title>
<path fill="none" stroke="#88aacc" d="M1315.98,-458.9C1315.98,-455.43 1315.98,-362.59 1315.98,-331.24"/>
<polygon fill="#88aacc" stroke="#88aacc" points="1319.48,-331.1 1315.98,-321.1 1312.48,-331.1 1319.48,-331.1"/>
<text text-anchor="middle" x="1344.98" y="-390.8" font-family="Cascadia Code PL" font-size="9.00" fill="#aaaaaa"> Self&#45;transition</text>
</g>
</g>
</svg>
