<?xml version="1.0" encoding="UTF-8" standalone="no"?>
<!DOCTYPE svg PUBLIC "-//W3C//DTD SVG 1.1//EN"
 "http://www.w3.org/Graphics/SVG/1.1/DTD/svg11.dtd">
<!-- Generated by graphviz version 2.42.4 (0)
 -->
<!-- Title: LAYER_MERGE Pages: 1 -->
<svg width="805pt" height="970pt"
 viewBox="0.00 0.00 805.00 970.00" xmlns="http://www.w3.org/2000/svg" xmlns:xlink="http://www.w3.org/1999/xlink">
<g id="graph0" class="graph" transform="scale(1 1) rotate(0) translate(4 966)">
<title>LAYER_MERGE</title>
<text text-anchor="middle" x="398.5" y="-938.8" font-family="Cascadia Code PL" font-size="24.00" fill="white">LAYER MERGE STATE MACHINE</text>
<g id="clust3" class="cluster">
<title>cluster_merge_down</title>
<polygon fill="transparent" stroke="orange" stroke-dasharray="5,2" points="8,-8 8,-650 182,-650 182,-8 8,-8"/>
<text text-anchor="middle" x="52.5" y="-637.2" font-family="Cascadia Code PL" font-size="11.00" fill="white">MERGE DOWN</text>
</g>
<g id="clust4" class="cluster">
<title>cluster_merge_selected</title>
<polygon fill="transparent" stroke="orange" stroke-dasharray="5,2" points="190,-140 190,-644 342,-644 342,-140 190,-140"/>
<text text-anchor="middle" x="240.5" y="-631.2" font-family="Cascadia Code PL" font-size="11.00" fill="white">MERGE SELECTED</text>
</g>
<g id="clust5" class="cluster">
<title>cluster_merge_all</title>
<polygon fill="transparent" stroke="orange" stroke-dasharray="5,2" points="350,-134 350,-644 506,-644 506,-134 350,-134"/>
<text text-anchor="middle" x="411" y="-631.2" font-family="Cascadia Code PL" font-size="11.00" fill="white">MERGE ALL (FLATTEN)</text>
</g>
<g id="clust6" class="cluster">
<title>cluster_post</title>
<polygon fill="transparent" stroke="orange" stroke-dasharray="5,2" points="325,-792 325,-920 509,-920 509,-792 325,-792"/>
<text text-anchor="middle" x="381.5" y="-907.2" font-family="Cascadia Code PL" font-size="11.00" fill="white">POST&#45;MERGE STATE</text>
</g>
<g id="clust7" class="cluster">
<title>cluster_legend</title>
<polygon fill="transparent" stroke="white" stroke-dasharray="5,2" points="517,-711.64 517,-874.36 789,-874.36 789,-711.64 517,-711.64"/>
<text text-anchor="middle" x="545" y="-861.56" font-family="Cascadia Code PL" font-size="11.00" fill="white">LEGEND</text>
</g>
<!-- MAIN -->
<g id="node1" class="node">
<title>MAIN</title>
<polygon fill="none" stroke="orange" stroke-width="2" points="315,-864 312,-868 291,-868 288,-864 217,-864 217,-828 315,-828 315,-864"/>
<text text-anchor="middle" x="266" y="-849.6" font-family="Cascadia Code PL" font-size="13.00" fill="orange">LAYER MERGE</text>
<text text-anchor="middle" x="266" y="-835.6" font-family="Cascadia Code PL" font-size="13.00" fill="orange">OPERATIONS</text>
</g>
<!-- S_IDLE -->
<g id="node2" class="node">
<title>S_IDLE</title>
<polygon fill="none" stroke="white" points="329,-754 203,-754 203,-686 329,-686 329,-754"/>
<text text-anchor="middle" x="266" y="-741.2" font-family="Cascadia Code PL" font-size="11.00" fill="cyan">1 · IDLE</text>
<text text-anchor="middle" x="266" y="-729.2" font-family="Cascadia Code PL" font-size="11.00" fill="cyan">─────────────────</text>
<text text-anchor="middle" x="266" y="-717.2" font-family="Cascadia Code PL" font-size="11.00" fill="cyan">No merge active</text>
<text text-anchor="middle" x="266" y="-705.2" font-family="Cascadia Code PL" font-size="11.00" fill="cyan">All layers independent</text>
<text text-anchor="middle" x="266" y="-693.2" font-family="Cascadia Code PL" font-size="11.00" fill="cyan">CURRENT_LAYER% set</text>
</g>
<!-- MAIN&#45;&gt;S_IDLE -->
<g id="edge1" class="edge">
<title>MAIN&#45;&gt;S_IDLE</title>
<path fill="none" stroke="#555555" stroke-dasharray="1,5" d="M266,-827.76C266,-808.86 266,-778.08 266,-754.41"/>
</g>
<!-- MD_TRIGGER -->
<g id="node3" class="node">
<title>MD_TRIGGER</title>
<polygon fill="none" stroke="white" points="171,-622 49,-622 49,-542 171,-542 171,-622"/>
<text text-anchor="middle" x="110" y="-609.2" font-family="Cascadia Code PL" font-size="11.00" fill="cyan">Trigger</text>
<text text-anchor="middle" x="110" y="-597.2" font-family="Cascadia Code PL" font-size="11.00" fill="cyan">─────────────────</text>
<text text-anchor="middle" x="110" y="-585.2" font-family="Cascadia Code PL" font-size="11.00" fill="cyan">Layer → Merge Down</text>
<text text-anchor="middle" x="110" y="-573.2" font-family="Cascadia Code PL" font-size="11.00" fill="cyan">or Ctrl+E</text>
<text text-anchor="middle" x="110" y="-561.2" font-family="Cascadia Code PL" font-size="11.00" fill="cyan">Merges current into</text>
<text text-anchor="middle" x="110" y="-549.2" font-family="Cascadia Code PL" font-size="11.00" fill="cyan">layer below</text>
</g>
<!-- S_IDLE&#45;&gt;MD_TRIGGER -->
<g id="edge13" class="edge">
<title>S_IDLE&#45;&gt;MD_TRIGGER</title>
<path fill="none" stroke="#cccc66" d="M226.85,-685.92C219.88,-679.98 212.71,-673.82 206,-668 191.53,-655.45 175.94,-641.73 161.62,-629.04"/>
<polygon fill="#cccc66" stroke="#cccc66" points="163.61,-626.13 153.8,-622.12 158.96,-631.37 163.61,-626.13"/>
<text text-anchor="middle" x="234" y="-660.8" font-family="Cascadia Code PL" font-size="9.00" fill="#aaaaaa"> &#160;Merge Down</text>
</g>
<!-- MS_TRIGGER -->
<g id="node8" class="node">
<title>MS_TRIGGER</title>
<polygon fill="none" stroke="white" points="334,-616 198,-616 198,-548 334,-548 334,-616"/>
<text text-anchor="middle" x="266" y="-603.2" font-family="Cascadia Code PL" font-size="11.00" fill="cyan">Trigger</text>
<text text-anchor="middle" x="266" y="-591.2" font-family="Cascadia Code PL" font-size="11.00" fill="cyan">─────────────────</text>
<text text-anchor="middle" x="266" y="-579.2" font-family="Cascadia Code PL" font-size="11.00" fill="cyan">Layer → Merge Selected</text>
<text text-anchor="middle" x="266" y="-567.2" font-family="Cascadia Code PL" font-size="11.00" fill="cyan">Merges multi&#45;selected</text>
<text text-anchor="middle" x="266" y="-555.2" font-family="Cascadia Code PL" font-size="11.00" fill="cyan">layers into one</text>
</g>
<!-- S_IDLE&#45;&gt;MS_TRIGGER -->
<g id="edge14" class="edge">
<title>S_IDLE&#45;&gt;MS_TRIGGER</title>
<path fill="none" stroke="#cccc66" d="M266,-685.73C266,-667.87 266,-645.63 266,-626.42"/>
<polygon fill="#cccc66" stroke="#cccc66" points="269.5,-626.4 266,-616.4 262.5,-626.4 269.5,-626.4"/>
<text text-anchor="middle" x="299" y="-660.8" font-family="Cascadia Code PL" font-size="9.00" fill="#aaaaaa"> &#160;Merge Selected</text>
</g>
<!-- MA_TRIGGER -->
<g id="node12" class="node">
<title>MA_TRIGGER</title>
<polygon fill="none" stroke="white" points="467,-616 361,-616 361,-548 467,-548 467,-616"/>
<text text-anchor="middle" x="414" y="-603.2" font-family="Cascadia Code PL" font-size="11.00" fill="cyan">Trigger</text>
<text text-anchor="middle" x="414" y="-591.2" font-family="Cascadia Code PL" font-size="11.00" fill="cyan">─────────────────</text>
<text text-anchor="middle" x="414" y="-579.2" font-family="Cascadia Code PL" font-size="11.00" fill="cyan">Layer → Merge All</text>
<text text-anchor="middle" x="414" y="-567.2" font-family="Cascadia Code PL" font-size="11.00" fill="cyan">or Layer → Flatten</text>
<text text-anchor="middle" x="414" y="-555.2" font-family="Cascadia Code PL" font-size="11.00" fill="cyan">All layers → one</text>
</g>
<!-- S_IDLE&#45;&gt;MA_TRIGGER -->
<g id="edge15" class="edge">
<title>S_IDLE&#45;&gt;MA_TRIGGER</title>
<path fill="none" stroke="#cccc66" d="M314.06,-685.94C321.6,-680.2 329.16,-674.11 336,-668 351,-654.6 366.23,-638.64 379.21,-624.19"/>
<polygon fill="#cccc66" stroke="#cccc66" points="382.15,-626.14 386.17,-616.33 376.91,-621.5 382.15,-626.14"/>
<text text-anchor="middle" x="366.5" y="-660.8" font-family="Cascadia Code PL" font-size="9.00" fill="#aaaaaa"> &#160;Merge All</text>
</g>
<!-- MD_GUARD -->
<g id="node4" class="node">
<title>MD_GUARD</title>
<polygon fill="none" stroke="white" points="148,-486 42,-486 42,-418 148,-418 148,-486"/>
<text text-anchor="middle" x="95" y="-473.2" font-family="Cascadia Code PL" font-size="11.00" fill="cyan">Guard</text>
<text text-anchor="middle" x="95" y="-461.2" font-family="Cascadia Code PL" font-size="11.00" fill="cyan">─────────────────</text>
<text text-anchor="middle" x="95" y="-449.2" font-family="Cascadia Code PL" font-size="11.00" fill="cyan">Current layer has</text>
<text text-anchor="middle" x="95" y="-437.2" font-family="Cascadia Code PL" font-size="11.00" fill="cyan">a layer below it</text>
<text text-anchor="middle" x="95" y="-425.2" font-family="Cascadia Code PL" font-size="11.00" fill="cyan">(not bottom layer)</text>
</g>
<!-- MD_TRIGGER&#45;&gt;MD_GUARD -->
<g id="edge2" class="edge">
<title>MD_TRIGGER&#45;&gt;MD_GUARD</title>
<path fill="none" stroke="#cccc66" d="M63.61,-541.89C59.33,-536.33 55.62,-530.34 53,-524 48.97,-514.27 50.72,-504.28 55.26,-494.97"/>
<polygon fill="#cccc66" stroke="#cccc66" points="58.31,-496.68 60.37,-486.29 52.28,-493.13 58.31,-496.68"/>
<text text-anchor="middle" x="70.5" y="-511.8" font-family="Cascadia Code PL" font-size="9.00" fill="#aaaaaa"> &#160;Execute</text>
</g>
<!-- MD_GUARD&#45;&gt;MD_TRIGGER -->
<g id="edge4" class="edge">
<title>MD_GUARD&#45;&gt;MD_TRIGGER</title>
<path fill="none" stroke="#cc6666" stroke-dasharray="5,2" d="M98.9,-486.25C100.52,-500.08 102.43,-516.43 104.21,-531.62"/>
<polygon fill="#cc6666" stroke="#cc6666" points="100.78,-532.38 105.42,-541.9 107.73,-531.56 100.78,-532.38"/>
<text text-anchor="middle" x="135" y="-516.8" font-family="Cascadia Code PL" font-size="9.00" fill="#aaaaaa"> &#160;No layer below</text>
<text text-anchor="middle" x="135" y="-506.8" font-family="Cascadia Code PL" font-size="9.00" fill="#aaaaaa"> &#160;Abort</text>
</g>
<!-- MD_SNAPSHOT -->
<g id="node5" class="node">
<title>MD_SNAPSHOT</title>
<polygon fill="none" stroke="white" points="158,-372 32,-372 32,-280 158,-280 158,-372"/>
<text text-anchor="middle" x="95" y="-359.2" font-family="Cascadia Code PL" font-size="11.00" fill="cyan">Snapshot Both</text>
<text text-anchor="middle" x="95" y="-347.2" font-family="Cascadia Code PL" font-size="11.00" fill="cyan">─────────────────</text>
<text text-anchor="middle" x="95" y="-335.2" font-family="Cascadia Code PL" font-size="11.00" fill="cyan">HISTORY_record</text>
<text text-anchor="middle" x="95" y="-323.2" font-family="Cascadia Code PL" font-size="11.00" fill="cyan"> &#160;kind = LAYER_MERGE</text>
<text text-anchor="middle" x="95" y="-311.2" font-family="Cascadia Code PL" font-size="11.00" fill="cyan"> &#160;img = current pixels</text>
<text text-anchor="middle" x="95" y="-299.2" font-family="Cascadia Code PL" font-size="11.00" fill="cyan"> &#160;img2 = below pixels</text>
<text text-anchor="middle" x="95" y="-287.2" font-family="Cascadia Code PL" font-size="11.00" fill="cyan">Save both states</text>
</g>
<!-- MD_GUARD&#45;&gt;MD_SNAPSHOT -->
<g id="edge3" class="edge">
<title>MD_GUARD&#45;&gt;MD_SNAPSHOT</title>
<path fill="none" stroke="#cccc66" d="M95,-417.77C95,-406.9 95,-394.51 95,-382.45"/>
<polygon fill="#cccc66" stroke="#cccc66" points="98.5,-382.44 95,-372.44 91.5,-382.44 98.5,-382.44"/>
<text text-anchor="middle" x="128.5" y="-392.8" font-family="Cascadia Code PL" font-size="9.00" fill="#aaaaaa"> &#160;Has layer below</text>
</g>
<!-- MD_COMPOSITE -->
<g id="node6" class="node">
<title>MD_COMPOSITE</title>
<polygon fill="none" stroke="white" points="174.5,-228 15.5,-228 15.5,-148 174.5,-148 174.5,-228"/>
<text text-anchor="middle" x="95" y="-215.2" font-family="Cascadia Code PL" font-size="11.00" fill="cyan">Composite</text>
<text text-anchor="middle" x="95" y="-203.2" font-family="Cascadia Code PL" font-size="11.00" fill="cyan">─────────────────</text>
<text text-anchor="middle" x="95" y="-191.2" font-family="Cascadia Code PL" font-size="11.00" fill="cyan">_DEST below.imgHandle&amp;</text>
<text text-anchor="middle" x="95" y="-179.2" font-family="Cascadia Code PL" font-size="11.00" fill="cyan">Blend current onto below</text>
<text text-anchor="middle" x="95" y="-167.2" font-family="Cascadia Code PL" font-size="11.00" fill="cyan">Respect opacity+blendMode</text>
<text text-anchor="middle" x="95" y="-155.2" font-family="Cascadia Code PL" font-size="11.00" fill="cyan">Per&#45;pixel alpha composite</text>
</g>
<!-- MD_SNAPSHOT&#45;&gt;MD_COMPOSITE -->
<g id="edge5" class="edge">
<title>MD_SNAPSHOT&#45;&gt;MD_COMPOSITE</title>
<path fill="none" stroke="#cccc66" d="M95,-279.71C95,-266.41 95,-251.8 95,-238.27"/>
<polygon fill="#cccc66" stroke="#cccc66" points="98.5,-238.17 95,-228.17 91.5,-238.17 98.5,-238.17"/>
<text text-anchor="middle" x="109" y="-254.8" font-family="Cascadia Code PL" font-size="9.00" fill="#aaaaaa"> &#160;Saved</text>
</g>
<!-- MD_CLEANUP -->
<g id="node7" class="node">
<title>MD_CLEANUP</title>
<polygon fill="none" stroke="white" points="171,-96 19,-96 19,-16 171,-16 171,-96"/>
<text text-anchor="middle" x="95" y="-83.2" font-family="Cascadia Code PL" font-size="11.00" fill="cyan">Delete Source</text>
<text text-anchor="middle" x="95" y="-71.2" font-family="Cascadia Code PL" font-size="11.00" fill="cyan">─────────────────</text>
<text text-anchor="middle" x="95" y="-59.2" font-family="Cascadia Code PL" font-size="11.00" fill="cyan">_FREEIMAGE current</text>
<text text-anchor="middle" x="95" y="-47.2" font-family="Cascadia Code PL" font-size="11.00" fill="cyan">Remove layer slot</text>
<text text-anchor="middle" x="95" y="-35.2" font-family="Cascadia Code PL" font-size="11.00" fill="cyan">Reindex z&#45;order</text>
<text text-anchor="middle" x="95" y="-23.2" font-family="Cascadia Code PL" font-size="11.00" fill="cyan">CURRENT_LAYER% = below</text>
</g>
<!-- MD_COMPOSITE&#45;&gt;MD_CLEANUP -->
<g id="edge6" class="edge">
<title>MD_COMPOSITE&#45;&gt;MD_CLEANUP</title>
<path fill="none" stroke="#66cc66" d="M95,-148C95,-135 95,-120.35 95,-106.66"/>
<polygon fill="#66cc66" stroke="#66cc66" points="98.5,-106.43 95,-96.43 91.5,-106.43 98.5,-106.43"/>
<text text-anchor="middle" x="113.5" y="-116.8" font-family="Cascadia Code PL" font-size="9.00" fill="#aaaaaa"> &#160;Blended</text>
</g>
<!-- MS_GUARD -->
<g id="node9" class="node">
<title>MS_GUARD</title>
<polygon fill="none" stroke="white" points="332.5,-480 199.5,-480 199.5,-424 332.5,-424 332.5,-480"/>
<text text-anchor="middle" x="266" y="-467.2" font-family="Cascadia Code PL" font-size="11.00" fill="cyan">Guard</text>
<text text-anchor="middle" x="266" y="-455.2" font-family="Cascadia Code PL" font-size="11.00" fill="cyan">─────────────────</text>
<text text-anchor="middle" x="266" y="-443.2" font-family="Cascadia Code PL" font-size="11.00" fill="cyan">Multiple layers selected</text>
<text text-anchor="middle" x="266" y="-431.2" font-family="Cascadia Code PL" font-size="11.00" fill="cyan">in multi&#45;select mode</text>
</g>
<!-- MS_TRIGGER&#45;&gt;MS_GUARD -->
<g id="edge7" class="edge">
<title>MS_TRIGGER&#45;&gt;MS_GUARD</title>
<path fill="none" stroke="#cccc66" d="M266,-547.7C266,-530.12 266,-508.48 266,-490.33"/>
<polygon fill="#cccc66" stroke="#cccc66" points="269.5,-490.1 266,-480.1 262.5,-490.1 269.5,-490.1"/>
<text text-anchor="middle" x="283.5" y="-511.8" font-family="Cascadia Code PL" font-size="9.00" fill="#aaaaaa"> &#160;Execute</text>
</g>
<!-- MS_COMPOSITE -->
<g id="node10" class="node">
<title>MS_COMPOSITE</title>
<polygon fill="none" stroke="white" points="329,-366 203,-366 203,-286 329,-286 329,-366"/>
<text text-anchor="middle" x="266" y="-353.2" font-family="Cascadia Code PL" font-size="11.00" fill="cyan">Composite All</text>
<text text-anchor="middle" x="266" y="-341.2" font-family="Cascadia Code PL" font-size="11.00" fill="cyan">─────────────────</text>
<text text-anchor="middle" x="266" y="-329.2" font-family="Cascadia Code PL" font-size="11.00" fill="cyan">Bottom&#45;up composite</text>
<text text-anchor="middle" x="266" y="-317.2" font-family="Cascadia Code PL" font-size="11.00" fill="cyan">of all selected layers</text>
<text text-anchor="middle" x="266" y="-305.2" font-family="Cascadia Code PL" font-size="11.00" fill="cyan">Respect blend modes</text>
<text text-anchor="middle" x="266" y="-293.2" font-family="Cascadia Code PL" font-size="11.00" fill="cyan">Snap history for each</text>
</g>
<!-- MS_GUARD&#45;&gt;MS_COMPOSITE -->
<g id="edge8" class="edge">
<title>MS_GUARD&#45;&gt;MS_COMPOSITE</title>
<path fill="none" stroke="#cccc66" d="M266,-423.79C266,-409.99 266,-392.78 266,-376.73"/>
<polygon fill="#cccc66" stroke="#cccc66" points="269.5,-376.39 266,-366.39 262.5,-376.39 269.5,-376.39"/>
<text text-anchor="middle" x="292" y="-392.8" font-family="Cascadia Code PL" font-size="9.00" fill="#aaaaaa"> &#160;≥ 2 selected</text>
</g>
<!-- MS_CLEANUP -->
<g id="node11" class="node">
<title>MS_CLEANUP</title>
<polygon fill="none" stroke="white" points="325.5,-228 206.5,-228 206.5,-148 325.5,-148 325.5,-228"/>
<text text-anchor="middle" x="266" y="-215.2" font-family="Cascadia Code PL" font-size="11.00" fill="cyan">Remove Merged</text>
<text text-anchor="middle" x="266" y="-203.2" font-family="Cascadia Code PL" font-size="11.00" fill="cyan">─────────────────</text>
<text text-anchor="middle" x="266" y="-191.2" font-family="Cascadia Code PL" font-size="11.00" fill="cyan">Delete all selected</text>
<text text-anchor="middle" x="266" y="-179.2" font-family="Cascadia Code PL" font-size="11.00" fill="cyan">except bottom&#45;most</text>
<text text-anchor="middle" x="266" y="-167.2" font-family="Cascadia Code PL" font-size="11.00" fill="cyan">Result in bottom slot</text>
<text text-anchor="middle" x="266" y="-155.2" font-family="Cascadia Code PL" font-size="11.00" fill="cyan">Reindex z&#45;order</text>
</g>
<!-- MS_COMPOSITE&#45;&gt;MS_CLEANUP -->
<g id="edge9" class="edge">
<title>MS_COMPOSITE&#45;&gt;MS_CLEANUP</title>
<path fill="none" stroke="#66cc66" d="M266,-285.66C266,-270.86 266,-253.84 266,-238.25"/>
<polygon fill="#66cc66" stroke="#66cc66" points="269.5,-238.25 266,-228.25 262.5,-238.25 269.5,-238.25"/>
<text text-anchor="middle" x="292" y="-254.8" font-family="Cascadia Code PL" font-size="9.00" fill="#aaaaaa"> &#160;Composited</text>
</g>
<!-- MA_SNAPSHOT -->
<g id="node13" class="node">
<title>MA_SNAPSHOT</title>
<polygon fill="none" stroke="white" points="477.5,-486 360.5,-486 360.5,-418 477.5,-418 477.5,-486"/>
<text text-anchor="middle" x="419" y="-473.2" font-family="Cascadia Code PL" font-size="11.00" fill="cyan">Snapshot All</text>
<text text-anchor="middle" x="419" y="-461.2" font-family="Cascadia Code PL" font-size="11.00" fill="cyan">─────────────────</text>
<text text-anchor="middle" x="419" y="-449.2" font-family="Cascadia Code PL" font-size="11.00" fill="cyan">History group begin</text>
<text text-anchor="middle" x="419" y="-437.2" font-family="Cascadia Code PL" font-size="11.00" fill="cyan">Snapshot every layer</text>
<text text-anchor="middle" x="419" y="-425.2" font-family="Cascadia Code PL" font-size="11.00" fill="cyan">Store all properties</text>
</g>
<!-- MA_TRIGGER&#45;&gt;MA_SNAPSHOT -->
<g id="edge10" class="edge">
<title>MA_TRIGGER&#45;&gt;MA_SNAPSHOT</title>
<path fill="none" stroke="#cccc66" d="M415.3,-547.7C415.91,-532 416.65,-513.06 417.31,-496.27"/>
<polygon fill="#cccc66" stroke="#cccc66" points="420.81,-496.26 417.71,-486.13 413.82,-495.99 420.81,-496.26"/>
<text text-anchor="middle" x="433.5" y="-511.8" font-family="Cascadia Code PL" font-size="9.00" fill="#aaaaaa"> &#160;Execute</text>
</g>
<!-- MA_FLATTEN -->
<g id="node14" class="node">
<title>MA_FLATTEN</title>
<polygon fill="none" stroke="white" points="487,-366 361,-366 361,-286 487,-286 487,-366"/>
<text text-anchor="middle" x="424" y="-353.2" font-family="Cascadia Code PL" font-size="11.00" fill="cyan">Flatten</text>
<text text-anchor="middle" x="424" y="-341.2" font-family="Cascadia Code PL" font-size="11.00" fill="cyan">─────────────────</text>
<text text-anchor="middle" x="424" y="-329.2" font-family="Cascadia Code PL" font-size="11.00" fill="cyan">Bottom&#45;up composite</text>
<text text-anchor="middle" x="424" y="-317.2" font-family="Cascadia Code PL" font-size="11.00" fill="cyan">All 64 possible layers</text>
<text text-anchor="middle" x="424" y="-305.2" font-family="Cascadia Code PL" font-size="11.00" fill="cyan">into single result</text>
<text text-anchor="middle" x="424" y="-293.2" font-family="Cascadia Code PL" font-size="11.00" fill="cyan">Full alpha blend</text>
</g>
<!-- MA_SNAPSHOT&#45;&gt;MA_FLATTEN -->
<g id="edge11" class="edge">
<title>MA_SNAPSHOT&#45;&gt;MA_FLATTEN</title>
<path fill="none" stroke="#cccc66" d="M420.34,-417.77C420.85,-405.08 421.45,-390.32 422.01,-376.44"/>
<polygon fill="#cccc66" stroke="#cccc66" points="425.52,-376.18 422.43,-366.05 418.53,-375.9 425.52,-376.18"/>
<text text-anchor="middle" x="441" y="-392.8" font-family="Cascadia Code PL" font-size="9.00" fill="#aaaaaa"> &#160;All saved</text>
</g>
<!-- MA_CLEANUP -->
<g id="node15" class="node">
<title>MA_CLEANUP</title>
<polygon fill="none" stroke="white" points="498,-234 358,-234 358,-142 498,-142 498,-234"/>
<text text-anchor="middle" x="428" y="-221.2" font-family="Cascadia Code PL" font-size="11.00" fill="cyan">Single Layer</text>
<text text-anchor="middle" x="428" y="-209.2" font-family="Cascadia Code PL" font-size="11.00" fill="cyan">─────────────────</text>
<text text-anchor="middle" x="428" y="-197.2" font-family="Cascadia Code PL" font-size="11.00" fill="cyan">Free all layer handles</text>
<text text-anchor="middle" x="428" y="-185.2" font-family="Cascadia Code PL" font-size="11.00" fill="cyan">except result</text>
<text text-anchor="middle" x="428" y="-173.2" font-family="Cascadia Code PL" font-size="11.00" fill="cyan">Result in slot 1</text>
<text text-anchor="middle" x="428" y="-161.2" font-family="Cascadia Code PL" font-size="11.00" fill="cyan">z=0, name=&quot;Background&quot;</text>
<text text-anchor="middle" x="428" y="-149.2" font-family="Cascadia Code PL" font-size="11.00" fill="cyan">CURRENT_LAYER%=1</text>
</g>
<!-- MA_FLATTEN&#45;&gt;MA_CLEANUP -->
<g id="edge12" class="edge">
<title>MA_FLATTEN&#45;&gt;MA_CLEANUP</title>
<path fill="none" stroke="#66cc66" d="M425.16,-285.66C425.53,-272.91 425.96,-258.51 426.36,-244.8"/>
<polygon fill="#66cc66" stroke="#66cc66" points="429.87,-244.58 426.66,-234.48 422.87,-244.37 429.87,-244.58"/>
<text text-anchor="middle" x="452" y="-254.8" font-family="Cascadia Code PL" font-size="9.00" fill="#aaaaaa"> &#160;Composited</text>
</g>
<!-- P1 -->
<g id="node16" class="node">
<title>P1</title>
<polygon fill="none" stroke="white" points="501,-892 333,-892 333,-800 501,-800 501,-892"/>
<text text-anchor="middle" x="417" y="-879.2" font-family="Cascadia Code PL" font-size="11.00" fill="cyan">Invalidation</text>
<text text-anchor="middle" x="417" y="-867.2" font-family="Cascadia Code PL" font-size="11.00" fill="cyan">─────────────────</text>
<text text-anchor="middle" x="417" y="-855.2" font-family="Cascadia Code PL" font-size="11.00" fill="cyan">SCENE_DIRTY = TRUE</text>
<text text-anchor="middle" x="417" y="-843.2" font-family="Cascadia Code PL" font-size="11.00" fill="cyan">CANVAS_DIRTY = TRUE</text>
<text text-anchor="middle" x="417" y="-831.2" font-family="Cascadia Code PL" font-size="11.00" fill="cyan">RENDER_ORDER_DIRTY = TRUE</text>
<text text-anchor="middle" x="417" y="-819.2" font-family="Cascadia Code PL" font-size="11.00" fill="cyan">BLEND invalidate cache</text>
<text text-anchor="middle" x="417" y="-807.2" font-family="Cascadia Code PL" font-size="11.00" fill="cyan">All caches reset</text>
</g>
<!-- L1 -->
<g id="node17" class="node">
<title>L1</title>
<ellipse fill="white" stroke="white" cx="703" cy="-846" rx="0.36" ry="0.36"/>
</g>
<!-- L2 -->
<g id="node18" class="node">
<title>L2</title>
<ellipse fill="white" stroke="white" cx="703" cy="-720" rx="0.36" ry="0.36"/>
</g>
<!-- L1&#45;&gt;L2 -->
<g id="edge16" class="edge">
<title>L1&#45;&gt;L2</title>
<path fill="none" stroke="#66cc66" d="M703,-844.91C703,-841.83 703,-760.68 703,-731.4"/>
<polygon fill="#66cc66" stroke="#66cc66" points="706.5,-731.09 703,-721.09 699.5,-731.09 706.5,-731.09"/>
<text text-anchor="middle" x="742" y="-774.8" font-family="Cascadia Code PL" font-size="9.00" fill="#aaaaaa"> Create / Composite</text>
</g>
<!-- L3 -->
<g id="node19" class="node">
<title>L3</title>
<ellipse fill="white" stroke="white" cx="622" cy="-846" rx="0.36" ry="0.36"/>
</g>
<!-- L4 -->
<g id="node20" class="node">
<title>L4</title>
<ellipse fill="white" stroke="white" cx="622" cy="-720" rx="0.36" ry="0.36"/>
</g>
<!-- L3&#45;&gt;L4 -->
<g id="edge17" class="edge">
<title>L3&#45;&gt;L4</title>
<path fill="none" stroke="#cc6666" stroke-dasharray="5,2" d="M622,-844.91C622,-841.83 622,-760.68 622,-731.4"/>
<polygon fill="#cc6666" stroke="#cc6666" points="625.5,-731.09 622,-721.09 618.5,-731.09 625.5,-731.09"/>
<text text-anchor="middle" x="651" y="-774.8" font-family="Cascadia Code PL" font-size="9.00" fill="#aaaaaa"> Delete / Abort</text>
</g>
<!-- L5 -->
<g id="node21" class="node">
<title>L5</title>
<ellipse fill="white" stroke="white" cx="543" cy="-846" rx="0.36" ry="0.36"/>
</g>
<!-- L6 -->
<g id="node22" class="node">
<title>L6</title>
<ellipse fill="white" stroke="white" cx="543" cy="-720" rx="0.36" ry="0.36"/>
</g>
<!-- L5&#45;&gt;L6 -->
<g id="edge18" class="edge">
<title>L5&#45;&gt;L6</title>
<path fill="none" stroke="#cccc66" d="M543,-844.91C543,-841.83 543,-760.68 543,-731.4"/>
<polygon fill="#cccc66" stroke="#cccc66" points="546.5,-731.09 543,-721.09 539.5,-731.09 546.5,-731.09"/>
<text text-anchor="middle" x="571" y="-774.8" font-family="Cascadia Code PL" font-size="9.00" fill="#aaaaaa"> Step / Record</text>
</g>
</g>
</svg>
