<?xml version="1.0" encoding="UTF-8" standalone="no"?>
<!DOCTYPE svg PUBLIC "-//W3C//DTD SVG 1.1//EN"
 "http://www.w3.org/Graphics/SVG/1.1/DTD/svg11.dtd">
<!-- Generated by graphviz version 2.42.4 (0)
 -->
<!-- Title: EXTRACT_GRID Pages: 1 -->
<svg width="1326pt" height="757pt"
 viewBox="0.00 0.00 1325.77 757.00" xmlns="http://www.w3.org/2000/svg" xmlns:xlink="http://www.w3.org/1999/xlink">
<g id="graph0" class="graph" transform="scale(1 1) rotate(0) translate(4 753)">
<title>EXTRACT_GRID</title>
<text text-anchor="middle" x="658.88" y="-725.8" font-family="Cascadia Code PL" font-size="24.00" fill="white">EXTRACT FROM GRID STATE MACHINE</text>
<g id="clust2" class="cluster">
<title>cluster_params</title>
<polygon fill="transparent" stroke="orange" stroke-dasharray="5,2" points="364.77,-613.5 364.77,-701.5 845.77,-701.5 845.77,-613.5 364.77,-613.5"/>
<text text-anchor="middle" x="405.77" y="-688.7" font-family="Cascadia Code PL" font-size="11.00" fill="orange">PARAMETERS</text>
</g>
<g id="clust3" class="cluster">
<title>cluster_output</title>
<polygon fill="transparent" stroke="orange" stroke-dasharray="5,2" points="853.77,-608 853.77,-707 1102.77,-707 1102.77,-608 853.77,-608"/>
<text text-anchor="middle" x="882.77" y="-694.2" font-family="Cascadia Code PL" font-size="11.00" fill="orange">OUTPUT</text>
</g>
<g id="clust5" class="cluster">
<title>cluster_legend</title>
<polygon fill="transparent" stroke="white" stroke-dasharray="5,2" points="1110.77,-533.64 1110.77,-675.86 1309.77,-675.86 1309.77,-533.64 1110.77,-533.64"/>
<text text-anchor="middle" x="1138.77" y="-663.06" font-family="Cascadia Code PL" font-size="11.00" fill="white">LEGEND</text>
</g>
<!-- MAIN -->
<g id="node1" class="node">
<title>MAIN</title>
<polygon fill="none" stroke="orange" stroke-width="2" points="355.27,-665.5 352.27,-669.5 331.27,-669.5 328.27,-665.5 116.27,-665.5 116.27,-629.5 355.27,-629.5 355.27,-665.5"/>
<text text-anchor="middle" x="235.77" y="-644.1" font-family="Cascadia Code PL" font-size="13.00" fill="orange">EXTRACT FROM GRID — PNG OUTPUT</text>
</g>
<!-- S_IDLE -->
<g id="node2" class="node">
<title>S_IDLE</title>
<polygon fill="none" stroke="white" points="305.77,-570 165.77,-570 165.77,-514 305.77,-514 305.77,-570"/>
<text text-anchor="middle" x="235.77" y="-557.2" font-family="Cascadia Code PL" font-size="11.00" fill="cyan">1 · IDLE</text>
<text text-anchor="middle" x="235.77" y="-545.2" font-family="Cascadia Code PL" font-size="11.00" fill="cyan">─────────────────</text>
<text text-anchor="middle" x="235.77" y="-533.2" font-family="Cascadia Code PL" font-size="11.00" fill="cyan">No extraction in progress</text>
<text text-anchor="middle" x="235.77" y="-521.2" font-family="Cascadia Code PL" font-size="11.00" fill="cyan">Normal app state</text>
</g>
<!-- MAIN&#45;&gt;S_IDLE -->
<g id="edge9" class="edge">
<title>MAIN&#45;&gt;S_IDLE</title>
<path fill="none" stroke="#555555" stroke-dasharray="1,5" d="M235.77,-629.41C235.77,-613.33 235.77,-589 235.77,-570.24"/>
</g>
<!-- S_DIALOG -->
<g id="node3" class="node">
<title>S_DIALOG</title>
<polygon fill="none" stroke="white" points="172.77,-468 32.77,-468 32.77,-376 172.77,-376 172.77,-468"/>
<text text-anchor="middle" x="102.77" y="-455.2" font-family="Cascadia Code PL" font-size="11.00" fill="cyan">2 · DIALOG OPEN</text>
<text text-anchor="middle" x="102.77" y="-443.2" font-family="Cascadia Code PL" font-size="11.00" fill="cyan">─────────────────</text>
<text text-anchor="middle" x="102.77" y="-431.2" font-family="Cascadia Code PL" font-size="11.00" fill="cyan">File → Extract From Grid...</text>
<text text-anchor="middle" x="102.77" y="-419.2" font-family="Cascadia Code PL" font-size="11.00" fill="cyan">Cell W/H inputs</text>
<text text-anchor="middle" x="102.77" y="-407.2" font-family="Cascadia Code PL" font-size="11.00" fill="cyan">Offset X/Y</text>
<text text-anchor="middle" x="102.77" y="-395.2" font-family="Cascadia Code PL" font-size="11.00" fill="cyan">Naming pattern</text>
<text text-anchor="middle" x="102.77" y="-383.2" font-family="Cascadia Code PL" font-size="11.00" fill="cyan">Output dir</text>
</g>
<!-- S_IDLE&#45;&gt;S_DIALOG -->
<g id="edge1" class="edge">
<title>S_IDLE&#45;&gt;S_DIALOG</title>
<path fill="none" stroke="#66cc66" d="M169.9,-513.74C161.25,-508.58 152.92,-502.68 145.77,-496 139.66,-490.3 134.15,-483.54 129.27,-476.46"/>
<polygon fill="#66cc66" stroke="#66cc66" points="132.2,-474.56 123.83,-468.06 126.32,-478.36 132.2,-474.56"/>
<text text-anchor="middle" x="183.77" y="-488.8" font-family="Cascadia Code PL" font-size="9.00" fill="#aaaaaa"> &#160;Menu action fired</text>
</g>
<!-- S_VALIDATING -->
<g id="node4" class="node">
<title>S_VALIDATING</title>
<polygon fill="none" stroke="white" points="137.77,-320 11.77,-320 11.77,-252 137.77,-252 137.77,-320"/>
<text text-anchor="middle" x="74.77" y="-307.2" font-family="Cascadia Code PL" font-size="11.00" fill="cyan">3 · VALIDATING</text>
<text text-anchor="middle" x="74.77" y="-295.2" font-family="Cascadia Code PL" font-size="11.00" fill="cyan">─────────────────</text>
<text text-anchor="middle" x="74.77" y="-283.2" font-family="Cascadia Code PL" font-size="11.00" fill="cyan">Grid params sane?</text>
<text text-anchor="middle" x="74.77" y="-271.2" font-family="Cascadia Code PL" font-size="11.00" fill="cyan">Canvas dims divisible?</text>
<text text-anchor="middle" x="74.77" y="-259.2" font-family="Cascadia Code PL" font-size="11.00" fill="cyan">Output dir writable?</text>
</g>
<!-- S_DIALOG&#45;&gt;S_VALIDATING -->
<g id="edge2" class="edge">
<title>S_DIALOG&#45;&gt;S_VALIDATING</title>
<path fill="none" stroke="#cccc66" d="M32.29,-388.99C20.84,-380.58 10.53,-370.32 3.77,-358 -2.2,-347.14 0.63,-336.83 7.82,-327.61"/>
<polygon fill="#cccc66" stroke="#cccc66" points="10.53,-329.83 14.79,-320.13 5.41,-325.06 10.53,-329.83"/>
<text text-anchor="middle" x="28.27" y="-345.8" font-family="Cascadia Code PL" font-size="9.00" fill="#aaaaaa"> &#160;OK pressed</text>
</g>
<!-- S_ABORTED -->
<g id="node7" class="node">
<title>S_ABORTED</title>
<polygon fill="none" stroke="white" points="270.77,-314 164.77,-314 164.77,-258 270.77,-258 270.77,-314"/>
<text text-anchor="middle" x="217.77" y="-301.2" font-family="Cascadia Code PL" font-size="11.00" fill="cyan">6 · ABORTED</text>
<text text-anchor="middle" x="217.77" y="-289.2" font-family="Cascadia Code PL" font-size="11.00" fill="cyan">─────────────────</text>
<text text-anchor="middle" x="217.77" y="-277.2" font-family="Cascadia Code PL" font-size="11.00" fill="cyan">Esc / Cancel</text>
<text text-anchor="middle" x="217.77" y="-265.2" font-family="Cascadia Code PL" font-size="11.00" fill="cyan">No files written</text>
</g>
<!-- S_DIALOG&#45;&gt;S_ABORTED -->
<g id="edge3" class="edge">
<title>S_DIALOG&#45;&gt;S_ABORTED</title>
<path fill="none" stroke="#cc6666" stroke-dasharray="5,2" d="M138.32,-375.69C148.3,-363.31 159.3,-350 169.77,-338 174.38,-332.7 179.36,-327.2 184.3,-321.85"/>
<polygon fill="#cc6666" stroke="#cc6666" points="187.21,-323.87 191.47,-314.17 182.09,-319.1 187.21,-323.87"/>
<text text-anchor="middle" x="195.77" y="-345.8" font-family="Cascadia Code PL" font-size="9.00" fill="#aaaaaa"> &#160;Cancel / Esc</text>
</g>
<!-- S_VALIDATING&#45;&gt;S_DIALOG -->
<g id="edge4" class="edge">
<title>S_VALIDATING&#45;&gt;S_DIALOG</title>
<path fill="none" stroke="#cc6666" stroke-dasharray="5,2" d="M72.57,-320.17C72.48,-332.2 73.18,-345.82 75.77,-358 76.36,-360.78 77.07,-363.59 77.89,-366.41"/>
<polygon fill="#cc6666" stroke="#cc6666" points="74.56,-367.5 80.98,-375.92 81.22,-365.33 74.56,-367.5"/>
<text text-anchor="middle" x="111.27" y="-350.8" font-family="Cascadia Code PL" font-size="9.00" fill="#aaaaaa"> &#160;Bad params</text>
<text text-anchor="middle" x="111.27" y="-340.8" font-family="Cascadia Code PL" font-size="9.00" fill="#aaaaaa"> &#160;show inline error</text>
</g>
<!-- S_EXTRACTING -->
<g id="node5" class="node">
<title>S_EXTRACTING</title>
<polygon fill="none" stroke="white" points="249.77,-206 127.77,-206 127.77,-114 249.77,-114 249.77,-206"/>
<text text-anchor="middle" x="188.77" y="-193.2" font-family="Cascadia Code PL" font-size="11.00" fill="cyan">4 · EXTRACTING</text>
<text text-anchor="middle" x="188.77" y="-181.2" font-family="Cascadia Code PL" font-size="11.00" fill="cyan">─────────────────</text>
<text text-anchor="middle" x="188.77" y="-169.2" font-family="Cascadia Code PL" font-size="11.00" fill="cyan">Loop rows × cols</text>
<text text-anchor="middle" x="188.77" y="-157.2" font-family="Cascadia Code PL" font-size="11.00" fill="cyan">For each cell:</text>
<text text-anchor="middle" x="188.77" y="-145.2" font-family="Cascadia Code PL" font-size="11.00" fill="cyan"> &#160;_COPYIMAGE region</text>
<text text-anchor="middle" x="188.77" y="-133.2" font-family="Cascadia Code PL" font-size="11.00" fill="cyan"> &#160;Save as PNG</text>
<text text-anchor="middle" x="188.77" y="-121.2" font-family="Cascadia Code PL" font-size="11.00" fill="cyan"> &#160;Index in filename</text>
</g>
<!-- S_VALIDATING&#45;&gt;S_EXTRACTING -->
<g id="edge5" class="edge">
<title>S_VALIDATING&#45;&gt;S_EXTRACTING</title>
<path fill="none" stroke="#cccc66" d="M105.32,-251.77C116.01,-240.14 128.3,-226.77 140.11,-213.93"/>
<polygon fill="#cccc66" stroke="#cccc66" points="142.8,-216.17 146.99,-206.44 137.64,-211.44 142.8,-216.17"/>
<text text-anchor="middle" x="162.27" y="-226.8" font-family="Cascadia Code PL" font-size="9.00" fill="#aaaaaa"> &#160;All params valid</text>
</g>
<!-- S_REPORTING -->
<g id="node6" class="node">
<title>S_REPORTING</title>
<polygon fill="none" stroke="white" points="329.77,-68 211.77,-68 211.77,0 329.77,0 329.77,-68"/>
<text text-anchor="middle" x="270.77" y="-55.2" font-family="Cascadia Code PL" font-size="11.00" fill="cyan">5 · REPORTING</text>
<text text-anchor="middle" x="270.77" y="-43.2" font-family="Cascadia Code PL" font-size="11.00" fill="cyan">─────────────────</text>
<text text-anchor="middle" x="270.77" y="-31.2" font-family="Cascadia Code PL" font-size="11.00" fill="cyan">Progress shown</text>
<text text-anchor="middle" x="270.77" y="-19.2" font-family="Cascadia Code PL" font-size="11.00" fill="cyan">Final count message</text>
<text text-anchor="middle" x="270.77" y="-7.2" font-family="Cascadia Code PL" font-size="11.00" fill="cyan">Open output folder?</text>
</g>
<!-- S_EXTRACTING&#45;&gt;S_REPORTING -->
<g id="edge6" class="edge">
<title>S_EXTRACTING&#45;&gt;S_REPORTING</title>
<path fill="none" stroke="#cccc66" d="M218.6,-113.88C226.64,-101.73 235.29,-88.65 243.19,-76.7"/>
<polygon fill="#cccc66" stroke="#cccc66" points="246.2,-78.5 248.79,-68.23 240.36,-74.64 246.2,-78.5"/>
<text text-anchor="middle" x="266.77" y="-88.8" font-family="Cascadia Code PL" font-size="9.00" fill="#aaaaaa"> &#160;Loop complete</text>
</g>
<!-- S_REPORTING&#45;&gt;S_IDLE -->
<g id="edge7" class="edge">
<title>S_REPORTING&#45;&gt;S_IDLE</title>
<path fill="none" stroke="#cc6666" stroke-dasharray="5,2" d="M293.21,-68.15C296.45,-73.92 299.46,-80.01 301.77,-86 313.65,-116.83 315.77,-125.96 315.77,-159 315.77,-423 315.77,-423 315.77,-423 315.77,-455.1 295.23,-484.97 274.97,-506.62"/>
<polygon fill="#cc6666" stroke="#cc6666" points="272.32,-504.32 267.84,-513.93 277.33,-509.21 272.32,-504.32"/>
<text text-anchor="middle" x="347.77" y="-283.8" font-family="Cascadia Code PL" font-size="9.00" fill="#aaaaaa"> &#160;Acknowledged</text>
</g>
<!-- S_ABORTED&#45;&gt;S_IDLE -->
<g id="edge8" class="edge">
<title>S_ABORTED&#45;&gt;S_IDLE</title>
<path fill="none" stroke="#cc6666" stroke-dasharray="5,2" d="M219.95,-314.26C220.55,-321.94 221.2,-330.29 221.77,-338 226.03,-395.85 230.58,-463.01 233.3,-503.73"/>
<polygon fill="#cc6666" stroke="#cc6666" points="229.81,-504 233.97,-513.74 236.8,-503.53 229.81,-504"/>
<text text-anchor="middle" x="257.77" y="-419.8" font-family="Cascadia Code PL" font-size="9.00" fill="#aaaaaa"> &#160;(immediate)</text>
</g>
<!-- P1 -->
<g id="node8" class="node">
<title>P1</title>
<polygon fill="none" stroke="white" points="837.77,-673.5 751.77,-673.5 751.77,-621.5 837.77,-621.5 837.77,-673.5"/>
<text text-anchor="middle" x="794.77" y="-661.5" font-family="Cascadia Code PL" font-size="10.00" fill="cyan">Cell Size</text>
<text text-anchor="middle" x="794.77" y="-650.5" font-family="Cascadia Code PL" font-size="10.00" fill="cyan">────────────</text>
<text text-anchor="middle" x="794.77" y="-639.5" font-family="Cascadia Code PL" font-size="10.00" fill="cyan">Width × Height</text>
<text text-anchor="middle" x="794.77" y="-628.5" font-family="Cascadia Code PL" font-size="10.00" fill="cyan">in pixels</text>
</g>
<!-- P2 -->
<g id="node9" class="node">
<title>P2</title>
<polygon fill="none" stroke="white" points="733.77,-673.5 653.77,-673.5 653.77,-621.5 733.77,-621.5 733.77,-673.5"/>
<text text-anchor="middle" x="693.77" y="-661.5" font-family="Cascadia Code PL" font-size="10.00" fill="cyan">Offset</text>
<text text-anchor="middle" x="693.77" y="-650.5" font-family="Cascadia Code PL" font-size="10.00" fill="cyan">────────────</text>
<text text-anchor="middle" x="693.77" y="-639.5" font-family="Cascadia Code PL" font-size="10.00" fill="cyan">Start X / Y</text>
<text text-anchor="middle" x="693.77" y="-628.5" font-family="Cascadia Code PL" font-size="10.00" fill="cyan">for grid origin</text>
</g>
<!-- P3 -->
<g id="node10" class="node">
<title>P3</title>
<polygon fill="none" stroke="white" points="635.27,-673.5 522.27,-673.5 522.27,-621.5 635.27,-621.5 635.27,-673.5"/>
<text text-anchor="middle" x="578.77" y="-661.5" font-family="Cascadia Code PL" font-size="10.00" fill="cyan">Source</text>
<text text-anchor="middle" x="578.77" y="-650.5" font-family="Cascadia Code PL" font-size="10.00" fill="cyan">────────────</text>
<text text-anchor="middle" x="578.77" y="-639.5" font-family="Cascadia Code PL" font-size="10.00" fill="cyan">Active layer</text>
<text text-anchor="middle" x="578.77" y="-628.5" font-family="Cascadia Code PL" font-size="10.00" fill="cyan">or merged composite</text>
</g>
<!-- P4 -->
<g id="node11" class="node">
<title>P4</title>
<polygon fill="none" stroke="white" points="504.27,-673.5 373.27,-673.5 373.27,-621.5 504.27,-621.5 504.27,-673.5"/>
<text text-anchor="middle" x="438.77" y="-661.5" font-family="Cascadia Code PL" font-size="10.00" fill="cyan">Output</text>
<text text-anchor="middle" x="438.77" y="-650.5" font-family="Cascadia Code PL" font-size="10.00" fill="cyan">────────────</text>
<text text-anchor="middle" x="438.77" y="-639.5" font-family="Cascadia Code PL" font-size="10.00" fill="cyan">Directory + name pattern</text>
<text text-anchor="middle" x="438.77" y="-628.5" font-family="Cascadia Code PL" font-size="10.00" fill="cyan">e.g. sprite_{row}_{col}.png</text>
</g>
<!-- O1 -->
<g id="node12" class="node">
<title>O1</title>
<polygon fill="none" stroke="white" points="1094.27,-679 993.27,-679 993.27,-616 1094.27,-616 1094.27,-679"/>
<text text-anchor="middle" x="1043.77" y="-667" font-family="Cascadia Code PL" font-size="10.00" fill="cyan">One PNG per cell</text>
<text text-anchor="middle" x="1043.77" y="-656" font-family="Cascadia Code PL" font-size="10.00" fill="cyan">────────────</text>
<text text-anchor="middle" x="1043.77" y="-645" font-family="Cascadia Code PL" font-size="10.00" fill="cyan">Individual files</text>
<text text-anchor="middle" x="1043.77" y="-634" font-family="Cascadia Code PL" font-size="10.00" fill="cyan">No modification of</text>
<text text-anchor="middle" x="1043.77" y="-623" font-family="Cascadia Code PL" font-size="10.00" fill="cyan">source canvas</text>
</g>
<!-- O2 -->
<g id="node13" class="node">
<title>O2</title>
<polygon fill="none" stroke="white" points="975.27,-673.5 862.27,-673.5 862.27,-621.5 975.27,-621.5 975.27,-673.5"/>
<text text-anchor="middle" x="918.77" y="-661.5" font-family="Cascadia Code PL" font-size="10.00" fill="cyan">Skip Empty?</text>
<text text-anchor="middle" x="918.77" y="-650.5" font-family="Cascadia Code PL" font-size="10.00" fill="cyan">────────────</text>
<text text-anchor="middle" x="918.77" y="-639.5" font-family="Cascadia Code PL" font-size="10.00" fill="cyan">Option to skip</text>
<text text-anchor="middle" x="918.77" y="-628.5" font-family="Cascadia Code PL" font-size="10.00" fill="cyan">fully transparent cells</text>
</g>
<!-- L1 -->
<g id="node14" class="node">
<title>L1</title>
<ellipse fill="white" stroke="white" cx="1276.77" cy="-647.5" rx="0.36" ry="0.36"/>
</g>
<!-- L2 -->
<g id="node15" class="node">
<title>L2</title>
<ellipse fill="white" stroke="white" cx="1276.77" cy="-542" rx="0.36" ry="0.36"/>
</g>
<!-- L1&#45;&gt;L2 -->
<g id="edge10" class="edge">
<title>L1&#45;&gt;L2</title>
<path fill="none" stroke="#66cc66" d="M1276.77,-646.42C1276.77,-643.91 1276.77,-578.64 1276.77,-553.1"/>
<polygon fill="#66cc66" stroke="#66cc66" points="1280.27,-553.07 1276.77,-543.07 1273.27,-553.07 1280.27,-553.07"/>
<text text-anchor="middle" x="1289.27" y="-590.8" font-family="Cascadia Code PL" font-size="9.00" fill="#aaaaaa"> Begin</text>
</g>
<!-- L3 -->
<g id="node16" class="node">
<title>L3</title>
<ellipse fill="white" stroke="white" cx="1201.77" cy="-647.5" rx="0.36" ry="0.36"/>
</g>
<!-- L4 -->
<g id="node17" class="node">
<title>L4</title>
<ellipse fill="white" stroke="white" cx="1201.77" cy="-542" rx="0.36" ry="0.36"/>
</g>
<!-- L3&#45;&gt;L4 -->
<g id="edge11" class="edge">
<title>L3&#45;&gt;L4</title>
<path fill="none" stroke="#cc6666" stroke-dasharray="5,2" d="M1201.77,-646.42C1201.77,-643.91 1201.77,-578.64 1201.77,-553.1"/>
<polygon fill="#cc6666" stroke="#cc6666" points="1205.27,-553.07 1201.77,-543.07 1198.27,-553.07 1205.27,-553.07"/>
<text text-anchor="middle" x="1227.77" y="-590.8" font-family="Cascadia Code PL" font-size="9.00" fill="#aaaaaa"> End / Cancel</text>
</g>
<!-- L5 -->
<g id="node18" class="node">
<title>L5</title>
<ellipse fill="white" stroke="white" cx="1136.77" cy="-647.5" rx="0.36" ry="0.36"/>
</g>
<!-- L6 -->
<g id="node19" class="node">
<title>L6</title>
<ellipse fill="white" stroke="white" cx="1136.77" cy="-542" rx="0.36" ry="0.36"/>
</g>
<!-- L5&#45;&gt;L6 -->
<g id="edge12" class="edge">
<title>L5&#45;&gt;L6</title>
<path fill="none" stroke="#cccc66" d="M1136.77,-646.42C1136.77,-643.91 1136.77,-578.64 1136.77,-553.1"/>
<polygon fill="#cccc66" stroke="#cccc66" points="1140.27,-553.07 1136.77,-543.07 1133.27,-553.07 1140.27,-553.07"/>
<text text-anchor="middle" x="1157.77" y="-590.8" font-family="Cascadia Code PL" font-size="9.00" fill="#aaaaaa"> Transition</text>
</g>
</g>
</svg>
