<?xml version="1.0" encoding="UTF-8" standalone="no"?>
<!DOCTYPE svg PUBLIC "-//W3C//DTD SVG 1.1//EN"
 "http://www.w3.org/Graphics/SVG/1.1/DTD/svg11.dtd">
<!-- Generated by graphviz version 2.42.4 (0)
 -->
<!-- Title: EXTRACT_IMAGES_STATES Pages: 1 -->
<svg width="2201pt" height="888pt"
 viewBox="0.00 0.00 2201.34 888.00" xmlns="http://www.w3.org/2000/svg" xmlns:xlink="http://www.w3.org/1999/xlink">
<g id="graph0" class="graph" transform="scale(1 1) rotate(0) translate(4 884)">
<title>EXTRACT_IMAGES_STATES</title>
<text text-anchor="middle" x="1096.67" y="-856.8" font-family="Cascadia Code PL" font-size="24.00" fill="white">EXTRACT IMAGES STATE MACHINE</text>
<g id="clust3" class="cluster">
<title>cluster_bg_mode</title>
<polygon fill="transparent" stroke="orange" stroke-dasharray="5,2" points="210.34,-704 210.34,-820 731.34,-820 731.34,-704 210.34,-704"/>
<text text-anchor="middle" x="271.34" y="-807.2" font-family="Cascadia Code PL" font-size="11.00" fill="white">BACKGROUND MODE</text>
</g>
<g id="clust4" class="cluster">
<title>cluster_naming</title>
<polygon fill="transparent" stroke="orange" stroke-dasharray="5,2" points="739.34,-710 739.34,-814 1115.34,-814 1115.34,-710 739.34,-710"/>
<text text-anchor="middle" x="792.84" y="-801.2" font-family="Cascadia Code PL" font-size="11.00" fill="white">NAMING METHOD</text>
</g>
<g id="clust5" class="cluster">
<title>cluster_detection</title>
<polygon fill="transparent" stroke="orange" stroke-dasharray="5,2" points="1123.34,-704 1123.34,-820 1458.34,-820 1458.34,-704 1123.34,-704"/>
<text text-anchor="middle" x="1194.84" y="-807.2" font-family="Cascadia Code PL" font-size="11.00" fill="white">COMPONENT DETECTION</text>
</g>
<g id="clust6" class="cluster">
<title>cluster_merge</title>
<polygon fill="transparent" stroke="orange" stroke-dasharray="5,2" points="1466.34,-704 1466.34,-820 1740.34,-820 1740.34,-704 1466.34,-704"/>
<text text-anchor="middle" x="1513.34" y="-807.2" font-family="Cascadia Code PL" font-size="11.00" fill="white">MERGE OPTION</text>
</g>
<g id="clust7" class="cluster">
<title>cluster_persistence</title>
<polygon fill="transparent" stroke="orange" stroke-dasharray="5,2" points="1748.34,-686 1748.34,-838 1916.34,-838 1916.34,-686 1748.34,-686"/>
<text text-anchor="middle" x="1819.84" y="-825.2" font-family="Cascadia Code PL" font-size="11.00" fill="white">PERSISTENCE (DRW v14+)</text>
</g>
<g id="clust8" class="cluster">
<title>cluster_legend</title>
<polygon fill="transparent" stroke="white" stroke-dasharray="5,2" points="1924.34,-611.64 1924.34,-780.36 2185.34,-780.36 2185.34,-611.64 1924.34,-611.64"/>
<text text-anchor="middle" x="1952.34" y="-767.56" font-family="Cascadia Code PL" font-size="11.00" fill="white">LEGEND</text>
</g>
<!-- MAIN -->
<g id="node1" class="node">
<title>MAIN</title>
<polygon fill="none" stroke="orange" stroke-width="2" points="200.34,-770 197.34,-774 176.34,-774 173.34,-770 132.34,-770 132.34,-734 200.34,-734 200.34,-770"/>
<text text-anchor="middle" x="166.34" y="-755.6" font-family="Cascadia Code PL" font-size="13.00" fill="orange">EXTRACT</text>
<text text-anchor="middle" x="166.34" y="-741.6" font-family="Cascadia Code PL" font-size="13.00" fill="orange">IMAGES</text>
</g>
<!-- S_IDLE -->
<g id="node2" class="node">
<title>S_IDLE</title>
<polygon fill="none" stroke="white" points="230.34,-648 102.34,-648 102.34,-592 230.34,-592 230.34,-648"/>
<text text-anchor="middle" x="166.34" y="-635.2" font-family="Cascadia Code PL" font-size="11.00" fill="cyan">1 · IDLE</text>
<text text-anchor="middle" x="166.34" y="-623.2" font-family="Cascadia Code PL" font-size="11.00" fill="cyan">─────────────────</text>
<text text-anchor="middle" x="166.34" y="-611.2" font-family="Cascadia Code PL" font-size="11.00" fill="cyan">No extraction active</text>
<text text-anchor="middle" x="166.34" y="-599.2" font-family="Cascadia Code PL" font-size="11.00" fill="cyan">Normal drawing mode</text>
</g>
<!-- MAIN&#45;&gt;S_IDLE -->
<g id="edge8" class="edge">
<title>MAIN&#45;&gt;S_IDLE</title>
<path fill="none" stroke="#555555" stroke-dasharray="1,5" d="M166.34,-733.74C166.34,-711.91 166.34,-674.08 166.34,-648.32"/>
</g>
<!-- S_CONFIG -->
<g id="node3" class="node">
<title>S_CONFIG</title>
<polygon fill="none" stroke="white" points="174.34,-536 28.34,-536 28.34,-432 174.34,-432 174.34,-536"/>
<text text-anchor="middle" x="101.34" y="-523.2" font-family="Cascadia Code PL" font-size="11.00" fill="cyan">2 · CONFIGURE</text>
<text text-anchor="middle" x="101.34" y="-511.2" font-family="Cascadia Code PL" font-size="11.00" fill="cyan">─────────────────</text>
<text text-anchor="middle" x="101.34" y="-499.2" font-family="Cascadia Code PL" font-size="11.00" fill="cyan">EXTRACT_IMAGES_dialog()</text>
<text text-anchor="middle" x="101.34" y="-487.2" font-family="Cascadia Code PL" font-size="11.00" fill="cyan">Settings dialog open</text>
<text text-anchor="middle" x="101.34" y="-475.2" font-family="Cascadia Code PL" font-size="11.00" fill="cyan">• Background mode</text>
<text text-anchor="middle" x="101.34" y="-463.2" font-family="Cascadia Code PL" font-size="11.00" fill="cyan">• Output directory</text>
<text text-anchor="middle" x="101.34" y="-451.2" font-family="Cascadia Code PL" font-size="11.00" fill="cyan">• Naming method</text>
<text text-anchor="middle" x="101.34" y="-439.2" font-family="Cascadia Code PL" font-size="11.00" fill="cyan">• Merge layers option</text>
</g>
<!-- S_IDLE&#45;&gt;S_CONFIG -->
<g id="edge1" class="edge">
<title>S_IDLE&#45;&gt;S_CONFIG</title>
<path fill="none" stroke="#66cc66" d="M102.07,-609C62.93,-601.45 18.23,-589.7 6.34,-574 -6.5,-557.05 2.93,-540.54 19.99,-526.43"/>
<polygon fill="#66cc66" stroke="#66cc66" points="22.46,-528.95 28.32,-520.12 18.24,-523.37 22.46,-528.95"/>
<text text-anchor="middle" x="53.34" y="-566.8" font-family="Cascadia Code PL" font-size="9.00" fill="#aaaaaa"> &#160;Tools → Extract Images</text>
<text text-anchor="middle" x="53.34" y="-556.8" font-family="Cascadia Code PL" font-size="9.00" fill="#aaaaaa"> &#160;Open config dialog</text>
</g>
<!-- S_CONFIG&#45;&gt;S_IDLE -->
<g id="edge3" class="edge">
<title>S_CONFIG&#45;&gt;S_IDLE</title>
<path fill="none" stroke="#cc6666" stroke-dasharray="5,2" d="M109.18,-536.14C112.43,-549 116.98,-562.42 123.34,-574 125.16,-577.32 127.29,-580.58 129.61,-583.72"/>
<polygon fill="#cc6666" stroke="#cc6666" points="127.11,-586.18 136.11,-591.76 132.55,-581.78 127.11,-586.18"/>
<text text-anchor="middle" x="159.84" y="-566.8" font-family="Cascadia Code PL" font-size="9.00" fill="#aaaaaa"> &#160;Cancel</text>
<text text-anchor="middle" x="159.84" y="-556.8" font-family="Cascadia Code PL" font-size="9.00" fill="#aaaaaa"> &#160;cancelled = TRUE</text>
</g>
<!-- S_DETECT -->
<g id="node4" class="node">
<title>S_DETECT</title>
<polygon fill="none" stroke="white" points="261.84,-376 104.84,-376 104.84,-284 261.84,-284 261.84,-376"/>
<text text-anchor="middle" x="183.34" y="-363.2" font-family="Cascadia Code PL" font-size="11.00" fill="cyan">3 · DETECTING</text>
<text text-anchor="middle" x="183.34" y="-351.2" font-family="Cascadia Code PL" font-size="11.00" fill="cyan">─────────────────</text>
<text text-anchor="middle" x="183.34" y="-339.2" font-family="Cascadia Code PL" font-size="11.00" fill="cyan">EXTRACT_find_components()</text>
<text text-anchor="middle" x="183.34" y="-327.2" font-family="Cascadia Code PL" font-size="11.00" fill="cyan">8&#45;connected flood fill</text>
<text text-anchor="middle" x="183.34" y="-315.2" font-family="Cascadia Code PL" font-size="11.00" fill="cyan">Label each pixel by</text>
<text text-anchor="middle" x="183.34" y="-303.2" font-family="Cascadia Code PL" font-size="11.00" fill="cyan">component ID</text>
<text text-anchor="middle" x="183.34" y="-291.2" font-family="Cascadia Code PL" font-size="11.00" fill="cyan">Build bounding boxes</text>
</g>
<!-- S_CONFIG&#45;&gt;S_DETECT -->
<g id="edge2" class="edge">
<title>S_CONFIG&#45;&gt;S_DETECT</title>
<path fill="none" stroke="#cccc66" d="M109.2,-431.87C112.44,-419.01 116.98,-405.58 123.34,-394 125.11,-390.76 127.1,-387.57 129.23,-384.44"/>
<polygon fill="#cccc66" stroke="#cccc66" points="132.09,-386.46 135.2,-376.33 126.45,-382.31 132.09,-386.46"/>
<text text-anchor="middle" x="159.84" y="-406.8" font-family="Cascadia Code PL" font-size="9.00" fill="#aaaaaa"> &#160;OK / Extract</text>
<text text-anchor="middle" x="159.84" y="-396.8" font-family="Cascadia Code PL" font-size="9.00" fill="#aaaaaa"> &#160;Begin processing</text>
</g>
<!-- S_DETECT&#45;&gt;S_IDLE -->
<g id="edge5" class="edge">
<title>S_DETECT&#45;&gt;S_IDLE</title>
<path fill="none" stroke="#cc6666" stroke-dasharray="5,2" d="M194.85,-376.45C205.37,-426.12 216.48,-507.48 196.34,-574 195.44,-576.96 194.28,-579.9 192.93,-582.78"/>
<polygon fill="#cc6666" stroke="#cc6666" points="189.78,-581.26 188.12,-591.73 195.94,-584.58 189.78,-581.26"/>
<text text-anchor="middle" x="246.34" y="-486.8" font-family="Cascadia Code PL" font-size="9.00" fill="#aaaaaa"> &#160;No components</text>
<text text-anchor="middle" x="246.34" y="-476.8" font-family="Cascadia Code PL" font-size="9.00" fill="#aaaaaa"> &#160;Nothing to extract</text>
</g>
<!-- S_SAVING -->
<g id="node5" class="node">
<title>S_SAVING</title>
<polygon fill="none" stroke="white" points="266.34,-228 112.34,-228 112.34,-136 266.34,-136 266.34,-228"/>
<text text-anchor="middle" x="189.34" y="-215.2" font-family="Cascadia Code PL" font-size="11.00" fill="cyan">4 · SAVING</text>
<text text-anchor="middle" x="189.34" y="-203.2" font-family="Cascadia Code PL" font-size="11.00" fill="cyan">─────────────────</text>
<text text-anchor="middle" x="189.34" y="-191.2" font-family="Cascadia Code PL" font-size="11.00" fill="cyan">EXTRACT_save_component()</text>
<text text-anchor="middle" x="189.34" y="-179.2" font-family="Cascadia Code PL" font-size="11.00" fill="cyan">For each component:</text>
<text text-anchor="middle" x="189.34" y="-167.2" font-family="Cascadia Code PL" font-size="11.00" fill="cyan">• Crop to bounding box</text>
<text text-anchor="middle" x="189.34" y="-155.2" font-family="Cascadia Code PL" font-size="11.00" fill="cyan">• Write PNG with alpha</text>
<text text-anchor="middle" x="189.34" y="-143.2" font-family="Cascadia Code PL" font-size="11.00" fill="cyan">Progress dialog shown</text>
</g>
<!-- S_DETECT&#45;&gt;S_SAVING -->
<g id="edge4" class="edge">
<title>S_DETECT&#45;&gt;S_SAVING</title>
<path fill="none" stroke="#cccc66" d="M183.33,-283.75C183.48,-271.5 183.78,-258.24 184.34,-246 184.45,-243.46 184.59,-240.86 184.74,-238.24"/>
<polygon fill="#cccc66" stroke="#cccc66" points="188.25,-238.26 185.39,-228.06 181.26,-237.82 188.25,-238.26"/>
<text text-anchor="middle" x="243.34" y="-258.8" font-family="Cascadia Code PL" font-size="9.00" fill="#aaaaaa"> &#160;Components found</text>
<text text-anchor="middle" x="243.34" y="-248.8" font-family="Cascadia Code PL" font-size="9.00" fill="#aaaaaa"> &#160;EXTRACT_COMP_COUNT &gt; 0</text>
</g>
<!-- S_COMPLETE -->
<g id="node6" class="node">
<title>S_COMPLETE</title>
<polygon fill="none" stroke="white" points="319.34,-80 191.34,-80 191.34,0 319.34,0 319.34,-80"/>
<text text-anchor="middle" x="255.34" y="-67.2" font-family="Cascadia Code PL" font-size="11.00" fill="cyan">5 · COMPLETE</text>
<text text-anchor="middle" x="255.34" y="-55.2" font-family="Cascadia Code PL" font-size="11.00" fill="cyan">─────────────────</text>
<text text-anchor="middle" x="255.34" y="-43.2" font-family="Cascadia Code PL" font-size="11.00" fill="cyan">All components saved</text>
<text text-anchor="middle" x="255.34" y="-31.2" font-family="Cascadia Code PL" font-size="11.00" fill="cyan">Open output folder</text>
<text text-anchor="middle" x="255.34" y="-19.2" font-family="Cascadia Code PL" font-size="11.00" fill="cyan">optional (file manager)</text>
<text text-anchor="middle" x="255.34" y="-7.2" font-family="Cascadia Code PL" font-size="11.00" fill="cyan">Return to idle</text>
</g>
<!-- S_SAVING&#45;&gt;S_COMPLETE -->
<g id="edge6" class="edge">
<title>S_SAVING&#45;&gt;S_COMPLETE</title>
<path fill="none" stroke="#cccc66" d="M193.63,-135.67C195.99,-123.03 199.66,-109.6 205.34,-98 206.89,-94.83 208.67,-91.7 210.6,-88.63"/>
<polygon fill="#cccc66" stroke="#cccc66" points="213.63,-90.41 216.42,-80.19 207.86,-86.43 213.63,-90.41"/>
<text text-anchor="middle" x="253.84" y="-110.8" font-family="Cascadia Code PL" font-size="9.00" fill="#aaaaaa"> &#160;All saved</text>
<text text-anchor="middle" x="253.84" y="-100.8" font-family="Cascadia Code PL" font-size="9.00" fill="#aaaaaa"> &#160;EXTRACT_open_folder()</text>
</g>
<!-- S_COMPLETE&#45;&gt;S_IDLE -->
<g id="edge7" class="edge">
<title>S_COMPLETE&#45;&gt;S_IDLE</title>
<path fill="none" stroke="#cc6666" stroke-dasharray="5,2" d="M291.8,-80.02C295.85,-85.75 299.51,-91.82 302.34,-98 317.88,-132.03 316.34,-143.59 316.34,-181 316.34,-485 316.34,-485 316.34,-485 316.34,-530.58 277.34,-564.52 239.11,-586.84"/>
<polygon fill="#cc6666" stroke="#cc6666" points="236.96,-584.03 229.95,-591.98 240.38,-590.13 236.96,-584.03"/>
<text text-anchor="middle" x="345.34" y="-332.8" font-family="Cascadia Code PL" font-size="9.00" fill="#aaaaaa"> &#160;Return to</text>
<text text-anchor="middle" x="345.34" y="-322.8" font-family="Cascadia Code PL" font-size="9.00" fill="#aaaaaa"> &#160;normal mode</text>
</g>
<!-- BG_TRANS -->
<g id="node7" class="node">
<title>BG_TRANS</title>
<polygon fill="none" stroke="white" points="723.34,-792 553.34,-792 553.34,-712 723.34,-712 723.34,-792"/>
<text text-anchor="middle" x="638.34" y="-779.2" font-family="Cascadia Code PL" font-size="11.00" fill="cyan">Transparent</text>
<text text-anchor="middle" x="638.34" y="-767.2" font-family="Cascadia Code PL" font-size="11.00" fill="cyan">─────────────────</text>
<text text-anchor="middle" x="638.34" y="-755.2" font-family="Cascadia Code PL" font-size="11.00" fill="cyan">EXTRACT_BG_TRANSPARENT=0</text>
<text text-anchor="middle" x="638.34" y="-743.2" font-family="Cascadia Code PL" font-size="11.00" fill="cyan">Ignore fully transparent</text>
<text text-anchor="middle" x="638.34" y="-731.2" font-family="Cascadia Code PL" font-size="11.00" fill="cyan">pixels (alpha=0)</text>
<text text-anchor="middle" x="638.34" y="-719.2" font-family="Cascadia Code PL" font-size="11.00" fill="cyan">Components = opaque blobs</text>
</g>
<!-- BG_FG -->
<g id="node8" class="node">
<title>BG_FG</title>
<polygon fill="none" stroke="white" points="534.84,-786 385.84,-786 385.84,-718 534.84,-718 534.84,-786"/>
<text text-anchor="middle" x="460.34" y="-773.2" font-family="Cascadia Code PL" font-size="11.00" fill="cyan">FG Color</text>
<text text-anchor="middle" x="460.34" y="-761.2" font-family="Cascadia Code PL" font-size="11.00" fill="cyan">─────────────────</text>
<text text-anchor="middle" x="460.34" y="-749.2" font-family="Cascadia Code PL" font-size="11.00" fill="cyan">EXTRACT_BG_FG_COLOR=1</text>
<text text-anchor="middle" x="460.34" y="-737.2" font-family="Cascadia Code PL" font-size="11.00" fill="cyan">Treat FG color as BG</text>
<text text-anchor="middle" x="460.34" y="-725.2" font-family="Cascadia Code PL" font-size="11.00" fill="cyan">Exclude from components</text>
</g>
<!-- BG_BG -->
<g id="node9" class="node">
<title>BG_BG</title>
<polygon fill="none" stroke="white" points="368.34,-786 218.34,-786 218.34,-718 368.34,-718 368.34,-786"/>
<text text-anchor="middle" x="293.34" y="-773.2" font-family="Cascadia Code PL" font-size="11.00" fill="cyan">BG Color</text>
<text text-anchor="middle" x="293.34" y="-761.2" font-family="Cascadia Code PL" font-size="11.00" fill="cyan">─────────────────</text>
<text text-anchor="middle" x="293.34" y="-749.2" font-family="Cascadia Code PL" font-size="11.00" fill="cyan">EXTRACT_BG_BG_COLOR=2</text>
<text text-anchor="middle" x="293.34" y="-737.2" font-family="Cascadia Code PL" font-size="11.00" fill="cyan">Treat BG color as BG</text>
<text text-anchor="middle" x="293.34" y="-725.2" font-family="Cascadia Code PL" font-size="11.00" fill="cyan">Exclude from components</text>
</g>
<!-- N_NUM -->
<g id="node10" class="node">
<title>N_NUM</title>
<polygon fill="none" stroke="white" points="1106.84,-786 943.84,-786 943.84,-718 1106.84,-718 1106.84,-786"/>
<text text-anchor="middle" x="1025.34" y="-773.2" font-family="Cascadia Code PL" font-size="11.00" fill="cyan">Sequential Numbers</text>
<text text-anchor="middle" x="1025.34" y="-761.2" font-family="Cascadia Code PL" font-size="11.00" fill="cyan">─────────────────</text>
<text text-anchor="middle" x="1025.34" y="-749.2" font-family="Cascadia Code PL" font-size="11.00" fill="cyan">EXTRACT_NAME_NUMBERS=0</text>
<text text-anchor="middle" x="1025.34" y="-737.2" font-family="Cascadia Code PL" font-size="11.00" fill="cyan">base_001.png, base_002.png</text>
<text text-anchor="middle" x="1025.34" y="-725.2" font-family="Cascadia Code PL" font-size="11.00" fill="cyan">startNumber configurable</text>
</g>
<!-- N_LAYER -->
<g id="node11" class="node">
<title>N_LAYER</title>
<polygon fill="none" stroke="white" points="925.34,-786 747.34,-786 747.34,-718 925.34,-718 925.34,-786"/>
<text text-anchor="middle" x="836.34" y="-773.2" font-family="Cascadia Code PL" font-size="11.00" fill="cyan">Layer Names</text>
<text text-anchor="middle" x="836.34" y="-761.2" font-family="Cascadia Code PL" font-size="11.00" fill="cyan">─────────────────</text>
<text text-anchor="middle" x="836.34" y="-749.2" font-family="Cascadia Code PL" font-size="11.00" fill="cyan">EXTRACT_NAME_LAYER_NAME=1</text>
<text text-anchor="middle" x="836.34" y="-737.2" font-family="Cascadia Code PL" font-size="11.00" fill="cyan">Use source layer name</text>
<text text-anchor="middle" x="836.34" y="-725.2" font-family="Cascadia Code PL" font-size="11.00" fill="cyan">as output filename</text>
</g>
<!-- D1 -->
<g id="node12" class="node">
<title>D1</title>
<polygon fill="none" stroke="white" points="1449.84,-792 1286.84,-792 1286.84,-712 1449.84,-712 1449.84,-792"/>
<text text-anchor="middle" x="1368.34" y="-779.2" font-family="Cascadia Code PL" font-size="11.00" fill="cyan">Flood Fill Labeling</text>
<text text-anchor="middle" x="1368.34" y="-767.2" font-family="Cascadia Code PL" font-size="11.00" fill="cyan">─────────────────</text>
<text text-anchor="middle" x="1368.34" y="-755.2" font-family="Cascadia Code PL" font-size="11.00" fill="cyan">EXTRACT_LABELS(x,y)</text>
<text text-anchor="middle" x="1368.34" y="-743.2" font-family="Cascadia Code PL" font-size="11.00" fill="cyan">Each pixel gets component ID</text>
<text text-anchor="middle" x="1368.34" y="-731.2" font-family="Cascadia Code PL" font-size="11.00" fill="cyan">8&#45;connected connectivity</text>
<text text-anchor="middle" x="1368.34" y="-719.2" font-family="Cascadia Code PL" font-size="11.00" fill="cyan">(includes diagonals)</text>
</g>
<!-- D2 -->
<g id="node13" class="node">
<title>D2</title>
<polygon fill="none" stroke="white" points="1268.84,-792 1131.84,-792 1131.84,-712 1268.84,-712 1268.84,-792"/>
<text text-anchor="middle" x="1200.34" y="-779.2" font-family="Cascadia Code PL" font-size="11.00" fill="cyan">EXTRACT_COMPS()</text>
<text text-anchor="middle" x="1200.34" y="-767.2" font-family="Cascadia Code PL" font-size="11.00" fill="cyan">─────────────────</text>
<text text-anchor="middle" x="1200.34" y="-755.2" font-family="Cascadia Code PL" font-size="11.00" fill="cyan">Per&#45;component:</text>
<text text-anchor="middle" x="1200.34" y="-743.2" font-family="Cascadia Code PL" font-size="11.00" fill="cyan">• minX/Y, maxX/Y (bbox)</text>
<text text-anchor="middle" x="1200.34" y="-731.2" font-family="Cascadia Code PL" font-size="11.00" fill="cyan">• pixelCount</text>
<text text-anchor="middle" x="1200.34" y="-719.2" font-family="Cascadia Code PL" font-size="11.00" fill="cyan">• origIndex</text>
</g>
<!-- MG_OFF -->
<g id="node14" class="node">
<title>MG_OFF</title>
<polygon fill="none" stroke="white" points="1731.84,-786 1610.84,-786 1610.84,-718 1731.84,-718 1731.84,-786"/>
<text text-anchor="middle" x="1671.34" y="-773.2" font-family="Cascadia Code PL" font-size="11.00" fill="cyan">Per&#45;Layer Mode</text>
<text text-anchor="middle" x="1671.34" y="-761.2" font-family="Cascadia Code PL" font-size="11.00" fill="cyan">─────────────────</text>
<text text-anchor="middle" x="1671.34" y="-749.2" font-family="Cascadia Code PL" font-size="11.00" fill="cyan">mergeLayers = FALSE</text>
<text text-anchor="middle" x="1671.34" y="-737.2" font-family="Cascadia Code PL" font-size="11.00" fill="cyan">Extract from each</text>
<text text-anchor="middle" x="1671.34" y="-725.2" font-family="Cascadia Code PL" font-size="11.00" fill="cyan">layer separately</text>
</g>
<!-- MG_ON -->
<g id="node15" class="node">
<title>MG_ON</title>
<polygon fill="none" stroke="white" points="1592.34,-792 1474.34,-792 1474.34,-712 1592.34,-712 1592.34,-792"/>
<text text-anchor="middle" x="1533.34" y="-779.2" font-family="Cascadia Code PL" font-size="11.00" fill="cyan">Merged Mode</text>
<text text-anchor="middle" x="1533.34" y="-767.2" font-family="Cascadia Code PL" font-size="11.00" fill="cyan">─────────────────</text>
<text text-anchor="middle" x="1533.34" y="-755.2" font-family="Cascadia Code PL" font-size="11.00" fill="cyan">mergeLayers = TRUE</text>
<text text-anchor="middle" x="1533.34" y="-743.2" font-family="Cascadia Code PL" font-size="11.00" fill="cyan">Flatten all layers</text>
<text text-anchor="middle" x="1533.34" y="-731.2" font-family="Cascadia Code PL" font-size="11.00" fill="cyan">then extract from</text>
<text text-anchor="middle" x="1533.34" y="-719.2" font-family="Cascadia Code PL" font-size="11.00" fill="cyan">merged result</text>
</g>
<!-- P1 -->
<g id="node16" class="node">
<title>P1</title>
<polygon fill="none" stroke="white" points="1907.84,-810 1756.84,-810 1756.84,-694 1907.84,-694 1907.84,-810"/>
<text text-anchor="middle" x="1832.34" y="-797.2" font-family="Cascadia Code PL" font-size="11.00" fill="cyan">Saved Config</text>
<text text-anchor="middle" x="1832.34" y="-785.2" font-family="Cascadia Code PL" font-size="11.00" fill="cyan">─────────────────</text>
<text text-anchor="middle" x="1832.34" y="-773.2" font-family="Cascadia Code PL" font-size="11.00" fill="cyan">EXTRACT_SAVED_BG_MODE</text>
<text text-anchor="middle" x="1832.34" y="-761.2" font-family="Cascadia Code PL" font-size="11.00" fill="cyan">*_BASE_FILENAME</text>
<text text-anchor="middle" x="1832.34" y="-749.2" font-family="Cascadia Code PL" font-size="11.00" fill="cyan">*_NAMING_METHOD</text>
<text text-anchor="middle" x="1832.34" y="-737.2" font-family="Cascadia Code PL" font-size="11.00" fill="cyan">*_START_NUMBER</text>
<text text-anchor="middle" x="1832.34" y="-725.2" font-family="Cascadia Code PL" font-size="11.00" fill="cyan">*_APPEND_DIMS</text>
<text text-anchor="middle" x="1832.34" y="-713.2" font-family="Cascadia Code PL" font-size="11.00" fill="cyan">*_MERGE_LAYERS</text>
<text text-anchor="middle" x="1832.34" y="-701.2" font-family="Cascadia Code PL" font-size="11.00" fill="cyan">*_DEST_DIR</text>
</g>
<!-- L1 -->
<g id="node17" class="node">
<title>L1</title>
<ellipse fill="white" stroke="white" cx="2116.34" cy="-752" rx="0.36" ry="0.36"/>
</g>
<!-- L2 -->
<g id="node18" class="node">
<title>L2</title>
<ellipse fill="white" stroke="white" cx="2116.34" cy="-620" rx="0.36" ry="0.36"/>
</g>
<!-- L1&#45;&gt;L2 -->
<g id="edge9" class="edge">
<title>L1&#45;&gt;L2</title>
<path fill="none" stroke="#66cc66" d="M2116.34,-750.91C2116.34,-747.67 2116.34,-661.8 2116.34,-631.48"/>
<polygon fill="#66cc66" stroke="#66cc66" points="2119.84,-631.09 2116.34,-621.09 2112.84,-631.09 2119.84,-631.09"/>
<text text-anchor="middle" x="2146.84" y="-668.8" font-family="Cascadia Code PL" font-size="9.00" fill="#aaaaaa"> Activate / Start</text>
</g>
<!-- L3 -->
<g id="node19" class="node">
<title>L3</title>
<ellipse fill="white" stroke="white" cx="2031.34" cy="-752" rx="0.36" ry="0.36"/>
</g>
<!-- L4 -->
<g id="node20" class="node">
<title>L4</title>
<ellipse fill="white" stroke="white" cx="2031.34" cy="-620" rx="0.36" ry="0.36"/>
</g>
<!-- L3&#45;&gt;L4 -->
<g id="edge10" class="edge">
<title>L3&#45;&gt;L4</title>
<path fill="none" stroke="#cc6666" stroke-dasharray="5,2" d="M2031.34,-750.91C2031.34,-747.67 2031.34,-661.8 2031.34,-631.48"/>
<polygon fill="#cc6666" stroke="#cc6666" points="2034.84,-631.09 2031.34,-621.09 2027.84,-631.09 2034.84,-631.09"/>
<text text-anchor="middle" x="2062.34" y="-668.8" font-family="Cascadia Code PL" font-size="9.00" fill="#aaaaaa"> Cancel / Empty</text>
</g>
<!-- L5 -->
<g id="node21" class="node">
<title>L5</title>
<ellipse fill="white" stroke="white" cx="1950.34" cy="-752" rx="0.36" ry="0.36"/>
</g>
<!-- L6 -->
<g id="node22" class="node">
<title>L6</title>
<ellipse fill="white" stroke="white" cx="1950.34" cy="-620" rx="0.36" ry="0.36"/>
</g>
<!-- L5&#45;&gt;L6 -->
<g id="edge11" class="edge">
<title>L5&#45;&gt;L6</title>
<path fill="none" stroke="#cccc66" d="M1950.34,-750.91C1950.34,-747.67 1950.34,-661.8 1950.34,-631.48"/>
<polygon fill="#cccc66" stroke="#cccc66" points="1953.84,-631.09 1950.34,-621.09 1946.84,-631.09 1953.84,-631.09"/>
<text text-anchor="middle" x="1979.34" y="-668.8" font-family="Cascadia Code PL" font-size="9.00" fill="#aaaaaa"> Step / Process</text>
</g>
</g>
</svg>
