<?xml version="1.0" encoding="UTF-8" standalone="no"?>
<!DOCTYPE svg PUBLIC "-//W3C//DTD SVG 1.1//EN"
 "http://www.w3.org/Graphics/SVG/1.1/DTD/svg11.dtd">
<!-- Generated by graphviz version 2.42.4 (0)
 -->
<!-- Title: EXTRACT_LAYERS_GRID Pages: 1 -->
<svg width="1219pt" height="847pt"
 viewBox="0.00 0.00 1219.16 847.00" xmlns="http://www.w3.org/2000/svg" xmlns:xlink="http://www.w3.org/1999/xlink">
<g id="graph0" class="graph" transform="scale(1 1) rotate(0) translate(4 843)">
<title>EXTRACT_LAYERS_GRID</title>
<text text-anchor="middle" x="605.58" y="-815.8" font-family="Cascadia Code PL" font-size="24.00" fill="white">EXTRACT TO LAYERS FROM GRID STATE MACHINE</text>
<g id="clust2" class="cluster">
<title>cluster_params</title>
<polygon fill="transparent" stroke="orange" stroke-dasharray="5,2" points="339.16,-703.5 339.16,-791.5 803.16,-791.5 803.16,-703.5 339.16,-703.5"/>
<text text-anchor="middle" x="380.16" y="-778.7" font-family="Cascadia Code PL" font-size="11.00" fill="orange">PARAMETERS</text>
</g>
<g id="clust3" class="cluster">
<title>cluster_diff</title>
<polygon fill="transparent" stroke="orange" stroke-dasharray="5,2" points="811.16,-698 811.16,-797 996.16,-797 996.16,-698 811.16,-698"/>
<text text-anchor="middle" x="903.66" y="-784.2" font-family="Cascadia Code PL" font-size="11.00" fill="orange">DIFFERENCE FROM EXTRACT&#45;GRID</text>
</g>
<g id="clust5" class="cluster">
<title>cluster_legend</title>
<polygon fill="transparent" stroke="white" stroke-dasharray="5,2" points="1004.16,-629.64 1004.16,-765.86 1203.16,-765.86 1203.16,-629.64 1004.16,-629.64"/>
<text text-anchor="middle" x="1032.16" y="-753.06" font-family="Cascadia Code PL" font-size="11.00" fill="white">LEGEND</text>
</g>
<!-- MAIN -->
<g id="node1" class="node">
<title>MAIN</title>
<polygon fill="none" stroke="orange" stroke-width="2" points="329.16,-755.5 326.16,-759.5 305.16,-759.5 302.16,-755.5 123.16,-755.5 123.16,-719.5 329.16,-719.5 329.16,-755.5"/>
<text text-anchor="middle" x="226.16" y="-734.1" font-family="Cascadia Code PL" font-size="13.00" fill="orange">EXTRACT TO LAYERS FROM GRID</text>
</g>
<!-- S_IDLE -->
<g id="node2" class="node">
<title>S_IDLE</title>
<polygon fill="none" stroke="white" points="288.16,-660 164.16,-660 164.16,-616 288.16,-616 288.16,-660"/>
<text text-anchor="middle" x="226.16" y="-647.2" font-family="Cascadia Code PL" font-size="11.00" fill="cyan">1 · IDLE</text>
<text text-anchor="middle" x="226.16" y="-635.2" font-family="Cascadia Code PL" font-size="11.00" fill="cyan">─────────────────</text>
<text text-anchor="middle" x="226.16" y="-623.2" font-family="Cascadia Code PL" font-size="11.00" fill="cyan">No extraction running</text>
</g>
<!-- MAIN&#45;&gt;S_IDLE -->
<g id="edge10" class="edge">
<title>MAIN&#45;&gt;S_IDLE</title>
<path fill="none" stroke="#555555" stroke-dasharray="1,5" d="M226.16,-719.07C226.16,-702.53 226.16,-677.64 226.16,-660.01"/>
</g>
<!-- S_DIALOG -->
<g id="node3" class="node">
<title>S_DIALOG</title>
<polygon fill="none" stroke="white" points="164.66,-570 35.66,-570 35.66,-490 164.66,-490 164.66,-570"/>
<text text-anchor="middle" x="100.16" y="-557.2" font-family="Cascadia Code PL" font-size="11.00" fill="cyan">2 · DIALOG OPEN</text>
<text text-anchor="middle" x="100.16" y="-545.2" font-family="Cascadia Code PL" font-size="11.00" fill="cyan">─────────────────</text>
<text text-anchor="middle" x="100.16" y="-533.2" font-family="Cascadia Code PL" font-size="11.00" fill="cyan">File → Extract To Layers</text>
<text text-anchor="middle" x="100.16" y="-521.2" font-family="Cascadia Code PL" font-size="11.00" fill="cyan">From Grid...</text>
<text text-anchor="middle" x="100.16" y="-509.2" font-family="Cascadia Code PL" font-size="11.00" fill="cyan">Cell W/H, offset,</text>
<text text-anchor="middle" x="100.16" y="-497.2" font-family="Cascadia Code PL" font-size="11.00" fill="cyan">naming pattern</text>
</g>
<!-- S_IDLE&#45;&gt;S_DIALOG -->
<g id="edge1" class="edge">
<title>S_IDLE&#45;&gt;S_DIALOG</title>
<path fill="none" stroke="#66cc66" d="M163.76,-616.54C153.82,-611.5 144.18,-605.38 136.16,-598 130.28,-592.6 125.17,-586.01 120.79,-579.09"/>
<polygon fill="#66cc66" stroke="#66cc66" points="123.69,-577.12 115.64,-570.23 117.64,-580.63 123.69,-577.12"/>
<text text-anchor="middle" x="174.16" y="-590.8" font-family="Cascadia Code PL" font-size="9.00" fill="#aaaaaa"> &#160;Menu action fired</text>
</g>
<!-- S_VALIDATING -->
<g id="node4" class="node">
<title>S_VALIDATING</title>
<polygon fill="none" stroke="white" points="135.66,-444 12.66,-444 12.66,-388 135.66,-388 135.66,-444"/>
<text text-anchor="middle" x="74.16" y="-431.2" font-family="Cascadia Code PL" font-size="11.00" fill="cyan">3 · VALIDATING</text>
<text text-anchor="middle" x="74.16" y="-419.2" font-family="Cascadia Code PL" font-size="11.00" fill="cyan">─────────────────</text>
<text text-anchor="middle" x="74.16" y="-407.2" font-family="Cascadia Code PL" font-size="11.00" fill="cyan">Params valid?</text>
<text text-anchor="middle" x="74.16" y="-395.2" font-family="Cascadia Code PL" font-size="11.00" fill="cyan">Canvas large enough?</text>
</g>
<!-- S_DIALOG&#45;&gt;S_VALIDATING -->
<g id="edge2" class="edge">
<title>S_DIALOG&#45;&gt;S_VALIDATING</title>
<path fill="none" stroke="#cccc66" d="M35.16,-503.51C22.38,-495.41 10.63,-485.05 3.16,-472 -1.58,-463.73 -0,-456.28 5.13,-449.72"/>
<polygon fill="#cccc66" stroke="#cccc66" points="7.89,-451.92 12.63,-442.44 3.02,-446.89 7.89,-451.92"/>
<text text-anchor="middle" x="27.66" y="-464.8" font-family="Cascadia Code PL" font-size="9.00" fill="#aaaaaa"> &#160;OK pressed</text>
</g>
<!-- S_ABORTED -->
<g id="node8" class="node">
<title>S_ABORTED</title>
<polygon fill="none" stroke="white" points="269.16,-444 163.16,-444 163.16,-388 269.16,-388 269.16,-444"/>
<text text-anchor="middle" x="216.16" y="-431.2" font-family="Cascadia Code PL" font-size="11.00" fill="cyan">7 · ABORTED</text>
<text text-anchor="middle" x="216.16" y="-419.2" font-family="Cascadia Code PL" font-size="11.00" fill="cyan">─────────────────</text>
<text text-anchor="middle" x="216.16" y="-407.2" font-family="Cascadia Code PL" font-size="11.00" fill="cyan">Esc / Cancel</text>
<text text-anchor="middle" x="216.16" y="-395.2" font-family="Cascadia Code PL" font-size="11.00" fill="cyan">No layers added</text>
</g>
<!-- S_DIALOG&#45;&gt;S_ABORTED -->
<g id="edge3" class="edge">
<title>S_DIALOG&#45;&gt;S_ABORTED</title>
<path fill="none" stroke="#cc6666" stroke-dasharray="5,2" d="M133.39,-489.73C141.83,-480.36 151.09,-470.59 160.16,-462 164.12,-458.25 168.36,-454.46 172.67,-450.76"/>
<polygon fill="#cc6666" stroke="#cc6666" points="175.05,-453.34 180.46,-444.23 170.55,-447.98 175.05,-453.34"/>
<text text-anchor="middle" x="186.16" y="-464.8" font-family="Cascadia Code PL" font-size="9.00" fill="#aaaaaa"> &#160;Cancel / Esc</text>
</g>
<!-- S_VALIDATING&#45;&gt;S_DIALOG -->
<g id="edge4" class="edge">
<title>S_VALIDATING&#45;&gt;S_DIALOG</title>
<path fill="none" stroke="#cc6666" stroke-dasharray="5,2" d="M72.54,-444.1C72.56,-453.07 73.19,-463.04 75.16,-472 75.74,-474.68 76.46,-477.39 77.27,-480.09"/>
<polygon fill="#cc6666" stroke="#cc6666" points="74.05,-481.48 80.59,-489.81 80.67,-479.22 74.05,-481.48"/>
<text text-anchor="middle" x="106.16" y="-464.8" font-family="Cascadia Code PL" font-size="9.00" fill="#aaaaaa"> &#160;Invalid params</text>
</g>
<!-- S_EXTRACTING -->
<g id="node5" class="node">
<title>S_EXTRACTING</title>
<polygon fill="none" stroke="white" points="243.66,-342 112.66,-342 112.66,-238 243.66,-238 243.66,-342"/>
<text text-anchor="middle" x="178.16" y="-329.2" font-family="Cascadia Code PL" font-size="11.00" fill="cyan">4 · EXTRACTING</text>
<text text-anchor="middle" x="178.16" y="-317.2" font-family="Cascadia Code PL" font-size="11.00" fill="cyan">─────────────────</text>
<text text-anchor="middle" x="178.16" y="-305.2" font-family="Cascadia Code PL" font-size="11.00" fill="cyan">Loop rows × cols</text>
<text text-anchor="middle" x="178.16" y="-293.2" font-family="Cascadia Code PL" font-size="11.00" fill="cyan">For each cell:</text>
<text text-anchor="middle" x="178.16" y="-281.2" font-family="Cascadia Code PL" font-size="11.00" fill="cyan"> &#160;Create new layer</text>
<text text-anchor="middle" x="178.16" y="-269.2" font-family="Cascadia Code PL" font-size="11.00" fill="cyan"> &#160;Copy cell pixels in</text>
<text text-anchor="middle" x="178.16" y="-257.2" font-family="Cascadia Code PL" font-size="11.00" fill="cyan"> &#160;Set layer name</text>
<text text-anchor="middle" x="178.16" y="-245.2" font-family="Cascadia Code PL" font-size="11.00" fill="cyan"> &#160;contentDirty% = TRUE</text>
</g>
<!-- S_VALIDATING&#45;&gt;S_EXTRACTING -->
<g id="edge5" class="edge">
<title>S_VALIDATING&#45;&gt;S_EXTRACTING</title>
<path fill="none" stroke="#cccc66" d="M96.98,-387.79C106.38,-376.58 117.65,-363.14 128.77,-349.88"/>
<polygon fill="#cccc66" stroke="#cccc66" points="131.54,-352.03 135.28,-342.12 126.17,-347.53 131.54,-352.03"/>
<text text-anchor="middle" x="132.66" y="-362.8" font-family="Cascadia Code PL" font-size="9.00" fill="#aaaaaa"> &#160;Valid</text>
</g>
<!-- S_FINALIZING -->
<g id="node6" class="node">
<title>S_FINALIZING</title>
<polygon fill="none" stroke="white" points="278.16,-192 148.16,-192 148.16,-124 278.16,-124 278.16,-192"/>
<text text-anchor="middle" x="213.16" y="-179.2" font-family="Cascadia Code PL" font-size="11.00" fill="cyan">5 · FINALIZING</text>
<text text-anchor="middle" x="213.16" y="-167.2" font-family="Cascadia Code PL" font-size="11.00" fill="cyan">─────────────────</text>
<text text-anchor="middle" x="213.16" y="-155.2" font-family="Cascadia Code PL" font-size="11.00" fill="cyan">HISTORY_record state</text>
<text text-anchor="middle" x="213.16" y="-143.2" font-family="Cascadia Code PL" font-size="11.00" fill="cyan">Layer panel refresh</text>
<text text-anchor="middle" x="213.16" y="-131.2" font-family="Cascadia Code PL" font-size="11.00" fill="cyan">SCENE_DIRTY% = TRUE</text>
</g>
<!-- S_EXTRACTING&#45;&gt;S_FINALIZING -->
<g id="edge6" class="edge">
<title>S_EXTRACTING&#45;&gt;S_FINALIZING</title>
<path fill="none" stroke="#cccc66" d="M191.89,-237.99C195.09,-226.11 198.46,-213.57 201.56,-202.07"/>
<polygon fill="#cccc66" stroke="#cccc66" points="204.98,-202.84 204.2,-192.27 198.22,-201.02 204.98,-202.84"/>
<text text-anchor="middle" x="237.66" y="-212.8" font-family="Cascadia Code PL" font-size="9.00" fill="#aaaaaa"> &#160;All cells processed</text>
</g>
<!-- S_DONE -->
<g id="node7" class="node">
<title>S_DONE</title>
<polygon fill="none" stroke="white" points="320.66,-68 197.66,-68 197.66,0 320.66,0 320.66,-68"/>
<text text-anchor="middle" x="259.16" y="-55.2" font-family="Cascadia Code PL" font-size="11.00" fill="cyan">6 · DONE</text>
<text text-anchor="middle" x="259.16" y="-43.2" font-family="Cascadia Code PL" font-size="11.00" fill="cyan">─────────────────</text>
<text text-anchor="middle" x="259.16" y="-31.2" font-family="Cascadia Code PL" font-size="11.00" fill="cyan">Layers visible in panel</text>
<text text-anchor="middle" x="259.16" y="-19.2" font-family="Cascadia Code PL" font-size="11.00" fill="cyan">Layer count message</text>
<text text-anchor="middle" x="259.16" y="-7.2" font-family="Cascadia Code PL" font-size="11.00" fill="cyan">Return to idle</text>
</g>
<!-- S_FINALIZING&#45;&gt;S_DONE -->
<g id="edge7" class="edge">
<title>S_FINALIZING&#45;&gt;S_DONE</title>
<path fill="none" stroke="#cccc66" d="M219.06,-123.89C221.75,-111.74 225.41,-98.03 230.16,-86 231.3,-83.11 232.58,-80.18 233.95,-77.27"/>
<polygon fill="#cccc66" stroke="#cccc66" points="237.21,-78.58 238.58,-68.08 230.96,-75.44 237.21,-78.58"/>
<text text-anchor="middle" x="261.16" y="-98.8" font-family="Cascadia Code PL" font-size="9.00" fill="#aaaaaa"> &#160;History saved</text>
<text text-anchor="middle" x="261.16" y="-88.8" font-family="Cascadia Code PL" font-size="9.00" fill="#aaaaaa"> &#160;panel updated</text>
</g>
<!-- S_DONE&#45;&gt;S_IDLE -->
<g id="edge8" class="edge">
<title>S_DONE&#45;&gt;S_IDLE</title>
<path fill="none" stroke="#cc6666" stroke-dasharray="5,2" d="M283.06,-68.03C286.5,-73.82 289.7,-79.94 292.16,-86 304.22,-115.81 306.16,-124.84 306.16,-157 306.16,-531 306.16,-531 306.16,-531 306.16,-562.01 284.08,-589.69 263.12,-608.98"/>
<polygon fill="#cc6666" stroke="#cc6666" points="260.68,-606.47 255.49,-615.7 265.31,-611.72 260.68,-606.47"/>
<text text-anchor="middle" x="338.16" y="-362.8" font-family="Cascadia Code PL" font-size="9.00" fill="#aaaaaa"> &#160;Acknowledged</text>
</g>
<!-- S_ABORTED&#45;&gt;S_IDLE -->
<g id="edge9" class="edge">
<title>S_ABORTED&#45;&gt;S_IDLE</title>
<path fill="none" stroke="#cc6666" stroke-dasharray="5,2" d="M217.39,-444.15C219.25,-485.09 222.77,-562.42 224.73,-605.68"/>
<polygon fill="#cc6666" stroke="#cc6666" points="221.25,-606.07 225.2,-615.91 228.24,-605.76 221.25,-606.07"/>
<text text-anchor="middle" x="249.16" y="-527.8" font-family="Cascadia Code PL" font-size="9.00" fill="#aaaaaa"> &#160;(immediate)</text>
</g>
<!-- P1 -->
<g id="node9" class="node">
<title>P1</title>
<polygon fill="none" stroke="white" points="795.16,-758 709.16,-758 709.16,-717 795.16,-717 795.16,-758"/>
<text text-anchor="middle" x="752.16" y="-746" font-family="Cascadia Code PL" font-size="10.00" fill="cyan">Cell Size</text>
<text text-anchor="middle" x="752.16" y="-735" font-family="Cascadia Code PL" font-size="10.00" fill="cyan">────────────</text>
<text text-anchor="middle" x="752.16" y="-724" font-family="Cascadia Code PL" font-size="10.00" fill="cyan">Width × Height</text>
</g>
<!-- P2 -->
<g id="node10" class="node">
<title>P2</title>
<polygon fill="none" stroke="white" points="690.66,-758 601.66,-758 601.66,-717 690.66,-717 690.66,-758"/>
<text text-anchor="middle" x="646.16" y="-746" font-family="Cascadia Code PL" font-size="10.00" fill="cyan">Offset</text>
<text text-anchor="middle" x="646.16" y="-735" font-family="Cascadia Code PL" font-size="10.00" fill="cyan">────────────</text>
<text text-anchor="middle" x="646.16" y="-724" font-family="Cascadia Code PL" font-size="10.00" fill="cyan">Grid origin X / Y</text>
</g>
<!-- P3 -->
<g id="node11" class="node">
<title>P3</title>
<polygon fill="none" stroke="white" points="583.16,-763.5 479.16,-763.5 479.16,-711.5 583.16,-711.5 583.16,-763.5"/>
<text text-anchor="middle" x="531.16" y="-751.5" font-family="Cascadia Code PL" font-size="10.00" fill="cyan">Naming</text>
<text text-anchor="middle" x="531.16" y="-740.5" font-family="Cascadia Code PL" font-size="10.00" fill="cyan">────────────</text>
<text text-anchor="middle" x="531.16" y="-729.5" font-family="Cascadia Code PL" font-size="10.00" fill="cyan">Layer name pattern</text>
<text text-anchor="middle" x="531.16" y="-718.5" font-family="Cascadia Code PL" font-size="10.00" fill="cyan">e.g. cell_{row}_{col}</text>
</g>
<!-- P4 -->
<g id="node12" class="node">
<title>P4</title>
<polygon fill="none" stroke="white" points="460.66,-763.5 347.66,-763.5 347.66,-711.5 460.66,-711.5 460.66,-763.5"/>
<text text-anchor="middle" x="404.16" y="-751.5" font-family="Cascadia Code PL" font-size="10.00" fill="cyan">Source</text>
<text text-anchor="middle" x="404.16" y="-740.5" font-family="Cascadia Code PL" font-size="10.00" fill="cyan">────────────</text>
<text text-anchor="middle" x="404.16" y="-729.5" font-family="Cascadia Code PL" font-size="10.00" fill="cyan">Active layer</text>
<text text-anchor="middle" x="404.16" y="-718.5" font-family="Cascadia Code PL" font-size="10.00" fill="cyan">or merged composite</text>
</g>
<!-- D1 -->
<g id="node13" class="node">
<title>D1</title>
<polygon fill="none" stroke="white" points="973.16,-769 833.16,-769 833.16,-706 973.16,-706 973.16,-769"/>
<text text-anchor="middle" x="903.16" y="-757" font-family="Cascadia Code PL" font-size="10.00" fill="cyan">Output</text>
<text text-anchor="middle" x="903.16" y="-746" font-family="Cascadia Code PL" font-size="10.00" fill="cyan">────────────</text>
<text text-anchor="middle" x="903.16" y="-735" font-family="Cascadia Code PL" font-size="10.00" fill="cyan">Layers in current document</text>
<text text-anchor="middle" x="903.16" y="-724" font-family="Cascadia Code PL" font-size="10.00" fill="cyan">(NOT external PNG files)</text>
<text text-anchor="middle" x="903.16" y="-713" font-family="Cascadia Code PL" font-size="10.00" fill="cyan">Undoable via HISTORY</text>
</g>
<!-- L1 -->
<g id="node14" class="node">
<title>L1</title>
<ellipse fill="white" stroke="white" cx="1170.16" cy="-737.5" rx="0.36" ry="0.36"/>
</g>
<!-- L2 -->
<g id="node15" class="node">
<title>L2</title>
<ellipse fill="white" stroke="white" cx="1170.16" cy="-638" rx="0.36" ry="0.36"/>
</g>
<!-- L1&#45;&gt;L2 -->
<g id="edge11" class="edge">
<title>L1&#45;&gt;L2</title>
<path fill="none" stroke="#66cc66" d="M1170.16,-736.43C1170.16,-734.08 1170.16,-673.74 1170.16,-649.22"/>
<polygon fill="#66cc66" stroke="#66cc66" points="1173.66,-649.07 1170.16,-639.07 1166.66,-649.07 1173.66,-649.07"/>
<text text-anchor="middle" x="1182.66" y="-680.8" font-family="Cascadia Code PL" font-size="9.00" fill="#aaaaaa"> Begin</text>
</g>
<!-- L3 -->
<g id="node16" class="node">
<title>L3</title>
<ellipse fill="white" stroke="white" cx="1095.16" cy="-737.5" rx="0.36" ry="0.36"/>
</g>
<!-- L4 -->
<g id="node17" class="node">
<title>L4</title>
<ellipse fill="white" stroke="white" cx="1095.16" cy="-638" rx="0.36" ry="0.36"/>
</g>
<!-- L3&#45;&gt;L4 -->
<g id="edge12" class="edge">
<title>L3&#45;&gt;L4</title>
<path fill="none" stroke="#cc6666" stroke-dasharray="5,2" d="M1095.16,-736.43C1095.16,-734.08 1095.16,-673.74 1095.16,-649.22"/>
<polygon fill="#cc6666" stroke="#cc6666" points="1098.66,-649.07 1095.16,-639.07 1091.66,-649.07 1098.66,-649.07"/>
<text text-anchor="middle" x="1121.16" y="-680.8" font-family="Cascadia Code PL" font-size="9.00" fill="#aaaaaa"> End / Cancel</text>
</g>
<!-- L5 -->
<g id="node18" class="node">
<title>L5</title>
<ellipse fill="white" stroke="white" cx="1030.16" cy="-737.5" rx="0.36" ry="0.36"/>
</g>
<!-- L6 -->
<g id="node19" class="node">
<title>L6</title>
<ellipse fill="white" stroke="white" cx="1030.16" cy="-638" rx="0.36" ry="0.36"/>
</g>
<!-- L5&#45;&gt;L6 -->
<g id="edge13" class="edge">
<title>L5&#45;&gt;L6</title>
<path fill="none" stroke="#cccc66" d="M1030.16,-736.43C1030.16,-734.08 1030.16,-673.74 1030.16,-649.22"/>
<polygon fill="#cccc66" stroke="#cccc66" points="1033.66,-649.07 1030.16,-639.07 1026.66,-649.07 1033.66,-649.07"/>
<text text-anchor="middle" x="1051.16" y="-680.8" font-family="Cascadia Code PL" font-size="9.00" fill="#aaaaaa"> Transition</text>
</g>
</g>
</svg>
