<?xml version="1.0" encoding="UTF-8" standalone="no"?>
<!DOCTYPE svg PUBLIC "-//W3C//DTD SVG 1.1//EN"
 "http://www.w3.org/Graphics/SVG/1.1/DTD/svg11.dtd">
<!-- Generated by graphviz version 2.42.4 (0)
 -->
<!-- Title: IMAGE_IMPORT_STATES Pages: 1 -->
<svg width="2274pt" height="778pt"
 viewBox="0.00 0.00 2274.00 778.00" xmlns="http://www.w3.org/2000/svg" xmlns:xlink="http://www.w3.org/1999/xlink">
<g id="graph0" class="graph" transform="scale(1 1) rotate(0) translate(4 774)">
<title>IMAGE_IMPORT_STATES</title>
<text text-anchor="middle" x="1133" y="-746.8" font-family="Cascadia Code PL" font-size="24.00" fill="white">IMAGE IMPORT STATE MACHINE</text>
<g id="clust3" class="cluster">
<title>cluster_transform</title>
<polygon fill="transparent" stroke="orange" stroke-dasharray="5,2" points="270,-600 270,-716 932,-716 932,-600 270,-600"/>
<text text-anchor="middle" x="343" y="-703.2" font-family="Cascadia Code PL" font-size="11.00" fill="white">IN&#45;PLACE TRANSFORMS</text>
</g>
<g id="clust4" class="cluster">
<title>cluster_crop</title>
<polygon fill="transparent" stroke="orange" stroke-dasharray="5,2" points="940,-606 940,-710 1492,-710 1492,-606 940,-606"/>
<text text-anchor="middle" x="1025" y="-697.2" font-family="Cascadia Code PL" font-size="11.00" fill="white">CROP/ZOOM WITHIN IMAGE</text>
</g>
<g id="clust5" class="cluster">
<title>cluster_resize</title>
<polygon fill="transparent" stroke="orange" stroke-dasharray="5,2" points="1500,-594 1500,-722 1656,-722 1656,-594 1500,-594"/>
<text text-anchor="middle" x="1555" y="-709.2" font-family="Cascadia Code PL" font-size="11.00" fill="white">RESIZE HANDLES</text>
</g>
<g id="clust6" class="cluster">
<title>cluster_drag_drop</title>
<polygon fill="transparent" stroke="orange" stroke-dasharray="5,2" points="1664,-588 1664,-728 1862,-728 1862,-588 1664,-588"/>
<text text-anchor="middle" x="1731" y="-715.2" font-family="Cascadia Code PL" font-size="11.00" fill="white">DRAG &amp; DROP ENTRY</text>
</g>
<g id="clust7" class="cluster">
<title>cluster_legend</title>
<polygon fill="transparent" stroke="white" stroke-dasharray="5,2" points="1870,-507.64 1870,-676.36 2258,-676.36 2258,-507.64 1870,-507.64"/>
<text text-anchor="middle" x="1900.5" y="-663.56" font-family="Cascadia Code PL" font-size="11.00" fill="white">LEGEND</text>
</g>
<!-- MAIN -->
<g id="node1" class="node">
<title>MAIN</title>
<polygon fill="none" stroke="orange" stroke-width="2" points="260,-666 257,-670 236,-670 233,-666 194,-666 194,-630 260,-630 260,-666"/>
<text text-anchor="middle" x="227" y="-651.6" font-family="Cascadia Code PL" font-size="13.00" fill="orange">IMAGE</text>
<text text-anchor="middle" x="227" y="-637.6" font-family="Cascadia Code PL" font-size="13.00" fill="orange">IMPORT</text>
</g>
<!-- S_IDLE -->
<g id="node2" class="node">
<title>S_IDLE</title>
<polygon fill="none" stroke="white" points="296,-550 158,-550 158,-482 296,-482 296,-550"/>
<text text-anchor="middle" x="227" y="-537.2" font-family="Cascadia Code PL" font-size="11.00" fill="cyan">1 · IDLE</text>
<text text-anchor="middle" x="227" y="-525.2" font-family="Cascadia Code PL" font-size="11.00" fill="cyan">─────────────────</text>
<text text-anchor="middle" x="227" y="-513.2" font-family="Cascadia Code PL" font-size="11.00" fill="cyan">IMPORT_STATE_IDLE</text>
<text text-anchor="middle" x="227" y="-501.2" font-family="Cascadia Code PL" font-size="11.00" fill="cyan">No import active</text>
<text text-anchor="middle" x="227" y="-489.2" font-family="Cascadia Code PL" font-size="11.00" fill="cyan">Normal drawing mode</text>
</g>
<!-- MAIN&#45;&gt;S_IDLE -->
<g id="edge8" class="edge">
<title>MAIN&#45;&gt;S_IDLE</title>
<path fill="none" stroke="#555555" stroke-dasharray="1,5" d="M227,-629.74C227,-609.5 227,-575.51 227,-550.13"/>
</g>
<!-- S_LOADED -->
<g id="node3" class="node">
<title>S_LOADED</title>
<polygon fill="none" stroke="white" points="158,-406 0,-406 0,-326 158,-326 158,-406"/>
<text text-anchor="middle" x="79" y="-393.2" font-family="Cascadia Code PL" font-size="11.00" fill="cyan">2 · LOADED</text>
<text text-anchor="middle" x="79" y="-381.2" font-family="Cascadia Code PL" font-size="11.00" fill="cyan">─────────────────</text>
<text text-anchor="middle" x="79" y="-369.2" font-family="Cascadia Code PL" font-size="11.00" fill="cyan">IMPORT_STATE_LOADED</text>
<text text-anchor="middle" x="79" y="-357.2" font-family="Cascadia Code PL" font-size="11.00" fill="cyan">IMAGE &lt; &#45;1 (valid handle)</text>
<text text-anchor="middle" x="79" y="-345.2" font-family="Cascadia Code PL" font-size="11.00" fill="cyan">FILENAME set</text>
<text text-anchor="middle" x="79" y="-333.2" font-family="Cascadia Code PL" font-size="11.00" fill="cyan">Waiting for marquee box</text>
</g>
<!-- S_IDLE&#45;&gt;S_LOADED -->
<g id="edge1" class="edge">
<title>S_IDLE&#45;&gt;S_LOADED</title>
<path fill="none" stroke="#66cc66" d="M157.71,-509.32C127.47,-502.99 94.72,-490.08 76,-464 66.24,-450.4 64.51,-432.74 66.04,-416.22"/>
<polygon fill="#66cc66" stroke="#66cc66" points="69.53,-416.51 67.38,-406.13 62.6,-415.59 69.53,-416.51"/>
<text text-anchor="middle" x="144.5" y="-456.8" font-family="Cascadia Code PL" font-size="9.00" fill="#aaaaaa"> &#160;File → IMPORT IMAGE... (208)</text>
<text text-anchor="middle" x="144.5" y="-446.8" font-family="Cascadia Code PL" font-size="9.00" fill="#aaaaaa"> &#160;File dialog opens</text>
<text text-anchor="middle" x="144.5" y="-436.8" font-family="Cascadia Code PL" font-size="9.00" fill="#aaaaaa"> &#160;IMAGE_IMPORT_load_file%()</text>
<text text-anchor="middle" x="144.5" y="-426.8" font-family="Cascadia Code PL" font-size="9.00" fill="#aaaaaa"> &#160;IMAGE = _LOADIMAGE</text>
</g>
<!-- S_PLACING -->
<g id="node4" class="node">
<title>S_PLACING</title>
<polygon fill="none" stroke="white" points="308,-250 146,-250 146,-158 308,-158 308,-250"/>
<text text-anchor="middle" x="227" y="-237.2" font-family="Cascadia Code PL" font-size="11.00" fill="cyan">3 · PLACING</text>
<text text-anchor="middle" x="227" y="-225.2" font-family="Cascadia Code PL" font-size="11.00" fill="cyan">─────────────────</text>
<text text-anchor="middle" x="227" y="-213.2" font-family="Cascadia Code PL" font-size="11.00" fill="cyan">IMPORT_STATE_PLACING</text>
<text text-anchor="middle" x="227" y="-201.2" font-family="Cascadia Code PL" font-size="11.00" fill="cyan">Marquee drawn on canvas</text>
<text text-anchor="middle" x="227" y="-189.2" font-family="Cascadia Code PL" font-size="11.00" fill="cyan">DEST_X/Y/W/H set</text>
<text text-anchor="middle" x="227" y="-177.2" font-family="Cascadia Code PL" font-size="11.00" fill="cyan">Resize handles active</text>
<text text-anchor="middle" x="227" y="-165.2" font-family="Cascadia Code PL" font-size="11.00" fill="cyan">Crop+zoom adjustable</text>
</g>
<!-- S_LOADED&#45;&gt;S_PLACING -->
<g id="edge2" class="edge">
<title>S_LOADED&#45;&gt;S_PLACING</title>
<path fill="none" stroke="#66cc66" d="M75.4,-325.89C75.62,-306.79 79,-284.45 91,-268 102.55,-252.15 119.09,-240.18 136.68,-231.17"/>
<polygon fill="#66cc66" stroke="#66cc66" points="138.45,-234.2 145.95,-226.72 135.42,-227.89 138.45,-234.2"/>
<text text-anchor="middle" x="152" y="-300.8" font-family="Cascadia Code PL" font-size="9.00" fill="#aaaaaa"> &#160;Draw marquee on canvas</text>
<text text-anchor="middle" x="152" y="-290.8" font-family="Cascadia Code PL" font-size="9.00" fill="#aaaaaa"> &#160;IMAGE_IMPORT_start_</text>
<text text-anchor="middle" x="152" y="-280.8" font-family="Cascadia Code PL" font-size="9.00" fill="#aaaaaa"> &#160;placement()</text>
<text text-anchor="middle" x="152" y="-270.8" font-family="Cascadia Code PL" font-size="9.00" fill="#aaaaaa"> &#160;DEST_X/Y/W/H set</text>
</g>
<!-- S_PLACING&#45;&gt;S_IDLE -->
<g id="edge6" class="edge">
<title>S_PLACING&#45;&gt;S_IDLE</title>
<path fill="none" stroke="#cccc66" d="M227,-250.15C227,-309.59 227,-413.36 227,-471.81"/>
<polygon fill="#cccc66" stroke="#cccc66" points="223.5,-471.82 227,-481.82 230.5,-471.82 223.5,-471.82"/>
<text text-anchor="middle" x="299.5" y="-378.8" font-family="Cascadia Code PL" font-size="9.00" fill="#aaaaaa"> &#160;Enter → Commit</text>
<text text-anchor="middle" x="299.5" y="-368.8" font-family="Cascadia Code PL" font-size="9.00" fill="#aaaaaa"> &#160;IMAGE_IMPORT_apply()</text>
<text text-anchor="middle" x="299.5" y="-358.8" font-family="Cascadia Code PL" font-size="9.00" fill="#aaaaaa"> &#160;Paste crop to layer</text>
<text text-anchor="middle" x="299.5" y="-348.8" font-family="Cascadia Code PL" font-size="9.00" fill="#aaaaaa"> &#160;HISTORY_record + PREV_TOOL</text>
</g>
<!-- S_PLACING&#45;&gt;S_IDLE -->
<g id="edge7" class="edge">
<title>S_PLACING&#45;&gt;S_IDLE</title>
<path fill="none" stroke="#cc6666" stroke-dasharray="5,2" d="M307.63,-250.08C334.5,-269.62 361.32,-295.16 376,-326 391.28,-358.1 392.09,-374.29 376,-406 360.62,-436.31 332.42,-460.21 304.66,-477.81"/>
<polygon fill="#cc6666" stroke="#cc6666" points="302.77,-474.86 296.07,-483.07 306.43,-480.83 302.77,-474.86"/>
<text text-anchor="middle" x="444.5" y="-378.8" font-family="Cascadia Code PL" font-size="9.00" fill="#aaaaaa"> &#160;Escape → Cancel</text>
<text text-anchor="middle" x="444.5" y="-368.8" font-family="Cascadia Code PL" font-size="9.00" fill="#aaaaaa"> &#160;IMAGE_IMPORT_cancel()</text>
<text text-anchor="middle" x="444.5" y="-358.8" font-family="Cascadia Code PL" font-size="9.00" fill="#aaaaaa"> &#160;Free IMAGE handle</text>
<text text-anchor="middle" x="444.5" y="-348.8" font-family="Cascadia Code PL" font-size="9.00" fill="#aaaaaa"> &#160;PREV_TOOL restored</text>
</g>
<!-- S_PLACING&#45;&gt;S_PLACING -->
<g id="edge5" class="edge">
<title>S_PLACING&#45;&gt;S_PLACING</title>
<path fill="none" stroke="#88aacc" d="M308.18,-216.9C318.89,-214.7 326,-210.4 326,-204 326,-199.8 322.94,-196.51 317.81,-194.12"/>
<polygon fill="#88aacc" stroke="#88aacc" points="318.77,-190.75 308.18,-191.1 316.68,-197.43 318.77,-190.75"/>
<text text-anchor="middle" x="377.5" y="-221.8" font-family="Cascadia Code PL" font-size="9.00" fill="#aaaaaa"> &#160;Resize handles drag</text>
<text text-anchor="middle" x="377.5" y="-211.8" font-family="Cascadia Code PL" font-size="9.00" fill="#aaaaaa"> &#160;RESIZING = TRUE</text>
<text text-anchor="middle" x="377.5" y="-201.8" font-family="Cascadia Code PL" font-size="9.00" fill="#aaaaaa"> &#160;DEST W/H updated</text>
<text text-anchor="middle" x="377.5" y="-191.8" font-family="Cascadia Code PL" font-size="9.00" fill="#aaaaaa"> &#160;or scroll wheel zoom</text>
<text text-anchor="middle" x="377.5" y="-181.8" font-family="Cascadia Code PL" font-size="9.00" fill="#aaaaaa"> &#160;CROP window adjusts</text>
</g>
<!-- S_PANNING -->
<g id="node5" class="node">
<title>S_PANNING</title>
<polygon fill="none" stroke="white" points="303,-92 151,-92 151,0 303,0 303,-92"/>
<text text-anchor="middle" x="227" y="-79.2" font-family="Cascadia Code PL" font-size="11.00" fill="cyan">4 · PANNING</text>
<text text-anchor="middle" x="227" y="-67.2" font-family="Cascadia Code PL" font-size="11.00" fill="cyan">─────────────────</text>
<text text-anchor="middle" x="227" y="-55.2" font-family="Cascadia Code PL" font-size="11.00" fill="cyan">IMPORT_STATE_PANNING</text>
<text text-anchor="middle" x="227" y="-43.2" font-family="Cascadia Code PL" font-size="11.00" fill="cyan">Middle&#45;click pan active</text>
<text text-anchor="middle" x="227" y="-31.2" font-family="Cascadia Code PL" font-size="11.00" fill="cyan">within crop area</text>
<text text-anchor="middle" x="227" y="-19.2" font-family="Cascadia Code PL" font-size="11.00" fill="cyan">PAN_X/Y adjusting</text>
<text text-anchor="middle" x="227" y="-7.2" font-family="Cascadia Code PL" font-size="11.00" fill="cyan">CROP window shifts</text>
</g>
<!-- S_PLACING&#45;&gt;S_PANNING -->
<g id="edge3" class="edge">
<title>S_PLACING&#45;&gt;S_PANNING</title>
<path fill="none" stroke="#6699ff" d="M169.03,-157.99C164.63,-152.4 160.81,-146.38 158,-140 152.62,-127.8 152.62,-122.2 158,-110 159.45,-106.71 161.17,-103.52 163.1,-100.43"/>
<polygon fill="#6699ff" stroke="#6699ff" points="166.13,-102.2 169.03,-92.01 160.41,-98.17 166.13,-102.2"/>
<text text-anchor="middle" x="217" y="-132.8" font-family="Cascadia Code PL" font-size="9.00" fill="#aaaaaa"> &#160;Middle&#45;click drag</text>
<text text-anchor="middle" x="217" y="-122.8" font-family="Cascadia Code PL" font-size="9.00" fill="#aaaaaa"> &#160;PANNING = TRUE</text>
<text text-anchor="middle" x="217" y="-112.8" font-family="Cascadia Code PL" font-size="9.00" fill="#aaaaaa"> &#160;PAN_START_X/Y = mouse</text>
</g>
<!-- S_PANNING&#45;&gt;S_PLACING -->
<g id="edge4" class="edge">
<title>S_PANNING&#45;&gt;S_PLACING</title>
<path fill="none" stroke="#6699ff" d="M267.43,-92.09C270.9,-97.82 273.89,-103.84 276,-110 280.33,-122.61 280.33,-127.39 276,-140 274.94,-143.08 273.67,-146.13 272.22,-149.12"/>
<polygon fill="#6699ff" stroke="#6699ff" points="269.14,-147.45 267.43,-157.91 275.29,-150.81 269.14,-147.45"/>
<text text-anchor="middle" x="331" y="-132.8" font-family="Cascadia Code PL" font-size="9.00" fill="#aaaaaa"> &#160;Middle&#45;click release</text>
<text text-anchor="middle" x="331" y="-122.8" font-family="Cascadia Code PL" font-size="9.00" fill="#aaaaaa"> &#160;PANNING = FALSE</text>
<text text-anchor="middle" x="331" y="-112.8" font-family="Cascadia Code PL" font-size="9.00" fill="#aaaaaa"> &#160;PAN offset committed</text>
</g>
<!-- T_ROT -->
<g id="node6" class="node">
<title>T_ROT</title>
<polygon fill="none" stroke="white" points="924,-682 772,-682 772,-614 924,-614 924,-682"/>
<text text-anchor="middle" x="848" y="-669.2" font-family="Cascadia Code PL" font-size="11.00" fill="cyan">Rotation</text>
<text text-anchor="middle" x="848" y="-657.2" font-family="Cascadia Code PL" font-size="11.00" fill="cyan">─────────────────</text>
<text text-anchor="middle" x="848" y="-645.2" font-family="Cascadia Code PL" font-size="11.00" fill="cyan">ROTATION: 0/90/180/270</text>
<text text-anchor="middle" x="848" y="-633.2" font-family="Cascadia Code PL" font-size="11.00" fill="cyan">Rotate imported image</text>
<text text-anchor="middle" x="848" y="-621.2" font-family="Cascadia Code PL" font-size="11.00" fill="cyan">before commit</text>
</g>
<!-- T_FLIP -->
<g id="node7" class="node">
<title>T_FLIP</title>
<polygon fill="none" stroke="white" points="754,-682 614,-682 614,-614 754,-614 754,-682"/>
<text text-anchor="middle" x="684" y="-669.2" font-family="Cascadia Code PL" font-size="11.00" fill="cyan">Flip</text>
<text text-anchor="middle" x="684" y="-657.2" font-family="Cascadia Code PL" font-size="11.00" fill="cyan">─────────────────</text>
<text text-anchor="middle" x="684" y="-645.2" font-family="Cascadia Code PL" font-size="11.00" fill="cyan">FLIP_H/V flags</text>
<text text-anchor="middle" x="684" y="-633.2" font-family="Cascadia Code PL" font-size="11.00" fill="cyan">Mirror imported image</text>
<text text-anchor="middle" x="684" y="-621.2" font-family="Cascadia Code PL" font-size="11.00" fill="cyan">before commit</text>
</g>
<!-- T_SCALE -->
<g id="node8" class="node">
<title>T_SCALE</title>
<polygon fill="none" stroke="white" points="596,-682 436,-682 436,-614 596,-614 596,-682"/>
<text text-anchor="middle" x="516" y="-669.2" font-family="Cascadia Code PL" font-size="11.00" fill="cyan">Scale</text>
<text text-anchor="middle" x="516" y="-657.2" font-family="Cascadia Code PL" font-size="11.00" fill="cyan">─────────────────</text>
<text text-anchor="middle" x="516" y="-645.2" font-family="Cascadia Code PL" font-size="11.00" fill="cyan">SCALE_FACTOR (1.0=orig)</text>
<text text-anchor="middle" x="516" y="-633.2" font-family="Cascadia Code PL" font-size="11.00" fill="cyan">Cumulative scaling</text>
<text text-anchor="middle" x="516" y="-621.2" font-family="Cascadia Code PL" font-size="11.00" fill="cyan">PREVIEW_IMG cached</text>
</g>
<!-- T_ASPECT -->
<g id="node9" class="node">
<title>T_ASPECT</title>
<polygon fill="none" stroke="white" points="418,-688 278,-688 278,-608 418,-608 418,-688"/>
<text text-anchor="middle" x="348" y="-675.2" font-family="Cascadia Code PL" font-size="11.00" fill="cyan">Aspect Lock</text>
<text text-anchor="middle" x="348" y="-663.2" font-family="Cascadia Code PL" font-size="11.00" fill="cyan">─────────────────</text>
<text text-anchor="middle" x="348" y="-651.2" font-family="Cascadia Code PL" font-size="11.00" fill="cyan">LOCK_ASPECT = TRUE</text>
<text text-anchor="middle" x="348" y="-639.2" font-family="Cascadia Code PL" font-size="11.00" fill="cyan">Maintain source ratio</text>
<text text-anchor="middle" x="348" y="-627.2" font-family="Cascadia Code PL" font-size="11.00" fill="cyan">when resizing handles</text>
<text text-anchor="middle" x="348" y="-615.2" font-family="Cascadia Code PL" font-size="11.00" fill="cyan">ASPECT_RATIO = W/H</text>
</g>
<!-- CZ1 -->
<g id="node10" class="node">
<title>CZ1</title>
<polygon fill="none" stroke="white" points="1484,-682 1290,-682 1290,-614 1484,-614 1484,-682"/>
<text text-anchor="middle" x="1387" y="-669.2" font-family="Cascadia Code PL" font-size="11.00" fill="cyan">Zoom Level</text>
<text text-anchor="middle" x="1387" y="-657.2" font-family="Cascadia Code PL" font-size="11.00" fill="cyan">─────────────────</text>
<text text-anchor="middle" x="1387" y="-645.2" font-family="Cascadia Code PL" font-size="11.00" fill="cyan">ZOOM: ZOOM_MIN..ZOOM_MAX</text>
<text text-anchor="middle" x="1387" y="-633.2" font-family="Cascadia Code PL" font-size="11.00" fill="cyan">Scroll wheel adjusts</text>
<text text-anchor="middle" x="1387" y="-621.2" font-family="Cascadia Code PL" font-size="11.00" fill="cyan">CROP window expands/shrinks</text>
</g>
<!-- CZ2 -->
<g id="node11" class="node">
<title>CZ2</title>
<polygon fill="none" stroke="white" points="1272,-682 1120,-682 1120,-614 1272,-614 1272,-682"/>
<text text-anchor="middle" x="1196" y="-669.2" font-family="Cascadia Code PL" font-size="11.00" fill="cyan">Pan Offset</text>
<text text-anchor="middle" x="1196" y="-657.2" font-family="Cascadia Code PL" font-size="11.00" fill="cyan">─────────────────</text>
<text text-anchor="middle" x="1196" y="-645.2" font-family="Cascadia Code PL" font-size="11.00" fill="cyan">PAN_X, PAN_Y offsets</text>
<text text-anchor="middle" x="1196" y="-633.2" font-family="Cascadia Code PL" font-size="11.00" fill="cyan">Middle&#45;click drag</text>
<text text-anchor="middle" x="1196" y="-621.2" font-family="Cascadia Code PL" font-size="11.00" fill="cyan">Shifts visible crop region</text>
</g>
<!-- CZ3 -->
<g id="node12" class="node">
<title>CZ3</title>
<polygon fill="none" stroke="white" points="1101.5,-682 948.5,-682 948.5,-614 1101.5,-614 1101.5,-682"/>
<text text-anchor="middle" x="1025" y="-669.2" font-family="Cascadia Code PL" font-size="11.00" fill="cyan">Crop Region</text>
<text text-anchor="middle" x="1025" y="-657.2" font-family="Cascadia Code PL" font-size="11.00" fill="cyan">─────────────────</text>
<text text-anchor="middle" x="1025" y="-645.2" font-family="Cascadia Code PL" font-size="11.00" fill="cyan">CROP_X/Y/W/H (SINGLE)</text>
<text text-anchor="middle" x="1025" y="-633.2" font-family="Cascadia Code PL" font-size="11.00" fill="cyan">Subset of source image</text>
<text text-anchor="middle" x="1025" y="-621.2" font-family="Cascadia Code PL" font-size="11.00" fill="cyan">shown in DEST rectangle</text>
</g>
<!-- RH -->
<g id="node13" class="node">
<title>RH</title>
<polygon fill="none" stroke="white" points="1647.5,-694 1508.5,-694 1508.5,-602 1647.5,-602 1647.5,-694"/>
<text text-anchor="middle" x="1578" y="-681.2" font-family="Cascadia Code PL" font-size="11.00" fill="cyan">8 Edge Handles</text>
<text text-anchor="middle" x="1578" y="-669.2" font-family="Cascadia Code PL" font-size="11.00" fill="cyan">─────────────────</text>
<text text-anchor="middle" x="1578" y="-657.2" font-family="Cascadia Code PL" font-size="11.00" fill="cyan">RESIZE_HANDLE = 1&#45;8</text>
<text text-anchor="middle" x="1578" y="-645.2" font-family="Cascadia Code PL" font-size="11.00" fill="cyan">Corners + edges</text>
<text text-anchor="middle" x="1578" y="-633.2" font-family="Cascadia Code PL" font-size="11.00" fill="cyan">CONSTRAIN (Shift)</text>
<text text-anchor="middle" x="1578" y="-621.2" font-family="Cascadia Code PL" font-size="11.00" fill="cyan">locks aspect ratio</text>
<text text-anchor="middle" x="1578" y="-609.2" font-family="Cascadia Code PL" font-size="11.00" fill="cyan">Drag to resize DEST</text>
</g>
<!-- DD1 -->
<g id="node14" class="node">
<title>DD1</title>
<polygon fill="none" stroke="white" points="1854,-700 1672,-700 1672,-596 1854,-596 1854,-700"/>
<text text-anchor="middle" x="1763" y="-687.2" font-family="Cascadia Code PL" font-size="11.00" fill="cyan">OS file drop (INPUT/DROP.BM)</text>
<text text-anchor="middle" x="1763" y="-675.2" font-family="Cascadia Code PL" font-size="11.00" fill="cyan">─────────────────</text>
<text text-anchor="middle" x="1763" y="-663.2" font-family="Cascadia Code PL" font-size="11.00" fill="cyan">Cross&#45;platform, target&#45;aware</text>
<text text-anchor="middle" x="1763" y="-651.2" font-family="Cascadia Code PL" font-size="11.00" fill="cyan">Image dropped on canvas →</text>
<text text-anchor="middle" x="1763" y="-639.2" font-family="Cascadia Code PL" font-size="11.00" fill="cyan">IMAGE_IMPORT_load_file%()</text>
<text text-anchor="middle" x="1763" y="-627.2" font-family="Cascadia Code PL" font-size="11.00" fill="cyan">(same flow as File→Import)</text>
<text text-anchor="middle" x="1763" y="-615.2" font-family="Cascadia Code PL" font-size="11.00" fill="cyan">.drawlayer → new layer;</text>
<text text-anchor="middle" x="1763" y="-603.2" font-family="Cascadia Code PL" font-size="11.00" fill="cyan">brush&#45;bin drop → brush slot</text>
</g>
<!-- L1 -->
<g id="node15" class="node">
<title>L1</title>
<ellipse fill="white" stroke="white" cx="2180" cy="-648" rx="0.36" ry="0.36"/>
</g>
<!-- L2 -->
<g id="node16" class="node">
<title>L2</title>
<ellipse fill="white" stroke="white" cx="2180" cy="-516" rx="0.36" ry="0.36"/>
</g>
<!-- L1&#45;&gt;L2 -->
<g id="edge9" class="edge">
<title>L1&#45;&gt;L2</title>
<path fill="none" stroke="#66cc66" d="M2180,-646.91C2180,-643.67 2180,-557.8 2180,-527.48"/>
<polygon fill="#66cc66" stroke="#66cc66" points="2183.5,-527.09 2180,-517.09 2176.5,-527.09 2183.5,-527.09"/>
<text text-anchor="middle" x="2215" y="-570.8" font-family="Cascadia Code PL" font-size="9.00" fill="#aaaaaa"> Load / Activate</text>
</g>
<!-- L3 -->
<g id="node17" class="node">
<title>L3</title>
<ellipse fill="white" stroke="white" cx="2081" cy="-648" rx="0.36" ry="0.36"/>
</g>
<!-- L4 -->
<g id="node18" class="node">
<title>L4</title>
<ellipse fill="white" stroke="white" cx="2081" cy="-516" rx="0.36" ry="0.36"/>
</g>
<!-- L3&#45;&gt;L4 -->
<g id="edge10" class="edge">
<title>L3&#45;&gt;L4</title>
<path fill="none" stroke="#cc6666" stroke-dasharray="5,2" d="M2081,-646.91C2081,-643.67 2081,-557.8 2081,-527.48"/>
<polygon fill="#cc6666" stroke="#cc6666" points="2084.5,-527.09 2081,-517.09 2077.5,-527.09 2084.5,-527.09"/>
<text text-anchor="middle" x="2119" y="-570.8" font-family="Cascadia Code PL" font-size="9.00" fill="#aaaaaa"> Cancel / Restore</text>
</g>
<!-- L5 -->
<g id="node19" class="node">
<title>L5</title>
<ellipse fill="white" stroke="white" cx="1979" cy="-648" rx="0.36" ry="0.36"/>
</g>
<!-- L6 -->
<g id="node20" class="node">
<title>L6</title>
<ellipse fill="white" stroke="white" cx="1979" cy="-516" rx="0.36" ry="0.36"/>
</g>
<!-- L5&#45;&gt;L6 -->
<g id="edge11" class="edge">
<title>L5&#45;&gt;L6</title>
<path fill="none" stroke="#cccc66" d="M1979,-646.91C1979,-643.67 1979,-557.8 1979,-527.48"/>
<polygon fill="#cccc66" stroke="#cccc66" points="1982.5,-527.09 1979,-517.09 1975.5,-527.09 1982.5,-527.09"/>
<text text-anchor="middle" x="2018.5" y="-570.8" font-family="Cascadia Code PL" font-size="9.00" fill="#aaaaaa"> Commit / Record</text>
</g>
<!-- L7 -->
<g id="node21" class="node">
<title>L7</title>
<ellipse fill="white" stroke="white" cx="1896" cy="-648" rx="0.36" ry="0.36"/>
</g>
<!-- L8 -->
<g id="node22" class="node">
<title>L8</title>
<ellipse fill="white" stroke="white" cx="1896" cy="-516" rx="0.36" ry="0.36"/>
</g>
<!-- L7&#45;&gt;L8 -->
<g id="edge12" class="edge">
<title>L7&#45;&gt;L8</title>
<path fill="none" stroke="#6699ff" d="M1896,-646.91C1896,-643.67 1896,-557.8 1896,-527.48"/>
<polygon fill="#6699ff" stroke="#6699ff" points="1899.5,-527.09 1896,-517.09 1892.5,-527.09 1899.5,-527.09"/>
<text text-anchor="middle" x="1926" y="-570.8" font-family="Cascadia Code PL" font-size="9.00" fill="#aaaaaa"> Mode switch</text>
</g>
</g>
</svg>
