<?xml version="1.0" encoding="UTF-8" standalone="no"?>
<!DOCTYPE svg PUBLIC "-//W3C//DTD SVG 1.1//EN"
 "http://www.w3.org/Graphics/SVG/1.1/DTD/svg11.dtd">
<!-- Generated by graphviz version 2.42.4 (0)
 -->
<!-- Title: IMAGE_IMPORT_STATES Pages: 1 -->
<svg width="2064pt" height="766pt"
 viewBox="0.00 0.00 2063.50 766.00" xmlns="http://www.w3.org/2000/svg" xmlns:xlink="http://www.w3.org/1999/xlink">
<g id="graph0" class="graph" transform="scale(1 1) rotate(0) translate(4 762)">
<title>IMAGE_IMPORT_STATES</title>
<text text-anchor="middle" x="1027.75" y="-734.8" font-family="Cascadia Code PL" font-size="24.00" fill="white">IMAGE IMPORT STATE MACHINE</text>
<g id="clust3" class="cluster">
<title>cluster_transform</title>
<polygon fill="transparent" stroke="orange" stroke-dasharray="5,2" points="236.5,-594 236.5,-710 843.5,-710 843.5,-594 236.5,-594"/>
<text text-anchor="middle" x="304.5" y="-697.2" font-family="Cascadia Code PL" font-size="11.00" fill="white">IN&#45;PLACE TRANSFORMS</text>
</g>
<g id="clust4" class="cluster">
<title>cluster_crop</title>
<polygon fill="transparent" stroke="orange" stroke-dasharray="5,2" points="851.5,-600 851.5,-704 1355.5,-704 1355.5,-600 851.5,-600"/>
<text text-anchor="middle" x="930.5" y="-691.2" font-family="Cascadia Code PL" font-size="11.00" fill="white">CROP/ZOOM WITHIN IMAGE</text>
</g>
<g id="clust5" class="cluster">
<title>cluster_resize</title>
<polygon fill="transparent" stroke="orange" stroke-dasharray="5,2" points="1363.5,-588 1363.5,-716 1503.5,-716 1503.5,-588 1363.5,-588"/>
<text text-anchor="middle" x="1412.5" y="-703.2" font-family="Cascadia Code PL" font-size="11.00" fill="white">RESIZE HANDLES</text>
</g>
<g id="clust6" class="cluster">
<title>cluster_drag_drop</title>
<polygon fill="transparent" stroke="orange" stroke-dasharray="5,2" points="1511.5,-594 1511.5,-710 1683.5,-710 1683.5,-594 1511.5,-594"/>
<text text-anchor="middle" x="1573.5" y="-697.2" font-family="Cascadia Code PL" font-size="11.00" fill="white">DRAG &amp; DROP ENTRY</text>
</g>
<g id="clust7" class="cluster">
<title>cluster_legend</title>
<polygon fill="transparent" stroke="white" stroke-dasharray="5,2" points="1691.5,-507.64 1691.5,-670.36 2047.5,-670.36 2047.5,-507.64 1691.5,-507.64"/>
<text text-anchor="middle" x="1719.5" y="-657.56" font-family="Cascadia Code PL" font-size="11.00" fill="white">LEGEND</text>
</g>
<!-- MAIN -->
<g id="node1" class="node">
<title>MAIN</title>
<polygon fill="none" stroke="orange" stroke-width="2" points="226.5,-660 223.5,-664 202.5,-664 199.5,-660 162.5,-660 162.5,-624 226.5,-624 226.5,-660"/>
<text text-anchor="middle" x="194.5" y="-645.6" font-family="Cascadia Code PL" font-size="13.00" fill="orange">IMAGE</text>
<text text-anchor="middle" x="194.5" y="-631.6" font-family="Cascadia Code PL" font-size="13.00" fill="orange">IMPORT</text>
</g>
<!-- S_IDLE -->
<g id="node2" class="node">
<title>S_IDLE</title>
<polygon fill="none" stroke="white" points="258.5,-550 130.5,-550 130.5,-482 258.5,-482 258.5,-550"/>
<text text-anchor="middle" x="194.5" y="-537.2" font-family="Cascadia Code PL" font-size="11.00" fill="cyan">1 · IDLE</text>
<text text-anchor="middle" x="194.5" y="-525.2" font-family="Cascadia Code PL" font-size="11.00" fill="cyan">─────────────────</text>
<text text-anchor="middle" x="194.5" y="-513.2" font-family="Cascadia Code PL" font-size="11.00" fill="cyan">IMPORT_STATE_IDLE</text>
<text text-anchor="middle" x="194.5" y="-501.2" font-family="Cascadia Code PL" font-size="11.00" fill="cyan">No import active</text>
<text text-anchor="middle" x="194.5" y="-489.2" font-family="Cascadia Code PL" font-size="11.00" fill="cyan">Normal drawing mode</text>
</g>
<!-- MAIN&#45;&gt;S_IDLE -->
<g id="edge8" class="edge">
<title>MAIN&#45;&gt;S_IDLE</title>
<path fill="none" stroke="#555555" stroke-dasharray="1,5" d="M194.5,-623.76C194.5,-604.86 194.5,-574.08 194.5,-550.41"/>
</g>
<!-- S_LOADED -->
<g id="node3" class="node">
<title>S_LOADED</title>
<polygon fill="none" stroke="white" points="141,-406 0,-406 0,-326 141,-326 141,-406"/>
<text text-anchor="middle" x="70.5" y="-393.2" font-family="Cascadia Code PL" font-size="11.00" fill="cyan">2 · LOADED</text>
<text text-anchor="middle" x="70.5" y="-381.2" font-family="Cascadia Code PL" font-size="11.00" fill="cyan">─────────────────</text>
<text text-anchor="middle" x="70.5" y="-369.2" font-family="Cascadia Code PL" font-size="11.00" fill="cyan">IMPORT_STATE_LOADED</text>
<text text-anchor="middle" x="70.5" y="-357.2" font-family="Cascadia Code PL" font-size="11.00" fill="cyan">IMAGE &lt; &#45;1 (valid handle)</text>
<text text-anchor="middle" x="70.5" y="-345.2" font-family="Cascadia Code PL" font-size="11.00" fill="cyan">FILENAME set</text>
<text text-anchor="middle" x="70.5" y="-333.2" font-family="Cascadia Code PL" font-size="11.00" fill="cyan">Waiting for marquee box</text>
</g>
<!-- S_IDLE&#45;&gt;S_LOADED -->
<g id="edge1" class="edge">
<title>S_IDLE&#45;&gt;S_LOADED</title>
<path fill="none" stroke="#66cc66" d="M130.32,-504.23C107.17,-496.91 83.36,-484.62 69.5,-464 60.24,-450.23 58.26,-432.68 59.32,-416.31"/>
<polygon fill="#66cc66" stroke="#66cc66" points="62.81,-416.62 60.34,-406.32 55.85,-415.91 62.81,-416.62"/>
<text text-anchor="middle" x="125" y="-456.8" font-family="Cascadia Code PL" font-size="9.00" fill="#aaaaaa"> &#160;File → Import Image</text>
<text text-anchor="middle" x="125" y="-446.8" font-family="Cascadia Code PL" font-size="9.00" fill="#aaaaaa"> &#160;File dialog opens</text>
<text text-anchor="middle" x="125" y="-436.8" font-family="Cascadia Code PL" font-size="9.00" fill="#aaaaaa"> &#160;IMAGE_IMPORT_load_file()</text>
<text text-anchor="middle" x="125" y="-426.8" font-family="Cascadia Code PL" font-size="9.00" fill="#aaaaaa"> &#160;IMAGE = _LOADIMAGE</text>
</g>
<!-- S_PLACING -->
<g id="node4" class="node">
<title>S_PLACING</title>
<polygon fill="none" stroke="white" points="266,-250 123,-250 123,-158 266,-158 266,-250"/>
<text text-anchor="middle" x="194.5" y="-237.2" font-family="Cascadia Code PL" font-size="11.00" fill="cyan">3 · PLACING</text>
<text text-anchor="middle" x="194.5" y="-225.2" font-family="Cascadia Code PL" font-size="11.00" fill="cyan">─────────────────</text>
<text text-anchor="middle" x="194.5" y="-213.2" font-family="Cascadia Code PL" font-size="11.00" fill="cyan">IMPORT_STATE_PLACING</text>
<text text-anchor="middle" x="194.5" y="-201.2" font-family="Cascadia Code PL" font-size="11.00" fill="cyan">Marquee drawn on canvas</text>
<text text-anchor="middle" x="194.5" y="-189.2" font-family="Cascadia Code PL" font-size="11.00" fill="cyan">DEST_X/Y/W/H set</text>
<text text-anchor="middle" x="194.5" y="-177.2" font-family="Cascadia Code PL" font-size="11.00" fill="cyan">Resize handles active</text>
<text text-anchor="middle" x="194.5" y="-165.2" font-family="Cascadia Code PL" font-size="11.00" fill="cyan">Crop+zoom adjustable</text>
</g>
<!-- S_LOADED&#45;&gt;S_PLACING -->
<g id="edge2" class="edge">
<title>S_LOADED&#45;&gt;S_PLACING</title>
<path fill="none" stroke="#66cc66" d="M64.49,-325.91C63.59,-307.04 65.65,-284.89 76.5,-268 85.68,-253.71 99.25,-242.44 113.95,-233.64"/>
<polygon fill="#66cc66" stroke="#66cc66" points="115.69,-236.67 122.71,-228.73 112.27,-230.56 115.69,-236.67"/>
<text text-anchor="middle" x="128.5" y="-300.8" font-family="Cascadia Code PL" font-size="9.00" fill="#aaaaaa"> &#160;Draw marquee on canvas</text>
<text text-anchor="middle" x="128.5" y="-290.8" font-family="Cascadia Code PL" font-size="9.00" fill="#aaaaaa"> &#160;IMAGE_IMPORT_start_</text>
<text text-anchor="middle" x="128.5" y="-280.8" font-family="Cascadia Code PL" font-size="9.00" fill="#aaaaaa"> &#160;placement()</text>
<text text-anchor="middle" x="128.5" y="-270.8" font-family="Cascadia Code PL" font-size="9.00" fill="#aaaaaa"> &#160;DEST_X/Y/W/H set</text>
</g>
<!-- S_PLACING&#45;&gt;S_IDLE -->
<g id="edge6" class="edge">
<title>S_PLACING&#45;&gt;S_IDLE</title>
<path fill="none" stroke="#cccc66" d="M194.5,-250.15C194.5,-309.59 194.5,-413.36 194.5,-471.81"/>
<polygon fill="#cccc66" stroke="#cccc66" points="191,-471.82 194.5,-481.82 198,-471.82 191,-471.82"/>
<text text-anchor="middle" x="237.5" y="-378.8" font-family="Cascadia Code PL" font-size="9.00" fill="#aaaaaa"> &#160;Enter → Commit</text>
<text text-anchor="middle" x="237.5" y="-368.8" font-family="Cascadia Code PL" font-size="9.00" fill="#aaaaaa"> &#160;Paste image to layer</text>
<text text-anchor="middle" x="237.5" y="-358.8" font-family="Cascadia Code PL" font-size="9.00" fill="#aaaaaa"> &#160;HISTORY_record</text>
<text text-anchor="middle" x="237.5" y="-348.8" font-family="Cascadia Code PL" font-size="9.00" fill="#aaaaaa"> &#160;PREV_TOOL restored</text>
</g>
<!-- S_PLACING&#45;&gt;S_IDLE -->
<g id="edge7" class="edge">
<title>S_PLACING&#45;&gt;S_IDLE</title>
<path fill="none" stroke="#cc6666" stroke-dasharray="5,2" d="M238.91,-250.08C256.74,-271.29 275.24,-298.04 284.5,-326 295.68,-359.75 296.53,-372.54 284.5,-406 275.27,-431.69 257.06,-455.63 239.43,-474.5"/>
<polygon fill="#cc6666" stroke="#cc6666" points="236.88,-472.1 232.46,-481.73 241.92,-476.96 236.88,-472.1"/>
<text text-anchor="middle" x="344" y="-378.8" font-family="Cascadia Code PL" font-size="9.00" fill="#aaaaaa"> &#160;Escape → Cancel</text>
<text text-anchor="middle" x="344" y="-368.8" font-family="Cascadia Code PL" font-size="9.00" fill="#aaaaaa"> &#160;IMAGE_IMPORT_cancel()</text>
<text text-anchor="middle" x="344" y="-358.8" font-family="Cascadia Code PL" font-size="9.00" fill="#aaaaaa"> &#160;Free IMAGE handle</text>
<text text-anchor="middle" x="344" y="-348.8" font-family="Cascadia Code PL" font-size="9.00" fill="#aaaaaa"> &#160;PREV_TOOL restored</text>
</g>
<!-- S_PLACING&#45;&gt;S_PLACING -->
<g id="edge5" class="edge">
<title>S_PLACING&#45;&gt;S_PLACING</title>
<path fill="none" stroke="#88aacc" d="M266.13,-217.27C276.79,-215.2 284,-210.78 284,-204 284,-199.55 280.89,-196.12 275.75,-193.7"/>
<polygon fill="#88aacc" stroke="#88aacc" points="276.71,-190.33 266.13,-190.73 274.65,-197.02 276.71,-190.33"/>
<text text-anchor="middle" x="329.5" y="-221.8" font-family="Cascadia Code PL" font-size="9.00" fill="#aaaaaa"> &#160;Resize handles drag</text>
<text text-anchor="middle" x="329.5" y="-211.8" font-family="Cascadia Code PL" font-size="9.00" fill="#aaaaaa"> &#160;RESIZING = TRUE</text>
<text text-anchor="middle" x="329.5" y="-201.8" font-family="Cascadia Code PL" font-size="9.00" fill="#aaaaaa"> &#160;DEST W/H updated</text>
<text text-anchor="middle" x="329.5" y="-191.8" font-family="Cascadia Code PL" font-size="9.00" fill="#aaaaaa"> &#160;or scroll wheel zoom</text>
<text text-anchor="middle" x="329.5" y="-181.8" font-family="Cascadia Code PL" font-size="9.00" fill="#aaaaaa"> &#160;CROP window adjusts</text>
</g>
<!-- S_PANNING -->
<g id="node5" class="node">
<title>S_PANNING</title>
<polygon fill="none" stroke="white" points="264.5,-92 124.5,-92 124.5,0 264.5,0 264.5,-92"/>
<text text-anchor="middle" x="194.5" y="-79.2" font-family="Cascadia Code PL" font-size="11.00" fill="cyan">4 · PANNING</text>
<text text-anchor="middle" x="194.5" y="-67.2" font-family="Cascadia Code PL" font-size="11.00" fill="cyan">─────────────────</text>
<text text-anchor="middle" x="194.5" y="-55.2" font-family="Cascadia Code PL" font-size="11.00" fill="cyan">IMPORT_STATE_PANNING</text>
<text text-anchor="middle" x="194.5" y="-43.2" font-family="Cascadia Code PL" font-size="11.00" fill="cyan">Middle&#45;click pan active</text>
<text text-anchor="middle" x="194.5" y="-31.2" font-family="Cascadia Code PL" font-size="11.00" fill="cyan">within crop area</text>
<text text-anchor="middle" x="194.5" y="-19.2" font-family="Cascadia Code PL" font-size="11.00" fill="cyan">PAN_X/Y adjusting</text>
<text text-anchor="middle" x="194.5" y="-7.2" font-family="Cascadia Code PL" font-size="11.00" fill="cyan">CROP window shifts</text>
</g>
<!-- S_PLACING&#45;&gt;S_PANNING -->
<g id="edge3" class="edge">
<title>S_PLACING&#45;&gt;S_PANNING</title>
<path fill="none" stroke="#6699ff" d="M142.63,-157.8C138.57,-152.21 135.06,-146.25 132.5,-140 127.45,-127.66 127.45,-122.34 132.5,-110 133.82,-106.78 135.39,-103.63 137.16,-100.58"/>
<polygon fill="#6699ff" stroke="#6699ff" points="140.09,-102.49 142.63,-92.2 134.23,-98.66 140.09,-102.49"/>
<text text-anchor="middle" x="184.5" y="-132.8" font-family="Cascadia Code PL" font-size="9.00" fill="#aaaaaa"> &#160;Middle&#45;click drag</text>
<text text-anchor="middle" x="184.5" y="-122.8" font-family="Cascadia Code PL" font-size="9.00" fill="#aaaaaa"> &#160;PANNING = TRUE</text>
<text text-anchor="middle" x="184.5" y="-112.8" font-family="Cascadia Code PL" font-size="9.00" fill="#aaaaaa"> &#160;PAN_START_X/Y = mouse</text>
</g>
<!-- S_PANNING&#45;&gt;S_PLACING -->
<g id="edge4" class="edge">
<title>S_PANNING&#45;&gt;S_PLACING</title>
<path fill="none" stroke="#6699ff" d="M229,-92.23C232.05,-97.97 234.67,-103.96 236.5,-110 240.36,-122.76 240.36,-127.24 236.5,-140 235.61,-142.93 234.54,-145.84 233.33,-148.72"/>
<polygon fill="#6699ff" stroke="#6699ff" points="230.15,-147.24 229,-157.77 236.47,-150.26 230.15,-147.24"/>
<text text-anchor="middle" x="284" y="-132.8" font-family="Cascadia Code PL" font-size="9.00" fill="#aaaaaa"> &#160;Middle&#45;click release</text>
<text text-anchor="middle" x="284" y="-122.8" font-family="Cascadia Code PL" font-size="9.00" fill="#aaaaaa"> &#160;PANNING = FALSE</text>
<text text-anchor="middle" x="284" y="-112.8" font-family="Cascadia Code PL" font-size="9.00" fill="#aaaaaa"> &#160;PAN offset committed</text>
</g>
<!-- T_ROT -->
<g id="node6" class="node">
<title>T_ROT</title>
<polygon fill="none" stroke="white" points="835.5,-676 695.5,-676 695.5,-608 835.5,-608 835.5,-676"/>
<text text-anchor="middle" x="765.5" y="-663.2" font-family="Cascadia Code PL" font-size="11.00" fill="cyan">Rotation</text>
<text text-anchor="middle" x="765.5" y="-651.2" font-family="Cascadia Code PL" font-size="11.00" fill="cyan">─────────────────</text>
<text text-anchor="middle" x="765.5" y="-639.2" font-family="Cascadia Code PL" font-size="11.00" fill="cyan">ROTATION: 0/90/180/270</text>
<text text-anchor="middle" x="765.5" y="-627.2" font-family="Cascadia Code PL" font-size="11.00" fill="cyan">Rotate imported image</text>
<text text-anchor="middle" x="765.5" y="-615.2" font-family="Cascadia Code PL" font-size="11.00" fill="cyan">before commit</text>
</g>
<!-- T_FLIP -->
<g id="node7" class="node">
<title>T_FLIP</title>
<polygon fill="none" stroke="white" points="677.5,-676 547.5,-676 547.5,-608 677.5,-608 677.5,-676"/>
<text text-anchor="middle" x="612.5" y="-663.2" font-family="Cascadia Code PL" font-size="11.00" fill="cyan">Flip</text>
<text text-anchor="middle" x="612.5" y="-651.2" font-family="Cascadia Code PL" font-size="11.00" fill="cyan">─────────────────</text>
<text text-anchor="middle" x="612.5" y="-639.2" font-family="Cascadia Code PL" font-size="11.00" fill="cyan">FLIP_H/V flags</text>
<text text-anchor="middle" x="612.5" y="-627.2" font-family="Cascadia Code PL" font-size="11.00" fill="cyan">Mirror imported image</text>
<text text-anchor="middle" x="612.5" y="-615.2" font-family="Cascadia Code PL" font-size="11.00" fill="cyan">before commit</text>
</g>
<!-- T_SCALE -->
<g id="node8" class="node">
<title>T_SCALE</title>
<polygon fill="none" stroke="white" points="529,-676 388,-676 388,-608 529,-608 529,-676"/>
<text text-anchor="middle" x="458.5" y="-663.2" font-family="Cascadia Code PL" font-size="11.00" fill="cyan">Scale</text>
<text text-anchor="middle" x="458.5" y="-651.2" font-family="Cascadia Code PL" font-size="11.00" fill="cyan">─────────────────</text>
<text text-anchor="middle" x="458.5" y="-639.2" font-family="Cascadia Code PL" font-size="11.00" fill="cyan">SCALE_FACTOR (1.0=orig)</text>
<text text-anchor="middle" x="458.5" y="-627.2" font-family="Cascadia Code PL" font-size="11.00" fill="cyan">Cumulative scaling</text>
<text text-anchor="middle" x="458.5" y="-615.2" font-family="Cascadia Code PL" font-size="11.00" fill="cyan">PREVIEW_IMG cached</text>
</g>
<!-- T_ASPECT -->
<g id="node9" class="node">
<title>T_ASPECT</title>
<polygon fill="none" stroke="white" points="370,-682 245,-682 245,-602 370,-602 370,-682"/>
<text text-anchor="middle" x="307.5" y="-669.2" font-family="Cascadia Code PL" font-size="11.00" fill="cyan">Aspect Lock</text>
<text text-anchor="middle" x="307.5" y="-657.2" font-family="Cascadia Code PL" font-size="11.00" fill="cyan">─────────────────</text>
<text text-anchor="middle" x="307.5" y="-645.2" font-family="Cascadia Code PL" font-size="11.00" fill="cyan">LOCK_ASPECT = TRUE</text>
<text text-anchor="middle" x="307.5" y="-633.2" font-family="Cascadia Code PL" font-size="11.00" fill="cyan">Maintain source ratio</text>
<text text-anchor="middle" x="307.5" y="-621.2" font-family="Cascadia Code PL" font-size="11.00" fill="cyan">when resizing handles</text>
<text text-anchor="middle" x="307.5" y="-609.2" font-family="Cascadia Code PL" font-size="11.00" fill="cyan">ASPECT_RATIO = W/H</text>
</g>
<!-- CZ1 -->
<g id="node10" class="node">
<title>CZ1</title>
<polygon fill="none" stroke="white" points="1347.5,-676 1171.5,-676 1171.5,-608 1347.5,-608 1347.5,-676"/>
<text text-anchor="middle" x="1259.5" y="-663.2" font-family="Cascadia Code PL" font-size="11.00" fill="cyan">Zoom Level</text>
<text text-anchor="middle" x="1259.5" y="-651.2" font-family="Cascadia Code PL" font-size="11.00" fill="cyan">─────────────────</text>
<text text-anchor="middle" x="1259.5" y="-639.2" font-family="Cascadia Code PL" font-size="11.00" fill="cyan">ZOOM: ZOOM_MIN..ZOOM_MAX</text>
<text text-anchor="middle" x="1259.5" y="-627.2" font-family="Cascadia Code PL" font-size="11.00" fill="cyan">Scroll wheel adjusts</text>
<text text-anchor="middle" x="1259.5" y="-615.2" font-family="Cascadia Code PL" font-size="11.00" fill="cyan">CROP window expands/shrinks</text>
</g>
<!-- CZ2 -->
<g id="node11" class="node">
<title>CZ2</title>
<polygon fill="none" stroke="white" points="1153.5,-676 1015.5,-676 1015.5,-608 1153.5,-608 1153.5,-676"/>
<text text-anchor="middle" x="1084.5" y="-663.2" font-family="Cascadia Code PL" font-size="11.00" fill="cyan">Pan Offset</text>
<text text-anchor="middle" x="1084.5" y="-651.2" font-family="Cascadia Code PL" font-size="11.00" fill="cyan">─────────────────</text>
<text text-anchor="middle" x="1084.5" y="-639.2" font-family="Cascadia Code PL" font-size="11.00" fill="cyan">PAN_X, PAN_Y offsets</text>
<text text-anchor="middle" x="1084.5" y="-627.2" font-family="Cascadia Code PL" font-size="11.00" fill="cyan">Middle&#45;click drag</text>
<text text-anchor="middle" x="1084.5" y="-615.2" font-family="Cascadia Code PL" font-size="11.00" fill="cyan">Shifts visible crop region</text>
</g>
<!-- CZ3 -->
<g id="node12" class="node">
<title>CZ3</title>
<polygon fill="none" stroke="white" points="997,-676 860,-676 860,-608 997,-608 997,-676"/>
<text text-anchor="middle" x="928.5" y="-663.2" font-family="Cascadia Code PL" font-size="11.00" fill="cyan">Crop Region</text>
<text text-anchor="middle" x="928.5" y="-651.2" font-family="Cascadia Code PL" font-size="11.00" fill="cyan">─────────────────</text>
<text text-anchor="middle" x="928.5" y="-639.2" font-family="Cascadia Code PL" font-size="11.00" fill="cyan">CROP_X/Y/W/H (SINGLE)</text>
<text text-anchor="middle" x="928.5" y="-627.2" font-family="Cascadia Code PL" font-size="11.00" fill="cyan">Subset of source image</text>
<text text-anchor="middle" x="928.5" y="-615.2" font-family="Cascadia Code PL" font-size="11.00" fill="cyan">shown in DEST rectangle</text>
</g>
<!-- RH -->
<g id="node13" class="node">
<title>RH</title>
<polygon fill="none" stroke="white" points="1495.5,-688 1371.5,-688 1371.5,-596 1495.5,-596 1495.5,-688"/>
<text text-anchor="middle" x="1433.5" y="-675.2" font-family="Cascadia Code PL" font-size="11.00" fill="cyan">8 Edge Handles</text>
<text text-anchor="middle" x="1433.5" y="-663.2" font-family="Cascadia Code PL" font-size="11.00" fill="cyan">─────────────────</text>
<text text-anchor="middle" x="1433.5" y="-651.2" font-family="Cascadia Code PL" font-size="11.00" fill="cyan">RESIZE_HANDLE = 1&#45;8</text>
<text text-anchor="middle" x="1433.5" y="-639.2" font-family="Cascadia Code PL" font-size="11.00" fill="cyan">Corners + edges</text>
<text text-anchor="middle" x="1433.5" y="-627.2" font-family="Cascadia Code PL" font-size="11.00" fill="cyan">CONSTRAIN (Shift)</text>
<text text-anchor="middle" x="1433.5" y="-615.2" font-family="Cascadia Code PL" font-size="11.00" fill="cyan">locks aspect ratio</text>
<text text-anchor="middle" x="1433.5" y="-603.2" font-family="Cascadia Code PL" font-size="11.00" fill="cyan">Drag to resize DEST</text>
</g>
<!-- DD1 -->
<g id="node14" class="node">
<title>DD1</title>
<polygon fill="none" stroke="white" points="1675,-682 1520,-682 1520,-602 1675,-602 1675,-682"/>
<text text-anchor="middle" x="1597.5" y="-669.2" font-family="Cascadia Code PL" font-size="11.00" fill="cyan">Windows _ACCEPTFILEDROP</text>
<text text-anchor="middle" x="1597.5" y="-657.2" font-family="Cascadia Code PL" font-size="11.00" fill="cyan">─────────────────</text>
<text text-anchor="middle" x="1597.5" y="-645.2" font-family="Cascadia Code PL" font-size="11.00" fill="cyan">Drag image file onto</text>
<text text-anchor="middle" x="1597.5" y="-633.2" font-family="Cascadia Code PL" font-size="11.00" fill="cyan">DRAW window</text>
<text text-anchor="middle" x="1597.5" y="-621.2" font-family="Cascadia Code PL" font-size="11.00" fill="cyan">Auto&#45;load as import</text>
<text text-anchor="middle" x="1597.5" y="-609.2" font-family="Cascadia Code PL" font-size="11.00" fill="cyan">Same flow as File→Import</text>
</g>
<!-- L1 -->
<g id="node15" class="node">
<title>L1</title>
<ellipse fill="white" stroke="white" cx="1976.5" cy="-642" rx="0.36" ry="0.36"/>
</g>
<!-- L2 -->
<g id="node16" class="node">
<title>L2</title>
<ellipse fill="white" stroke="white" cx="1976.5" cy="-516" rx="0.36" ry="0.36"/>
</g>
<!-- L1&#45;&gt;L2 -->
<g id="edge9" class="edge">
<title>L1&#45;&gt;L2</title>
<path fill="none" stroke="#66cc66" d="M1976.5,-640.91C1976.5,-637.83 1976.5,-556.68 1976.5,-527.4"/>
<polygon fill="#66cc66" stroke="#66cc66" points="1980,-527.09 1976.5,-517.09 1973,-527.09 1980,-527.09"/>
<text text-anchor="middle" x="2008" y="-570.8" font-family="Cascadia Code PL" font-size="9.00" fill="#aaaaaa"> Load / Activate</text>
</g>
<!-- L3 -->
<g id="node17" class="node">
<title>L3</title>
<ellipse fill="white" stroke="white" cx="1886.5" cy="-642" rx="0.36" ry="0.36"/>
</g>
<!-- L4 -->
<g id="node18" class="node">
<title>L4</title>
<ellipse fill="white" stroke="white" cx="1886.5" cy="-516" rx="0.36" ry="0.36"/>
</g>
<!-- L3&#45;&gt;L4 -->
<g id="edge10" class="edge">
<title>L3&#45;&gt;L4</title>
<path fill="none" stroke="#cc6666" stroke-dasharray="5,2" d="M1886.5,-640.91C1886.5,-637.83 1886.5,-556.68 1886.5,-527.4"/>
<polygon fill="#cc6666" stroke="#cc6666" points="1890,-527.09 1886.5,-517.09 1883,-527.09 1890,-527.09"/>
<text text-anchor="middle" x="1920" y="-570.8" font-family="Cascadia Code PL" font-size="9.00" fill="#aaaaaa"> Cancel / Restore</text>
</g>
<!-- L5 -->
<g id="node19" class="node">
<title>L5</title>
<ellipse fill="white" stroke="white" cx="1793.5" cy="-642" rx="0.36" ry="0.36"/>
</g>
<!-- L6 -->
<g id="node20" class="node">
<title>L6</title>
<ellipse fill="white" stroke="white" cx="1793.5" cy="-516" rx="0.36" ry="0.36"/>
</g>
<!-- L5&#45;&gt;L6 -->
<g id="edge11" class="edge">
<title>L5&#45;&gt;L6</title>
<path fill="none" stroke="#cccc66" d="M1793.5,-640.91C1793.5,-637.83 1793.5,-556.68 1793.5,-527.4"/>
<polygon fill="#cccc66" stroke="#cccc66" points="1797,-527.09 1793.5,-517.09 1790,-527.09 1797,-527.09"/>
<text text-anchor="middle" x="1828.5" y="-570.8" font-family="Cascadia Code PL" font-size="9.00" fill="#aaaaaa"> Commit / Record</text>
</g>
<!-- L7 -->
<g id="node21" class="node">
<title>L7</title>
<ellipse fill="white" stroke="white" cx="1717.5" cy="-642" rx="0.36" ry="0.36"/>
</g>
<!-- L8 -->
<g id="node22" class="node">
<title>L8</title>
<ellipse fill="white" stroke="white" cx="1717.5" cy="-516" rx="0.36" ry="0.36"/>
</g>
<!-- L7&#45;&gt;L8 -->
<g id="edge12" class="edge">
<title>L7&#45;&gt;L8</title>
<path fill="none" stroke="#6699ff" d="M1717.5,-640.91C1717.5,-637.83 1717.5,-556.68 1717.5,-527.4"/>
<polygon fill="#6699ff" stroke="#6699ff" points="1721,-527.09 1717.5,-517.09 1714,-527.09 1721,-527.09"/>
<text text-anchor="middle" x="1744" y="-570.8" font-family="Cascadia Code PL" font-size="9.00" fill="#aaaaaa"> Mode switch</text>
</g>
</g>
</svg>
