<?xml version="1.0" encoding="UTF-8" standalone="no"?>
<!DOCTYPE svg PUBLIC "-//W3C//DTD SVG 1.1//EN"
 "http://www.w3.org/Graphics/SVG/1.1/DTD/svg11.dtd">
<!-- Generated by graphviz version 2.42.4 (0)
 -->
<!-- Title: LOAD_RECENT_STATES Pages: 1 -->
<svg width="1987pt" height="784pt"
 viewBox="0.00 0.00 1986.50 784.00" xmlns="http://www.w3.org/2000/svg" xmlns:xlink="http://www.w3.org/1999/xlink">
<g id="graph0" class="graph" transform="scale(1 1) rotate(0) translate(4 780)">
<title>LOAD_RECENT_STATES</title>
<text text-anchor="middle" x="989.25" y="-752.8" font-family="Cascadia Code PL" font-size="24.00" fill="white">LOAD RECENT STATE MACHINE</text>
<g id="clust3" class="cluster">
<title>cluster_recent</title>
<polygon fill="transparent" stroke="orange" stroke-dasharray="5,2" points="211.5,-582 211.5,-698 635.5,-698 635.5,-582 211.5,-582"/>
<text text-anchor="middle" x="264.5" y="-685.2" font-family="Cascadia Code PL" font-size="11.00" fill="white">RECENT FILES LIST</text>
</g>
<g id="clust4" class="cluster">
<title>cluster_formats</title>
<polygon fill="transparent" stroke="orange" stroke-dasharray="5,2" points="643.5,-582 643.5,-698 1179.5,-698 1179.5,-582 643.5,-582"/>
<text text-anchor="middle" x="706.5" y="-685.2" font-family="Cascadia Code PL" font-size="11.00" fill="white">SUPPORTED FORMATS</text>
</g>
<g id="clust5" class="cluster">
<title>cluster_deferred</title>
<polygon fill="transparent" stroke="orange" stroke-dasharray="5,2" points="1187.5,-582 1187.5,-698 1537.5,-698 1537.5,-582 1187.5,-582"/>
<text text-anchor="middle" x="1259" y="-685.2" font-family="Cascadia Code PL" font-size="11.00" fill="white">DEFERRED LOAD PATTERN</text>
</g>
<g id="clust6" class="cluster">
<title>cluster_state_reset</title>
<polygon fill="transparent" stroke="orange" stroke-dasharray="5,2" points="1545.5,-546 1545.5,-734 1697.5,-734 1697.5,-546 1545.5,-546"/>
<text text-anchor="middle" x="1609" y="-721.2" font-family="Cascadia Code PL" font-size="11.00" fill="white">STATE RESET ON LOAD</text>
</g>
<g id="clust7" class="cluster">
<title>cluster_legend</title>
<polygon fill="transparent" stroke="white" stroke-dasharray="5,2" points="1705.5,-465.64 1705.5,-658.36 1970.5,-658.36 1970.5,-465.64 1705.5,-465.64"/>
<text text-anchor="middle" x="1733.5" y="-645.56" font-family="Cascadia Code PL" font-size="11.00" fill="white">LEGEND</text>
</g>
<!-- MAIN -->
<g id="node1" class="node">
<title>MAIN</title>
<polygon fill="none" stroke="orange" stroke-width="2" points="201.5,-648 198.5,-652 177.5,-652 174.5,-648 139.5,-648 139.5,-612 201.5,-612 201.5,-648"/>
<text text-anchor="middle" x="170.5" y="-633.6" font-family="Cascadia Code PL" font-size="13.00" fill="orange">LOAD</text>
<text text-anchor="middle" x="170.5" y="-619.6" font-family="Cascadia Code PL" font-size="13.00" fill="orange">RECENT</text>
</g>
<!-- S_IDLE -->
<g id="node2" class="node">
<title>S_IDLE</title>
<polygon fill="none" stroke="white" points="234,-508 107,-508 107,-440 234,-440 234,-508"/>
<text text-anchor="middle" x="170.5" y="-495.2" font-family="Cascadia Code PL" font-size="11.00" fill="cyan">1 · IDLE</text>
<text text-anchor="middle" x="170.5" y="-483.2" font-family="Cascadia Code PL" font-size="11.00" fill="cyan">─────────────────</text>
<text text-anchor="middle" x="170.5" y="-471.2" font-family="Cascadia Code PL" font-size="11.00" fill="cyan">Current project loaded</text>
<text text-anchor="middle" x="170.5" y="-459.2" font-family="Cascadia Code PL" font-size="11.00" fill="cyan">or new blank canvas</text>
<text text-anchor="middle" x="170.5" y="-447.2" font-family="Cascadia Code PL" font-size="11.00" fill="cyan">Recent files tracked</text>
</g>
<!-- MAIN&#45;&gt;S_IDLE -->
<g id="edge7" class="edge">
<title>MAIN&#45;&gt;S_IDLE</title>
<path fill="none" stroke="#555555" stroke-dasharray="1,5" d="M170.5,-611.93C170.5,-586.95 170.5,-539.94 170.5,-508.05"/>
</g>
<!-- S_UNSAVED_CHECK -->
<g id="node3" class="node">
<title>S_UNSAVED_CHECK</title>
<polygon fill="none" stroke="white" points="165,-364 0,-364 0,-296 165,-296 165,-364"/>
<text text-anchor="middle" x="82.5" y="-351.2" font-family="Cascadia Code PL" font-size="11.00" fill="cyan">2 · UNSAVED CHECK</text>
<text text-anchor="middle" x="82.5" y="-339.2" font-family="Cascadia Code PL" font-size="11.00" fill="cyan">─────────────────</text>
<text text-anchor="middle" x="82.5" y="-327.2" font-family="Cascadia Code PL" font-size="11.00" fill="cyan">Check CANVAS_DIRTY%</text>
<text text-anchor="middle" x="82.5" y="-315.2" font-family="Cascadia Code PL" font-size="11.00" fill="cyan">or unsaved changes</text>
<text text-anchor="middle" x="82.5" y="-303.2" font-family="Cascadia Code PL" font-size="11.00" fill="cyan">Prompt: Save? / Don&#39;t / Cancel</text>
</g>
<!-- S_IDLE&#45;&gt;S_UNSAVED_CHECK -->
<g id="edge1" class="edge">
<title>S_IDLE&#45;&gt;S_UNSAVED_CHECK</title>
<path fill="none" stroke="#66cc66" d="M106.96,-465.02C80.29,-458.18 51.74,-445.5 35.5,-422 25.39,-407.38 29.03,-398.56 35.5,-382 36.76,-378.76 38.34,-375.6 40.15,-372.55"/>
<polygon fill="#66cc66" stroke="#66cc66" points="43.06,-374.49 45.75,-364.25 37.26,-370.57 43.06,-374.49"/>
<text text-anchor="middle" x="76.5" y="-414.8" font-family="Cascadia Code PL" font-size="9.00" fill="#aaaaaa"> &#160;File → Open Recent</text>
<text text-anchor="middle" x="76.5" y="-404.8" font-family="Cascadia Code PL" font-size="9.00" fill="#aaaaaa"> &#160;or File → Open</text>
<text text-anchor="middle" x="76.5" y="-394.8" font-family="Cascadia Code PL" font-size="9.00" fill="#aaaaaa"> &#160;or recent file click</text>
<text text-anchor="middle" x="76.5" y="-384.8" font-family="Cascadia Code PL" font-size="9.00" fill="#aaaaaa"> &#160;or deferred action</text>
</g>
<!-- S_UNSAVED_CHECK&#45;&gt;S_IDLE -->
<g id="edge3" class="edge">
<title>S_UNSAVED_CHECK&#45;&gt;S_IDLE</title>
<path fill="none" stroke="#cc6666" stroke-dasharray="5,2" d="M105.85,-364.22C109.82,-370.09 113.84,-376.18 117.5,-382 128.42,-399.36 130.19,-404.27 140.5,-422 142.23,-424.98 144.02,-428.05 145.83,-431.14"/>
<polygon fill="#cc6666" stroke="#cc6666" points="142.85,-432.97 150.93,-439.83 148.89,-429.44 142.85,-432.97"/>
<text text-anchor="middle" x="164" y="-404.8" font-family="Cascadia Code PL" font-size="9.00" fill="#aaaaaa"> &#160;Cancel</text>
<text text-anchor="middle" x="164" y="-394.8" font-family="Cascadia Code PL" font-size="9.00" fill="#aaaaaa"> &#160;Abort load</text>
</g>
<!-- S_LOADING -->
<g id="node4" class="node">
<title>S_LOADING</title>
<polygon fill="none" stroke="white" points="271.5,-240 113.5,-240 113.5,-160 271.5,-160 271.5,-240"/>
<text text-anchor="middle" x="192.5" y="-227.2" font-family="Cascadia Code PL" font-size="11.00" fill="cyan">3 · LOADING</text>
<text text-anchor="middle" x="192.5" y="-215.2" font-family="Cascadia Code PL" font-size="11.00" fill="cyan">─────────────────</text>
<text text-anchor="middle" x="192.5" y="-203.2" font-family="Cascadia Code PL" font-size="11.00" fill="cyan">DRW_load_binary(filename)</text>
<text text-anchor="middle" x="192.5" y="-191.2" font-family="Cascadia Code PL" font-size="11.00" fill="cyan">or IMAGE_IMPORT_load_file()</text>
<text text-anchor="middle" x="192.5" y="-179.2" font-family="Cascadia Code PL" font-size="11.00" fill="cyan">Parse file format</text>
<text text-anchor="middle" x="192.5" y="-167.2" font-family="Cascadia Code PL" font-size="11.00" fill="cyan">Restore all state</text>
</g>
<!-- S_UNSAVED_CHECK&#45;&gt;S_LOADING -->
<g id="edge2" class="edge">
<title>S_UNSAVED_CHECK&#45;&gt;S_LOADING</title>
<path fill="none" stroke="#cccc66" d="M94.38,-295.97C99.9,-283.3 107.31,-269.2 116.5,-258 119.54,-254.29 122.88,-250.69 126.39,-247.21"/>
<polygon fill="#cccc66" stroke="#cccc66" points="128.91,-249.66 133.84,-240.28 124.14,-244.53 128.91,-249.66"/>
<text text-anchor="middle" x="152" y="-270.8" font-family="Cascadia Code PL" font-size="9.00" fill="#aaaaaa"> &#160;Save first (saved)</text>
<text text-anchor="middle" x="152" y="-260.8" font-family="Cascadia Code PL" font-size="9.00" fill="#aaaaaa"> &#160;or Don&#39;t Save</text>
</g>
<!-- S_LOADING&#45;&gt;S_IDLE -->
<g id="edge5" class="edge">
<title>S_LOADING&#45;&gt;S_IDLE</title>
<path fill="none" stroke="#cc6666" stroke-dasharray="5,2" d="M195.11,-240.06C197.27,-284.5 198.45,-359.05 187.5,-422 187.04,-424.67 186.46,-427.38 185.8,-430.11"/>
<polygon fill="#cc6666" stroke="#cc6666" points="182.38,-429.33 183.12,-439.9 189.14,-431.18 182.38,-429.33"/>
<text text-anchor="middle" x="232.5" y="-337.8" font-family="Cascadia Code PL" font-size="9.00" fill="#aaaaaa"> &#160;File error</text>
<text text-anchor="middle" x="232.5" y="-327.8" font-family="Cascadia Code PL" font-size="9.00" fill="#aaaaaa"> &#160;Invalid format</text>
<text text-anchor="middle" x="232.5" y="-317.8" font-family="Cascadia Code PL" font-size="9.00" fill="#aaaaaa"> &#160;or file not found</text>
</g>
<!-- S_LOADED -->
<g id="node5" class="node">
<title>S_LOADED</title>
<polygon fill="none" stroke="white" points="313.5,-104 179.5,-104 179.5,0 313.5,0 313.5,-104"/>
<text text-anchor="middle" x="246.5" y="-91.2" font-family="Cascadia Code PL" font-size="11.00" fill="cyan">4 · LOADED</text>
<text text-anchor="middle" x="246.5" y="-79.2" font-family="Cascadia Code PL" font-size="11.00" fill="cyan">─────────────────</text>
<text text-anchor="middle" x="246.5" y="-67.2" font-family="Cascadia Code PL" font-size="11.00" fill="cyan">All layers restored</text>
<text text-anchor="middle" x="246.5" y="-55.2" font-family="Cascadia Code PL" font-size="11.00" fill="cyan">Tool state reset</text>
<text text-anchor="middle" x="246.5" y="-43.2" font-family="Cascadia Code PL" font-size="11.00" fill="cyan">Palette loaded</text>
<text text-anchor="middle" x="246.5" y="-31.2" font-family="Cascadia Code PL" font-size="11.00" fill="cyan">Drawer slots loaded</text>
<text text-anchor="middle" x="246.5" y="-19.2" font-family="Cascadia Code PL" font-size="11.00" fill="cyan">Grid/symmetry reset</text>
<text text-anchor="middle" x="246.5" y="-7.2" font-family="Cascadia Code PL" font-size="11.00" fill="cyan">CANVAS_DIRTY = FALSE</text>
</g>
<!-- S_LOADING&#45;&gt;S_LOADED -->
<g id="edge4" class="edge">
<title>S_LOADING&#45;&gt;S_LOADED</title>
<path fill="none" stroke="#66cc66" d="M206.97,-159.87C212.22,-145.68 218.29,-129.28 224.06,-113.66"/>
<polygon fill="#66cc66" stroke="#66cc66" points="227.43,-114.65 227.62,-104.06 220.86,-112.22 227.43,-114.65"/>
<text text-anchor="middle" x="250" y="-134.8" font-family="Cascadia Code PL" font-size="9.00" fill="#aaaaaa"> &#160;File parsed OK</text>
<text text-anchor="middle" x="250" y="-124.8" font-family="Cascadia Code PL" font-size="9.00" fill="#aaaaaa"> &#160;State restored</text>
</g>
<!-- S_LOADED&#45;&gt;S_IDLE -->
<g id="edge6" class="edge">
<title>S_LOADED&#45;&gt;S_IDLE</title>
<path fill="none" stroke="#cccc66" d="M278.27,-104.21C280.8,-110.04 282.97,-116.04 284.5,-122 311.33,-226.32 314.42,-265.21 271.5,-364 260.1,-390.23 239.64,-414.18 220.1,-432.9"/>
<polygon fill="#cccc66" stroke="#cccc66" points="217.61,-430.44 212.68,-439.82 222.38,-435.56 217.61,-430.44"/>
<text text-anchor="middle" x="331.5" y="-270.8" font-family="Cascadia Code PL" font-size="9.00" fill="#aaaaaa"> &#160;Return to</text>
<text text-anchor="middle" x="331.5" y="-260.8" font-family="Cascadia Code PL" font-size="9.00" fill="#aaaaaa"> &#160;normal mode</text>
</g>
<!-- R1 -->
<g id="node6" class="node">
<title>R1</title>
<polygon fill="none" stroke="white" points="627.5,-670 513.5,-670 513.5,-590 627.5,-590 627.5,-670"/>
<text text-anchor="middle" x="570.5" y="-657.2" font-family="Cascadia Code PL" font-size="11.00" fill="cyan">File → Open Recent</text>
<text text-anchor="middle" x="570.5" y="-645.2" font-family="Cascadia Code PL" font-size="11.00" fill="cyan">─────────────────</text>
<text text-anchor="middle" x="570.5" y="-633.2" font-family="Cascadia Code PL" font-size="11.00" fill="cyan">Submenu lists up to</text>
<text text-anchor="middle" x="570.5" y="-621.2" font-family="Cascadia Code PL" font-size="11.00" fill="cyan">N recent files</text>
<text text-anchor="middle" x="570.5" y="-609.2" font-family="Cascadia Code PL" font-size="11.00" fill="cyan">Most recent first</text>
<text text-anchor="middle" x="570.5" y="-597.2" font-family="Cascadia Code PL" font-size="11.00" fill="cyan">Full path shown</text>
</g>
<!-- R2 -->
<g id="node7" class="node">
<title>R2</title>
<polygon fill="none" stroke="white" points="495,-664 370,-664 370,-596 495,-596 495,-664"/>
<text text-anchor="middle" x="432.5" y="-651.2" font-family="Cascadia Code PL" font-size="11.00" fill="cyan">Stored In Config</text>
<text text-anchor="middle" x="432.5" y="-639.2" font-family="Cascadia Code PL" font-size="11.00" fill="cyan">─────────────────</text>
<text text-anchor="middle" x="432.5" y="-627.2" font-family="Cascadia Code PL" font-size="11.00" fill="cyan">DRAW.cfg persists</text>
<text text-anchor="middle" x="432.5" y="-615.2" font-family="Cascadia Code PL" font-size="11.00" fill="cyan">recent file paths</text>
<text text-anchor="middle" x="432.5" y="-603.2" font-family="Cascadia Code PL" font-size="11.00" fill="cyan">Updated on save/load</text>
</g>
<!-- R3 -->
<g id="node8" class="node">
<title>R3</title>
<polygon fill="none" stroke="white" points="351.5,-664 219.5,-664 219.5,-596 351.5,-596 351.5,-664"/>
<text text-anchor="middle" x="285.5" y="-651.2" font-family="Cascadia Code PL" font-size="11.00" fill="cyan">Command&#45;Line Load</text>
<text text-anchor="middle" x="285.5" y="-639.2" font-family="Cascadia Code PL" font-size="11.00" fill="cyan">─────────────────</text>
<text text-anchor="middle" x="285.5" y="-627.2" font-family="Cascadia Code PL" font-size="11.00" fill="cyan">DRAW.run filename.drw</text>
<text text-anchor="middle" x="285.5" y="-615.2" font-family="Cascadia Code PL" font-size="11.00" fill="cyan">Deferred to first frame</text>
<text text-anchor="middle" x="285.5" y="-603.2" font-family="Cascadia Code PL" font-size="11.00" fill="cyan">Skips recent menu</text>
</g>
<!-- F_DRW -->
<g id="node9" class="node">
<title>F_DRW</title>
<polygon fill="none" stroke="white" points="1171.5,-670 1049.5,-670 1049.5,-590 1171.5,-590 1171.5,-670"/>
<text text-anchor="middle" x="1110.5" y="-657.2" font-family="Cascadia Code PL" font-size="11.00" fill="cyan">DRW (Native)</text>
<text text-anchor="middle" x="1110.5" y="-645.2" font-family="Cascadia Code PL" font-size="11.00" fill="cyan">─────────────────</text>
<text text-anchor="middle" x="1110.5" y="-633.2" font-family="Cascadia Code PL" font-size="11.00" fill="cyan">PNG with drAw chunk</text>
<text text-anchor="middle" x="1110.5" y="-621.2" font-family="Cascadia Code PL" font-size="11.00" fill="cyan">Full project restore:</text>
<text text-anchor="middle" x="1110.5" y="-609.2" font-family="Cascadia Code PL" font-size="11.00" fill="cyan">layers, palette, tools,</text>
<text text-anchor="middle" x="1110.5" y="-597.2" font-family="Cascadia Code PL" font-size="11.00" fill="cyan">drawer, history</text>
</g>
<!-- F_PNG -->
<g id="node10" class="node">
<title>F_PNG</title>
<polygon fill="none" stroke="white" points="1031.5,-664 903.5,-664 903.5,-596 1031.5,-596 1031.5,-664"/>
<text text-anchor="middle" x="967.5" y="-651.2" font-family="Cascadia Code PL" font-size="11.00" fill="cyan">PNG Image</text>
<text text-anchor="middle" x="967.5" y="-639.2" font-family="Cascadia Code PL" font-size="11.00" fill="cyan">─────────────────</text>
<text text-anchor="middle" x="967.5" y="-627.2" font-family="Cascadia Code PL" font-size="11.00" fill="cyan">Single layer import</text>
<text text-anchor="middle" x="967.5" y="-615.2" font-family="Cascadia Code PL" font-size="11.00" fill="cyan">RGBA preserved</text>
<text text-anchor="middle" x="967.5" y="-603.2" font-family="Cascadia Code PL" font-size="11.00" fill="cyan">Checks for drAw chunk</text>
</g>
<!-- F_BMP -->
<g id="node11" class="node">
<title>F_BMP</title>
<polygon fill="none" stroke="white" points="885.5,-664 775.5,-664 775.5,-596 885.5,-596 885.5,-664"/>
<text text-anchor="middle" x="830.5" y="-651.2" font-family="Cascadia Code PL" font-size="11.00" fill="cyan">BMP Image</text>
<text text-anchor="middle" x="830.5" y="-639.2" font-family="Cascadia Code PL" font-size="11.00" fill="cyan">─────────────────</text>
<text text-anchor="middle" x="830.5" y="-627.2" font-family="Cascadia Code PL" font-size="11.00" fill="cyan">FILE_BMP_load()</text>
<text text-anchor="middle" x="830.5" y="-615.2" font-family="Cascadia Code PL" font-size="11.00" fill="cyan">Single layer import</text>
<text text-anchor="middle" x="830.5" y="-603.2" font-family="Cascadia Code PL" font-size="11.00" fill="cyan">RGB only</text>
</g>
<!-- F_GPL -->
<g id="node12" class="node">
<title>F_GPL</title>
<polygon fill="none" stroke="white" points="757.5,-664 651.5,-664 651.5,-596 757.5,-596 757.5,-664"/>
<text text-anchor="middle" x="704.5" y="-651.2" font-family="Cascadia Code PL" font-size="11.00" fill="cyan">GPL Palette</text>
<text text-anchor="middle" x="704.5" y="-639.2" font-family="Cascadia Code PL" font-size="11.00" fill="cyan">─────────────────</text>
<text text-anchor="middle" x="704.5" y="-627.2" font-family="Cascadia Code PL" font-size="11.00" fill="cyan">GIMP palette file</text>
<text text-anchor="middle" x="704.5" y="-615.2" font-family="Cascadia Code PL" font-size="11.00" fill="cyan">Loads 256 colors</text>
<text text-anchor="middle" x="704.5" y="-603.2" font-family="Cascadia Code PL" font-size="11.00" fill="cyan">PAL_load_gpl()</text>
</g>
<!-- D1 -->
<g id="node13" class="node">
<title>D1</title>
<polygon fill="none" stroke="white" points="1529.5,-670 1371.5,-670 1371.5,-590 1529.5,-590 1529.5,-670"/>
<text text-anchor="middle" x="1450.5" y="-657.2" font-family="Cascadia Code PL" font-size="11.00" fill="cyan">MOUSE.DEFERRED_ACTION%</text>
<text text-anchor="middle" x="1450.5" y="-645.2" font-family="Cascadia Code PL" font-size="11.00" fill="cyan">─────────────────</text>
<text text-anchor="middle" x="1450.5" y="-633.2" font-family="Cascadia Code PL" font-size="11.00" fill="cyan">File dialog blocks mouse</text>
<text text-anchor="middle" x="1450.5" y="-621.2" font-family="Cascadia Code PL" font-size="11.00" fill="cyan">Defer load to post&#45;frame</text>
<text text-anchor="middle" x="1450.5" y="-609.2" font-family="Cascadia Code PL" font-size="11.00" fill="cyan">MOUSE_input_handler_loop()</text>
<text text-anchor="middle" x="1450.5" y="-597.2" font-family="Cascadia Code PL" font-size="11.00" fill="cyan">executes deferred action</text>
</g>
<!-- D2 -->
<g id="node14" class="node">
<title>D2</title>
<polygon fill="none" stroke="white" points="1354,-670 1195,-670 1195,-590 1354,-590 1354,-670"/>
<text text-anchor="middle" x="1274.5" y="-657.2" font-family="Cascadia Code PL" font-size="11.00" fill="cyan">MOUSE_cleanup_after_dialog</text>
<text text-anchor="middle" x="1274.5" y="-645.2" font-family="Cascadia Code PL" font-size="11.00" fill="cyan">─────────────────</text>
<text text-anchor="middle" x="1274.5" y="-633.2" font-family="Cascadia Code PL" font-size="11.00" fill="cyan">Drain mouse buffer</text>
<text text-anchor="middle" x="1274.5" y="-621.2" font-family="Cascadia Code PL" font-size="11.00" fill="cyan">Force buttons up</text>
<text text-anchor="middle" x="1274.5" y="-609.2" font-family="Cascadia Code PL" font-size="11.00" fill="cyan">SUPPRESS_FRAMES = 2</text>
<text text-anchor="middle" x="1274.5" y="-597.2" font-family="Cascadia Code PL" font-size="11.00" fill="cyan">Clear keyboard buffer</text>
</g>
<!-- SR1 -->
<g id="node15" class="node">
<title>SR1</title>
<polygon fill="none" stroke="white" points="1689,-706 1554,-706 1554,-554 1689,-554 1689,-706"/>
<text text-anchor="middle" x="1621.5" y="-693.2" font-family="Cascadia Code PL" font-size="11.00" fill="cyan">DRW_load_binary resets:</text>
<text text-anchor="middle" x="1621.5" y="-681.2" font-family="Cascadia Code PL" font-size="11.00" fill="cyan">─────────────────</text>
<text text-anchor="middle" x="1621.5" y="-669.2" font-family="Cascadia Code PL" font-size="11.00" fill="cyan">• All tool states</text>
<text text-anchor="middle" x="1621.5" y="-657.2" font-family="Cascadia Code PL" font-size="11.00" fill="cyan">• Marquee / selection</text>
<text text-anchor="middle" x="1621.5" y="-645.2" font-family="Cascadia Code PL" font-size="11.00" fill="cyan">• Transform overlay</text>
<text text-anchor="middle" x="1621.5" y="-633.2" font-family="Cascadia Code PL" font-size="11.00" fill="cyan">• Custom brush</text>
<text text-anchor="middle" x="1621.5" y="-621.2" font-family="Cascadia Code PL" font-size="11.00" fill="cyan">• Text tool</text>
<text text-anchor="middle" x="1621.5" y="-609.2" font-family="Cascadia Code PL" font-size="11.00" fill="cyan">• Fill&#45;adj</text>
<text text-anchor="middle" x="1621.5" y="-597.2" font-family="Cascadia Code PL" font-size="11.00" fill="cyan">• Image import</text>
<text text-anchor="middle" x="1621.5" y="-585.2" font-family="Cascadia Code PL" font-size="11.00" fill="cyan">• History system</text>
<text text-anchor="middle" x="1621.5" y="-573.2" font-family="Cascadia Code PL" font-size="11.00" fill="cyan">• Panel visibility</text>
<text text-anchor="middle" x="1621.5" y="-561.2" font-family="Cascadia Code PL" font-size="11.00" fill="cyan">• Zoom / pan offset</text>
</g>
<!-- L1 -->
<g id="node16" class="node">
<title>L1</title>
<ellipse fill="white" stroke="white" cx="1899.5" cy="-630" rx="0.36" ry="0.36"/>
</g>
<!-- L2 -->
<g id="node17" class="node">
<title>L2</title>
<ellipse fill="white" stroke="white" cx="1899.5" cy="-474" rx="0.36" ry="0.36"/>
</g>
<!-- L1&#45;&gt;L2 -->
<g id="edge8" class="edge">
<title>L1&#45;&gt;L2</title>
<path fill="none" stroke="#66cc66" d="M1899.5,-628.89C1899.5,-624.98 1899.5,-519.49 1899.5,-485.47"/>
<polygon fill="#66cc66" stroke="#66cc66" points="1903,-485.11 1899.5,-475.11 1896,-485.11 1903,-485.11"/>
<text text-anchor="middle" x="1931" y="-528.8" font-family="Cascadia Code PL" font-size="9.00" fill="#aaaaaa"> Load / Activate</text>
</g>
<!-- L3 -->
<g id="node18" class="node">
<title>L3</title>
<ellipse fill="white" stroke="white" cx="1820.5" cy="-630" rx="0.36" ry="0.36"/>
</g>
<!-- L4 -->
<g id="node19" class="node">
<title>L4</title>
<ellipse fill="white" stroke="white" cx="1820.5" cy="-474" rx="0.36" ry="0.36"/>
</g>
<!-- L3&#45;&gt;L4 -->
<g id="edge9" class="edge">
<title>L3&#45;&gt;L4</title>
<path fill="none" stroke="#cc6666" stroke-dasharray="5,2" d="M1820.5,-628.89C1820.5,-624.98 1820.5,-519.49 1820.5,-485.47"/>
<polygon fill="#cc6666" stroke="#cc6666" points="1824,-485.11 1820.5,-475.11 1817,-485.11 1824,-485.11"/>
<text text-anchor="middle" x="1848.5" y="-528.8" font-family="Cascadia Code PL" font-size="9.00" fill="#aaaaaa"> Cancel / Error</text>
</g>
<!-- L5 -->
<g id="node20" class="node">
<title>L5</title>
<ellipse fill="white" stroke="white" cx="1731.5" cy="-630" rx="0.36" ry="0.36"/>
</g>
<!-- L6 -->
<g id="node21" class="node">
<title>L6</title>
<ellipse fill="white" stroke="white" cx="1731.5" cy="-474" rx="0.36" ry="0.36"/>
</g>
<!-- L5&#45;&gt;L6 -->
<g id="edge10" class="edge">
<title>L5&#45;&gt;L6</title>
<path fill="none" stroke="#cccc66" d="M1731.5,-628.89C1731.5,-624.98 1731.5,-519.49 1731.5,-485.47"/>
<polygon fill="#cccc66" stroke="#cccc66" points="1735,-485.11 1731.5,-475.11 1728,-485.11 1735,-485.11"/>
<text text-anchor="middle" x="1764.5" y="-528.8" font-family="Cascadia Code PL" font-size="9.00" fill="#aaaaaa"> Step / Complete</text>
</g>
</g>
</svg>
