<?xml version="1.0" encoding="UTF-8" standalone="no"?>
<!DOCTYPE svg PUBLIC "-//W3C//DTD SVG 1.1//EN"
 "http://www.w3.org/Graphics/SVG/1.1/DTD/svg11.dtd">
<!-- Generated by graphviz version 2.42.4 (0)
 -->
<!-- Title: IMAGE_ADJUSTMENTS Pages: 1 -->
<svg width="2873pt" height="602pt"
 viewBox="0.00 0.00 2872.50 602.00" xmlns="http://www.w3.org/2000/svg" xmlns:xlink="http://www.w3.org/1999/xlink">
<g id="graph0" class="graph" transform="scale(1 1) rotate(0) translate(4 598)">
<title>IMAGE_ADJUSTMENTS</title>
<text text-anchor="middle" x="1432.25" y="-570.8" font-family="Cascadia Code PL" font-size="24.00" fill="white">IMAGE ADJUSTMENT DIALOGS STATE MACHINE</text>
<text text-anchor="middle" x="1432.25" y="-544.8" font-family="Cascadia Code PL" font-size="24.00" fill="white">(Brightness, Hue, Levels, Blur, Sharpen, etc.)</text>
<g id="clust3" class="cluster">
<title>cluster_types</title>
<polygon fill="transparent" stroke="orange" stroke-dasharray="5,2" points="342.5,-404 342.5,-520 1811.5,-520 1811.5,-404 342.5,-404"/>
<text text-anchor="middle" x="448" y="-507.2" font-family="Cascadia Code PL" font-size="11.00" fill="white">ADJUSTMENT TYPES (IMAGE&#45;ADJ.BI/BM)</text>
</g>
<g id="clust4" class="cluster">
<title>cluster_preview</title>
<polygon fill="transparent" stroke="orange" stroke-dasharray="5,2" points="1819.5,-404 1819.5,-520 2299.5,-520 2299.5,-404 1819.5,-404"/>
<text text-anchor="middle" x="1882.5" y="-507.2" font-family="Cascadia Code PL" font-size="11.00" fill="white">LIVE PREVIEW SYSTEM</text>
</g>
<g id="clust5" class="cluster">
<title>cluster_history</title>
<polygon fill="transparent" stroke="orange" stroke-dasharray="5,2" points="2307.5,-398 2307.5,-526 2485.5,-526 2485.5,-398 2307.5,-398"/>
<text text-anchor="middle" x="2373" y="-513.2" font-family="Cascadia Code PL" font-size="11.00" fill="white">HISTORY INTEGRATION</text>
</g>
<g id="clust6" class="cluster">
<title>cluster_legend</title>
<polygon fill="transparent" stroke="white" stroke-dasharray="5,2" points="2493.5,-317.64 2493.5,-480.36 2856.5,-480.36 2856.5,-317.64 2493.5,-317.64"/>
<text text-anchor="middle" x="2521.5" y="-467.56" font-family="Cascadia Code PL" font-size="11.00" fill="white">LEGEND</text>
</g>
<!-- MAIN -->
<g id="node1" class="node">
<title>MAIN</title>
<polygon fill="none" stroke="orange" stroke-width="2" points="333,-470 330,-474 309,-474 306,-470 230,-470 230,-434 333,-434 333,-470"/>
<text text-anchor="middle" x="281.5" y="-455.6" font-family="Cascadia Code PL" font-size="13.00" fill="orange">IMAGE</text>
<text text-anchor="middle" x="281.5" y="-441.6" font-family="Cascadia Code PL" font-size="13.00" fill="orange">ADJUSTMENTS</text>
</g>
<!-- S_IDLE -->
<g id="node2" class="node">
<title>S_IDLE</title>
<polygon fill="none" stroke="white" points="357.5,-360 205.5,-360 205.5,-292 357.5,-292 357.5,-360"/>
<text text-anchor="middle" x="281.5" y="-347.2" font-family="Cascadia Code PL" font-size="11.00" fill="cyan">1 · IDLE</text>
<text text-anchor="middle" x="281.5" y="-335.2" font-family="Cascadia Code PL" font-size="11.00" fill="cyan">─────────────────</text>
<text text-anchor="middle" x="281.5" y="-323.2" font-family="Cascadia Code PL" font-size="11.00" fill="cyan">No adjustment dialog open</text>
<text text-anchor="middle" x="281.5" y="-311.2" font-family="Cascadia Code PL" font-size="11.00" fill="cyan">Normal painting mode</text>
<text text-anchor="middle" x="281.5" y="-299.2" font-family="Cascadia Code PL" font-size="11.00" fill="cyan">Layer pixels unmodified</text>
</g>
<!-- MAIN&#45;&gt;S_IDLE -->
<g id="edge7" class="edge">
<title>MAIN&#45;&gt;S_IDLE</title>
<path fill="none" stroke="#555555" stroke-dasharray="1,5" d="M281.5,-433.76C281.5,-414.86 281.5,-384.08 281.5,-360.41"/>
</g>
<!-- S_DIALOG -->
<g id="node3" class="node">
<title>S_DIALOG</title>
<polygon fill="none" stroke="white" points="352.5,-226 210.5,-226 210.5,-146 352.5,-146 352.5,-226"/>
<text text-anchor="middle" x="281.5" y="-213.2" font-family="Cascadia Code PL" font-size="11.00" fill="cyan">2 · DIALOG OPEN</text>
<text text-anchor="middle" x="281.5" y="-201.2" font-family="Cascadia Code PL" font-size="11.00" fill="cyan">─────────────────</text>
<text text-anchor="middle" x="281.5" y="-189.2" font-family="Cascadia Code PL" font-size="11.00" fill="cyan">Adjustment dialog shown</text>
<text text-anchor="middle" x="281.5" y="-177.2" font-family="Cascadia Code PL" font-size="11.00" fill="cyan">Slider controls active</text>
<text text-anchor="middle" x="281.5" y="-165.2" font-family="Cascadia Code PL" font-size="11.00" fill="cyan">Live preview on canvas</text>
<text text-anchor="middle" x="281.5" y="-153.2" font-family="Cascadia Code PL" font-size="11.00" fill="cyan">Original snapshot saved</text>
</g>
<!-- S_IDLE&#45;&gt;S_DIALOG -->
<g id="edge1" class="edge">
<title>S_IDLE&#45;&gt;S_DIALOG</title>
<path fill="none" stroke="#66cc66" d="M281.5,-291.95C281.5,-275.26 281.5,-254.68 281.5,-236.18"/>
<polygon fill="#66cc66" stroke="#66cc66" points="285,-236.16 281.5,-226.16 278,-236.16 285,-236.16"/>
<text text-anchor="middle" x="331.5" y="-266.8" font-family="Cascadia Code PL" font-size="9.00" fill="#aaaaaa"> &#160;Image → Adjustments →</text>
<text text-anchor="middle" x="331.5" y="-256.8" font-family="Cascadia Code PL" font-size="9.00" fill="#aaaaaa"> &#160;(select adjustment)</text>
<text text-anchor="middle" x="331.5" y="-246.8" font-family="Cascadia Code PL" font-size="9.00" fill="#aaaaaa"> &#160;Open dialog</text>
</g>
<!-- S_ADJUSTING -->
<g id="node4" class="node">
<title>S_ADJUSTING</title>
<polygon fill="none" stroke="white" points="149,-80 0,-80 0,0 149,0 149,-80"/>
<text text-anchor="middle" x="74.5" y="-67.2" font-family="Cascadia Code PL" font-size="11.00" fill="cyan">3 · ADJUSTING</text>
<text text-anchor="middle" x="74.5" y="-55.2" font-family="Cascadia Code PL" font-size="11.00" fill="cyan">─────────────────</text>
<text text-anchor="middle" x="74.5" y="-43.2" font-family="Cascadia Code PL" font-size="11.00" fill="cyan">User dragging sliders</text>
<text text-anchor="middle" x="74.5" y="-31.2" font-family="Cascadia Code PL" font-size="11.00" fill="cyan">Preview updates per&#45;frame</text>
<text text-anchor="middle" x="74.5" y="-19.2" font-family="Cascadia Code PL" font-size="11.00" fill="cyan">Pixel computation running</text>
<text text-anchor="middle" x="74.5" y="-7.2" font-family="Cascadia Code PL" font-size="11.00" fill="cyan">_MEM&#45;based processing</text>
</g>
<!-- S_DIALOG&#45;&gt;S_ADJUSTING -->
<g id="edge2" class="edge">
<title>S_DIALOG&#45;&gt;S_ADJUSTING</title>
<path fill="none" stroke="#cccc66" d="M210.31,-165.07C186.31,-156.19 160.35,-144.03 139.5,-128 125.51,-117.24 113.05,-102.72 102.89,-88.62"/>
<polygon fill="#cccc66" stroke="#cccc66" points="105.75,-86.61 97.17,-80.4 100.01,-90.61 105.75,-86.61"/>
<text text-anchor="middle" x="173.5" y="-115.8" font-family="Cascadia Code PL" font-size="9.00" fill="#aaaaaa"> &#160;Drag slider</text>
<text text-anchor="middle" x="173.5" y="-105.8" font-family="Cascadia Code PL" font-size="9.00" fill="#aaaaaa"> &#160;or change value</text>
</g>
<!-- S_APPLIED -->
<g id="node5" class="node">
<title>S_APPLIED</title>
<polygon fill="none" stroke="white" points="400,-80 269,-80 269,0 400,0 400,-80"/>
<text text-anchor="middle" x="334.5" y="-67.2" font-family="Cascadia Code PL" font-size="11.00" fill="cyan">4 · APPLIED</text>
<text text-anchor="middle" x="334.5" y="-55.2" font-family="Cascadia Code PL" font-size="11.00" fill="cyan">─────────────────</text>
<text text-anchor="middle" x="334.5" y="-43.2" font-family="Cascadia Code PL" font-size="11.00" fill="cyan">OK pressed</text>
<text text-anchor="middle" x="334.5" y="-31.2" font-family="Cascadia Code PL" font-size="11.00" fill="cyan">Adjustment committed</text>
<text text-anchor="middle" x="334.5" y="-19.2" font-family="Cascadia Code PL" font-size="11.00" fill="cyan">HISTORY_record saved</text>
<text text-anchor="middle" x="334.5" y="-7.2" font-family="Cascadia Code PL" font-size="11.00" fill="cyan">Layer pixels modified</text>
</g>
<!-- S_DIALOG&#45;&gt;S_APPLIED -->
<g id="edge5" class="edge">
<title>S_DIALOG&#45;&gt;S_APPLIED</title>
<path fill="none" stroke="#cccc66" d="M295.98,-145.65C302.32,-128.43 309.82,-108.04 316.52,-89.86"/>
<polygon fill="#cccc66" stroke="#cccc66" points="319.87,-90.89 320.04,-80.3 313.3,-88.48 319.87,-90.89"/>
<text text-anchor="middle" x="349" y="-120.8" font-family="Cascadia Code PL" font-size="9.00" fill="#aaaaaa"> &#160;Press OK / Enter</text>
<text text-anchor="middle" x="349" y="-110.8" font-family="Cascadia Code PL" font-size="9.00" fill="#aaaaaa"> &#160;Commit changes</text>
<text text-anchor="middle" x="349" y="-100.8" font-family="Cascadia Code PL" font-size="9.00" fill="#aaaaaa"> &#160;HISTORY_record</text>
</g>
<!-- S_CANCELLED -->
<g id="node6" class="node">
<title>S_CANCELLED</title>
<polygon fill="none" stroke="white" points="558.5,-74 418.5,-74 418.5,-6 558.5,-6 558.5,-74"/>
<text text-anchor="middle" x="488.5" y="-61.2" font-family="Cascadia Code PL" font-size="11.00" fill="cyan">5 · CANCELLED</text>
<text text-anchor="middle" x="488.5" y="-49.2" font-family="Cascadia Code PL" font-size="11.00" fill="cyan">─────────────────</text>
<text text-anchor="middle" x="488.5" y="-37.2" font-family="Cascadia Code PL" font-size="11.00" fill="cyan">Cancel pressed</text>
<text text-anchor="middle" x="488.5" y="-25.2" font-family="Cascadia Code PL" font-size="11.00" fill="cyan">Restore original snapshot</text>
<text text-anchor="middle" x="488.5" y="-13.2" font-family="Cascadia Code PL" font-size="11.00" fill="cyan">Layer pixels unchanged</text>
</g>
<!-- S_DIALOG&#45;&gt;S_CANCELLED -->
<g id="edge6" class="edge">
<title>S_DIALOG&#45;&gt;S_CANCELLED</title>
<path fill="none" stroke="#cc6666" stroke-dasharray="5,2" d="M352.77,-149.95C364.98,-143.13 377.32,-135.7 388.5,-128 408.72,-114.09 429.45,-96.66 446.76,-81.07"/>
<polygon fill="#cc6666" stroke="#cc6666" points="449.42,-83.38 454.45,-74.05 444.7,-78.21 449.42,-83.38"/>
<text text-anchor="middle" x="463" y="-115.8" font-family="Cascadia Code PL" font-size="9.00" fill="#aaaaaa"> &#160;Press Cancel / Esc</text>
<text text-anchor="middle" x="463" y="-105.8" font-family="Cascadia Code PL" font-size="9.00" fill="#aaaaaa"> &#160;Restore original</text>
</g>
<!-- S_ADJUSTING&#45;&gt;S_DIALOG -->
<g id="edge4" class="edge">
<title>S_ADJUSTING&#45;&gt;S_DIALOG</title>
<path fill="none" stroke="#cccc66" d="M149.21,-65.91C169.16,-74.41 190.01,-85.1 207.5,-98 216.15,-104.38 230.74,-120.95 244.69,-137.95"/>
<polygon fill="#cccc66" stroke="#cccc66" points="242.01,-140.2 251.03,-145.75 247.44,-135.78 242.01,-140.2"/>
<text text-anchor="middle" x="265" y="-115.8" font-family="Cascadia Code PL" font-size="9.00" fill="#aaaaaa"> &#160;Slider released</text>
<text text-anchor="middle" x="265" y="-105.8" font-family="Cascadia Code PL" font-size="9.00" fill="#aaaaaa"> &#160;Preview stable</text>
</g>
<!-- S_ADJUSTING&#45;&gt;S_ADJUSTING -->
<g id="edge3" class="edge">
<title>S_ADJUSTING&#45;&gt;S_ADJUSTING</title>
<path fill="none" stroke="#88aacc" d="M149.26,-52.11C159.88,-50.16 167,-46.12 167,-40 167,-36.08 164.08,-33.02 159.19,-30.8"/>
<polygon fill="#88aacc" stroke="#88aacc" points="159.85,-27.35 149.26,-27.89 157.87,-34.06 159.85,-27.35"/>
<text text-anchor="middle" x="209" y="-47.8" font-family="Cascadia Code PL" font-size="9.00" fill="#aaaaaa"> &#160;Slider changes</text>
<text text-anchor="middle" x="209" y="-37.8" font-family="Cascadia Code PL" font-size="9.00" fill="#aaaaaa"> &#160;Live preview update</text>
<text text-anchor="middle" x="209" y="-27.8" font-family="Cascadia Code PL" font-size="9.00" fill="#aaaaaa"> &#160;Per&#45;pixel recalculate</text>
</g>
<!-- T_BC -->
<g id="node7" class="node">
<title>T_BC</title>
<polygon fill="none" stroke="white" points="1803,-486 1678,-486 1678,-418 1803,-418 1803,-486"/>
<text text-anchor="middle" x="1740.5" y="-473.2" font-family="Cascadia Code PL" font-size="11.00" fill="cyan">Brightness/Contrast</text>
<text text-anchor="middle" x="1740.5" y="-461.2" font-family="Cascadia Code PL" font-size="11.00" fill="cyan">─────────────────</text>
<text text-anchor="middle" x="1740.5" y="-449.2" font-family="Cascadia Code PL" font-size="11.00" fill="cyan">Brightness: &#45;100..+100</text>
<text text-anchor="middle" x="1740.5" y="-437.2" font-family="Cascadia Code PL" font-size="11.00" fill="cyan">Contrast: &#45;100..+100</text>
<text text-anchor="middle" x="1740.5" y="-425.2" font-family="Cascadia Code PL" font-size="11.00" fill="cyan">Linear pixel transform</text>
</g>
<!-- T_HS -->
<g id="node8" class="node">
<title>T_HS</title>
<polygon fill="none" stroke="white" points="1659.5,-492 1535.5,-492 1535.5,-412 1659.5,-412 1659.5,-492"/>
<text text-anchor="middle" x="1597.5" y="-479.2" font-family="Cascadia Code PL" font-size="11.00" fill="cyan">Hue/Saturation</text>
<text text-anchor="middle" x="1597.5" y="-467.2" font-family="Cascadia Code PL" font-size="11.00" fill="cyan">─────────────────</text>
<text text-anchor="middle" x="1597.5" y="-455.2" font-family="Cascadia Code PL" font-size="11.00" fill="cyan">Hue shift: &#45;180..+180°</text>
<text text-anchor="middle" x="1597.5" y="-443.2" font-family="Cascadia Code PL" font-size="11.00" fill="cyan">Saturation: &#45;100..+100</text>
<text text-anchor="middle" x="1597.5" y="-431.2" font-family="Cascadia Code PL" font-size="11.00" fill="cyan">Lightness: &#45;100..+100</text>
<text text-anchor="middle" x="1597.5" y="-419.2" font-family="Cascadia Code PL" font-size="11.00" fill="cyan">HSL color space</text>
</g>
<!-- T_LEV -->
<g id="node9" class="node">
<title>T_LEV</title>
<polygon fill="none" stroke="white" points="1517,-492 1372,-492 1372,-412 1517,-412 1517,-492"/>
<text text-anchor="middle" x="1444.5" y="-479.2" font-family="Cascadia Code PL" font-size="11.00" fill="cyan">Levels</text>
<text text-anchor="middle" x="1444.5" y="-467.2" font-family="Cascadia Code PL" font-size="11.00" fill="cyan">─────────────────</text>
<text text-anchor="middle" x="1444.5" y="-455.2" font-family="Cascadia Code PL" font-size="11.00" fill="cyan">Input black/white points</text>
<text text-anchor="middle" x="1444.5" y="-443.2" font-family="Cascadia Code PL" font-size="11.00" fill="cyan">Output black/white points</text>
<text text-anchor="middle" x="1444.5" y="-431.2" font-family="Cascadia Code PL" font-size="11.00" fill="cyan">Gamma/midtone slider</text>
<text text-anchor="middle" x="1444.5" y="-419.2" font-family="Cascadia Code PL" font-size="11.00" fill="cyan">Histogram display</text>
</g>
<!-- T_BLUR -->
<g id="node10" class="node">
<title>T_BLUR</title>
<polygon fill="none" stroke="white" points="1353.5,-486 1229.5,-486 1229.5,-418 1353.5,-418 1353.5,-486"/>
<text text-anchor="middle" x="1291.5" y="-473.2" font-family="Cascadia Code PL" font-size="11.00" fill="cyan">Blur</text>
<text text-anchor="middle" x="1291.5" y="-461.2" font-family="Cascadia Code PL" font-size="11.00" fill="cyan">─────────────────</text>
<text text-anchor="middle" x="1291.5" y="-449.2" font-family="Cascadia Code PL" font-size="11.00" fill="cyan">Box blur radius</text>
<text text-anchor="middle" x="1291.5" y="-437.2" font-family="Cascadia Code PL" font-size="11.00" fill="cyan">Gaussian&#45;ish</text>
<text text-anchor="middle" x="1291.5" y="-425.2" font-family="Cascadia Code PL" font-size="11.00" fill="cyan">Per&#45;channel averaging</text>
</g>
<!-- T_SHARP -->
<g id="node11" class="node">
<title>T_SHARP</title>
<polygon fill="none" stroke="white" points="1211.5,-486 1101.5,-486 1101.5,-418 1211.5,-418 1211.5,-486"/>
<text text-anchor="middle" x="1156.5" y="-473.2" font-family="Cascadia Code PL" font-size="11.00" fill="cyan">Sharpen</text>
<text text-anchor="middle" x="1156.5" y="-461.2" font-family="Cascadia Code PL" font-size="11.00" fill="cyan">─────────────────</text>
<text text-anchor="middle" x="1156.5" y="-449.2" font-family="Cascadia Code PL" font-size="11.00" fill="cyan">Unsharp mask</text>
<text text-anchor="middle" x="1156.5" y="-437.2" font-family="Cascadia Code PL" font-size="11.00" fill="cyan">Amount + radius</text>
<text text-anchor="middle" x="1156.5" y="-425.2" font-family="Cascadia Code PL" font-size="11.00" fill="cyan">Edge enhancement</text>
</g>
<!-- T_INV -->
<g id="node12" class="node">
<title>T_INV</title>
<polygon fill="none" stroke="white" points="1083.5,-486 925.5,-486 925.5,-418 1083.5,-418 1083.5,-486"/>
<text text-anchor="middle" x="1004.5" y="-473.2" font-family="Cascadia Code PL" font-size="11.00" fill="cyan">Invert</text>
<text text-anchor="middle" x="1004.5" y="-461.2" font-family="Cascadia Code PL" font-size="11.00" fill="cyan">─────────────────</text>
<text text-anchor="middle" x="1004.5" y="-449.2" font-family="Cascadia Code PL" font-size="11.00" fill="cyan">R=255&#45;R, G=255&#45;G, B=255&#45;B</text>
<text text-anchor="middle" x="1004.5" y="-437.2" font-family="Cascadia Code PL" font-size="11.00" fill="cyan">Instant (no slider)</text>
<text text-anchor="middle" x="1004.5" y="-425.2" font-family="Cascadia Code PL" font-size="11.00" fill="cyan">Direct commit</text>
</g>
<!-- T_DESAT -->
<g id="node13" class="node">
<title>T_DESAT</title>
<polygon fill="none" stroke="white" points="907.5,-486 791.5,-486 791.5,-418 907.5,-418 907.5,-486"/>
<text text-anchor="middle" x="849.5" y="-473.2" font-family="Cascadia Code PL" font-size="11.00" fill="cyan">Desaturate</text>
<text text-anchor="middle" x="849.5" y="-461.2" font-family="Cascadia Code PL" font-size="11.00" fill="cyan">─────────────────</text>
<text text-anchor="middle" x="849.5" y="-449.2" font-family="Cascadia Code PL" font-size="11.00" fill="cyan">Convert to grayscale</text>
<text text-anchor="middle" x="849.5" y="-437.2" font-family="Cascadia Code PL" font-size="11.00" fill="cyan">Luminosity method</text>
<text text-anchor="middle" x="849.5" y="-425.2" font-family="Cascadia Code PL" font-size="11.00" fill="cyan">Instant commit</text>
</g>
<!-- T_POST -->
<g id="node14" class="node">
<title>T_POST</title>
<polygon fill="none" stroke="white" points="773.5,-486 645.5,-486 645.5,-418 773.5,-418 773.5,-486"/>
<text text-anchor="middle" x="709.5" y="-473.2" font-family="Cascadia Code PL" font-size="11.00" fill="cyan">Posterize</text>
<text text-anchor="middle" x="709.5" y="-461.2" font-family="Cascadia Code PL" font-size="11.00" fill="cyan">─────────────────</text>
<text text-anchor="middle" x="709.5" y="-449.2" font-family="Cascadia Code PL" font-size="11.00" fill="cyan">Reduce color levels</text>
<text text-anchor="middle" x="709.5" y="-437.2" font-family="Cascadia Code PL" font-size="11.00" fill="cyan">Levels: 2&#45;256</text>
<text text-anchor="middle" x="709.5" y="-425.2" font-family="Cascadia Code PL" font-size="11.00" fill="cyan">Dither option available</text>
</g>
<!-- T_PIX -->
<g id="node15" class="node">
<title>T_PIX</title>
<polygon fill="none" stroke="white" points="627,-486 508,-486 508,-418 627,-418 627,-486"/>
<text text-anchor="middle" x="567.5" y="-473.2" font-family="Cascadia Code PL" font-size="11.00" fill="cyan">Pixelate</text>
<text text-anchor="middle" x="567.5" y="-461.2" font-family="Cascadia Code PL" font-size="11.00" fill="cyan">─────────────────</text>
<text text-anchor="middle" x="567.5" y="-449.2" font-family="Cascadia Code PL" font-size="11.00" fill="cyan">Pixel block size</text>
<text text-anchor="middle" x="567.5" y="-437.2" font-family="Cascadia Code PL" font-size="11.00" fill="cyan">Mosaic effect</text>
<text text-anchor="middle" x="567.5" y="-425.2" font-family="Cascadia Code PL" font-size="11.00" fill="cyan">Average block colors</text>
</g>
<!-- T_RMBG -->
<g id="node16" class="node">
<title>T_RMBG</title>
<polygon fill="none" stroke="white" points="490,-492 351,-492 351,-412 490,-412 490,-492"/>
<text text-anchor="middle" x="420.5" y="-479.2" font-family="Cascadia Code PL" font-size="11.00" fill="cyan">Remove Background</text>
<text text-anchor="middle" x="420.5" y="-467.2" font-family="Cascadia Code PL" font-size="11.00" fill="cyan">─────────────────</text>
<text text-anchor="middle" x="420.5" y="-455.2" font-family="Cascadia Code PL" font-size="11.00" fill="cyan">Threshold&#45;based</text>
<text text-anchor="middle" x="420.5" y="-443.2" font-family="Cascadia Code PL" font-size="11.00" fill="cyan">Remove near&#45;transparent</text>
<text text-anchor="middle" x="420.5" y="-431.2" font-family="Cascadia Code PL" font-size="11.00" fill="cyan">or near&#45;white pixels</text>
<text text-anchor="middle" x="420.5" y="-419.2" font-family="Cascadia Code PL" font-size="11.00" fill="cyan">Alpha channel cleanup</text>
</g>
<!-- PV1 -->
<g id="node17" class="node">
<title>PV1</title>
<polygon fill="none" stroke="white" points="2291,-492 2164,-492 2164,-412 2291,-412 2291,-492"/>
<text text-anchor="middle" x="2227.5" y="-479.2" font-family="Cascadia Code PL" font-size="11.00" fill="cyan">Snapshot</text>
<text text-anchor="middle" x="2227.5" y="-467.2" font-family="Cascadia Code PL" font-size="11.00" fill="cyan">─────────────────</text>
<text text-anchor="middle" x="2227.5" y="-455.2" font-family="Cascadia Code PL" font-size="11.00" fill="cyan">Original layer pixels</text>
<text text-anchor="middle" x="2227.5" y="-443.2" font-family="Cascadia Code PL" font-size="11.00" fill="cyan">saved to temp image</text>
<text text-anchor="middle" x="2227.5" y="-431.2" font-family="Cascadia Code PL" font-size="11.00" fill="cyan">before any adjustment</text>
<text text-anchor="middle" x="2227.5" y="-419.2" font-family="Cascadia Code PL" font-size="11.00" fill="cyan">for cancel restore</text>
</g>
<!-- PV2 -->
<g id="node18" class="node">
<title>PV2</title>
<polygon fill="none" stroke="white" points="2145.5,-492 1997.5,-492 1997.5,-412 2145.5,-412 2145.5,-492"/>
<text text-anchor="middle" x="2071.5" y="-479.2" font-family="Cascadia Code PL" font-size="11.00" fill="cyan">Per&#45;Pixel Processing</text>
<text text-anchor="middle" x="2071.5" y="-467.2" font-family="Cascadia Code PL" font-size="11.00" fill="cyan">─────────────────</text>
<text text-anchor="middle" x="2071.5" y="-455.2" font-family="Cascadia Code PL" font-size="11.00" fill="cyan">_MEM&#45;based fast access</text>
<text text-anchor="middle" x="2071.5" y="-443.2" font-family="Cascadia Code PL" font-size="11.00" fill="cyan">Process each pixel:</text>
<text text-anchor="middle" x="2071.5" y="-431.2" font-family="Cascadia Code PL" font-size="11.00" fill="cyan"> &#160;read → transform → write</text>
<text text-anchor="middle" x="2071.5" y="-419.2" font-family="Cascadia Code PL" font-size="11.00" fill="cyan">Composite result shown</text>
</g>
<!-- PV3 -->
<g id="node19" class="node">
<title>PV3</title>
<polygon fill="none" stroke="white" points="1979,-486 1828,-486 1828,-418 1979,-418 1979,-486"/>
<text text-anchor="middle" x="1903.5" y="-473.2" font-family="Cascadia Code PL" font-size="11.00" fill="cyan">Debounce</text>
<text text-anchor="middle" x="1903.5" y="-461.2" font-family="Cascadia Code PL" font-size="11.00" fill="cyan">─────────────────</text>
<text text-anchor="middle" x="1903.5" y="-449.2" font-family="Cascadia Code PL" font-size="11.00" fill="cyan">Slider changes debounced</text>
<text text-anchor="middle" x="1903.5" y="-437.2" font-family="Cascadia Code PL" font-size="11.00" fill="cyan">Preview updates throttled</text>
<text text-anchor="middle" x="1903.5" y="-425.2" font-family="Cascadia Code PL" font-size="11.00" fill="cyan">Avoid excessive recompute</text>
</g>
<!-- H1 -->
<g id="node20" class="node">
<title>H1</title>
<polygon fill="none" stroke="white" points="2477.5,-498 2315.5,-498 2315.5,-406 2477.5,-406 2477.5,-498"/>
<text text-anchor="middle" x="2396.5" y="-485.2" font-family="Cascadia Code PL" font-size="11.00" fill="cyan">On Apply</text>
<text text-anchor="middle" x="2396.5" y="-473.2" font-family="Cascadia Code PL" font-size="11.00" fill="cyan">─────────────────</text>
<text text-anchor="middle" x="2396.5" y="-461.2" font-family="Cascadia Code PL" font-size="11.00" fill="cyan">HISTORY_record_brush()</text>
<text text-anchor="middle" x="2396.5" y="-449.2" font-family="Cascadia Code PL" font-size="11.00" fill="cyan">or shape variant</text>
<text text-anchor="middle" x="2396.5" y="-437.2" font-family="Cascadia Code PL" font-size="11.00" fill="cyan">kind = HISTORY_KIND_BRUSH</text>
<text text-anchor="middle" x="2396.5" y="-425.2" font-family="Cascadia Code PL" font-size="11.00" fill="cyan">Stores before/after images</text>
<text text-anchor="middle" x="2396.5" y="-413.2" font-family="Cascadia Code PL" font-size="11.00" fill="cyan">Full undo support</text>
</g>
<!-- L1 -->
<g id="node21" class="node">
<title>L1</title>
<ellipse fill="white" stroke="white" cx="2783.5" cy="-452" rx="0.36" ry="0.36"/>
</g>
<!-- L2 -->
<g id="node22" class="node">
<title>L2</title>
<ellipse fill="white" stroke="white" cx="2783.5" cy="-326" rx="0.36" ry="0.36"/>
</g>
<!-- L1&#45;&gt;L2 -->
<g id="edge8" class="edge">
<title>L1&#45;&gt;L2</title>
<path fill="none" stroke="#66cc66" d="M2783.5,-450.91C2783.5,-447.83 2783.5,-366.68 2783.5,-337.4"/>
<polygon fill="#66cc66" stroke="#66cc66" points="2787,-337.09 2783.5,-327.09 2780,-337.09 2787,-337.09"/>
<text text-anchor="middle" x="2816" y="-380.8" font-family="Cascadia Code PL" font-size="9.00" fill="#aaaaaa"> Open / Activate</text>
</g>
<!-- L3 -->
<g id="node23" class="node">
<title>L3</title>
<ellipse fill="white" stroke="white" cx="2693.5" cy="-452" rx="0.36" ry="0.36"/>
</g>
<!-- L4 -->
<g id="node24" class="node">
<title>L4</title>
<ellipse fill="white" stroke="white" cx="2693.5" cy="-326" rx="0.36" ry="0.36"/>
</g>
<!-- L3&#45;&gt;L4 -->
<g id="edge9" class="edge">
<title>L3&#45;&gt;L4</title>
<path fill="none" stroke="#cc6666" stroke-dasharray="5,2" d="M2693.5,-450.91C2693.5,-447.83 2693.5,-366.68 2693.5,-337.4"/>
<polygon fill="#cc6666" stroke="#cc6666" points="2697,-337.09 2693.5,-327.09 2690,-337.09 2697,-337.09"/>
<text text-anchor="middle" x="2727" y="-380.8" font-family="Cascadia Code PL" font-size="9.00" fill="#aaaaaa"> Cancel / Restore</text>
</g>
<!-- L5 -->
<g id="node25" class="node">
<title>L5</title>
<ellipse fill="white" stroke="white" cx="2600.5" cy="-452" rx="0.36" ry="0.36"/>
</g>
<!-- L6 -->
<g id="node26" class="node">
<title>L6</title>
<ellipse fill="white" stroke="white" cx="2600.5" cy="-326" rx="0.36" ry="0.36"/>
</g>
<!-- L5&#45;&gt;L6 -->
<g id="edge10" class="edge">
<title>L5&#45;&gt;L6</title>
<path fill="none" stroke="#cccc66" d="M2600.5,-450.91C2600.5,-447.83 2600.5,-366.68 2600.5,-337.4"/>
<polygon fill="#cccc66" stroke="#cccc66" points="2604,-337.09 2600.5,-327.09 2597,-337.09 2604,-337.09"/>
<text text-anchor="middle" x="2635.5" y="-380.8" font-family="Cascadia Code PL" font-size="9.00" fill="#aaaaaa"> Commit / Record</text>
</g>
<!-- L7 -->
<g id="node27" class="node">
<title>L7</title>
<ellipse fill="white" stroke="white" cx="2519.5" cy="-452" rx="0.36" ry="0.36"/>
</g>
<!-- L8 -->
<g id="node28" class="node">
<title>L8</title>
<ellipse fill="white" stroke="white" cx="2519.5" cy="-326" rx="0.36" ry="0.36"/>
</g>
<!-- L7&#45;&gt;L8 -->
<g id="edge11" class="edge">
<title>L7&#45;&gt;L8</title>
<path fill="none" stroke="#88aacc" d="M2519.5,-450.91C2519.5,-447.83 2519.5,-366.68 2519.5,-337.4"/>
<polygon fill="#88aacc" stroke="#88aacc" points="2523,-337.09 2519.5,-327.09 2516,-337.09 2523,-337.09"/>
<text text-anchor="middle" x="2548.5" y="-380.8" font-family="Cascadia Code PL" font-size="9.00" fill="#aaaaaa"> Self&#45;transition</text>
</g>
</g>
</svg>
