<?xml version="1.0" encoding="UTF-8" standalone="no"?>
<!DOCTYPE svg PUBLIC "-//W3C//DTD SVG 1.1//EN"
 "http://www.w3.org/Graphics/SVG/1.1/DTD/svg11.dtd">
<!-- Generated by graphviz version 2.42.4 (0)
 -->
<!-- Title: IMAGE_RESIZE_CROP Pages: 1 -->
<svg width="783pt" height="868pt"
 viewBox="0.00 0.00 783.00 868.00" xmlns="http://www.w3.org/2000/svg" xmlns:xlink="http://www.w3.org/1999/xlink">
<g id="graph0" class="graph" transform="scale(1 1) rotate(0) translate(4 864)">
<title>IMAGE_RESIZE_CROP</title>
<text text-anchor="middle" x="387.5" y="-836.8" font-family="Cascadia Code PL" font-size="24.00" fill="white">IMAGE RESIZE / CROP STATE MACHINE</text>
<g id="clust3" class="cluster">
<title>cluster_resize</title>
<polygon fill="transparent" stroke="orange" stroke-dasharray="5,2" points="8,-14 8,-550 186,-550 186,-14 8,-14"/>
<text text-anchor="middle" x="75" y="-537.2" font-family="Cascadia Code PL" font-size="11.00" fill="white">RESIZE (CANVAS RESIZE)</text>
</g>
<g id="clust4" class="cluster">
<title>cluster_crop</title>
<polygon fill="transparent" stroke="orange" stroke-dasharray="5,2" points="194,-8 194,-550 473,-550 473,-8 194,-8"/>
<text text-anchor="middle" x="256.5" y="-537.2" font-family="Cascadia Code PL" font-size="11.00" fill="white">CROP (CANVAS CROP)</text>
</g>
<g id="clust5" class="cluster">
<title>cluster_rendering</title>
<polygon fill="transparent" stroke="orange" stroke-dasharray="5,2" points="249,-702 249,-818 409,-818 409,-702 249,-702"/>
<text text-anchor="middle" x="302" y="-805.2" font-family="Cascadia Code PL" font-size="11.00" fill="white">CROP RENDERING</text>
</g>
<g id="clust6" class="cluster">
<title>cluster_legend</title>
<polygon fill="transparent" stroke="white" stroke-dasharray="5,2" points="417,-621.64 417,-778.36 767,-778.36 767,-621.64 417,-621.64"/>
<text text-anchor="middle" x="445" y="-765.56" font-family="Cascadia Code PL" font-size="11.00" fill="white">LEGEND</text>
</g>
<!-- MAIN -->
<g id="node1" class="node">
<title>MAIN</title>
<polygon fill="none" stroke="orange" stroke-width="2" points="239.5,-768 236.5,-772 215.5,-772 212.5,-768 138.5,-768 138.5,-732 239.5,-732 239.5,-768"/>
<text text-anchor="middle" x="189" y="-753.6" font-family="Cascadia Code PL" font-size="13.00" fill="orange">IMAGE</text>
<text text-anchor="middle" x="189" y="-739.6" font-family="Cascadia Code PL" font-size="13.00" fill="orange">RESIZE / CROP</text>
</g>
<!-- S_IDLE -->
<g id="node2" class="node">
<title>S_IDLE</title>
<polygon fill="none" stroke="white" points="256,-664 122,-664 122,-596 256,-596 256,-664"/>
<text text-anchor="middle" x="189" y="-651.2" font-family="Cascadia Code PL" font-size="11.00" fill="cyan">1 · IDLE</text>
<text text-anchor="middle" x="189" y="-639.2" font-family="Cascadia Code PL" font-size="11.00" fill="cyan">─────────────────</text>
<text text-anchor="middle" x="189" y="-627.2" font-family="Cascadia Code PL" font-size="11.00" fill="cyan">Canvas at current size</text>
<text text-anchor="middle" x="189" y="-615.2" font-family="Cascadia Code PL" font-size="11.00" fill="cyan">All layers sized equally</text>
<text text-anchor="middle" x="189" y="-603.2" font-family="Cascadia Code PL" font-size="11.00" fill="cyan">No resize/crop pending</text>
</g>
<!-- MAIN&#45;&gt;S_IDLE -->
<g id="edge1" class="edge">
<title>MAIN&#45;&gt;S_IDLE</title>
<path fill="none" stroke="#555555" stroke-dasharray="1,5" d="M189,-731.84C189,-714.2 189,-686.27 189,-664.28"/>
</g>
<!-- R_DIALOG -->
<g id="node3" class="node">
<title>R_DIALOG</title>
<polygon fill="none" stroke="white" points="177.5,-522 34.5,-522 34.5,-442 177.5,-442 177.5,-522"/>
<text text-anchor="middle" x="106" y="-509.2" font-family="Cascadia Code PL" font-size="11.00" fill="cyan">Resize Dialog</text>
<text text-anchor="middle" x="106" y="-497.2" font-family="Cascadia Code PL" font-size="11.00" fill="cyan">─────────────────</text>
<text text-anchor="middle" x="106" y="-485.2" font-family="Cascadia Code PL" font-size="11.00" fill="cyan">Image → Resize</text>
<text text-anchor="middle" x="106" y="-473.2" font-family="Cascadia Code PL" font-size="11.00" fill="cyan">Input new W × H</text>
<text text-anchor="middle" x="106" y="-461.2" font-family="Cascadia Code PL" font-size="11.00" fill="cyan">Option: maintain aspect</text>
<text text-anchor="middle" x="106" y="-449.2" font-family="Cascadia Code PL" font-size="11.00" fill="cyan">Option: resample method</text>
</g>
<!-- S_IDLE&#45;&gt;R_DIALOG -->
<g id="edge11" class="edge">
<title>S_IDLE&#45;&gt;R_DIALOG</title>
<path fill="none" stroke="#6699ff" d="M170.17,-595.87C159.28,-576.73 145.4,-552.31 133.34,-531.09"/>
<polygon fill="#6699ff" stroke="#6699ff" points="136.28,-529.18 128.29,-522.22 130.19,-532.64 136.28,-529.18"/>
<text text-anchor="middle" x="192.5" y="-565.8" font-family="Cascadia Code PL" font-size="9.00" fill="#aaaaaa"> &#160;Image → Resize</text>
</g>
<!-- C_ACTIVATE -->
<g id="node7" class="node">
<title>C_ACTIVATE</title>
<polygon fill="none" stroke="white" points="341.5,-522 202.5,-522 202.5,-442 341.5,-442 341.5,-522"/>
<text text-anchor="middle" x="272" y="-509.2" font-family="Cascadia Code PL" font-size="11.00" fill="cyan">Activate Crop</text>
<text text-anchor="middle" x="272" y="-497.2" font-family="Cascadia Code PL" font-size="11.00" fill="cyan">─────────────────</text>
<text text-anchor="middle" x="272" y="-485.2" font-family="Cascadia Code PL" font-size="11.00" fill="cyan">Select CROP tool</text>
<text text-anchor="middle" x="272" y="-473.2" font-family="Cascadia Code PL" font-size="11.00" fill="cyan">CROP_STATE = ACTIVE</text>
<text text-anchor="middle" x="272" y="-461.2" font-family="Cascadia Code PL" font-size="11.00" fill="cyan">Save PREV_TOOL</text>
<text text-anchor="middle" x="272" y="-449.2" font-family="Cascadia Code PL" font-size="11.00" fill="cyan">Marquee controls appear</text>
</g>
<!-- S_IDLE&#45;&gt;C_ACTIVATE -->
<g id="edge12" class="edge">
<title>S_IDLE&#45;&gt;C_ACTIVATE</title>
<path fill="none" stroke="#66cc66" d="M216.87,-595.8C221.17,-590.03 225.38,-583.97 229,-578 237.78,-563.51 245.89,-546.92 252.64,-531.7"/>
<polygon fill="#66cc66" stroke="#66cc66" points="255.9,-533 256.67,-522.44 249.47,-530.22 255.9,-533"/>
<text text-anchor="middle" x="275" y="-570.8" font-family="Cascadia Code PL" font-size="9.00" fill="#aaaaaa"> &#160;Select Crop tool</text>
<text text-anchor="middle" x="275" y="-560.8" font-family="Cascadia Code PL" font-size="9.00" fill="#aaaaaa"> &#160;or Image → Crop</text>
</g>
<!-- R_VALIDATE -->
<g id="node4" class="node">
<title>R_VALIDATE</title>
<polygon fill="none" stroke="white" points="151.5,-390 42.5,-390 42.5,-322 151.5,-322 151.5,-390"/>
<text text-anchor="middle" x="97" y="-377.2" font-family="Cascadia Code PL" font-size="11.00" fill="cyan">Validate</text>
<text text-anchor="middle" x="97" y="-365.2" font-family="Cascadia Code PL" font-size="11.00" fill="cyan">─────────────────</text>
<text text-anchor="middle" x="97" y="-353.2" font-family="Cascadia Code PL" font-size="11.00" fill="cyan">Check W,H &gt; 0</text>
<text text-anchor="middle" x="97" y="-341.2" font-family="Cascadia Code PL" font-size="11.00" fill="cyan">Check within limits</text>
<text text-anchor="middle" x="97" y="-329.2" font-family="Cascadia Code PL" font-size="11.00" fill="cyan">Preview new size</text>
</g>
<!-- R_DIALOG&#45;&gt;R_VALIDATE -->
<g id="edge2" class="edge">
<title>R_DIALOG&#45;&gt;R_VALIDATE</title>
<path fill="none" stroke="#cccc66" d="M53.4,-441.82C48.83,-436.34 44.86,-430.38 42,-424 38.02,-415.13 39.55,-406.46 44.07,-398.47"/>
<polygon fill="#cccc66" stroke="#cccc66" points="47.09,-400.26 50.03,-390.08 41.39,-396.21 47.09,-400.26"/>
<text text-anchor="middle" x="65.5" y="-416.8" font-family="Cascadia Code PL" font-size="9.00" fill="#aaaaaa"> &#160;OK clicked</text>
</g>
<!-- R_VALIDATE&#45;&gt;R_DIALOG -->
<g id="edge4" class="edge">
<title>R_VALIDATE&#45;&gt;R_DIALOG</title>
<path fill="none" stroke="#cc6666" stroke-dasharray="5,2" d="M99.41,-390.15C100.33,-402.93 101.41,-417.81 102.43,-431.79"/>
<polygon fill="#cc6666" stroke="#cc6666" points="98.94,-432.05 103.15,-441.77 105.92,-431.54 98.94,-432.05"/>
<text text-anchor="middle" x="132.5" y="-416.8" font-family="Cascadia Code PL" font-size="9.00" fill="#aaaaaa"> &#160;Invalid → retry</text>
</g>
<!-- R_EXECUTE -->
<g id="node5" class="node">
<title>R_EXECUTE</title>
<polygon fill="none" stroke="white" points="177.5,-270 16.5,-270 16.5,-166 177.5,-166 177.5,-270"/>
<text text-anchor="middle" x="97" y="-257.2" font-family="Cascadia Code PL" font-size="11.00" fill="cyan">Execute Resize</text>
<text text-anchor="middle" x="97" y="-245.2" font-family="Cascadia Code PL" font-size="11.00" fill="cyan">─────────────────</text>
<text text-anchor="middle" x="97" y="-233.2" font-family="Cascadia Code PL" font-size="11.00" fill="cyan">CANVAS_resize(newW,newH):</text>
<text text-anchor="middle" x="97" y="-221.2" font-family="Cascadia Code PL" font-size="11.00" fill="cyan">1. History snapshot all layers</text>
<text text-anchor="middle" x="97" y="-209.2" font-family="Cascadia Code PL" font-size="11.00" fill="cyan">2. _NEWIMAGE for each layer</text>
<text text-anchor="middle" x="97" y="-197.2" font-family="Cascadia Code PL" font-size="11.00" fill="cyan">3. _PUTIMAGE scale old→new</text>
<text text-anchor="middle" x="97" y="-185.2" font-family="Cascadia Code PL" font-size="11.00" fill="cyan">4. _FREEIMAGE old handles</text>
<text text-anchor="middle" x="97" y="-173.2" font-family="Cascadia Code PL" font-size="11.00" fill="cyan">5. Update SCRN dimensions</text>
</g>
<!-- R_VALIDATE&#45;&gt;R_EXECUTE -->
<g id="edge3" class="edge">
<title>R_VALIDATE&#45;&gt;R_EXECUTE</title>
<path fill="none" stroke="#66cc66" d="M97,-321.73C97,-309.26 97,-294.67 97,-280.46"/>
<polygon fill="#66cc66" stroke="#66cc66" points="100.5,-280.22 97,-270.22 93.5,-280.22 100.5,-280.22"/>
<text text-anchor="middle" x="133" y="-290.8" font-family="Cascadia Code PL" font-size="9.00" fill="#aaaaaa"> &#160;Valid dimensions</text>
</g>
<!-- R_CLEANUP -->
<g id="node6" class="node">
<title>R_CLEANUP</title>
<polygon fill="none" stroke="white" points="163.5,-114 30.5,-114 30.5,-22 163.5,-22 163.5,-114"/>
<text text-anchor="middle" x="97" y="-101.2" font-family="Cascadia Code PL" font-size="11.00" fill="cyan">Post&#45;Resize</text>
<text text-anchor="middle" x="97" y="-89.2" font-family="Cascadia Code PL" font-size="11.00" fill="cyan">─────────────────</text>
<text text-anchor="middle" x="97" y="-77.2" font-family="Cascadia Code PL" font-size="11.00" fill="cyan">Reset all caches</text>
<text text-anchor="middle" x="97" y="-65.2" font-family="Cascadia Code PL" font-size="11.00" fill="cyan">SCENE_DIRTY = TRUE</text>
<text text-anchor="middle" x="97" y="-53.2" font-family="Cascadia Code PL" font-size="11.00" fill="cyan">BLEND_invalidate_cache</text>
<text text-anchor="middle" x="97" y="-41.2" font-family="Cascadia Code PL" font-size="11.00" fill="cyan">Grid needs redraw</text>
<text text-anchor="middle" x="97" y="-29.2" font-family="Cascadia Code PL" font-size="11.00" fill="cyan">Zoom needs update</text>
</g>
<!-- R_EXECUTE&#45;&gt;R_CLEANUP -->
<g id="edge5" class="edge">
<title>R_EXECUTE&#45;&gt;R_CLEANUP</title>
<path fill="none" stroke="#cccc66" d="M97,-165.65C97,-152.35 97,-137.96 97,-124.45"/>
<polygon fill="#cccc66" stroke="#cccc66" points="100.5,-124.33 97,-114.33 93.5,-124.33 100.5,-124.33"/>
<text text-anchor="middle" x="114" y="-140.8" font-family="Cascadia Code PL" font-size="9.00" fill="#aaaaaa"> &#160;Resized</text>
</g>
<!-- C_MARQUEE -->
<g id="node8" class="node">
<title>C_MARQUEE</title>
<polygon fill="none" stroke="white" points="330,-396 214,-396 214,-316 330,-316 330,-396"/>
<text text-anchor="middle" x="272" y="-383.2" font-family="Cascadia Code PL" font-size="11.00" fill="cyan">Draw Marquee</text>
<text text-anchor="middle" x="272" y="-371.2" font-family="Cascadia Code PL" font-size="11.00" fill="cyan">─────────────────</text>
<text text-anchor="middle" x="272" y="-359.2" font-family="Cascadia Code PL" font-size="11.00" fill="cyan">Drag crop rectangle</text>
<text text-anchor="middle" x="272" y="-347.2" font-family="Cascadia Code PL" font-size="11.00" fill="cyan">on canvas</text>
<text text-anchor="middle" x="272" y="-335.2" font-family="Cascadia Code PL" font-size="11.00" fill="cyan">Dark overlay outside</text>
<text text-anchor="middle" x="272" y="-323.2" font-family="Cascadia Code PL" font-size="11.00" fill="cyan">Size label shown</text>
</g>
<!-- C_ACTIVATE&#45;&gt;C_MARQUEE -->
<g id="edge6" class="edge">
<title>C_ACTIVATE&#45;&gt;C_MARQUEE</title>
<path fill="none" stroke="#66cc66" d="M272,-441.77C272,-430.57 272,-418.23 272,-406.5"/>
<polygon fill="#66cc66" stroke="#66cc66" points="275.5,-406.4 272,-396.4 268.5,-406.4 275.5,-406.4"/>
<text text-anchor="middle" x="298.5" y="-416.8" font-family="Cascadia Code PL" font-size="9.00" fill="#aaaaaa"> &#160;Draw region</text>
</g>
<!-- C_ADJUST -->
<g id="node9" class="node">
<title>C_ADJUST</title>
<polygon fill="none" stroke="white" points="331,-258 213,-258 213,-178 331,-178 331,-258"/>
<text text-anchor="middle" x="272" y="-245.2" font-family="Cascadia Code PL" font-size="11.00" fill="cyan">Adjust</text>
<text text-anchor="middle" x="272" y="-233.2" font-family="Cascadia Code PL" font-size="11.00" fill="cyan">─────────────────</text>
<text text-anchor="middle" x="272" y="-221.2" font-family="Cascadia Code PL" font-size="11.00" fill="cyan">Resize via handles</text>
<text text-anchor="middle" x="272" y="-209.2" font-family="Cascadia Code PL" font-size="11.00" fill="cyan">Move via body drag</text>
<text text-anchor="middle" x="272" y="-197.2" font-family="Cascadia Code PL" font-size="11.00" fill="cyan">Arrow keys nudge</text>
<text text-anchor="middle" x="272" y="-185.2" font-family="Cascadia Code PL" font-size="11.00" fill="cyan">All marquee controls</text>
</g>
<!-- C_MARQUEE&#45;&gt;C_ADJUST -->
<g id="edge7" class="edge">
<title>C_MARQUEE&#45;&gt;C_ADJUST</title>
<path fill="none" stroke="#cccc66" d="M272,-315.66C272,-300.86 272,-283.84 272,-268.25"/>
<polygon fill="#cccc66" stroke="#cccc66" points="275.5,-268.25 272,-258.25 268.5,-268.25 275.5,-268.25"/>
<text text-anchor="middle" x="307" y="-290.8" font-family="Cascadia Code PL" font-size="9.00" fill="#aaaaaa"> &#160;Release (box set)</text>
</g>
<!-- C_ADJUST&#45;&gt;C_ADJUST -->
<g id="edge8" class="edge">
<title>C_ADJUST&#45;&gt;C_ADJUST</title>
<path fill="none" stroke="#88aacc" d="M331.08,-231.06C341.63,-229.36 349,-225.01 349,-218 349,-213.51 345.98,-210.11 341.03,-207.8"/>
<polygon fill="#88aacc" stroke="#88aacc" points="341.66,-204.34 331.08,-204.94 339.72,-211.07 341.66,-204.34"/>
<text text-anchor="middle" x="376.5" y="-220.8" font-family="Cascadia Code PL" font-size="9.00" fill="#aaaaaa"> &#160;Resize/move</text>
<text text-anchor="middle" x="376.5" y="-210.8" font-family="Cascadia Code PL" font-size="9.00" fill="#aaaaaa"> &#160;handles</text>
</g>
<!-- C_APPLY -->
<g id="node10" class="node">
<title>C_APPLY</title>
<polygon fill="none" stroke="white" points="327.5,-120 202.5,-120 202.5,-16 327.5,-16 327.5,-120"/>
<text text-anchor="middle" x="265" y="-107.2" font-family="Cascadia Code PL" font-size="11.00" fill="cyan">Apply Crop</text>
<text text-anchor="middle" x="265" y="-95.2" font-family="Cascadia Code PL" font-size="11.00" fill="cyan">─────────────────</text>
<text text-anchor="middle" x="265" y="-83.2" font-family="Cascadia Code PL" font-size="11.00" fill="cyan">Enter → CROP_apply():</text>
<text text-anchor="middle" x="265" y="-71.2" font-family="Cascadia Code PL" font-size="11.00" fill="cyan">1. History snapshot</text>
<text text-anchor="middle" x="265" y="-59.2" font-family="Cascadia Code PL" font-size="11.00" fill="cyan">2. Trim all layers</text>
<text text-anchor="middle" x="265" y="-47.2" font-family="Cascadia Code PL" font-size="11.00" fill="cyan"> &#160;&#160;to marquee bounds</text>
<text text-anchor="middle" x="265" y="-35.2" font-family="Cascadia Code PL" font-size="11.00" fill="cyan">3. CANVAS_resize</text>
<text text-anchor="middle" x="265" y="-23.2" font-family="Cascadia Code PL" font-size="11.00" fill="cyan">4. Restore PREV_TOOL</text>
</g>
<!-- C_ADJUST&#45;&gt;C_APPLY -->
<g id="edge9" class="edge">
<title>C_ADJUST&#45;&gt;C_APPLY</title>
<path fill="none" stroke="#cccc66" d="M270.14,-177.73C269.46,-163.26 268.67,-146.49 267.91,-130.53"/>
<polygon fill="#cccc66" stroke="#cccc66" points="271.39,-130.01 267.42,-120.18 264.4,-130.34 271.39,-130.01"/>
<text text-anchor="middle" x="280.5" y="-140.8" font-family="Cascadia Code PL" font-size="9.00" fill="#aaaaaa"> &#160;Enter</text>
</g>
<!-- C_CANCEL -->
<g id="node11" class="node">
<title>C_CANCEL</title>
<polygon fill="none" stroke="white" points="464.5,-108 345.5,-108 345.5,-28 464.5,-28 464.5,-108"/>
<text text-anchor="middle" x="405" y="-95.2" font-family="Cascadia Code PL" font-size="11.00" fill="cyan">Cancel Crop</text>
<text text-anchor="middle" x="405" y="-83.2" font-family="Cascadia Code PL" font-size="11.00" fill="cyan">─────────────────</text>
<text text-anchor="middle" x="405" y="-71.2" font-family="Cascadia Code PL" font-size="11.00" fill="cyan">Esc → CROP_cancel():</text>
<text text-anchor="middle" x="405" y="-59.2" font-family="Cascadia Code PL" font-size="11.00" fill="cyan">Restore PREV_TOOL</text>
<text text-anchor="middle" x="405" y="-47.2" font-family="Cascadia Code PL" font-size="11.00" fill="cyan">Clear marquee</text>
<text text-anchor="middle" x="405" y="-35.2" font-family="Cascadia Code PL" font-size="11.00" fill="cyan">No changes</text>
</g>
<!-- C_ADJUST&#45;&gt;C_CANCEL -->
<g id="edge10" class="edge">
<title>C_ADJUST&#45;&gt;C_CANCEL</title>
<path fill="none" stroke="#cc6666" stroke-dasharray="5,2" d="M307.29,-177.73C324.42,-158.67 345.12,-135.63 363.05,-115.68"/>
<polygon fill="#cc6666" stroke="#cc6666" points="365.69,-117.98 369.77,-108.2 360.49,-113.3 365.69,-117.98"/>
<text text-anchor="middle" x="358" y="-140.8" font-family="Cascadia Code PL" font-size="9.00" fill="#aaaaaa"> &#160;Escape</text>
</g>
<!-- CR1 -->
<g id="node12" class="node">
<title>CR1</title>
<polygon fill="none" stroke="white" points="400.5,-790 257.5,-790 257.5,-710 400.5,-710 400.5,-790"/>
<text text-anchor="middle" x="329" y="-777.2" font-family="Cascadia Code PL" font-size="11.00" fill="cyan">CROP_render(dest&amp;)</text>
<text text-anchor="middle" x="329" y="-765.2" font-family="Cascadia Code PL" font-size="11.00" fill="cyan">─────────────────</text>
<text text-anchor="middle" x="329" y="-753.2" font-family="Cascadia Code PL" font-size="11.00" fill="cyan">Dark overlay outside</text>
<text text-anchor="middle" x="329" y="-741.2" font-family="Cascadia Code PL" font-size="11.00" fill="cyan">crop region (50% alpha)</text>
<text text-anchor="middle" x="329" y="-729.2" font-family="Cascadia Code PL" font-size="11.00" fill="cyan">Size label above marquee</text>
<text text-anchor="middle" x="329" y="-717.2" font-family="Cascadia Code PL" font-size="11.00" fill="cyan">Handle indicators</text>
</g>
<!-- L1 -->
<g id="node13" class="node">
<title>L1</title>
<ellipse fill="white" stroke="white" cx="691" cy="-750" rx="0.36" ry="0.36"/>
</g>
<!-- L2 -->
<g id="node14" class="node">
<title>L2</title>
<ellipse fill="white" stroke="white" cx="691" cy="-630" rx="0.36" ry="0.36"/>
</g>
<!-- L1&#45;&gt;L2 -->
<g id="edge13" class="edge">
<title>L1&#45;&gt;L2</title>
<path fill="none" stroke="#66cc66" d="M691,-748.91C691,-746 691,-669.48 691,-641.3"/>
<polygon fill="#66cc66" stroke="#66cc66" points="694.5,-641.08 691,-631.08 687.5,-641.08 694.5,-641.08"/>
<text text-anchor="middle" x="725" y="-684.8" font-family="Cascadia Code PL" font-size="9.00" fill="#aaaaaa"> Activate / Create</text>
</g>
<!-- L3 -->
<g id="node15" class="node">
<title>L3</title>
<ellipse fill="white" stroke="white" cx="608" cy="-750" rx="0.36" ry="0.36"/>
</g>
<!-- L4 -->
<g id="node16" class="node">
<title>L4</title>
<ellipse fill="white" stroke="white" cx="608" cy="-630" rx="0.36" ry="0.36"/>
</g>
<!-- L3&#45;&gt;L4 -->
<g id="edge14" class="edge">
<title>L3&#45;&gt;L4</title>
<path fill="none" stroke="#cc6666" stroke-dasharray="5,2" d="M608,-748.91C608,-746 608,-669.48 608,-641.3"/>
<polygon fill="#cc6666" stroke="#cc6666" points="611.5,-641.08 608,-631.08 604.5,-641.08 611.5,-641.08"/>
<text text-anchor="middle" x="638" y="-684.8" font-family="Cascadia Code PL" font-size="9.00" fill="#aaaaaa"> Cancel / Abort</text>
</g>
<!-- L5 -->
<g id="node17" class="node">
<title>L5</title>
<ellipse fill="white" stroke="white" cx="526" cy="-750" rx="0.36" ry="0.36"/>
</g>
<!-- L6 -->
<g id="node18" class="node">
<title>L6</title>
<ellipse fill="white" stroke="white" cx="526" cy="-630" rx="0.36" ry="0.36"/>
</g>
<!-- L5&#45;&gt;L6 -->
<g id="edge15" class="edge">
<title>L5&#45;&gt;L6</title>
<path fill="none" stroke="#cccc66" d="M526,-748.91C526,-746 526,-669.48 526,-641.3"/>
<polygon fill="#cccc66" stroke="#cccc66" points="529.5,-641.08 526,-631.08 522.5,-641.08 529.5,-641.08"/>
<text text-anchor="middle" x="555.5" y="-684.8" font-family="Cascadia Code PL" font-size="9.00" fill="#aaaaaa"> Step / Commit</text>
</g>
<!-- L7 -->
<g id="node19" class="node">
<title>L7</title>
<ellipse fill="white" stroke="white" cx="443" cy="-750" rx="0.36" ry="0.36"/>
</g>
<!-- L8 -->
<g id="node20" class="node">
<title>L8</title>
<ellipse fill="white" stroke="white" cx="443" cy="-630" rx="0.36" ry="0.36"/>
</g>
<!-- L7&#45;&gt;L8 -->
<g id="edge16" class="edge">
<title>L7&#45;&gt;L8</title>
<path fill="none" stroke="#6699ff" d="M443,-748.91C443,-746 443,-669.48 443,-641.3"/>
<polygon fill="#6699ff" stroke="#6699ff" points="446.5,-641.08 443,-631.08 439.5,-641.08 446.5,-641.08"/>
<text text-anchor="middle" x="473" y="-684.8" font-family="Cascadia Code PL" font-size="9.00" fill="#aaaaaa"> Menu / Dialog</text>
</g>
</g>
</svg>
