<?xml version="1.0" encoding="UTF-8" standalone="no"?>
<!DOCTYPE svg PUBLIC "-//W3C//DTD SVG 1.1//EN"
 "http://www.w3.org/Graphics/SVG/1.1/DTD/svg11.dtd">
<!-- Generated by graphviz version 2.42.4 (0)
 -->
<!-- Title: BRUSH_TOOL Pages: 1 -->
<svg width="2983pt" height="730pt"
 viewBox="0.00 0.00 2983.00 729.50" xmlns="http://www.w3.org/2000/svg" xmlns:xlink="http://www.w3.org/1999/xlink">
<g id="graph0" class="graph" transform="scale(1 1) rotate(0) translate(4 725.5)">
<title>BRUSH_TOOL</title>
<text text-anchor="middle" x="1487.5" y="-698.3" font-family="Cascadia Code PL" font-size="24.00" fill="white">BRUSH TOOL STATE MACHINE</text>
<g id="clust2" class="cluster">
<title>cluster_custom</title>
<polygon fill="transparent" stroke="orange" stroke-dasharray="5,2" points="446,-8 446,-537.5 726,-537.5 726,-8 446,-8"/>
<text text-anchor="middle" x="538.5" y="-524.7" font-family="Cascadia Code PL" font-size="11.00" fill="orange">CUSTOM BRUSH — Capture &amp; Use</text>
</g>
<g id="clust3" class="cluster">
<title>cluster_custom_ops</title>
<polygon fill="transparent" stroke="orange" stroke-dasharray="5,2" points="1689,-565.5 1689,-679.5 2484,-679.5 2484,-565.5 1689,-565.5"/>
<text text-anchor="middle" x="1771" y="-666.7" font-family="Cascadia Code PL" font-size="11.00" fill="orange">CUSTOM BRUSH OPERATIONS</text>
</g>
<g id="clust8" class="cluster">
<title>cluster_legend</title>
<polygon fill="transparent" stroke="white" stroke-dasharray="5,2" points="2492,-449.64 2492,-650.86 2967,-650.86 2967,-449.64 2492,-449.64"/>
<text text-anchor="middle" x="2520" y="-638.06" font-family="Cascadia Code PL" font-size="11.00" fill="white">LEGEND</text>
</g>
<g id="clust4" class="cluster">
<title>cluster_modifiers</title>
<polygon fill="transparent" stroke="orange" stroke-dasharray="5,2" points="1107,-273 1107,-532 1544,-532 1544,-273 1107,-273"/>
<text text-anchor="middle" x="1161" y="-519.2" font-family="Cascadia Code PL" font-size="11.00" fill="orange">BRUSH MODIFIERS</text>
</g>
<g id="clust5" class="cluster">
<title>cluster_bin</title>
<polygon fill="transparent" stroke="orange" stroke-dasharray="5,2" points="819,-142.5 819,-537.5 1099,-537.5 1099,-142.5 819,-142.5"/>
<text text-anchor="middle" x="923.5" y="-524.7" font-family="Cascadia Code PL" font-size="11.00" fill="orange">DRAWER BIN — Brush/Pattern/Gradient</text>
</g>
<g id="clust6" class="cluster">
<title>cluster_pp</title>
<polygon fill="transparent" stroke="orange" stroke-dasharray="5,2" points="1552,-273 1552,-537.5 1724,-537.5 1724,-273 1552,-273"/>
<text text-anchor="middle" x="1637" y="-524.7" font-family="Cascadia Code PL" font-size="11.00" fill="orange">PIXEL PERFECT MODE — Ctrl+D</text>
</g>
<!-- MAIN -->
<g id="node1" class="node">
<title>MAIN</title>
<polygon fill="none" stroke="orange" stroke-width="2" points="322,-620.5 319,-624.5 298,-624.5 295,-620.5 222,-620.5 222,-584.5 322,-584.5 322,-620.5"/>
<text text-anchor="middle" x="272" y="-599.1" font-family="Cascadia Code PL" font-size="13.00" fill="orange">BRUSH STATES</text>
</g>
<!-- S_IDLE -->
<g id="node6" class="node">
<title>S_IDLE</title>
<polygon fill="none" stroke="white" points="363.5,-492 180.5,-492 180.5,-424 363.5,-424 363.5,-492"/>
<text text-anchor="middle" x="272" y="-479.2" font-family="Cascadia Code PL" font-size="11.00" fill="cyan">1 · IDLE</text>
<text text-anchor="middle" x="272" y="-467.2" font-family="Cascadia Code PL" font-size="11.00" fill="cyan">─────────────────</text>
<text text-anchor="middle" x="272" y="-455.2" font-family="Cascadia Code PL" font-size="11.00" fill="cyan">CURRENT_TOOL% = TOOL_BRUSH</text>
<text text-anchor="middle" x="272" y="-443.2" font-family="Cascadia Code PL" font-size="11.00" fill="cyan">No stroke active</text>
<text text-anchor="middle" x="272" y="-431.2" font-family="Cascadia Code PL" font-size="11.00" fill="cyan">Cursor: brush preview</text>
</g>
<!-- MAIN&#45;&gt;S_IDLE -->
<g id="edge21" class="edge">
<title>MAIN&#45;&gt;S_IDLE</title>
<path fill="none" stroke="#555555" stroke-dasharray="1,5" d="M272,-584.31C272,-561.59 272,-521.06 272,-492.25"/>
</g>
<!-- CUSTOM -->
<g id="node2" class="node">
<title>CUSTOM</title>
<polygon fill="none" stroke="orange" stroke-width="2" points="645.5,-620.5 642.5,-624.5 621.5,-624.5 618.5,-620.5 532.5,-620.5 532.5,-584.5 645.5,-584.5 645.5,-620.5"/>
<text text-anchor="middle" x="589" y="-599.1" font-family="Cascadia Code PL" font-size="13.00" fill="orange">CUSTOM BRUSH</text>
</g>
<!-- CB_NONE -->
<g id="node9" class="node">
<title>CB_NONE</title>
<polygon fill="none" stroke="white" points="671,-489.5 507,-489.5 507,-426.5 671,-426.5 671,-489.5"/>
<text text-anchor="middle" x="589" y="-477.5" font-family="Cascadia Code PL" font-size="10.00" fill="cyan">No Custom Brush</text>
<text text-anchor="middle" x="589" y="-466.5" font-family="Cascadia Code PL" font-size="10.00" fill="cyan">────────────</text>
<text text-anchor="middle" x="589" y="-455.5" font-family="Cascadia Code PL" font-size="10.00" fill="cyan">CUSTOM_BRUSH.ACTIVE = FALSE</text>
<text text-anchor="middle" x="589" y="-444.5" font-family="Cascadia Code PL" font-size="10.00" fill="cyan">Standard circular brush</text>
<text text-anchor="middle" x="589" y="-433.5" font-family="Cascadia Code PL" font-size="10.00" fill="cyan">from BRUSH_SIZE</text>
</g>
<!-- CUSTOM&#45;&gt;CB_NONE -->
<g id="edge22" class="edge">
<title>CUSTOM&#45;&gt;CB_NONE</title>
<path fill="none" stroke="#555555" stroke-dasharray="1,5" d="M589,-584.31C589,-572.25 589,-555.17 589,-537.5"/>
</g>
<!-- MODIFIERS_F -->
<g id="node3" class="node">
<title>MODIFIERS_F</title>
<polygon fill="none" stroke="orange" stroke-width="2" points="1368,-620.5 1365,-624.5 1344,-624.5 1341,-620.5 1286,-620.5 1286,-584.5 1368,-584.5 1368,-620.5"/>
<text text-anchor="middle" x="1327" y="-599.1" font-family="Cascadia Code PL" font-size="13.00" fill="orange">MODIFIERS</text>
</g>
<!-- MOD_NONE -->
<g id="node20" class="node">
<title>MOD_NONE</title>
<polygon fill="none" stroke="white" points="1377.5,-484 1276.5,-484 1276.5,-432 1377.5,-432 1377.5,-484"/>
<text text-anchor="middle" x="1327" y="-472" font-family="Cascadia Code PL" font-size="10.00" fill="cyan">No Modifier</text>
<text text-anchor="middle" x="1327" y="-461" font-family="Cascadia Code PL" font-size="10.00" fill="cyan">────────────</text>
<text text-anchor="middle" x="1327" y="-450" font-family="Cascadia Code PL" font-size="10.00" fill="cyan">Free&#45;form painting</text>
<text text-anchor="middle" x="1327" y="-439" font-family="Cascadia Code PL" font-size="10.00" fill="cyan">No constraints</text>
</g>
<!-- MODIFIERS_F&#45;&gt;MOD_NONE -->
<g id="edge23" class="edge">
<title>MODIFIERS_F&#45;&gt;MOD_NONE</title>
<path fill="none" stroke="#555555" stroke-dasharray="1,5" d="M1327,-584.31C1327,-571 1327,-551.59 1327,-532"/>
</g>
<!-- BIN_F -->
<g id="node4" class="node">
<title>BIN_F</title>
<polygon fill="none" stroke="orange" stroke-width="2" points="1017.5,-620.5 1014.5,-624.5 993.5,-624.5 990.5,-620.5 916.5,-620.5 916.5,-584.5 1017.5,-584.5 1017.5,-620.5"/>
<text text-anchor="middle" x="967" y="-599.1" font-family="Cascadia Code PL" font-size="13.00" fill="orange">BIN / DRAWER</text>
</g>
<!-- BIN_BRUSH -->
<g id="node24" class="node">
<title>BIN_BRUSH</title>
<polygon fill="none" stroke="white" points="1037.5,-489.5 896.5,-489.5 896.5,-426.5 1037.5,-426.5 1037.5,-489.5"/>
<text text-anchor="middle" x="967" y="-477.5" font-family="Cascadia Code PL" font-size="10.00" fill="cyan">Brush Bin Active</text>
<text text-anchor="middle" x="967" y="-466.5" font-family="Cascadia Code PL" font-size="10.00" fill="cyan">────────────</text>
<text text-anchor="middle" x="967" y="-455.5" font-family="Cascadia Code PL" font-size="10.00" fill="cyan">DRAWER.mode = BRUSH</text>
<text text-anchor="middle" x="967" y="-444.5" font-family="Cascadia Code PL" font-size="10.00" fill="cyan">Paint with slot brush</text>
<text text-anchor="middle" x="967" y="-433.5" font-family="Cascadia Code PL" font-size="10.00" fill="cyan">DRAWER_BRUSH_SLOTS(sel)</text>
</g>
<!-- BIN_F&#45;&gt;BIN_BRUSH -->
<g id="edge24" class="edge">
<title>BIN_F&#45;&gt;BIN_BRUSH</title>
<path fill="none" stroke="#555555" stroke-dasharray="1,5" d="M967,-584.31C967,-572.25 967,-555.17 967,-537.5"/>
</g>
<!-- PP_F -->
<g id="node5" class="node">
<title>PP_F</title>
<polygon fill="none" stroke="orange" stroke-width="2" points="1678.5,-620.5 1675.5,-624.5 1654.5,-624.5 1651.5,-620.5 1577.5,-620.5 1577.5,-584.5 1678.5,-584.5 1678.5,-620.5"/>
<text text-anchor="middle" x="1628" y="-599.1" font-family="Cascadia Code PL" font-size="13.00" fill="orange">PIXEL PERFECT</text>
</g>
<!-- PPM_OFF -->
<g id="node27" class="node">
<title>PPM_OFF</title>
<polygon fill="none" stroke="white" points="1687,-489.5 1569,-489.5 1569,-426.5 1687,-426.5 1687,-489.5"/>
<text text-anchor="middle" x="1628" y="-477.5" font-family="Cascadia Code PL" font-size="10.00" fill="cyan">Normal Brush</text>
<text text-anchor="middle" x="1628" y="-466.5" font-family="Cascadia Code PL" font-size="10.00" fill="cyan">────────────</text>
<text text-anchor="middle" x="1628" y="-455.5" font-family="Cascadia Code PL" font-size="10.00" fill="cyan">Standard interpolation</text>
<text text-anchor="middle" x="1628" y="-444.5" font-family="Cascadia Code PL" font-size="10.00" fill="cyan">Brush circle stamped</text>
<text text-anchor="middle" x="1628" y="-433.5" font-family="Cascadia Code PL" font-size="10.00" fill="cyan">along path</text>
</g>
<!-- PP_F&#45;&gt;PPM_OFF -->
<g id="edge25" class="edge">
<title>PP_F&#45;&gt;PPM_OFF</title>
<path fill="none" stroke="#555555" stroke-dasharray="1,5" d="M1628,-584.31C1628,-572.25 1628,-555.17 1628,-537.5"/>
</g>
<!-- S_DRAGGING -->
<g id="node7" class="node">
<title>S_DRAGGING</title>
<polygon fill="none" stroke="white" points="164,-358 0,-358 0,-278 164,-278 164,-358"/>
<text text-anchor="middle" x="82" y="-345.2" font-family="Cascadia Code PL" font-size="11.00" fill="cyan">2 · DRAGGING</text>
<text text-anchor="middle" x="82" y="-333.2" font-family="Cascadia Code PL" font-size="11.00" fill="cyan">─────────────────</text>
<text text-anchor="middle" x="82" y="-321.2" font-family="Cascadia Code PL" font-size="11.00" fill="cyan">B1 held + painting</text>
<text text-anchor="middle" x="82" y="-309.2" font-family="Cascadia Code PL" font-size="11.00" fill="cyan">PAINT_on() per frame</text>
<text text-anchor="middle" x="82" y="-297.2" font-family="Cascadia Code PL" font-size="11.00" fill="cyan">Interpolate from OLD to NEW</text>
<text text-anchor="middle" x="82" y="-285.2" font-family="Cascadia Code PL" font-size="11.00" fill="cyan">BRUSH_HISTORY_BEFORE_IMG</text>
</g>
<!-- S_IDLE&#45;&gt;S_DRAGGING -->
<g id="edge1" class="edge">
<title>S_IDLE&#45;&gt;S_DRAGGING</title>
<path fill="none" stroke="#66cc66" d="M226.49,-423.95C201.82,-406.02 170.96,-383.61 144.11,-364.11"/>
<polygon fill="#66cc66" stroke="#66cc66" points="146.06,-361.2 135.91,-358.16 141.95,-366.87 146.06,-361.2"/>
<text text-anchor="middle" x="244.5" y="-398.8" font-family="Cascadia Code PL" font-size="9.00" fill="#aaaaaa"> &#160;B1 press on canvas</text>
<text text-anchor="middle" x="244.5" y="-388.8" font-family="Cascadia Code PL" font-size="9.00" fill="#aaaaaa"> &#160;Capture BEFORE_IMG</text>
<text text-anchor="middle" x="244.5" y="-378.8" font-family="Cascadia Code PL" font-size="9.00" fill="#aaaaaa"> &#160;PAINT_on()</text>
</g>
<!-- S_DRAGGING&#45;&gt;S_DRAGGING -->
<g id="edge2" class="edge">
<title>S_DRAGGING&#45;&gt;S_DRAGGING</title>
<path fill="none" stroke="#88aacc" d="M164.38,-329.17C174.99,-327.24 182,-323.51 182,-318 182,-314.47 179.12,-311.67 174.27,-309.61"/>
<polygon fill="#88aacc" stroke="#88aacc" points="174.96,-306.17 164.38,-306.83 173.06,-312.9 174.96,-306.17"/>
<text text-anchor="middle" x="231.5" y="-325.8" font-family="Cascadia Code PL" font-size="9.00" fill="#aaaaaa"> &#160;B1 held + movement</text>
<text text-anchor="middle" x="231.5" y="-315.8" font-family="Cascadia Code PL" font-size="9.00" fill="#aaaaaa"> &#160;Interpolate brush stroke</text>
<text text-anchor="middle" x="231.5" y="-305.8" font-family="Cascadia Code PL" font-size="9.00" fill="#aaaaaa"> &#160;PAINT_on() each frame</text>
</g>
<!-- S_COMMITTED -->
<g id="node8" class="node">
<title>S_COMMITTED</title>
<polygon fill="none" stroke="white" points="267.5,-222 130.5,-222 130.5,-142 267.5,-142 267.5,-222"/>
<text text-anchor="middle" x="199" y="-209.2" font-family="Cascadia Code PL" font-size="11.00" fill="cyan">3 · COMMITTED</text>
<text text-anchor="middle" x="199" y="-197.2" font-family="Cascadia Code PL" font-size="11.00" fill="cyan">─────────────────</text>
<text text-anchor="middle" x="199" y="-185.2" font-family="Cascadia Code PL" font-size="11.00" fill="cyan">B1 released</text>
<text text-anchor="middle" x="199" y="-173.2" font-family="Cascadia Code PL" font-size="11.00" fill="cyan">HISTORY_record_brush()</text>
<text text-anchor="middle" x="199" y="-161.2" font-family="Cascadia Code PL" font-size="11.00" fill="cyan">BRUSH_HISTORY_COLOR</text>
<text text-anchor="middle" x="199" y="-149.2" font-family="Cascadia Code PL" font-size="11.00" fill="cyan">BRUSH_HISTORY_FLAGS</text>
</g>
<!-- S_DRAGGING&#45;&gt;S_COMMITTED -->
<g id="edge3" class="edge">
<title>S_DRAGGING&#45;&gt;S_COMMITTED</title>
<path fill="none" stroke="#cccc66" d="M36.51,-277.77C27.62,-265.51 23.38,-252.06 32,-240 52.27,-211.66 87.49,-197.25 120.38,-189.99"/>
<polygon fill="#cccc66" stroke="#cccc66" points="121.38,-193.36 130.49,-187.96 120,-186.5 121.38,-193.36"/>
<text text-anchor="middle" x="83" y="-252.8" font-family="Cascadia Code PL" font-size="9.00" fill="#aaaaaa"> &#160;B1 released</text>
<text text-anchor="middle" x="83" y="-242.8" font-family="Cascadia Code PL" font-size="9.00" fill="#aaaaaa"> &#160;HISTORY_record_brush()</text>
</g>
<!-- S_COMMITTED&#45;&gt;S_IDLE -->
<g id="edge4" class="edge">
<title>S_COMMITTED&#45;&gt;S_IDLE</title>
<path fill="none" stroke="#6699ff" d="M267.85,-190.67C299.27,-198 333.7,-212.27 353,-240 391.15,-294.79 345.74,-369.79 309.12,-415.74"/>
<polygon fill="#6699ff" stroke="#6699ff" points="306.24,-413.73 302.63,-423.69 311.66,-418.15 306.24,-413.73"/>
<text text-anchor="middle" x="392.5" y="-320.8" font-family="Cascadia Code PL" font-size="9.00" fill="#aaaaaa"> &#160;Ready for</text>
<text text-anchor="middle" x="392.5" y="-310.8" font-family="Cascadia Code PL" font-size="9.00" fill="#aaaaaa"> &#160;next stroke</text>
</g>
<!-- CB_CAPTURE -->
<g id="node10" class="node">
<title>CB_CAPTURE</title>
<polygon fill="none" stroke="white" points="593.5,-355 454.5,-355 454.5,-281 593.5,-281 593.5,-355"/>
<text text-anchor="middle" x="524" y="-343" font-family="Cascadia Code PL" font-size="10.00" fill="cyan">Capture from Marquee</text>
<text text-anchor="middle" x="524" y="-332" font-family="Cascadia Code PL" font-size="10.00" fill="cyan">────────────</text>
<text text-anchor="middle" x="524" y="-321" font-family="Cascadia Code PL" font-size="10.00" fill="cyan">Ctrl+B with active marquee</text>
<text text-anchor="middle" x="524" y="-310" font-family="Cascadia Code PL" font-size="10.00" fill="cyan">Copy pixels to</text>
<text text-anchor="middle" x="524" y="-299" font-family="Cascadia Code PL" font-size="10.00" fill="cyan">CUSTOM_BRUSH.IMAGE</text>
<text text-anchor="middle" x="524" y="-288" font-family="Cascadia Code PL" font-size="10.00" fill="cyan">Set WIDTH/HEIGHT</text>
</g>
<!-- CB_NONE&#45;&gt;CB_CAPTURE -->
<g id="edge5" class="edge">
<title>CB_NONE&#45;&gt;CB_CAPTURE</title>
<path fill="none" stroke="#66cc66" d="M574.57,-426.37C566.01,-408.19 554.99,-384.8 545.43,-364.5"/>
<polygon fill="#66cc66" stroke="#66cc66" points="548.58,-362.97 541.15,-355.42 542.25,-365.95 548.58,-362.97"/>
<text text-anchor="middle" x="591" y="-393.6" font-family="Cascadia Code PL" font-size="8.00" fill="#aaaaaa"> Ctrl+B</text>
<text text-anchor="middle" x="591" y="-384.6" font-family="Cascadia Code PL" font-size="8.00" fill="#aaaaaa"> with marquee</text>
</g>
<!-- CB_LOADED -->
<g id="node11" class="node">
<title>CB_LOADED</title>
<polygon fill="none" stroke="white" points="640,-219 478,-219 478,-145 640,-145 640,-219"/>
<text text-anchor="middle" x="559" y="-207" font-family="Cascadia Code PL" font-size="10.00" fill="cyan">Custom Brush Active</text>
<text text-anchor="middle" x="559" y="-196" font-family="Cascadia Code PL" font-size="10.00" fill="cyan">────────────</text>
<text text-anchor="middle" x="559" y="-185" font-family="Cascadia Code PL" font-size="10.00" fill="cyan">CUSTOM_BRUSH.ACTIVE = TRUE</text>
<text text-anchor="middle" x="559" y="-174" font-family="Cascadia Code PL" font-size="10.00" fill="cyan">IMAGE &lt; &#45;1 (valid)</text>
<text text-anchor="middle" x="559" y="-163" font-family="Cascadia Code PL" font-size="10.00" fill="cyan">CUSTOM_BRUSH_render()</text>
<text text-anchor="middle" x="559" y="-152" font-family="Cascadia Code PL" font-size="10.00" fill="cyan">replaces circular brush</text>
</g>
<!-- CB_CAPTURE&#45;&gt;CB_LOADED -->
<g id="edge6" class="edge">
<title>CB_CAPTURE&#45;&gt;CB_LOADED</title>
<path fill="none" stroke="#66cc66" d="M533.47,-280.74C537.63,-264.8 542.57,-245.9 546.99,-228.98"/>
<polygon fill="#66cc66" stroke="#66cc66" points="550.38,-229.85 549.52,-219.29 543.61,-228.08 550.38,-229.85"/>
<text text-anchor="middle" x="573" y="-252.6" font-family="Cascadia Code PL" font-size="8.00" fill="#aaaaaa"> Pixels captured</text>
<text text-anchor="middle" x="573" y="-243.6" font-family="Cascadia Code PL" font-size="8.00" fill="#aaaaaa"> ACTIVE = TRUE</text>
</g>
<!-- CB_LOADED&#45;&gt;S_DRAGGING -->
<g id="edge26" class="edge">
<title>CB_LOADED&#45;&gt;S_DRAGGING</title>
<path fill="none" stroke="#555555" stroke-dasharray="1,5" d="M477.59,-194.21C361.14,-210.3 160.57,-238.19 157,-240 152.64,-242.21 139.27,-255.53 125,-270.48"/>
<polygon fill="#555555" stroke="#555555" points="122.3,-268.25 117.96,-277.91 127.38,-273.06 122.3,-268.25"/>
<text text-anchor="middle" x="208.5" y="-252.8" font-family="Cascadia Code PL" font-size="9.00" fill="#aaaaaa">Custom brush painting</text>
<text text-anchor="middle" x="208.5" y="-242.8" font-family="Cascadia Code PL" font-size="9.00" fill="#aaaaaa">CUSTOM_BRUSH_render()</text>
</g>
<!-- CB_LOADED&#45;&gt;CB_NONE -->
<g id="edge9" class="edge">
<title>CB_LOADED&#45;&gt;CB_NONE</title>
<path fill="none" stroke="#cc6666" stroke-dasharray="5,2" d="M593.97,-219.29C598.69,-225.78 602.96,-232.79 606,-240 638.62,-317.23 632.86,-364.79 621,-406 619.89,-409.85 618.4,-413.68 616.67,-417.42"/>
<polygon fill="#cc6666" stroke="#cc6666" points="613.46,-416.01 611.93,-426.49 619.66,-419.25 613.46,-416.01"/>
<text text-anchor="middle" x="675" y="-320.6" font-family="Cascadia Code PL" font-size="8.00" fill="#aaaaaa"> Ctrl+B (clear)</text>
<text text-anchor="middle" x="675" y="-311.6" font-family="Cascadia Code PL" font-size="8.00" fill="#aaaaaa"> CUSTOM_BRUSH_clear()</text>
</g>
<!-- CB_STASHED -->
<g id="node12" class="node">
<title>CB_STASHED</title>
<polygon fill="none" stroke="white" points="642.5,-79 489.5,-79 489.5,-16 642.5,-16 642.5,-79"/>
<text text-anchor="middle" x="566" y="-67" font-family="Cascadia Code PL" font-size="10.00" fill="cyan">Brush Stashed</text>
<text text-anchor="middle" x="566" y="-56" font-family="Cascadia Code PL" font-size="10.00" fill="cyan">────────────</text>
<text text-anchor="middle" x="566" y="-45" font-family="Cascadia Code PL" font-size="10.00" fill="cyan">CUSTOM_BRUSH_SAVED.VALID</text>
<text text-anchor="middle" x="566" y="-34" font-family="Cascadia Code PL" font-size="10.00" fill="cyan">Stored while non&#45;brush</text>
<text text-anchor="middle" x="566" y="-23" font-family="Cascadia Code PL" font-size="10.00" fill="cyan">tool is selected</text>
</g>
<!-- CB_LOADED&#45;&gt;CB_STASHED -->
<g id="edge7" class="edge">
<title>CB_LOADED&#45;&gt;CB_STASHED</title>
<path fill="none" stroke="#888888" stroke-dasharray="1,5" d="M504.85,-144.63C490.79,-130.56 481.85,-113.81 491,-97 493.04,-93.25 495.52,-89.74 498.3,-86.47"/>
<polygon fill="#888888" stroke="#888888" points="500.85,-88.87 505.32,-79.26 495.83,-83.99 500.85,-88.87"/>
<text text-anchor="middle" x="535.5" y="-117.6" font-family="Cascadia Code PL" font-size="8.00" fill="#aaaaaa"> Switch to</text>
<text text-anchor="middle" x="535.5" y="-108.6" font-family="Cascadia Code PL" font-size="8.00" fill="#aaaaaa"> non&#45;brush tool</text>
<text text-anchor="middle" x="535.5" y="-99.6" font-family="Cascadia Code PL" font-size="8.00" fill="#aaaaaa"> CUSTOM_BRUSH_stash()</text>
</g>
<!-- CB_STASHED&#45;&gt;CB_LOADED -->
<g id="edge8" class="edge">
<title>CB_STASHED&#45;&gt;CB_LOADED</title>
<path fill="none" stroke="#888888" stroke-dasharray="1,5" d="M576.79,-79.34C580.27,-93.01 582.62,-109.3 580,-124 579.35,-127.64 578.49,-131.35 577.48,-135.05"/>
<polygon fill="#888888" stroke="#888888" points="574.09,-134.15 574.51,-144.74 580.78,-136.2 574.09,-134.15"/>
<text text-anchor="middle" x="631" y="-113.1" font-family="Cascadia Code PL" font-size="8.00" fill="#aaaaaa"> Return to brush</text>
<text text-anchor="middle" x="631" y="-104.1" font-family="Cascadia Code PL" font-size="8.00" fill="#aaaaaa"> CUSTOM_BRUSH_unstash()</text>
</g>
<!-- CO_FLIP_H -->
<g id="node13" class="node">
<title>CO_FLIP_H</title>
<polygon fill="none" stroke="white" points="2475.5,-626.5 2390.5,-626.5 2390.5,-578.5 2475.5,-578.5 2475.5,-626.5"/>
<text text-anchor="middle" x="2433" y="-615.3" font-family="Cascadia Code PL" font-size="9.00" fill="cyan">Flip H</text>
<text text-anchor="middle" x="2433" y="-605.3" font-family="Cascadia Code PL" font-size="9.00" fill="cyan">────────</text>
<text text-anchor="middle" x="2433" y="-595.3" font-family="Cascadia Code PL" font-size="9.00" fill="cyan">FLIP_H = &#45;1 ↔ 0</text>
<text text-anchor="middle" x="2433" y="-585.3" font-family="Cascadia Code PL" font-size="9.00" fill="cyan">Toggle horizontal</text>
</g>
<!-- CO_FLIP_V -->
<g id="node14" class="node">
<title>CO_FLIP_V</title>
<polygon fill="none" stroke="white" points="2372.5,-626.5 2295.5,-626.5 2295.5,-578.5 2372.5,-578.5 2372.5,-626.5"/>
<text text-anchor="middle" x="2334" y="-615.3" font-family="Cascadia Code PL" font-size="9.00" fill="cyan">Flip V</text>
<text text-anchor="middle" x="2334" y="-605.3" font-family="Cascadia Code PL" font-size="9.00" fill="cyan">────────</text>
<text text-anchor="middle" x="2334" y="-595.3" font-family="Cascadia Code PL" font-size="9.00" fill="cyan">FLIP_V = &#45;1 ↔ 0</text>
<text text-anchor="middle" x="2334" y="-585.3" font-family="Cascadia Code PL" font-size="9.00" fill="cyan">Toggle vertical</text>
</g>
<!-- CO_ROTATE -->
<g id="node15" class="node">
<title>CO_ROTATE</title>
<polygon fill="none" stroke="white" points="2277,-626.5 2197,-626.5 2197,-578.5 2277,-578.5 2277,-626.5"/>
<text text-anchor="middle" x="2237" y="-615.3" font-family="Cascadia Code PL" font-size="9.00" fill="cyan">Rotate CW/CCW</text>
<text text-anchor="middle" x="2237" y="-605.3" font-family="Cascadia Code PL" font-size="9.00" fill="cyan">────────</text>
<text text-anchor="middle" x="2237" y="-595.3" font-family="Cascadia Code PL" font-size="9.00" fill="cyan">Swap W↔H</text>
<text text-anchor="middle" x="2237" y="-585.3" font-family="Cascadia Code PL" font-size="9.00" fill="cyan">Rotate IMAGE</text>
</g>
<!-- CO_SCALE -->
<g id="node16" class="node">
<title>CO_SCALE</title>
<polygon fill="none" stroke="white" points="2178.5,-626.5 2085.5,-626.5 2085.5,-578.5 2178.5,-578.5 2178.5,-626.5"/>
<text text-anchor="middle" x="2132" y="-615.3" font-family="Cascadia Code PL" font-size="9.00" fill="cyan">Scale</text>
<text text-anchor="middle" x="2132" y="-605.3" font-family="Cascadia Code PL" font-size="9.00" fill="cyan">────────</text>
<text text-anchor="middle" x="2132" y="-595.3" font-family="Cascadia Code PL" font-size="9.00" fill="cyan">SCALE factor adjust</text>
<text text-anchor="middle" x="2132" y="-585.3" font-family="Cascadia Code PL" font-size="9.00" fill="cyan">Scroll wheel ±0.1</text>
</g>
<!-- CO_RECOLOR -->
<g id="node17" class="node">
<title>CO_RECOLOR</title>
<polygon fill="none" stroke="white" points="2067,-631.5 1953,-631.5 1953,-573.5 2067,-573.5 2067,-631.5"/>
<text text-anchor="middle" x="2010" y="-620.3" font-family="Cascadia Code PL" font-size="9.00" fill="cyan">Recolor Mode</text>
<text text-anchor="middle" x="2010" y="-610.3" font-family="Cascadia Code PL" font-size="9.00" fill="cyan">────────</text>
<text text-anchor="middle" x="2010" y="-600.3" font-family="Cascadia Code PL" font-size="9.00" fill="cyan">RECOLOR_MODE = TRUE</text>
<text text-anchor="middle" x="2010" y="-590.3" font-family="Cascadia Code PL" font-size="9.00" fill="cyan">All non&#45;transparent →</text>
<text text-anchor="middle" x="2010" y="-580.3" font-family="Cascadia Code PL" font-size="9.00" fill="cyan">FG color</text>
</g>
<!-- CO_OUTLINE -->
<g id="node18" class="node">
<title>CO_OUTLINE</title>
<polygon fill="none" stroke="white" points="1934.5,-631.5 1821.5,-631.5 1821.5,-573.5 1934.5,-573.5 1934.5,-631.5"/>
<text text-anchor="middle" x="1878" y="-620.3" font-family="Cascadia Code PL" font-size="9.00" fill="cyan">Outline Mode</text>
<text text-anchor="middle" x="1878" y="-610.3" font-family="Cascadia Code PL" font-size="9.00" fill="cyan">────────</text>
<text text-anchor="middle" x="1878" y="-600.3" font-family="Cascadia Code PL" font-size="9.00" fill="cyan">SHOW_OUTLINE = TRUE</text>
<text text-anchor="middle" x="1878" y="-590.3" font-family="Cascadia Code PL" font-size="9.00" fill="cyan">Add outline around</text>
<text text-anchor="middle" x="1878" y="-580.3" font-family="Cascadia Code PL" font-size="9.00" fill="cyan">brush silhouette</text>
</g>
<!-- CO_EXPORT -->
<g id="node19" class="node">
<title>CO_EXPORT</title>
<polygon fill="none" stroke="white" points="1803.5,-626.5 1696.5,-626.5 1696.5,-578.5 1803.5,-578.5 1803.5,-626.5"/>
<text text-anchor="middle" x="1750" y="-615.3" font-family="Cascadia Code PL" font-size="9.00" fill="cyan">Export PNG</text>
<text text-anchor="middle" x="1750" y="-605.3" font-family="Cascadia Code PL" font-size="9.00" fill="cyan">────────</text>
<text text-anchor="middle" x="1750" y="-595.3" font-family="Cascadia Code PL" font-size="9.00" fill="cyan">Save brush to file</text>
<text text-anchor="middle" x="1750" y="-585.3" font-family="Cascadia Code PL" font-size="9.00" fill="cyan">Preserves transparency</text>
</g>
<!-- MOD_SHIFT -->
<g id="node21" class="node">
<title>MOD_SHIFT</title>
<polygon fill="none" stroke="white" points="1236.5,-355 1115.5,-355 1115.5,-281 1236.5,-281 1236.5,-355"/>
<text text-anchor="middle" x="1176" y="-343" font-family="Cascadia Code PL" font-size="10.00" fill="cyan">Shift Held</text>
<text text-anchor="middle" x="1176" y="-332" font-family="Cascadia Code PL" font-size="10.00" fill="cyan">────────────</text>
<text text-anchor="middle" x="1176" y="-321" font-family="Cascadia Code PL" font-size="10.00" fill="cyan">Constraint active</text>
<text text-anchor="middle" x="1176" y="-310" font-family="Cascadia Code PL" font-size="10.00" fill="cyan">CONSTRAIN_X% or</text>
<text text-anchor="middle" x="1176" y="-299" font-family="Cascadia Code PL" font-size="10.00" fill="cyan">CONSTRAIN_Y% locked</text>
<text text-anchor="middle" x="1176" y="-288" font-family="Cascadia Code PL" font-size="10.00" fill="cyan">H/V line forced</text>
</g>
<!-- MOD_NONE&#45;&gt;MOD_SHIFT -->
<g id="edge10" class="edge">
<title>MOD_NONE&#45;&gt;MOD_SHIFT</title>
<path fill="none" stroke="#66cc66" d="M1276.42,-451.43C1246.13,-445.35 1209.45,-432.62 1188,-406 1178.92,-394.73 1174.92,-379.85 1173.49,-365.59"/>
<polygon fill="#66cc66" stroke="#66cc66" points="1176.97,-365.14 1172.86,-355.37 1169.98,-365.57 1176.97,-365.14"/>
<text text-anchor="middle" x="1197.5" y="-389.1" font-family="Cascadia Code PL" font-size="8.00" fill="#aaaaaa"> Shift</text>
</g>
<!-- MOD_CTRL -->
<g id="node22" class="node">
<title>MOD_CTRL</title>
<polygon fill="none" stroke="white" points="1379.5,-349.5 1254.5,-349.5 1254.5,-286.5 1379.5,-286.5 1379.5,-349.5"/>
<text text-anchor="middle" x="1317" y="-337.5" font-family="Cascadia Code PL" font-size="10.00" fill="cyan">Ctrl Held</text>
<text text-anchor="middle" x="1317" y="-326.5" font-family="Cascadia Code PL" font-size="10.00" fill="cyan">────────────</text>
<text text-anchor="middle" x="1317" y="-315.5" font-family="Cascadia Code PL" font-size="10.00" fill="cyan">Square brush shape</text>
<text text-anchor="middle" x="1317" y="-304.5" font-family="Cascadia Code PL" font-size="10.00" fill="cyan">BRUSH_SIZE.SHAPE = &#45;1</text>
<text text-anchor="middle" x="1317" y="-293.5" font-family="Cascadia Code PL" font-size="10.00" fill="cyan">(if shape switching on)</text>
</g>
<!-- MOD_NONE&#45;&gt;MOD_CTRL -->
<g id="edge11" class="edge">
<title>MOD_NONE&#45;&gt;MOD_CTRL</title>
<path fill="none" stroke="#66cc66" d="M1315.6,-431.82C1312.49,-423.74 1309.56,-414.65 1308,-406 1305.31,-391.09 1306.09,-374.58 1308.03,-359.99"/>
<polygon fill="#66cc66" stroke="#66cc66" points="1311.55,-360.18 1309.63,-349.76 1304.63,-359.1 1311.55,-360.18"/>
<text text-anchor="middle" x="1316" y="-389.1" font-family="Cascadia Code PL" font-size="8.00" fill="#aaaaaa"> Ctrl</text>
</g>
<!-- MOD_ALT -->
<g id="node23" class="node">
<title>MOD_ALT</title>
<polygon fill="none" stroke="white" points="1536,-349.5 1398,-349.5 1398,-286.5 1536,-286.5 1536,-349.5"/>
<text text-anchor="middle" x="1467" y="-337.5" font-family="Cascadia Code PL" font-size="10.00" fill="cyan">Alt Held</text>
<text text-anchor="middle" x="1467" y="-326.5" font-family="Cascadia Code PL" font-size="10.00" fill="cyan">────────────</text>
<text text-anchor="middle" x="1467" y="-315.5" font-family="Cascadia Code PL" font-size="10.00" fill="cyan">Clone mode: CLONING%</text>
<text text-anchor="middle" x="1467" y="-304.5" font-family="Cascadia Code PL" font-size="10.00" fill="cyan">Clone from reference point</text>
<text text-anchor="middle" x="1467" y="-293.5" font-family="Cascadia Code PL" font-size="10.00" fill="cyan">Stamp each drag</text>
</g>
<!-- MOD_NONE&#45;&gt;MOD_ALT -->
<g id="edge12" class="edge">
<title>MOD_NONE&#45;&gt;MOD_ALT</title>
<path fill="none" stroke="#66cc66" d="M1352.68,-431.69C1373.93,-410.75 1404.43,-380.68 1428.58,-356.87"/>
<polygon fill="#66cc66" stroke="#66cc66" points="1431.19,-359.21 1435.86,-349.7 1426.28,-354.23 1431.19,-359.21"/>
<text text-anchor="middle" x="1411.5" y="-389.1" font-family="Cascadia Code PL" font-size="8.00" fill="#aaaaaa"> Alt</text>
</g>
<!-- MOD_SHIFT&#45;&gt;MOD_NONE -->
<g id="edge13" class="edge">
<title>MOD_SHIFT&#45;&gt;MOD_NONE</title>
<path fill="none" stroke="#cc6666" stroke-dasharray="5,2" d="M1213.69,-355.36C1230.2,-371.1 1249.9,-389.63 1268,-406 1274.93,-412.27 1282.42,-418.86 1289.65,-425.16"/>
<polygon fill="#cc6666" stroke="#cc6666" points="1287.51,-427.93 1297.36,-431.83 1292.09,-422.64 1287.51,-427.93"/>
<text text-anchor="middle" x="1285" y="-389.1" font-family="Cascadia Code PL" font-size="8.00" fill="#aaaaaa"> Released</text>
</g>
<!-- MOD_CTRL&#45;&gt;MOD_NONE -->
<g id="edge14" class="edge">
<title>MOD_CTRL&#45;&gt;MOD_NONE</title>
<path fill="none" stroke="#cc6666" stroke-dasharray="5,2" d="M1321.26,-349.72C1322.3,-358.22 1323.32,-367.45 1324,-376 1325.19,-390.87 1325.9,-407.31 1326.34,-421.47"/>
<polygon fill="#cc6666" stroke="#cc6666" points="1322.85,-421.89 1326.62,-431.79 1329.85,-421.7 1322.85,-421.89"/>
<text text-anchor="middle" x="1342" y="-389.1" font-family="Cascadia Code PL" font-size="8.00" fill="#aaaaaa"> Released</text>
</g>
<!-- MOD_ALT&#45;&gt;MOD_NONE -->
<g id="edge15" class="edge">
<title>MOD_ALT&#45;&gt;MOD_NONE</title>
<path fill="none" stroke="#cc6666" stroke-dasharray="5,2" d="M1456.47,-349.62C1449.05,-367.72 1437.63,-390.13 1422,-406 1411.96,-416.2 1399.44,-424.85 1386.83,-431.97"/>
<polygon fill="#cc6666" stroke="#cc6666" points="1384.82,-429.08 1377.66,-436.89 1388.12,-435.25 1384.82,-429.08"/>
<text text-anchor="middle" x="1459" y="-389.1" font-family="Cascadia Code PL" font-size="8.00" fill="#aaaaaa"> Released</text>
</g>
<!-- BIN_PATTERN -->
<g id="node25" class="node">
<title>BIN_PATTERN</title>
<polygon fill="none" stroke="white" points="978.5,-349.5 827.5,-349.5 827.5,-286.5 978.5,-286.5 978.5,-349.5"/>
<text text-anchor="middle" x="903" y="-337.5" font-family="Cascadia Code PL" font-size="10.00" fill="cyan">Pattern Bin Active</text>
<text text-anchor="middle" x="903" y="-326.5" font-family="Cascadia Code PL" font-size="10.00" fill="cyan">────────────</text>
<text text-anchor="middle" x="903" y="-315.5" font-family="Cascadia Code PL" font-size="10.00" fill="cyan">DRAWER.mode = PATTERN</text>
<text text-anchor="middle" x="903" y="-304.5" font-family="Cascadia Code PL" font-size="10.00" fill="cyan">Tile fill pattern</text>
<text text-anchor="middle" x="903" y="-293.5" font-family="Cascadia Code PL" font-size="10.00" fill="cyan">DRAWER_PATTERN_SLOTS(sel)</text>
</g>
<!-- BIN_BRUSH&#45;&gt;BIN_PATTERN -->
<g id="edge16" class="edge">
<title>BIN_BRUSH&#45;&gt;BIN_PATTERN</title>
<path fill="none" stroke="#6699ff" d="M945.57,-426.39C941.44,-419.82 937.36,-412.81 934,-406 926.67,-391.14 920.2,-374.09 915.1,-359.05"/>
<polygon fill="#6699ff" stroke="#6699ff" points="918.41,-357.9 911.95,-349.5 911.76,-360.1 918.41,-357.9"/>
<text text-anchor="middle" x="972" y="-393.6" font-family="Cascadia Code PL" font-size="8.00" fill="#aaaaaa"> Switch to Pattern</text>
<text text-anchor="middle" x="972" y="-384.6" font-family="Cascadia Code PL" font-size="8.00" fill="#aaaaaa"> DRAWER_set_mode()</text>
</g>
<!-- BIN_PATTERN&#45;&gt;S_DRAGGING -->
<g id="edge27" class="edge">
<title>BIN_PATTERN&#45;&gt;S_DRAGGING</title>
<path fill="none" stroke="#555555" stroke-dasharray="1,5" d="M829.2,-349.58C783.98,-368.93 734.67,-390.01 734.5,-390 560.95,-382.88 517.52,-378.18 345,-358 288.02,-351.33 224.41,-341.72 174.03,-333.59"/>
<polygon fill="#555555" stroke="#555555" points="174.56,-330.13 164.13,-331.98 173.44,-337.04 174.56,-330.13"/>
<text text-anchor="middle" x="772" y="-393.8" font-family="Cascadia Code PL" font-size="9.00" fill="#aaaaaa">Pattern tile applied</text>
<text text-anchor="middle" x="772" y="-383.8" font-family="Cascadia Code PL" font-size="9.00" fill="#aaaaaa">per stroke pixel</text>
</g>
<!-- BIN_GRADIENT -->
<g id="node26" class="node">
<title>BIN_GRADIENT</title>
<polygon fill="none" stroke="white" points="1045.5,-213.5 902.5,-213.5 902.5,-150.5 1045.5,-150.5 1045.5,-213.5"/>
<text text-anchor="middle" x="974" y="-201.5" font-family="Cascadia Code PL" font-size="10.00" fill="cyan">Gradient Bin Active</text>
<text text-anchor="middle" x="974" y="-190.5" font-family="Cascadia Code PL" font-size="10.00" fill="cyan">────────────</text>
<text text-anchor="middle" x="974" y="-179.5" font-family="Cascadia Code PL" font-size="10.00" fill="cyan">DRAWER.mode = GRADIENT</text>
<text text-anchor="middle" x="974" y="-168.5" font-family="Cascadia Code PL" font-size="10.00" fill="cyan">Apply gradient along stroke</text>
<text text-anchor="middle" x="974" y="-157.5" font-family="Cascadia Code PL" font-size="10.00" fill="cyan">GRAD_DEFS(sel).family</text>
</g>
<!-- BIN_PATTERN&#45;&gt;BIN_GRADIENT -->
<g id="edge17" class="edge">
<title>BIN_PATTERN&#45;&gt;BIN_GRADIENT</title>
<path fill="none" stroke="#6699ff" d="M913.52,-286.28C918.91,-271.88 926.02,-254.69 934,-240 937.26,-234 941.02,-227.88 944.91,-221.98"/>
<polygon fill="#6699ff" stroke="#6699ff" points="947.93,-223.77 950.65,-213.53 942.14,-219.83 947.93,-223.77"/>
<text text-anchor="middle" x="972" y="-252.6" font-family="Cascadia Code PL" font-size="8.00" fill="#aaaaaa"> Switch to Gradient</text>
<text text-anchor="middle" x="972" y="-243.6" font-family="Cascadia Code PL" font-size="8.00" fill="#aaaaaa"> DRAWER_set_mode()</text>
</g>
<!-- BIN_GRADIENT&#45;&gt;S_DRAGGING -->
<g id="edge28" class="edge">
<title>BIN_GRADIENT&#45;&gt;S_DRAGGING</title>
<path fill="none" stroke="#555555" stroke-dasharray="1,5" d="M902.47,-196.53C853.98,-205.18 788.34,-215.89 730,-222 571.55,-238.6 529.41,-215.42 372,-240 304.61,-250.52 230.3,-270.42 173.77,-287.35"/>
<polygon fill="#555555" stroke="#555555" points="172.71,-284.02 164.15,-290.26 174.73,-290.72 172.71,-284.02"/>
<text text-anchor="middle" x="407" y="-252.8" font-family="Cascadia Code PL" font-size="9.00" fill="#aaaaaa">Gradient resolved</text>
<text text-anchor="middle" x="407" y="-242.8" font-family="Cascadia Code PL" font-size="9.00" fill="#aaaaaa">per pixel distance</text>
</g>
<!-- BIN_GRADIENT&#45;&gt;BIN_BRUSH -->
<g id="edge18" class="edge">
<title>BIN_GRADIENT&#45;&gt;BIN_BRUSH</title>
<path fill="none" stroke="#6699ff" d="M997.77,-213.72C1002.79,-221.84 1007.36,-230.89 1010,-240 1020.25,-275.44 1022.66,-371.35 1010,-406 1008.52,-410.04 1006.57,-413.98 1004.31,-417.76"/>
<polygon fill="#6699ff" stroke="#6699ff" points="1001.26,-416.04 998.57,-426.29 1007.06,-419.95 1001.26,-416.04"/>
<text text-anchor="middle" x="1057" y="-320.6" font-family="Cascadia Code PL" font-size="8.00" fill="#aaaaaa"> Switch to Brush</text>
<text text-anchor="middle" x="1057" y="-311.6" font-family="Cascadia Code PL" font-size="8.00" fill="#aaaaaa"> DRAWER_set_mode()</text>
</g>
<!-- PPM_ON -->
<g id="node28" class="node">
<title>PPM_ON</title>
<polygon fill="none" stroke="white" points="1716,-355 1560,-355 1560,-281 1716,-281 1716,-355"/>
<text text-anchor="middle" x="1638" y="-343" font-family="Cascadia Code PL" font-size="10.00" fill="cyan">Pixel Perfect</text>
<text text-anchor="middle" x="1638" y="-332" font-family="Cascadia Code PL" font-size="10.00" fill="cyan">────────────</text>
<text text-anchor="middle" x="1638" y="-321" font-family="Cascadia Code PL" font-size="10.00" fill="cyan">BRUSH_SIZE.PIXEL_PERFECT=&#45;1</text>
<text text-anchor="middle" x="1638" y="-310" font-family="Cascadia Code PL" font-size="10.00" fill="cyan">PP_STROKE() tracks each</text>
<text text-anchor="middle" x="1638" y="-299" font-family="Cascadia Code PL" font-size="10.00" fill="cyan">pixel placed</text>
<text text-anchor="middle" x="1638" y="-288" font-family="Cascadia Code PL" font-size="10.00" fill="cyan">Removes corner artifacts</text>
</g>
<!-- PPM_OFF&#45;&gt;PPM_ON -->
<g id="edge19" class="edge">
<title>PPM_OFF&#45;&gt;PPM_ON</title>
<path fill="none" stroke="#66cc66" d="M1613.92,-426.21C1608.75,-411.08 1605.03,-392.57 1609,-376 1609.92,-372.16 1611.14,-368.29 1612.57,-364.47"/>
<polygon fill="#66cc66" stroke="#66cc66" points="1615.85,-365.7 1616.47,-355.12 1609.39,-363 1615.85,-365.7"/>
<text text-anchor="middle" x="1622.5" y="-389.1" font-family="Cascadia Code PL" font-size="8.00" fill="#aaaaaa"> Ctrl+D</text>
</g>
<!-- PPM_ON&#45;&gt;PPM_OFF -->
<g id="edge20" class="edge">
<title>PPM_ON&#45;&gt;PPM_OFF</title>
<path fill="none" stroke="#cc6666" stroke-dasharray="5,2" d="M1638.24,-355.04C1638.07,-370.72 1637.5,-389.3 1636,-406 1635.7,-409.3 1635.33,-412.72 1634.9,-416.14"/>
<polygon fill="#cc6666" stroke="#cc6666" points="1631.39,-415.95 1633.48,-426.34 1638.32,-416.91 1631.39,-415.95"/>
<text text-anchor="middle" x="1650.5" y="-389.1" font-family="Cascadia Code PL" font-size="8.00" fill="#aaaaaa"> Ctrl+D</text>
</g>
<!-- L1 -->
<g id="node29" class="node">
<title>L1</title>
<ellipse fill="white" stroke="white" cx="2895" cy="-602.5" rx="0.36" ry="0.36"/>
</g>
<!-- L2 -->
<g id="node30" class="node">
<title>L2</title>
<ellipse fill="white" stroke="white" cx="2895" cy="-458" rx="0.36" ry="0.36"/>
</g>
<!-- L1&#45;&gt;L2 -->
<g id="edge29" class="edge">
<title>L1&#45;&gt;L2</title>
<path fill="none" stroke="#66cc66" d="M2895,-601.4C2895,-597.8 2895,-501.06 2895,-469.12"/>
<polygon fill="#66cc66" stroke="#66cc66" points="2898.5,-469.1 2895,-459.1 2891.5,-469.1 2898.5,-469.1"/>
<text text-anchor="middle" x="2927" y="-548.3" font-family="Cascadia Code PL" font-size="9.00" fill="#aaaaaa"> Activate / Draw</text>
</g>
<!-- L3 -->
<g id="node31" class="node">
<title>L3</title>
<ellipse fill="white" stroke="white" cx="2800" cy="-602.5" rx="0.36" ry="0.36"/>
</g>
<!-- L4 -->
<g id="node32" class="node">
<title>L4</title>
<ellipse fill="white" stroke="white" cx="2800" cy="-458" rx="0.36" ry="0.36"/>
</g>
<!-- L3&#45;&gt;L4 -->
<g id="edge30" class="edge">
<title>L3&#45;&gt;L4</title>
<path fill="none" stroke="#cc6666" stroke-dasharray="5,2" d="M2800,-601.4C2800,-597.8 2800,-501.06 2800,-469.12"/>
<polygon fill="#cc6666" stroke="#cc6666" points="2803.5,-469.1 2800,-459.1 2796.5,-469.1 2803.5,-469.1"/>
<text text-anchor="middle" x="2836" y="-548.3" font-family="Cascadia Code PL" font-size="9.00" fill="#aaaaaa"> Deactivate / Clear</text>
</g>
<!-- L5 -->
<g id="node33" class="node">
<title>L5</title>
<ellipse fill="white" stroke="white" cx="2702" cy="-602.5" rx="0.36" ry="0.36"/>
</g>
<!-- L6 -->
<g id="node34" class="node">
<title>L6</title>
<ellipse fill="white" stroke="white" cx="2702" cy="-458" rx="0.36" ry="0.36"/>
</g>
<!-- L5&#45;&gt;L6 -->
<g id="edge31" class="edge">
<title>L5&#45;&gt;L6</title>
<path fill="none" stroke="#cccc66" d="M2702,-601.4C2702,-597.8 2702,-501.06 2702,-469.12"/>
<polygon fill="#cccc66" stroke="#cccc66" points="2705.5,-469.1 2702,-459.1 2698.5,-469.1 2705.5,-469.1"/>
<text text-anchor="middle" x="2739.5" y="-548.3" font-family="Cascadia Code PL" font-size="9.00" fill="#aaaaaa"> Commit to History</text>
</g>
<!-- L7 -->
<g id="node35" class="node">
<title>L7</title>
<ellipse fill="white" stroke="white" cx="2583" cy="-602.5" rx="0.36" ry="0.36"/>
</g>
<!-- L8 -->
<g id="node36" class="node">
<title>L8</title>
<ellipse fill="white" stroke="white" cx="2583" cy="-458" rx="0.36" ry="0.36"/>
</g>
<!-- L7&#45;&gt;L8 -->
<g id="edge32" class="edge">
<title>L7&#45;&gt;L8</title>
<path fill="none" stroke="#6699ff" d="M2583,-601.4C2583,-597.8 2583,-501.06 2583,-469.12"/>
<polygon fill="#6699ff" stroke="#6699ff" points="2586.5,-469.1 2583,-459.1 2579.5,-469.1 2586.5,-469.1"/>
<text text-anchor="middle" x="2631" y="-548.3" font-family="Cascadia Code PL" font-size="9.00" fill="#aaaaaa"> Mode Switch / Re&#45;enter</text>
</g>
<!-- L9 -->
<g id="node37" class="node">
<title>L9</title>
<ellipse fill="white" stroke="white" cx="2518" cy="-602.5" rx="0.36" ry="0.36"/>
</g>
<!-- L10 -->
<g id="node38" class="node">
<title>L10</title>
<ellipse fill="white" stroke="white" cx="2518" cy="-458" rx="0.36" ry="0.36"/>
</g>
<!-- L9&#45;&gt;L10 -->
<g id="edge33" class="edge">
<title>L9&#45;&gt;L10</title>
<path fill="none" stroke="#555555" stroke-dasharray="1,5" d="M2518,-601.4C2518,-597.8 2518,-501.06 2518,-469.12"/>
<polygon fill="#555555" stroke="#555555" points="2521.5,-469.1 2518,-459.1 2514.5,-469.1 2521.5,-469.1"/>
<text text-anchor="middle" x="2539" y="-548.3" font-family="Cascadia Code PL" font-size="9.00" fill="#aaaaaa"> Cross&#45;link</text>
</g>
</g>
</svg>
