<?xml version="1.0" encoding="UTF-8" standalone="no"?>
<!DOCTYPE svg PUBLIC "-//W3C//DTD SVG 1.1//EN"
 "http://www.w3.org/Graphics/SVG/1.1/DTD/svg11.dtd">
<!-- Generated by graphviz version 2.42.4 (0)
 -->
<!-- Title: CHEATSHEET_TOOL Pages: 1 -->
<svg width="493pt" height="492pt"
 viewBox="0.00 0.00 493.00 492.36" xmlns="http://www.w3.org/2000/svg" xmlns:xlink="http://www.w3.org/1999/xlink">
<g id="graph0" class="graph" transform="scale(1 1) rotate(0) translate(4 488.36)">
<title>CHEATSHEET_TOOL</title>
<text text-anchor="middle" x="242.5" y="-461.16" font-family="Cascadia Code PL" font-size="24.00" fill="white">CHEAT SHEET / HELP TOOL STATE MACHINE</text>
<g id="clust3" class="cluster">
<title>cluster_legend</title>
<polygon fill="transparent" stroke="white" stroke-dasharray="5,2" points="260.5,-307.64 260.5,-442.36 423.5,-442.36 423.5,-307.64 260.5,-307.64"/>
<text text-anchor="middle" x="288.5" y="-429.56" font-family="Cascadia Code PL" font-size="11.00" fill="white">LEGEND</text>
</g>
<!-- MAIN -->
<g id="node1" class="node">
<title>MAIN</title>
<polygon fill="none" stroke="orange" stroke-width="2" points="210,-432 207,-436 186,-436 183,-432 121,-432 121,-396 210,-396 210,-432"/>
<text text-anchor="middle" x="165.5" y="-410.6" font-family="Cascadia Code PL" font-size="13.00" fill="orange">HELP STATES</text>
</g>
<!-- S_HIDDEN -->
<g id="node2" class="node">
<title>S_HIDDEN</title>
<polygon fill="none" stroke="white" points="252,-350 79,-350 79,-282 252,-282 252,-350"/>
<text text-anchor="middle" x="165.5" y="-337.2" font-family="Cascadia Code PL" font-size="11.00" fill="cyan">1 · HIDDEN</text>
<text text-anchor="middle" x="165.5" y="-325.2" font-family="Cascadia Code PL" font-size="11.00" fill="cyan">─────────────────</text>
<text text-anchor="middle" x="165.5" y="-313.2" font-family="Cascadia Code PL" font-size="11.00" fill="cyan">HELP overlay not visible</text>
<text text-anchor="middle" x="165.5" y="-301.2" font-family="Cascadia Code PL" font-size="11.00" fill="cyan">Normal drawing mode</text>
<text text-anchor="middle" x="165.5" y="-289.2" font-family="Cascadia Code PL" font-size="11.00" fill="cyan">CURRENT_TOOL% ≠ TOOL_HELP</text>
</g>
<!-- MAIN&#45;&gt;S_HIDDEN -->
<g id="edge6" class="edge">
<title>MAIN&#45;&gt;S_HIDDEN</title>
<path fill="none" stroke="#555555" stroke-dasharray="1,5" d="M165.5,-395.84C165.5,-383.22 165.5,-365.67 165.5,-350.33"/>
</g>
<!-- S_VISIBLE -->
<g id="node3" class="node">
<title>S_VISIBLE</title>
<polygon fill="none" stroke="white" points="199.5,-216 53.5,-216 53.5,-136 199.5,-136 199.5,-216"/>
<text text-anchor="middle" x="126.5" y="-203.2" font-family="Cascadia Code PL" font-size="11.00" fill="cyan">2 · VISIBLE</text>
<text text-anchor="middle" x="126.5" y="-191.2" font-family="Cascadia Code PL" font-size="11.00" fill="cyan">─────────────────</text>
<text text-anchor="middle" x="126.5" y="-179.2" font-family="Cascadia Code PL" font-size="11.00" fill="cyan">HELP overlay shown</text>
<text text-anchor="middle" x="126.5" y="-167.2" font-family="Cascadia Code PL" font-size="11.00" fill="cyan">Full&#45;screen cheat sheet</text>
<text text-anchor="middle" x="126.5" y="-155.2" font-family="Cascadia Code PL" font-size="11.00" fill="cyan">All keyboard shortcuts</text>
<text text-anchor="middle" x="126.5" y="-143.2" font-family="Cascadia Code PL" font-size="11.00" fill="cyan">Mouse bindings displayed</text>
</g>
<!-- S_HIDDEN&#45;&gt;S_VISIBLE -->
<g id="edge1" class="edge">
<title>S_HIDDEN&#45;&gt;S_VISIBLE</title>
<path fill="none" stroke="#66cc66" d="M83.7,-281.63C77.76,-276.52 72.53,-270.68 68.5,-264 60.65,-251 64.12,-237.2 72.36,-224.52"/>
<polygon fill="#66cc66" stroke="#66cc66" points="75.26,-226.49 78.39,-216.37 69.63,-222.32 75.26,-226.49"/>
<text text-anchor="middle" x="106" y="-256.8" font-family="Cascadia Code PL" font-size="9.00" fill="#aaaaaa"> &#160;Press H or F1</text>
<text text-anchor="middle" x="106" y="-246.8" font-family="Cascadia Code PL" font-size="9.00" fill="#aaaaaa"> &#160;or click HELP tool</text>
<text text-anchor="middle" x="106" y="-236.8" font-family="Cascadia Code PL" font-size="9.00" fill="#aaaaaa"> &#160;HELP_show()</text>
</g>
<!-- S_VISIBLE&#45;&gt;S_HIDDEN -->
<g id="edge4" class="edge">
<title>S_VISIBLE&#45;&gt;S_HIDDEN</title>
<path fill="none" stroke="#cc6666" stroke-dasharray="5,2" d="M138.33,-216.21C140.09,-222.16 141.86,-228.24 143.5,-234 146.99,-246.26 150.67,-259.61 153.99,-271.86"/>
<polygon fill="#cc6666" stroke="#cc6666" points="150.71,-273.1 156.69,-281.84 157.46,-271.28 150.71,-273.1"/>
<text text-anchor="middle" x="180" y="-256.8" font-family="Cascadia Code PL" font-size="9.00" fill="#aaaaaa"> &#160;Press Escape</text>
<text text-anchor="middle" x="180" y="-246.8" font-family="Cascadia Code PL" font-size="9.00" fill="#aaaaaa"> &#160;or H or F1</text>
<text text-anchor="middle" x="180" y="-236.8" font-family="Cascadia Code PL" font-size="9.00" fill="#aaaaaa"> &#160;HELP_hide()</text>
</g>
<!-- S_SCROLLING -->
<g id="node4" class="node">
<title>S_SCROLLING</title>
<polygon fill="none" stroke="white" points="253,-80 110,-80 110,0 253,0 253,-80"/>
<text text-anchor="middle" x="181.5" y="-67.2" font-family="Cascadia Code PL" font-size="11.00" fill="cyan">3 · SCROLLING</text>
<text text-anchor="middle" x="181.5" y="-55.2" font-family="Cascadia Code PL" font-size="11.00" fill="cyan">─────────────────</text>
<text text-anchor="middle" x="181.5" y="-43.2" font-family="Cascadia Code PL" font-size="11.00" fill="cyan">Content taller than screen</text>
<text text-anchor="middle" x="181.5" y="-31.2" font-family="Cascadia Code PL" font-size="11.00" fill="cyan">Scroll with mouse wheel</text>
<text text-anchor="middle" x="181.5" y="-19.2" font-family="Cascadia Code PL" font-size="11.00" fill="cyan">or arrow keys</text>
<text text-anchor="middle" x="181.5" y="-7.2" font-family="Cascadia Code PL" font-size="11.00" fill="cyan">Page up/down supported</text>
</g>
<!-- S_VISIBLE&#45;&gt;S_SCROLLING -->
<g id="edge2" class="edge">
<title>S_VISIBLE&#45;&gt;S_SCROLLING</title>
<path fill="none" stroke="#66cc66" d="M135.64,-135.97C139.07,-123.61 143.39,-110.03 148.5,-98 149.71,-95.15 151.04,-92.26 152.44,-89.37"/>
<polygon fill="#66cc66" stroke="#66cc66" points="155.68,-90.71 157.13,-80.22 149.45,-87.52 155.68,-90.71"/>
<text text-anchor="middle" x="185" y="-110.8" font-family="Cascadia Code PL" font-size="9.00" fill="#aaaaaa"> &#160;Content overflow</text>
<text text-anchor="middle" x="185" y="-100.8" font-family="Cascadia Code PL" font-size="9.00" fill="#aaaaaa"> &#160;Scroll available</text>
</g>
<!-- S_SCROLLING&#45;&gt;S_HIDDEN -->
<g id="edge5" class="edge">
<title>S_SCROLLING&#45;&gt;S_HIDDEN</title>
<path fill="none" stroke="#cc6666" stroke-dasharray="5,2" d="M213.43,-80.16C216.72,-85.87 219.57,-91.89 221.5,-98 224.18,-106.48 221.8,-109.12 221.5,-118 219.28,-183 236.9,-204.12 211.5,-264 210.13,-267.23 208.47,-270.38 206.6,-273.45"/>
<polygon fill="#cc6666" stroke="#cc6666" points="203.64,-271.58 200.86,-281.8 209.41,-275.54 203.64,-271.58"/>
<text text-anchor="middle" x="253" y="-183.8" font-family="Cascadia Code PL" font-size="9.00" fill="#aaaaaa"> &#160;Press Escape</text>
<text text-anchor="middle" x="253" y="-173.8" font-family="Cascadia Code PL" font-size="9.00" fill="#aaaaaa"> &#160;or H or F1</text>
<text text-anchor="middle" x="253" y="-163.8" font-family="Cascadia Code PL" font-size="9.00" fill="#aaaaaa"> &#160;HELP_hide()</text>
</g>
<!-- S_SCROLLING&#45;&gt;S_SCROLLING -->
<g id="edge3" class="edge">
<title>S_SCROLLING&#45;&gt;S_SCROLLING</title>
<path fill="none" stroke="#88aacc" d="M253.13,-51.57C263.79,-49.77 271,-45.91 271,-40 271,-36.21 268.04,-33.27 263.11,-31.17"/>
<polygon fill="#88aacc" stroke="#88aacc" points="263.7,-27.7 253.13,-28.43 261.84,-34.45 263.7,-27.7"/>
<text text-anchor="middle" x="319.5" y="-47.8" font-family="Cascadia Code PL" font-size="9.00" fill="#aaaaaa"> &#160;Mouse wheel</text>
<text text-anchor="middle" x="319.5" y="-37.8" font-family="Cascadia Code PL" font-size="9.00" fill="#aaaaaa"> &#160;or arrow keys</text>
<text text-anchor="middle" x="319.5" y="-27.8" font-family="Cascadia Code PL" font-size="9.00" fill="#aaaaaa"> &#160;Scroll position changes</text>
</g>
<!-- L1 -->
<g id="node5" class="node">
<title>L1</title>
<ellipse fill="white" stroke="white" cx="360.5" cy="-414" rx="0.36" ry="0.36"/>
</g>
<!-- L2 -->
<g id="node6" class="node">
<title>L2</title>
<ellipse fill="white" stroke="white" cx="360.5" cy="-316" rx="0.36" ry="0.36"/>
</g>
<!-- L1&#45;&gt;L2 -->
<g id="edge7" class="edge">
<title>L1&#45;&gt;L2</title>
<path fill="none" stroke="#66cc66" d="M360.5,-412.93C360.5,-410.63 360.5,-351.78 360.5,-327.42"/>
<polygon fill="#66cc66" stroke="#66cc66" points="364,-327.07 360.5,-317.07 357,-327.07 364,-327.07"/>
<text text-anchor="middle" x="388" y="-370.8" font-family="Cascadia Code PL" font-size="9.00" fill="#aaaaaa"> Show / Open</text>
</g>
<!-- L3 -->
<g id="node7" class="node">
<title>L3</title>
<ellipse fill="white" stroke="white" cx="286.5" cy="-414" rx="0.36" ry="0.36"/>
</g>
<!-- L4 -->
<g id="node8" class="node">
<title>L4</title>
<ellipse fill="white" stroke="white" cx="286.5" cy="-316" rx="0.36" ry="0.36"/>
</g>
<!-- L3&#45;&gt;L4 -->
<g id="edge8" class="edge">
<title>L3&#45;&gt;L4</title>
<path fill="none" stroke="#cc6666" stroke-dasharray="5,2" d="M286.5,-412.93C286.5,-410.63 286.5,-351.78 286.5,-327.42"/>
<polygon fill="#cc6666" stroke="#cc6666" points="290,-327.07 286.5,-317.07 283,-327.07 290,-327.07"/>
<text text-anchor="middle" x="312" y="-370.8" font-family="Cascadia Code PL" font-size="9.00" fill="#aaaaaa"> Hide / Close</text>
</g>
</g>
</svg>
