<?xml version="1.0" encoding="UTF-8" standalone="no"?>
<!DOCTYPE svg PUBLIC "-//W3C//DTD SVG 1.1//EN"
 "http://www.w3.org/Graphics/SVG/1.1/DTD/svg11.dtd">
<!-- Generated by graphviz version 2.42.4 (0)
 -->
<!-- Title: CROP_TOOL Pages: 1 -->
<svg width="612pt" height="640pt"
 viewBox="0.00 0.00 612.00 640.36" xmlns="http://www.w3.org/2000/svg" xmlns:xlink="http://www.w3.org/1999/xlink">
<g id="graph0" class="graph" transform="scale(1 1) rotate(0) translate(4 636.36)">
<title>CROP_TOOL</title>
<text text-anchor="middle" x="302" y="-609.16" font-family="Cascadia Code PL" font-size="24.00" fill="white">CROP TOOL STATE MACHINE</text>
<g id="clust4" class="cluster">
<title>cluster_legend</title>
<polygon fill="transparent" stroke="white" stroke-dasharray="5,2" points="323,-455.64 323,-590.36 596,-590.36 596,-455.64 323,-455.64"/>
<text text-anchor="middle" x="351" y="-577.56" font-family="Cascadia Code PL" font-size="11.00" fill="white">LEGEND</text>
</g>
<!-- MAIN -->
<g id="node1" class="node">
<title>MAIN</title>
<polygon fill="none" stroke="orange" stroke-width="2" points="277.5,-580 274.5,-584 253.5,-584 250.5,-580 184.5,-580 184.5,-544 277.5,-544 277.5,-580"/>
<text text-anchor="middle" x="231" y="-558.6" font-family="Cascadia Code PL" font-size="13.00" fill="orange">CROP STATES</text>
</g>
<!-- S_IDLE -->
<g id="node2" class="node">
<title>S_IDLE</title>
<polygon fill="none" stroke="white" points="315,-498 147,-498 147,-430 315,-430 315,-498"/>
<text text-anchor="middle" x="231" y="-485.2" font-family="Cascadia Code PL" font-size="11.00" fill="cyan">1 · IDLE</text>
<text text-anchor="middle" x="231" y="-473.2" font-family="Cascadia Code PL" font-size="11.00" fill="cyan">─────────────────</text>
<text text-anchor="middle" x="231" y="-461.2" font-family="Cascadia Code PL" font-size="11.00" fill="cyan">CURRENT_TOOL = TOOL_CROP</text>
<text text-anchor="middle" x="231" y="-449.2" font-family="Cascadia Code PL" font-size="11.00" fill="cyan">Saves previous tool</text>
<text text-anchor="middle" x="231" y="-437.2" font-family="Cascadia Code PL" font-size="11.00" fill="cyan">Cursor: crosshair</text>
</g>
<!-- MAIN&#45;&gt;S_IDLE -->
<g id="edge10" class="edge">
<title>MAIN&#45;&gt;S_IDLE</title>
<path fill="none" stroke="#555555" stroke-dasharray="1,5" d="M231,-543.84C231,-531.22 231,-513.67 231,-498.33"/>
</g>
<!-- S_DRAWING -->
<g id="node3" class="node">
<title>S_DRAWING</title>
<polygon fill="none" stroke="white" points="296.5,-374 165.5,-374 165.5,-294 296.5,-294 296.5,-374"/>
<text text-anchor="middle" x="231" y="-361.2" font-family="Cascadia Code PL" font-size="11.00" fill="cyan">2 · DRAWING REGION</text>
<text text-anchor="middle" x="231" y="-349.2" font-family="Cascadia Code PL" font-size="11.00" fill="cyan">─────────────────</text>
<text text-anchor="middle" x="231" y="-337.2" font-family="Cascadia Code PL" font-size="11.00" fill="cyan">B1 drag on canvas</text>
<text text-anchor="middle" x="231" y="-325.2" font-family="Cascadia Code PL" font-size="11.00" fill="cyan">Crop rectangle preview</text>
<text text-anchor="middle" x="231" y="-313.2" font-family="Cascadia Code PL" font-size="11.00" fill="cyan">Rubberband overlay</text>
<text text-anchor="middle" x="231" y="-301.2" font-family="Cascadia Code PL" font-size="11.00" fill="cyan">Dim area outside crop</text>
</g>
<!-- S_IDLE&#45;&gt;S_DRAWING -->
<g id="edge1" class="edge">
<title>S_IDLE&#45;&gt;S_DRAWING</title>
<path fill="none" stroke="#66cc66" d="M231,-429.7C231,-415.86 231,-399.51 231,-384.32"/>
<polygon fill="#66cc66" stroke="#66cc66" points="234.5,-384.04 231,-374.04 227.5,-384.04 234.5,-384.04"/>
<text text-anchor="middle" x="269.5" y="-404.8" font-family="Cascadia Code PL" font-size="9.00" fill="#aaaaaa"> &#160;B1 drag on canvas</text>
<text text-anchor="middle" x="269.5" y="-394.8" font-family="Cascadia Code PL" font-size="9.00" fill="#aaaaaa"> &#160;Start crop region</text>
</g>
<!-- S_DEFINED -->
<g id="node4" class="node">
<title>S_DEFINED</title>
<polygon fill="none" stroke="white" points="310,-238 184,-238 184,-158 310,-158 310,-238"/>
<text text-anchor="middle" x="247" y="-225.2" font-family="Cascadia Code PL" font-size="11.00" fill="cyan">3 · REGION DEFINED</text>
<text text-anchor="middle" x="247" y="-213.2" font-family="Cascadia Code PL" font-size="11.00" fill="cyan">─────────────────</text>
<text text-anchor="middle" x="247" y="-201.2" font-family="Cascadia Code PL" font-size="11.00" fill="cyan">Crop area set</text>
<text text-anchor="middle" x="247" y="-189.2" font-family="Cascadia Code PL" font-size="11.00" fill="cyan">Overlay shows bounds</text>
<text text-anchor="middle" x="247" y="-177.2" font-family="Cascadia Code PL" font-size="11.00" fill="cyan">Resize handles visible</text>
<text text-anchor="middle" x="247" y="-165.2" font-family="Cascadia Code PL" font-size="11.00" fill="cyan">Awaiting Enter/Escape</text>
</g>
<!-- S_DRAWING&#45;&gt;S_DEFINED -->
<g id="edge2" class="edge">
<title>S_DRAWING&#45;&gt;S_DEFINED</title>
<path fill="none" stroke="#cccc66" d="M187.39,-293.92C179.34,-282.14 175.1,-268.9 181,-256 182.57,-252.56 184.47,-249.25 186.6,-246.08"/>
<polygon fill="#cccc66" stroke="#cccc66" points="189.49,-248.07 192.78,-238 183.92,-243.82 189.49,-248.07"/>
<text text-anchor="middle" x="220.5" y="-268.8" font-family="Cascadia Code PL" font-size="9.00" fill="#aaaaaa"> &#160;B1 released</text>
<text text-anchor="middle" x="220.5" y="-258.8" font-family="Cascadia Code PL" font-size="9.00" fill="#aaaaaa"> &#160;Region bounds set</text>
</g>
<!-- S_DEFINED&#45;&gt;S_DRAWING -->
<g id="edge9" class="edge">
<title>S_DEFINED&#45;&gt;S_DRAWING</title>
<path fill="none" stroke="#66cc66" d="M259.75,-238.38C262.05,-250.52 262.91,-263.87 260,-276 259.33,-278.78 258.51,-281.58 257.56,-284.37"/>
<polygon fill="#66cc66" stroke="#66cc66" points="254.28,-283.16 253.93,-293.74 260.8,-285.68 254.28,-283.16"/>
<text text-anchor="middle" x="312" y="-268.8" font-family="Cascadia Code PL" font-size="9.00" fill="#aaaaaa"> &#160;B1 drag outside handles</text>
<text text-anchor="middle" x="312" y="-258.8" font-family="Cascadia Code PL" font-size="9.00" fill="#aaaaaa"> &#160;Start new crop region</text>
</g>
<!-- S_RESIZE -->
<g id="node5" class="node">
<title>S_RESIZE</title>
<polygon fill="none" stroke="white" points="293,-80 153,-80 153,-12 293,-12 293,-80"/>
<text text-anchor="middle" x="223" y="-67.2" font-family="Cascadia Code PL" font-size="11.00" fill="cyan">4 · HANDLE RESIZE</text>
<text text-anchor="middle" x="223" y="-55.2" font-family="Cascadia Code PL" font-size="11.00" fill="cyan">─────────────────</text>
<text text-anchor="middle" x="223" y="-43.2" font-family="Cascadia Code PL" font-size="11.00" fill="cyan">Drag corner/edge handle</text>
<text text-anchor="middle" x="223" y="-31.2" font-family="Cascadia Code PL" font-size="11.00" fill="cyan">Adjust crop bounds</text>
<text text-anchor="middle" x="223" y="-19.2" font-family="Cascadia Code PL" font-size="11.00" fill="cyan">Live preview update</text>
</g>
<!-- S_DEFINED&#45;&gt;S_RESIZE -->
<g id="edge3" class="edge">
<title>S_DEFINED&#45;&gt;S_RESIZE</title>
<path fill="none" stroke="#66cc66" d="M219.99,-157.74C217.12,-152 214.65,-146 213,-140 208.61,-124.08 209.29,-106.12 211.7,-90.27"/>
<polygon fill="#66cc66" stroke="#66cc66" points="215.19,-90.65 213.5,-80.2 208.3,-89.42 215.19,-90.65"/>
<text text-anchor="middle" x="242" y="-127.8" font-family="Cascadia Code PL" font-size="9.00" fill="#aaaaaa"> &#160;B1 on handle</text>
<text text-anchor="middle" x="242" y="-117.8" font-family="Cascadia Code PL" font-size="9.00" fill="#aaaaaa"> &#160;Adjust region</text>
</g>
<!-- S_COMMIT -->
<g id="node6" class="node">
<title>S_COMMIT</title>
<polygon fill="none" stroke="white" points="134,-92 0,-92 0,0 134,0 134,-92"/>
<text text-anchor="middle" x="67" y="-79.2" font-family="Cascadia Code PL" font-size="11.00" fill="cyan">5 · COMMITTED</text>
<text text-anchor="middle" x="67" y="-67.2" font-family="Cascadia Code PL" font-size="11.00" fill="cyan">─────────────────</text>
<text text-anchor="middle" x="67" y="-55.2" font-family="Cascadia Code PL" font-size="11.00" fill="cyan">Enter pressed</text>
<text text-anchor="middle" x="67" y="-43.2" font-family="Cascadia Code PL" font-size="11.00" fill="cyan">Canvas resized to crop</text>
<text text-anchor="middle" x="67" y="-31.2" font-family="Cascadia Code PL" font-size="11.00" fill="cyan">All layers cropped</text>
<text text-anchor="middle" x="67" y="-19.2" font-family="Cascadia Code PL" font-size="11.00" fill="cyan">HISTORY_record_brush()</text>
<text text-anchor="middle" x="67" y="-7.2" font-family="Cascadia Code PL" font-size="11.00" fill="cyan">Restore previous tool</text>
</g>
<!-- S_DEFINED&#45;&gt;S_COMMIT -->
<g id="edge5" class="edge">
<title>S_DEFINED&#45;&gt;S_COMMIT</title>
<path fill="none" stroke="#cccc66" d="M183.7,-183.74C156.25,-175.21 125.54,-161.55 104,-140 93.52,-129.51 85.92,-115.69 80.44,-101.91"/>
<polygon fill="#cccc66" stroke="#cccc66" points="83.69,-100.62 76.97,-92.43 77.11,-103.02 83.69,-100.62"/>
<text text-anchor="middle" x="155" y="-132.8" font-family="Cascadia Code PL" font-size="9.00" fill="#aaaaaa"> &#160;Enter key</text>
<text text-anchor="middle" x="155" y="-122.8" font-family="Cascadia Code PL" font-size="9.00" fill="#aaaaaa"> &#160;Apply crop to all layers</text>
<text text-anchor="middle" x="155" y="-112.8" font-family="Cascadia Code PL" font-size="9.00" fill="#aaaaaa"> &#160;HISTORY_record_brush()</text>
</g>
<!-- S_CANCEL -->
<g id="node7" class="node">
<title>S_CANCEL</title>
<polygon fill="none" stroke="white" points="480.5,-86 355.5,-86 355.5,-6 480.5,-6 480.5,-86"/>
<text text-anchor="middle" x="418" y="-73.2" font-family="Cascadia Code PL" font-size="11.00" fill="cyan">6 · CANCELLED</text>
<text text-anchor="middle" x="418" y="-61.2" font-family="Cascadia Code PL" font-size="11.00" fill="cyan">─────────────────</text>
<text text-anchor="middle" x="418" y="-49.2" font-family="Cascadia Code PL" font-size="11.00" fill="cyan">Escape pressed</text>
<text text-anchor="middle" x="418" y="-37.2" font-family="Cascadia Code PL" font-size="11.00" fill="cyan">Crop overlay removed</text>
<text text-anchor="middle" x="418" y="-25.2" font-family="Cascadia Code PL" font-size="11.00" fill="cyan">Restore previous tool</text>
<text text-anchor="middle" x="418" y="-13.2" font-family="Cascadia Code PL" font-size="11.00" fill="cyan">No changes made</text>
</g>
<!-- S_DEFINED&#45;&gt;S_CANCEL -->
<g id="edge6" class="edge">
<title>S_DEFINED&#45;&gt;S_CANCEL</title>
<path fill="none" stroke="#cc6666" stroke-dasharray="5,2" d="M310.14,-166.14C322.99,-158.48 335.94,-149.67 347,-140 361.97,-126.91 375.87,-110.24 387.33,-94.64"/>
<polygon fill="#cc6666" stroke="#cc6666" points="390.46,-96.27 393.44,-86.1 384.77,-92.2 390.46,-96.27"/>
<text text-anchor="middle" x="399" y="-127.8" font-family="Cascadia Code PL" font-size="9.00" fill="#aaaaaa"> &#160;Escape key</text>
<text text-anchor="middle" x="399" y="-117.8" font-family="Cascadia Code PL" font-size="9.00" fill="#aaaaaa"> &#160;Cancel crop</text>
</g>
<!-- S_RESIZE&#45;&gt;S_DEFINED -->
<g id="edge4" class="edge">
<title>S_RESIZE&#45;&gt;S_DEFINED</title>
<path fill="none" stroke="#cccc66" d="M254.63,-80.28C261.32,-89.27 267.44,-99.45 271,-110 275.11,-122.18 274.12,-135.49 270.88,-147.96"/>
<polygon fill="#cccc66" stroke="#cccc66" points="267.46,-147.15 267.85,-157.74 274.15,-149.22 267.46,-147.15"/>
<text text-anchor="middle" x="308.5" y="-127.8" font-family="Cascadia Code PL" font-size="9.00" fill="#aaaaaa"> &#160;B1 released</text>
<text text-anchor="middle" x="308.5" y="-117.8" font-family="Cascadia Code PL" font-size="9.00" fill="#aaaaaa"> &#160;New bounds set</text>
</g>
<!-- S_COMMIT&#45;&gt;S_IDLE -->
<g id="edge7" class="edge">
<title>S_COMMIT&#45;&gt;S_IDLE</title>
<path fill="none" stroke="#cc6666" stroke-dasharray="5,2" d="M73.74,-92.43C76.01,-107.56 78.58,-124.51 81,-140 90.45,-200.5 83.27,-218.04 103,-276 118.96,-322.88 128.12,-333.08 156,-374 167.13,-390.34 180.72,-407.2 193.25,-421.79"/>
<polygon fill="#cc6666" stroke="#cc6666" points="190.88,-424.39 200.08,-429.64 196.16,-419.8 190.88,-424.39"/>
<text text-anchor="middle" x="139" y="-268.8" font-family="Cascadia Code PL" font-size="9.00" fill="#aaaaaa"> &#160;Crop applied</text>
<text text-anchor="middle" x="139" y="-258.8" font-family="Cascadia Code PL" font-size="9.00" fill="#aaaaaa"> &#160;Restore prev tool</text>
</g>
<!-- S_CANCEL&#45;&gt;S_IDLE -->
<g id="edge8" class="edge">
<title>S_CANCEL&#45;&gt;S_IDLE</title>
<path fill="none" stroke="#cc6666" stroke-dasharray="5,2" d="M428.17,-86.15C431.08,-102.85 432.61,-122.48 429,-140 402.45,-268.89 397.54,-311.99 312,-412 308.49,-416.1 304.57,-419.99 300.39,-423.64"/>
<polygon fill="#cc6666" stroke="#cc6666" points="298.17,-420.94 292.63,-429.97 302.59,-426.36 298.17,-420.94"/>
<text text-anchor="middle" x="438" y="-268.8" font-family="Cascadia Code PL" font-size="9.00" fill="#aaaaaa"> &#160;Crop cancelled</text>
<text text-anchor="middle" x="438" y="-258.8" font-family="Cascadia Code PL" font-size="9.00" fill="#aaaaaa"> &#160;Restore prev tool</text>
</g>
<!-- L1 -->
<g id="node8" class="node">
<title>L1</title>
<ellipse fill="white" stroke="white" cx="527" cy="-562" rx="0.36" ry="0.36"/>
</g>
<!-- L2 -->
<g id="node9" class="node">
<title>L2</title>
<ellipse fill="white" stroke="white" cx="527" cy="-464" rx="0.36" ry="0.36"/>
</g>
<!-- L1&#45;&gt;L2 -->
<g id="edge11" class="edge">
<title>L1&#45;&gt;L2</title>
<path fill="none" stroke="#66cc66" d="M527,-560.93C527,-558.63 527,-499.78 527,-475.42"/>
<polygon fill="#66cc66" stroke="#66cc66" points="530.5,-475.07 527,-465.07 523.5,-475.07 530.5,-475.07"/>
<text text-anchor="middle" x="557.5" y="-518.8" font-family="Cascadia Code PL" font-size="9.00" fill="#aaaaaa"> Start / Activate</text>
</g>
<!-- L3 -->
<g id="node10" class="node">
<title>L3</title>
<ellipse fill="white" stroke="white" cx="437" cy="-562" rx="0.36" ry="0.36"/>
</g>
<!-- L4 -->
<g id="node11" class="node">
<title>L4</title>
<ellipse fill="white" stroke="white" cx="437" cy="-464" rx="0.36" ry="0.36"/>
</g>
<!-- L3&#45;&gt;L4 -->
<g id="edge12" class="edge">
<title>L3&#45;&gt;L4</title>
<path fill="none" stroke="#cc6666" stroke-dasharray="5,2" d="M437,-560.93C437,-558.63 437,-499.78 437,-475.42"/>
<polygon fill="#cc6666" stroke="#cc6666" points="440.5,-475.07 437,-465.07 433.5,-475.07 440.5,-475.07"/>
<text text-anchor="middle" x="470.5" y="-518.8" font-family="Cascadia Code PL" font-size="9.00" fill="#aaaaaa"> Cancel / Restore</text>
</g>
<!-- L5 -->
<g id="node12" class="node">
<title>L5</title>
<ellipse fill="white" stroke="white" cx="349" cy="-562" rx="0.36" ry="0.36"/>
</g>
<!-- L6 -->
<g id="node13" class="node">
<title>L6</title>
<ellipse fill="white" stroke="white" cx="349" cy="-464" rx="0.36" ry="0.36"/>
</g>
<!-- L5&#45;&gt;L6 -->
<g id="edge13" class="edge">
<title>L5&#45;&gt;L6</title>
<path fill="none" stroke="#cccc66" d="M349,-560.93C349,-558.63 349,-499.78 349,-475.42"/>
<polygon fill="#cccc66" stroke="#cccc66" points="352.5,-475.07 349,-465.07 345.5,-475.07 352.5,-475.07"/>
<text text-anchor="middle" x="381.5" y="-518.8" font-family="Cascadia Code PL" font-size="9.00" fill="#aaaaaa"> Commit / Apply</text>
</g>
</g>
</svg>
