<?xml version="1.0" encoding="UTF-8" standalone="no"?>
<!DOCTYPE svg PUBLIC "-//W3C//DTD SVG 1.1//EN"
 "http://www.w3.org/Graphics/SVG/1.1/DTD/svg11.dtd">
<!-- Generated by graphviz version 2.42.4 (0)
 -->
<!-- Title: DOT_TOOL Pages: 1 -->
<svg width="1135pt" height="622pt"
 viewBox="0.00 0.00 1135.00 622.36" xmlns="http://www.w3.org/2000/svg" xmlns:xlink="http://www.w3.org/1999/xlink">
<g id="graph0" class="graph" transform="scale(1 1) rotate(0) translate(4 618.36)">
<title>DOT_TOOL</title>
<text text-anchor="middle" x="563.5" y="-591.16" font-family="Cascadia Code PL" font-size="24.00" fill="white">DOT (PSET) TOOL STATE MACHINE</text>
<g id="clust2" class="cluster">
<title>cluster_pixelperfect</title>
<polygon fill="transparent" stroke="orange" stroke-dasharray="5,2" points="344,-133.5 344,-490 553,-490 553,-133.5 344,-133.5"/>
<text text-anchor="middle" x="448.5" y="-477.2" font-family="Cascadia Code PL" font-size="11.00" fill="orange">PIXEL&#45;PERFECT MODE — Ctrl+D Toggle</text>
</g>
<g id="clust3" class="cluster">
<title>cluster_shiftline</title>
<polygon fill="transparent" stroke="orange" stroke-dasharray="5,2" points="561,-128 561,-490 761,-490 761,-128 561,-128"/>
<text text-anchor="middle" x="652" y="-477.2" font-family="Cascadia Code PL" font-size="11.00" fill="orange">SHIFT+RIGHTCLICK LINE PREVIEW</text>
</g>
<g id="clust5" class="cluster">
<title>cluster_legend</title>
<polygon fill="transparent" stroke="white" stroke-dasharray="5,2" points="769,-427.64 769,-572.36 1119,-572.36 1119,-427.64 769,-427.64"/>
<text text-anchor="middle" x="797" y="-559.56" font-family="Cascadia Code PL" font-size="11.00" fill="white">LEGEND</text>
</g>
<!-- MAIN -->
<g id="node1" class="node">
<title>MAIN</title>
<polygon fill="none" stroke="orange" stroke-width="2" points="186,-562 183,-566 162,-566 159,-562 100,-562 100,-526 186,-526 186,-562"/>
<text text-anchor="middle" x="143" y="-540.6" font-family="Cascadia Code PL" font-size="13.00" fill="orange">DOT STATES</text>
</g>
<!-- S_IDLE -->
<g id="node4" class="node">
<title>S_IDLE</title>
<polygon fill="none" stroke="white" points="228,-470 58,-470 58,-402 228,-402 228,-470"/>
<text text-anchor="middle" x="143" y="-457.2" font-family="Cascadia Code PL" font-size="11.00" fill="cyan">1 · IDLE</text>
<text text-anchor="middle" x="143" y="-445.2" font-family="Cascadia Code PL" font-size="11.00" fill="cyan">─────────────────</text>
<text text-anchor="middle" x="143" y="-433.2" font-family="Cascadia Code PL" font-size="11.00" fill="cyan">CURRENT_TOOL% = TOOL_DOT</text>
<text text-anchor="middle" x="143" y="-421.2" font-family="Cascadia Code PL" font-size="11.00" fill="cyan">No drag active</text>
<text text-anchor="middle" x="143" y="-409.2" font-family="Cascadia Code PL" font-size="11.00" fill="cyan">DOT.HAS_LAST = FALSE</text>
</g>
<!-- MAIN&#45;&gt;S_IDLE -->
<g id="edge14" class="edge">
<title>MAIN&#45;&gt;S_IDLE</title>
<path fill="none" stroke="#555555" stroke-dasharray="1,5" d="M143,-525.97C143,-510.99 143,-488.75 143,-470.25"/>
</g>
<!-- PP -->
<g id="node2" class="node">
<title>PP</title>
<polygon fill="none" stroke="orange" stroke-width="2" points="485.5,-562 482.5,-566 461.5,-566 458.5,-562 384.5,-562 384.5,-526 485.5,-526 485.5,-562"/>
<text text-anchor="middle" x="435" y="-540.6" font-family="Cascadia Code PL" font-size="13.00" fill="orange">PIXEL PERFECT</text>
</g>
<!-- PP_OFF -->
<g id="node8" class="node">
<title>PP_OFF</title>
<polygon fill="none" stroke="white" points="496,-462 374,-462 374,-410 496,-410 496,-462"/>
<text text-anchor="middle" x="435" y="-450" font-family="Cascadia Code PL" font-size="10.00" fill="cyan">Normal Mode</text>
<text text-anchor="middle" x="435" y="-439" font-family="Cascadia Code PL" font-size="10.00" fill="cyan">────────────</text>
<text text-anchor="middle" x="435" y="-428" font-family="Cascadia Code PL" font-size="10.00" fill="cyan">Standard PSET painting</text>
<text text-anchor="middle" x="435" y="-417" font-family="Cascadia Code PL" font-size="10.00" fill="cyan">No per&#45;pixel tracking</text>
</g>
<!-- PP&#45;&gt;PP_OFF -->
<g id="edge15" class="edge">
<title>PP&#45;&gt;PP_OFF</title>
<path fill="none" stroke="#555555" stroke-dasharray="1,5" d="M435,-525.97C435,-516.09 435,-503.04 435,-490"/>
</g>
<!-- LINE_F -->
<g id="node3" class="node">
<title>LINE_F</title>
<polygon fill="none" stroke="orange" stroke-width="2" points="674,-562 671,-566 650,-566 647,-562 594,-562 594,-526 674,-526 674,-562"/>
<text text-anchor="middle" x="634" y="-540.6" font-family="Cascadia Code PL" font-size="13.00" fill="orange">SHIFT LINE</text>
</g>
<!-- SL_NONE -->
<g id="node11" class="node">
<title>SL_NONE</title>
<polygon fill="none" stroke="white" points="677,-462 591,-462 591,-410 677,-410 677,-462"/>
<text text-anchor="middle" x="634" y="-450" font-family="Cascadia Code PL" font-size="10.00" fill="cyan">No Preview</text>
<text text-anchor="middle" x="634" y="-439" font-family="Cascadia Code PL" font-size="10.00" fill="cyan">────────────</text>
<text text-anchor="middle" x="634" y="-428" font-family="Cascadia Code PL" font-size="10.00" fill="cyan">Shift not held</text>
<text text-anchor="middle" x="634" y="-417" font-family="Cascadia Code PL" font-size="10.00" fill="cyan">No line preview</text>
</g>
<!-- LINE_F&#45;&gt;SL_NONE -->
<g id="edge16" class="edge">
<title>LINE_F&#45;&gt;SL_NONE</title>
<path fill="none" stroke="#555555" stroke-dasharray="1,5" d="M634,-525.97C634,-516.09 634,-503.04 634,-490"/>
</g>
<!-- S_DRAWING -->
<g id="node5" class="node">
<title>S_DRAWING</title>
<polygon fill="none" stroke="white" points="221,-346 65,-346 65,-266 221,-266 221,-346"/>
<text text-anchor="middle" x="143" y="-333.2" font-family="Cascadia Code PL" font-size="11.00" fill="cyan">2 · DRAWING</text>
<text text-anchor="middle" x="143" y="-321.2" font-family="Cascadia Code PL" font-size="11.00" fill="cyan">─────────────────</text>
<text text-anchor="middle" x="143" y="-309.2" font-family="Cascadia Code PL" font-size="11.00" fill="cyan">B1 held on canvas</text>
<text text-anchor="middle" x="143" y="-297.2" font-family="Cascadia Code PL" font-size="11.00" fill="cyan">PAINT_pset_with_symmetry()</text>
<text text-anchor="middle" x="143" y="-285.2" font-family="Cascadia Code PL" font-size="11.00" fill="cyan">Dot at each cursor position</text>
<text text-anchor="middle" x="143" y="-273.2" font-family="Cascadia Code PL" font-size="11.00" fill="cyan">DOT.LAST_X/Y updated</text>
</g>
<!-- S_IDLE&#45;&gt;S_DRAWING -->
<g id="edge1" class="edge">
<title>S_IDLE&#45;&gt;S_DRAWING</title>
<path fill="none" stroke="#66cc66" d="M143,-401.7C143,-387.86 143,-371.51 143,-356.32"/>
<polygon fill="#66cc66" stroke="#66cc66" points="146.5,-356.04 143,-346.04 139.5,-356.04 146.5,-356.04"/>
<text text-anchor="middle" x="207" y="-376.8" font-family="Cascadia Code PL" font-size="9.00" fill="#aaaaaa"> &#160;B1 press on canvas</text>
<text text-anchor="middle" x="207" y="-366.8" font-family="Cascadia Code PL" font-size="9.00" fill="#aaaaaa"> &#160;Capture HISTORY_BEFORE_IMG</text>
</g>
<!-- S_DRAWING&#45;&gt;S_DRAWING -->
<g id="edge2" class="edge">
<title>S_DRAWING&#45;&gt;S_DRAWING</title>
<path fill="none" stroke="#88aacc" d="M221.35,-317.31C231.94,-315.41 239,-311.64 239,-306 239,-302.38 236.1,-299.54 231.24,-297.46"/>
<polygon fill="#88aacc" stroke="#88aacc" points="231.92,-294.02 221.35,-294.69 230.03,-300.76 231.92,-294.02"/>
<text text-anchor="middle" x="283" y="-308.8" font-family="Cascadia Code PL" font-size="9.00" fill="#aaaaaa"> &#160;B1 held + movement</text>
<text text-anchor="middle" x="283" y="-298.8" font-family="Cascadia Code PL" font-size="9.00" fill="#aaaaaa"> &#160;PAINT_on() per frame</text>
</g>
<!-- S_COMMITTED -->
<g id="node7" class="node">
<title>S_COMMITTED</title>
<polygon fill="none" stroke="white" points="156,-207 0,-207 0,-139 156,-139 156,-207"/>
<text text-anchor="middle" x="78" y="-194.2" font-family="Cascadia Code PL" font-size="11.00" fill="cyan">4 · COMMITTED</text>
<text text-anchor="middle" x="78" y="-182.2" font-family="Cascadia Code PL" font-size="11.00" fill="cyan">─────────────────</text>
<text text-anchor="middle" x="78" y="-170.2" font-family="Cascadia Code PL" font-size="11.00" fill="cyan">B1 released</text>
<text text-anchor="middle" x="78" y="-158.2" font-family="Cascadia Code PL" font-size="11.00" fill="cyan">HISTORY_record_brush()</text>
<text text-anchor="middle" x="78" y="-146.2" font-family="Cascadia Code PL" font-size="11.00" fill="cyan">HISTORY_BEFORE_IMG saved</text>
</g>
<!-- S_DRAWING&#45;&gt;S_COMMITTED -->
<g id="edge3" class="edge">
<title>S_DRAWING&#45;&gt;S_COMMITTED</title>
<path fill="none" stroke="#cccc66" d="M89.59,-265.91C84.94,-260.41 80.91,-254.43 78,-248 73.74,-238.61 72.16,-227.83 71.98,-217.47"/>
<polygon fill="#cccc66" stroke="#cccc66" points="75.49,-217.38 72.23,-207.3 68.49,-217.21 75.49,-217.38"/>
<text text-anchor="middle" x="129" y="-240.8" font-family="Cascadia Code PL" font-size="9.00" fill="#aaaaaa"> &#160;B1 released</text>
<text text-anchor="middle" x="129" y="-230.8" font-family="Cascadia Code PL" font-size="9.00" fill="#aaaaaa"> &#160;HISTORY_record_brush()</text>
</g>
<!-- S_HAS_LAST -->
<g id="node6" class="node">
<title>S_HAS_LAST</title>
<polygon fill="none" stroke="white" points="209,-80 63,-80 63,0 209,0 209,-80"/>
<text text-anchor="middle" x="136" y="-67.2" font-family="Cascadia Code PL" font-size="11.00" fill="cyan">3 · HAS LAST</text>
<text text-anchor="middle" x="136" y="-55.2" font-family="Cascadia Code PL" font-size="11.00" fill="cyan">─────────────────</text>
<text text-anchor="middle" x="136" y="-43.2" font-family="Cascadia Code PL" font-size="11.00" fill="cyan">DOT.HAS_LAST = TRUE</text>
<text text-anchor="middle" x="136" y="-31.2" font-family="Cascadia Code PL" font-size="11.00" fill="cyan">DOT.LAST_X/Y = prev click</text>
<text text-anchor="middle" x="136" y="-19.2" font-family="Cascadia Code PL" font-size="11.00" fill="cyan">Shift+RightClick draws</text>
<text text-anchor="middle" x="136" y="-7.2" font-family="Cascadia Code PL" font-size="11.00" fill="cyan">line from LAST to cursor</text>
</g>
<!-- S_HAS_LAST&#45;&gt;S_DRAWING -->
<g id="edge5" class="edge">
<title>S_HAS_LAST&#45;&gt;S_DRAWING</title>
<path fill="none" stroke="#66cc66" d="M171.29,-80.18C174.84,-85.84 177.9,-91.85 180,-98 201.52,-161.1 198.93,-184.08 180,-248 179.12,-250.96 178.04,-253.91 176.8,-256.82"/>
<polygon fill="#66cc66" stroke="#66cc66" points="173.59,-255.42 172.38,-265.95 179.89,-258.48 173.59,-255.42"/>
<text text-anchor="middle" x="244.5" y="-175.8" font-family="Cascadia Code PL" font-size="9.00" fill="#aaaaaa"> &#160;B1 press</text>
<text text-anchor="middle" x="244.5" y="-165.8" font-family="Cascadia Code PL" font-size="9.00" fill="#aaaaaa"> &#160;New stroke from cursor</text>
</g>
<!-- S_HAS_LAST&#45;&gt;S_HAS_LAST -->
<g id="edge6" class="edge">
<title>S_HAS_LAST&#45;&gt;S_HAS_LAST</title>
<path fill="none" stroke="#88aacc" d="M209.19,-51.5C219.83,-49.68 227,-45.84 227,-40 227,-36.26 224.06,-33.34 219.15,-31.24"/>
<polygon fill="#88aacc" stroke="#88aacc" points="219.76,-27.78 209.19,-28.5 217.9,-34.53 219.76,-27.78"/>
<text text-anchor="middle" x="274.5" y="-47.8" font-family="Cascadia Code PL" font-size="9.00" fill="#aaaaaa"> &#160;Shift+B2 click</text>
<text text-anchor="middle" x="274.5" y="-37.8" font-family="Cascadia Code PL" font-size="9.00" fill="#aaaaaa"> &#160;Line from LAST to click</text>
<text text-anchor="middle" x="274.5" y="-27.8" font-family="Cascadia Code PL" font-size="9.00" fill="#aaaaaa"> &#160;LAST_X/Y updated</text>
</g>
<!-- S_COMMITTED&#45;&gt;S_HAS_LAST -->
<g id="edge4" class="edge">
<title>S_COMMITTED&#45;&gt;S_HAS_LAST</title>
<path fill="none" stroke="#6699ff" d="M82.74,-138.67C85.34,-125.61 89.24,-110.73 95,-98 96.36,-95 97.88,-92 99.53,-89.03"/>
<polygon fill="#6699ff" stroke="#6699ff" points="102.65,-90.64 104.77,-80.26 96.64,-87.05 102.65,-90.64"/>
<text text-anchor="middle" x="137.5" y="-110.8" font-family="Cascadia Code PL" font-size="9.00" fill="#aaaaaa"> &#160;LAST_X/Y = end pos</text>
<text text-anchor="middle" x="137.5" y="-100.8" font-family="Cascadia Code PL" font-size="9.00" fill="#aaaaaa"> &#160;HAS_LAST = TRUE</text>
</g>
<!-- PP_ON -->
<g id="node9" class="node">
<title>PP_ON</title>
<polygon fill="none" stroke="white" points="482,-343 360,-343 360,-269 482,-269 482,-343"/>
<text text-anchor="middle" x="421" y="-331" font-family="Cascadia Code PL" font-size="10.00" fill="cyan">Pixel Perfect Mode</text>
<text text-anchor="middle" x="421" y="-320" font-family="Cascadia Code PL" font-size="10.00" fill="cyan">────────────</text>
<text text-anchor="middle" x="421" y="-309" font-family="Cascadia Code PL" font-size="10.00" fill="cyan">PP_STROKE_COUNT &gt; 0</text>
<text text-anchor="middle" x="421" y="-298" font-family="Cascadia Code PL" font-size="10.00" fill="cyan">Each pixel tracked in</text>
<text text-anchor="middle" x="421" y="-287" font-family="Cascadia Code PL" font-size="10.00" fill="cyan">PP_STROKE() array</text>
<text text-anchor="middle" x="421" y="-276" font-family="Cascadia Code PL" font-size="10.00" fill="cyan">PP_BACKUP = full layer</text>
</g>
<!-- PP_OFF&#45;&gt;PP_ON -->
<g id="edge7" class="edge">
<title>PP_OFF&#45;&gt;PP_ON</title>
<path fill="none" stroke="#66cc66" d="M399.87,-409.8C392.23,-402.43 385.19,-393.71 381,-384 376.48,-373.51 378.14,-362.49 382.72,-352.16"/>
<polygon fill="#66cc66" stroke="#66cc66" points="385.83,-353.77 387.42,-343.29 379.65,-350.49 385.83,-353.77"/>
<text text-anchor="middle" x="413.5" y="-376.6" font-family="Cascadia Code PL" font-size="8.00" fill="#aaaaaa"> Ctrl+D toggle</text>
<text text-anchor="middle" x="413.5" y="-367.6" font-family="Cascadia Code PL" font-size="8.00" fill="#aaaaaa"> PP mode enabled</text>
</g>
<!-- PP_ON&#45;&gt;PP_OFF -->
<g id="edge9" class="edge">
<title>PP_ON&#45;&gt;PP_OFF</title>
<path fill="none" stroke="#cc6666" stroke-dasharray="5,2" d="M439.45,-343.05C442.17,-349.85 444.54,-357.02 446,-364 448.43,-375.59 447.54,-388.35 445.47,-399.81"/>
<polygon fill="#cc6666" stroke="#cc6666" points="441.98,-399.4 443.29,-409.91 448.82,-400.87 441.98,-399.4"/>
<text text-anchor="middle" x="480.5" y="-376.6" font-family="Cascadia Code PL" font-size="8.00" fill="#aaaaaa"> Ctrl+D toggle</text>
<text text-anchor="middle" x="480.5" y="-367.6" font-family="Cascadia Code PL" font-size="8.00" fill="#aaaaaa"> PP mode disabled</text>
</g>
<!-- PP_UNDO -->
<g id="node10" class="node">
<title>PP_UNDO</title>
<polygon fill="none" stroke="white" points="481.5,-204.5 360.5,-204.5 360.5,-141.5 481.5,-141.5 481.5,-204.5"/>
<text text-anchor="middle" x="421" y="-192.5" font-family="Cascadia Code PL" font-size="10.00" fill="cyan">Per&#45;Pixel Undo</text>
<text text-anchor="middle" x="421" y="-181.5" font-family="Cascadia Code PL" font-size="10.00" fill="cyan">────────────</text>
<text text-anchor="middle" x="421" y="-170.5" font-family="Cascadia Code PL" font-size="10.00" fill="cyan">Restore PP_BACKUP</text>
<text text-anchor="middle" x="421" y="-159.5" font-family="Cascadia Code PL" font-size="10.00" fill="cyan">Replay minus last pixel</text>
<text text-anchor="middle" x="421" y="-148.5" font-family="Cascadia Code PL" font-size="10.00" fill="cyan">Lossless undo per pixel</text>
</g>
<!-- PP_ON&#45;&gt;PP_UNDO -->
<g id="edge8" class="edge">
<title>PP_ON&#45;&gt;PP_UNDO</title>
<path fill="none" stroke="#cccc66" d="M421,-268.86C421,-252.17 421,-232.29 421,-215.04"/>
<polygon fill="#cccc66" stroke="#cccc66" points="424.5,-214.7 421,-204.7 417.5,-214.7 424.5,-214.7"/>
<text text-anchor="middle" x="449" y="-240.6" font-family="Cascadia Code PL" font-size="8.00" fill="#aaaaaa"> Ctrl+Z in PP</text>
<text text-anchor="middle" x="449" y="-231.6" font-family="Cascadia Code PL" font-size="8.00" fill="#aaaaaa"> Undo last pixel</text>
</g>
<!-- SL_PREVIEW -->
<g id="node12" class="node">
<title>SL_PREVIEW</title>
<polygon fill="none" stroke="white" points="710,-343 588,-343 588,-269 710,-269 710,-343"/>
<text text-anchor="middle" x="649" y="-331" font-family="Cascadia Code PL" font-size="10.00" fill="cyan">Preview Line</text>
<text text-anchor="middle" x="649" y="-320" font-family="Cascadia Code PL" font-size="10.00" fill="cyan">────────────</text>
<text text-anchor="middle" x="649" y="-309" font-family="Cascadia Code PL" font-size="10.00" fill="cyan">Shift held + HAS_LAST</text>
<text text-anchor="middle" x="649" y="-298" font-family="Cascadia Code PL" font-size="10.00" fill="cyan">White preview line from</text>
<text text-anchor="middle" x="649" y="-287" font-family="Cascadia Code PL" font-size="10.00" fill="cyan">LAST_X/Y to cursor</text>
<text text-anchor="middle" x="649" y="-276" font-family="Cascadia Code PL" font-size="10.00" fill="cyan">Updates every frame</text>
</g>
<!-- SL_NONE&#45;&gt;SL_PREVIEW -->
<g id="edge10" class="edge">
<title>SL_NONE&#45;&gt;SL_PREVIEW</title>
<path fill="none" stroke="#66cc66" d="M616.85,-409.83C609.74,-396.32 604.16,-379.33 609,-364 610.27,-359.98 611.94,-356 613.87,-352.12"/>
<polygon fill="#66cc66" stroke="#66cc66" points="616.98,-353.72 618.79,-343.28 610.87,-350.31 616.98,-353.72"/>
<text text-anchor="middle" x="632.5" y="-376.6" font-family="Cascadia Code PL" font-size="8.00" fill="#aaaaaa"> Shift held</text>
<text text-anchor="middle" x="632.5" y="-367.6" font-family="Cascadia Code PL" font-size="8.00" fill="#aaaaaa"> + HAS_LAST</text>
</g>
<!-- SL_PREVIEW&#45;&gt;SL_NONE -->
<g id="edge12" class="edge">
<title>SL_PREVIEW&#45;&gt;SL_NONE</title>
<path fill="none" stroke="#cc6666" stroke-dasharray="5,2" d="M656.65,-343.29C658.24,-356.23 658.71,-370.85 656,-384 654.87,-389.49 653.11,-395.11 651.08,-400.53"/>
<polygon fill="#cc6666" stroke="#cc6666" points="647.76,-399.4 647.19,-409.98 654.23,-402.07 647.76,-399.4"/>
<text text-anchor="middle" x="683" y="-372.1" font-family="Cascadia Code PL" font-size="8.00" fill="#aaaaaa"> Shift released</text>
</g>
<!-- SL_DRAW -->
<g id="node13" class="node">
<title>SL_DRAW</title>
<polygon fill="none" stroke="white" points="720.5,-210 585.5,-210 585.5,-136 720.5,-136 720.5,-210"/>
<text text-anchor="middle" x="653" y="-198" font-family="Cascadia Code PL" font-size="10.00" fill="cyan">Line Drawn</text>
<text text-anchor="middle" x="653" y="-187" font-family="Cascadia Code PL" font-size="10.00" fill="cyan">────────────</text>
<text text-anchor="middle" x="653" y="-176" font-family="Cascadia Code PL" font-size="10.00" fill="cyan">Shift+B2 click</text>
<text text-anchor="middle" x="653" y="-165" font-family="Cascadia Code PL" font-size="10.00" fill="cyan">Line committed from</text>
<text text-anchor="middle" x="653" y="-154" font-family="Cascadia Code PL" font-size="10.00" fill="cyan">LAST to click point</text>
<text text-anchor="middle" x="653" y="-143" font-family="Cascadia Code PL" font-size="10.00" fill="cyan">LAST updated to endpoint</text>
</g>
<!-- SL_PREVIEW&#45;&gt;SL_DRAW -->
<g id="edge11" class="edge">
<title>SL_PREVIEW&#45;&gt;SL_DRAW</title>
<path fill="none" stroke="#cccc66" d="M598.45,-268.96C587.6,-256.75 581.19,-242.51 588,-228 589.62,-224.54 591.59,-221.23 593.81,-218.07"/>
<polygon fill="#cccc66" stroke="#cccc66" points="596.7,-220.05 600.22,-210.06 591.24,-215.68 596.7,-220.05"/>
<text text-anchor="middle" x="617.5" y="-240.6" font-family="Cascadia Code PL" font-size="8.00" fill="#aaaaaa"> Shift+B2 click</text>
<text text-anchor="middle" x="617.5" y="-231.6" font-family="Cascadia Code PL" font-size="8.00" fill="#aaaaaa"> Line committed</text>
</g>
<!-- SL_DRAW&#45;&gt;SL_PREVIEW -->
<g id="edge13" class="edge">
<title>SL_DRAW&#45;&gt;SL_PREVIEW</title>
<path fill="none" stroke="#6699ff" d="M651.9,-210.03C651.44,-225.05 650.9,-242.68 650.42,-258.65"/>
<polygon fill="#6699ff" stroke="#6699ff" points="646.91,-258.75 650.1,-268.86 653.91,-258.97 646.91,-258.75"/>
<text text-anchor="middle" x="693" y="-240.6" font-family="Cascadia Code PL" font-size="8.00" fill="#aaaaaa"> Still holding Shift</text>
<text text-anchor="middle" x="693" y="-231.6" font-family="Cascadia Code PL" font-size="8.00" fill="#aaaaaa"> New preview from last</text>
</g>
<!-- L1 -->
<g id="node14" class="node">
<title>L1</title>
<ellipse fill="white" stroke="white" cx="1047" cy="-544" rx="0.36" ry="0.36"/>
</g>
<!-- L2 -->
<g id="node15" class="node">
<title>L2</title>
<ellipse fill="white" stroke="white" cx="1047" cy="-436" rx="0.36" ry="0.36"/>
</g>
<!-- L1&#45;&gt;L2 -->
<g id="edge17" class="edge">
<title>L1&#45;&gt;L2</title>
<path fill="none" stroke="#66cc66" d="M1047,-542.92C1047,-540.34 1047,-473.5 1047,-447.35"/>
<polygon fill="#66cc66" stroke="#66cc66" points="1050.5,-447.07 1047,-437.07 1043.5,-447.07 1050.5,-447.07"/>
<text text-anchor="middle" x="1079" y="-500.8" font-family="Cascadia Code PL" font-size="9.00" fill="#aaaaaa"> Activate / Draw</text>
</g>
<!-- L3 -->
<g id="node16" class="node">
<title>L3</title>
<ellipse fill="white" stroke="white" cx="980" cy="-544" rx="0.36" ry="0.36"/>
</g>
<!-- L4 -->
<g id="node17" class="node">
<title>L4</title>
<ellipse fill="white" stroke="white" cx="980" cy="-436" rx="0.36" ry="0.36"/>
</g>
<!-- L3&#45;&gt;L4 -->
<g id="edge18" class="edge">
<title>L3&#45;&gt;L4</title>
<path fill="none" stroke="#cc6666" stroke-dasharray="5,2" d="M980,-542.92C980,-540.34 980,-473.5 980,-447.35"/>
<polygon fill="#cc6666" stroke="#cc6666" points="983.5,-447.07 980,-437.07 976.5,-447.07 983.5,-447.07"/>
<text text-anchor="middle" x="1002" y="-500.8" font-family="Cascadia Code PL" font-size="9.00" fill="#aaaaaa"> Deactivate</text>
</g>
<!-- L5 -->
<g id="node18" class="node">
<title>L5</title>
<ellipse fill="white" stroke="white" cx="887" cy="-544" rx="0.36" ry="0.36"/>
</g>
<!-- L6 -->
<g id="node19" class="node">
<title>L6</title>
<ellipse fill="white" stroke="white" cx="887" cy="-436" rx="0.36" ry="0.36"/>
</g>
<!-- L5&#45;&gt;L6 -->
<g id="edge19" class="edge">
<title>L5&#45;&gt;L6</title>
<path fill="none" stroke="#cccc66" d="M887,-542.92C887,-540.34 887,-473.5 887,-447.35"/>
<polygon fill="#cccc66" stroke="#cccc66" points="890.5,-447.07 887,-437.07 883.5,-447.07 890.5,-447.07"/>
<text text-anchor="middle" x="922" y="-500.8" font-family="Cascadia Code PL" font-size="9.00" fill="#aaaaaa"> Commit / History</text>
</g>
<!-- L7 -->
<g id="node20" class="node">
<title>L7</title>
<ellipse fill="white" stroke="white" cx="795" cy="-544" rx="0.36" ry="0.36"/>
</g>
<!-- L8 -->
<g id="node21" class="node">
<title>L8</title>
<ellipse fill="white" stroke="white" cx="795" cy="-436" rx="0.36" ry="0.36"/>
</g>
<!-- L7&#45;&gt;L8 -->
<g id="edge20" class="edge">
<title>L7&#45;&gt;L8</title>
<path fill="none" stroke="#6699ff" d="M795,-542.92C795,-540.34 795,-473.5 795,-447.35"/>
<polygon fill="#6699ff" stroke="#6699ff" points="798.5,-447.07 795,-437.07 791.5,-447.07 798.5,-447.07"/>
<text text-anchor="middle" x="829.5" y="-500.8" font-family="Cascadia Code PL" font-size="9.00" fill="#aaaaaa"> Ready / Re&#45;enter</text>
</g>
</g>
</svg>
