<?xml version="1.0" encoding="UTF-8" standalone="no"?>
<!DOCTYPE svg PUBLIC "-//W3C//DTD SVG 1.1//EN"
 "http://www.w3.org/Graphics/SVG/1.1/DTD/svg11.dtd">
<!-- Generated by graphviz version 2.42.4 (0)
 -->
<!-- Title: ELLIPSE_TOOL Pages: 1 -->
<svg width="1312pt" height="573pt"
 viewBox="0.00 0.00 1312.00 573.00" xmlns="http://www.w3.org/2000/svg" xmlns:xlink="http://www.w3.org/1999/xlink">
<g id="graph0" class="graph" transform="scale(1 1) rotate(0) translate(4 569)">
<title>ELLIPSE_TOOL</title>
<text text-anchor="middle" x="652" y="-541.8" font-family="Cascadia Code PL" font-size="24.00" fill="white">ELLIPSE / FILLED ELLIPSE TOOL STATE MACHINE</text>
<g id="clust2" class="cluster">
<title>cluster_modes</title>
<polygon fill="transparent" stroke="orange" stroke-dasharray="5,2" points="772,-286 772,-523 986,-523 986,-286 772,-286"/>
<text text-anchor="middle" x="818" y="-510.2" font-family="Cascadia Code PL" font-size="11.00" fill="orange">ELLIPSE MODES</text>
</g>
<g id="clust3" class="cluster">
<title>cluster_mods</title>
<polygon fill="transparent" stroke="orange" stroke-dasharray="5,2" points="422,-8 422,-385 764,-385 764,-8 422,-8"/>
<text text-anchor="middle" x="474.5" y="-372.2" font-family="Cascadia Code PL" font-size="11.00" fill="orange">DRAW MODIFIERS</text>
</g>
<g id="clust5" class="cluster">
<title>cluster_legend</title>
<polygon fill="transparent" stroke="white" stroke-dasharray="5,2" points="994,-322.64 994,-486.36 1296,-486.36 1296,-322.64 994,-322.64"/>
<text text-anchor="middle" x="1022" y="-473.56" font-family="Cascadia Code PL" font-size="11.00" fill="white">LEGEND</text>
</g>
<!-- MAIN -->
<g id="node1" class="node">
<title>MAIN</title>
<polygon fill="none" stroke="orange" stroke-width="2" points="336,-476 333,-480 312,-480 309,-476 232,-476 232,-440 336,-440 336,-476"/>
<text text-anchor="middle" x="284" y="-454.6" font-family="Cascadia Code PL" font-size="13.00" fill="orange">ELLIPSE STATES</text>
</g>
<!-- S_IDLE -->
<g id="node3" class="node">
<title>S_IDLE</title>
<polygon fill="none" stroke="white" points="375.5,-359 192.5,-359 192.5,-303 375.5,-303 375.5,-359"/>
<text text-anchor="middle" x="284" y="-346.2" font-family="Cascadia Code PL" font-size="11.00" fill="cyan">1 · IDLE</text>
<text text-anchor="middle" x="284" y="-334.2" font-family="Cascadia Code PL" font-size="11.00" fill="cyan">─────────────────</text>
<text text-anchor="middle" x="284" y="-322.2" font-family="Cascadia Code PL" font-size="11.00" fill="cyan">ELLIPSE_TOOL.DRAGGING = FALSE</text>
<text text-anchor="middle" x="284" y="-310.2" font-family="Cascadia Code PL" font-size="11.00" fill="cyan">Cursor: crosshair</text>
</g>
<!-- MAIN&#45;&gt;S_IDLE -->
<g id="edge12" class="edge">
<title>MAIN&#45;&gt;S_IDLE</title>
<path fill="none" stroke="#555555" stroke-dasharray="1,5" d="M284,-439.88C284,-419.15 284,-383.98 284,-359.45"/>
</g>
<!-- MODS -->
<g id="node2" class="node">
<title>MODS</title>
<polygon fill="none" stroke="orange" stroke-width="2" points="658,-476 655,-480 634,-480 631,-476 576,-476 576,-440 658,-440 658,-476"/>
<text text-anchor="middle" x="617" y="-454.6" font-family="Cascadia Code PL" font-size="13.00" fill="orange">MODIFIERS</text>
</g>
<!-- M_FREE -->
<g id="node8" class="node">
<title>M_FREE</title>
<polygon fill="none" stroke="white" points="664.5,-357 569.5,-357 569.5,-305 664.5,-305 664.5,-357"/>
<text text-anchor="middle" x="617" y="-345" font-family="Cascadia Code PL" font-size="10.00" fill="cyan">Free Form</text>
<text text-anchor="middle" x="617" y="-334" font-family="Cascadia Code PL" font-size="10.00" fill="cyan">────────────</text>
<text text-anchor="middle" x="617" y="-323" font-family="Cascadia Code PL" font-size="10.00" fill="cyan">Any ellipse shape</text>
<text text-anchor="middle" x="617" y="-312" font-family="Cascadia Code PL" font-size="10.00" fill="cyan">Variable radii</text>
</g>
<!-- MODS&#45;&gt;M_FREE -->
<g id="edge13" class="edge">
<title>MODS&#45;&gt;M_FREE</title>
<path fill="none" stroke="#555555" stroke-dasharray="1,5" d="M617,-439.88C617,-425.68 617,-404.69 617,-385"/>
</g>
<!-- S_DRAGGING -->
<g id="node4" class="node">
<title>S_DRAGGING</title>
<polygon fill="none" stroke="white" points="180,-228 0,-228 0,-148 180,-148 180,-228"/>
<text text-anchor="middle" x="90" y="-215.2" font-family="Cascadia Code PL" font-size="11.00" fill="cyan">2 · DRAGGING</text>
<text text-anchor="middle" x="90" y="-203.2" font-family="Cascadia Code PL" font-size="11.00" fill="cyan">─────────────────</text>
<text text-anchor="middle" x="90" y="-191.2" font-family="Cascadia Code PL" font-size="11.00" fill="cyan">ELLIPSE_TOOL.DRAGGING = TRUE</text>
<text text-anchor="middle" x="90" y="-179.2" font-family="Cascadia Code PL" font-size="11.00" fill="cyan">Preview ellipse rendered</text>
<text text-anchor="middle" x="90" y="-167.2" font-family="Cascadia Code PL" font-size="11.00" fill="cyan">CIRCLE instruction</text>
<text text-anchor="middle" x="90" y="-155.2" font-family="Cascadia Code PL" font-size="11.00" fill="cyan">START_X/Y to END_X/Y</text>
</g>
<!-- S_IDLE&#45;&gt;S_DRAGGING -->
<g id="edge1" class="edge">
<title>S_IDLE&#45;&gt;S_DRAGGING</title>
<path fill="none" stroke="#66cc66" d="M246.59,-302.81C219.81,-283.35 183.13,-256.69 152,-234.06"/>
<polygon fill="#66cc66" stroke="#66cc66" points="153.95,-231.15 143.8,-228.1 149.83,-236.81 153.95,-231.15"/>
<text text-anchor="middle" x="246" y="-268.8" font-family="Cascadia Code PL" font-size="9.00" fill="#aaaaaa"> &#160;B1 press on canvas</text>
<text text-anchor="middle" x="246" y="-258.8" font-family="Cascadia Code PL" font-size="9.00" fill="#aaaaaa"> &#160;START_X/Y = cursor</text>
<text text-anchor="middle" x="246" y="-248.8" font-family="Cascadia Code PL" font-size="9.00" fill="#aaaaaa"> &#160;DRAGGING = TRUE</text>
</g>
<!-- S_DRAGGING&#45;&gt;S_DRAGGING -->
<g id="edge2" class="edge">
<title>S_DRAGGING&#45;&gt;S_DRAGGING</title>
<path fill="none" stroke="#88aacc" d="M180.2,-199.6C190.97,-197.49 198,-193.62 198,-188 198,-184.31 194.97,-181.37 189.85,-179.2"/>
<polygon fill="#88aacc" stroke="#88aacc" points="190.78,-175.82 180.2,-176.4 188.83,-182.55 190.78,-175.82"/>
<text text-anchor="middle" x="252.5" y="-195.8" font-family="Cascadia Code PL" font-size="9.00" fill="#aaaaaa"> &#160;B1 held + movement</text>
<text text-anchor="middle" x="252.5" y="-185.8" font-family="Cascadia Code PL" font-size="9.00" fill="#aaaaaa"> &#160;Update END_X/Y</text>
<text text-anchor="middle" x="252.5" y="-175.8" font-family="Cascadia Code PL" font-size="9.00" fill="#aaaaaa"> &#160;Preview ellipse each frame</text>
</g>
<!-- S_COMMITTED -->
<g id="node5" class="node">
<title>S_COMMITTED</title>
<polygon fill="none" stroke="white" points="283,-82 149,-82 149,-2 283,-2 283,-82"/>
<text text-anchor="middle" x="216" y="-69.2" font-family="Cascadia Code PL" font-size="11.00" fill="cyan">3 · COMMITTED</text>
<text text-anchor="middle" x="216" y="-57.2" font-family="Cascadia Code PL" font-size="11.00" fill="cyan">─────────────────</text>
<text text-anchor="middle" x="216" y="-45.2" font-family="Cascadia Code PL" font-size="11.00" fill="cyan">B1 released</text>
<text text-anchor="middle" x="216" y="-33.2" font-family="Cascadia Code PL" font-size="11.00" fill="cyan">Ellipse drawn to layer</text>
<text text-anchor="middle" x="216" y="-21.2" font-family="Cascadia Code PL" font-size="11.00" fill="cyan">HISTORY_record_brush()</text>
<text text-anchor="middle" x="216" y="-9.2" font-family="Cascadia Code PL" font-size="11.00" fill="cyan">DRAGGING = FALSE</text>
</g>
<!-- S_DRAGGING&#45;&gt;S_COMMITTED -->
<g id="edge3" class="edge">
<title>S_DRAGGING&#45;&gt;S_COMMITTED</title>
<path fill="none" stroke="#cccc66" d="M124.43,-147.65C139.99,-129.87 158.49,-108.72 174.78,-90.11"/>
<polygon fill="#cccc66" stroke="#cccc66" points="177.66,-92.13 181.61,-82.3 172.39,-87.52 177.66,-92.13"/>
<text text-anchor="middle" x="216" y="-122.8" font-family="Cascadia Code PL" font-size="9.00" fill="#aaaaaa"> &#160;B1 released</text>
<text text-anchor="middle" x="216" y="-112.8" font-family="Cascadia Code PL" font-size="9.00" fill="#aaaaaa"> &#160;Commit to layer</text>
<text text-anchor="middle" x="216" y="-102.8" font-family="Cascadia Code PL" font-size="9.00" fill="#aaaaaa"> &#160;HISTORY_record_brush()</text>
</g>
<!-- S_COMMITTED&#45;&gt;S_IDLE -->
<g id="edge4" class="edge">
<title>S_COMMITTED&#45;&gt;S_IDLE</title>
<path fill="none" stroke="#6699ff" d="M267.33,-82.11C286.46,-99.87 305.96,-122.6 316,-148 335.01,-196.06 317.42,-255.71 301.77,-293.33"/>
<polygon fill="#6699ff" stroke="#6699ff" points="298.4,-292.29 297.64,-302.86 304.83,-295.07 298.4,-292.29"/>
<text text-anchor="middle" x="349.5" y="-190.8" font-family="Cascadia Code PL" font-size="9.00" fill="#aaaaaa"> &#160;Ready for</text>
<text text-anchor="middle" x="349.5" y="-180.8" font-family="Cascadia Code PL" font-size="9.00" fill="#aaaaaa"> &#160;next ellipse</text>
</g>
<!-- EM_OUTLINE -->
<g id="node6" class="node">
<title>EM_OUTLINE</title>
<polygon fill="none" stroke="white" points="965,-495 793,-495 793,-421 965,-421 965,-495"/>
<text text-anchor="middle" x="879" y="-483" font-family="Cascadia Code PL" font-size="10.00" fill="cyan">Outline</text>
<text text-anchor="middle" x="879" y="-472" font-family="Cascadia Code PL" font-size="10.00" fill="cyan">────────────</text>
<text text-anchor="middle" x="879" y="-461" font-family="Cascadia Code PL" font-size="10.00" fill="cyan">FILLED = FALSE</text>
<text text-anchor="middle" x="879" y="-450" font-family="Cascadia Code PL" font-size="10.00" fill="cyan">CURRENT_TOOL% = TOOL_ELLIPSE</text>
<text text-anchor="middle" x="879" y="-439" font-family="Cascadia Code PL" font-size="10.00" fill="cyan">Draw border only</text>
<text text-anchor="middle" x="879" y="-428" font-family="Cascadia Code PL" font-size="10.00" fill="cyan">CIRCLE step</text>
</g>
<!-- EM_FILLED -->
<g id="node7" class="node">
<title>EM_FILLED</title>
<polygon fill="none" stroke="white" points="976,-368 782,-368 782,-294 976,-294 976,-368"/>
<text text-anchor="middle" x="879" y="-356" font-family="Cascadia Code PL" font-size="10.00" fill="cyan">Filled</text>
<text text-anchor="middle" x="879" y="-345" font-family="Cascadia Code PL" font-size="10.00" fill="cyan">────────────</text>
<text text-anchor="middle" x="879" y="-334" font-family="Cascadia Code PL" font-size="10.00" fill="cyan">FILLED = TRUE</text>
<text text-anchor="middle" x="879" y="-323" font-family="Cascadia Code PL" font-size="10.00" fill="cyan">CURRENT_TOOL% = TOOL_ELLIPSE_FILL</text>
<text text-anchor="middle" x="879" y="-312" font-family="Cascadia Code PL" font-size="10.00" fill="cyan">Fill + border</text>
<text text-anchor="middle" x="879" y="-301" font-family="Cascadia Code PL" font-size="10.00" fill="cyan">Scanline fill</text>
</g>
<!-- EM_OUTLINE&#45;&gt;EM_FILLED -->
<g id="edge5" class="edge">
<title>EM_OUTLINE&#45;&gt;EM_FILLED</title>
<path fill="none" stroke="#6699ff" d="M812.76,-420.99C807.31,-415.64 802.54,-409.66 799,-403 793.84,-393.28 795.35,-384.26 800.72,-376.13"/>
<polygon fill="#6699ff" stroke="#6699ff" points="803.54,-378.22 807.28,-368.31 798.17,-373.73 803.54,-378.22"/>
<text text-anchor="middle" x="842.5" y="-396.1" font-family="Cascadia Code PL" font-size="8.00" fill="#aaaaaa"> Select ELLIPSE_FILL tool</text>
</g>
<!-- EM_FILLED&#45;&gt;EM_OUTLINE -->
<g id="edge6" class="edge">
<title>EM_FILLED&#45;&gt;EM_OUTLINE</title>
<path fill="none" stroke="#6699ff" d="M884.84,-368.08C886.04,-379.26 886.73,-391.63 886,-403 885.84,-405.52 885.63,-408.1 885.4,-410.7"/>
<polygon fill="#6699ff" stroke="#6699ff" points="881.9,-410.45 884.35,-420.75 888.87,-411.17 881.9,-410.45"/>
<text text-anchor="middle" x="921" y="-396.1" font-family="Cascadia Code PL" font-size="8.00" fill="#aaaaaa"> Select ELLIPSE tool</text>
</g>
<!-- M_CIRCLE -->
<g id="node9" class="node">
<title>M_CIRCLE</title>
<polygon fill="none" stroke="white" points="535.5,-214 430.5,-214 430.5,-162 535.5,-162 535.5,-214"/>
<text text-anchor="middle" x="483" y="-202" font-family="Cascadia Code PL" font-size="10.00" fill="cyan">Shift → Circle</text>
<text text-anchor="middle" x="483" y="-191" font-family="Cascadia Code PL" font-size="10.00" fill="cyan">────────────</text>
<text text-anchor="middle" x="483" y="-180" font-family="Cascadia Code PL" font-size="10.00" fill="cyan">radius_X = radius_Y</text>
<text text-anchor="middle" x="483" y="-169" font-family="Cascadia Code PL" font-size="10.00" fill="cyan">Force perfect circle</text>
</g>
<!-- M_FREE&#45;&gt;M_CIRCLE -->
<g id="edge7" class="edge">
<title>M_FREE&#45;&gt;M_CIRCLE</title>
<path fill="none" stroke="#66cc66" d="M593.04,-304.79C571.08,-281.68 538.4,-247.3 514.36,-222"/>
<polygon fill="#66cc66" stroke="#66cc66" points="516.63,-219.3 507.2,-214.47 511.55,-224.12 516.63,-219.3"/>
<text text-anchor="middle" x="571.5" y="-259.1" font-family="Cascadia Code PL" font-size="8.00" fill="#aaaaaa"> Shift</text>
</g>
<!-- M_CENTER -->
<g id="node10" class="node">
<title>M_CENTER</title>
<polygon fill="none" stroke="white" points="680,-219.5 554,-219.5 554,-156.5 680,-156.5 680,-219.5"/>
<text text-anchor="middle" x="617" y="-207.5" font-family="Cascadia Code PL" font-size="10.00" fill="cyan">Ctrl → From Center</text>
<text text-anchor="middle" x="617" y="-196.5" font-family="Cascadia Code PL" font-size="10.00" fill="cyan">────────────</text>
<text text-anchor="middle" x="617" y="-185.5" font-family="Cascadia Code PL" font-size="10.00" fill="cyan">CENTER_X/Y = START</text>
<text text-anchor="middle" x="617" y="-174.5" font-family="Cascadia Code PL" font-size="10.00" fill="cyan">Ellipse expands outward</text>
<text text-anchor="middle" x="617" y="-163.5" font-family="Cascadia Code PL" font-size="10.00" fill="cyan">around click point</text>
</g>
<!-- M_FREE&#45;&gt;M_CENTER -->
<g id="edge8" class="edge">
<title>M_FREE&#45;&gt;M_CENTER</title>
<path fill="none" stroke="#66cc66" d="M617,-304.79C617,-284.02 617,-254.16 617,-229.96"/>
<polygon fill="#66cc66" stroke="#66cc66" points="620.5,-229.64 617,-219.64 613.5,-229.64 620.5,-229.64"/>
<text text-anchor="middle" x="625" y="-259.1" font-family="Cascadia Code PL" font-size="8.00" fill="#aaaaaa"> Ctrl</text>
</g>
<!-- M_BOTH -->
<g id="node11" class="node">
<title>M_BOTH</title>
<polygon fill="none" stroke="white" points="664.5,-68 569.5,-68 569.5,-16 664.5,-16 664.5,-68"/>
<text text-anchor="middle" x="617" y="-56" font-family="Cascadia Code PL" font-size="10.00" fill="cyan">Ctrl+Shift</text>
<text text-anchor="middle" x="617" y="-45" font-family="Cascadia Code PL" font-size="10.00" fill="cyan">────────────</text>
<text text-anchor="middle" x="617" y="-34" font-family="Cascadia Code PL" font-size="10.00" fill="cyan">Circle from center</text>
<text text-anchor="middle" x="617" y="-23" font-family="Cascadia Code PL" font-size="10.00" fill="cyan">Both constraints</text>
</g>
<!-- M_CIRCLE&#45;&gt;M_BOTH -->
<g id="edge9" class="edge">
<title>M_CIRCLE&#45;&gt;M_BOTH</title>
<path fill="none" stroke="#66cc66" d="M506.34,-161.92C528.59,-138.01 562.21,-101.87 586.56,-75.71"/>
<polygon fill="#66cc66" stroke="#66cc66" points="589.23,-77.98 593.48,-68.28 584.1,-73.22 589.23,-77.98"/>
<text text-anchor="middle" x="573" y="-113.1" font-family="Cascadia Code PL" font-size="8.00" fill="#aaaaaa"> +Ctrl</text>
</g>
<!-- M_CENTER&#45;&gt;M_BOTH -->
<g id="edge10" class="edge">
<title>M_CENTER&#45;&gt;M_BOTH</title>
<path fill="none" stroke="#66cc66" d="M617,-156.46C617,-133.59 617,-102.26 617,-78.31"/>
<polygon fill="#66cc66" stroke="#66cc66" points="620.5,-78.22 617,-68.22 613.5,-78.22 620.5,-78.22"/>
<text text-anchor="middle" x="629.5" y="-113.1" font-family="Cascadia Code PL" font-size="8.00" fill="#aaaaaa"> +Shift</text>
</g>
<!-- M_BOTH&#45;&gt;M_FREE -->
<g id="edge11" class="edge">
<title>M_BOTH&#45;&gt;M_FREE</title>
<path fill="none" stroke="#cc6666" stroke-dasharray="5,2" d="M640.87,-68.25C657.97,-88.18 679.58,-117.6 689,-148 699.53,-181.96 699.76,-194.11 689,-228 680.85,-253.67 663.65,-278.45 648.11,-297.16"/>
<polygon fill="#cc6666" stroke="#cc6666" points="645.42,-294.91 641.58,-304.79 650.74,-299.46 645.42,-294.91"/>
<text text-anchor="middle" x="716" y="-186.1" font-family="Cascadia Code PL" font-size="8.00" fill="#aaaaaa"> Release all</text>
</g>
<!-- L1 -->
<g id="node12" class="node">
<title>L1</title>
<ellipse fill="white" stroke="white" cx="1224" cy="-458" rx="0.36" ry="0.36"/>
</g>
<!-- L2 -->
<g id="node13" class="node">
<title>L2</title>
<ellipse fill="white" stroke="white" cx="1224" cy="-331" rx="0.36" ry="0.36"/>
</g>
<!-- L1&#45;&gt;L2 -->
<g id="edge14" class="edge">
<title>L1&#45;&gt;L2</title>
<path fill="none" stroke="#66cc66" d="M1224,-456.91C1224,-453.81 1224,-372 1224,-342.49"/>
<polygon fill="#66cc66" stroke="#66cc66" points="1227.5,-342.09 1224,-332.09 1220.5,-342.09 1227.5,-342.09"/>
<text text-anchor="middle" x="1256" y="-395.8" font-family="Cascadia Code PL" font-size="9.00" fill="#aaaaaa"> Activate / Draw</text>
</g>
<!-- L3 -->
<g id="node14" class="node">
<title>L3</title>
<ellipse fill="white" stroke="white" cx="1126" cy="-458" rx="0.36" ry="0.36"/>
</g>
<!-- L4 -->
<g id="node15" class="node">
<title>L4</title>
<ellipse fill="white" stroke="white" cx="1126" cy="-331" rx="0.36" ry="0.36"/>
</g>
<!-- L3&#45;&gt;L4 -->
<g id="edge15" class="edge">
<title>L3&#45;&gt;L4</title>
<path fill="none" stroke="#cccc66" d="M1126,-456.91C1126,-453.81 1126,-372 1126,-342.49"/>
<polygon fill="#cccc66" stroke="#cccc66" points="1129.5,-342.09 1126,-332.09 1122.5,-342.09 1129.5,-342.09"/>
<text text-anchor="middle" x="1163.5" y="-395.8" font-family="Cascadia Code PL" font-size="9.00" fill="#aaaaaa"> Commit to History</text>
</g>
<!-- L5 -->
<g id="node16" class="node">
<title>L5</title>
<ellipse fill="white" stroke="white" cx="1020" cy="-458" rx="0.36" ry="0.36"/>
</g>
<!-- L6 -->
<g id="node17" class="node">
<title>L6</title>
<ellipse fill="white" stroke="white" cx="1020" cy="-331" rx="0.36" ry="0.36"/>
</g>
<!-- L5&#45;&gt;L6 -->
<g id="edge16" class="edge">
<title>L5&#45;&gt;L6</title>
<path fill="none" stroke="#6699ff" d="M1020,-456.91C1020,-453.81 1020,-372 1020,-342.49"/>
<polygon fill="#6699ff" stroke="#6699ff" points="1023.5,-342.09 1020,-332.09 1016.5,-342.09 1023.5,-342.09"/>
<text text-anchor="middle" x="1061.5" y="-395.8" font-family="Cascadia Code PL" font-size="9.00" fill="#aaaaaa"> Reset / Mode Switch</text>
</g>
</g>
</svg>
