<?xml version="1.0" encoding="UTF-8" standalone="no"?>
<!DOCTYPE svg PUBLIC "-//W3C//DTD SVG 1.1//EN"
 "http://www.w3.org/Graphics/SVG/1.1/DTD/svg11.dtd">
<!-- Generated by graphviz version 2.42.4 (0)
 -->
<!-- Title: ERASER_TOOL Pages: 1 -->
<svg width="1227pt" height="616pt"
 viewBox="0.00 0.00 1227.00 615.86" xmlns="http://www.w3.org/2000/svg" xmlns:xlink="http://www.w3.org/1999/xlink">
<g id="graph0" class="graph" transform="scale(1 1) rotate(0) translate(4 611.86)">
<title>ERASER_TOOL</title>
<text text-anchor="middle" x="609.5" y="-584.66" font-family="Cascadia Code PL" font-size="24.00" fill="white">ERASER TOOL STATE MACHINE</text>
<g id="clust5" class="cluster">
<title>cluster_legend</title>
<polygon fill="transparent" stroke="white" stroke-dasharray="5,2" points="835,-415.64 835,-565.86 1211,-565.86 1211,-415.64 835,-415.64"/>
<text text-anchor="middle" x="863" y="-553.06" font-family="Cascadia Code PL" font-size="11.00" fill="white">LEGEND</text>
</g>
<g id="clust2" class="cluster">
<title>cluster_smart</title>
<polygon fill="transparent" stroke="orange" stroke-dasharray="5,2" points="441,-124.5 441,-478 633,-478 633,-124.5 441,-124.5"/>
<text text-anchor="middle" x="519.5" y="-465.2" font-family="Cascadia Code PL" font-size="11.00" fill="orange">SMART ERASE — Multi&#45;Layer</text>
</g>
<g id="clust3" class="cluster">
<title>cluster_modes</title>
<polygon fill="transparent" stroke="orange" stroke-dasharray="5,2" points="641,-257.5 641,-483.5 827,-483.5 827,-257.5 641,-257.5"/>
<text text-anchor="middle" x="715" y="-470.7" font-family="Cascadia Code PL" font-size="11.00" fill="orange">ERASE RENDERING MODES</text>
</g>
<!-- MAIN -->
<g id="node1" class="node">
<title>MAIN</title>
<polygon fill="none" stroke="orange" stroke-width="2" points="384,-555.5 381,-559.5 360,-559.5 357,-555.5 280,-555.5 280,-519.5 384,-519.5 384,-555.5"/>
<text text-anchor="middle" x="332" y="-534.1" font-family="Cascadia Code PL" font-size="13.00" fill="orange">ERASER STATES</text>
</g>
<!-- S_INACTIVE -->
<g id="node4" class="node">
<title>S_INACTIVE</title>
<polygon fill="none" stroke="white" points="402,-458 262,-458 262,-390 402,-390 402,-458"/>
<text text-anchor="middle" x="332" y="-445.2" font-family="Cascadia Code PL" font-size="11.00" fill="cyan">1 · INACTIVE</text>
<text text-anchor="middle" x="332" y="-433.2" font-family="Cascadia Code PL" font-size="11.00" fill="cyan">─────────────────</text>
<text text-anchor="middle" x="332" y="-421.2" font-family="Cascadia Code PL" font-size="11.00" fill="cyan">ERASER.ACTIVE = FALSE</text>
<text text-anchor="middle" x="332" y="-409.2" font-family="Cascadia Code PL" font-size="11.00" fill="cyan">Normal brush painting</text>
<text text-anchor="middle" x="332" y="-397.2" font-family="Cascadia Code PL" font-size="11.00" fill="cyan">PAINT_COLOR~&amp; is solid</text>
</g>
<!-- MAIN&#45;&gt;S_INACTIVE -->
<g id="edge12" class="edge">
<title>MAIN&#45;&gt;S_INACTIVE</title>
<path fill="none" stroke="#555555" stroke-dasharray="1,5" d="M332,-519.08C332,-502.79 332,-478.03 332,-458"/>
</g>
<!-- SMART -->
<g id="node2" class="node">
<title>SMART</title>
<polygon fill="none" stroke="orange" stroke-width="2" points="586,-555.5 583,-559.5 562,-559.5 559,-555.5 488,-555.5 488,-519.5 586,-519.5 586,-555.5"/>
<text text-anchor="middle" x="537" y="-534.1" font-family="Cascadia Code PL" font-size="13.00" fill="orange">SMART ERASE</text>
</g>
<!-- SM_OFF -->
<g id="node8" class="node">
<title>SM_OFF</title>
<polygon fill="none" stroke="white" points="604,-450 470,-450 470,-398 604,-398 604,-450"/>
<text text-anchor="middle" x="537" y="-438" font-family="Cascadia Code PL" font-size="10.00" fill="cyan">Smart Erase Off</text>
<text text-anchor="middle" x="537" y="-427" font-family="Cascadia Code PL" font-size="10.00" fill="cyan">────────────</text>
<text text-anchor="middle" x="537" y="-416" font-family="Cascadia Code PL" font-size="10.00" fill="cyan">Erase only current layer</text>
<text text-anchor="middle" x="537" y="-405" font-family="Cascadia Code PL" font-size="10.00" fill="cyan">Normal single&#45;layer eraser</text>
</g>
<!-- SMART&#45;&gt;SM_OFF -->
<g id="edge13" class="edge">
<title>SMART&#45;&gt;SM_OFF</title>
<path fill="none" stroke="#555555" stroke-dasharray="1,5" d="M537,-519.08C537,-507.94 537,-492.84 537,-478"/>
</g>
<!-- MODES -->
<g id="node3" class="node">
<title>MODES</title>
<polygon fill="none" stroke="orange" stroke-width="2" points="757.5,-555.5 754.5,-559.5 733.5,-559.5 730.5,-555.5 696.5,-555.5 696.5,-519.5 757.5,-519.5 757.5,-555.5"/>
<text text-anchor="middle" x="727" y="-534.1" font-family="Cascadia Code PL" font-size="13.00" fill="orange">MODES</text>
</g>
<!-- M_BRUSH -->
<g id="node11" class="node">
<title>M_BRUSH</title>
<polygon fill="none" stroke="white" points="785,-455.5 669,-455.5 669,-392.5 785,-392.5 785,-455.5"/>
<text text-anchor="middle" x="727" y="-443.5" font-family="Cascadia Code PL" font-size="10.00" fill="cyan">Circular Brush</text>
<text text-anchor="middle" x="727" y="-432.5" font-family="Cascadia Code PL" font-size="10.00" fill="cyan">────────────</text>
<text text-anchor="middle" x="727" y="-421.5" font-family="Cascadia Code PL" font-size="10.00" fill="cyan">Standard brush shape</text>
<text text-anchor="middle" x="727" y="-410.5" font-family="Cascadia Code PL" font-size="10.00" fill="cyan">BRUSH_SIZE.CURRENT</text>
<text text-anchor="middle" x="727" y="-399.5" font-family="Cascadia Code PL" font-size="10.00" fill="cyan">Circle or square</text>
</g>
<!-- MODES&#45;&gt;M_BRUSH -->
<g id="edge14" class="edge">
<title>MODES&#45;&gt;M_BRUSH</title>
<path fill="none" stroke="#555555" stroke-dasharray="1,5" d="M727,-519.08C727,-509.31 727,-496.51 727,-483.5"/>
</g>
<!-- S_ACTIVE -->
<g id="node5" class="node">
<title>S_ACTIVE</title>
<polygon fill="none" stroke="white" points="376,-331 190,-331 190,-263 376,-263 376,-331"/>
<text text-anchor="middle" x="283" y="-318.2" font-family="Cascadia Code PL" font-size="11.00" fill="cyan">2 · ACTIVE</text>
<text text-anchor="middle" x="283" y="-306.2" font-family="Cascadia Code PL" font-size="11.00" fill="cyan">─────────────────</text>
<text text-anchor="middle" x="283" y="-294.2" font-family="Cascadia Code PL" font-size="11.00" fill="cyan">ERASER.ACTIVE = TRUE</text>
<text text-anchor="middle" x="283" y="-282.2" font-family="Cascadia Code PL" font-size="11.00" fill="cyan">CURRENT_TOOL% = TOOL_ERASER</text>
<text text-anchor="middle" x="283" y="-270.2" font-family="Cascadia Code PL" font-size="11.00" fill="cyan">Cursor: eraser icon</text>
</g>
<!-- S_INACTIVE&#45;&gt;S_ACTIVE -->
<g id="edge1" class="edge">
<title>S_INACTIVE&#45;&gt;S_ACTIVE</title>
<path fill="none" stroke="#66cc66" d="M274.47,-389.87C269.09,-384.57 264.39,-378.62 261,-372 255.99,-362.23 256.44,-351.14 259.37,-340.56"/>
<polygon fill="#66cc66" stroke="#66cc66" points="262.69,-341.65 262.67,-331.06 256.08,-339.36 262.69,-341.65"/>
<text text-anchor="middle" x="304.5" y="-364.8" font-family="Cascadia Code PL" font-size="9.00" fill="#aaaaaa"> &#160;Select TOOL_ERASER</text>
<text text-anchor="middle" x="304.5" y="-354.8" font-family="Cascadia Code PL" font-size="9.00" fill="#aaaaaa"> &#160;or press E key</text>
</g>
<!-- S_ACTIVE&#45;&gt;S_INACTIVE -->
<g id="edge6" class="edge">
<title>S_ACTIVE&#45;&gt;S_INACTIVE</title>
<path fill="none" stroke="#cc6666" stroke-dasharray="5,2" d="M333.01,-331.12C339.07,-337.31 344.38,-344.3 348,-352 352.1,-360.74 352.33,-370.6 350.63,-380.12"/>
<polygon fill="#cc6666" stroke="#cc6666" points="347.22,-379.31 348.24,-389.86 354.02,-380.98 347.22,-379.31"/>
<text text-anchor="middle" x="379" y="-364.8" font-family="Cascadia Code PL" font-size="9.00" fill="#aaaaaa"> &#160;Switch to</text>
<text text-anchor="middle" x="379" y="-354.8" font-family="Cascadia Code PL" font-size="9.00" fill="#aaaaaa"> &#160;another tool</text>
</g>
<!-- S_DRAWING -->
<g id="node6" class="node">
<title>S_DRAWING</title>
<polygon fill="none" stroke="white" points="156,-204 0,-204 0,-124 156,-124 156,-204"/>
<text text-anchor="middle" x="78" y="-191.2" font-family="Cascadia Code PL" font-size="11.00" fill="cyan">3 · DRAWING</text>
<text text-anchor="middle" x="78" y="-179.2" font-family="Cascadia Code PL" font-size="11.00" fill="cyan">─────────────────</text>
<text text-anchor="middle" x="78" y="-167.2" font-family="Cascadia Code PL" font-size="11.00" fill="cyan">Mouse B1 held</text>
<text text-anchor="middle" x="78" y="-155.2" font-family="Cascadia Code PL" font-size="11.00" fill="cyan">PSET _RGBA32(0,0,0,0)</text>
<text text-anchor="middle" x="78" y="-143.2" font-family="Cascadia Code PL" font-size="11.00" fill="cyan">_DONTBLEND active</text>
<text text-anchor="middle" x="78" y="-131.2" font-family="Cascadia Code PL" font-size="11.00" fill="cyan">PAINT_pset_with_symmetry()</text>
</g>
<!-- S_ACTIVE&#45;&gt;S_DRAWING -->
<g id="edge2" class="edge">
<title>S_ACTIVE&#45;&gt;S_DRAWING</title>
<path fill="none" stroke="#66cc66" d="M231.27,-262.94C206.01,-246.8 175.25,-227.14 147.93,-209.69"/>
<polygon fill="#66cc66" stroke="#66cc66" points="149.51,-206.54 139.19,-204.1 145.74,-212.44 149.51,-206.54"/>
<text text-anchor="middle" x="237.5" y="-234.8" font-family="Cascadia Code PL" font-size="9.00" fill="#aaaaaa"> &#160;B1 press on canvas</text>
<text text-anchor="middle" x="237.5" y="-224.8" font-family="Cascadia Code PL" font-size="9.00" fill="#aaaaaa"> &#160;Capture BEFORE_IMG</text>
</g>
<!-- S_DRAWING&#45;&gt;S_DRAWING -->
<g id="edge3" class="edge">
<title>S_DRAWING&#45;&gt;S_DRAWING</title>
<path fill="none" stroke="#88aacc" d="M156.35,-175.31C166.94,-173.41 174,-169.64 174,-164 174,-160.38 171.1,-157.54 166.24,-155.46"/>
<polygon fill="#88aacc" stroke="#88aacc" points="166.92,-152.02 156.35,-152.69 165.03,-158.76 166.92,-152.02"/>
<text text-anchor="middle" x="222.5" y="-166.8" font-family="Cascadia Code PL" font-size="9.00" fill="#aaaaaa"> &#160;B1 held + movement</text>
<text text-anchor="middle" x="222.5" y="-156.8" font-family="Cascadia Code PL" font-size="9.00" fill="#aaaaaa"> &#160;Interpolate erase stroke</text>
</g>
<!-- S_COMMITTED -->
<g id="node7" class="node">
<title>S_COMMITTED</title>
<polygon fill="none" stroke="white" points="269,-68 115,-68 115,0 269,0 269,-68"/>
<text text-anchor="middle" x="192" y="-55.2" font-family="Cascadia Code PL" font-size="11.00" fill="cyan">4 · COMMITTED</text>
<text text-anchor="middle" x="192" y="-43.2" font-family="Cascadia Code PL" font-size="11.00" fill="cyan">─────────────────</text>
<text text-anchor="middle" x="192" y="-31.2" font-family="Cascadia Code PL" font-size="11.00" fill="cyan">Mouse released</text>
<text text-anchor="middle" x="192" y="-19.2" font-family="Cascadia Code PL" font-size="11.00" fill="cyan">HISTORY_record_brush()</text>
<text text-anchor="middle" x="192" y="-7.2" font-family="Cascadia Code PL" font-size="11.00" fill="cyan">Layer contentDirty% = TRUE</text>
</g>
<!-- S_DRAWING&#45;&gt;S_COMMITTED -->
<g id="edge4" class="edge">
<title>S_DRAWING&#45;&gt;S_COMMITTED</title>
<path fill="none" stroke="#cccc66" d="M112.82,-123.9C126.32,-108.75 141.78,-91.39 155.43,-76.06"/>
<polygon fill="#cccc66" stroke="#cccc66" points="158.35,-78.04 162.39,-68.25 153.12,-73.39 158.35,-78.04"/>
<text text-anchor="middle" x="197" y="-98.8" font-family="Cascadia Code PL" font-size="9.00" fill="#aaaaaa"> &#160;B1 released</text>
<text text-anchor="middle" x="197" y="-88.8" font-family="Cascadia Code PL" font-size="9.00" fill="#aaaaaa"> &#160;HISTORY_record_brush()</text>
</g>
<!-- S_COMMITTED&#45;&gt;S_ACTIVE -->
<g id="edge5" class="edge">
<title>S_COMMITTED&#45;&gt;S_ACTIVE</title>
<path fill="none" stroke="#6699ff" d="M238.67,-68.14C255.39,-83.01 272.07,-102.14 280,-124 295.16,-165.78 293.71,-217.1 289.84,-252.76"/>
<polygon fill="#6699ff" stroke="#6699ff" points="286.34,-252.49 288.63,-262.84 293.29,-253.32 286.34,-252.49"/>
<text text-anchor="middle" x="337" y="-161.8" font-family="Cascadia Code PL" font-size="9.00" fill="#aaaaaa"> &#160;Ready for next stroke</text>
</g>
<!-- SM_ON -->
<g id="node9" class="node">
<title>SM_ON</title>
<polygon fill="none" stroke="white" points="625,-334 449,-334 449,-260 625,-260 625,-334"/>
<text text-anchor="middle" x="537" y="-322" font-family="Cascadia Code PL" font-size="10.00" fill="cyan">Smart Erase On</text>
<text text-anchor="middle" x="537" y="-311" font-family="Cascadia Code PL" font-size="10.00" fill="cyan">────────────</text>
<text text-anchor="middle" x="537" y="-300" font-family="Cascadia Code PL" font-size="10.00" fill="cyan">Shift+Erase activates</text>
<text text-anchor="middle" x="537" y="-289" font-family="Cascadia Code PL" font-size="10.00" fill="cyan">ERASER_SMART_DIRTY(1&#45;64)</text>
<text text-anchor="middle" x="537" y="-278" font-family="Cascadia Code PL" font-size="10.00" fill="cyan">ERASER_SMART_BEFORE_IMG(1&#45;64)</text>
<text text-anchor="middle" x="537" y="-267" font-family="Cascadia Code PL" font-size="10.00" fill="cyan">All multi&#45;selected layers</text>
</g>
<!-- SM_OFF&#45;&gt;SM_ON -->
<g id="edge7" class="edge">
<title>SM_OFF&#45;&gt;SM_ON</title>
<path fill="none" stroke="#66cc66" d="M492.53,-397.75C483.84,-390.61 475.91,-382.01 471,-372 465.84,-361.48 468.08,-351.33 474.17,-342.08"/>
<polygon fill="#66cc66" stroke="#66cc66" points="476.94,-344.22 480.41,-334.21 471.45,-339.87 476.94,-344.22"/>
<text text-anchor="middle" x="506" y="-364.6" font-family="Cascadia Code PL" font-size="8.00" fill="#aaaaaa"> Shift+E held</text>
<text text-anchor="middle" x="506" y="-355.6" font-family="Cascadia Code PL" font-size="8.00" fill="#aaaaaa"> Multi&#45;select active</text>
</g>
<!-- SM_ON&#45;&gt;SM_OFF -->
<g id="edge9" class="edge">
<title>SM_ON&#45;&gt;SM_OFF</title>
<path fill="none" stroke="#cc6666" stroke-dasharray="5,2" d="M540.3,-334.12C541.04,-346.17 541.48,-359.66 541,-372 540.8,-377.14 540.48,-382.56 540.12,-387.87"/>
<polygon fill="#cc6666" stroke="#cc6666" points="536.63,-387.63 539.36,-397.86 543.61,-388.15 536.63,-387.63"/>
<text text-anchor="middle" x="570.5" y="-364.6" font-family="Cascadia Code PL" font-size="8.00" fill="#aaaaaa"> Shift released</text>
<text text-anchor="middle" x="570.5" y="-355.6" font-family="Cascadia Code PL" font-size="8.00" fill="#aaaaaa"> or single&#45;select</text>
</g>
<!-- SM_SAVE -->
<g id="node10" class="node">
<title>SM_SAVE</title>
<polygon fill="none" stroke="white" points="583,-195.5 461,-195.5 461,-132.5 583,-132.5 583,-195.5"/>
<text text-anchor="middle" x="522" y="-183.5" font-family="Cascadia Code PL" font-size="10.00" fill="cyan">Per&#45;Layer Snapshot</text>
<text text-anchor="middle" x="522" y="-172.5" font-family="Cascadia Code PL" font-size="10.00" fill="cyan">────────────</text>
<text text-anchor="middle" x="522" y="-161.5" font-family="Cascadia Code PL" font-size="10.00" fill="cyan">Each affected layer gets</text>
<text text-anchor="middle" x="522" y="-150.5" font-family="Cascadia Code PL" font-size="10.00" fill="cyan">individual BEFORE_IMG</text>
<text text-anchor="middle" x="522" y="-139.5" font-family="Cascadia Code PL" font-size="10.00" fill="cyan">for independent undo</text>
</g>
<!-- SM_ON&#45;&gt;SM_SAVE -->
<g id="edge8" class="edge">
<title>SM_ON&#45;&gt;SM_SAVE</title>
<path fill="none" stroke="#cccc66" d="M532.86,-259.86C530.95,-243.17 528.67,-223.29 526.7,-206.04"/>
<polygon fill="#cccc66" stroke="#cccc66" points="530.13,-205.24 525.52,-195.7 523.18,-206.03 530.13,-205.24"/>
<text text-anchor="middle" x="581.5" y="-234.6" font-family="Cascadia Code PL" font-size="8.00" fill="#aaaaaa"> B1 press</text>
<text text-anchor="middle" x="581.5" y="-225.6" font-family="Cascadia Code PL" font-size="8.00" fill="#aaaaaa"> Snapshot all selected layers</text>
</g>
<!-- M_CUSTOM -->
<g id="node12" class="node">
<title>M_CUSTOM</title>
<polygon fill="none" stroke="white" points="819,-328.5 649,-328.5 649,-265.5 819,-265.5 819,-328.5"/>
<text text-anchor="middle" x="734" y="-316.5" font-family="Cascadia Code PL" font-size="10.00" fill="cyan">Custom Brush</text>
<text text-anchor="middle" x="734" y="-305.5" font-family="Cascadia Code PL" font-size="10.00" fill="cyan">────────────</text>
<text text-anchor="middle" x="734" y="-294.5" font-family="Cascadia Code PL" font-size="10.00" fill="cyan">CUSTOM_BRUSH.ACTIVE% = TRUE</text>
<text text-anchor="middle" x="734" y="-283.5" font-family="Cascadia Code PL" font-size="10.00" fill="cyan">_DONTBLEND + per&#45;pixel</text>
<text text-anchor="middle" x="734" y="-272.5" font-family="Cascadia Code PL" font-size="10.00" fill="cyan">PSET _RGBA32(0,0,0,0)</text>
</g>
<!-- M_BRUSH&#45;&gt;M_CUSTOM -->
<g id="edge10" class="edge">
<title>M_BRUSH&#45;&gt;M_CUSTOM</title>
<path fill="none" stroke="#6699ff" d="M687.89,-392.17C677.63,-380.27 670.92,-366.13 677,-352 679.38,-346.46 682.64,-341.23 686.4,-336.36"/>
<polygon fill="#6699ff" stroke="#6699ff" points="689.28,-338.38 693.14,-328.51 683.97,-333.82 689.28,-338.38"/>
<text text-anchor="middle" x="705.5" y="-364.6" font-family="Cascadia Code PL" font-size="8.00" fill="#aaaaaa"> Custom brush</text>
<text text-anchor="middle" x="705.5" y="-355.6" font-family="Cascadia Code PL" font-size="8.00" fill="#aaaaaa"> loaded (Ctrl+B)</text>
</g>
<!-- M_CUSTOM&#45;&gt;M_BRUSH -->
<g id="edge11" class="edge">
<title>M_CUSTOM&#45;&gt;M_BRUSH</title>
<path fill="none" stroke="#cc6666" stroke-dasharray="5,2" d="M734.94,-328.63C735.1,-341.97 734.97,-357.77 734,-372 733.77,-375.3 733.47,-378.71 733.11,-382.13"/>
<polygon fill="#cc6666" stroke="#cc6666" points="729.6,-381.98 731.9,-392.33 736.55,-382.81 729.6,-381.98"/>
<text text-anchor="middle" x="760.5" y="-364.6" font-family="Cascadia Code PL" font-size="8.00" fill="#aaaaaa"> Custom brush</text>
<text text-anchor="middle" x="760.5" y="-355.6" font-family="Cascadia Code PL" font-size="8.00" fill="#aaaaaa"> cleared</text>
</g>
<!-- L1 -->
<g id="node13" class="node">
<title>L1</title>
<ellipse fill="white" stroke="white" cx="1139" cy="-537.5" rx="0.36" ry="0.36"/>
</g>
<!-- L2 -->
<g id="node14" class="node">
<title>L2</title>
<ellipse fill="white" stroke="white" cx="1139" cy="-424" rx="0.36" ry="0.36"/>
</g>
<!-- L1&#45;&gt;L2 -->
<g id="edge15" class="edge">
<title>L1&#45;&gt;L2</title>
<path fill="none" stroke="#66cc66" d="M1139,-536.42C1139,-533.68 1139,-462.04 1139,-435.11"/>
<polygon fill="#66cc66" stroke="#66cc66" points="1142.5,-435.08 1139,-425.08 1135.5,-435.08 1142.5,-435.08"/>
<text text-anchor="middle" x="1171" y="-494.3" font-family="Cascadia Code PL" font-size="9.00" fill="#aaaaaa"> Activate / Draw</text>
</g>
<!-- L3 -->
<g id="node15" class="node">
<title>L3</title>
<ellipse fill="white" stroke="white" cx="1038" cy="-537.5" rx="0.36" ry="0.36"/>
</g>
<!-- L4 -->
<g id="node16" class="node">
<title>L4</title>
<ellipse fill="white" stroke="white" cx="1038" cy="-424" rx="0.36" ry="0.36"/>
</g>
<!-- L3&#45;&gt;L4 -->
<g id="edge16" class="edge">
<title>L3&#45;&gt;L4</title>
<path fill="none" stroke="#cc6666" stroke-dasharray="5,2" d="M1038,-536.42C1038,-533.68 1038,-462.04 1038,-435.11"/>
<polygon fill="#cc6666" stroke="#cc6666" points="1041.5,-435.08 1038,-425.08 1034.5,-435.08 1041.5,-435.08"/>
<text text-anchor="middle" x="1077" y="-494.3" font-family="Cascadia Code PL" font-size="9.00" fill="#aaaaaa"> Deactivate / Switch</text>
</g>
<!-- L5 -->
<g id="node17" class="node">
<title>L5</title>
<ellipse fill="white" stroke="white" cx="940" cy="-537.5" rx="0.36" ry="0.36"/>
</g>
<!-- L6 -->
<g id="node18" class="node">
<title>L6</title>
<ellipse fill="white" stroke="white" cx="940" cy="-424" rx="0.36" ry="0.36"/>
</g>
<!-- L5&#45;&gt;L6 -->
<g id="edge17" class="edge">
<title>L5&#45;&gt;L6</title>
<path fill="none" stroke="#cccc66" d="M940,-536.42C940,-533.68 940,-462.04 940,-435.11"/>
<polygon fill="#cccc66" stroke="#cccc66" points="943.5,-435.08 940,-425.08 936.5,-435.08 943.5,-435.08"/>
<text text-anchor="middle" x="977.5" y="-494.3" font-family="Cascadia Code PL" font-size="9.00" fill="#aaaaaa"> Commit to History</text>
</g>
<!-- L7 -->
<g id="node19" class="node">
<title>L7</title>
<ellipse fill="white" stroke="white" cx="861" cy="-537.5" rx="0.36" ry="0.36"/>
</g>
<!-- L8 -->
<g id="node20" class="node">
<title>L8</title>
<ellipse fill="white" stroke="white" cx="861" cy="-424" rx="0.36" ry="0.36"/>
</g>
<!-- L7&#45;&gt;L8 -->
<g id="edge18" class="edge">
<title>L7&#45;&gt;L8</title>
<path fill="none" stroke="#6699ff" d="M861,-536.42C861,-533.68 861,-462.04 861,-435.11"/>
<polygon fill="#6699ff" stroke="#6699ff" points="864.5,-435.08 861,-425.08 857.5,-435.08 864.5,-435.08"/>
<text text-anchor="middle" x="889" y="-494.3" font-family="Cascadia Code PL" font-size="9.00" fill="#aaaaaa"> Ready / Cycle</text>
</g>
</g>
</svg>
