<?xml version="1.0" encoding="UTF-8" standalone="no"?>
<!DOCTYPE svg PUBLIC "-//W3C//DTD SVG 1.1//EN"
 "http://www.w3.org/Graphics/SVG/1.1/DTD/svg11.dtd">
<!-- Generated by graphviz version 2.42.4 (0)
 -->
<!-- Title: FILL_TOOL Pages: 1 -->
<svg width="2041pt" height="720pt"
 viewBox="0.00 0.00 2041.00 719.50" xmlns="http://www.w3.org/2000/svg" xmlns:xlink="http://www.w3.org/1999/xlink">
<g id="graph0" class="graph" transform="scale(1 1) rotate(0) translate(4 715.5)">
<title>FILL_TOOL</title>
<text text-anchor="middle" x="1016.5" y="-688.3" font-family="Cascadia Code PL" font-size="24.00" fill="white">FILL (FLOOD FILL) TOOL STATE MACHINE</text>
<g id="clust6" class="cluster">
<title>cluster_legend</title>
<polygon fill="transparent" stroke="white" stroke-dasharray="5,2" points="1531,-479.64 1531,-640.86 2025,-640.86 2025,-479.64 1531,-479.64"/>
<text text-anchor="middle" x="1559" y="-628.06" font-family="Cascadia Code PL" font-size="11.00" fill="white">LEGEND</text>
</g>
<g id="clust2" class="cluster">
<title>cluster_filladj</title>
<polygon fill="transparent" stroke="orange" stroke-dasharray="5,2" points="350,-138 350,-547.5 557,-547.5 557,-138 350,-138"/>
<text text-anchor="middle" x="444.5" y="-534.7" font-family="Cascadia Code PL" font-size="11.00" fill="orange">FILL ADJUST OVERLAY — F8 Toggle</text>
</g>
<g id="clust3" class="cluster">
<title>cluster_drag</title>
<polygon fill="transparent" stroke="orange" stroke-dasharray="5,2" points="565,-451 565,-664.5 1011,-664.5 1011,-451 565,-451"/>
<text text-anchor="middle" x="638.5" y="-651.7" font-family="Cascadia Code PL" font-size="11.00" fill="orange">FILL ADJUST DRAG MODES</text>
</g>
<g id="clust4" class="cluster">
<title>cluster_shapes</title>
<polygon fill="transparent" stroke="orange" stroke-dasharray="5,2" points="1019,-575.5 1019,-669.5 1523,-669.5 1523,-575.5 1019,-575.5"/>
<text text-anchor="middle" x="1095" y="-656.7" font-family="Cascadia Code PL" font-size="11.00" fill="orange">FILL ADJUST ENTRY POINTS</text>
</g>
<!-- MAIN -->
<g id="node1" class="node">
<title>MAIN</title>
<polygon fill="none" stroke="orange" stroke-width="2" points="159,-630.5 156,-634.5 135,-634.5 132,-630.5 77,-630.5 77,-594.5 159,-594.5 159,-630.5"/>
<text text-anchor="middle" x="118" y="-609.1" font-family="Cascadia Code PL" font-size="13.00" fill="orange">FILL STATES</text>
</g>
<!-- S_IDLE -->
<g id="node3" class="node">
<title>S_IDLE</title>
<polygon fill="none" stroke="white" points="202,-522 34,-522 34,-454 202,-454 202,-522"/>
<text text-anchor="middle" x="118" y="-509.2" font-family="Cascadia Code PL" font-size="11.00" fill="cyan">1 · IDLE</text>
<text text-anchor="middle" x="118" y="-497.2" font-family="Cascadia Code PL" font-size="11.00" fill="cyan">─────────────────</text>
<text text-anchor="middle" x="118" y="-485.2" font-family="Cascadia Code PL" font-size="11.00" fill="cyan">CURRENT_TOOL% = TOOL_FILL</text>
<text text-anchor="middle" x="118" y="-473.2" font-family="Cascadia Code PL" font-size="11.00" fill="cyan">FILL.ACTIVE = FALSE</text>
<text text-anchor="middle" x="118" y="-461.2" font-family="Cascadia Code PL" font-size="11.00" fill="cyan">Cursor: bucket icon</text>
</g>
<!-- MAIN&#45;&gt;S_IDLE -->
<g id="edge19" class="edge">
<title>MAIN&#45;&gt;S_IDLE</title>
<path fill="none" stroke="#555555" stroke-dasharray="1,5" d="M118,-594.47C118,-575.8 118,-545.39 118,-522.01"/>
</g>
<!-- ADJ_F -->
<g id="node2" class="node">
<title>ADJ_F</title>
<polygon fill="none" stroke="orange" stroke-width="2" points="508,-630.5 505,-634.5 484,-634.5 481,-630.5 398,-630.5 398,-594.5 508,-594.5 508,-630.5"/>
<text text-anchor="middle" x="453" y="-609.1" font-family="Cascadia Code PL" font-size="13.00" fill="orange">FILL ADJUST (F8)</text>
</g>
<!-- FA_DISABLED -->
<g id="node7" class="node">
<title>FA_DISABLED</title>
<polygon fill="none" stroke="white" points="521.5,-519.5 384.5,-519.5 384.5,-456.5 521.5,-456.5 521.5,-519.5"/>
<text text-anchor="middle" x="453" y="-507.5" font-family="Cascadia Code PL" font-size="10.00" fill="cyan">F8 Disabled</text>
<text text-anchor="middle" x="453" y="-496.5" font-family="Cascadia Code PL" font-size="10.00" fill="cyan">────────────</text>
<text text-anchor="middle" x="453" y="-485.5" font-family="Cascadia Code PL" font-size="10.00" fill="cyan">FILL_ADJ.ENABLED = FALSE</text>
<text text-anchor="middle" x="453" y="-474.5" font-family="Cascadia Code PL" font-size="10.00" fill="cyan">Fills commit immediately</text>
<text text-anchor="middle" x="453" y="-463.5" font-family="Cascadia Code PL" font-size="10.00" fill="cyan">No interactive overlay</text>
</g>
<!-- ADJ_F&#45;&gt;FA_DISABLED -->
<g id="edge20" class="edge">
<title>ADJ_F&#45;&gt;FA_DISABLED</title>
<path fill="none" stroke="#555555" stroke-dasharray="1,5" d="M453,-594.47C453,-582.13 453,-564.67 453,-547.5"/>
</g>
<!-- S_FILLING -->
<g id="node4" class="node">
<title>S_FILLING</title>
<polygon fill="none" stroke="white" points="197.5,-388 38.5,-388 38.5,-308 197.5,-308 197.5,-388"/>
<text text-anchor="middle" x="118" y="-375.2" font-family="Cascadia Code PL" font-size="11.00" fill="cyan">2 · FILLING</text>
<text text-anchor="middle" x="118" y="-363.2" font-family="Cascadia Code PL" font-size="11.00" fill="cyan">─────────────────</text>
<text text-anchor="middle" x="118" y="-351.2" font-family="Cascadia Code PL" font-size="11.00" fill="cyan">B1 click on canvas</text>
<text text-anchor="middle" x="118" y="-339.2" font-family="Cascadia Code PL" font-size="11.00" fill="cyan">Flood fill at UNSNAPPED_X/Y</text>
<text text-anchor="middle" x="118" y="-327.2" font-family="Cascadia Code PL" font-size="11.00" fill="cyan">FILL_generate_mask%()</text>
<text text-anchor="middle" x="118" y="-315.2" font-family="Cascadia Code PL" font-size="11.00" fill="cyan">Queue&#45;based fill algorithm</text>
</g>
<!-- S_IDLE&#45;&gt;S_FILLING -->
<g id="edge1" class="edge">
<title>S_IDLE&#45;&gt;S_FILLING</title>
<path fill="none" stroke="#66cc66" d="M118,-453.95C118,-437.26 118,-416.68 118,-398.18"/>
<polygon fill="#66cc66" stroke="#66cc66" points="121.5,-398.16 118,-388.16 114.5,-398.16 121.5,-398.16"/>
<text text-anchor="middle" x="162.5" y="-428.8" font-family="Cascadia Code PL" font-size="9.00" fill="#aaaaaa"> &#160;B1 click on canvas</text>
<text text-anchor="middle" x="162.5" y="-418.8" font-family="Cascadia Code PL" font-size="9.00" fill="#aaaaaa"> &#160;FILL_flood() initiated</text>
<text text-anchor="middle" x="162.5" y="-408.8" font-family="Cascadia Code PL" font-size="9.00" fill="#aaaaaa"> &#160;Capture BEFORE_IMG</text>
</g>
<!-- S_COMMITTED -->
<g id="node5" class="node">
<title>S_COMMITTED</title>
<polygon fill="none" stroke="white" points="134,-80 0,-80 0,0 134,0 134,-80"/>
<text text-anchor="middle" x="67" y="-67.2" font-family="Cascadia Code PL" font-size="11.00" fill="cyan">3 · COMMITTED</text>
<text text-anchor="middle" x="67" y="-55.2" font-family="Cascadia Code PL" font-size="11.00" fill="cyan">─────────────────</text>
<text text-anchor="middle" x="67" y="-43.2" font-family="Cascadia Code PL" font-size="11.00" fill="cyan">Fill complete</text>
<text text-anchor="middle" x="67" y="-31.2" font-family="Cascadia Code PL" font-size="11.00" fill="cyan">HISTORY_record_brush()</text>
<text text-anchor="middle" x="67" y="-19.2" font-family="Cascadia Code PL" font-size="11.00" fill="cyan">FILL.BEFORE_IMG saved</text>
<text text-anchor="middle" x="67" y="-7.2" font-family="Cascadia Code PL" font-size="11.00" fill="cyan">Layer contentDirty%</text>
</g>
<!-- S_FILLING&#45;&gt;S_COMMITTED -->
<g id="edge2" class="edge">
<title>S_FILLING&#45;&gt;S_COMMITTED</title>
<path fill="none" stroke="#cccc66" d="M98.59,-307.61C90.04,-288.32 80.85,-264.45 76,-242 64.99,-191.01 63.76,-131.11 64.65,-90.04"/>
<polygon fill="#cccc66" stroke="#cccc66" points="68.15,-90.12 64.92,-80.03 61.15,-89.93 68.15,-90.12"/>
<text text-anchor="middle" x="132" y="-201.8" font-family="Cascadia Code PL" font-size="9.00" fill="#aaaaaa"> &#160;Fill complete</text>
<text text-anchor="middle" x="132" y="-191.8" font-family="Cascadia Code PL" font-size="9.00" fill="#aaaaaa"> &#160;FILL_ADJ.ENABLED = FALSE</text>
<text text-anchor="middle" x="132" y="-181.8" font-family="Cascadia Code PL" font-size="9.00" fill="#aaaaaa"> &#160;HISTORY_record_brush()</text>
</g>
<!-- S_FILL_ADJ -->
<g id="node6" class="node">
<title>S_FILL_ADJ</title>
<polygon fill="none" stroke="white" points="340.5,-234 197.5,-234 197.5,-154 340.5,-154 340.5,-234"/>
<text text-anchor="middle" x="269" y="-221.2" font-family="Cascadia Code PL" font-size="11.00" fill="cyan">4 · FILL ADJUST MODE</text>
<text text-anchor="middle" x="269" y="-209.2" font-family="Cascadia Code PL" font-size="11.00" fill="cyan">─────────────────</text>
<text text-anchor="middle" x="269" y="-197.2" font-family="Cascadia Code PL" font-size="11.00" fill="cyan">FILL_ADJ.ACTIVE% = TRUE</text>
<text text-anchor="middle" x="269" y="-185.2" font-family="Cascadia Code PL" font-size="11.00" fill="cyan">Interactive overlay shown</text>
<text text-anchor="middle" x="269" y="-173.2" font-family="Cascadia Code PL" font-size="11.00" fill="cyan">L&#45;handle for tile origin</text>
<text text-anchor="middle" x="269" y="-161.2" font-family="Cascadia Code PL" font-size="11.00" fill="cyan">+ X/Y scale controls</text>
</g>
<!-- S_FILLING&#45;&gt;S_FILL_ADJ -->
<g id="edge3" class="edge">
<title>S_FILLING&#45;&gt;S_FILL_ADJ</title>
<path fill="none" stroke="#cc66cc" d="M113.17,-307.92C113.23,-291.51 116.29,-273.21 127,-260 143.47,-239.7 158.98,-252.31 183,-242 185.64,-240.87 188.3,-239.68 190.98,-238.45"/>
<polygon fill="#cc66cc" stroke="#cc66cc" points="192.56,-241.57 200.09,-234.12 189.56,-235.25 192.56,-241.57"/>
<text text-anchor="middle" x="181.5" y="-282.8" font-family="Cascadia Code PL" font-size="9.00" fill="#aaaaaa"> &#160;Fill complete +</text>
<text text-anchor="middle" x="181.5" y="-272.8" font-family="Cascadia Code PL" font-size="9.00" fill="#aaaaaa"> &#160;FILL_ADJ.ENABLED = TRUE</text>
<text text-anchor="middle" x="181.5" y="-262.8" font-family="Cascadia Code PL" font-size="9.00" fill="#aaaaaa"> &#160;Enter adjustment mode</text>
</g>
<!-- S_COMMITTED&#45;&gt;S_IDLE -->
<g id="edge4" class="edge">
<title>S_COMMITTED&#45;&gt;S_IDLE</title>
<path fill="none" stroke="#6699ff" d="M51.27,-80.24C27.3,-146.17 -11.52,-282.32 29,-388 37.47,-410.08 53.38,-430.33 69.44,-446.68"/>
<polygon fill="#6699ff" stroke="#6699ff" points="67.22,-449.4 76.81,-453.91 72.12,-444.41 67.22,-449.4"/>
<text text-anchor="middle" x="33.5" y="-277.8" font-family="Cascadia Code PL" font-size="9.00" fill="#aaaaaa"> &#160;Ready for</text>
<text text-anchor="middle" x="33.5" y="-267.8" font-family="Cascadia Code PL" font-size="9.00" fill="#aaaaaa"> &#160;next fill</text>
</g>
<!-- S_FILL_ADJ&#45;&gt;S_IDLE -->
<g id="edge6" class="edge">
<title>S_FILL_ADJ&#45;&gt;S_IDLE</title>
<path fill="none" stroke="#cc6666" stroke-dasharray="5,2" d="M263.52,-234C254.49,-293.81 235.05,-404.55 211,-436 207.87,-440.1 204.3,-443.91 200.44,-447.46"/>
<polygon fill="#cc6666" stroke="#cc6666" points="198.12,-444.84 192.69,-453.93 202.6,-450.21 198.12,-444.84"/>
<text text-anchor="middle" x="295.5" y="-355.8" font-family="Cascadia Code PL" font-size="9.00" fill="#aaaaaa"> &#160;Escape → cancel</text>
<text text-anchor="middle" x="295.5" y="-345.8" font-family="Cascadia Code PL" font-size="9.00" fill="#aaaaaa"> &#160;FILL_ADJ_cancel()</text>
<text text-anchor="middle" x="295.5" y="-335.8" font-family="Cascadia Code PL" font-size="9.00" fill="#aaaaaa"> &#160;Restore CANCEL_IMG</text>
</g>
<!-- S_FILL_ADJ&#45;&gt;S_COMMITTED -->
<g id="edge5" class="edge">
<title>S_FILL_ADJ&#45;&gt;S_COMMITTED</title>
<path fill="none" stroke="#cccc66" d="M216.98,-153.86C189.53,-133.2 155.71,-107.75 127.14,-86.25"/>
<polygon fill="#cccc66" stroke="#cccc66" points="128.94,-83.23 118.84,-80.01 124.73,-88.82 128.94,-83.23"/>
<text text-anchor="middle" x="232" y="-120.8" font-family="Cascadia Code PL" font-size="9.00" fill="#aaaaaa"> &#160;Enter → commit</text>
<text text-anchor="middle" x="232" y="-110.8" font-family="Cascadia Code PL" font-size="9.00" fill="#aaaaaa"> &#160;FILL_ADJ_commit()</text>
<text text-anchor="middle" x="232" y="-100.8" font-family="Cascadia Code PL" font-size="9.00" fill="#aaaaaa"> &#160;HISTORY_record_brush()</text>
</g>
<!-- FA_ENABLED -->
<g id="node8" class="node">
<title>FA_ENABLED</title>
<polygon fill="none" stroke="white" points="510.5,-379.5 375.5,-379.5 375.5,-316.5 510.5,-316.5 510.5,-379.5"/>
<text text-anchor="middle" x="443" y="-367.5" font-family="Cascadia Code PL" font-size="10.00" fill="cyan">F8 Enabled</text>
<text text-anchor="middle" x="443" y="-356.5" font-family="Cascadia Code PL" font-size="10.00" fill="cyan">────────────</text>
<text text-anchor="middle" x="443" y="-345.5" font-family="Cascadia Code PL" font-size="10.00" fill="cyan">FILL_ADJ.ENABLED = TRUE</text>
<text text-anchor="middle" x="443" y="-334.5" font-family="Cascadia Code PL" font-size="10.00" fill="cyan">Next fill/shape enters</text>
<text text-anchor="middle" x="443" y="-323.5" font-family="Cascadia Code PL" font-size="10.00" fill="cyan">adjustment mode</text>
</g>
<!-- FA_DISABLED&#45;&gt;FA_ENABLED -->
<g id="edge7" class="edge">
<title>FA_DISABLED&#45;&gt;FA_ENABLED</title>
<path fill="none" stroke="#66cc66" d="M393.62,-456.31C386.97,-450.46 381.11,-443.71 377,-436 367.8,-418.75 376.72,-401.28 390.66,-386.56"/>
<polygon fill="#66cc66" stroke="#66cc66" points="393.12,-389.06 397.85,-379.58 388.24,-384.04 393.12,-389.06"/>
<text text-anchor="middle" x="424.5" y="-423.6" font-family="Cascadia Code PL" font-size="8.00" fill="#aaaaaa"> F8 toggle</text>
<text text-anchor="middle" x="424.5" y="-414.6" font-family="Cascadia Code PL" font-size="8.00" fill="#aaaaaa"> FILL_ADJ_toggle_enabled()</text>
</g>
<!-- FA_ENABLED&#45;&gt;FA_DISABLED -->
<g id="edge10" class="edge">
<title>FA_ENABLED&#45;&gt;FA_DISABLED</title>
<path fill="none" stroke="#cc6666" stroke-dasharray="5,2" d="M461.89,-379.63C466.05,-387.9 469.85,-397.04 472,-406 475.17,-419.21 473.44,-433.64 470,-446.62"/>
<polygon fill="#cc6666" stroke="#cc6666" points="466.64,-445.63 467.08,-456.21 473.34,-447.67 466.64,-445.63"/>
<text text-anchor="middle" x="500.5" y="-423.6" font-family="Cascadia Code PL" font-size="8.00" fill="#aaaaaa"> F8 toggle</text>
<text text-anchor="middle" x="500.5" y="-414.6" font-family="Cascadia Code PL" font-size="8.00" fill="#aaaaaa"> Disabled again</text>
</g>
<!-- FA_ACTIVE -->
<g id="node9" class="node">
<title>FA_ACTIVE</title>
<polygon fill="none" stroke="white" points="514,-242 378,-242 378,-146 514,-146 514,-242"/>
<text text-anchor="middle" x="446" y="-230" font-family="Cascadia Code PL" font-size="10.00" fill="cyan">Interactive Overlay</text>
<text text-anchor="middle" x="446" y="-219" font-family="Cascadia Code PL" font-size="10.00" fill="cyan">────────────</text>
<text text-anchor="middle" x="446" y="-208" font-family="Cascadia Code PL" font-size="10.00" fill="cyan">FILL_ADJ.ACTIVE = TRUE</text>
<text text-anchor="middle" x="446" y="-197" font-family="Cascadia Code PL" font-size="10.00" fill="cyan">Drag body: pan tile origin</text>
<text text-anchor="middle" x="446" y="-186" font-family="Cascadia Code PL" font-size="10.00" fill="cyan">Drag corner: uniform scale</text>
<text text-anchor="middle" x="446" y="-175" font-family="Cascadia Code PL" font-size="10.00" fill="cyan">Drag H arm: scale X only</text>
<text text-anchor="middle" x="446" y="-164" font-family="Cascadia Code PL" font-size="10.00" fill="cyan">Drag V arm: scale Y only</text>
<text text-anchor="middle" x="446" y="-153" font-family="Cascadia Code PL" font-size="10.00" fill="cyan">Scroll: uniform scale</text>
</g>
<!-- FA_ENABLED&#45;&gt;FA_ACTIVE -->
<g id="edge8" class="edge">
<title>FA_ENABLED&#45;&gt;FA_ACTIVE</title>
<path fill="none" stroke="#66cc66" d="M404.51,-316.25C397.38,-308.51 390.94,-299.63 387,-290 381.95,-277.66 382.2,-272.44 387,-260 388.21,-256.87 389.64,-253.8 391.26,-250.8"/>
<polygon fill="#66cc66" stroke="#66cc66" points="394.39,-252.39 396.6,-242.03 388.41,-248.75 394.39,-252.39"/>
<text text-anchor="middle" x="420" y="-277.6" font-family="Cascadia Code PL" font-size="8.00" fill="#aaaaaa"> Fill/shape release</text>
<text text-anchor="middle" x="420" y="-268.6" font-family="Cascadia Code PL" font-size="8.00" fill="#aaaaaa"> FILL_ADJ_enter_*()</text>
</g>
<!-- FA_ACTIVE&#45;&gt;FA_ENABLED -->
<g id="edge9" class="edge">
<title>FA_ACTIVE&#45;&gt;FA_ENABLED</title>
<path fill="none" stroke="#cccc66" d="M452.48,-242.38C453.76,-257.59 454.35,-274.51 453,-290 452.54,-295.25 451.85,-300.73 451.05,-306.14"/>
<polygon fill="#cccc66" stroke="#cccc66" points="447.54,-305.93 449.38,-316.36 454.44,-307.06 447.54,-305.93"/>
<text text-anchor="middle" x="485" y="-277.6" font-family="Cascadia Code PL" font-size="8.00" fill="#aaaaaa"> Enter/Escape</text>
<text text-anchor="middle" x="485" y="-268.6" font-family="Cascadia Code PL" font-size="8.00" fill="#aaaaaa"> commit or cancel</text>
</g>
<!-- DM_NONE -->
<g id="node10" class="node">
<title>DM_NONE</title>
<polygon fill="none" stroke="white" points="819,-636.5 745,-636.5 745,-588.5 819,-588.5 819,-636.5"/>
<text text-anchor="middle" x="782" y="-625.3" font-family="Cascadia Code PL" font-size="9.00" fill="cyan">DRAG_NONE</text>
<text text-anchor="middle" x="782" y="-615.3" font-family="Cascadia Code PL" font-size="9.00" fill="cyan">────────</text>
<text text-anchor="middle" x="782" y="-605.3" font-family="Cascadia Code PL" font-size="9.00" fill="cyan">No drag active</text>
<text text-anchor="middle" x="782" y="-595.3" font-family="Cascadia Code PL" font-size="9.00" fill="cyan">Overlay idle</text>
</g>
<!-- DM_PAN -->
<g id="node11" class="node">
<title>DM_PAN</title>
<polygon fill="none" stroke="white" points="672.5,-517 573.5,-517 573.5,-459 672.5,-459 672.5,-517"/>
<text text-anchor="middle" x="623" y="-505.8" font-family="Cascadia Code PL" font-size="9.00" fill="cyan">DRAG_PAN</text>
<text text-anchor="middle" x="623" y="-495.8" font-family="Cascadia Code PL" font-size="9.00" fill="cyan">────────</text>
<text text-anchor="middle" x="623" y="-485.8" font-family="Cascadia Code PL" font-size="9.00" fill="cyan">Body drag</text>
<text text-anchor="middle" x="623" y="-475.8" font-family="Cascadia Code PL" font-size="9.00" fill="cyan">Move tile origin</text>
<text text-anchor="middle" x="623" y="-465.8" font-family="Cascadia Code PL" font-size="9.00" fill="cyan">ORIGIN_X/Y changes</text>
</g>
<!-- DM_NONE&#45;&gt;DM_PAN -->
<g id="edge11" class="edge">
<title>DM_NONE&#45;&gt;DM_PAN</title>
<path fill="none" stroke="#66cc66" d="M744.95,-607.35C697.51,-601.18 619.36,-587.85 602,-565.5 593.37,-554.38 594.97,-539.95 600.02,-526.62"/>
<polygon fill="#66cc66" stroke="#66cc66" points="603.35,-527.74 604.2,-517.17 596.95,-524.9 603.35,-527.74"/>
<text text-anchor="middle" x="616.5" y="-558.9" font-family="Cascadia Code PL" font-size="7.00" fill="#aaaaaa"> Hit body</text>
</g>
<!-- DM_UNIFORM -->
<g id="node12" class="node">
<title>DM_UNIFORM</title>
<polygon fill="none" stroke="white" points="795,-517 691,-517 691,-459 795,-459 795,-517"/>
<text text-anchor="middle" x="743" y="-505.8" font-family="Cascadia Code PL" font-size="9.00" fill="cyan">DRAG_UNIFORM</text>
<text text-anchor="middle" x="743" y="-495.8" font-family="Cascadia Code PL" font-size="9.00" fill="cyan">────────</text>
<text text-anchor="middle" x="743" y="-485.8" font-family="Cascadia Code PL" font-size="9.00" fill="cyan">Corner drag</text>
<text text-anchor="middle" x="743" y="-475.8" font-family="Cascadia Code PL" font-size="9.00" fill="cyan">Scale TILE_W + TILE_H</text>
<text text-anchor="middle" x="743" y="-465.8" font-family="Cascadia Code PL" font-size="9.00" fill="cyan">Proportional</text>
</g>
<!-- DM_NONE&#45;&gt;DM_UNIFORM -->
<g id="edge12" class="edge">
<title>DM_NONE&#45;&gt;DM_UNIFORM</title>
<path fill="none" stroke="#66cc66" d="M744.78,-599.41C728.96,-592.21 712.1,-581.32 703,-565.5 695.66,-552.73 699.85,-538.48 707.81,-525.78"/>
<polygon fill="#66cc66" stroke="#66cc66" points="710.91,-527.46 713.82,-517.27 705.19,-523.42 710.91,-527.46"/>
<text text-anchor="middle" x="719.5" y="-558.9" font-family="Cascadia Code PL" font-size="7.00" fill="#aaaaaa"> Hit corner</text>
</g>
<!-- DM_SCALE_X -->
<g id="node13" class="node">
<title>DM_SCALE_X</title>
<polygon fill="none" stroke="white" points="899,-517 813,-517 813,-459 899,-459 899,-517"/>
<text text-anchor="middle" x="856" y="-505.8" font-family="Cascadia Code PL" font-size="9.00" fill="cyan">DRAG_SCALE_X</text>
<text text-anchor="middle" x="856" y="-495.8" font-family="Cascadia Code PL" font-size="9.00" fill="cyan">────────</text>
<text text-anchor="middle" x="856" y="-485.8" font-family="Cascadia Code PL" font-size="9.00" fill="cyan">H arm drag</text>
<text text-anchor="middle" x="856" y="-475.8" font-family="Cascadia Code PL" font-size="9.00" fill="cyan">Scale TILE_W only</text>
<text text-anchor="middle" x="856" y="-465.8" font-family="Cascadia Code PL" font-size="9.00" fill="cyan">Independent X</text>
</g>
<!-- DM_NONE&#45;&gt;DM_SCALE_X -->
<g id="edge13" class="edge">
<title>DM_NONE&#45;&gt;DM_SCALE_X</title>
<path fill="none" stroke="#66cc66" d="M791.54,-588.38C796.09,-578.09 801.88,-565.95 808,-555.5 813.9,-545.43 820.94,-534.99 827.79,-525.45"/>
<polygon fill="#66cc66" stroke="#66cc66" points="830.66,-527.46 833.73,-517.32 825,-523.33 830.66,-527.46"/>
<text text-anchor="middle" x="825" y="-558.9" font-family="Cascadia Code PL" font-size="7.00" fill="#aaaaaa"> Hit H arm</text>
</g>
<!-- DM_SCALE_Y -->
<g id="node14" class="node">
<title>DM_SCALE_Y</title>
<polygon fill="none" stroke="white" points="1002.5,-517 917.5,-517 917.5,-459 1002.5,-459 1002.5,-517"/>
<text text-anchor="middle" x="960" y="-505.8" font-family="Cascadia Code PL" font-size="9.00" fill="cyan">DRAG_SCALE_Y</text>
<text text-anchor="middle" x="960" y="-495.8" font-family="Cascadia Code PL" font-size="9.00" fill="cyan">────────</text>
<text text-anchor="middle" x="960" y="-485.8" font-family="Cascadia Code PL" font-size="9.00" fill="cyan">V arm drag</text>
<text text-anchor="middle" x="960" y="-475.8" font-family="Cascadia Code PL" font-size="9.00" fill="cyan">Scale TILE_H only</text>
<text text-anchor="middle" x="960" y="-465.8" font-family="Cascadia Code PL" font-size="9.00" fill="cyan">Independent Y</text>
</g>
<!-- DM_NONE&#45;&gt;DM_SCALE_Y -->
<g id="edge14" class="edge">
<title>DM_NONE&#45;&gt;DM_SCALE_Y</title>
<path fill="none" stroke="#66cc66" d="M819.13,-597.5C845.58,-586.42 881.06,-569.21 908,-547.5 916.25,-540.85 924.3,-532.82 931.51,-524.87"/>
<polygon fill="#66cc66" stroke="#66cc66" points="934.45,-526.83 938.41,-517 929.19,-522.21 934.45,-526.83"/>
<text text-anchor="middle" x="911.5" y="-558.9" font-family="Cascadia Code PL" font-size="7.00" fill="#aaaaaa"> Hit V arm</text>
</g>
<!-- DM_PAN&#45;&gt;DM_NONE -->
<g id="edge15" class="edge">
<title>DM_PAN&#45;&gt;DM_NONE</title>
<path fill="none" stroke="#cc6666" stroke-dasharray="5,2" d="M634.52,-517.2C642.25,-533.18 653.81,-552.5 669,-565.5 687.91,-581.69 713.26,-592.7 735.17,-599.89"/>
<polygon fill="#cc6666" stroke="#cc6666" points="734.36,-603.3 744.95,-602.93 736.44,-596.62 734.36,-603.3"/>
<text text-anchor="middle" x="682" y="-558.9" font-family="Cascadia Code PL" font-size="7.00" fill="#aaaaaa"> Release</text>
</g>
<!-- DM_UNIFORM&#45;&gt;DM_NONE -->
<g id="edge16" class="edge">
<title>DM_UNIFORM&#45;&gt;DM_NONE</title>
<path fill="none" stroke="#cc6666" stroke-dasharray="5,2" d="M747.09,-517.09C749.67,-531.76 753.56,-549.87 759,-565.5 760.53,-569.89 762.38,-574.39 764.37,-578.78"/>
<polygon fill="#cc6666" stroke="#cc6666" points="761.38,-580.63 768.86,-588.13 767.69,-577.6 761.38,-580.63"/>
<text text-anchor="middle" x="772" y="-558.9" font-family="Cascadia Code PL" font-size="7.00" fill="#aaaaaa"> Release</text>
</g>
<!-- DM_SCALE_X&#45;&gt;DM_NONE -->
<g id="edge17" class="edge">
<title>DM_SCALE_X&#45;&gt;DM_NONE</title>
<path fill="none" stroke="#cc6666" stroke-dasharray="5,2" d="M855.67,-517.28C854.35,-532.53 850.81,-551.1 842,-565.5 838.05,-571.97 832.82,-577.86 827.1,-583.1"/>
<polygon fill="#cc6666" stroke="#cc6666" points="824.48,-580.74 819.07,-589.85 828.98,-586.1 824.48,-580.74"/>
<text text-anchor="middle" x="859" y="-558.9" font-family="Cascadia Code PL" font-size="7.00" fill="#aaaaaa"> Release</text>
</g>
<!-- DM_SCALE_Y&#45;&gt;DM_NONE -->
<g id="edge18" class="edge">
<title>DM_SCALE_Y&#45;&gt;DM_NONE</title>
<path fill="none" stroke="#cc6666" stroke-dasharray="5,2" d="M956.02,-517.16C952.35,-533.32 945.34,-552.85 932,-565.5 904.35,-591.71 862.14,-603.01 829.53,-607.87"/>
<polygon fill="#cc6666" stroke="#cc6666" points="828.76,-604.44 819.31,-609.23 829.69,-611.38 828.76,-604.44"/>
<text text-anchor="middle" x="953" y="-558.9" font-family="Cascadia Code PL" font-size="7.00" fill="#aaaaaa"> Release</text>
</g>
<!-- EP_FLOOD -->
<g id="node15" class="node">
<title>EP_FLOOD</title>
<polygon fill="none" stroke="white" points="1515,-641.5 1409,-641.5 1409,-583.5 1515,-583.5 1515,-641.5"/>
<text text-anchor="middle" x="1462" y="-630.3" font-family="Cascadia Code PL" font-size="9.00" fill="cyan">Flood Fill</text>
<text text-anchor="middle" x="1462" y="-620.3" font-family="Cascadia Code PL" font-size="9.00" fill="cyan">────────</text>
<text text-anchor="middle" x="1462" y="-610.3" font-family="Cascadia Code PL" font-size="9.00" fill="cyan">FILL_ADJ_enter_flood()</text>
<text text-anchor="middle" x="1462" y="-600.3" font-family="Cascadia Code PL" font-size="9.00" fill="cyan">SHAPE_TYPE = FLOOD</text>
<text text-anchor="middle" x="1462" y="-590.3" font-family="Cascadia Code PL" font-size="9.00" fill="cyan">FILL_MASK from seed</text>
</g>
<!-- EP_RECT -->
<g id="node16" class="node">
<title>EP_RECT</title>
<polygon fill="none" stroke="white" points="1391,-641.5 1291,-641.5 1291,-583.5 1391,-583.5 1391,-641.5"/>
<text text-anchor="middle" x="1341" y="-630.3" font-family="Cascadia Code PL" font-size="9.00" fill="cyan">Rectangle</text>
<text text-anchor="middle" x="1341" y="-620.3" font-family="Cascadia Code PL" font-size="9.00" fill="cyan">────────</text>
<text text-anchor="middle" x="1341" y="-610.3" font-family="Cascadia Code PL" font-size="9.00" fill="cyan">FILL_ADJ_enter_rect()</text>
<text text-anchor="middle" x="1341" y="-600.3" font-family="Cascadia Code PL" font-size="9.00" fill="cyan">SHAPE_TYPE = RECT</text>
<text text-anchor="middle" x="1341" y="-590.3" font-family="Cascadia Code PL" font-size="9.00" fill="cyan">RECT_X1/Y1/X2/Y2</text>
</g>
<!-- EP_ELLIPSE -->
<g id="node17" class="node">
<title>EP_ELLIPSE</title>
<polygon fill="none" stroke="white" points="1273,-641.5 1163,-641.5 1163,-583.5 1273,-583.5 1273,-641.5"/>
<text text-anchor="middle" x="1218" y="-630.3" font-family="Cascadia Code PL" font-size="9.00" fill="cyan">Ellipse</text>
<text text-anchor="middle" x="1218" y="-620.3" font-family="Cascadia Code PL" font-size="9.00" fill="cyan">────────</text>
<text text-anchor="middle" x="1218" y="-610.3" font-family="Cascadia Code PL" font-size="9.00" fill="cyan">FILL_ADJ_enter_ellipse()</text>
<text text-anchor="middle" x="1218" y="-600.3" font-family="Cascadia Code PL" font-size="9.00" fill="cyan">SHAPE_TYPE = ELLIPSE</text>
<text text-anchor="middle" x="1218" y="-590.3" font-family="Cascadia Code PL" font-size="9.00" fill="cyan">ELL_CX/CY/RX/RY</text>
</g>
<!-- EP_POLYGON -->
<g id="node18" class="node">
<title>EP_POLYGON</title>
<polygon fill="none" stroke="white" points="1145,-641.5 1027,-641.5 1027,-583.5 1145,-583.5 1145,-641.5"/>
<text text-anchor="middle" x="1086" y="-630.3" font-family="Cascadia Code PL" font-size="9.00" fill="cyan">Polygon</text>
<text text-anchor="middle" x="1086" y="-620.3" font-family="Cascadia Code PL" font-size="9.00" fill="cyan">────────</text>
<text text-anchor="middle" x="1086" y="-610.3" font-family="Cascadia Code PL" font-size="9.00" fill="cyan">FILL_ADJ_enter_polygon()</text>
<text text-anchor="middle" x="1086" y="-600.3" font-family="Cascadia Code PL" font-size="9.00" fill="cyan">SHAPE_TYPE = POLYGON</text>
<text text-anchor="middle" x="1086" y="-590.3" font-family="Cascadia Code PL" font-size="9.00" fill="cyan">POLY_COUNT vertices</text>
</g>
<!-- L1 -->
<g id="node19" class="node">
<title>L1</title>
<ellipse fill="white" stroke="white" cx="1962" cy="-612.5" rx="0.36" ry="0.36"/>
</g>
<!-- L2 -->
<g id="node20" class="node">
<title>L2</title>
<ellipse fill="white" stroke="white" cx="1962" cy="-488" rx="0.36" ry="0.36"/>
</g>
<!-- L1&#45;&gt;L2 -->
<g id="edge21" class="edge">
<title>L1&#45;&gt;L2</title>
<path fill="none" stroke="#66cc66" d="M1962,-611.41C1962,-608.37 1962,-528.2 1962,-499.28"/>
<polygon fill="#66cc66" stroke="#66cc66" points="1965.5,-499.09 1962,-489.09 1958.5,-499.09 1965.5,-499.09"/>
<text text-anchor="middle" x="1989.5" y="-558.3" font-family="Cascadia Code PL" font-size="9.00" fill="#aaaaaa"> Activate / Fill</text>
</g>
<!-- L3 -->
<g id="node21" class="node">
<title>L3</title>
<ellipse fill="white" stroke="white" cx="1860" cy="-612.5" rx="0.36" ry="0.36"/>
</g>
<!-- L4 -->
<g id="node22" class="node">
<title>L4</title>
<ellipse fill="white" stroke="white" cx="1860" cy="-488" rx="0.36" ry="0.36"/>
</g>
<!-- L3&#45;&gt;L4 -->
<g id="edge22" class="edge">
<title>L3&#45;&gt;L4</title>
<path fill="none" stroke="#cc6666" stroke-dasharray="5,2" d="M1860,-611.41C1860,-608.37 1860,-528.2 1860,-499.28"/>
<polygon fill="#cc6666" stroke="#cc6666" points="1863.5,-499.09 1860,-489.09 1856.5,-499.09 1863.5,-499.09"/>
<text text-anchor="middle" x="1899.5" y="-558.3" font-family="Cascadia Code PL" font-size="9.00" fill="#aaaaaa"> Cancel / Deactivate</text>
</g>
<!-- L5 -->
<g id="node23" class="node">
<title>L5</title>
<ellipse fill="white" stroke="white" cx="1762" cy="-612.5" rx="0.36" ry="0.36"/>
</g>
<!-- L6 -->
<g id="node24" class="node">
<title>L6</title>
<ellipse fill="white" stroke="white" cx="1762" cy="-488" rx="0.36" ry="0.36"/>
</g>
<!-- L5&#45;&gt;L6 -->
<g id="edge23" class="edge">
<title>L5&#45;&gt;L6</title>
<path fill="none" stroke="#cccc66" d="M1762,-611.41C1762,-608.37 1762,-528.2 1762,-499.28"/>
<polygon fill="#cccc66" stroke="#cccc66" points="1765.5,-499.09 1762,-489.09 1758.5,-499.09 1765.5,-499.09"/>
<text text-anchor="middle" x="1799.5" y="-558.3" font-family="Cascadia Code PL" font-size="9.00" fill="#aaaaaa"> Commit to History</text>
</g>
<!-- L7 -->
<g id="node25" class="node">
<title>L7</title>
<ellipse fill="white" stroke="white" cx="1670" cy="-612.5" rx="0.36" ry="0.36"/>
</g>
<!-- L8 -->
<g id="node26" class="node">
<title>L8</title>
<ellipse fill="white" stroke="white" cx="1670" cy="-488" rx="0.36" ry="0.36"/>
</g>
<!-- L7&#45;&gt;L8 -->
<g id="edge24" class="edge">
<title>L7&#45;&gt;L8</title>
<path fill="none" stroke="#6699ff" d="M1670,-611.41C1670,-608.37 1670,-528.2 1670,-499.28"/>
<polygon fill="#6699ff" stroke="#6699ff" points="1673.5,-499.09 1670,-489.09 1666.5,-499.09 1673.5,-499.09"/>
<text text-anchor="middle" x="1704.5" y="-558.3" font-family="Cascadia Code PL" font-size="9.00" fill="#aaaaaa"> Ready / Re&#45;enter</text>
</g>
<!-- L9 -->
<g id="node27" class="node">
<title>L9</title>
<ellipse fill="white" stroke="white" cx="1557" cy="-612.5" rx="0.36" ry="0.36"/>
</g>
<!-- L10 -->
<g id="node28" class="node">
<title>L10</title>
<ellipse fill="white" stroke="white" cx="1557" cy="-488" rx="0.36" ry="0.36"/>
</g>
<!-- L9&#45;&gt;L10 -->
<g id="edge25" class="edge">
<title>L9&#45;&gt;L10</title>
<path fill="none" stroke="#cc66cc" d="M1557,-611.41C1557,-608.37 1557,-528.2 1557,-499.28"/>
<polygon fill="#cc66cc" stroke="#cc66cc" points="1560.5,-499.09 1557,-489.09 1553.5,-499.09 1560.5,-499.09"/>
<text text-anchor="middle" x="1602" y="-558.3" font-family="Cascadia Code PL" font-size="9.00" fill="#aaaaaa"> Special (Adjust Mode)</text>
</g>
</g>
</svg>
