<?xml version="1.0" encoding="UTF-8" standalone="no"?>
<!DOCTYPE svg PUBLIC "-//W3C//DTD SVG 1.1//EN"
 "http://www.w3.org/Graphics/SVG/1.1/DTD/svg11.dtd">
<!-- Generated by graphviz version 2.42.4 (0)
 -->
<!-- Title: LINE_TOOL Pages: 1 -->
<svg width="988pt" height="518pt"
 viewBox="0.00 0.00 988.00 517.86" xmlns="http://www.w3.org/2000/svg" xmlns:xlink="http://www.w3.org/1999/xlink">
<g id="graph0" class="graph" transform="scale(1 1) rotate(0) translate(4 513.86)">
<title>LINE_TOOL</title>
<text text-anchor="middle" x="490" y="-486.66" font-family="Cascadia Code PL" font-size="24.00" fill="white">LINE TOOL STATE MACHINE</text>
<g id="clust2" class="cluster">
<title>cluster_mods</title>
<polygon fill="transparent" stroke="orange" stroke-dasharray="5,2" points="410,-146.5 410,-385.5 676,-385.5 676,-146.5 410,-146.5"/>
<text text-anchor="middle" x="458" y="-372.7" font-family="Cascadia Code PL" font-size="11.00" fill="orange">LINE MODIFIERS</text>
</g>
<g id="clust4" class="cluster">
<title>cluster_legend</title>
<polygon fill="transparent" stroke="white" stroke-dasharray="5,2" points="684,-317.64 684,-467.86 972,-467.86 972,-317.64 684,-317.64"/>
<text text-anchor="middle" x="712" y="-455.06" font-family="Cascadia Code PL" font-size="11.00" fill="white">LEGEND</text>
</g>
<!-- MAIN -->
<g id="node1" class="node">
<title>MAIN</title>
<polygon fill="none" stroke="orange" stroke-width="2" points="312,-457.5 309,-461.5 288,-461.5 285,-457.5 226,-457.5 226,-421.5 312,-421.5 312,-457.5"/>
<text text-anchor="middle" x="269" y="-436.1" font-family="Cascadia Code PL" font-size="13.00" fill="orange">LINE STATES</text>
</g>
<!-- S_IDLE -->
<g id="node3" class="node">
<title>S_IDLE</title>
<polygon fill="none" stroke="white" points="354.5,-360 183.5,-360 183.5,-292 354.5,-292 354.5,-360"/>
<text text-anchor="middle" x="269" y="-347.2" font-family="Cascadia Code PL" font-size="11.00" fill="cyan">1 · IDLE</text>
<text text-anchor="middle" x="269" y="-335.2" font-family="Cascadia Code PL" font-size="11.00" fill="cyan">─────────────────</text>
<text text-anchor="middle" x="269" y="-323.2" font-family="Cascadia Code PL" font-size="11.00" fill="cyan">CURRENT_TOOL% = TOOL_LINE</text>
<text text-anchor="middle" x="269" y="-311.2" font-family="Cascadia Code PL" font-size="11.00" fill="cyan">LINE_TOOL.DRAGGING = FALSE</text>
<text text-anchor="middle" x="269" y="-299.2" font-family="Cascadia Code PL" font-size="11.00" fill="cyan">Cursor: crosshair</text>
</g>
<!-- MAIN&#45;&gt;S_IDLE -->
<g id="edge8" class="edge">
<title>MAIN&#45;&gt;S_IDLE</title>
<path fill="none" stroke="#555555" stroke-dasharray="1,5" d="M269,-421.08C269,-404.79 269,-380.03 269,-360"/>
</g>
<!-- MODS -->
<g id="node2" class="node">
<title>MODS</title>
<polygon fill="none" stroke="orange" stroke-width="2" points="669,-457.5 666,-461.5 645,-461.5 642,-457.5 587,-457.5 587,-421.5 669,-421.5 669,-457.5"/>
<text text-anchor="middle" x="628" y="-436.1" font-family="Cascadia Code PL" font-size="13.00" fill="orange">MODIFIERS</text>
</g>
<!-- M_FREE -->
<g id="node6" class="node">
<title>M_FREE</title>
<polygon fill="none" stroke="white" points="668,-352 588,-352 588,-300 668,-300 668,-352"/>
<text text-anchor="middle" x="628" y="-340" font-family="Cascadia Code PL" font-size="10.00" fill="cyan">Free Angle</text>
<text text-anchor="middle" x="628" y="-329" font-family="Cascadia Code PL" font-size="10.00" fill="cyan">────────────</text>
<text text-anchor="middle" x="628" y="-318" font-family="Cascadia Code PL" font-size="10.00" fill="cyan">No constraint</text>
<text text-anchor="middle" x="628" y="-307" font-family="Cascadia Code PL" font-size="10.00" fill="cyan">Any angle line</text>
</g>
<!-- MODS&#45;&gt;M_FREE -->
<g id="edge9" class="edge">
<title>MODS&#45;&gt;M_FREE</title>
<path fill="none" stroke="#555555" stroke-dasharray="1,5" d="M628,-421.08C628,-411.31 628,-398.51 628,-385.5"/>
</g>
<!-- S_DRAGGING -->
<g id="node4" class="node">
<title>S_DRAGGING</title>
<polygon fill="none" stroke="white" points="166,-226 0,-226 0,-146 166,-146 166,-226"/>
<text text-anchor="middle" x="83" y="-213.2" font-family="Cascadia Code PL" font-size="11.00" fill="cyan">2 · DRAGGING</text>
<text text-anchor="middle" x="83" y="-201.2" font-family="Cascadia Code PL" font-size="11.00" fill="cyan">─────────────────</text>
<text text-anchor="middle" x="83" y="-189.2" font-family="Cascadia Code PL" font-size="11.00" fill="cyan">LINE_TOOL.DRAGGING = TRUE</text>
<text text-anchor="middle" x="83" y="-177.2" font-family="Cascadia Code PL" font-size="11.00" fill="cyan">Preview line rendered</text>
<text text-anchor="middle" x="83" y="-165.2" font-family="Cascadia Code PL" font-size="11.00" fill="cyan">START_X/Y to END_X/Y</text>
<text text-anchor="middle" x="83" y="-153.2" font-family="Cascadia Code PL" font-size="11.00" fill="cyan">Bresenham algorithm preview</text>
</g>
<!-- S_IDLE&#45;&gt;S_DRAGGING -->
<g id="edge1" class="edge">
<title>S_IDLE&#45;&gt;S_DRAGGING</title>
<path fill="none" stroke="#66cc66" d="M224.45,-291.95C200.4,-274.1 170.35,-251.81 144.14,-232.36"/>
<polygon fill="#66cc66" stroke="#66cc66" points="145.9,-229.31 135.78,-226.16 141.72,-234.93 145.9,-229.31"/>
<text text-anchor="middle" x="239" y="-266.8" font-family="Cascadia Code PL" font-size="9.00" fill="#aaaaaa"> &#160;B1 press on canvas</text>
<text text-anchor="middle" x="239" y="-256.8" font-family="Cascadia Code PL" font-size="9.00" fill="#aaaaaa"> &#160;Capture START_X/Y</text>
<text text-anchor="middle" x="239" y="-246.8" font-family="Cascadia Code PL" font-size="9.00" fill="#aaaaaa"> &#160;DRAGGING = TRUE</text>
</g>
<!-- S_DRAGGING&#45;&gt;S_DRAGGING -->
<g id="edge2" class="edge">
<title>S_DRAGGING&#45;&gt;S_DRAGGING</title>
<path fill="none" stroke="#88aacc" d="M166.21,-197.83C176.92,-195.78 184,-191.84 184,-186 184,-182.17 180.95,-179.16 175.83,-176.96"/>
<polygon fill="#88aacc" stroke="#88aacc" points="176.79,-173.59 166.21,-174.17 174.84,-180.31 176.79,-173.59"/>
<text text-anchor="middle" x="233" y="-193.8" font-family="Cascadia Code PL" font-size="9.00" fill="#aaaaaa"> &#160;B1 held + movement</text>
<text text-anchor="middle" x="233" y="-183.8" font-family="Cascadia Code PL" font-size="9.00" fill="#aaaaaa"> &#160;Update END_X/Y</text>
<text text-anchor="middle" x="233" y="-173.8" font-family="Cascadia Code PL" font-size="9.00" fill="#aaaaaa"> &#160;Preview line each frame</text>
</g>
<!-- S_COMMITTED -->
<g id="node5" class="node">
<title>S_COMMITTED</title>
<polygon fill="none" stroke="white" points="267,-80 133,-80 133,0 267,0 267,-80"/>
<text text-anchor="middle" x="200" y="-67.2" font-family="Cascadia Code PL" font-size="11.00" fill="cyan">3 · COMMITTED</text>
<text text-anchor="middle" x="200" y="-55.2" font-family="Cascadia Code PL" font-size="11.00" fill="cyan">─────────────────</text>
<text text-anchor="middle" x="200" y="-43.2" font-family="Cascadia Code PL" font-size="11.00" fill="cyan">B1 released</text>
<text text-anchor="middle" x="200" y="-31.2" font-family="Cascadia Code PL" font-size="11.00" fill="cyan">LINE_draw_clipped()</text>
<text text-anchor="middle" x="200" y="-19.2" font-family="Cascadia Code PL" font-size="11.00" fill="cyan">LINE_draw_resolved()</text>
<text text-anchor="middle" x="200" y="-7.2" font-family="Cascadia Code PL" font-size="11.00" fill="cyan">HISTORY_record_brush()</text>
</g>
<!-- S_DRAGGING&#45;&gt;S_COMMITTED -->
<g id="edge3" class="edge">
<title>S_DRAGGING&#45;&gt;S_COMMITTED</title>
<path fill="none" stroke="#cccc66" d="M114.97,-145.65C129.42,-127.87 146.6,-106.72 161.73,-88.11"/>
<polygon fill="#cccc66" stroke="#cccc66" points="164.48,-90.27 168.07,-80.3 159.05,-85.86 164.48,-90.27"/>
<text text-anchor="middle" x="203" y="-120.8" font-family="Cascadia Code PL" font-size="9.00" fill="#aaaaaa"> &#160;B1 released</text>
<text text-anchor="middle" x="203" y="-110.8" font-family="Cascadia Code PL" font-size="9.00" fill="#aaaaaa"> &#160;Commit line to layer</text>
<text text-anchor="middle" x="203" y="-100.8" font-family="Cascadia Code PL" font-size="9.00" fill="#aaaaaa"> &#160;HISTORY_record_brush()</text>
</g>
<!-- S_COMMITTED&#45;&gt;S_IDLE -->
<g id="edge4" class="edge">
<title>S_COMMITTED&#45;&gt;S_IDLE</title>
<path fill="none" stroke="#6699ff" d="M247.84,-80.26C265.55,-98.13 283.2,-120.89 291,-146 305.01,-191.1 294.87,-245.19 284.18,-282.02"/>
<polygon fill="#6699ff" stroke="#6699ff" points="280.73,-281.34 281.17,-291.93 287.43,-283.38 280.73,-281.34"/>
<text text-anchor="middle" x="339" y="-188.8" font-family="Cascadia Code PL" font-size="9.00" fill="#aaaaaa"> &#160;DRAGGING = FALSE</text>
<text text-anchor="middle" x="339" y="-178.8" font-family="Cascadia Code PL" font-size="9.00" fill="#aaaaaa"> &#160;Ready for next line</text>
</g>
<!-- M_SHIFT -->
<g id="node7" class="node">
<title>M_SHIFT</title>
<polygon fill="none" stroke="white" points="539.5,-217.5 422.5,-217.5 422.5,-154.5 539.5,-154.5 539.5,-217.5"/>
<text text-anchor="middle" x="481" y="-205.5" font-family="Cascadia Code PL" font-size="10.00" fill="cyan">Shift Constrained</text>
<text text-anchor="middle" x="481" y="-194.5" font-family="Cascadia Code PL" font-size="10.00" fill="cyan">────────────</text>
<text text-anchor="middle" x="481" y="-183.5" font-family="Cascadia Code PL" font-size="10.00" fill="cyan">Snap to 0°/45°/90°</text>
<text text-anchor="middle" x="481" y="-172.5" font-family="Cascadia Code PL" font-size="10.00" fill="cyan">Nearest 45° increment</text>
<text text-anchor="middle" x="481" y="-161.5" font-family="Cascadia Code PL" font-size="10.00" fill="cyan">From START to END</text>
</g>
<!-- M_FREE&#45;&gt;M_SHIFT -->
<g id="edge5" class="edge">
<title>M_FREE&#45;&gt;M_SHIFT</title>
<path fill="none" stroke="#66cc66" d="M594.46,-299.88C589.45,-296.89 584.22,-294.14 579,-292 539.25,-275.66 511.98,-306.62 484,-274 473.35,-261.58 471.17,-244.1 472.2,-228.07"/>
<polygon fill="#66cc66" stroke="#66cc66" points="475.72,-228.12 473.29,-217.8 468.75,-227.38 475.72,-228.12"/>
<text text-anchor="middle" x="502.5" y="-257.1" font-family="Cascadia Code PL" font-size="8.00" fill="#aaaaaa"> Shift held</text>
</g>
<!-- M_GRID -->
<g id="node8" class="node">
<title>M_GRID</title>
<polygon fill="none" stroke="white" points="668,-217.5 558,-217.5 558,-154.5 668,-154.5 668,-217.5"/>
<text text-anchor="middle" x="613" y="-205.5" font-family="Cascadia Code PL" font-size="10.00" fill="cyan">Grid Snapped</text>
<text text-anchor="middle" x="613" y="-194.5" font-family="Cascadia Code PL" font-size="10.00" fill="cyan">────────────</text>
<text text-anchor="middle" x="613" y="-183.5" font-family="Cascadia Code PL" font-size="10.00" fill="cyan">GRID.SNAP% = TRUE</text>
<text text-anchor="middle" x="613" y="-172.5" font-family="Cascadia Code PL" font-size="10.00" fill="cyan">Endpoints snap to</text>
<text text-anchor="middle" x="613" y="-161.5" font-family="Cascadia Code PL" font-size="10.00" fill="cyan">grid cell boundaries</text>
</g>
<!-- M_FREE&#45;&gt;M_GRID -->
<g id="edge7" class="edge">
<title>M_FREE&#45;&gt;M_GRID</title>
<path fill="none" stroke="#66cc66" d="M625.25,-299.69C623.07,-279.63 619.98,-251.19 617.45,-227.9"/>
<polygon fill="#66cc66" stroke="#66cc66" points="620.92,-227.51 616.36,-217.95 613.97,-228.27 620.92,-227.51"/>
<text text-anchor="middle" x="646" y="-257.1" font-family="Cascadia Code PL" font-size="8.00" fill="#aaaaaa"> Grid snap on</text>
</g>
<!-- M_SHIFT&#45;&gt;M_FREE -->
<g id="edge6" class="edge">
<title>M_SHIFT&#45;&gt;M_FREE</title>
<path fill="none" stroke="#cc6666" stroke-dasharray="5,2" d="M508.02,-217.88C523.52,-235.01 543.69,-256.36 563,-274 570.16,-280.54 578.06,-287.17 585.82,-293.4"/>
<polygon fill="#cc6666" stroke="#cc6666" points="584.13,-296.53 594.15,-299.98 588.47,-291.04 584.13,-296.53"/>
<text text-anchor="middle" x="589" y="-257.1" font-family="Cascadia Code PL" font-size="8.00" fill="#aaaaaa"> Shift released</text>
</g>
<!-- M_SELECTION -->
<g id="node9" class="node">
<title>M_SELECTION</title>
<polygon fill="none" stroke="white" points="569.5,-357.5 418.5,-357.5 418.5,-294.5 569.5,-294.5 569.5,-357.5"/>
<text text-anchor="middle" x="494" y="-345.5" font-family="Cascadia Code PL" font-size="10.00" fill="cyan">Selection Clipped</text>
<text text-anchor="middle" x="494" y="-334.5" font-family="Cascadia Code PL" font-size="10.00" fill="cyan">────────────</text>
<text text-anchor="middle" x="494" y="-323.5" font-family="Cascadia Code PL" font-size="10.00" fill="cyan">SELECTION_is_point_inside%()</text>
<text text-anchor="middle" x="494" y="-312.5" font-family="Cascadia Code PL" font-size="10.00" fill="cyan">Line clipped to</text>
<text text-anchor="middle" x="494" y="-301.5" font-family="Cascadia Code PL" font-size="10.00" fill="cyan">active marquee region</text>
</g>
<!-- L1 -->
<g id="node10" class="node">
<title>L1</title>
<ellipse fill="white" stroke="white" cx="900" cy="-439.5" rx="0.36" ry="0.36"/>
</g>
<!-- L2 -->
<g id="node11" class="node">
<title>L2</title>
<ellipse fill="white" stroke="white" cx="900" cy="-326" rx="0.36" ry="0.36"/>
</g>
<!-- L1&#45;&gt;L2 -->
<g id="edge10" class="edge">
<title>L1&#45;&gt;L2</title>
<path fill="none" stroke="#66cc66" d="M900,-438.42C900,-435.68 900,-364.04 900,-337.11"/>
<polygon fill="#66cc66" stroke="#66cc66" points="903.5,-337.08 900,-327.08 896.5,-337.08 903.5,-337.08"/>
<text text-anchor="middle" x="932" y="-396.3" font-family="Cascadia Code PL" font-size="9.00" fill="#aaaaaa"> Activate / Draw</text>
</g>
<!-- L3 -->
<g id="node12" class="node">
<title>L3</title>
<ellipse fill="white" stroke="white" cx="802" cy="-439.5" rx="0.36" ry="0.36"/>
</g>
<!-- L4 -->
<g id="node13" class="node">
<title>L4</title>
<ellipse fill="white" stroke="white" cx="802" cy="-326" rx="0.36" ry="0.36"/>
</g>
<!-- L3&#45;&gt;L4 -->
<g id="edge11" class="edge">
<title>L3&#45;&gt;L4</title>
<path fill="none" stroke="#cccc66" d="M802,-438.42C802,-435.68 802,-364.04 802,-337.11"/>
<polygon fill="#cccc66" stroke="#cccc66" points="805.5,-337.08 802,-327.08 798.5,-337.08 805.5,-337.08"/>
<text text-anchor="middle" x="839.5" y="-396.3" font-family="Cascadia Code PL" font-size="9.00" fill="#aaaaaa"> Commit to History</text>
</g>
<!-- L5 -->
<g id="node14" class="node">
<title>L5</title>
<ellipse fill="white" stroke="white" cx="710" cy="-439.5" rx="0.36" ry="0.36"/>
</g>
<!-- L6 -->
<g id="node15" class="node">
<title>L6</title>
<ellipse fill="white" stroke="white" cx="710" cy="-326" rx="0.36" ry="0.36"/>
</g>
<!-- L5&#45;&gt;L6 -->
<g id="edge12" class="edge">
<title>L5&#45;&gt;L6</title>
<path fill="none" stroke="#6699ff" d="M710,-438.42C710,-435.68 710,-364.04 710,-337.11"/>
<polygon fill="#6699ff" stroke="#6699ff" points="713.5,-337.08 710,-327.08 706.5,-337.08 713.5,-337.08"/>
<text text-anchor="middle" x="744.5" y="-396.3" font-family="Cascadia Code PL" font-size="9.00" fill="#aaaaaa"> Ready / Re&#45;enter</text>
</g>
</g>
</svg>
