<?xml version="1.0" encoding="UTF-8" standalone="no"?>
<!DOCTYPE svg PUBLIC "-//W3C//DTD SVG 1.1//EN"
 "http://www.w3.org/Graphics/SVG/1.1/DTD/svg11.dtd">
<!-- Generated by graphviz version 2.42.4 (0)
 -->
<!-- Title: MARQUEE_TOOL Pages: 1 -->
<svg width="2549pt" height="696pt"
 viewBox="0.00 0.00 2548.94 696.00" xmlns="http://www.w3.org/2000/svg" xmlns:xlink="http://www.w3.org/1999/xlink">
<g id="graph0" class="graph" transform="scale(1 1) rotate(0) translate(4 692)">
<title>MARQUEE_TOOL</title>
<text text-anchor="middle" x="1270.47" y="-664.8" font-family="Cascadia Code PL" font-size="24.00" fill="white">MARQUEE TOOL STATE MACHINE</text>
<g id="clust6" class="cluster">
<title>cluster_legend</title>
<polygon fill="transparent" stroke="white" stroke-dasharray="5,2" points="2234.94,-445.64 2234.94,-620.36 2532.94,-620.36 2532.94,-445.64 2234.94,-445.64"/>
<text text-anchor="middle" x="2265.44" y="-607.56" font-family="Cascadia Code PL" font-size="11.00" fill="white">LEGEND</text>
</g>
<g id="clust2" class="cluster">
<title>cluster_shapes</title>
<polygon fill="transparent" stroke="orange" stroke-dasharray="5,2" points="322.94,-398 322.94,-530 1130.94,-530 1130.94,-398 322.94,-398"/>
<text text-anchor="middle" x="445.94" y="-517.2" font-family="Cascadia Code PL" font-size="11.00" fill="orange">SELECTION SHAPES — 5 MARQUEE TYPES</text>
</g>
<g id="clust3" class="cluster">
<title>cluster_modes</title>
<polygon fill="transparent" stroke="orange" stroke-dasharray="5,2" points="1143.94,-270.5 1143.94,-513.5 1423.94,-513.5 1423.94,-270.5 1143.94,-270.5"/>
<text text-anchor="middle" x="1264.44" y="-500.7" font-family="Cascadia Code PL" font-size="11.00" fill="orange">SELECTION MODES — Combine Behavior</text>
</g>
<g id="clust4" class="cluster">
<title>cluster_ops</title>
<polygon fill="transparent" stroke="orange" stroke-dasharray="5,2" points="1303.94,-558 1303.94,-646 2226.94,-646 2226.94,-558 1303.94,-558"/>
<text text-anchor="middle" x="1379.94" y="-633.2" font-family="Cascadia Code PL" font-size="11.00" fill="orange">SELECTION OPERATIONS</text>
</g>
<!-- MAIN -->
<g id="node1" class="node">
<title>MAIN</title>
<polygon fill="none" stroke="orange" stroke-width="2" points="279.44,-610 276.44,-614 255.44,-614 252.44,-610 176.44,-610 176.44,-574 279.44,-574 279.44,-610"/>
<text text-anchor="middle" x="227.94" y="-588.6" font-family="Cascadia Code PL" font-size="13.00" fill="orange">MAIN STATES</text>
</g>
<!-- S_IDLE -->
<g id="node4" class="node">
<title>S_IDLE</title>
<polygon fill="none" stroke="white" points="312.44,-488 143.44,-488 143.44,-420 312.44,-420 312.44,-488"/>
<text text-anchor="middle" x="227.94" y="-475.2" font-family="Cascadia Code PL" font-size="11.00" fill="cyan">1 · IDLE</text>
<text text-anchor="middle" x="227.94" y="-463.2" font-family="Cascadia Code PL" font-size="11.00" fill="cyan">─────────────────</text>
<text text-anchor="middle" x="227.94" y="-451.2" font-family="Cascadia Code PL" font-size="11.00" fill="cyan">No selection active</text>
<text text-anchor="middle" x="227.94" y="-439.2" font-family="Cascadia Code PL" font-size="11.00" fill="cyan">MARQUEE.active% = FALSE</text>
<text text-anchor="middle" x="227.94" y="-427.2" font-family="Cascadia Code PL" font-size="11.00" fill="cyan">Marching ants not visible</text>
</g>
<!-- MAIN&#45;&gt;S_IDLE -->
<g id="edge13" class="edge">
<title>MAIN&#45;&gt;S_IDLE</title>
<path fill="none" stroke="#555555" stroke-dasharray="1,5" d="M227.94,-573.78C227.94,-552.33 227.94,-515.24 227.94,-488.2"/>
</g>
<!-- SHAPES -->
<g id="node2" class="node">
<title>SHAPES</title>
<polygon fill="none" stroke="orange" stroke-width="2" points="1131.94,-610 1128.94,-614 1107.94,-614 1104.94,-610 985.94,-610 985.94,-574 1131.94,-574 1131.94,-610"/>
<text text-anchor="middle" x="1058.94" y="-588.6" font-family="Cascadia Code PL" font-size="13.00" fill="orange">SELECTION SHAPES</text>
</g>
<!-- SH_RECT -->
<g id="node9" class="node">
<title>SH_RECT</title>
<polygon fill="none" stroke="white" points="1122.94,-491 994.94,-491 994.94,-417 1122.94,-417 1122.94,-491"/>
<text text-anchor="middle" x="1058.94" y="-479" font-family="Cascadia Code PL" font-size="10.00" fill="cyan">Rectangle</text>
<text text-anchor="middle" x="1058.94" y="-468" font-family="Cascadia Code PL" font-size="10.00" fill="cyan">────────────</text>
<text text-anchor="middle" x="1058.94" y="-457" font-family="Cascadia Code PL" font-size="10.00" fill="cyan">TOOL_SELECT_RECT</text>
<text text-anchor="middle" x="1058.94" y="-446" font-family="Cascadia Code PL" font-size="10.00" fill="cyan">Drag corner&#45;to&#45;corner</text>
<text text-anchor="middle" x="1058.94" y="-435" font-family="Cascadia Code PL" font-size="10.00" fill="cyan">Shift = square</text>
<text text-anchor="middle" x="1058.94" y="-424" font-family="Cascadia Code PL" font-size="10.00" fill="cyan">Standard selection box</text>
</g>
<!-- SHAPES&#45;&gt;SH_RECT -->
<g id="edge14" class="edge">
<title>SHAPES&#45;&gt;SH_RECT</title>
<path fill="none" stroke="#555555" stroke-dasharray="1,5" d="M1058.94,-573.78C1058.94,-562.34 1058.94,-546.44 1058.94,-530"/>
</g>
<!-- MODES_F -->
<g id="node3" class="node">
<title>MODES_F</title>
<polygon fill="none" stroke="orange" stroke-width="2" points="1293.44,-610 1290.44,-614 1269.44,-614 1266.44,-610 1150.44,-610 1150.44,-574 1293.44,-574 1293.44,-610"/>
<text text-anchor="middle" x="1221.94" y="-588.6" font-family="Cascadia Code PL" font-size="13.00" fill="orange">SELECTION MODES</text>
</g>
<!-- MD_REPLACE -->
<g id="node14" class="node">
<title>MD_REPLACE</title>
<polygon fill="none" stroke="white" points="1286.94,-485.5 1156.94,-485.5 1156.94,-422.5 1286.94,-422.5 1286.94,-485.5"/>
<text text-anchor="middle" x="1221.94" y="-473.5" font-family="Cascadia Code PL" font-size="10.00" fill="cyan">Replace</text>
<text text-anchor="middle" x="1221.94" y="-462.5" font-family="Cascadia Code PL" font-size="10.00" fill="cyan">────────────</text>
<text text-anchor="middle" x="1221.94" y="-451.5" font-family="Cascadia Code PL" font-size="10.00" fill="cyan">No modifier held</text>
<text text-anchor="middle" x="1221.94" y="-440.5" font-family="Cascadia Code PL" font-size="10.00" fill="cyan">New selection replaces</text>
<text text-anchor="middle" x="1221.94" y="-429.5" font-family="Cascadia Code PL" font-size="10.00" fill="cyan">previous entirely</text>
</g>
<!-- MODES_F&#45;&gt;MD_REPLACE -->
<g id="edge15" class="edge">
<title>MODES_F&#45;&gt;MD_REPLACE</title>
<path fill="none" stroke="#555555" stroke-dasharray="1,5" d="M1221.94,-573.78C1221.94,-558.52 1221.94,-535.34 1221.94,-513.5"/>
</g>
<!-- S_DRAWING -->
<g id="node5" class="node">
<title>S_DRAWING</title>
<polygon fill="none" stroke="white" points="222.94,-350 70.94,-350 70.94,-270 222.94,-270 222.94,-350"/>
<text text-anchor="middle" x="146.94" y="-337.2" font-family="Cascadia Code PL" font-size="11.00" fill="cyan">2 · DRAWING SELECTION</text>
<text text-anchor="middle" x="146.94" y="-325.2" font-family="Cascadia Code PL" font-size="11.00" fill="cyan">─────────────────</text>
<text text-anchor="middle" x="146.94" y="-313.2" font-family="Cascadia Code PL" font-size="11.00" fill="cyan">B1 drag on canvas</text>
<text text-anchor="middle" x="146.94" y="-301.2" font-family="Cascadia Code PL" font-size="11.00" fill="cyan">Rubberband preview</text>
<text text-anchor="middle" x="146.94" y="-289.2" font-family="Cascadia Code PL" font-size="11.00" fill="cyan">Shape depends on mode</text>
<text text-anchor="middle" x="146.94" y="-277.2" font-family="Cascadia Code PL" font-size="11.00" fill="cyan">Shift = square/circle</text>
</g>
<!-- S_IDLE&#45;&gt;S_DRAWING -->
<g id="edge1" class="edge">
<title>S_IDLE&#45;&gt;S_DRAWING</title>
<path fill="none" stroke="#66cc66" d="M143.15,-424.49C127.54,-415.31 113.25,-403.39 103.94,-388 98.36,-378.77 99.1,-368.78 103.12,-359.16"/>
<polygon fill="#66cc66" stroke="#66cc66" points="106.34,-360.56 107.88,-350.08 100.14,-357.31 106.34,-360.56"/>
<text text-anchor="middle" x="154.94" y="-380.8" font-family="Cascadia Code PL" font-size="9.00" fill="#aaaaaa"> &#160;B1 drag on canvas</text>
<text text-anchor="middle" x="154.94" y="-370.8" font-family="Cascadia Code PL" font-size="9.00" fill="#aaaaaa"> &#160;Start selection shape</text>
</g>
<!-- S_DRAWING&#45;&gt;S_IDLE -->
<g id="edge9" class="edge">
<title>S_DRAWING&#45;&gt;S_IDLE</title>
<path fill="none" stroke="#cc6666" stroke-dasharray="5,2" d="M192.81,-350.04C197.74,-355.69 202.28,-361.73 205.94,-368 213.36,-380.72 218.31,-395.93 221.6,-409.95"/>
<polygon fill="#cc6666" stroke="#cc6666" points="218.21,-410.85 223.71,-419.9 225.06,-409.39 218.21,-410.85"/>
<text text-anchor="middle" x="253.94" y="-380.8" font-family="Cascadia Code PL" font-size="9.00" fill="#aaaaaa"> &#160;Escape</text>
<text text-anchor="middle" x="253.94" y="-370.8" font-family="Cascadia Code PL" font-size="9.00" fill="#aaaaaa"> &#160;Cancel drawing</text>
</g>
<!-- S_ACTIVE -->
<g id="node6" class="node">
<title>S_ACTIVE</title>
<polygon fill="none" stroke="white" points="319.44,-204 64.44,-204 64.44,-124 319.44,-124 319.44,-204"/>
<text text-anchor="middle" x="191.94" y="-191.2" font-family="Cascadia Code PL" font-size="11.00" fill="cyan">3 · SELECTION ACTIVE</text>
<text text-anchor="middle" x="191.94" y="-179.2" font-family="Cascadia Code PL" font-size="11.00" fill="cyan">─────────────────</text>
<text text-anchor="middle" x="191.94" y="-167.2" font-family="Cascadia Code PL" font-size="11.00" fill="cyan">MARQUEE.active% = TRUE</text>
<text text-anchor="middle" x="191.94" y="-155.2" font-family="Cascadia Code PL" font-size="11.00" fill="cyan">Marching ants animation</text>
<text text-anchor="middle" x="191.94" y="-143.2" font-family="Cascadia Code PL" font-size="11.00" fill="cyan">SELECTION_MASK (per&#45;pixel) + WAND bbox</text>
<text text-anchor="middle" x="191.94" y="-131.2" font-family="Cascadia Code PL" font-size="11.00" fill="cyan">Copy/Cut/Move available</text>
</g>
<!-- S_DRAWING&#45;&gt;S_ACTIVE -->
<g id="edge2" class="edge">
<title>S_DRAWING&#45;&gt;S_ACTIVE</title>
<path fill="none" stroke="#cccc66" d="M163.61,-269.7C165.87,-263.82 168.05,-257.78 169.94,-252 173.91,-239.85 177.59,-226.54 180.77,-214.08"/>
<polygon fill="#cccc66" stroke="#cccc66" points="184.18,-214.85 183.2,-204.3 177.39,-213.16 184.18,-214.85"/>
<text text-anchor="middle" x="234.94" y="-244.8" font-family="Cascadia Code PL" font-size="9.00" fill="#aaaaaa"> &#160;B1 released</text>
<text text-anchor="middle" x="234.94" y="-234.8" font-family="Cascadia Code PL" font-size="9.00" fill="#aaaaaa"> &#160;Selection mask created</text>
<text text-anchor="middle" x="234.94" y="-224.8" font-family="Cascadia Code PL" font-size="9.00" fill="#aaaaaa"> &#160;Marching ants start</text>
</g>
<!-- S_ACTIVE&#45;&gt;S_IDLE -->
<g id="edge7" class="edge">
<title>S_ACTIVE&#45;&gt;S_IDLE</title>
<path fill="none" stroke="#cc6666" stroke-dasharray="5,2" d="M280.18,-204.08C285.92,-209.37 290.97,-215.32 294.94,-222 409.69,-415.14 311.85,-350.78 295.94,-388 292.22,-396.71 286.69,-404.81 280.36,-412.13"/>
<polygon fill="#cc6666" stroke="#cc6666" points="277.51,-410.07 273.24,-419.76 282.62,-414.84 277.51,-410.07"/>
<text text-anchor="middle" x="393.94" y="-317.8" font-family="Cascadia Code PL" font-size="9.00" fill="#aaaaaa"> &#160;Escape / Ctrl+D</text>
<text text-anchor="middle" x="393.94" y="-307.8" font-family="Cascadia Code PL" font-size="9.00" fill="#aaaaaa"> &#160;Deselect all</text>
<text text-anchor="middle" x="393.94" y="-297.8" font-family="Cascadia Code PL" font-size="9.00" fill="#aaaaaa"> &#160;MARQUEE_reset()</text>
</g>
<!-- S_ACTIVE&#45;&gt;S_DRAWING -->
<g id="edge8" class="edge">
<title>S_ACTIVE&#45;&gt;S_DRAWING</title>
<path fill="none" stroke="#66cc66" d="M84.59,-204.04C78.58,-209.3 73.25,-215.26 68.94,-222 60.08,-235.87 64.67,-249.7 75.09,-262.1"/>
<polygon fill="#66cc66" stroke="#66cc66" points="72.82,-264.8 82.25,-269.63 77.89,-259.98 72.82,-264.8"/>
<text text-anchor="middle" x="117.44" y="-244.8" font-family="Cascadia Code PL" font-size="9.00" fill="#aaaaaa"> &#160;B1 outside selection</text>
<text text-anchor="middle" x="117.44" y="-234.8" font-family="Cascadia Code PL" font-size="9.00" fill="#aaaaaa"> &#160;Start new selection</text>
<text text-anchor="middle" x="117.44" y="-224.8" font-family="Cascadia Code PL" font-size="9.00" fill="#aaaaaa"> &#160;(Replace mode)</text>
</g>
<!-- S_ACTIVE&#45;&gt;S_ACTIVE -->
<g id="edge10" class="edge">
<title>S_ACTIVE&#45;&gt;S_ACTIVE</title>
<path fill="none" stroke="#88aacc" d="M319.64,-173.95C330.6,-171.83 337.44,-168.52 337.44,-164 337.44,-161.04 334.49,-158.59 329.37,-156.66"/>
<polygon fill="#88aacc" stroke="#88aacc" points="330.2,-153.26 319.64,-154.05 328.39,-160.02 330.2,-153.26"/>
<text text-anchor="middle" x="408.44" y="-166.8" font-family="Cascadia Code PL" font-size="9.00" fill="#aaaaaa"> Ctrl+H toggle SHOW_OVERLAY</text>
<text text-anchor="middle" x="408.44" y="-156.8" font-family="Cascadia Code PL" font-size="9.00" fill="#aaaaaa"> (hide ants, keep selection)</text>
</g>
<!-- S_MODIFY -->
<g id="node7" class="node">
<title>S_MODIFY</title>
<polygon fill="none" stroke="white" points="168.44,-68 7.44,-68 7.44,0 168.44,0 168.44,-68"/>
<text text-anchor="middle" x="87.94" y="-55.2" font-family="Cascadia Code PL" font-size="11.00" fill="cyan">4 · MODIFYING SELECTION</text>
<text text-anchor="middle" x="87.94" y="-43.2" font-family="Cascadia Code PL" font-size="11.00" fill="cyan">─────────────────</text>
<text text-anchor="middle" x="87.94" y="-31.2" font-family="Cascadia Code PL" font-size="11.00" fill="cyan">Add/Subtract</text>
<text text-anchor="middle" x="87.94" y="-19.2" font-family="Cascadia Code PL" font-size="11.00" fill="cyan">Shift+drag = add</text>
<text text-anchor="middle" x="87.94" y="-7.2" font-family="Cascadia Code PL" font-size="11.00" fill="cyan">Alt+drag = subtract</text>
</g>
<!-- S_ACTIVE&#45;&gt;S_MODIFY -->
<g id="edge3" class="edge">
<title>S_ACTIVE&#45;&gt;S_MODIFY</title>
<path fill="none" stroke="#66cc66" d="M64.01,-147.6C40.93,-138.92 19.59,-125.77 4.94,-106 -3.24,-94.95 -0.13,-84.46 8.53,-75.11"/>
<polygon fill="#66cc66" stroke="#66cc66" points="11.11,-77.5 16.15,-68.18 6.4,-72.32 11.11,-77.5"/>
<text text-anchor="middle" x="59.44" y="-98.8" font-family="Cascadia Code PL" font-size="9.00" fill="#aaaaaa"> &#160;Shift/Alt+B1 drag</text>
<text text-anchor="middle" x="59.44" y="-88.8" font-family="Cascadia Code PL" font-size="9.00" fill="#aaaaaa"> &#160;Add/subtract selection</text>
</g>
<!-- S_MOVING -->
<g id="node8" class="node">
<title>S_MOVING</title>
<polygon fill="none" stroke="white" points="369.94,-68 221.94,-68 221.94,0 369.94,0 369.94,-68"/>
<text text-anchor="middle" x="295.94" y="-55.2" font-family="Cascadia Code PL" font-size="11.00" fill="cyan">5 · MOVING SELECTION</text>
<text text-anchor="middle" x="295.94" y="-43.2" font-family="Cascadia Code PL" font-size="11.00" fill="cyan">─────────────────</text>
<text text-anchor="middle" x="295.94" y="-31.2" font-family="Cascadia Code PL" font-size="11.00" fill="cyan">Drag inside selection</text>
<text text-anchor="middle" x="295.94" y="-19.2" font-family="Cascadia Code PL" font-size="11.00" fill="cyan">Float and move content</text>
<text text-anchor="middle" x="295.94" y="-7.2" font-family="Cascadia Code PL" font-size="11.00" fill="cyan">MOVE tool integration</text>
</g>
<!-- S_ACTIVE&#45;&gt;S_MOVING -->
<g id="edge5" class="edge">
<title>S_ACTIVE&#45;&gt;S_MOVING</title>
<path fill="none" stroke="#66cc66" d="M219.56,-124C228.65,-111.63 238.98,-98.05 248.94,-86 251.78,-82.57 254.78,-79.06 257.84,-75.57"/>
<polygon fill="#66cc66" stroke="#66cc66" points="260.53,-77.81 264.57,-68.01 255.31,-73.15 260.53,-77.81"/>
<text text-anchor="middle" x="306.44" y="-98.8" font-family="Cascadia Code PL" font-size="9.00" fill="#aaaaaa"> &#160;B1 drag inside selection</text>
<text text-anchor="middle" x="306.44" y="-88.8" font-family="Cascadia Code PL" font-size="9.00" fill="#aaaaaa"> &#160;Float content</text>
</g>
<!-- S_MODIFY&#45;&gt;S_ACTIVE -->
<g id="edge4" class="edge">
<title>S_MODIFY&#45;&gt;S_ACTIVE</title>
<path fill="none" stroke="#cccc66" d="M109.3,-68.33C117.52,-80.5 127.27,-94.18 136.94,-106 139.76,-109.45 142.75,-112.93 145.81,-116.39"/>
<polygon fill="#cccc66" stroke="#cccc66" points="143.31,-118.84 152.61,-123.9 148.5,-114.14 143.31,-118.84"/>
<text text-anchor="middle" x="181.44" y="-98.8" font-family="Cascadia Code PL" font-size="9.00" fill="#aaaaaa"> &#160;B1 released</text>
<text text-anchor="middle" x="181.44" y="-88.8" font-family="Cascadia Code PL" font-size="9.00" fill="#aaaaaa"> &#160;Selection updated</text>
</g>
<!-- S_MOVING&#45;&gt;S_ACTIVE -->
<g id="edge6" class="edge">
<title>S_MOVING&#45;&gt;S_ACTIVE</title>
<path fill="none" stroke="#cccc66" d="M354.06,-68.33C366.52,-79.69 373.43,-92.85 363.94,-106 354.73,-118.76 342.54,-128.71 328.9,-136.46"/>
<polygon fill="#cccc66" stroke="#cccc66" points="326.99,-133.51 319.74,-141.25 330.23,-139.72 326.99,-133.51"/>
<text text-anchor="middle" x="406.94" y="-98.8" font-family="Cascadia Code PL" font-size="9.00" fill="#aaaaaa"> &#160;B1 released</text>
<text text-anchor="middle" x="406.94" y="-88.8" font-family="Cascadia Code PL" font-size="9.00" fill="#aaaaaa"> &#160;Content placed</text>
</g>
<!-- SH_FREE -->
<g id="node10" class="node">
<title>SH_FREE</title>
<polygon fill="none" stroke="white" points="976.44,-491 833.44,-491 833.44,-417 976.44,-417 976.44,-491"/>
<text text-anchor="middle" x="904.94" y="-479" font-family="Cascadia Code PL" font-size="10.00" fill="cyan">Freehand</text>
<text text-anchor="middle" x="904.94" y="-468" font-family="Cascadia Code PL" font-size="10.00" fill="cyan">────────────</text>
<text text-anchor="middle" x="904.94" y="-457" font-family="Cascadia Code PL" font-size="10.00" fill="cyan">TOOL_SELECT_FREEHAND</text>
<text text-anchor="middle" x="904.94" y="-446" font-family="Cascadia Code PL" font-size="10.00" fill="cyan">Draw freeform boundary</text>
<text text-anchor="middle" x="904.94" y="-435" font-family="Cascadia Code PL" font-size="10.00" fill="cyan">Auto&#45;close on release</text>
<text text-anchor="middle" x="904.94" y="-424" font-family="Cascadia Code PL" font-size="10.00" fill="cyan">Irregular selection</text>
</g>
<!-- SH_POLY -->
<g id="node11" class="node">
<title>SH_POLY</title>
<polygon fill="none" stroke="white" points="814.94,-491 678.94,-491 678.94,-417 814.94,-417 814.94,-491"/>
<text text-anchor="middle" x="746.94" y="-479" font-family="Cascadia Code PL" font-size="10.00" fill="cyan">Polygonal</text>
<text text-anchor="middle" x="746.94" y="-468" font-family="Cascadia Code PL" font-size="10.00" fill="cyan">────────────</text>
<text text-anchor="middle" x="746.94" y="-457" font-family="Cascadia Code PL" font-size="10.00" fill="cyan">TOOL_SELECT_POLYGON</text>
<text text-anchor="middle" x="746.94" y="-446" font-family="Cascadia Code PL" font-size="10.00" fill="cyan">Click to add vertices</text>
<text text-anchor="middle" x="746.94" y="-435" font-family="Cascadia Code PL" font-size="10.00" fill="cyan">Double&#45;click to close</text>
<text text-anchor="middle" x="746.94" y="-424" font-family="Cascadia Code PL" font-size="10.00" fill="cyan">Straight&#45;edge selection</text>
</g>
<!-- SH_ELLIPSE -->
<g id="node12" class="node">
<title>SH_ELLIPSE</title>
<polygon fill="none" stroke="white" points="660.44,-491 533.44,-491 533.44,-417 660.44,-417 660.44,-491"/>
<text text-anchor="middle" x="596.94" y="-479" font-family="Cascadia Code PL" font-size="10.00" fill="cyan">Ellipse</text>
<text text-anchor="middle" x="596.94" y="-468" font-family="Cascadia Code PL" font-size="10.00" fill="cyan">────────────</text>
<text text-anchor="middle" x="596.94" y="-457" font-family="Cascadia Code PL" font-size="10.00" fill="cyan">TOOL_SELECT_ELLIPSE</text>
<text text-anchor="middle" x="596.94" y="-446" font-family="Cascadia Code PL" font-size="10.00" fill="cyan">Drag bounding box</text>
<text text-anchor="middle" x="596.94" y="-435" font-family="Cascadia Code PL" font-size="10.00" fill="cyan">Shift = circle</text>
<text text-anchor="middle" x="596.94" y="-424" font-family="Cascadia Code PL" font-size="10.00" fill="cyan">Elliptical selection</text>
</g>
<!-- SH_WAND -->
<g id="node13" class="node">
<title>SH_WAND</title>
<polygon fill="none" stroke="white" points="515.44,-502 330.44,-502 330.44,-406 515.44,-406 515.44,-502"/>
<text text-anchor="middle" x="422.94" y="-490" font-family="Cascadia Code PL" font-size="10.00" fill="cyan">Magic Wand</text>
<text text-anchor="middle" x="422.94" y="-479" font-family="Cascadia Code PL" font-size="10.00" fill="cyan">────────────</text>
<text text-anchor="middle" x="422.94" y="-468" font-family="Cascadia Code PL" font-size="10.00" fill="cyan">TOOL_SELECT_WAND</text>
<text text-anchor="middle" x="422.94" y="-457" font-family="Cascadia Code PL" font-size="10.00" fill="cyan">Click = select_with_mode</text>
<text text-anchor="middle" x="422.94" y="-446" font-family="Cascadia Code PL" font-size="10.00" fill="cyan">Hold E = erase&#45;flood</text>
<text text-anchor="middle" x="422.94" y="-435" font-family="Cascadia Code PL" font-size="10.00" fill="cyan">Hold F = fill&#45;flood</text>
<text text-anchor="middle" x="422.94" y="-424" font-family="Cascadia Code PL" font-size="10.00" fill="cyan">Hold W = select_all_color_merged</text>
<text text-anchor="middle" x="422.94" y="-413" font-family="Cascadia Code PL" font-size="10.00" fill="cyan">Replace/Add/Subtract</text>
</g>
<!-- MD_ADD -->
<g id="node15" class="node">
<title>MD_ADD</title>
<polygon fill="none" stroke="white" points="1261.44,-341.5 1152.44,-341.5 1152.44,-278.5 1261.44,-278.5 1261.44,-341.5"/>
<text text-anchor="middle" x="1206.94" y="-329.5" font-family="Cascadia Code PL" font-size="10.00" fill="cyan">Add</text>
<text text-anchor="middle" x="1206.94" y="-318.5" font-family="Cascadia Code PL" font-size="10.00" fill="cyan">────────────</text>
<text text-anchor="middle" x="1206.94" y="-307.5" font-family="Cascadia Code PL" font-size="10.00" fill="cyan">Shift held</text>
<text text-anchor="middle" x="1206.94" y="-296.5" font-family="Cascadia Code PL" font-size="10.00" fill="cyan">New area added to</text>
<text text-anchor="middle" x="1206.94" y="-285.5" font-family="Cascadia Code PL" font-size="10.00" fill="cyan">existing selection</text>
</g>
<!-- MD_REPLACE&#45;&gt;MD_ADD -->
<g id="edge11" class="edge">
<title>MD_REPLACE&#45;&gt;MD_ADD</title>
<path fill="none" stroke="#88aacc" d="M1218.69,-422.19C1216.51,-401.63 1213.63,-374.36 1211.27,-351.97"/>
<polygon fill="#88aacc" stroke="#88aacc" points="1214.72,-351.33 1210.19,-341.75 1207.76,-352.06 1214.72,-351.33"/>
<text text-anchor="middle" x="1227.94" y="-376.1" font-family="Cascadia Code PL" font-size="8.00" fill="#aaaaaa"> +Shift</text>
</g>
<!-- MD_SUBTRACT -->
<g id="node16" class="node">
<title>MD_SUBTRACT</title>
<polygon fill="none" stroke="white" points="1415.94,-341.5 1279.94,-341.5 1279.94,-278.5 1415.94,-278.5 1415.94,-341.5"/>
<text text-anchor="middle" x="1347.94" y="-329.5" font-family="Cascadia Code PL" font-size="10.00" fill="cyan">Subtract</text>
<text text-anchor="middle" x="1347.94" y="-318.5" font-family="Cascadia Code PL" font-size="10.00" fill="cyan">────────────</text>
<text text-anchor="middle" x="1347.94" y="-307.5" font-family="Cascadia Code PL" font-size="10.00" fill="cyan">Alt held</text>
<text text-anchor="middle" x="1347.94" y="-296.5" font-family="Cascadia Code PL" font-size="10.00" fill="cyan">New area removed from</text>
<text text-anchor="middle" x="1347.94" y="-285.5" font-family="Cascadia Code PL" font-size="10.00" fill="cyan">existing selection</text>
</g>
<!-- MD_REPLACE&#45;&gt;MD_SUBTRACT -->
<g id="edge12" class="edge">
<title>MD_REPLACE&#45;&gt;MD_SUBTRACT</title>
<path fill="none" stroke="#88aacc" d="M1249.28,-422.19C1268.27,-400.79 1293.7,-372.13 1313.99,-349.26"/>
<polygon fill="#88aacc" stroke="#88aacc" points="1316.63,-351.55 1320.65,-341.75 1311.4,-346.91 1316.63,-351.55"/>
<text text-anchor="middle" x="1305.94" y="-376.1" font-family="Cascadia Code PL" font-size="8.00" fill="#aaaaaa"> +Alt</text>
</g>
<!-- OP_COPY -->
<g id="node17" class="node">
<title>OP_COPY</title>
<polygon fill="none" stroke="white" points="2218.44,-618 2101.44,-618 2101.44,-566 2218.44,-566 2218.44,-618"/>
<text text-anchor="middle" x="2159.94" y="-606" font-family="Cascadia Code PL" font-size="10.00" fill="cyan">Copy (Ctrl+C)</text>
<text text-anchor="middle" x="2159.94" y="-595" font-family="Cascadia Code PL" font-size="10.00" fill="cyan">────────────</text>
<text text-anchor="middle" x="2159.94" y="-584" font-family="Cascadia Code PL" font-size="10.00" fill="cyan">Copy selected pixels</text>
<text text-anchor="middle" x="2159.94" y="-573" font-family="Cascadia Code PL" font-size="10.00" fill="cyan">to clipboard</text>
</g>
<!-- OP_CUT -->
<g id="node18" class="node">
<title>OP_CUT</title>
<polygon fill="none" stroke="white" points="2082.94,-618 1958.94,-618 1958.94,-566 2082.94,-566 2082.94,-618"/>
<text text-anchor="middle" x="2020.94" y="-606" font-family="Cascadia Code PL" font-size="10.00" fill="cyan">Cut (Ctrl+X)</text>
<text text-anchor="middle" x="2020.94" y="-595" font-family="Cascadia Code PL" font-size="10.00" fill="cyan">────────────</text>
<text text-anchor="middle" x="2020.94" y="-584" font-family="Cascadia Code PL" font-size="10.00" fill="cyan">Copy + clear selected</text>
<text text-anchor="middle" x="2020.94" y="-573" font-family="Cascadia Code PL" font-size="10.00" fill="cyan">area to transparent</text>
</g>
<!-- OP_PASTE -->
<g id="node19" class="node">
<title>OP_PASTE</title>
<polygon fill="none" stroke="white" points="1940.44,-618 1839.44,-618 1839.44,-566 1940.44,-566 1940.44,-618"/>
<text text-anchor="middle" x="1889.94" y="-606" font-family="Cascadia Code PL" font-size="10.00" fill="cyan">Paste (Ctrl+V)</text>
<text text-anchor="middle" x="1889.94" y="-595" font-family="Cascadia Code PL" font-size="10.00" fill="cyan">────────────</text>
<text text-anchor="middle" x="1889.94" y="-584" font-family="Cascadia Code PL" font-size="10.00" fill="cyan">New layer with</text>
<text text-anchor="middle" x="1889.94" y="-573" font-family="Cascadia Code PL" font-size="10.00" fill="cyan">clipboard content</text>
</g>
<!-- OP_CLEAR -->
<g id="node20" class="node">
<title>OP_CLEAR</title>
<polygon fill="none" stroke="white" points="1821.44,-618 1704.44,-618 1704.44,-566 1821.44,-566 1821.44,-618"/>
<text text-anchor="middle" x="1762.94" y="-606" font-family="Cascadia Code PL" font-size="10.00" fill="cyan">Clear (Del)</text>
<text text-anchor="middle" x="1762.94" y="-595" font-family="Cascadia Code PL" font-size="10.00" fill="cyan">────────────</text>
<text text-anchor="middle" x="1762.94" y="-584" font-family="Cascadia Code PL" font-size="10.00" fill="cyan">Fill selection with</text>
<text text-anchor="middle" x="1762.94" y="-573" font-family="Cascadia Code PL" font-size="10.00" fill="cyan">transparent/BG color</text>
</g>
<!-- OP_ALL -->
<g id="node21" class="node">
<title>OP_ALL</title>
<polygon fill="none" stroke="white" points="1685.94,-612.5 1569.94,-612.5 1569.94,-571.5 1685.94,-571.5 1685.94,-612.5"/>
<text text-anchor="middle" x="1627.94" y="-600.5" font-family="Cascadia Code PL" font-size="10.00" fill="cyan">Select All (Ctrl+A)</text>
<text text-anchor="middle" x="1627.94" y="-589.5" font-family="Cascadia Code PL" font-size="10.00" fill="cyan">────────────</text>
<text text-anchor="middle" x="1627.94" y="-578.5" font-family="Cascadia Code PL" font-size="10.00" fill="cyan">Select entire canvas</text>
</g>
<!-- OP_INVERT -->
<g id="node22" class="node">
<title>OP_INVERT</title>
<polygon fill="none" stroke="white" points="1551.94,-612.5 1429.94,-612.5 1429.94,-571.5 1551.94,-571.5 1551.94,-612.5"/>
<text text-anchor="middle" x="1490.94" y="-600.5" font-family="Cascadia Code PL" font-size="10.00" fill="cyan">Invert (Ctrl+Shift+I)</text>
<text text-anchor="middle" x="1490.94" y="-589.5" font-family="Cascadia Code PL" font-size="10.00" fill="cyan">────────────</text>
<text text-anchor="middle" x="1490.94" y="-578.5" font-family="Cascadia Code PL" font-size="10.00" fill="cyan">Invert selection mask</text>
</g>
<!-- OP_CROP -->
<g id="node23" class="node">
<title>OP_CROP</title>
<polygon fill="none" stroke="white" points="1411.94,-618 1311.94,-618 1311.94,-566 1411.94,-566 1411.94,-618"/>
<text text-anchor="middle" x="1361.94" y="-606" font-family="Cascadia Code PL" font-size="10.00" fill="cyan">Crop to Selection</text>
<text text-anchor="middle" x="1361.94" y="-595" font-family="Cascadia Code PL" font-size="10.00" fill="cyan">────────────</text>
<text text-anchor="middle" x="1361.94" y="-584" font-family="Cascadia Code PL" font-size="10.00" fill="cyan">Resize canvas to</text>
<text text-anchor="middle" x="1361.94" y="-573" font-family="Cascadia Code PL" font-size="10.00" fill="cyan">selection bounds</text>
</g>
<!-- L1 -->
<g id="node24" class="node">
<title>L1</title>
<ellipse fill="white" stroke="white" cx="2460.94" cy="-592" rx="0.36" ry="0.36"/>
</g>
<!-- L2 -->
<g id="node25" class="node">
<title>L2</title>
<ellipse fill="white" stroke="white" cx="2460.94" cy="-454" rx="0.36" ry="0.36"/>
</g>
<!-- L1&#45;&gt;L2 -->
<g id="edge16" class="edge">
<title>L1&#45;&gt;L2</title>
<path fill="none" stroke="#66cc66" d="M2460.94,-590.9C2460.94,-587.5 2460.94,-496.84 2460.94,-465.52"/>
<polygon fill="#66cc66" stroke="#66cc66" points="2464.44,-465.1 2460.94,-455.1 2457.44,-465.1 2464.44,-465.1"/>
<text text-anchor="middle" x="2492.94" y="-540.8" font-family="Cascadia Code PL" font-size="9.00" fill="#aaaaaa"> Start / Modify</text>
</g>
<!-- L3 -->
<g id="node26" class="node">
<title>L3</title>
<ellipse fill="white" stroke="white" cx="2356.94" cy="-592" rx="0.36" ry="0.36"/>
</g>
<!-- L4 -->
<g id="node27" class="node">
<title>L4</title>
<ellipse fill="white" stroke="white" cx="2356.94" cy="-454" rx="0.36" ry="0.36"/>
</g>
<!-- L3&#45;&gt;L4 -->
<g id="edge17" class="edge">
<title>L3&#45;&gt;L4</title>
<path fill="none" stroke="#cc6666" stroke-dasharray="5,2" d="M2356.94,-590.9C2356.94,-587.5 2356.94,-496.84 2356.94,-465.52"/>
<polygon fill="#cc6666" stroke="#cc6666" points="2360.44,-465.1 2356.94,-455.1 2353.44,-465.1 2360.44,-465.1"/>
<text text-anchor="middle" x="2397.44" y="-540.8" font-family="Cascadia Code PL" font-size="9.00" fill="#aaaaaa"> Deselect / Cancel</text>
</g>
<!-- L5 -->
<g id="node28" class="node">
<title>L5</title>
<ellipse fill="white" stroke="white" cx="2260.94" cy="-592" rx="0.36" ry="0.36"/>
</g>
<!-- L6 -->
<g id="node29" class="node">
<title>L6</title>
<ellipse fill="white" stroke="white" cx="2260.94" cy="-454" rx="0.36" ry="0.36"/>
</g>
<!-- L5&#45;&gt;L6 -->
<g id="edge18" class="edge">
<title>L5&#45;&gt;L6</title>
<path fill="none" stroke="#cccc66" d="M2260.94,-590.9C2260.94,-587.5 2260.94,-496.84 2260.94,-465.52"/>
<polygon fill="#cccc66" stroke="#cccc66" points="2264.44,-465.1 2260.94,-455.1 2257.44,-465.1 2264.44,-465.1"/>
<text text-anchor="middle" x="2297.44" y="-540.8" font-family="Cascadia Code PL" font-size="9.00" fill="#aaaaaa"> Commit / Apply</text>
</g>
</g>
</svg>
