<?xml version="1.0" encoding="UTF-8" standalone="no"?>
<!DOCTYPE svg PUBLIC "-//W3C//DTD SVG 1.1//EN"
 "http://www.w3.org/Graphics/SVG/1.1/DTD/svg11.dtd">
<!-- Generated by graphviz version 2.42.4 (0)
 -->
<!-- Title: MARQUEE_TOOL Pages: 1 -->
<svg width="2310pt" height="686pt"
 viewBox="0.00 0.00 2310.02 686.00" xmlns="http://www.w3.org/2000/svg" xmlns:xlink="http://www.w3.org/1999/xlink">
<g id="graph0" class="graph" transform="scale(1 1) rotate(0) translate(4 682)">
<title>MARQUEE_TOOL</title>
<text text-anchor="middle" x="1151.01" y="-654.8" font-family="Cascadia Code PL" font-size="24.00" fill="white">MARQUEE TOOL STATE MACHINE</text>
<g id="clust6" class="cluster">
<title>cluster_legend</title>
<polygon fill="transparent" stroke="white" stroke-dasharray="5,2" points="2021.02,-446.64 2021.02,-610.36 2294.02,-610.36 2294.02,-446.64 2021.02,-446.64"/>
<text text-anchor="middle" x="2049.02" y="-597.56" font-family="Cascadia Code PL" font-size="11.00" fill="white">LEGEND</text>
</g>
<g id="clust2" class="cluster">
<title>cluster_shapes</title>
<polygon fill="transparent" stroke="orange" stroke-dasharray="5,2" points="284.02,-410 284.02,-520 996.02,-520 996.02,-410 284.02,-410"/>
<text text-anchor="middle" x="393.52" y="-507.2" font-family="Cascadia Code PL" font-size="11.00" fill="orange">SELECTION SHAPES — 5 MARQUEE TYPES</text>
</g>
<g id="clust3" class="cluster">
<title>cluster_modes</title>
<polygon fill="transparent" stroke="orange" stroke-dasharray="5,2" points="1006.02,-136.5 1006.02,-514.5 1269.02,-514.5 1269.02,-136.5 1006.02,-136.5"/>
<text text-anchor="middle" x="1115.02" y="-501.7" font-family="Cascadia Code PL" font-size="11.00" fill="orange">SELECTION MODES — Combine Behavior</text>
</g>
<g id="clust4" class="cluster">
<title>cluster_ops</title>
<polygon fill="transparent" stroke="orange" stroke-dasharray="5,2" points="1151.02,-548 1151.02,-636 2013.02,-636 2013.02,-548 1151.02,-548"/>
<text text-anchor="middle" x="1219.52" y="-623.2" font-family="Cascadia Code PL" font-size="11.00" fill="orange">SELECTION OPERATIONS</text>
</g>
<!-- MAIN -->
<g id="node1" class="node">
<title>MAIN</title>
<polygon fill="none" stroke="orange" stroke-width="2" points="247.02,-600 244.02,-604 223.02,-604 220.02,-600 153.02,-600 153.02,-564 247.02,-564 247.02,-600"/>
<text text-anchor="middle" x="200.02" y="-578.6" font-family="Cascadia Code PL" font-size="13.00" fill="orange">MAIN STATES</text>
</g>
<!-- S_IDLE -->
<g id="node4" class="node">
<title>S_IDLE</title>
<polygon fill="none" stroke="white" points="274.02,-489 126.02,-489 126.02,-421 274.02,-421 274.02,-489"/>
<text text-anchor="middle" x="200.02" y="-476.2" font-family="Cascadia Code PL" font-size="11.00" fill="cyan">1 · IDLE</text>
<text text-anchor="middle" x="200.02" y="-464.2" font-family="Cascadia Code PL" font-size="11.00" fill="cyan">─────────────────</text>
<text text-anchor="middle" x="200.02" y="-452.2" font-family="Cascadia Code PL" font-size="11.00" fill="cyan">No selection active</text>
<text text-anchor="middle" x="200.02" y="-440.2" font-family="Cascadia Code PL" font-size="11.00" fill="cyan">MARQUEE.active% = FALSE</text>
<text text-anchor="middle" x="200.02" y="-428.2" font-family="Cascadia Code PL" font-size="11.00" fill="cyan">Marching ants not visible</text>
</g>
<!-- MAIN&#45;&gt;S_IDLE -->
<g id="edge14" class="edge">
<title>MAIN&#45;&gt;S_IDLE</title>
<path fill="none" stroke="#555555" stroke-dasharray="1,5" d="M200.02,-563.88C200.02,-544.69 200.02,-513.12 200.02,-489.07"/>
</g>
<!-- SHAPES -->
<g id="node2" class="node">
<title>SHAPES</title>
<polygon fill="none" stroke="orange" stroke-width="2" points="993.02,-600 990.02,-604 969.02,-604 966.02,-600 863.02,-600 863.02,-564 993.02,-564 993.02,-600"/>
<text text-anchor="middle" x="928.02" y="-578.6" font-family="Cascadia Code PL" font-size="13.00" fill="orange">SELECTION SHAPES</text>
</g>
<!-- SH_RECT -->
<g id="node9" class="node">
<title>SH_RECT</title>
<polygon fill="none" stroke="white" points="987.52,-492 868.52,-492 868.52,-418 987.52,-418 987.52,-492"/>
<text text-anchor="middle" x="928.02" y="-480" font-family="Cascadia Code PL" font-size="10.00" fill="cyan">Rectangle</text>
<text text-anchor="middle" x="928.02" y="-469" font-family="Cascadia Code PL" font-size="10.00" fill="cyan">────────────</text>
<text text-anchor="middle" x="928.02" y="-458" font-family="Cascadia Code PL" font-size="10.00" fill="cyan">TOOL_SELECT_RECT</text>
<text text-anchor="middle" x="928.02" y="-447" font-family="Cascadia Code PL" font-size="10.00" fill="cyan">Drag corner&#45;to&#45;corner</text>
<text text-anchor="middle" x="928.02" y="-436" font-family="Cascadia Code PL" font-size="10.00" fill="cyan">Shift = square</text>
<text text-anchor="middle" x="928.02" y="-425" font-family="Cascadia Code PL" font-size="10.00" fill="cyan">Standard selection box</text>
</g>
<!-- SHAPES&#45;&gt;SH_RECT -->
<g id="edge15" class="edge">
<title>SHAPES&#45;&gt;SH_RECT</title>
<path fill="none" stroke="#555555" stroke-dasharray="1,5" d="M928.02,-563.88C928.02,-552.3 928.02,-536.22 928.02,-520"/>
</g>
<!-- MODES_F -->
<g id="node3" class="node">
<title>MODES_F</title>
<polygon fill="none" stroke="orange" stroke-width="2" points="1140.52,-600 1137.52,-604 1116.52,-604 1113.52,-600 1011.52,-600 1011.52,-564 1140.52,-564 1140.52,-600"/>
<text text-anchor="middle" x="1076.02" y="-578.6" font-family="Cascadia Code PL" font-size="13.00" fill="orange">SELECTION MODES</text>
</g>
<!-- MD_REPLACE -->
<g id="node14" class="node">
<title>MD_REPLACE</title>
<polygon fill="none" stroke="white" points="1135.52,-486.5 1016.52,-486.5 1016.52,-423.5 1135.52,-423.5 1135.52,-486.5"/>
<text text-anchor="middle" x="1076.02" y="-474.5" font-family="Cascadia Code PL" font-size="10.00" fill="cyan">Replace</text>
<text text-anchor="middle" x="1076.02" y="-463.5" font-family="Cascadia Code PL" font-size="10.00" fill="cyan">────────────</text>
<text text-anchor="middle" x="1076.02" y="-452.5" font-family="Cascadia Code PL" font-size="10.00" fill="cyan">No modifier held</text>
<text text-anchor="middle" x="1076.02" y="-441.5" font-family="Cascadia Code PL" font-size="10.00" fill="cyan">New selection replaces</text>
<text text-anchor="middle" x="1076.02" y="-430.5" font-family="Cascadia Code PL" font-size="10.00" fill="cyan">previous entirely</text>
</g>
<!-- MODES_F&#45;&gt;MD_REPLACE -->
<g id="edge16" class="edge">
<title>MODES_F&#45;&gt;MD_REPLACE</title>
<path fill="none" stroke="#555555" stroke-dasharray="1,5" d="M1076.02,-563.88C1076.02,-550.99 1076.02,-532.52 1076.02,-514.5"/>
</g>
<!-- S_DRAWING -->
<g id="node5" class="node">
<title>S_DRAWING</title>
<polygon fill="none" stroke="white" points="201.02,-362 61.02,-362 61.02,-282 201.02,-282 201.02,-362"/>
<text text-anchor="middle" x="131.02" y="-349.2" font-family="Cascadia Code PL" font-size="11.00" fill="cyan">2 · DRAWING SELECTION</text>
<text text-anchor="middle" x="131.02" y="-337.2" font-family="Cascadia Code PL" font-size="11.00" fill="cyan">─────────────────</text>
<text text-anchor="middle" x="131.02" y="-325.2" font-family="Cascadia Code PL" font-size="11.00" fill="cyan">B1 drag on canvas</text>
<text text-anchor="middle" x="131.02" y="-313.2" font-family="Cascadia Code PL" font-size="11.00" fill="cyan">Rubberband preview</text>
<text text-anchor="middle" x="131.02" y="-301.2" font-family="Cascadia Code PL" font-size="11.00" fill="cyan">Shape depends on mode</text>
<text text-anchor="middle" x="131.02" y="-289.2" font-family="Cascadia Code PL" font-size="11.00" fill="cyan">Shift = square/circle</text>
</g>
<!-- S_IDLE&#45;&gt;S_DRAWING -->
<g id="edge1" class="edge">
<title>S_IDLE&#45;&gt;S_DRAWING</title>
<path fill="none" stroke="#66cc66" d="M125.97,-430.78C112.47,-423.14 100.12,-413.11 92.02,-400 86.41,-390.92 86.94,-380.93 90.63,-371.24"/>
<polygon fill="#66cc66" stroke="#66cc66" points="93.86,-372.61 95.04,-362.08 87.55,-369.58 93.86,-372.61"/>
<text text-anchor="middle" x="135.02" y="-392.8" font-family="Cascadia Code PL" font-size="9.00" fill="#aaaaaa"> &#160;B1 drag on canvas</text>
<text text-anchor="middle" x="135.02" y="-382.8" font-family="Cascadia Code PL" font-size="9.00" fill="#aaaaaa"> &#160;Start selection shape</text>
</g>
<!-- S_DRAWING&#45;&gt;S_IDLE -->
<g id="edge9" class="edge">
<title>S_DRAWING&#45;&gt;S_IDLE</title>
<path fill="none" stroke="#cc6666" stroke-dasharray="5,2" d="M166.55,-362.04C170.79,-367.82 174.77,-373.89 178.02,-380 183.13,-389.59 187.21,-400.53 190.4,-411"/>
<polygon fill="#cc6666" stroke="#cc6666" points="187.09,-412.18 193.19,-420.84 193.83,-410.27 187.09,-412.18"/>
<text text-anchor="middle" x="220.02" y="-392.8" font-family="Cascadia Code PL" font-size="9.00" fill="#aaaaaa"> &#160;Escape</text>
<text text-anchor="middle" x="220.02" y="-382.8" font-family="Cascadia Code PL" font-size="9.00" fill="#aaaaaa"> &#160;Cancel drawing</text>
</g>
<!-- S_ACTIVE -->
<g id="node6" class="node">
<title>S_ACTIVE</title>
<polygon fill="none" stroke="white" points="243.52,-216 98.52,-216 98.52,-136 243.52,-136 243.52,-216"/>
<text text-anchor="middle" x="171.02" y="-203.2" font-family="Cascadia Code PL" font-size="11.00" fill="cyan">3 · SELECTION ACTIVE</text>
<text text-anchor="middle" x="171.02" y="-191.2" font-family="Cascadia Code PL" font-size="11.00" fill="cyan">─────────────────</text>
<text text-anchor="middle" x="171.02" y="-179.2" font-family="Cascadia Code PL" font-size="11.00" fill="cyan">MARQUEE.active% = TRUE</text>
<text text-anchor="middle" x="171.02" y="-167.2" font-family="Cascadia Code PL" font-size="11.00" fill="cyan">Marching ants animation</text>
<text text-anchor="middle" x="171.02" y="-155.2" font-family="Cascadia Code PL" font-size="11.00" fill="cyan">Selection mask valid</text>
<text text-anchor="middle" x="171.02" y="-143.2" font-family="Cascadia Code PL" font-size="11.00" fill="cyan">Copy/Cut/Move available</text>
</g>
<!-- S_DRAWING&#45;&gt;S_ACTIVE -->
<g id="edge2" class="edge">
<title>S_DRAWING&#45;&gt;S_ACTIVE</title>
<path fill="none" stroke="#cccc66" d="M143.72,-281.84C145.55,-275.88 147.38,-269.79 149.02,-264 152.52,-251.7 156.03,-238.35 159.19,-225.88"/>
<polygon fill="#cccc66" stroke="#cccc66" points="162.61,-226.66 161.65,-216.11 155.82,-224.95 162.61,-226.66"/>
<text text-anchor="middle" x="204.52" y="-256.8" font-family="Cascadia Code PL" font-size="9.00" fill="#aaaaaa"> &#160;B1 released</text>
<text text-anchor="middle" x="204.52" y="-246.8" font-family="Cascadia Code PL" font-size="9.00" fill="#aaaaaa"> &#160;Selection mask created</text>
<text text-anchor="middle" x="204.52" y="-236.8" font-family="Cascadia Code PL" font-size="9.00" fill="#aaaaaa"> &#160;Marching ants start</text>
</g>
<!-- S_ACTIVE&#45;&gt;S_IDLE -->
<g id="edge7" class="edge">
<title>S_ACTIVE&#45;&gt;S_IDLE</title>
<path fill="none" stroke="#cc6666" stroke-dasharray="5,2" d="M242.5,-216.12C247.83,-221.48 252.49,-227.43 256.02,-234 366.34,-439.11 272.33,-364.42 257.02,-400 255.1,-404.46 252.62,-408.73 249.75,-412.76"/>
<polygon fill="#cc6666" stroke="#cc6666" points="246.91,-410.72 243.41,-420.72 252.38,-415.08 246.91,-410.72"/>
<text text-anchor="middle" x="346.52" y="-329.8" font-family="Cascadia Code PL" font-size="9.00" fill="#aaaaaa"> &#160;Escape / Ctrl+D</text>
<text text-anchor="middle" x="346.52" y="-319.8" font-family="Cascadia Code PL" font-size="9.00" fill="#aaaaaa"> &#160;Deselect all</text>
<text text-anchor="middle" x="346.52" y="-309.8" font-family="Cascadia Code PL" font-size="9.00" fill="#aaaaaa"> &#160;MARQUEE_reset()</text>
</g>
<!-- S_ACTIVE&#45;&gt;S_DRAWING -->
<g id="edge8" class="edge">
<title>S_ACTIVE&#45;&gt;S_DRAWING</title>
<path fill="none" stroke="#66cc66" d="M98.36,-200.4C83.53,-208.63 69.8,-219.57 61.02,-234 52.68,-247.72 57.06,-261.66 66.81,-274.26"/>
<polygon fill="#66cc66" stroke="#66cc66" points="64.28,-276.69 73.5,-281.91 69.55,-272.08 64.28,-276.69"/>
<text text-anchor="middle" x="103.02" y="-256.8" font-family="Cascadia Code PL" font-size="9.00" fill="#aaaaaa"> &#160;B1 outside selection</text>
<text text-anchor="middle" x="103.02" y="-246.8" font-family="Cascadia Code PL" font-size="9.00" fill="#aaaaaa"> &#160;Start new selection</text>
<text text-anchor="middle" x="103.02" y="-236.8" font-family="Cascadia Code PL" font-size="9.00" fill="#aaaaaa"> &#160;(Replace mode)</text>
</g>
<!-- S_MODIFY -->
<g id="node7" class="node">
<title>S_MODIFY</title>
<polygon fill="none" stroke="white" points="151.02,-80 5.02,-80 5.02,0 151.02,0 151.02,-80"/>
<text text-anchor="middle" x="78.02" y="-67.2" font-family="Cascadia Code PL" font-size="11.00" fill="cyan">4 · MODIFYING SELECTION</text>
<text text-anchor="middle" x="78.02" y="-55.2" font-family="Cascadia Code PL" font-size="11.00" fill="cyan">─────────────────</text>
<text text-anchor="middle" x="78.02" y="-43.2" font-family="Cascadia Code PL" font-size="11.00" fill="cyan">Add/Subtract/Intersect</text>
<text text-anchor="middle" x="78.02" y="-31.2" font-family="Cascadia Code PL" font-size="11.00" fill="cyan">Shift+drag = add</text>
<text text-anchor="middle" x="78.02" y="-19.2" font-family="Cascadia Code PL" font-size="11.00" fill="cyan">Alt+drag = subtract</text>
<text text-anchor="middle" x="78.02" y="-7.2" font-family="Cascadia Code PL" font-size="11.00" fill="cyan">Shift+Alt+drag = intersect</text>
</g>
<!-- S_ACTIVE&#45;&gt;S_MODIFY -->
<g id="edge3" class="edge">
<title>S_ACTIVE&#45;&gt;S_MODIFY</title>
<path fill="none" stroke="#66cc66" d="M98.24,-169.03C64.07,-162.14 26.27,-147.76 5.02,-118 -2.25,-107.81 -0.52,-97.6 5.95,-88.11"/>
<polygon fill="#66cc66" stroke="#66cc66" points="8.73,-90.25 12.41,-80.31 3.34,-85.78 8.73,-90.25"/>
<text text-anchor="middle" x="52.52" y="-110.8" font-family="Cascadia Code PL" font-size="9.00" fill="#aaaaaa"> &#160;Shift/Alt+B1 drag</text>
<text text-anchor="middle" x="52.52" y="-100.8" font-family="Cascadia Code PL" font-size="9.00" fill="#aaaaaa"> &#160;Add/subtract selection</text>
</g>
<!-- S_MOVING -->
<g id="node8" class="node">
<title>S_MOVING</title>
<polygon fill="none" stroke="white" points="331.02,-74 199.02,-74 199.02,-6 331.02,-6 331.02,-74"/>
<text text-anchor="middle" x="265.02" y="-61.2" font-family="Cascadia Code PL" font-size="11.00" fill="cyan">5 · MOVING SELECTION</text>
<text text-anchor="middle" x="265.02" y="-49.2" font-family="Cascadia Code PL" font-size="11.00" fill="cyan">─────────────────</text>
<text text-anchor="middle" x="265.02" y="-37.2" font-family="Cascadia Code PL" font-size="11.00" fill="cyan">Drag inside selection</text>
<text text-anchor="middle" x="265.02" y="-25.2" font-family="Cascadia Code PL" font-size="11.00" fill="cyan">Float and move content</text>
<text text-anchor="middle" x="265.02" y="-13.2" font-family="Cascadia Code PL" font-size="11.00" fill="cyan">MOVE tool integration</text>
</g>
<!-- S_ACTIVE&#45;&gt;S_MOVING -->
<g id="edge5" class="edge">
<title>S_ACTIVE&#45;&gt;S_MOVING</title>
<path fill="none" stroke="#66cc66" d="M196.25,-135.91C204.33,-123.66 213.41,-110.17 222.02,-98 225.64,-92.89 229.5,-87.57 233.38,-82.33"/>
<polygon fill="#66cc66" stroke="#66cc66" points="236.27,-84.31 239.44,-74.2 230.65,-80.13 236.27,-84.31"/>
<text text-anchor="middle" x="271.02" y="-110.8" font-family="Cascadia Code PL" font-size="9.00" fill="#aaaaaa"> &#160;B1 drag inside selection</text>
<text text-anchor="middle" x="271.02" y="-100.8" font-family="Cascadia Code PL" font-size="9.00" fill="#aaaaaa"> &#160;Float content</text>
</g>
<!-- S_MODIFY&#45;&gt;S_ACTIVE -->
<g id="edge4" class="edge">
<title>S_MODIFY&#45;&gt;S_ACTIVE</title>
<path fill="none" stroke="#cccc66" d="M99.2,-80.19C106.34,-92.57 114.63,-106.11 123.02,-118 125.31,-121.24 127.73,-124.52 130.23,-127.78"/>
<polygon fill="#cccc66" stroke="#cccc66" points="127.62,-130.13 136.56,-135.83 133.13,-125.8 127.62,-130.13"/>
<text text-anchor="middle" x="161.02" y="-110.8" font-family="Cascadia Code PL" font-size="9.00" fill="#aaaaaa"> &#160;B1 released</text>
<text text-anchor="middle" x="161.02" y="-100.8" font-family="Cascadia Code PL" font-size="9.00" fill="#aaaaaa"> &#160;Selection updated</text>
</g>
<!-- S_MOVING&#45;&gt;S_ACTIVE -->
<g id="edge6" class="edge">
<title>S_MOVING&#45;&gt;S_ACTIVE</title>
<path fill="none" stroke="#cccc66" d="M309.36,-74.17C322.01,-87.69 329.99,-103.52 320.02,-118 304.64,-140.36 279.2,-153.95 253.67,-162.21"/>
<polygon fill="#cccc66" stroke="#cccc66" points="252.48,-158.91 243.89,-165.12 254.48,-165.62 252.48,-158.91"/>
<text text-anchor="middle" x="357.52" y="-110.8" font-family="Cascadia Code PL" font-size="9.00" fill="#aaaaaa"> &#160;B1 released</text>
<text text-anchor="middle" x="357.52" y="-100.8" font-family="Cascadia Code PL" font-size="9.00" fill="#aaaaaa"> &#160;Content placed</text>
</g>
<!-- SH_FREE -->
<g id="node10" class="node">
<title>SH_FREE</title>
<polygon fill="none" stroke="white" points="850.52,-492 719.52,-492 719.52,-418 850.52,-418 850.52,-492"/>
<text text-anchor="middle" x="785.02" y="-480" font-family="Cascadia Code PL" font-size="10.00" fill="cyan">Freehand</text>
<text text-anchor="middle" x="785.02" y="-469" font-family="Cascadia Code PL" font-size="10.00" fill="cyan">────────────</text>
<text text-anchor="middle" x="785.02" y="-458" font-family="Cascadia Code PL" font-size="10.00" fill="cyan">TOOL_SELECT_FREEHAND</text>
<text text-anchor="middle" x="785.02" y="-447" font-family="Cascadia Code PL" font-size="10.00" fill="cyan">Draw freeform boundary</text>
<text text-anchor="middle" x="785.02" y="-436" font-family="Cascadia Code PL" font-size="10.00" fill="cyan">Auto&#45;close on release</text>
<text text-anchor="middle" x="785.02" y="-425" font-family="Cascadia Code PL" font-size="10.00" fill="cyan">Irregular selection</text>
</g>
<!-- SH_POLY -->
<g id="node11" class="node">
<title>SH_POLY</title>
<polygon fill="none" stroke="white" points="701.02,-492 575.02,-492 575.02,-418 701.02,-418 701.02,-492"/>
<text text-anchor="middle" x="638.02" y="-480" font-family="Cascadia Code PL" font-size="10.00" fill="cyan">Polygonal</text>
<text text-anchor="middle" x="638.02" y="-469" font-family="Cascadia Code PL" font-size="10.00" fill="cyan">────────────</text>
<text text-anchor="middle" x="638.02" y="-458" font-family="Cascadia Code PL" font-size="10.00" fill="cyan">TOOL_SELECT_POLYGON</text>
<text text-anchor="middle" x="638.02" y="-447" font-family="Cascadia Code PL" font-size="10.00" fill="cyan">Click to add vertices</text>
<text text-anchor="middle" x="638.02" y="-436" font-family="Cascadia Code PL" font-size="10.00" fill="cyan">Double&#45;click to close</text>
<text text-anchor="middle" x="638.02" y="-425" font-family="Cascadia Code PL" font-size="10.00" fill="cyan">Straight&#45;edge selection</text>
</g>
<!-- SH_ELLIPSE -->
<g id="node12" class="node">
<title>SH_ELLIPSE</title>
<polygon fill="none" stroke="white" points="556.52,-492 441.52,-492 441.52,-418 556.52,-418 556.52,-492"/>
<text text-anchor="middle" x="499.02" y="-480" font-family="Cascadia Code PL" font-size="10.00" fill="cyan">Ellipse</text>
<text text-anchor="middle" x="499.02" y="-469" font-family="Cascadia Code PL" font-size="10.00" fill="cyan">────────────</text>
<text text-anchor="middle" x="499.02" y="-458" font-family="Cascadia Code PL" font-size="10.00" fill="cyan">TOOL_SELECT_ELLIPSE</text>
<text text-anchor="middle" x="499.02" y="-447" font-family="Cascadia Code PL" font-size="10.00" fill="cyan">Drag bounding box</text>
<text text-anchor="middle" x="499.02" y="-436" font-family="Cascadia Code PL" font-size="10.00" fill="cyan">Shift = circle</text>
<text text-anchor="middle" x="499.02" y="-425" font-family="Cascadia Code PL" font-size="10.00" fill="cyan">Elliptical selection</text>
</g>
<!-- SH_WAND -->
<g id="node13" class="node">
<title>SH_WAND</title>
<polygon fill="none" stroke="white" points="423.52,-492 292.52,-492 292.52,-418 423.52,-418 423.52,-492"/>
<text text-anchor="middle" x="358.02" y="-480" font-family="Cascadia Code PL" font-size="10.00" fill="cyan">Magic Wand</text>
<text text-anchor="middle" x="358.02" y="-469" font-family="Cascadia Code PL" font-size="10.00" fill="cyan">────────────</text>
<text text-anchor="middle" x="358.02" y="-458" font-family="Cascadia Code PL" font-size="10.00" fill="cyan">TOOL_SELECT_WAND</text>
<text text-anchor="middle" x="358.02" y="-447" font-family="Cascadia Code PL" font-size="10.00" fill="cyan">Click to flood&#45;select</text>
<text text-anchor="middle" x="358.02" y="-436" font-family="Cascadia Code PL" font-size="10.00" fill="cyan">Tolerance&#45;based</text>
<text text-anchor="middle" x="358.02" y="-425" font-family="Cascadia Code PL" font-size="10.00" fill="cyan">Contiguous similar colors</text>
</g>
<!-- MD_ADD -->
<g id="node15" class="node">
<title>MD_ADD</title>
<polygon fill="none" stroke="white" points="1117.52,-353.5 1014.52,-353.5 1014.52,-290.5 1117.52,-290.5 1117.52,-353.5"/>
<text text-anchor="middle" x="1066.02" y="-341.5" font-family="Cascadia Code PL" font-size="10.00" fill="cyan">Add</text>
<text text-anchor="middle" x="1066.02" y="-330.5" font-family="Cascadia Code PL" font-size="10.00" fill="cyan">────────────</text>
<text text-anchor="middle" x="1066.02" y="-319.5" font-family="Cascadia Code PL" font-size="10.00" fill="cyan">Shift held</text>
<text text-anchor="middle" x="1066.02" y="-308.5" font-family="Cascadia Code PL" font-size="10.00" fill="cyan">New area added to</text>
<text text-anchor="middle" x="1066.02" y="-297.5" font-family="Cascadia Code PL" font-size="10.00" fill="cyan">existing selection</text>
</g>
<!-- MD_REPLACE&#45;&gt;MD_ADD -->
<g id="edge10" class="edge">
<title>MD_REPLACE&#45;&gt;MD_ADD</title>
<path fill="none" stroke="#88aacc" d="M1073.68,-423.29C1072.32,-405.47 1070.59,-382.81 1069.12,-363.53"/>
<polygon fill="#88aacc" stroke="#88aacc" points="1072.6,-363.23 1068.35,-353.52 1065.62,-363.76 1072.6,-363.23"/>
<text text-anchor="middle" x="1083.52" y="-388.1" font-family="Cascadia Code PL" font-size="8.00" fill="#aaaaaa"> +Shift</text>
</g>
<!-- MD_SUBTRACT -->
<g id="node16" class="node">
<title>MD_SUBTRACT</title>
<polygon fill="none" stroke="white" points="1260.52,-353.5 1135.52,-353.5 1135.52,-290.5 1260.52,-290.5 1260.52,-353.5"/>
<text text-anchor="middle" x="1198.02" y="-341.5" font-family="Cascadia Code PL" font-size="10.00" fill="cyan">Subtract</text>
<text text-anchor="middle" x="1198.02" y="-330.5" font-family="Cascadia Code PL" font-size="10.00" fill="cyan">────────────</text>
<text text-anchor="middle" x="1198.02" y="-319.5" font-family="Cascadia Code PL" font-size="10.00" fill="cyan">Alt held</text>
<text text-anchor="middle" x="1198.02" y="-308.5" font-family="Cascadia Code PL" font-size="10.00" fill="cyan">New area removed from</text>
<text text-anchor="middle" x="1198.02" y="-297.5" font-family="Cascadia Code PL" font-size="10.00" fill="cyan">existing selection</text>
</g>
<!-- MD_REPLACE&#45;&gt;MD_SUBTRACT -->
<g id="edge11" class="edge">
<title>MD_REPLACE&#45;&gt;MD_SUBTRACT</title>
<path fill="none" stroke="#88aacc" d="M1104.63,-423.29C1121.99,-404.64 1144.28,-380.71 1162.73,-360.89"/>
<polygon fill="#88aacc" stroke="#88aacc" points="1165.34,-363.22 1169.6,-353.52 1160.22,-358.45 1165.34,-363.22"/>
<text text-anchor="middle" x="1153.52" y="-388.1" font-family="Cascadia Code PL" font-size="8.00" fill="#aaaaaa"> +Alt</text>
</g>
<!-- MD_INTERSECT -->
<g id="node17" class="node">
<title>MD_INTERSECT</title>
<polygon fill="none" stroke="white" points="1165.52,-207.5 1056.52,-207.5 1056.52,-144.5 1165.52,-144.5 1165.52,-207.5"/>
<text text-anchor="middle" x="1111.02" y="-195.5" font-family="Cascadia Code PL" font-size="10.00" fill="cyan">Intersect</text>
<text text-anchor="middle" x="1111.02" y="-184.5" font-family="Cascadia Code PL" font-size="10.00" fill="cyan">────────────</text>
<text text-anchor="middle" x="1111.02" y="-173.5" font-family="Cascadia Code PL" font-size="10.00" fill="cyan">Shift+Alt held</text>
<text text-anchor="middle" x="1111.02" y="-162.5" font-family="Cascadia Code PL" font-size="10.00" fill="cyan">Keep only overlap of</text>
<text text-anchor="middle" x="1111.02" y="-151.5" font-family="Cascadia Code PL" font-size="10.00" fill="cyan">new and existing</text>
</g>
<!-- MD_ADD&#45;&gt;MD_INTERSECT -->
<g id="edge12" class="edge">
<title>MD_ADD&#45;&gt;MD_INTERSECT</title>
<path fill="none" stroke="#88aacc" d="M1075.57,-290.46C1082.2,-269.22 1091.12,-240.68 1098.35,-217.54"/>
<polygon fill="#88aacc" stroke="#88aacc" points="1101.7,-218.58 1101.34,-207.99 1095.01,-216.49 1101.7,-218.58"/>
<text text-anchor="middle" x="1101.52" y="-247.1" font-family="Cascadia Code PL" font-size="8.00" fill="#aaaaaa"> +Alt</text>
</g>
<!-- MD_SUBTRACT&#45;&gt;MD_INTERSECT -->
<g id="edge13" class="edge">
<title>MD_SUBTRACT&#45;&gt;MD_INTERSECT</title>
<path fill="none" stroke="#88aacc" d="M1179.57,-290.46C1166.57,-268.94 1149.04,-239.92 1134.96,-216.61"/>
<polygon fill="#88aacc" stroke="#88aacc" points="1137.91,-214.74 1129.75,-207.99 1131.92,-218.36 1137.91,-214.74"/>
<text text-anchor="middle" x="1174.52" y="-247.1" font-family="Cascadia Code PL" font-size="8.00" fill="#aaaaaa"> +Shift</text>
</g>
<!-- OP_COPY -->
<g id="node18" class="node">
<title>OP_COPY</title>
<polygon fill="none" stroke="white" points="2005.02,-608 1899.02,-608 1899.02,-556 2005.02,-556 2005.02,-608"/>
<text text-anchor="middle" x="1952.02" y="-596" font-family="Cascadia Code PL" font-size="10.00" fill="cyan">Copy (Ctrl+C)</text>
<text text-anchor="middle" x="1952.02" y="-585" font-family="Cascadia Code PL" font-size="10.00" fill="cyan">────────────</text>
<text text-anchor="middle" x="1952.02" y="-574" font-family="Cascadia Code PL" font-size="10.00" fill="cyan">Copy selected pixels</text>
<text text-anchor="middle" x="1952.02" y="-563" font-family="Cascadia Code PL" font-size="10.00" fill="cyan">to clipboard</text>
</g>
<!-- OP_CUT -->
<g id="node19" class="node">
<title>OP_CUT</title>
<polygon fill="none" stroke="white" points="1881.02,-608 1769.02,-608 1769.02,-556 1881.02,-556 1881.02,-608"/>
<text text-anchor="middle" x="1825.02" y="-596" font-family="Cascadia Code PL" font-size="10.00" fill="cyan">Cut (Ctrl+X)</text>
<text text-anchor="middle" x="1825.02" y="-585" font-family="Cascadia Code PL" font-size="10.00" fill="cyan">────────────</text>
<text text-anchor="middle" x="1825.02" y="-574" font-family="Cascadia Code PL" font-size="10.00" fill="cyan">Copy + clear selected</text>
<text text-anchor="middle" x="1825.02" y="-563" font-family="Cascadia Code PL" font-size="10.00" fill="cyan">area to transparent</text>
</g>
<!-- OP_PASTE -->
<g id="node20" class="node">
<title>OP_PASTE</title>
<polygon fill="none" stroke="white" points="1751.02,-608 1655.02,-608 1655.02,-556 1751.02,-556 1751.02,-608"/>
<text text-anchor="middle" x="1703.02" y="-596" font-family="Cascadia Code PL" font-size="10.00" fill="cyan">Paste (Ctrl+V)</text>
<text text-anchor="middle" x="1703.02" y="-585" font-family="Cascadia Code PL" font-size="10.00" fill="cyan">────────────</text>
<text text-anchor="middle" x="1703.02" y="-574" font-family="Cascadia Code PL" font-size="10.00" fill="cyan">New layer with</text>
<text text-anchor="middle" x="1703.02" y="-563" font-family="Cascadia Code PL" font-size="10.00" fill="cyan">clipboard content</text>
</g>
<!-- OP_CLEAR -->
<g id="node21" class="node">
<title>OP_CLEAR</title>
<polygon fill="none" stroke="white" points="1637.02,-608 1525.02,-608 1525.02,-556 1637.02,-556 1637.02,-608"/>
<text text-anchor="middle" x="1581.02" y="-596" font-family="Cascadia Code PL" font-size="10.00" fill="cyan">Clear (Del)</text>
<text text-anchor="middle" x="1581.02" y="-585" font-family="Cascadia Code PL" font-size="10.00" fill="cyan">────────────</text>
<text text-anchor="middle" x="1581.02" y="-574" font-family="Cascadia Code PL" font-size="10.00" fill="cyan">Fill selection with</text>
<text text-anchor="middle" x="1581.02" y="-563" font-family="Cascadia Code PL" font-size="10.00" fill="cyan">transparent/BG color</text>
</g>
<!-- OP_ALL -->
<g id="node22" class="node">
<title>OP_ALL</title>
<polygon fill="none" stroke="white" points="1506.52,-602.5 1401.52,-602.5 1401.52,-561.5 1506.52,-561.5 1506.52,-602.5"/>
<text text-anchor="middle" x="1454.02" y="-590.5" font-family="Cascadia Code PL" font-size="10.00" fill="cyan">Select All (Ctrl+A)</text>
<text text-anchor="middle" x="1454.02" y="-579.5" font-family="Cascadia Code PL" font-size="10.00" fill="cyan">────────────</text>
<text text-anchor="middle" x="1454.02" y="-568.5" font-family="Cascadia Code PL" font-size="10.00" fill="cyan">Select entire canvas</text>
</g>
<!-- OP_INVERT -->
<g id="node23" class="node">
<title>OP_INVERT</title>
<polygon fill="none" stroke="white" points="1383.02,-602.5 1271.02,-602.5 1271.02,-561.5 1383.02,-561.5 1383.02,-602.5"/>
<text text-anchor="middle" x="1327.02" y="-590.5" font-family="Cascadia Code PL" font-size="10.00" fill="cyan">Invert (Ctrl+Shift+I)</text>
<text text-anchor="middle" x="1327.02" y="-579.5" font-family="Cascadia Code PL" font-size="10.00" fill="cyan">────────────</text>
<text text-anchor="middle" x="1327.02" y="-568.5" font-family="Cascadia Code PL" font-size="10.00" fill="cyan">Invert selection mask</text>
</g>
<!-- OP_CROP -->
<g id="node24" class="node">
<title>OP_CROP</title>
<polygon fill="none" stroke="white" points="1253.02,-608 1159.02,-608 1159.02,-556 1253.02,-556 1253.02,-608"/>
<text text-anchor="middle" x="1206.02" y="-596" font-family="Cascadia Code PL" font-size="10.00" fill="cyan">Crop to Selection</text>
<text text-anchor="middle" x="1206.02" y="-585" font-family="Cascadia Code PL" font-size="10.00" fill="cyan">────────────</text>
<text text-anchor="middle" x="1206.02" y="-574" font-family="Cascadia Code PL" font-size="10.00" fill="cyan">Resize canvas to</text>
<text text-anchor="middle" x="1206.02" y="-563" font-family="Cascadia Code PL" font-size="10.00" fill="cyan">selection bounds</text>
</g>
<!-- L1 -->
<g id="node25" class="node">
<title>L1</title>
<ellipse fill="white" stroke="white" cx="2228.02" cy="-582" rx="0.36" ry="0.36"/>
</g>
<!-- L2 -->
<g id="node26" class="node">
<title>L2</title>
<ellipse fill="white" stroke="white" cx="2228.02" cy="-455" rx="0.36" ry="0.36"/>
</g>
<!-- L1&#45;&gt;L2 -->
<g id="edge17" class="edge">
<title>L1&#45;&gt;L2</title>
<path fill="none" stroke="#66cc66" d="M2228.02,-580.91C2228.02,-577.81 2228.02,-496 2228.02,-466.49"/>
<polygon fill="#66cc66" stroke="#66cc66" points="2231.52,-466.09 2228.02,-456.09 2224.52,-466.09 2231.52,-466.09"/>
<text text-anchor="middle" x="2257.02" y="-530.8" font-family="Cascadia Code PL" font-size="9.00" fill="#aaaaaa"> Start / Modify</text>
</g>
<!-- L3 -->
<g id="node27" class="node">
<title>L3</title>
<ellipse fill="white" stroke="white" cx="2135.02" cy="-582" rx="0.36" ry="0.36"/>
</g>
<!-- L4 -->
<g id="node28" class="node">
<title>L4</title>
<ellipse fill="white" stroke="white" cx="2135.02" cy="-455" rx="0.36" ry="0.36"/>
</g>
<!-- L3&#45;&gt;L4 -->
<g id="edge18" class="edge">
<title>L3&#45;&gt;L4</title>
<path fill="none" stroke="#cc6666" stroke-dasharray="5,2" d="M2135.02,-580.91C2135.02,-577.81 2135.02,-496 2135.02,-466.49"/>
<polygon fill="#cc6666" stroke="#cc6666" points="2138.52,-466.09 2135.02,-456.09 2131.52,-466.09 2138.52,-466.09"/>
<text text-anchor="middle" x="2170.02" y="-530.8" font-family="Cascadia Code PL" font-size="9.00" fill="#aaaaaa"> Deselect / Cancel</text>
</g>
<!-- L5 -->
<g id="node29" class="node">
<title>L5</title>
<ellipse fill="white" stroke="white" cx="2047.02" cy="-582" rx="0.36" ry="0.36"/>
</g>
<!-- L6 -->
<g id="node30" class="node">
<title>L6</title>
<ellipse fill="white" stroke="white" cx="2047.02" cy="-455" rx="0.36" ry="0.36"/>
</g>
<!-- L5&#45;&gt;L6 -->
<g id="edge19" class="edge">
<title>L5&#45;&gt;L6</title>
<path fill="none" stroke="#cccc66" d="M2047.02,-580.91C2047.02,-577.81 2047.02,-496 2047.02,-466.49"/>
<polygon fill="#cccc66" stroke="#cccc66" points="2050.52,-466.09 2047.02,-456.09 2043.52,-466.09 2050.52,-466.09"/>
<text text-anchor="middle" x="2079.52" y="-530.8" font-family="Cascadia Code PL" font-size="9.00" fill="#aaaaaa"> Commit / Apply</text>
</g>
</g>
</svg>
