<?xml version="1.0" encoding="UTF-8" standalone="no"?>
<!DOCTYPE svg PUBLIC "-//W3C//DTD SVG 1.1//EN"
 "http://www.w3.org/Graphics/SVG/1.1/DTD/svg11.dtd">
<!-- Generated by graphviz version 2.42.4 (0)
 -->
<!-- Title: MOVE_TOOL Pages: 1 -->
<svg width="1168pt" height="680pt"
 viewBox="0.00 0.00 1167.92 680.00" xmlns="http://www.w3.org/2000/svg" xmlns:xlink="http://www.w3.org/1999/xlink">
<g id="graph0" class="graph" transform="scale(1 1) rotate(0) translate(4 676)">
<title>MOVE_TOOL</title>
<text text-anchor="middle" x="579.96" y="-648.8" font-family="Cascadia Code PL" font-size="24.00" fill="white">MOVE TOOL STATE MACHINE</text>
<g id="clust5" class="cluster">
<title>cluster_legend</title>
<polygon fill="transparent" stroke="white" stroke-dasharray="5,2" points="869.92,-443.64 869.92,-604.36 1151.92,-604.36 1151.92,-443.64 869.92,-443.64"/>
<text text-anchor="middle" x="897.92" y="-591.56" font-family="Cascadia Code PL" font-size="11.00" fill="white">LEGEND</text>
</g>
<g id="clust2" class="cluster">
<title>cluster_nudge</title>
<polygon fill="transparent" stroke="orange" stroke-dasharray="5,2" points="381.92,-146.5 381.92,-506 678.92,-506 678.92,-146.5 381.92,-146.5"/>
<text text-anchor="middle" x="460.92" y="-493.2" font-family="Cascadia Code PL" font-size="11.00" fill="orange">NUDGE — MOVE_NUDGE.BM</text>
</g>
<g id="clust3" class="cluster">
<title>cluster_multi</title>
<polygon fill="transparent" stroke="orange" stroke-dasharray="5,2" points="686.92,-412.5 686.92,-630 861.92,-630 861.92,-412.5 686.92,-412.5"/>
<text text-anchor="middle" x="763.42" y="-617.2" font-family="Cascadia Code PL" font-size="11.00" fill="orange">MULTI&#45;LAYER LINKED MOVE</text>
</g>
<!-- MAIN -->
<g id="node1" class="node">
<title>MAIN</title>
<polygon fill="none" stroke="orange" stroke-width="2" points="191.92,-594 188.92,-598 167.92,-598 164.92,-594 97.92,-594 97.92,-558 191.92,-558 191.92,-594"/>
<text text-anchor="middle" x="144.92" y="-572.6" font-family="Cascadia Code PL" font-size="13.00" fill="orange">MAIN STATES</text>
</g>
<!-- S_IDLE -->
<g id="node3" class="node">
<title>S_IDLE</title>
<polygon fill="none" stroke="white" points="229.92,-486 59.92,-486 59.92,-418 229.92,-418 229.92,-486"/>
<text text-anchor="middle" x="144.92" y="-473.2" font-family="Cascadia Code PL" font-size="11.00" fill="cyan">1 · IDLE</text>
<text text-anchor="middle" x="144.92" y="-461.2" font-family="Cascadia Code PL" font-size="11.00" fill="cyan">─────────────────</text>
<text text-anchor="middle" x="144.92" y="-449.2" font-family="Cascadia Code PL" font-size="11.00" fill="cyan">CURRENT_TOOL = TOOL_MOVE</text>
<text text-anchor="middle" x="144.92" y="-437.2" font-family="Cascadia Code PL" font-size="11.00" fill="cyan">No drag active</text>
<text text-anchor="middle" x="144.92" y="-425.2" font-family="Cascadia Code PL" font-size="11.00" fill="cyan">Cursor: move arrows</text>
</g>
<!-- MAIN&#45;&gt;S_IDLE -->
<g id="edge14" class="edge">
<title>MAIN&#45;&gt;S_IDLE</title>
<path fill="none" stroke="#555555" stroke-dasharray="1,5" d="M144.92,-557.78C144.92,-539.26 144.92,-509.35 144.92,-486.22"/>
</g>
<!-- NUDGE -->
<g id="node2" class="node">
<title>NUDGE</title>
<polygon fill="none" stroke="orange" stroke-width="2" points="602.92,-594 599.92,-598 578.92,-598 575.92,-594 542.92,-594 542.92,-558 602.92,-558 602.92,-594"/>
<text text-anchor="middle" x="572.92" y="-572.6" font-family="Cascadia Code PL" font-size="13.00" fill="orange">NUDGE</text>
</g>
<!-- N_IDLE -->
<g id="node7" class="node">
<title>N_IDLE</title>
<polygon fill="none" stroke="white" points="630.42,-478 515.42,-478 515.42,-426 630.42,-426 630.42,-478"/>
<text text-anchor="middle" x="572.92" y="-466" font-family="Cascadia Code PL" font-size="10.00" fill="cyan">Nudge Idle</text>
<text text-anchor="middle" x="572.92" y="-455" font-family="Cascadia Code PL" font-size="10.00" fill="cyan">────────────</text>
<text text-anchor="middle" x="572.92" y="-444" font-family="Cascadia Code PL" font-size="10.00" fill="cyan">No arrow key pressed</text>
<text text-anchor="middle" x="572.92" y="-433" font-family="Cascadia Code PL" font-size="10.00" fill="cyan">Nudge inactive</text>
</g>
<!-- NUDGE&#45;&gt;N_IDLE -->
<g id="edge15" class="edge">
<title>NUDGE&#45;&gt;N_IDLE</title>
<path fill="none" stroke="#555555" stroke-dasharray="1,5" d="M572.92,-557.78C572.92,-544.24 572.92,-524.61 572.92,-506"/>
</g>
<!-- S_CAPTURE -->
<g id="node4" class="node">
<title>S_CAPTURE</title>
<polygon fill="none" stroke="white" points="147.92,-362 5.92,-362 5.92,-282 147.92,-282 147.92,-362"/>
<text text-anchor="middle" x="76.92" y="-349.2" font-family="Cascadia Code PL" font-size="11.00" fill="cyan">2 · CAPTURE</text>
<text text-anchor="middle" x="76.92" y="-337.2" font-family="Cascadia Code PL" font-size="11.00" fill="cyan">─────────────────</text>
<text text-anchor="middle" x="76.92" y="-325.2" font-family="Cascadia Code PL" font-size="11.00" fill="cyan">B1 pressed on canvas</text>
<text text-anchor="middle" x="76.92" y="-313.2" font-family="Cascadia Code PL" font-size="11.00" fill="cyan">Capture layer content</text>
<text text-anchor="middle" x="76.92" y="-301.2" font-family="Cascadia Code PL" font-size="11.00" fill="cyan">Snapshot taken (before&amp;)</text>
<text text-anchor="middle" x="76.92" y="-289.2" font-family="Cascadia Code PL" font-size="11.00" fill="cyan">MOVE.captured% = TRUE</text>
</g>
<!-- S_IDLE&#45;&gt;S_CAPTURE -->
<g id="edge1" class="edge">
<title>S_IDLE&#45;&gt;S_CAPTURE</title>
<path fill="none" stroke="#66cc66" d="M59.67,-437.9C38.36,-430.37 17.9,-418.54 4.92,-400 -2.22,-389.81 -0.49,-379.6 5.9,-370.11"/>
<polygon fill="#66cc66" stroke="#66cc66" points="8.66,-372.27 12.27,-362.31 3.24,-367.84 8.66,-372.27"/>
<text text-anchor="middle" x="44.42" y="-392.8" font-family="Cascadia Code PL" font-size="9.00" fill="#aaaaaa"> &#160;B1 press on canvas</text>
<text text-anchor="middle" x="44.42" y="-382.8" font-family="Cascadia Code PL" font-size="9.00" fill="#aaaaaa"> &#160;MOVE_capture()</text>
</g>
<!-- S_CAPTURE&#45;&gt;S_IDLE -->
<g id="edge6" class="edge">
<title>S_CAPTURE&#45;&gt;S_IDLE</title>
<path fill="none" stroke="#cc6666" stroke-dasharray="5,2" d="M89.9,-362.31C94.6,-374.69 100.38,-388.2 106.92,-400 108.63,-403.09 110.5,-406.2 112.48,-409.28"/>
<polygon fill="#cc6666" stroke="#cc6666" points="109.75,-411.5 118.24,-417.84 115.56,-407.59 109.75,-411.5"/>
<text text-anchor="middle" x="138.42" y="-392.8" font-family="Cascadia Code PL" font-size="9.00" fill="#aaaaaa"> &#160;Escape</text>
<text text-anchor="middle" x="138.42" y="-382.8" font-family="Cascadia Code PL" font-size="9.00" fill="#aaaaaa"> &#160;Cancel, restore</text>
</g>
<!-- S_DRAGGING -->
<g id="node5" class="node">
<title>S_DRAGGING</title>
<polygon fill="none" stroke="white" points="192.92,-226 50.92,-226 50.92,-146 192.92,-146 192.92,-226"/>
<text text-anchor="middle" x="121.92" y="-213.2" font-family="Cascadia Code PL" font-size="11.00" fill="cyan">3 · DRAGGING</text>
<text text-anchor="middle" x="121.92" y="-201.2" font-family="Cascadia Code PL" font-size="11.00" fill="cyan">─────────────────</text>
<text text-anchor="middle" x="121.92" y="-189.2" font-family="Cascadia Code PL" font-size="11.00" fill="cyan">B1 held + movement</text>
<text text-anchor="middle" x="121.92" y="-177.2" font-family="Cascadia Code PL" font-size="11.00" fill="cyan">Floating selection follows</text>
<text text-anchor="middle" x="121.92" y="-165.2" font-family="Cascadia Code PL" font-size="11.00" fill="cyan">Offset from capture point</text>
<text text-anchor="middle" x="121.92" y="-153.2" font-family="Cascadia Code PL" font-size="11.00" fill="cyan">Preview rendered</text>
</g>
<!-- S_CAPTURE&#45;&gt;S_DRAGGING -->
<g id="edge2" class="edge">
<title>S_CAPTURE&#45;&gt;S_DRAGGING</title>
<path fill="none" stroke="#66cc66" d="M83.7,-281.72C86.31,-269.46 89.71,-256.02 93.92,-244 94.92,-241.13 96.04,-238.21 97.23,-235.29"/>
<polygon fill="#66cc66" stroke="#66cc66" points="100.48,-236.6 101.23,-226.03 94.05,-233.82 100.48,-236.6"/>
<text text-anchor="middle" x="131.92" y="-256.8" font-family="Cascadia Code PL" font-size="9.00" fill="#aaaaaa"> &#160;Mouse movement</text>
<text text-anchor="middle" x="131.92" y="-246.8" font-family="Cascadia Code PL" font-size="9.00" fill="#aaaaaa"> &#160;Offset calculated</text>
</g>
<!-- S_DRAGGING&#45;&gt;S_IDLE -->
<g id="edge7" class="edge">
<title>S_DRAGGING&#45;&gt;S_IDLE</title>
<path fill="none" stroke="#cc6666" stroke-dasharray="5,2" d="M160.61,-226.19C164.39,-231.81 167.66,-237.8 169.92,-244 193.69,-309.13 185.58,-332.46 169.92,-400 169.27,-402.79 168.45,-405.61 167.5,-408.4"/>
<polygon fill="#cc6666" stroke="#cc6666" points="164.21,-407.2 163.85,-417.79 170.74,-409.73 164.21,-407.2"/>
<text text-anchor="middle" x="232.42" y="-324.8" font-family="Cascadia Code PL" font-size="9.00" fill="#aaaaaa"> &#160;Escape</text>
<text text-anchor="middle" x="232.42" y="-314.8" font-family="Cascadia Code PL" font-size="9.00" fill="#aaaaaa"> &#160;Cancel, restore original</text>
</g>
<!-- S_DRAGGING&#45;&gt;S_DRAGGING -->
<g id="edge3" class="edge">
<title>S_DRAGGING&#45;&gt;S_DRAGGING</title>
<path fill="none" stroke="#88aacc" d="M193.14,-197.57C203.75,-195.77 210.92,-191.91 210.92,-186 210.92,-182.21 207.97,-179.27 203.07,-177.17"/>
<polygon fill="#88aacc" stroke="#88aacc" points="203.71,-173.72 193.14,-174.43 201.85,-180.47 203.71,-173.72"/>
<text text-anchor="middle" x="244.92" y="-188.8" font-family="Cascadia Code PL" font-size="9.00" fill="#aaaaaa"> &#160;Continued drag</text>
<text text-anchor="middle" x="244.92" y="-178.8" font-family="Cascadia Code PL" font-size="9.00" fill="#aaaaaa"> &#160;Update position</text>
</g>
<!-- S_COMMIT -->
<g id="node6" class="node">
<title>S_COMMIT</title>
<polygon fill="none" stroke="white" points="283.42,-80 144.42,-80 144.42,0 283.42,0 283.42,-80"/>
<text text-anchor="middle" x="213.92" y="-67.2" font-family="Cascadia Code PL" font-size="11.00" fill="cyan">4 · COMMITTED</text>
<text text-anchor="middle" x="213.92" y="-55.2" font-family="Cascadia Code PL" font-size="11.00" fill="cyan">─────────────────</text>
<text text-anchor="middle" x="213.92" y="-43.2" font-family="Cascadia Code PL" font-size="11.00" fill="cyan">B1 released</text>
<text text-anchor="middle" x="213.92" y="-31.2" font-family="Cascadia Code PL" font-size="11.00" fill="cyan">Place content at new pos</text>
<text text-anchor="middle" x="213.92" y="-19.2" font-family="Cascadia Code PL" font-size="11.00" fill="cyan">HISTORY_record_brush()</text>
<text text-anchor="middle" x="213.92" y="-7.2" font-family="Cascadia Code PL" font-size="11.00" fill="cyan">MOVE_reset()</text>
</g>
<!-- S_DRAGGING&#45;&gt;S_COMMIT -->
<g id="edge4" class="edge">
<title>S_DRAGGING&#45;&gt;S_COMMIT</title>
<path fill="none" stroke="#cccc66" d="M147.06,-145.65C158.26,-128.11 171.57,-107.29 183.34,-88.86"/>
<polygon fill="#cccc66" stroke="#cccc66" points="186.37,-90.61 188.81,-80.3 180.48,-86.84 186.37,-90.61"/>
<text text-anchor="middle" x="227.92" y="-120.8" font-family="Cascadia Code PL" font-size="9.00" fill="#aaaaaa"> &#160;B1 released</text>
<text text-anchor="middle" x="227.92" y="-110.8" font-family="Cascadia Code PL" font-size="9.00" fill="#aaaaaa"> &#160;MOVE_commit()</text>
<text text-anchor="middle" x="227.92" y="-100.8" font-family="Cascadia Code PL" font-size="9.00" fill="#aaaaaa"> &#160;HISTORY_record_brush()</text>
</g>
<!-- S_COMMIT&#45;&gt;S_IDLE -->
<g id="edge5" class="edge">
<title>S_COMMIT&#45;&gt;S_IDLE</title>
<path fill="none" stroke="#cc6666" stroke-dasharray="5,2" d="M269.9,-80.07C274.96,-85.57 279.47,-91.56 282.92,-98 310.64,-149.71 312.83,-310.95 283.92,-362 272.12,-382.83 253.21,-399.55 233.09,-412.62"/>
<polygon fill="#cc6666" stroke="#cc6666" points="231.07,-409.75 224.42,-417.99 234.76,-415.7 231.07,-409.75"/>
<text text-anchor="middle" x="338.42" y="-256.8" font-family="Cascadia Code PL" font-size="9.00" fill="#aaaaaa"> &#160;Move complete</text>
<text text-anchor="middle" x="338.42" y="-246.8" font-family="Cascadia Code PL" font-size="9.00" fill="#aaaaaa"> &#160;MOVE_reset()</text>
</g>
<!-- N_PRESS -->
<g id="node8" class="node">
<title>N_PRESS</title>
<polygon fill="none" stroke="white" points="515.92,-353.5 389.92,-353.5 389.92,-290.5 515.92,-290.5 515.92,-353.5"/>
<text text-anchor="middle" x="452.92" y="-341.5" font-family="Cascadia Code PL" font-size="10.00" fill="cyan">Nudge Active</text>
<text text-anchor="middle" x="452.92" y="-330.5" font-family="Cascadia Code PL" font-size="10.00" fill="cyan">────────────</text>
<text text-anchor="middle" x="452.92" y="-319.5" font-family="Cascadia Code PL" font-size="10.00" fill="cyan">Arrow key held</text>
<text text-anchor="middle" x="452.92" y="-308.5" font-family="Cascadia Code PL" font-size="10.00" fill="cyan">Move layer ±1px per key</text>
<text text-anchor="middle" x="452.92" y="-297.5" font-family="Cascadia Code PL" font-size="10.00" fill="cyan">MOVE_NUDGE_apply()</text>
</g>
<!-- N_IDLE&#45;&gt;N_PRESS -->
<g id="edge8" class="edge">
<title>N_IDLE&#45;&gt;N_PRESS</title>
<path fill="none" stroke="#66cc66" d="M549.21,-425.71C531.93,-407.28 508.23,-382 488.66,-361.12"/>
<polygon fill="#66cc66" stroke="#66cc66" points="491.05,-358.56 481.66,-353.65 485.94,-363.34 491.05,-358.56"/>
<text text-anchor="middle" x="552.92" y="-392.6" font-family="Cascadia Code PL" font-size="8.00" fill="#aaaaaa"> Arrow key down</text>
<text text-anchor="middle" x="552.92" y="-383.6" font-family="Cascadia Code PL" font-size="8.00" fill="#aaaaaa"> ↑↓←→</text>
</g>
<!-- N_PRESS&#45;&gt;N_PRESS -->
<g id="edge9" class="edge">
<title>N_PRESS&#45;&gt;N_PRESS</title>
<path fill="none" stroke="#88aacc" d="M516.09,-333.85C526.64,-332.19 533.92,-328.24 533.92,-322 533.92,-318 530.93,-314.94 526.01,-312.83"/>
<polygon fill="#88aacc" stroke="#88aacc" points="526.65,-309.37 516.09,-310.15 524.83,-316.13 526.65,-309.37"/>
<text text-anchor="middle" x="558.42" y="-320.1" font-family="Cascadia Code PL" font-size="8.00" fill="#aaaaaa"> Repeat (held)</text>
</g>
<!-- N_COMMIT -->
<g id="node9" class="node">
<title>N_COMMIT</title>
<polygon fill="none" stroke="white" points="631.92,-217.5 505.92,-217.5 505.92,-154.5 631.92,-154.5 631.92,-217.5"/>
<text text-anchor="middle" x="568.92" y="-205.5" font-family="Cascadia Code PL" font-size="10.00" fill="cyan">Nudge Committed</text>
<text text-anchor="middle" x="568.92" y="-194.5" font-family="Cascadia Code PL" font-size="10.00" fill="cyan">────────────</text>
<text text-anchor="middle" x="568.92" y="-183.5" font-family="Cascadia Code PL" font-size="10.00" fill="cyan">Key released</text>
<text text-anchor="middle" x="568.92" y="-172.5" font-family="Cascadia Code PL" font-size="10.00" fill="cyan">HISTORY_record_brush()</text>
<text text-anchor="middle" x="568.92" y="-161.5" font-family="Cascadia Code PL" font-size="10.00" fill="cyan">Position finalized</text>
</g>
<!-- N_PRESS&#45;&gt;N_COMMIT -->
<g id="edge10" class="edge">
<title>N_PRESS&#45;&gt;N_COMMIT</title>
<path fill="none" stroke="#cccc66" d="M479.53,-290.26C496.26,-270.94 517.97,-245.86 535.8,-225.26"/>
<polygon fill="#cccc66" stroke="#cccc66" points="538.53,-227.45 542.43,-217.6 533.24,-222.87 538.53,-227.45"/>
<text text-anchor="middle" x="541.42" y="-252.1" font-family="Cascadia Code PL" font-size="8.00" fill="#aaaaaa"> Key released</text>
</g>
<!-- N_COMMIT&#45;&gt;N_IDLE -->
<g id="edge11" class="edge">
<title>N_COMMIT&#45;&gt;N_IDLE</title>
<path fill="none" stroke="#cc6666" stroke-dasharray="5,2" d="M578.37,-217.89C583.5,-236.31 589.32,-260.26 591.92,-282 598.14,-334.12 597.31,-348.55 586.92,-400 585.88,-405.16 584.6,-410.56 583.25,-415.84"/>
<polygon fill="#cc6666" stroke="#cc6666" points="579.8,-415.18 580.59,-425.74 586.56,-416.99 579.8,-415.18"/>
<text text-anchor="middle" x="620.92" y="-320.1" font-family="Cascadia Code PL" font-size="8.00" fill="#aaaaaa"> History saved</text>
</g>
<!-- ML_SINGLE -->
<g id="node10" class="node">
<title>ML_SINGLE</title>
<polygon fill="none" stroke="white" points="848.42,-602 699.42,-602 699.42,-550 848.42,-550 848.42,-602"/>
<text text-anchor="middle" x="773.92" y="-590" font-family="Cascadia Code PL" font-size="10.00" fill="cyan">Single Layer</text>
<text text-anchor="middle" x="773.92" y="-579" font-family="Cascadia Code PL" font-size="10.00" fill="cyan">────────────</text>
<text text-anchor="middle" x="773.92" y="-568" font-family="Cascadia Code PL" font-size="10.00" fill="cyan">Move only CURRENT_LAYER%</text>
<text text-anchor="middle" x="773.92" y="-557" font-family="Cascadia Code PL" font-size="10.00" fill="cyan">Default behavior</text>
</g>
<!-- ML_LINKED -->
<g id="node11" class="node">
<title>ML_LINKED</title>
<polygon fill="none" stroke="white" points="836.42,-483.5 711.42,-483.5 711.42,-420.5 836.42,-420.5 836.42,-483.5"/>
<text text-anchor="middle" x="773.92" y="-471.5" font-family="Cascadia Code PL" font-size="10.00" fill="cyan">Linked Layers</text>
<text text-anchor="middle" x="773.92" y="-460.5" font-family="Cascadia Code PL" font-size="10.00" fill="cyan">────────────</text>
<text text-anchor="middle" x="773.92" y="-449.5" font-family="Cascadia Code PL" font-size="10.00" fill="cyan">Move all selected layers</text>
<text text-anchor="middle" x="773.92" y="-438.5" font-family="Cascadia Code PL" font-size="10.00" fill="cyan">together as group</text>
<text text-anchor="middle" x="773.92" y="-427.5" font-family="Cascadia Code PL" font-size="10.00" fill="cyan">Maintain relative offsets</text>
</g>
<!-- ML_SINGLE&#45;&gt;ML_LINKED -->
<g id="edge12" class="edge">
<title>ML_SINGLE&#45;&gt;ML_LINKED</title>
<path fill="none" stroke="#88aacc" d="M727.96,-549.97C716.21,-540.06 708.29,-527.75 713.92,-514 717.23,-505.9 722.2,-498.29 727.89,-491.39"/>
<polygon fill="#88aacc" stroke="#88aacc" points="730.78,-493.4 734.84,-483.61 725.57,-488.74 730.78,-493.4"/>
<text text-anchor="middle" x="742.42" y="-525.6" font-family="Cascadia Code PL" font-size="8.00" fill="#aaaaaa"> Multiple layers</text>
<text text-anchor="middle" x="742.42" y="-516.6" font-family="Cascadia Code PL" font-size="8.00" fill="#aaaaaa"> selected</text>
</g>
<!-- ML_LINKED&#45;&gt;ML_SINGLE -->
<g id="edge13" class="edge">
<title>ML_LINKED&#45;&gt;ML_SINGLE</title>
<path fill="none" stroke="#88aacc" d="M773.92,-483.87C773.92,-500.74 773.92,-521.72 773.92,-539.29"/>
<polygon fill="#88aacc" stroke="#88aacc" points="770.42,-539.72 773.92,-549.72 777.42,-539.72 770.42,-539.72"/>
<text text-anchor="middle" x="804.42" y="-521.1" font-family="Cascadia Code PL" font-size="8.00" fill="#aaaaaa"> Single selection</text>
</g>
<!-- L1 -->
<g id="node12" class="node">
<title>L1</title>
<ellipse fill="white" stroke="white" cx="1069.92" cy="-576" rx="0.36" ry="0.36"/>
</g>
<!-- L2 -->
<g id="node13" class="node">
<title>L2</title>
<ellipse fill="white" stroke="white" cx="1069.92" cy="-452" rx="0.36" ry="0.36"/>
</g>
<!-- L1&#45;&gt;L2 -->
<g id="edge16" class="edge">
<title>L1&#45;&gt;L2</title>
<path fill="none" stroke="#66cc66" d="M1069.92,-574.91C1069.92,-571.89 1069.92,-492.04 1069.92,-463.24"/>
<polygon fill="#66cc66" stroke="#66cc66" points="1073.42,-463.09 1069.92,-453.09 1066.42,-463.09 1073.42,-463.09"/>
<text text-anchor="middle" x="1106.92" y="-520.8" font-family="Cascadia Code PL" font-size="9.00" fill="#aaaaaa"> Capture / Activate</text>
</g>
<!-- L3 -->
<g id="node14" class="node">
<title>L3</title>
<ellipse fill="white" stroke="white" cx="988.92" cy="-576" rx="0.36" ry="0.36"/>
</g>
<!-- L4 -->
<g id="node15" class="node">
<title>L4</title>
<ellipse fill="white" stroke="white" cx="988.92" cy="-452" rx="0.36" ry="0.36"/>
</g>
<!-- L3&#45;&gt;L4 -->
<g id="edge17" class="edge">
<title>L3&#45;&gt;L4</title>
<path fill="none" stroke="#cc6666" stroke-dasharray="5,2" d="M988.92,-574.91C988.92,-571.89 988.92,-492.04 988.92,-463.24"/>
<polygon fill="#cc6666" stroke="#cc6666" points="992.42,-463.09 988.92,-453.09 985.42,-463.09 992.42,-463.09"/>
<text text-anchor="middle" x="1017.92" y="-520.8" font-family="Cascadia Code PL" font-size="9.00" fill="#aaaaaa"> Reset / Cancel</text>
</g>
<!-- L5 -->
<g id="node16" class="node">
<title>L5</title>
<ellipse fill="white" stroke="white" cx="895.92" cy="-576" rx="0.36" ry="0.36"/>
</g>
<!-- L6 -->
<g id="node17" class="node">
<title>L6</title>
<ellipse fill="white" stroke="white" cx="895.92" cy="-452" rx="0.36" ry="0.36"/>
</g>
<!-- L5&#45;&gt;L6 -->
<g id="edge18" class="edge">
<title>L5&#45;&gt;L6</title>
<path fill="none" stroke="#cccc66" d="M895.92,-574.91C895.92,-571.89 895.92,-492.04 895.92,-463.24"/>
<polygon fill="#cccc66" stroke="#cccc66" points="899.42,-463.09 895.92,-453.09 892.42,-463.09 899.42,-463.09"/>
<text text-anchor="middle" x="930.92" y="-520.8" font-family="Cascadia Code PL" font-size="9.00" fill="#aaaaaa"> Commit / Record</text>
</g>
</g>
</svg>
