<?xml version="1.0" encoding="UTF-8" standalone="no"?>
<!DOCTYPE svg PUBLIC "-//W3C//DTD SVG 1.1//EN"
 "http://www.w3.org/Graphics/SVG/1.1/DTD/svg11.dtd">
<!-- Generated by graphviz version 2.42.4 (0)
 -->
<!-- Title: PAN_TOOL Pages: 1 -->
<svg width="720pt" height="664pt"
 viewBox="0.00 0.00 719.50 664.00" xmlns="http://www.w3.org/2000/svg" xmlns:xlink="http://www.w3.org/1999/xlink">
<g id="graph0" class="graph" transform="scale(1 1) rotate(0) translate(4 660)">
<title>PAN_TOOL</title>
<text text-anchor="middle" x="355.75" y="-632.8" font-family="Cascadia Code PL" font-size="24.00" fill="white">PAN TOOL STATE MACHINE</text>
<g id="clust2" class="cluster">
<title>cluster_triggers</title>
<polygon fill="transparent" stroke="orange" stroke-dasharray="5,2" points="249.5,-515 249.5,-614 703.5,-614 703.5,-515 249.5,-515"/>
<text text-anchor="middle" x="332.5" y="-601.2" font-family="Cascadia Code PL" font-size="11.00" fill="orange">PAN TRIGGERS (3 entry points)</text>
</g>
<!-- MAIN -->
<g id="node1" class="node">
<title>MAIN</title>
<polygon fill="none" stroke="orange" stroke-width="2" points="239,-572.5 236,-576.5 215,-576.5 212,-572.5 154,-572.5 154,-536.5 239,-536.5 239,-572.5"/>
<text text-anchor="middle" x="196.5" y="-551.1" font-family="Cascadia Code PL" font-size="13.00" fill="orange">PAN STATES</text>
</g>
<!-- S_IDLE -->
<g id="node2" class="node">
<title>S_IDLE</title>
<polygon fill="none" stroke="white" points="277,-486 116,-486 116,-406 277,-406 277,-486"/>
<text text-anchor="middle" x="196.5" y="-473.2" font-family="Cascadia Code PL" font-size="11.00" fill="cyan">1 · IDLE</text>
<text text-anchor="middle" x="196.5" y="-461.2" font-family="Cascadia Code PL" font-size="11.00" fill="cyan">─────────────────</text>
<text text-anchor="middle" x="196.5" y="-449.2" font-family="Cascadia Code PL" font-size="11.00" fill="cyan">CURRENT_TOOL = TOOL_PAN</text>
<text text-anchor="middle" x="196.5" y="-437.2" font-family="Cascadia Code PL" font-size="11.00" fill="cyan">or Space held (assistant)</text>
<text text-anchor="middle" x="196.5" y="-425.2" font-family="Cascadia Code PL" font-size="11.00" fill="cyan">or Middle&#45;click (B3)</text>
<text text-anchor="middle" x="196.5" y="-413.2" font-family="Cascadia Code PL" font-size="11.00" fill="cyan">SCRN.panning% = FALSE</text>
</g>
<!-- MAIN&#45;&gt;S_IDLE -->
<g id="edge6" class="edge">
<title>MAIN&#45;&gt;S_IDLE</title>
<path fill="none" stroke="#555555" stroke-dasharray="1,5" d="M196.5,-536.39C196.5,-522.87 196.5,-503.45 196.5,-486.17"/>
</g>
<!-- S_PAN_START -->
<g id="node3" class="node">
<title>S_PAN_START</title>
<polygon fill="none" stroke="white" points="194.5,-340 56.5,-340 56.5,-260 194.5,-260 194.5,-340"/>
<text text-anchor="middle" x="125.5" y="-327.2" font-family="Cascadia Code PL" font-size="11.00" fill="cyan">2 · PAN START</text>
<text text-anchor="middle" x="125.5" y="-315.2" font-family="Cascadia Code PL" font-size="11.00" fill="cyan">─────────────────</text>
<text text-anchor="middle" x="125.5" y="-303.2" font-family="Cascadia Code PL" font-size="11.00" fill="cyan">B1 pressed (or B3/Space)</text>
<text text-anchor="middle" x="125.5" y="-291.2" font-family="Cascadia Code PL" font-size="11.00" fill="cyan">SCRN.panning% = TRUE</text>
<text text-anchor="middle" x="125.5" y="-279.2" font-family="Cascadia Code PL" font-size="11.00" fill="cyan">Capture start position</text>
<text text-anchor="middle" x="125.5" y="-267.2" font-family="Cascadia Code PL" font-size="11.00" fill="cyan">SCRN.panStartX/Y%</text>
</g>
<!-- S_IDLE&#45;&gt;S_PAN_START -->
<g id="edge1" class="edge">
<title>S_IDLE&#45;&gt;S_PAN_START</title>
<path fill="none" stroke="#66cc66" d="M156.16,-405.89C151.75,-400.21 147.7,-394.19 144.5,-388 138.5,-376.41 134.4,-363 131.58,-350.23"/>
<polygon fill="#66cc66" stroke="#66cc66" points="134.97,-349.31 129.59,-340.18 128.1,-350.67 134.97,-349.31"/>
<text text-anchor="middle" x="199" y="-380.8" font-family="Cascadia Code PL" font-size="9.00" fill="#aaaaaa"> &#160;B1 (tool mode) or</text>
<text text-anchor="middle" x="199" y="-370.8" font-family="Cascadia Code PL" font-size="9.00" fill="#aaaaaa"> &#160;Space+B1 or B3 (assistant)</text>
<text text-anchor="middle" x="199" y="-360.8" font-family="Cascadia Code PL" font-size="9.00" fill="#aaaaaa"> &#160;SCRN.panning% = TRUE</text>
</g>
<!-- S_PANNING -->
<g id="node4" class="node">
<title>S_PANNING</title>
<polygon fill="none" stroke="white" points="143,-204 0,-204 0,-124 143,-124 143,-204"/>
<text text-anchor="middle" x="71.5" y="-191.2" font-family="Cascadia Code PL" font-size="11.00" fill="cyan">3 · PANNING</text>
<text text-anchor="middle" x="71.5" y="-179.2" font-family="Cascadia Code PL" font-size="11.00" fill="cyan">─────────────────</text>
<text text-anchor="middle" x="71.5" y="-167.2" font-family="Cascadia Code PL" font-size="11.00" fill="cyan">Mouse dragging</text>
<text text-anchor="middle" x="71.5" y="-155.2" font-family="Cascadia Code PL" font-size="11.00" fill="cyan">SCRN.offsetX/Y% updates</text>
<text text-anchor="middle" x="71.5" y="-143.2" font-family="Cascadia Code PL" font-size="11.00" fill="cyan">Canvas scrolls with mouse</text>
<text text-anchor="middle" x="71.5" y="-131.2" font-family="Cascadia Code PL" font-size="11.00" fill="cyan">No drawing occurs</text>
</g>
<!-- S_PAN_START&#45;&gt;S_PANNING -->
<g id="edge2" class="edge">
<title>S_PAN_START&#45;&gt;S_PANNING</title>
<path fill="none" stroke="#66cc66" d="M109.74,-259.88C103.96,-245.56 97.36,-229.17 91.28,-214.09"/>
<polygon fill="#66cc66" stroke="#66cc66" points="94.36,-212.37 87.38,-204.4 87.87,-214.98 94.36,-212.37"/>
<text text-anchor="middle" x="148.5" y="-234.8" font-family="Cascadia Code PL" font-size="9.00" fill="#aaaaaa"> &#160;Mouse movement</text>
<text text-anchor="middle" x="148.5" y="-224.8" font-family="Cascadia Code PL" font-size="9.00" fill="#aaaaaa"> &#160;Delta applied to offset</text>
</g>
<!-- S_PANNING&#45;&gt;S_PANNING -->
<g id="edge3" class="edge">
<title>S_PANNING&#45;&gt;S_PANNING</title>
<path fill="none" stroke="#88aacc" d="M143.13,-175.57C153.79,-173.77 161,-169.91 161,-164 161,-160.21 158.04,-157.27 153.11,-155.17"/>
<polygon fill="#88aacc" stroke="#88aacc" points="153.7,-151.7 143.13,-152.43 151.84,-158.45 153.7,-151.7"/>
<text text-anchor="middle" x="200" y="-166.8" font-family="Cascadia Code PL" font-size="9.00" fill="#aaaaaa"> &#160;Continued drag</text>
<text text-anchor="middle" x="200" y="-156.8" font-family="Cascadia Code PL" font-size="9.00" fill="#aaaaaa"> &#160;offsetX/Y += delta</text>
</g>
<!-- S_PAN_END -->
<g id="node5" class="node">
<title>S_PAN_END</title>
<polygon fill="none" stroke="white" points="238,-68 101,-68 101,0 238,0 238,-68"/>
<text text-anchor="middle" x="169.5" y="-55.2" font-family="Cascadia Code PL" font-size="11.00" fill="cyan">4 · PAN END</text>
<text text-anchor="middle" x="169.5" y="-43.2" font-family="Cascadia Code PL" font-size="11.00" fill="cyan">─────────────────</text>
<text text-anchor="middle" x="169.5" y="-31.2" font-family="Cascadia Code PL" font-size="11.00" fill="cyan">Button released</text>
<text text-anchor="middle" x="169.5" y="-19.2" font-family="Cascadia Code PL" font-size="11.00" fill="cyan">SCRN.panning% = FALSE</text>
<text text-anchor="middle" x="169.5" y="-7.2" font-family="Cascadia Code PL" font-size="11.00" fill="cyan">Final offset applied</text>
</g>
<!-- S_PANNING&#45;&gt;S_PAN_END -->
<g id="edge4" class="edge">
<title>S_PANNING&#45;&gt;S_PAN_END</title>
<path fill="none" stroke="#cccc66" d="M101.44,-123.9C112.93,-108.89 126.08,-91.71 137.74,-76.48"/>
<polygon fill="#cccc66" stroke="#cccc66" points="140.74,-78.32 144.04,-68.25 135.19,-74.06 140.74,-78.32"/>
<text text-anchor="middle" x="181" y="-98.8" font-family="Cascadia Code PL" font-size="9.00" fill="#aaaaaa"> &#160;Button released</text>
<text text-anchor="middle" x="181" y="-88.8" font-family="Cascadia Code PL" font-size="9.00" fill="#aaaaaa"> &#160;SCRN.panning% = FALSE</text>
</g>
<!-- S_PAN_END&#45;&gt;S_IDLE -->
<g id="edge5" class="edge">
<title>S_PAN_END&#45;&gt;S_IDLE</title>
<path fill="none" stroke="#cc6666" stroke-dasharray="5,2" d="M220.33,-68.09C226.35,-73.54 231.96,-79.54 236.5,-86 246.69,-100.49 245.62,-106.53 248.5,-124 294.63,-403.4 259.86,-372.65 253.5,-388 252.15,-391.27 250.51,-394.44 248.65,-397.52"/>
<polygon fill="#cc6666" stroke="#cc6666" points="245.67,-395.67 242.89,-405.89 251.44,-399.64 245.67,-395.67"/>
<text text-anchor="middle" x="295" y="-234.8" font-family="Cascadia Code PL" font-size="9.00" fill="#aaaaaa"> &#160;Pan complete</text>
<text text-anchor="middle" x="295" y="-224.8" font-family="Cascadia Code PL" font-size="9.00" fill="#aaaaaa"> &#160;Offset persists</text>
</g>
<!-- T_TOOL -->
<g id="node6" class="node">
<title>T_TOOL</title>
<polygon fill="none" stroke="white" points="695.5,-586 537.5,-586 537.5,-523 695.5,-523 695.5,-586"/>
<text text-anchor="middle" x="616.5" y="-574" font-family="Cascadia Code PL" font-size="10.00" fill="cyan">Pan Tool Selected</text>
<text text-anchor="middle" x="616.5" y="-563" font-family="Cascadia Code PL" font-size="10.00" fill="cyan">────────────</text>
<text text-anchor="middle" x="616.5" y="-552" font-family="Cascadia Code PL" font-size="10.00" fill="cyan">CURRENT_TOOL% = TOOL_PAN</text>
<text text-anchor="middle" x="616.5" y="-541" font-family="Cascadia Code PL" font-size="10.00" fill="cyan">B1 = drag to pan</text>
<text text-anchor="middle" x="616.5" y="-530" font-family="Cascadia Code PL" font-size="10.00" fill="cyan">Dedicated tool mode</text>
</g>
<!-- T_SPACE -->
<g id="node7" class="node">
<title>T_SPACE</title>
<polygon fill="none" stroke="white" points="519.5,-586 393.5,-586 393.5,-523 519.5,-523 519.5,-586"/>
<text text-anchor="middle" x="456.5" y="-574" font-family="Cascadia Code PL" font-size="10.00" fill="cyan">Space Bar Hold</text>
<text text-anchor="middle" x="456.5" y="-563" font-family="Cascadia Code PL" font-size="10.00" fill="cyan">────────────</text>
<text text-anchor="middle" x="456.5" y="-552" font-family="Cascadia Code PL" font-size="10.00" fill="cyan">Temporary assistant</text>
<text text-anchor="middle" x="456.5" y="-541" font-family="Cascadia Code PL" font-size="10.00" fill="cyan">Any tool → pan override</text>
<text text-anchor="middle" x="456.5" y="-530" font-family="Cascadia Code PL" font-size="10.00" fill="cyan">Release = return to tool</text>
</g>
<!-- T_MIDDLE -->
<g id="node8" class="node">
<title>T_MIDDLE</title>
<polygon fill="none" stroke="white" points="375.5,-586 257.5,-586 257.5,-523 375.5,-523 375.5,-586"/>
<text text-anchor="middle" x="316.5" y="-574" font-family="Cascadia Code PL" font-size="10.00" fill="cyan">Middle Mouse Button</text>
<text text-anchor="middle" x="316.5" y="-563" font-family="Cascadia Code PL" font-size="10.00" fill="cyan">────────────</text>
<text text-anchor="middle" x="316.5" y="-552" font-family="Cascadia Code PL" font-size="10.00" fill="cyan">B3 press and drag</text>
<text text-anchor="middle" x="316.5" y="-541" font-family="Cascadia Code PL" font-size="10.00" fill="cyan">Always available</text>
<text text-anchor="middle" x="316.5" y="-530" font-family="Cascadia Code PL" font-size="10.00" fill="cyan">No tool switch needed</text>
</g>
</g>
</svg>
