<?xml version="1.0" encoding="UTF-8" standalone="no"?>
<!DOCTYPE svg PUBLIC "-//W3C//DTD SVG 1.1//EN"
 "http://www.w3.org/Graphics/SVG/1.1/DTD/svg11.dtd">
<!-- Generated by graphviz version 2.42.4 (0)
 -->
<!-- Title: COLOR_PICKER Pages: 1 -->
<svg width="1273pt" height="558pt"
 viewBox="0.00 0.00 1273.00 558.00" xmlns="http://www.w3.org/2000/svg" xmlns:xlink="http://www.w3.org/1999/xlink">
<g id="graph0" class="graph" transform="scale(1 1) rotate(0) translate(4 554)">
<title>COLOR_PICKER</title>
<text text-anchor="middle" x="632.5" y="-526.8" font-family="Cascadia Code PL" font-size="24.00" fill="white">COLOR PICKER TOOL STATE MACHINE</text>
<g id="clust2" class="cluster">
<title>cluster_loupe</title>
<polygon fill="transparent" stroke="orange" stroke-dasharray="5,2" points="715,-8 715,-359 910,-359 910,-8 715,-8"/>
<text text-anchor="middle" x="812.5" y="-346.2" font-family="Cascadia Code PL" font-size="11.00" fill="orange">PICKER LOUPE — Magnified Preview</text>
</g>
<g id="clust5" class="cluster">
<title>cluster_legend</title>
<polygon fill="transparent" stroke="white" stroke-dasharray="5,2" points="985,-296.64 985,-465.86 1257,-465.86 1257,-296.64 985,-296.64"/>
<text text-anchor="middle" x="1013" y="-453.06" font-family="Cascadia Code PL" font-size="11.00" fill="white">LEGEND</text>
</g>
<g id="clust3" class="cluster">
<title>cluster_info</title>
<polygon fill="transparent" stroke="orange" stroke-dasharray="5,2" points="843,-387 843,-508 977,-508 977,-387 843,-387"/>
<text text-anchor="middle" x="905.5" y="-495.2" font-family="Cascadia Code PL" font-size="11.00" fill="orange">LOUPE INFO OVERLAY</text>
</g>
<!-- MAIN -->
<g id="node1" class="node">
<title>MAIN</title>
<polygon fill="none" stroke="orange" stroke-width="2" points="361.5,-455.5 358.5,-459.5 337.5,-459.5 334.5,-455.5 260.5,-455.5 260.5,-419.5 361.5,-419.5 361.5,-455.5"/>
<text text-anchor="middle" x="311" y="-434.1" font-family="Cascadia Code PL" font-size="13.00" fill="orange">PICKER STATES</text>
</g>
<!-- S_IDLE -->
<g id="node3" class="node">
<title>S_IDLE</title>
<polygon fill="none" stroke="white" points="398.5,-345 223.5,-345 223.5,-265 398.5,-265 398.5,-345"/>
<text text-anchor="middle" x="311" y="-332.2" font-family="Cascadia Code PL" font-size="11.00" fill="cyan">1 · IDLE</text>
<text text-anchor="middle" x="311" y="-320.2" font-family="Cascadia Code PL" font-size="11.00" fill="cyan">─────────────────</text>
<text text-anchor="middle" x="311" y="-308.2" font-family="Cascadia Code PL" font-size="11.00" fill="cyan">CURRENT_TOOL = TOOL_PICKER</text>
<text text-anchor="middle" x="311" y="-296.2" font-family="Cascadia Code PL" font-size="11.00" fill="cyan">or Alt held (assistant)</text>
<text text-anchor="middle" x="311" y="-284.2" font-family="Cascadia Code PL" font-size="11.00" fill="cyan">Loupe overlay active</text>
<text text-anchor="middle" x="311" y="-272.2" font-family="Cascadia Code PL" font-size="11.00" fill="cyan">Cursor: eyedropper</text>
</g>
<!-- MAIN&#45;&gt;S_IDLE -->
<g id="edge12" class="edge">
<title>MAIN&#45;&gt;S_IDLE</title>
<path fill="none" stroke="#555555" stroke-dasharray="1,5" d="M311,-419.44C311,-400.65 311,-369.81 311,-345.02"/>
</g>
<!-- LOUPE_F -->
<g id="node2" class="node">
<title>LOUPE_F</title>
<polygon fill="none" stroke="orange" stroke-width="2" points="833,-455.5 830,-459.5 809,-459.5 806,-455.5 777,-455.5 777,-419.5 833,-419.5 833,-455.5"/>
<text text-anchor="middle" x="805" y="-434.1" font-family="Cascadia Code PL" font-size="13.00" fill="orange">LOUPE</text>
</g>
<!-- LP_OFF -->
<g id="node7" class="node">
<title>LP_OFF</title>
<polygon fill="none" stroke="white" points="865,-331 745,-331 745,-279 865,-279 865,-331"/>
<text text-anchor="middle" x="805" y="-319" font-family="Cascadia Code PL" font-size="10.00" fill="cyan">Loupe Hidden</text>
<text text-anchor="middle" x="805" y="-308" font-family="Cascadia Code PL" font-size="10.00" fill="cyan">────────────</text>
<text text-anchor="middle" x="805" y="-297" font-family="Cascadia Code PL" font-size="10.00" fill="cyan">No magnifier displayed</text>
<text text-anchor="middle" x="805" y="-286" font-family="Cascadia Code PL" font-size="10.00" fill="cyan">Default state</text>
</g>
<!-- LOUPE_F&#45;&gt;LP_OFF -->
<g id="edge13" class="edge">
<title>LOUPE_F&#45;&gt;LP_OFF</title>
<path fill="none" stroke="#555555" stroke-dasharray="1,5" d="M805,-419.44C805,-404.06 805,-380.6 805,-359"/>
</g>
<!-- S_SAMPLE_FG -->
<g id="node4" class="node">
<title>S_SAMPLE_FG</title>
<polygon fill="none" stroke="white" points="158,-206.5 0,-206.5 0,-126.5 158,-126.5 158,-206.5"/>
<text text-anchor="middle" x="79" y="-193.7" font-family="Cascadia Code PL" font-size="11.00" fill="cyan">2 · SAMPLE FG</text>
<text text-anchor="middle" x="79" y="-181.7" font-family="Cascadia Code PL" font-size="11.00" fill="cyan">─────────────────</text>
<text text-anchor="middle" x="79" y="-169.7" font-family="Cascadia Code PL" font-size="11.00" fill="cyan">B1 click/drag on canvas</text>
<text text-anchor="middle" x="79" y="-157.7" font-family="Cascadia Code PL" font-size="11.00" fill="cyan">Sample pixel at cursor</text>
<text text-anchor="middle" x="79" y="-145.7" font-family="Cascadia Code PL" font-size="11.00" fill="cyan">PAINT_COLOR~&amp; = sampled</text>
<text text-anchor="middle" x="79" y="-133.7" font-family="Cascadia Code PL" font-size="11.00" fill="cyan">PAL_FG_IDX% updated</text>
</g>
<!-- S_IDLE&#45;&gt;S_SAMPLE_FG -->
<g id="edge1" class="edge">
<title>S_IDLE&#45;&gt;S_SAMPLE_FG</title>
<path fill="none" stroke="#66cc66" d="M223.33,-294.76C162.19,-286.3 88.26,-271.32 69,-247 62.19,-238.4 60.52,-227.55 61.48,-216.66"/>
<polygon fill="#66cc66" stroke="#66cc66" points="64.95,-217.13 63.02,-206.71 58.03,-216.06 64.95,-217.13"/>
<text text-anchor="middle" x="107.5" y="-239.8" font-family="Cascadia Code PL" font-size="9.00" fill="#aaaaaa"> &#160;B1 click on canvas</text>
<text text-anchor="middle" x="107.5" y="-229.8" font-family="Cascadia Code PL" font-size="9.00" fill="#aaaaaa"> &#160;PICKER_sample()</text>
</g>
<!-- S_SAMPLE_BG -->
<g id="node5" class="node">
<title>S_SAMPLE_BG</title>
<polygon fill="none" stroke="white" points="354,-200.5 178,-200.5 178,-132.5 354,-132.5 354,-200.5"/>
<text text-anchor="middle" x="266" y="-187.7" font-family="Cascadia Code PL" font-size="11.00" fill="cyan">3 · SAMPLE BG</text>
<text text-anchor="middle" x="266" y="-175.7" font-family="Cascadia Code PL" font-size="11.00" fill="cyan">─────────────────</text>
<text text-anchor="middle" x="266" y="-163.7" font-family="Cascadia Code PL" font-size="11.00" fill="cyan">B2 click/drag on canvas</text>
<text text-anchor="middle" x="266" y="-151.7" font-family="Cascadia Code PL" font-size="11.00" fill="cyan">Sample pixel at cursor</text>
<text text-anchor="middle" x="266" y="-139.7" font-family="Cascadia Code PL" font-size="11.00" fill="cyan">PAINT_BG_COLOR~&amp; = sampled</text>
</g>
<!-- S_IDLE&#45;&gt;S_SAMPLE_BG -->
<g id="edge2" class="edge">
<title>S_IDLE&#45;&gt;S_SAMPLE_BG</title>
<path fill="none" stroke="#6699ff" d="M268.08,-264.89C264,-259.29 260.47,-253.29 258,-247 253.52,-235.6 253.08,-222.61 254.43,-210.48"/>
<polygon fill="#6699ff" stroke="#6699ff" points="257.9,-210.96 255.93,-200.55 250.98,-209.91 257.9,-210.96"/>
<text text-anchor="middle" x="300.5" y="-239.8" font-family="Cascadia Code PL" font-size="9.00" fill="#aaaaaa"> &#160;B2 click on canvas</text>
<text text-anchor="middle" x="300.5" y="-229.8" font-family="Cascadia Code PL" font-size="9.00" fill="#aaaaaa"> &#160;PICKER_sample_bg()</text>
</g>
<!-- S_CONTINUOUS -->
<g id="node6" class="node">
<title>S_CONTINUOUS</title>
<polygon fill="none" stroke="white" points="581.5,-206.5 438.5,-206.5 438.5,-126.5 581.5,-126.5 581.5,-206.5"/>
<text text-anchor="middle" x="510" y="-193.7" font-family="Cascadia Code PL" font-size="11.00" fill="cyan">4 · CONTINUOUS SAMPLE</text>
<text text-anchor="middle" x="510" y="-181.7" font-family="Cascadia Code PL" font-size="11.00" fill="cyan">─────────────────</text>
<text text-anchor="middle" x="510" y="-169.7" font-family="Cascadia Code PL" font-size="11.00" fill="cyan">B1 held + dragging</text>
<text text-anchor="middle" x="510" y="-157.7" font-family="Cascadia Code PL" font-size="11.00" fill="cyan">Live&#45;sample under cursor</text>
<text text-anchor="middle" x="510" y="-145.7" font-family="Cascadia Code PL" font-size="11.00" fill="cyan">Color updates per frame</text>
<text text-anchor="middle" x="510" y="-133.7" font-family="Cascadia Code PL" font-size="11.00" fill="cyan">Useful for finding color</text>
</g>
<!-- S_IDLE&#45;&gt;S_CONTINUOUS -->
<g id="edge5" class="edge">
<title>S_IDLE&#45;&gt;S_CONTINUOUS</title>
<path fill="none" stroke="#66cc66" d="M387.52,-264.86C397.29,-259.17 407.01,-253.15 416,-247 430.75,-236.92 445.89,-224.94 459.59,-213.39"/>
<polygon fill="#66cc66" stroke="#66cc66" points="462.15,-215.8 467.48,-206.65 457.6,-210.48 462.15,-215.8"/>
<text text-anchor="middle" x="484.5" y="-239.8" font-family="Cascadia Code PL" font-size="9.00" fill="#aaaaaa"> &#160;B1 drag on canvas</text>
<text text-anchor="middle" x="484.5" y="-229.8" font-family="Cascadia Code PL" font-size="9.00" fill="#aaaaaa"> &#160;Continuous sampling</text>
</g>
<!-- S_SAMPLE_FG&#45;&gt;S_IDLE -->
<g id="edge3" class="edge">
<title>S_SAMPLE_FG&#45;&gt;S_IDLE</title>
<path fill="none" stroke="#cccc66" d="M126.02,-206.69C143.6,-220.37 164.13,-235.23 184,-247 193.57,-252.67 203.8,-258.14 214.15,-263.31"/>
<polygon fill="#cccc66" stroke="#cccc66" points="212.74,-266.51 223.26,-267.76 215.81,-260.23 212.74,-266.51"/>
<text text-anchor="middle" x="217" y="-239.8" font-family="Cascadia Code PL" font-size="9.00" fill="#aaaaaa"> &#160;Click processed</text>
<text text-anchor="middle" x="217" y="-229.8" font-family="Cascadia Code PL" font-size="9.00" fill="#aaaaaa"> &#160;FG color set</text>
</g>
<!-- S_SAMPLE_BG&#45;&gt;S_IDLE -->
<g id="edge4" class="edge">
<title>S_SAMPLE_BG&#45;&gt;S_IDLE</title>
<path fill="none" stroke="#cccc66" d="M322.16,-200.64C330.59,-208.19 338.09,-216.99 343,-227 347.45,-236.06 347.1,-245.9 344.24,-255.43"/>
<polygon fill="#cccc66" stroke="#cccc66" points="340.95,-254.21 340.62,-264.8 347.48,-256.73 340.95,-254.21"/>
<text text-anchor="middle" x="379" y="-239.8" font-family="Cascadia Code PL" font-size="9.00" fill="#aaaaaa"> &#160;Click processed</text>
<text text-anchor="middle" x="379" y="-229.8" font-family="Cascadia Code PL" font-size="9.00" fill="#aaaaaa"> &#160;BG color set</text>
</g>
<!-- S_CONTINUOUS&#45;&gt;S_IDLE -->
<g id="edge7" class="edge">
<title>S_CONTINUOUS&#45;&gt;S_IDLE</title>
<path fill="none" stroke="#cccc66" d="M534.71,-206.62C540.16,-220.45 541.98,-235.42 533,-247 517.22,-267.34 460.66,-281.69 408.59,-290.89"/>
<polygon fill="#cccc66" stroke="#cccc66" points="407.85,-287.47 398.59,-292.61 409.04,-294.37 407.85,-287.47"/>
<text text-anchor="middle" x="569" y="-239.8" font-family="Cascadia Code PL" font-size="9.00" fill="#aaaaaa"> &#160;B1 released</text>
<text text-anchor="middle" x="569" y="-229.8" font-family="Cascadia Code PL" font-size="9.00" fill="#aaaaaa"> &#160;Final color set</text>
</g>
<!-- S_CONTINUOUS&#45;&gt;S_CONTINUOUS -->
<g id="edge6" class="edge">
<title>S_CONTINUOUS&#45;&gt;S_CONTINUOUS</title>
<path fill="none" stroke="#88aacc" d="M581.63,-177.39C592.29,-175.69 599.5,-172.06 599.5,-166.5 599.5,-162.94 596.54,-160.17 591.61,-158.19"/>
<polygon fill="#88aacc" stroke="#88aacc" points="592.18,-154.72 581.63,-155.61 590.43,-161.5 592.18,-154.72"/>
<text text-anchor="middle" x="650.5" y="-169.3" font-family="Cascadia Code PL" font-size="9.00" fill="#aaaaaa"> &#160;B1 held + movement</text>
<text text-anchor="middle" x="650.5" y="-159.3" font-family="Cascadia Code PL" font-size="9.00" fill="#aaaaaa"> &#160;Update color each frame</text>
</g>
<!-- LP_ON -->
<g id="node8" class="node">
<title>LP_ON</title>
<polygon fill="none" stroke="white" points="857,-209 729,-209 729,-124 857,-124 857,-209"/>
<text text-anchor="middle" x="793" y="-197" font-family="Cascadia Code PL" font-size="10.00" fill="cyan">Loupe Active</text>
<text text-anchor="middle" x="793" y="-186" font-family="Cascadia Code PL" font-size="10.00" fill="cyan">────────────</text>
<text text-anchor="middle" x="793" y="-175" font-family="Cascadia Code PL" font-size="10.00" fill="cyan">LOUPE.visible% = TRUE</text>
<text text-anchor="middle" x="793" y="-164" font-family="Cascadia Code PL" font-size="10.00" fill="cyan">8&#45;16x magnified view</text>
<text text-anchor="middle" x="793" y="-153" font-family="Cascadia Code PL" font-size="10.00" fill="cyan">around cursor position</text>
<text text-anchor="middle" x="793" y="-142" font-family="Cascadia Code PL" font-size="10.00" fill="cyan">Hex/RGB overlay shown</text>
<text text-anchor="middle" x="793" y="-131" font-family="Cascadia Code PL" font-size="10.00" fill="cyan">Crosshair on center pixel</text>
</g>
<!-- LP_OFF&#45;&gt;LP_ON -->
<g id="edge8" class="edge">
<title>LP_OFF&#45;&gt;LP_ON</title>
<path fill="none" stroke="#66cc66" d="M776.61,-278.8C768.33,-269.7 760.35,-258.75 756,-247 752.54,-237.68 753.26,-227.94 756.24,-218.6"/>
<polygon fill="#66cc66" stroke="#66cc66" points="759.6,-219.63 760.09,-209.05 753.11,-217.01 759.6,-219.63"/>
<text text-anchor="middle" x="788" y="-239.6" font-family="Cascadia Code PL" font-size="8.00" fill="#aaaaaa"> Picker tool active</text>
<text text-anchor="middle" x="788" y="-230.6" font-family="Cascadia Code PL" font-size="8.00" fill="#aaaaaa"> or Alt held</text>
</g>
<!-- LP_ON&#45;&gt;LP_OFF -->
<g id="edge9" class="edge">
<title>LP_ON&#45;&gt;LP_OFF</title>
<path fill="none" stroke="#cc6666" stroke-dasharray="5,2" d="M814.61,-209.32C816.83,-215.13 818.73,-221.12 820,-227 822.98,-240.79 821.09,-256.03 817.79,-269.28"/>
<polygon fill="#cc6666" stroke="#cc6666" points="814.4,-268.4 815.04,-278.98 821.14,-270.31 814.4,-268.4"/>
<text text-anchor="middle" x="844" y="-239.6" font-family="Cascadia Code PL" font-size="8.00" fill="#aaaaaa"> Tool switch</text>
<text text-anchor="middle" x="844" y="-230.6" font-family="Cascadia Code PL" font-size="8.00" fill="#aaaaaa"> Alt released</text>
</g>
<!-- LP_LOCK -->
<g id="node9" class="node">
<title>LP_LOCK</title>
<polygon fill="none" stroke="white" points="853.5,-79 746.5,-79 746.5,-16 853.5,-16 853.5,-79"/>
<text text-anchor="middle" x="800" y="-67" font-family="Cascadia Code PL" font-size="10.00" fill="cyan">Loupe Locked</text>
<text text-anchor="middle" x="800" y="-56" font-family="Cascadia Code PL" font-size="10.00" fill="cyan">────────────</text>
<text text-anchor="middle" x="800" y="-45" font-family="Cascadia Code PL" font-size="10.00" fill="cyan">Position frozen</text>
<text text-anchor="middle" x="800" y="-34" font-family="Cascadia Code PL" font-size="10.00" fill="cyan">Continue viewing at</text>
<text text-anchor="middle" x="800" y="-23" font-family="Cascadia Code PL" font-size="10.00" fill="cyan">locked position</text>
</g>
<!-- LP_ON&#45;&gt;LP_LOCK -->
<g id="edge10" class="edge">
<title>LP_ON&#45;&gt;LP_LOCK</title>
<path fill="none" stroke="#88aacc" d="M760.32,-123.75C756.93,-115.06 755.76,-105.85 759,-97 760.19,-93.74 761.71,-90.55 763.46,-87.47"/>
<polygon fill="#88aacc" stroke="#88aacc" points="766.4,-89.35 768.9,-79.06 760.53,-85.55 766.4,-89.35"/>
<text text-anchor="middle" x="781" y="-99.6" font-family="Cascadia Code PL" font-size="8.00" fill="#aaaaaa"> Lock hotkey</text>
</g>
<!-- LP_LOCK&#45;&gt;LP_ON -->
<g id="edge11" class="edge">
<title>LP_LOCK&#45;&gt;LP_ON</title>
<path fill="none" stroke="#88aacc" d="M802.18,-79.02C802.52,-84.98 802.82,-91.18 803,-97 803.12,-101 803.33,-102.01 803,-106 802.79,-108.56 802.52,-111.17 802.22,-113.8"/>
<polygon fill="#88aacc" stroke="#88aacc" points="798.71,-113.63 800.88,-124 805.65,-114.54 798.71,-113.63"/>
<text text-anchor="middle" x="830" y="-99.6" font-family="Cascadia Code PL" font-size="8.00" fill="#aaaaaa"> Unlock / move</text>
</g>
<!-- INFO -->
<g id="node10" class="node">
<title>INFO</title>
<polygon fill="none" stroke="white" points="969,-480 851,-480 851,-395 969,-395 969,-480"/>
<text text-anchor="middle" x="910" y="-468" font-family="Cascadia Code PL" font-size="10.00" fill="cyan">Displayed Info</text>
<text text-anchor="middle" x="910" y="-457" font-family="Cascadia Code PL" font-size="10.00" fill="cyan">────────────</text>
<text text-anchor="middle" x="910" y="-446" font-family="Cascadia Code PL" font-size="10.00" fill="cyan">Hex color: #RRGGBB</text>
<text text-anchor="middle" x="910" y="-435" font-family="Cascadia Code PL" font-size="10.00" fill="cyan">RGB: (R, G, B)</text>
<text text-anchor="middle" x="910" y="-424" font-family="Cascadia Code PL" font-size="10.00" fill="cyan">Alpha value</text>
<text text-anchor="middle" x="910" y="-413" font-family="Cascadia Code PL" font-size="10.00" fill="cyan">Palette index (if match)</text>
<text text-anchor="middle" x="910" y="-402" font-family="Cascadia Code PL" font-size="10.00" fill="cyan">Coordinate position</text>
</g>
<!-- L1 -->
<g id="node11" class="node">
<title>L1</title>
<ellipse fill="white" stroke="white" cx="1177" cy="-437.5" rx="0.36" ry="0.36"/>
</g>
<!-- L2 -->
<g id="node12" class="node">
<title>L2</title>
<ellipse fill="white" stroke="white" cx="1177" cy="-305" rx="0.36" ry="0.36"/>
</g>
<!-- L1&#45;&gt;L2 -->
<g id="edge14" class="edge">
<title>L1&#45;&gt;L2</title>
<path fill="none" stroke="#66cc66" d="M1177,-436.41C1177,-433.14 1177,-346.15 1177,-316.1"/>
<polygon fill="#66cc66" stroke="#66cc66" points="1180.5,-316.09 1177,-306.09 1173.5,-316.09 1180.5,-316.09"/>
<text text-anchor="middle" x="1213" y="-369.8" font-family="Cascadia Code PL" font-size="9.00" fill="#aaaaaa"> Sample / Activate</text>
</g>
<!-- L3 -->
<g id="node13" class="node">
<title>L3</title>
<ellipse fill="white" stroke="white" cx="1072" cy="-437.5" rx="0.36" ry="0.36"/>
</g>
<!-- L4 -->
<g id="node14" class="node">
<title>L4</title>
<ellipse fill="white" stroke="white" cx="1072" cy="-305" rx="0.36" ry="0.36"/>
</g>
<!-- L3&#45;&gt;L4 -->
<g id="edge15" class="edge">
<title>L3&#45;&gt;L4</title>
<path fill="none" stroke="#cc6666" stroke-dasharray="5,2" d="M1072,-436.41C1072,-433.14 1072,-346.15 1072,-316.1"/>
<polygon fill="#cc6666" stroke="#cc6666" points="1075.5,-316.09 1072,-306.09 1068.5,-316.09 1075.5,-316.09"/>
<text text-anchor="middle" x="1113" y="-369.8" font-family="Cascadia Code PL" font-size="9.00" fill="#aaaaaa"> Release / Deactivate</text>
</g>
<!-- L5 -->
<g id="node15" class="node">
<title>L5</title>
<ellipse fill="white" stroke="white" cx="1011" cy="-437.5" rx="0.36" ry="0.36"/>
</g>
<!-- L6 -->
<g id="node16" class="node">
<title>L6</title>
<ellipse fill="white" stroke="white" cx="1011" cy="-305" rx="0.36" ry="0.36"/>
</g>
<!-- L5&#45;&gt;L6 -->
<g id="edge16" class="edge">
<title>L5&#45;&gt;L6</title>
<path fill="none" stroke="#cccc66" d="M1011,-436.41C1011,-433.14 1011,-346.15 1011,-316.1"/>
<polygon fill="#cccc66" stroke="#cccc66" points="1014.5,-316.09 1011,-306.09 1007.5,-316.09 1014.5,-316.09"/>
<text text-anchor="middle" x="1030" y="-369.8" font-family="Cascadia Code PL" font-size="9.00" fill="#aaaaaa"> Color Set</text>
</g>
</g>
</svg>
