<?xml version="1.0" encoding="UTF-8" standalone="no"?>
<!DOCTYPE svg PUBLIC "-//W3C//DTD SVG 1.1//EN"
 "http://www.w3.org/Graphics/SVG/1.1/DTD/svg11.dtd">
<!-- Generated by graphviz version 2.42.4 (0)
 -->
<!-- Title: POLY_LINE_TOOL Pages: 1 -->
<svg width="969pt" height="828pt"
 viewBox="0.00 0.00 969.21 828.36" xmlns="http://www.w3.org/2000/svg" xmlns:xlink="http://www.w3.org/1999/xlink">
<g id="graph0" class="graph" transform="scale(1 1) rotate(0) translate(4 824.36)">
<title>POLY_LINE_TOOL</title>
<text text-anchor="middle" x="480.61" y="-797.16" font-family="Cascadia Code PL" font-size="24.00" fill="white">POLY LINE / FILLED POLYGON TOOL STATE MACHINE</text>
<g id="clust4" class="cluster">
<title>cluster_legend</title>
<polygon fill="transparent" stroke="white" stroke-dasharray="5,2" points="549.21,-622.64 549.21,-778.36 953.21,-778.36 953.21,-622.64 549.21,-622.64"/>
<text text-anchor="middle" x="577.21" y="-765.56" font-family="Cascadia Code PL" font-size="11.00" fill="white">LEGEND</text>
</g>
<g id="clust2" class="cluster">
<title>cluster_filled</title>
<polygon fill="transparent" stroke="orange" stroke-dasharray="5,2" points="323.21,-443 323.21,-696 541.21,-696 541.21,-443 323.21,-443"/>
<text text-anchor="middle" x="393.71" y="-683.2" font-family="Cascadia Code PL" font-size="11.00" fill="orange">FILLED vs OUTLINE MODE</text>
</g>
<!-- MAIN -->
<g id="node1" class="node">
<title>MAIN</title>
<polygon fill="none" stroke="orange" stroke-width="2" points="260.21,-768 257.21,-772 236.21,-772 233.21,-768 140.21,-768 140.21,-732 260.21,-732 260.21,-768"/>
<text text-anchor="middle" x="200.21" y="-746.6" font-family="Cascadia Code PL" font-size="13.00" fill="orange">POLY LINE STATES</text>
</g>
<!-- S_IDLE -->
<g id="node3" class="node">
<title>S_IDLE</title>
<polygon fill="none" stroke="white" points="254.71,-665 145.71,-665 145.71,-597 254.71,-597 254.71,-665"/>
<text text-anchor="middle" x="200.21" y="-652.2" font-family="Cascadia Code PL" font-size="11.00" fill="cyan">1 · IDLE</text>
<text text-anchor="middle" x="200.21" y="-640.2" font-family="Cascadia Code PL" font-size="11.00" fill="cyan">─────────────────</text>
<text text-anchor="middle" x="200.21" y="-628.2" font-family="Cascadia Code PL" font-size="11.00" fill="cyan">HAS_LAST = FALSE</text>
<text text-anchor="middle" x="200.21" y="-616.2" font-family="Cascadia Code PL" font-size="11.00" fill="cyan">POINT_COUNT = 0</text>
<text text-anchor="middle" x="200.21" y="-604.2" font-family="Cascadia Code PL" font-size="11.00" fill="cyan">No vertices placed</text>
</g>
<!-- MAIN&#45;&gt;S_IDLE -->
<g id="edge10" class="edge">
<title>MAIN&#45;&gt;S_IDLE</title>
<path fill="none" stroke="#555555" stroke-dasharray="1,5" d="M200.21,-731.99C200.21,-714.62 200.21,-687.21 200.21,-665.47"/>
</g>
<!-- FILL_F -->
<g id="node2" class="node">
<title>FILL_F</title>
<polygon fill="none" stroke="orange" stroke-width="2" points="490.21,-768 487.21,-772 466.21,-772 463.21,-768 374.21,-768 374.21,-732 490.21,-732 490.21,-768"/>
<text text-anchor="middle" x="432.21" y="-746.6" font-family="Cascadia Code PL" font-size="13.00" fill="orange">FILLED POLYGON</text>
</g>
<!-- FM_OUTLINE -->
<g id="node8" class="node">
<title>FM_OUTLINE</title>
<polygon fill="none" stroke="white" points="525.21,-668 339.21,-668 339.21,-594 525.21,-594 525.21,-668"/>
<text text-anchor="middle" x="432.21" y="-656" font-family="Cascadia Code PL" font-size="10.00" fill="cyan">Poly Line (Outline)</text>
<text text-anchor="middle" x="432.21" y="-645" font-family="Cascadia Code PL" font-size="10.00" fill="cyan">────────────</text>
<text text-anchor="middle" x="432.21" y="-634" font-family="Cascadia Code PL" font-size="10.00" fill="cyan">CURRENT_TOOL% = TOOL_POLY_LINE</text>
<text text-anchor="middle" x="432.21" y="-623" font-family="Cascadia Code PL" font-size="10.00" fill="cyan">FILLED = FALSE</text>
<text text-anchor="middle" x="432.21" y="-612" font-family="Cascadia Code PL" font-size="10.00" fill="cyan">Draw edges only</text>
<text text-anchor="middle" x="432.21" y="-601" font-family="Cascadia Code PL" font-size="10.00" fill="cyan">Bresenham per segment</text>
</g>
<!-- FILL_F&#45;&gt;FM_OUTLINE -->
<g id="edge11" class="edge">
<title>FILL_F&#45;&gt;FM_OUTLINE</title>
<path fill="none" stroke="#555555" stroke-dasharray="1,5" d="M432.21,-731.99C432.21,-722.23 432.21,-709.31 432.21,-696"/>
</g>
<!-- S_PLACING -->
<g id="node4" class="node">
<title>S_PLACING</title>
<polygon fill="none" stroke="white" points="164.21,-528 18.21,-528 18.21,-448 164.21,-448 164.21,-528"/>
<text text-anchor="middle" x="91.21" y="-515.2" font-family="Cascadia Code PL" font-size="11.00" fill="cyan">2 · PLACING VERTICES</text>
<text text-anchor="middle" x="91.21" y="-503.2" font-family="Cascadia Code PL" font-size="11.00" fill="cyan">─────────────────</text>
<text text-anchor="middle" x="91.21" y="-491.2" font-family="Cascadia Code PL" font-size="11.00" fill="cyan">Click to add vertex</text>
<text text-anchor="middle" x="91.21" y="-479.2" font-family="Cascadia Code PL" font-size="11.00" fill="cyan">POLY_POINTS_X/Y(n)</text>
<text text-anchor="middle" x="91.21" y="-467.2" font-family="Cascadia Code PL" font-size="11.00" fill="cyan">Preview line to cursor</text>
<text text-anchor="middle" x="91.21" y="-455.2" font-family="Cascadia Code PL" font-size="11.00" fill="cyan">POINT_COUNT increments</text>
</g>
<!-- S_IDLE&#45;&gt;S_PLACING -->
<g id="edge1" class="edge">
<title>S_IDLE&#45;&gt;S_PLACING</title>
<path fill="none" stroke="#66cc66" d="M145.26,-607.2C131.67,-599.18 118.39,-588.86 109.21,-576 101.36,-564.99 96.78,-551.32 94.14,-538.11"/>
<polygon fill="#66cc66" stroke="#66cc66" points="97.58,-537.43 92.49,-528.14 90.67,-538.58 97.58,-537.43"/>
<text text-anchor="middle" x="147.71" y="-568.8" font-family="Cascadia Code PL" font-size="9.00" fill="#aaaaaa"> &#160;B1 click on canvas</text>
<text text-anchor="middle" x="147.71" y="-558.8" font-family="Cascadia Code PL" font-size="9.00" fill="#aaaaaa"> &#160;FIRST_X/Y = click</text>
<text text-anchor="middle" x="147.71" y="-548.8" font-family="Cascadia Code PL" font-size="9.00" fill="#aaaaaa"> &#160;HAS_LAST = TRUE</text>
</g>
<!-- S_PREVIEW -->
<g id="node5" class="node">
<title>S_PREVIEW</title>
<polygon fill="none" stroke="white" points="228.21,-382 54.21,-382 54.21,-302 228.21,-302 228.21,-382"/>
<text text-anchor="middle" x="141.21" y="-369.2" font-family="Cascadia Code PL" font-size="11.00" fill="cyan">3 · PREVIEW</text>
<text text-anchor="middle" x="141.21" y="-357.2" font-family="Cascadia Code PL" font-size="11.00" fill="cyan">─────────────────</text>
<text text-anchor="middle" x="141.21" y="-345.2" font-family="Cascadia Code PL" font-size="11.00" fill="cyan">White outline shown</text>
<text text-anchor="middle" x="141.21" y="-333.2" font-family="Cascadia Code PL" font-size="11.00" fill="cyan">All vertices connected</text>
<text text-anchor="middle" x="141.21" y="-321.2" font-family="Cascadia Code PL" font-size="11.00" fill="cyan">Mouse → next preview segment</text>
<text text-anchor="middle" x="141.21" y="-309.2" font-family="Cascadia Code PL" font-size="11.00" fill="cyan">From LAST_X/Y to cursor</text>
</g>
<!-- S_PLACING&#45;&gt;S_PREVIEW -->
<g id="edge2" class="edge">
<title>S_PLACING&#45;&gt;S_PREVIEW</title>
<path fill="none" stroke="#66cc66" d="M91.59,-447.91C92.79,-432.57 95.49,-415.06 101.21,-400 102.37,-396.95 103.73,-393.91 105.24,-390.91"/>
<polygon fill="#66cc66" stroke="#66cc66" points="108.35,-392.51 110.13,-382.06 102.23,-389.12 108.35,-392.51"/>
<text text-anchor="middle" x="143.71" y="-417.8" font-family="Cascadia Code PL" font-size="9.00" fill="#aaaaaa"> &#160;First vertex placed</text>
<text text-anchor="middle" x="143.71" y="-407.8" font-family="Cascadia Code PL" font-size="9.00" fill="#aaaaaa"> &#160;Preview edge drawn</text>
</g>
<!-- S_PREVIEW&#45;&gt;S_IDLE -->
<g id="edge7" class="edge">
<title>S_PREVIEW&#45;&gt;S_IDLE</title>
<path fill="none" stroke="#cc6666" stroke-dasharray="5,2" d="M176.95,-382.23C180.63,-387.89 183.88,-393.87 186.21,-400 209.68,-461.5 208.77,-538.97 205.11,-586.47"/>
<polygon fill="#cc6666" stroke="#cc6666" points="201.6,-586.45 204.25,-596.71 208.58,-587.04 201.6,-586.45"/>
<text text-anchor="middle" x="245.21" y="-495.8" font-family="Cascadia Code PL" font-size="9.00" fill="#aaaaaa"> &#160;Escape pressed</text>
<text text-anchor="middle" x="245.21" y="-485.8" font-family="Cascadia Code PL" font-size="9.00" fill="#aaaaaa"> &#160;POLY_LINE_reset()</text>
<text text-anchor="middle" x="245.21" y="-475.8" font-family="Cascadia Code PL" font-size="9.00" fill="#aaaaaa"> &#160;Cancel polygon</text>
</g>
<!-- S_PREVIEW&#45;&gt;S_PLACING -->
<g id="edge3" class="edge">
<title>S_PREVIEW&#45;&gt;S_PLACING</title>
<path fill="none" stroke="#66cc66" d="M53.9,-362.13C34.75,-370.54 16.77,-382.63 5.21,-400 -4.32,-414.34 0.81,-428.32 12.27,-440.74"/>
<polygon fill="#66cc66" stroke="#66cc66" points="10.06,-443.46 19.69,-447.86 14.9,-438.41 10.06,-443.46"/>
<text text-anchor="middle" x="47.71" y="-422.8" font-family="Cascadia Code PL" font-size="9.00" fill="#aaaaaa"> &#160;B1 click</text>
<text text-anchor="middle" x="47.71" y="-412.8" font-family="Cascadia Code PL" font-size="9.00" fill="#aaaaaa"> &#160;Add vertex at cursor</text>
<text text-anchor="middle" x="47.71" y="-402.8" font-family="Cascadia Code PL" font-size="9.00" fill="#aaaaaa"> &#160;POINT_COUNT++</text>
</g>
<!-- S_CLOSING -->
<g id="node6" class="node">
<title>S_CLOSING</title>
<polygon fill="none" stroke="white" points="249.21,-226 121.21,-226 121.21,-146 249.21,-146 249.21,-226"/>
<text text-anchor="middle" x="185.21" y="-213.2" font-family="Cascadia Code PL" font-size="11.00" fill="cyan">4 · CLOSING POLYGON</text>
<text text-anchor="middle" x="185.21" y="-201.2" font-family="Cascadia Code PL" font-size="11.00" fill="cyan">─────────────────</text>
<text text-anchor="middle" x="185.21" y="-189.2" font-family="Cascadia Code PL" font-size="11.00" fill="cyan">RightClick near FIRST</text>
<text text-anchor="middle" x="185.21" y="-177.2" font-family="Cascadia Code PL" font-size="11.00" fill="cyan">or double&#45;click</text>
<text text-anchor="middle" x="185.21" y="-165.2" font-family="Cascadia Code PL" font-size="11.00" fill="cyan">or Enter key</text>
<text text-anchor="middle" x="185.21" y="-153.2" font-family="Cascadia Code PL" font-size="11.00" fill="cyan">Connect LAST to FIRST</text>
</g>
<!-- S_PREVIEW&#45;&gt;S_CLOSING -->
<g id="edge4" class="edge">
<title>S_PREVIEW&#45;&gt;S_CLOSING</title>
<path fill="none" stroke="#cccc66" d="M152.43,-301.74C158.15,-281.74 165.15,-257.22 171.22,-235.99"/>
<polygon fill="#cccc66" stroke="#cccc66" points="174.64,-236.76 174.02,-226.19 167.9,-234.84 174.64,-236.76"/>
<text text-anchor="middle" x="211.71" y="-276.8" font-family="Cascadia Code PL" font-size="9.00" fill="#aaaaaa"> &#160;B2 click near FIRST</text>
<text text-anchor="middle" x="211.71" y="-266.8" font-family="Cascadia Code PL" font-size="9.00" fill="#aaaaaa"> &#160;or double&#45;click near</text>
<text text-anchor="middle" x="211.71" y="-256.8" font-family="Cascadia Code PL" font-size="9.00" fill="#aaaaaa"> &#160;FIRST_X/Y</text>
<text text-anchor="middle" x="211.71" y="-246.8" font-family="Cascadia Code PL" font-size="9.00" fill="#aaaaaa"> &#160;or Enter key</text>
</g>
<!-- S_COMMITTED -->
<g id="node7" class="node">
<title>S_COMMITTED</title>
<polygon fill="none" stroke="white" points="319.71,-80 168.71,-80 168.71,0 319.71,0 319.71,-80"/>
<text text-anchor="middle" x="244.21" y="-67.2" font-family="Cascadia Code PL" font-size="11.00" fill="cyan">5 · COMMITTED</text>
<text text-anchor="middle" x="244.21" y="-55.2" font-family="Cascadia Code PL" font-size="11.00" fill="cyan">─────────────────</text>
<text text-anchor="middle" x="244.21" y="-43.2" font-family="Cascadia Code PL" font-size="11.00" fill="cyan">Polygon finalized</text>
<text text-anchor="middle" x="244.21" y="-31.2" font-family="Cascadia Code PL" font-size="11.00" fill="cyan">HISTORY_record_brush()</text>
<text text-anchor="middle" x="244.21" y="-19.2" font-family="Cascadia Code PL" font-size="11.00" fill="cyan">FILLED: POLY_FILL_scanline()</text>
<text text-anchor="middle" x="244.21" y="-7.2" font-family="Cascadia Code PL" font-size="11.00" fill="cyan">OUTLINE: edge lines drawn</text>
</g>
<!-- S_CLOSING&#45;&gt;S_COMMITTED -->
<g id="edge5" class="edge">
<title>S_CLOSING&#45;&gt;S_COMMITTED</title>
<path fill="none" stroke="#cccc66" d="M180.6,-145.99C180.26,-130.5 181.83,-112.86 188.21,-98 189.6,-94.78 191.25,-91.64 193.11,-88.59"/>
<polygon fill="#cccc66" stroke="#cccc66" points="196.05,-90.5 198.84,-80.28 190.29,-86.53 196.05,-90.5"/>
<text text-anchor="middle" x="239.21" y="-120.8" font-family="Cascadia Code PL" font-size="9.00" fill="#aaaaaa"> &#160;Auto&#45;close polygon</text>
<text text-anchor="middle" x="239.21" y="-110.8" font-family="Cascadia Code PL" font-size="9.00" fill="#aaaaaa"> &#160;Draw LAST → FIRST</text>
<text text-anchor="middle" x="239.21" y="-100.8" font-family="Cascadia Code PL" font-size="9.00" fill="#aaaaaa"> &#160;HISTORY_record_brush()</text>
</g>
<!-- S_COMMITTED&#45;&gt;S_IDLE -->
<g id="edge6" class="edge">
<title>S_COMMITTED&#45;&gt;S_IDLE</title>
<path fill="none" stroke="#6699ff" d="M279.94,-80.07C283.89,-85.79 287.47,-91.84 290.21,-98 306.16,-133.77 304.21,-145.84 304.21,-185 304.21,-489 304.21,-489 304.21,-489 304.21,-528.62 277.29,-564.42 250.84,-590.04"/>
<polygon fill="#6699ff" stroke="#6699ff" points="248.32,-587.6 243.42,-596.99 253.11,-592.71 248.32,-587.6"/>
<text text-anchor="middle" x="343.71" y="-349.8" font-family="Cascadia Code PL" font-size="9.00" fill="#aaaaaa"> &#160;POLY_LINE_reset()</text>
<text text-anchor="middle" x="343.71" y="-339.8" font-family="Cascadia Code PL" font-size="9.00" fill="#aaaaaa"> &#160;HAS_LAST = FALSE</text>
<text text-anchor="middle" x="343.71" y="-329.8" font-family="Cascadia Code PL" font-size="9.00" fill="#aaaaaa"> &#160;POINT_COUNT = 0</text>
</g>
<!-- FM_FILLED -->
<g id="node9" class="node">
<title>FM_FILLED</title>
<polygon fill="none" stroke="white" points="523.71,-525 340.71,-525 340.71,-451 523.71,-451 523.71,-525"/>
<text text-anchor="middle" x="432.21" y="-513" font-family="Cascadia Code PL" font-size="10.00" fill="cyan">Poly Fill (Filled)</text>
<text text-anchor="middle" x="432.21" y="-502" font-family="Cascadia Code PL" font-size="10.00" fill="cyan">────────────</text>
<text text-anchor="middle" x="432.21" y="-491" font-family="Cascadia Code PL" font-size="10.00" fill="cyan">CURRENT_TOOL% = TOOL_POLY_FILL</text>
<text text-anchor="middle" x="432.21" y="-480" font-family="Cascadia Code PL" font-size="10.00" fill="cyan">FILLED = TRUE</text>
<text text-anchor="middle" x="432.21" y="-469" font-family="Cascadia Code PL" font-size="10.00" fill="cyan">POLY_FILL_scanline()</text>
<text text-anchor="middle" x="432.21" y="-458" font-family="Cascadia Code PL" font-size="10.00" fill="cyan">Scanline fill algorithm</text>
</g>
<!-- FM_OUTLINE&#45;&gt;FM_FILLED -->
<g id="edge8" class="edge">
<title>FM_OUTLINE&#45;&gt;FM_FILLED</title>
<path fill="none" stroke="#6699ff" d="M363.97,-593.82C358.53,-588.53 353.77,-582.6 350.21,-576 343.89,-564.26 344.04,-557.82 350.21,-546 352.77,-541.1 355.97,-536.54 359.6,-532.31"/>
<polygon fill="#6699ff" stroke="#6699ff" points="362.17,-534.68 366.56,-525.04 357.12,-529.84 362.17,-534.68"/>
<text text-anchor="middle" x="389.71" y="-559.1" font-family="Cascadia Code PL" font-size="8.00" fill="#aaaaaa"> Select POLY_FILL tool</text>
</g>
<!-- FM_FILLED&#45;&gt;FM_OUTLINE -->
<g id="edge9" class="edge">
<title>FM_FILLED&#45;&gt;FM_OUTLINE</title>
<path fill="none" stroke="#6699ff" d="M432.21,-525.19C432.21,-542.93 432.21,-564.51 432.21,-583.47"/>
<polygon fill="#6699ff" stroke="#6699ff" points="428.71,-583.69 432.21,-593.69 435.71,-583.69 428.71,-583.69"/>
<text text-anchor="middle" x="473.21" y="-559.1" font-family="Cascadia Code PL" font-size="8.00" fill="#aaaaaa"> Select POLY_LINE tool</text>
</g>
<!-- L1 -->
<g id="node10" class="node">
<title>L1</title>
<ellipse fill="white" stroke="white" cx="854.21" cy="-750" rx="0.36" ry="0.36"/>
</g>
<!-- L2 -->
<g id="node11" class="node">
<title>L2</title>
<ellipse fill="white" stroke="white" cx="854.21" cy="-631" rx="0.36" ry="0.36"/>
</g>
<!-- L1&#45;&gt;L2 -->
<g id="edge12" class="edge">
<title>L1&#45;&gt;L2</title>
<path fill="none" stroke="#66cc66" d="M854.21,-748.92C854.21,-746.03 854.21,-670.15 854.21,-642.21"/>
<polygon fill="#66cc66" stroke="#66cc66" points="857.71,-642.08 854.21,-632.08 850.71,-642.08 857.71,-642.08"/>
<text text-anchor="middle" x="899.71" y="-706.8" font-family="Cascadia Code PL" font-size="9.00" fill="#aaaaaa"> Place Vertex / Activate</text>
</g>
<!-- L3 -->
<g id="node12" class="node">
<title>L3</title>
<ellipse fill="white" stroke="white" cx="767.21" cy="-750" rx="0.36" ry="0.36"/>
</g>
<!-- L4 -->
<g id="node13" class="node">
<title>L4</title>
<ellipse fill="white" stroke="white" cx="767.21" cy="-631" rx="0.36" ry="0.36"/>
</g>
<!-- L3&#45;&gt;L4 -->
<g id="edge13" class="edge">
<title>L3&#45;&gt;L4</title>
<path fill="none" stroke="#cc6666" stroke-dasharray="5,2" d="M767.21,-748.92C767.21,-746.03 767.21,-670.15 767.21,-642.21"/>
<polygon fill="#cc6666" stroke="#cc6666" points="770.71,-642.08 767.21,-632.08 763.71,-642.08 770.71,-642.08"/>
<text text-anchor="middle" x="799.21" y="-706.8" font-family="Cascadia Code PL" font-size="9.00" fill="#aaaaaa"> Cancel / Escape</text>
</g>
<!-- L5 -->
<g id="node14" class="node">
<title>L5</title>
<ellipse fill="white" stroke="white" cx="681.21" cy="-750" rx="0.36" ry="0.36"/>
</g>
<!-- L6 -->
<g id="node15" class="node">
<title>L6</title>
<ellipse fill="white" stroke="white" cx="681.21" cy="-631" rx="0.36" ry="0.36"/>
</g>
<!-- L5&#45;&gt;L6 -->
<g id="edge14" class="edge">
<title>L5&#45;&gt;L6</title>
<path fill="none" stroke="#cccc66" d="M681.21,-748.92C681.21,-746.03 681.21,-670.15 681.21,-642.21"/>
<polygon fill="#cccc66" stroke="#cccc66" points="684.71,-642.08 681.21,-632.08 677.71,-642.08 684.71,-642.08"/>
<text text-anchor="middle" x="712.71" y="-706.8" font-family="Cascadia Code PL" font-size="9.00" fill="#aaaaaa"> Close / Commit</text>
</g>
<!-- L7 -->
<g id="node16" class="node">
<title>L7</title>
<ellipse fill="white" stroke="white" cx="575.21" cy="-750" rx="0.36" ry="0.36"/>
</g>
<!-- L8 -->
<g id="node17" class="node">
<title>L8</title>
<ellipse fill="white" stroke="white" cx="575.21" cy="-631" rx="0.36" ry="0.36"/>
</g>
<!-- L7&#45;&gt;L8 -->
<g id="edge15" class="edge">
<title>L7&#45;&gt;L8</title>
<path fill="none" stroke="#6699ff" d="M575.21,-748.92C575.21,-746.03 575.21,-670.15 575.21,-642.21"/>
<polygon fill="#6699ff" stroke="#6699ff" points="578.71,-642.08 575.21,-632.08 571.71,-642.08 578.71,-642.08"/>
<text text-anchor="middle" x="616.71" y="-706.8" font-family="Cascadia Code PL" font-size="9.00" fill="#aaaaaa"> Reset / Mode Switch</text>
</g>
</g>
</svg>
