<?xml version="1.0" encoding="UTF-8" standalone="no"?>
<!DOCTYPE svg PUBLIC "-//W3C//DTD SVG 1.1//EN"
 "http://www.w3.org/Graphics/SVG/1.1/DTD/svg11.dtd">
<!-- Generated by graphviz version 2.42.4 (0)
 -->
<!-- Title: RECT_TOOL Pages: 1 -->
<svg width="1256pt" height="573pt"
 viewBox="0.00 0.00 1255.50 573.00" xmlns="http://www.w3.org/2000/svg" xmlns:xlink="http://www.w3.org/1999/xlink">
<g id="graph0" class="graph" transform="scale(1 1) rotate(0) translate(4 569)">
<title>RECT_TOOL</title>
<text text-anchor="middle" x="623.75" y="-541.8" font-family="Cascadia Code PL" font-size="24.00" fill="white">RECTANGLE / FILLED RECTANGLE TOOL STATE MACHINE</text>
<g id="clust2" class="cluster">
<title>cluster_modes</title>
<polygon fill="transparent" stroke="orange" stroke-dasharray="5,2" points="729.5,-286 729.5,-523 929.5,-523 929.5,-286 729.5,-286"/>
<text text-anchor="middle" x="786" y="-510.2" font-family="Cascadia Code PL" font-size="11.00" fill="orange">RECTANGLE MODES</text>
</g>
<g id="clust3" class="cluster">
<title>cluster_mods</title>
<polygon fill="transparent" stroke="orange" stroke-dasharray="5,2" points="404.5,-8 404.5,-385 721.5,-385 721.5,-8 404.5,-8"/>
<text text-anchor="middle" x="457" y="-372.2" font-family="Cascadia Code PL" font-size="11.00" fill="orange">DRAW MODIFIERS</text>
</g>
<g id="clust5" class="cluster">
<title>cluster_legend</title>
<polygon fill="transparent" stroke="white" stroke-dasharray="5,2" points="937.5,-322.64 937.5,-486.36 1239.5,-486.36 1239.5,-322.64 937.5,-322.64"/>
<text text-anchor="middle" x="965.5" y="-473.56" font-family="Cascadia Code PL" font-size="11.00" fill="white">LEGEND</text>
</g>
<!-- MAIN -->
<g id="node1" class="node">
<title>MAIN</title>
<polygon fill="none" stroke="orange" stroke-width="2" points="278,-476 275,-480 254,-480 251,-476 189,-476 189,-440 278,-440 278,-476"/>
<text text-anchor="middle" x="233.5" y="-454.6" font-family="Cascadia Code PL" font-size="13.00" fill="orange">RECT STATES</text>
</g>
<!-- S_IDLE -->
<g id="node3" class="node">
<title>S_IDLE</title>
<polygon fill="none" stroke="white" points="319.5,-359 147.5,-359 147.5,-303 319.5,-303 319.5,-359"/>
<text text-anchor="middle" x="233.5" y="-346.2" font-family="Cascadia Code PL" font-size="11.00" fill="cyan">1 · IDLE</text>
<text text-anchor="middle" x="233.5" y="-334.2" font-family="Cascadia Code PL" font-size="11.00" fill="cyan">─────────────────</text>
<text text-anchor="middle" x="233.5" y="-322.2" font-family="Cascadia Code PL" font-size="11.00" fill="cyan">RECT_TOOL.DRAGGING = FALSE</text>
<text text-anchor="middle" x="233.5" y="-310.2" font-family="Cascadia Code PL" font-size="11.00" fill="cyan">Cursor: crosshair</text>
</g>
<!-- MAIN&#45;&gt;S_IDLE -->
<g id="edge12" class="edge">
<title>MAIN&#45;&gt;S_IDLE</title>
<path fill="none" stroke="#555555" stroke-dasharray="1,5" d="M233.5,-439.88C233.5,-419.15 233.5,-383.98 233.5,-359.45"/>
</g>
<!-- MODS -->
<g id="node2" class="node">
<title>MODS</title>
<polygon fill="none" stroke="orange" stroke-width="2" points="622.5,-476 619.5,-480 598.5,-480 595.5,-476 540.5,-476 540.5,-440 622.5,-440 622.5,-476"/>
<text text-anchor="middle" x="581.5" y="-454.6" font-family="Cascadia Code PL" font-size="13.00" fill="orange">MODIFIERS</text>
</g>
<!-- M_FREE -->
<g id="node8" class="node">
<title>M_FREE</title>
<polygon fill="none" stroke="white" points="636,-357 527,-357 527,-305 636,-305 636,-357"/>
<text text-anchor="middle" x="581.5" y="-345" font-family="Cascadia Code PL" font-size="10.00" fill="cyan">Free Form</text>
<text text-anchor="middle" x="581.5" y="-334" font-family="Cascadia Code PL" font-size="10.00" fill="cyan">────────────</text>
<text text-anchor="middle" x="581.5" y="-323" font-family="Cascadia Code PL" font-size="10.00" fill="cyan">Any rectangle shape</text>
<text text-anchor="middle" x="581.5" y="-312" font-family="Cascadia Code PL" font-size="10.00" fill="cyan">No constraints</text>
</g>
<!-- MODS&#45;&gt;M_FREE -->
<g id="edge13" class="edge">
<title>MODS&#45;&gt;M_FREE</title>
<path fill="none" stroke="#555555" stroke-dasharray="1,5" d="M581.5,-439.88C581.5,-425.68 581.5,-404.69 581.5,-385"/>
</g>
<!-- S_DRAGGING -->
<g id="node4" class="node">
<title>S_DRAGGING</title>
<polygon fill="none" stroke="white" points="169,-228 0,-228 0,-148 169,-148 169,-228"/>
<text text-anchor="middle" x="84.5" y="-215.2" font-family="Cascadia Code PL" font-size="11.00" fill="cyan">2 · DRAGGING</text>
<text text-anchor="middle" x="84.5" y="-203.2" font-family="Cascadia Code PL" font-size="11.00" fill="cyan">─────────────────</text>
<text text-anchor="middle" x="84.5" y="-191.2" font-family="Cascadia Code PL" font-size="11.00" fill="cyan">RECT_TOOL.DRAGGING = TRUE</text>
<text text-anchor="middle" x="84.5" y="-179.2" font-family="Cascadia Code PL" font-size="11.00" fill="cyan">Preview rect rendered</text>
<text text-anchor="middle" x="84.5" y="-167.2" font-family="Cascadia Code PL" font-size="11.00" fill="cyan">START_X/Y to END_X/Y</text>
<text text-anchor="middle" x="84.5" y="-155.2" font-family="Cascadia Code PL" font-size="11.00" fill="cyan">Outline or filled preview</text>
</g>
<!-- S_IDLE&#45;&gt;S_DRAGGING -->
<g id="edge1" class="edge">
<title>S_IDLE&#45;&gt;S_DRAGGING</title>
<path fill="none" stroke="#66cc66" d="M204.77,-302.81C184.55,-283.68 156.98,-257.59 133.34,-235.22"/>
<polygon fill="#66cc66" stroke="#66cc66" points="135.49,-232.43 125.82,-228.1 130.68,-237.52 135.49,-232.43"/>
<text text-anchor="middle" x="213.5" y="-268.8" font-family="Cascadia Code PL" font-size="9.00" fill="#aaaaaa"> &#160;B1 press on canvas</text>
<text text-anchor="middle" x="213.5" y="-258.8" font-family="Cascadia Code PL" font-size="9.00" fill="#aaaaaa"> &#160;START_X/Y = cursor</text>
<text text-anchor="middle" x="213.5" y="-248.8" font-family="Cascadia Code PL" font-size="9.00" fill="#aaaaaa"> &#160;DRAGGING = TRUE</text>
</g>
<!-- S_DRAGGING&#45;&gt;S_DRAGGING -->
<g id="edge2" class="edge">
<title>S_DRAGGING&#45;&gt;S_DRAGGING</title>
<path fill="none" stroke="#88aacc" d="M169.34,-199.76C179.99,-197.68 187,-193.77 187,-188 187,-184.31 184.12,-181.37 179.25,-179.19"/>
<polygon fill="#88aacc" stroke="#88aacc" points="179.92,-175.74 169.34,-176.24 177.92,-182.45 179.92,-175.74"/>
<text text-anchor="middle" x="236.5" y="-195.8" font-family="Cascadia Code PL" font-size="9.00" fill="#aaaaaa"> &#160;B1 held + movement</text>
<text text-anchor="middle" x="236.5" y="-185.8" font-family="Cascadia Code PL" font-size="9.00" fill="#aaaaaa"> &#160;Update END_X/Y</text>
<text text-anchor="middle" x="236.5" y="-175.8" font-family="Cascadia Code PL" font-size="9.00" fill="#aaaaaa"> &#160;Preview rect each frame</text>
</g>
<!-- S_COMMITTED -->
<g id="node5" class="node">
<title>S_COMMITTED</title>
<polygon fill="none" stroke="white" points="270.5,-82 136.5,-82 136.5,-2 270.5,-2 270.5,-82"/>
<text text-anchor="middle" x="203.5" y="-69.2" font-family="Cascadia Code PL" font-size="11.00" fill="cyan">3 · COMMITTED</text>
<text text-anchor="middle" x="203.5" y="-57.2" font-family="Cascadia Code PL" font-size="11.00" fill="cyan">─────────────────</text>
<text text-anchor="middle" x="203.5" y="-45.2" font-family="Cascadia Code PL" font-size="11.00" fill="cyan">B1 released</text>
<text text-anchor="middle" x="203.5" y="-33.2" font-family="Cascadia Code PL" font-size="11.00" fill="cyan">Rect drawn to layer</text>
<text text-anchor="middle" x="203.5" y="-21.2" font-family="Cascadia Code PL" font-size="11.00" fill="cyan">HISTORY_record_brush()</text>
<text text-anchor="middle" x="203.5" y="-9.2" font-family="Cascadia Code PL" font-size="11.00" fill="cyan">DRAGGING = FALSE</text>
</g>
<!-- S_DRAGGING&#45;&gt;S_COMMITTED -->
<g id="edge3" class="edge">
<title>S_DRAGGING&#45;&gt;S_COMMITTED</title>
<path fill="none" stroke="#cccc66" d="M117.02,-147.65C131.71,-129.87 149.19,-108.72 164.57,-90.11"/>
<polygon fill="#cccc66" stroke="#cccc66" points="167.35,-92.24 171.02,-82.3 161.95,-87.78 167.35,-92.24"/>
<text text-anchor="middle" x="206.5" y="-122.8" font-family="Cascadia Code PL" font-size="9.00" fill="#aaaaaa"> &#160;B1 released</text>
<text text-anchor="middle" x="206.5" y="-112.8" font-family="Cascadia Code PL" font-size="9.00" fill="#aaaaaa"> &#160;Commit rect to layer</text>
<text text-anchor="middle" x="206.5" y="-102.8" font-family="Cascadia Code PL" font-size="9.00" fill="#aaaaaa"> &#160;HISTORY_record_brush()</text>
</g>
<!-- S_COMMITTED&#45;&gt;S_IDLE -->
<g id="edge4" class="edge">
<title>S_COMMITTED&#45;&gt;S_IDLE</title>
<path fill="none" stroke="#6699ff" d="M251.34,-82.26C269.05,-100.13 286.7,-122.89 294.5,-148 305.05,-181.96 303.97,-193.73 294.5,-228 287.88,-251.97 273.97,-275.98 261.1,-294.68"/>
<polygon fill="#6699ff" stroke="#6699ff" points="258.22,-292.7 255.29,-302.88 263.93,-296.75 258.22,-292.7"/>
<text text-anchor="middle" x="333" y="-190.8" font-family="Cascadia Code PL" font-size="9.00" fill="#aaaaaa"> &#160;Ready for</text>
<text text-anchor="middle" x="333" y="-180.8" font-family="Cascadia Code PL" font-size="9.00" fill="#aaaaaa"> &#160;next rectangle</text>
</g>
<!-- RM_OUTLINE -->
<g id="node6" class="node">
<title>RM_OUTLINE</title>
<polygon fill="none" stroke="white" points="910,-495 749,-495 749,-421 910,-421 910,-495"/>
<text text-anchor="middle" x="829.5" y="-483" font-family="Cascadia Code PL" font-size="10.00" fill="cyan">Outline (B)</text>
<text text-anchor="middle" x="829.5" y="-472" font-family="Cascadia Code PL" font-size="10.00" fill="cyan">────────────</text>
<text text-anchor="middle" x="829.5" y="-461" font-family="Cascadia Code PL" font-size="10.00" fill="cyan">FILLED = FALSE</text>
<text text-anchor="middle" x="829.5" y="-450" font-family="Cascadia Code PL" font-size="10.00" fill="cyan">CURRENT_TOOL% = TOOL_RECT</text>
<text text-anchor="middle" x="829.5" y="-439" font-family="Cascadia Code PL" font-size="10.00" fill="cyan">Draw border only</text>
<text text-anchor="middle" x="829.5" y="-428" font-family="Cascadia Code PL" font-size="10.00" fill="cyan">LINE (x1,y1)&#45;(x2,y2), , B</text>
</g>
<!-- RM_FILLED -->
<g id="node7" class="node">
<title>RM_FILLED</title>
<polygon fill="none" stroke="white" points="921,-368 738,-368 738,-294 921,-294 921,-368"/>
<text text-anchor="middle" x="829.5" y="-356" font-family="Cascadia Code PL" font-size="10.00" fill="cyan">Filled (BF)</text>
<text text-anchor="middle" x="829.5" y="-345" font-family="Cascadia Code PL" font-size="10.00" fill="cyan">────────────</text>
<text text-anchor="middle" x="829.5" y="-334" font-family="Cascadia Code PL" font-size="10.00" fill="cyan">FILLED = TRUE</text>
<text text-anchor="middle" x="829.5" y="-323" font-family="Cascadia Code PL" font-size="10.00" fill="cyan">CURRENT_TOOL% = TOOL_RECT_FILL</text>
<text text-anchor="middle" x="829.5" y="-312" font-family="Cascadia Code PL" font-size="10.00" fill="cyan">Fill + border</text>
<text text-anchor="middle" x="829.5" y="-301" font-family="Cascadia Code PL" font-size="10.00" fill="cyan">LINE (x1,y1)&#45;(x2,y2), , BF</text>
</g>
<!-- RM_OUTLINE&#45;&gt;RM_FILLED -->
<g id="edge5" class="edge">
<title>RM_OUTLINE&#45;&gt;RM_FILLED</title>
<path fill="none" stroke="#6699ff" d="M770.46,-420.93C765.29,-415.55 760.78,-409.57 757.5,-403 752.73,-393.46 754.28,-384.45 759.42,-376.26"/>
<polygon fill="#6699ff" stroke="#6699ff" points="762.21,-378.37 765.65,-368.34 756.71,-374.03 762.21,-378.37"/>
<text text-anchor="middle" x="797" y="-396.1" font-family="Cascadia Code PL" font-size="8.00" fill="#aaaaaa"> Select RECT_FILL tool</text>
</g>
<!-- RM_FILLED&#45;&gt;RM_OUTLINE -->
<g id="edge6" class="edge">
<title>RM_FILLED&#45;&gt;RM_OUTLINE</title>
<path fill="none" stroke="#6699ff" d="M835.34,-368.08C836.54,-379.26 837.23,-391.63 836.5,-403 836.34,-405.52 836.13,-408.1 835.9,-410.7"/>
<polygon fill="#6699ff" stroke="#6699ff" points="832.4,-410.45 834.85,-420.75 839.37,-411.17 832.4,-410.45"/>
<text text-anchor="middle" x="867.5" y="-396.1" font-family="Cascadia Code PL" font-size="8.00" fill="#aaaaaa"> Select RECT tool</text>
</g>
<!-- M_SQUARE -->
<g id="node9" class="node">
<title>M_SQUARE</title>
<polygon fill="none" stroke="white" points="508,-214 413,-214 413,-162 508,-162 508,-214"/>
<text text-anchor="middle" x="460.5" y="-202" font-family="Cascadia Code PL" font-size="10.00" fill="cyan">Shift → Square</text>
<text text-anchor="middle" x="460.5" y="-191" font-family="Cascadia Code PL" font-size="10.00" fill="cyan">────────────</text>
<text text-anchor="middle" x="460.5" y="-180" font-family="Cascadia Code PL" font-size="10.00" fill="cyan">Width = Height</text>
<text text-anchor="middle" x="460.5" y="-169" font-family="Cascadia Code PL" font-size="10.00" fill="cyan">Force equal sides</text>
</g>
<!-- M_FREE&#45;&gt;M_SQUARE -->
<g id="edge7" class="edge">
<title>M_FREE&#45;&gt;M_SQUARE</title>
<path fill="none" stroke="#66cc66" d="M559.87,-304.79C540.12,-281.78 510.78,-247.59 489.1,-222.33"/>
<polygon fill="#66cc66" stroke="#66cc66" points="491.52,-219.77 482.35,-214.47 486.21,-224.33 491.52,-219.77"/>
<text text-anchor="middle" x="541" y="-259.1" font-family="Cascadia Code PL" font-size="8.00" fill="#aaaaaa"> Shift</text>
</g>
<!-- M_CENTER -->
<g id="node10" class="node">
<title>M_CENTER</title>
<polygon fill="none" stroke="white" points="637,-219.5 526,-219.5 526,-156.5 637,-156.5 637,-219.5"/>
<text text-anchor="middle" x="581.5" y="-207.5" font-family="Cascadia Code PL" font-size="10.00" fill="cyan">Ctrl → From Center</text>
<text text-anchor="middle" x="581.5" y="-196.5" font-family="Cascadia Code PL" font-size="10.00" fill="cyan">────────────</text>
<text text-anchor="middle" x="581.5" y="-185.5" font-family="Cascadia Code PL" font-size="10.00" fill="cyan">CENTER_X/Y = START</text>
<text text-anchor="middle" x="581.5" y="-174.5" font-family="Cascadia Code PL" font-size="10.00" fill="cyan">Rect grows outward</text>
<text text-anchor="middle" x="581.5" y="-163.5" font-family="Cascadia Code PL" font-size="10.00" fill="cyan">from click point</text>
</g>
<!-- M_FREE&#45;&gt;M_CENTER -->
<g id="edge8" class="edge">
<title>M_FREE&#45;&gt;M_CENTER</title>
<path fill="none" stroke="#66cc66" d="M581.5,-304.79C581.5,-284.02 581.5,-254.16 581.5,-229.96"/>
<polygon fill="#66cc66" stroke="#66cc66" points="585,-229.64 581.5,-219.64 578,-229.64 585,-229.64"/>
<text text-anchor="middle" x="589.5" y="-259.1" font-family="Cascadia Code PL" font-size="8.00" fill="#aaaaaa"> Ctrl</text>
</g>
<!-- M_BOTH -->
<g id="node11" class="node">
<title>M_BOTH</title>
<polygon fill="none" stroke="white" points="633,-68 530,-68 530,-16 633,-16 633,-68"/>
<text text-anchor="middle" x="581.5" y="-56" font-family="Cascadia Code PL" font-size="10.00" fill="cyan">Ctrl+Shift</text>
<text text-anchor="middle" x="581.5" y="-45" font-family="Cascadia Code PL" font-size="10.00" fill="cyan">────────────</text>
<text text-anchor="middle" x="581.5" y="-34" font-family="Cascadia Code PL" font-size="10.00" fill="cyan">Square from center</text>
<text text-anchor="middle" x="581.5" y="-23" font-family="Cascadia Code PL" font-size="10.00" fill="cyan">Both constraints</text>
</g>
<!-- M_SQUARE&#45;&gt;M_BOTH -->
<g id="edge9" class="edge">
<title>M_SQUARE&#45;&gt;M_BOTH</title>
<path fill="none" stroke="#66cc66" d="M481.58,-161.92C501.58,-138.11 531.77,-102.18 553.73,-76.05"/>
<polygon fill="#66cc66" stroke="#66cc66" points="556.51,-78.19 560.26,-68.28 551.15,-73.68 556.51,-78.19"/>
<text text-anchor="middle" x="542.5" y="-113.1" font-family="Cascadia Code PL" font-size="8.00" fill="#aaaaaa"> +Ctrl</text>
</g>
<!-- M_CENTER&#45;&gt;M_BOTH -->
<g id="edge10" class="edge">
<title>M_CENTER&#45;&gt;M_BOTH</title>
<path fill="none" stroke="#66cc66" d="M581.5,-156.46C581.5,-133.59 581.5,-102.26 581.5,-78.31"/>
<polygon fill="#66cc66" stroke="#66cc66" points="585,-78.22 581.5,-68.22 578,-78.22 585,-78.22"/>
<text text-anchor="middle" x="594" y="-113.1" font-family="Cascadia Code PL" font-size="8.00" fill="#aaaaaa"> +Shift</text>
</g>
<!-- M_BOTH&#45;&gt;M_FREE -->
<g id="edge11" class="edge">
<title>M_BOTH&#45;&gt;M_FREE</title>
<path fill="none" stroke="#cc6666" stroke-dasharray="5,2" d="M602.77,-68.24C618.27,-88.38 637.99,-118.1 646.5,-148 656.23,-182.2 656.45,-193.87 646.5,-228 639.18,-253.11 623.59,-277.94 609.52,-296.81"/>
<polygon fill="#cc6666" stroke="#cc6666" points="606.71,-294.71 603.4,-304.77 612.27,-298.97 606.71,-294.71"/>
<text text-anchor="middle" x="673.5" y="-186.1" font-family="Cascadia Code PL" font-size="8.00" fill="#aaaaaa"> Release all</text>
</g>
<!-- L1 -->
<g id="node12" class="node">
<title>L1</title>
<ellipse fill="white" stroke="white" cx="1167.5" cy="-458" rx="0.36" ry="0.36"/>
</g>
<!-- L2 -->
<g id="node13" class="node">
<title>L2</title>
<ellipse fill="white" stroke="white" cx="1167.5" cy="-331" rx="0.36" ry="0.36"/>
</g>
<!-- L1&#45;&gt;L2 -->
<g id="edge14" class="edge">
<title>L1&#45;&gt;L2</title>
<path fill="none" stroke="#66cc66" d="M1167.5,-456.91C1167.5,-453.81 1167.5,-372 1167.5,-342.49"/>
<polygon fill="#66cc66" stroke="#66cc66" points="1171,-342.09 1167.5,-332.09 1164,-342.09 1171,-342.09"/>
<text text-anchor="middle" x="1199.5" y="-395.8" font-family="Cascadia Code PL" font-size="9.00" fill="#aaaaaa"> Activate / Draw</text>
</g>
<!-- L3 -->
<g id="node14" class="node">
<title>L3</title>
<ellipse fill="white" stroke="white" cx="1069.5" cy="-458" rx="0.36" ry="0.36"/>
</g>
<!-- L4 -->
<g id="node15" class="node">
<title>L4</title>
<ellipse fill="white" stroke="white" cx="1069.5" cy="-331" rx="0.36" ry="0.36"/>
</g>
<!-- L3&#45;&gt;L4 -->
<g id="edge15" class="edge">
<title>L3&#45;&gt;L4</title>
<path fill="none" stroke="#cccc66" d="M1069.5,-456.91C1069.5,-453.81 1069.5,-372 1069.5,-342.49"/>
<polygon fill="#cccc66" stroke="#cccc66" points="1073,-342.09 1069.5,-332.09 1066,-342.09 1073,-342.09"/>
<text text-anchor="middle" x="1107" y="-395.8" font-family="Cascadia Code PL" font-size="9.00" fill="#aaaaaa"> Commit to History</text>
</g>
<!-- L5 -->
<g id="node16" class="node">
<title>L5</title>
<ellipse fill="white" stroke="white" cx="963.5" cy="-458" rx="0.36" ry="0.36"/>
</g>
<!-- L6 -->
<g id="node17" class="node">
<title>L6</title>
<ellipse fill="white" stroke="white" cx="963.5" cy="-331" rx="0.36" ry="0.36"/>
</g>
<!-- L5&#45;&gt;L6 -->
<g id="edge16" class="edge">
<title>L5&#45;&gt;L6</title>
<path fill="none" stroke="#6699ff" d="M963.5,-456.91C963.5,-453.81 963.5,-372 963.5,-342.49"/>
<polygon fill="#6699ff" stroke="#6699ff" points="967,-342.09 963.5,-332.09 960,-342.09 967,-342.09"/>
<text text-anchor="middle" x="1005" y="-395.8" font-family="Cascadia Code PL" font-size="9.00" fill="#aaaaaa"> Reset / Mode Switch</text>
</g>
</g>
</svg>
