<?xml version="1.0" encoding="UTF-8" standalone="no"?>
<!DOCTYPE svg PUBLIC "-//W3C//DTD SVG 1.1//EN"
 "http://www.w3.org/Graphics/SVG/1.1/DTD/svg11.dtd">
<!-- Generated by graphviz version 2.42.4 (0)
 -->
<!-- Title: SAVE_TOOL Pages: 1 -->
<svg width="1612pt" height="718pt"
 viewBox="0.00 0.00 1611.50 718.36" xmlns="http://www.w3.org/2000/svg" xmlns:xlink="http://www.w3.org/1999/xlink">
<g id="graph0" class="graph" transform="scale(1 1) rotate(0) translate(4 714.36)">
<title>SAVE_TOOL</title>
<text text-anchor="middle" x="801.75" y="-687.16" font-family="Cascadia Code PL" font-size="24.00" fill="white">SAVE / QB64 CODE / EXPORT TOOL STATE MACHINE</text>
<g id="clust3" class="cluster">
<title>cluster_legend</title>
<polygon fill="transparent" stroke="white" stroke-dasharray="5,2" points="1227.5,-539.64 1227.5,-668.36 1595.5,-668.36 1595.5,-539.64 1227.5,-539.64"/>
<text text-anchor="middle" x="1255.5" y="-655.56" font-family="Cascadia Code PL" font-size="11.00" fill="white">LEGEND</text>
</g>
<!-- SAVE_F -->
<g id="node1" class="node">
<title>SAVE_F</title>
<polygon fill="none" stroke="orange" stroke-width="2" points="264.5,-658 261.5,-662 240.5,-662 237.5,-658 160.5,-658 160.5,-622 264.5,-622 264.5,-658"/>
<text text-anchor="middle" x="212.5" y="-636.6" font-family="Cascadia Code PL" font-size="13.00" fill="orange">SAVE / EXPORT</text>
</g>
<!-- SV_IDLE -->
<g id="node5" class="node">
<title>SV_IDLE</title>
<polygon fill="none" stroke="white" points="269,-576 156,-576 156,-520 269,-520 269,-576"/>
<text text-anchor="middle" x="212.5" y="-563.2" font-family="Cascadia Code PL" font-size="11.00" fill="cyan">1 · IDLE</text>
<text text-anchor="middle" x="212.5" y="-551.2" font-family="Cascadia Code PL" font-size="11.00" fill="cyan">─────────────────</text>
<text text-anchor="middle" x="212.5" y="-539.2" font-family="Cascadia Code PL" font-size="11.00" fill="cyan">No save in progress</text>
<text text-anchor="middle" x="212.5" y="-527.2" font-family="Cascadia Code PL" font-size="11.00" fill="cyan">Deferred action = 0</text>
</g>
<!-- SAVE_F&#45;&gt;SV_IDLE -->
<g id="edge25" class="edge">
<title>SAVE_F&#45;&gt;SV_IDLE</title>
<path fill="none" stroke="#555555" stroke-dasharray="1,5" d="M212.5,-621.65C212.5,-608.77 212.5,-590.98 212.5,-576.22"/>
</g>
<!-- CODE_F -->
<g id="node2" class="node">
<title>CODE_F</title>
<polygon fill="none" stroke="orange" stroke-width="2" points="570,-658 567,-662 546,-662 543,-658 485,-658 485,-622 570,-622 570,-658"/>
<text text-anchor="middle" x="527.5" y="-636.6" font-family="Cascadia Code PL" font-size="13.00" fill="orange">QB64 CODE</text>
</g>
<!-- QB_IDLE -->
<g id="node10" class="node">
<title>QB_IDLE</title>
<polygon fill="none" stroke="white" points="616,-576 439,-576 439,-520 616,-520 616,-576"/>
<text text-anchor="middle" x="527.5" y="-563.2" font-family="Cascadia Code PL" font-size="11.00" fill="cyan">1 · IDLE</text>
<text text-anchor="middle" x="527.5" y="-551.2" font-family="Cascadia Code PL" font-size="11.00" fill="cyan">─────────────────</text>
<text text-anchor="middle" x="527.5" y="-539.2" font-family="Cascadia Code PL" font-size="11.00" fill="cyan">CURRENT_TOOL% = TOOL_CODE</text>
<text text-anchor="middle" x="527.5" y="-527.2" font-family="Cascadia Code PL" font-size="11.00" fill="cyan">No export in progress</text>
</g>
<!-- CODE_F&#45;&gt;QB_IDLE -->
<g id="edge26" class="edge">
<title>CODE_F&#45;&gt;QB_IDLE</title>
<path fill="none" stroke="#555555" stroke-dasharray="1,5" d="M527.5,-621.65C527.5,-608.77 527.5,-590.98 527.5,-576.22"/>
</g>
<!-- LOAD_F -->
<g id="node3" class="node">
<title>LOAD_F</title>
<polygon fill="none" stroke="orange" stroke-width="2" points="891.5,-658 888.5,-662 867.5,-662 864.5,-658 781.5,-658 781.5,-622 891.5,-622 891.5,-658"/>
<text text-anchor="middle" x="836.5" y="-636.6" font-family="Cascadia Code PL" font-size="13.00" fill="orange">LOAD / IMPORT</text>
</g>
<!-- LD_IDLE -->
<g id="node14" class="node">
<title>LD_IDLE</title>
<polygon fill="none" stroke="white" points="905.5,-576 767.5,-576 767.5,-520 905.5,-520 905.5,-576"/>
<text text-anchor="middle" x="836.5" y="-563.2" font-family="Cascadia Code PL" font-size="11.00" fill="cyan">1 · IDLE</text>
<text text-anchor="middle" x="836.5" y="-551.2" font-family="Cascadia Code PL" font-size="11.00" fill="cyan">─────────────────</text>
<text text-anchor="middle" x="836.5" y="-539.2" font-family="Cascadia Code PL" font-size="11.00" fill="cyan">No load in progress</text>
<text text-anchor="middle" x="836.5" y="-527.2" font-family="Cascadia Code PL" font-size="11.00" fill="cyan">DEFERRED_ACTION% = 0</text>
</g>
<!-- LOAD_F&#45;&gt;LD_IDLE -->
<g id="edge27" class="edge">
<title>LOAD_F&#45;&gt;LD_IDLE</title>
<path fill="none" stroke="#555555" stroke-dasharray="1,5" d="M836.5,-621.65C836.5,-608.77 836.5,-590.98 836.5,-576.22"/>
</g>
<!-- SELECTION_F -->
<g id="node4" class="node">
<title>SELECTION_F</title>
<polygon fill="none" stroke="orange" stroke-width="2" points="1180,-658 1177,-662 1156,-662 1153,-658 1049,-658 1049,-622 1180,-622 1180,-658"/>
<text text-anchor="middle" x="1114.5" y="-636.6" font-family="Cascadia Code PL" font-size="13.00" fill="orange">EXPORT SELECTION</text>
</g>
<!-- EX_IDLE -->
<g id="node19" class="node">
<title>EX_IDLE</title>
<polygon fill="none" stroke="white" points="1219,-576 1010,-576 1010,-520 1219,-520 1219,-576"/>
<text text-anchor="middle" x="1114.5" y="-563.2" font-family="Cascadia Code PL" font-size="11.00" fill="cyan">1 · IDLE</text>
<text text-anchor="middle" x="1114.5" y="-551.2" font-family="Cascadia Code PL" font-size="11.00" fill="cyan">─────────────────</text>
<text text-anchor="middle" x="1114.5" y="-539.2" font-family="Cascadia Code PL" font-size="11.00" fill="cyan">CURRENT_TOOL% = TOOL_EXPORT_SEL</text>
<text text-anchor="middle" x="1114.5" y="-527.2" font-family="Cascadia Code PL" font-size="11.00" fill="cyan">Needs active marquee</text>
</g>
<!-- SELECTION_F&#45;&gt;EX_IDLE -->
<g id="edge28" class="edge">
<title>SELECTION_F&#45;&gt;EX_IDLE</title>
<path fill="none" stroke="#555555" stroke-dasharray="1,5" d="M1114.5,-621.65C1114.5,-608.77 1114.5,-590.98 1114.5,-576.22"/>
</g>
<!-- SV_DEFERRED -->
<g id="node6" class="node">
<title>SV_DEFERRED</title>
<polygon fill="none" stroke="white" points="177,-464 0,-464 0,-396 177,-396 177,-464"/>
<text text-anchor="middle" x="88.5" y="-451.2" font-family="Cascadia Code PL" font-size="11.00" fill="cyan">2 · DEFERRED</text>
<text text-anchor="middle" x="88.5" y="-439.2" font-family="Cascadia Code PL" font-size="11.00" fill="cyan">─────────────────</text>
<text text-anchor="middle" x="88.5" y="-427.2" font-family="Cascadia Code PL" font-size="11.00" fill="cyan">MOUSE.DEFERRED_ACTION% = 1</text>
<text text-anchor="middle" x="88.5" y="-415.2" font-family="Cascadia Code PL" font-size="11.00" fill="cyan">Wait for post&#45;render</text>
<text text-anchor="middle" x="88.5" y="-403.2" font-family="Cascadia Code PL" font-size="11.00" fill="cyan">MOUSE_input_handler_loop()</text>
</g>
<!-- SV_IDLE&#45;&gt;SV_DEFERRED -->
<g id="edge1" class="edge">
<title>SV_IDLE&#45;&gt;SV_DEFERRED</title>
<path fill="none" stroke="#66cc66" d="M155.9,-538.37C133.65,-532.03 110.01,-521.04 95.5,-502 89.48,-494.1 86.55,-484.19 85.36,-474.3"/>
<polygon fill="#66cc66" stroke="#66cc66" points="88.83,-473.83 84.69,-464.08 81.85,-474.29 88.83,-473.83"/>
<text text-anchor="middle" x="147" y="-494.8" font-family="Cascadia Code PL" font-size="9.00" fill="#aaaaaa"> &#160;Ctrl+S or menu Save</text>
<text text-anchor="middle" x="147" y="-484.8" font-family="Cascadia Code PL" font-size="9.00" fill="#aaaaaa"> &#160;DEFERRED_ACTION% = 1</text>
</g>
<!-- SV_DIALOG -->
<g id="node7" class="node">
<title>SV_DIALOG</title>
<polygon fill="none" stroke="white" points="228,-334 103,-334 103,-266 228,-266 228,-334"/>
<text text-anchor="middle" x="165.5" y="-321.2" font-family="Cascadia Code PL" font-size="11.00" fill="cyan">3 · FILE DIALOG</text>
<text text-anchor="middle" x="165.5" y="-309.2" font-family="Cascadia Code PL" font-size="11.00" fill="cyan">─────────────────</text>
<text text-anchor="middle" x="165.5" y="-297.2" font-family="Cascadia Code PL" font-size="11.00" fill="cyan">_SAVEFILEDIALOG$()</text>
<text text-anchor="middle" x="165.5" y="-285.2" font-family="Cascadia Code PL" font-size="11.00" fill="cyan">Blocking native dialog</text>
<text text-anchor="middle" x="165.5" y="-273.2" font-family="Cascadia Code PL" font-size="11.00" fill="cyan">User selects path</text>
</g>
<!-- SV_DEFERRED&#45;&gt;SV_DIALOG -->
<g id="edge2" class="edge">
<title>SV_DEFERRED&#45;&gt;SV_DIALOG</title>
<path fill="none" stroke="#66cc66" d="M97.1,-395.97C101.09,-383.57 106.52,-369.66 113.5,-358 116.75,-352.57 120.57,-347.2 124.64,-342.06"/>
<polygon fill="#66cc66" stroke="#66cc66" points="127.49,-344.11 131.2,-334.18 122.11,-339.63 127.49,-344.11"/>
<text text-anchor="middle" x="156" y="-370.8" font-family="Cascadia Code PL" font-size="9.00" fill="#aaaaaa"> &#160;Post&#45;render dispatch</text>
<text text-anchor="middle" x="156" y="-360.8" font-family="Cascadia Code PL" font-size="9.00" fill="#aaaaaa"> &#160;_SAVEFILEDIALOG$()</text>
</g>
<!-- SV_DIALOG&#45;&gt;SV_IDLE -->
<g id="edge4" class="edge">
<title>SV_DIALOG&#45;&gt;SV_IDLE</title>
<path fill="none" stroke="#cc6666" stroke-dasharray="5,2" d="M188.04,-334.21C192.19,-341.74 196,-349.91 198.5,-358 214.15,-408.72 215.64,-470.58 214.59,-509.39"/>
<polygon fill="#cc6666" stroke="#cc6666" points="211.09,-509.58 214.24,-519.69 218.08,-509.82 211.09,-509.58"/>
<text text-anchor="middle" x="245" y="-432.8" font-family="Cascadia Code PL" font-size="9.00" fill="#aaaaaa"> &#160;User cancels</text>
<text text-anchor="middle" x="245" y="-422.8" font-family="Cascadia Code PL" font-size="9.00" fill="#aaaaaa"> &#160;filename$ = &quot;&quot;</text>
</g>
<!-- SV_WRITING -->
<g id="node8" class="node">
<title>SV_WRITING</title>
<polygon fill="none" stroke="white" points="226.5,-204 104.5,-204 104.5,-124 226.5,-124 226.5,-204"/>
<text text-anchor="middle" x="165.5" y="-191.2" font-family="Cascadia Code PL" font-size="11.00" fill="cyan">4 · WRITING</text>
<text text-anchor="middle" x="165.5" y="-179.2" font-family="Cascadia Code PL" font-size="11.00" fill="cyan">─────────────────</text>
<text text-anchor="middle" x="165.5" y="-167.2" font-family="Cascadia Code PL" font-size="11.00" fill="cyan">DRW_save(filename$)</text>
<text text-anchor="middle" x="165.5" y="-155.2" font-family="Cascadia Code PL" font-size="11.00" fill="cyan">or FILE_BMP_save()</text>
<text text-anchor="middle" x="165.5" y="-143.2" font-family="Cascadia Code PL" font-size="11.00" fill="cyan">or FILE_BSAVE_save()</text>
<text text-anchor="middle" x="165.5" y="-131.2" font-family="Cascadia Code PL" font-size="11.00" fill="cyan">Compress + write</text>
</g>
<!-- SV_DIALOG&#45;&gt;SV_WRITING -->
<g id="edge3" class="edge">
<title>SV_DIALOG&#45;&gt;SV_WRITING</title>
<path fill="none" stroke="#cccc66" d="M165.5,-265.88C165.5,-250.47 165.5,-231.83 165.5,-214.78"/>
<polygon fill="#cccc66" stroke="#cccc66" points="169,-214.41 165.5,-204.41 162,-214.41 169,-214.41"/>
<text text-anchor="middle" x="198" y="-234.8" font-family="Cascadia Code PL" font-size="9.00" fill="#aaaaaa"> &#160;User selects file</text>
<text text-anchor="middle" x="198" y="-224.8" font-family="Cascadia Code PL" font-size="9.00" fill="#aaaaaa"> &#160;filename$ ≠ &quot;&quot;</text>
</g>
<!-- SV_DONE -->
<g id="node9" class="node">
<title>SV_DONE</title>
<polygon fill="none" stroke="white" points="313,-68 154,-68 154,0 313,0 313,-68"/>
<text text-anchor="middle" x="233.5" y="-55.2" font-family="Cascadia Code PL" font-size="11.00" fill="cyan">5 · DONE</text>
<text text-anchor="middle" x="233.5" y="-43.2" font-family="Cascadia Code PL" font-size="11.00" fill="cyan">─────────────────</text>
<text text-anchor="middle" x="233.5" y="-31.2" font-family="Cascadia Code PL" font-size="11.00" fill="cyan">File written successfully</text>
<text text-anchor="middle" x="233.5" y="-19.2" font-family="Cascadia Code PL" font-size="11.00" fill="cyan">MOUSE_cleanup_after_dialog</text>
<text text-anchor="middle" x="233.5" y="-7.2" font-family="Cascadia Code PL" font-size="11.00" fill="cyan">SUPPRESS_FRAMES% = 2</text>
</g>
<!-- SV_WRITING&#45;&gt;SV_DONE -->
<g id="edge5" class="edge">
<title>SV_WRITING&#45;&gt;SV_DONE</title>
<path fill="none" stroke="#cccc66" d="M159.42,-123.8C159.14,-111.16 160.73,-97.46 166.5,-86 168.3,-82.43 170.48,-79.04 172.93,-75.83"/>
<polygon fill="#cccc66" stroke="#cccc66" points="175.62,-78.08 179.56,-68.24 170.34,-73.48 175.62,-78.08"/>
<text text-anchor="middle" x="227" y="-98.8" font-family="Cascadia Code PL" font-size="9.00" fill="#aaaaaa"> &#160;Write complete</text>
<text text-anchor="middle" x="227" y="-88.8" font-family="Cascadia Code PL" font-size="9.00" fill="#aaaaaa"> &#160;MOUSE_cleanup_after_dialog</text>
</g>
<!-- SV_DONE&#45;&gt;SV_IDLE -->
<g id="edge6" class="edge">
<title>SV_DONE&#45;&gt;SV_IDLE</title>
<path fill="none" stroke="#6699ff" d="M274.58,-68.12C279.54,-73.64 284.06,-79.65 287.5,-86 304.08,-116.58 301.5,-128.22 301.5,-163 301.5,-431 301.5,-431 301.5,-431 301.5,-463.38 279.4,-492.3 257.22,-513.16"/>
<polygon fill="#6699ff" stroke="#6699ff" points="254.81,-510.62 249.73,-519.92 259.5,-515.82 254.81,-510.62"/>
<text text-anchor="middle" x="353" y="-302.8" font-family="Cascadia Code PL" font-size="9.00" fill="#aaaaaa"> &#160;DEFERRED_ACTION% = 0</text>
<text text-anchor="middle" x="353" y="-292.8" font-family="Cascadia Code PL" font-size="9.00" fill="#aaaaaa"> &#160;Ready for next save</text>
</g>
<!-- QB_DIALOG -->
<g id="node11" class="node">
<title>QB_DIALOG</title>
<polygon fill="none" stroke="white" points="553,-458 438,-458 438,-402 553,-402 553,-458"/>
<text text-anchor="middle" x="495.5" y="-445.2" font-family="Cascadia Code PL" font-size="11.00" fill="cyan">2 · FILE DIALOG</text>
<text text-anchor="middle" x="495.5" y="-433.2" font-family="Cascadia Code PL" font-size="11.00" fill="cyan">─────────────────</text>
<text text-anchor="middle" x="495.5" y="-421.2" font-family="Cascadia Code PL" font-size="11.00" fill="cyan">_SAVEFILEDIALOG$()</text>
<text text-anchor="middle" x="495.5" y="-409.2" font-family="Cascadia Code PL" font-size="11.00" fill="cyan">Filter: *.bas</text>
</g>
<!-- QB_IDLE&#45;&gt;QB_DIALOG -->
<g id="edge7" class="edge">
<title>QB_IDLE&#45;&gt;QB_DIALOG</title>
<path fill="none" stroke="#66cc66" d="M454.92,-519.85C448.46,-514.84 442.76,-508.93 438.5,-502 430.76,-489.41 436.28,-476.54 446.4,-465.28"/>
<polygon fill="#66cc66" stroke="#66cc66" points="448.98,-467.65 453.63,-458.13 444.06,-462.68 448.98,-467.65"/>
<text text-anchor="middle" x="472" y="-494.8" font-family="Cascadia Code PL" font-size="9.00" fill="#aaaaaa"> &#160;Click CODE tool</text>
<text text-anchor="middle" x="472" y="-484.8" font-family="Cascadia Code PL" font-size="9.00" fill="#aaaaaa"> &#160;or Ctrl+E</text>
</g>
<!-- QB_DIALOG&#45;&gt;QB_IDLE -->
<g id="edge9" class="edge">
<title>QB_DIALOG&#45;&gt;QB_IDLE</title>
<path fill="none" stroke="#cc6666" stroke-dasharray="5,2" d="M502.96,-458.03C507.2,-473.41 512.58,-492.91 517.22,-509.74"/>
<polygon fill="#cc6666" stroke="#cc6666" points="513.96,-511.09 520,-519.8 520.71,-509.23 513.96,-511.09"/>
<text text-anchor="middle" x="541.5" y="-489.8" font-family="Cascadia Code PL" font-size="9.00" fill="#aaaaaa"> &#160;User cancels</text>
</g>
<!-- QB_GENERATE -->
<g id="node12" class="node">
<title>QB_GENERATE</title>
<polygon fill="none" stroke="white" points="568.5,-340 422.5,-340 422.5,-260 568.5,-260 568.5,-340"/>
<text text-anchor="middle" x="495.5" y="-327.2" font-family="Cascadia Code PL" font-size="11.00" fill="cyan">3 · GENERATING</text>
<text text-anchor="middle" x="495.5" y="-315.2" font-family="Cascadia Code PL" font-size="11.00" fill="cyan">─────────────────</text>
<text text-anchor="middle" x="495.5" y="-303.2" font-family="Cascadia Code PL" font-size="11.00" fill="cyan">FILE_BAS_save()</text>
<text text-anchor="middle" x="495.5" y="-291.2" font-family="Cascadia Code PL" font-size="11.00" fill="cyan">Generate DATA statements</text>
<text text-anchor="middle" x="495.5" y="-279.2" font-family="Cascadia Code PL" font-size="11.00" fill="cyan">RGB/palette encoding</text>
<text text-anchor="middle" x="495.5" y="-267.2" font-family="Cascadia Code PL" font-size="11.00" fill="cyan">Pixel&#45;by&#45;pixel export</text>
</g>
<!-- QB_DIALOG&#45;&gt;QB_GENERATE -->
<g id="edge8" class="edge">
<title>QB_DIALOG&#45;&gt;QB_GENERATE</title>
<path fill="none" stroke="#cccc66" d="M495.5,-401.85C495.5,-386.89 495.5,-367.84 495.5,-350.34"/>
<polygon fill="#cccc66" stroke="#cccc66" points="499,-350.25 495.5,-340.25 492,-350.25 499,-350.25"/>
<text text-anchor="middle" x="529" y="-370.8" font-family="Cascadia Code PL" font-size="9.00" fill="#aaaaaa"> &#160;User selects file</text>
<text text-anchor="middle" x="529" y="-360.8" font-family="Cascadia Code PL" font-size="9.00" fill="#aaaaaa"> &#160;FILE_BAS_save()</text>
</g>
<!-- QB_DONE -->
<g id="node13" class="node">
<title>QB_DONE</title>
<polygon fill="none" stroke="white" points="618.5,-192 474.5,-192 474.5,-136 618.5,-136 618.5,-192"/>
<text text-anchor="middle" x="546.5" y="-179.2" font-family="Cascadia Code PL" font-size="11.00" fill="cyan">4 · DONE</text>
<text text-anchor="middle" x="546.5" y="-167.2" font-family="Cascadia Code PL" font-size="11.00" fill="cyan">─────────────────</text>
<text text-anchor="middle" x="546.5" y="-155.2" font-family="Cascadia Code PL" font-size="11.00" fill="cyan">.bas file written</text>
<text text-anchor="middle" x="546.5" y="-143.2" font-family="Cascadia Code PL" font-size="11.00" fill="cyan">Ready to compile in QB64</text>
</g>
<!-- QB_GENERATE&#45;&gt;QB_DONE -->
<g id="edge10" class="edge">
<title>QB_GENERATE&#45;&gt;QB_DONE</title>
<path fill="none" stroke="#cccc66" d="M501.61,-259.89C504.2,-247.52 507.76,-233.96 512.5,-222 515.27,-215 518.85,-207.87 522.63,-201.12"/>
<polygon fill="#cccc66" stroke="#cccc66" points="525.82,-202.6 527.86,-192.2 519.78,-199.06 525.82,-202.6"/>
<text text-anchor="middle" x="547.5" y="-229.8" font-family="Cascadia Code PL" font-size="9.00" fill="#aaaaaa"> &#160;Export complete</text>
</g>
<!-- QB_DONE&#45;&gt;QB_IDLE -->
<g id="edge11" class="edge">
<title>QB_DONE&#45;&gt;QB_IDLE</title>
<path fill="none" stroke="#6699ff" d="M568.02,-192.18C573.9,-201.16 579.47,-211.54 582.5,-222 584.97,-230.54 582.67,-233.11 582.5,-242 580.28,-357.62 618.8,-396.03 572.5,-502 571,-505.44 569.1,-508.76 566.94,-511.94"/>
<polygon fill="#6699ff" stroke="#6699ff" points="564.07,-509.92 560.69,-519.97 569.59,-514.22 564.07,-509.92"/>
<text text-anchor="middle" x="625.5" y="-365.8" font-family="Cascadia Code PL" font-size="9.00" fill="#aaaaaa"> &#160;Ready for next</text>
</g>
<!-- LD_DEFERRED -->
<g id="node15" class="node">
<title>LD_DEFERRED</title>
<polygon fill="none" stroke="white" points="801,-458 624,-458 624,-402 801,-402 801,-458"/>
<text text-anchor="middle" x="712.5" y="-445.2" font-family="Cascadia Code PL" font-size="11.00" fill="cyan">2 · DEFERRED</text>
<text text-anchor="middle" x="712.5" y="-433.2" font-family="Cascadia Code PL" font-size="11.00" fill="cyan">─────────────────</text>
<text text-anchor="middle" x="712.5" y="-421.2" font-family="Cascadia Code PL" font-size="11.00" fill="cyan">MOUSE.DEFERRED_ACTION% = 3</text>
<text text-anchor="middle" x="712.5" y="-409.2" font-family="Cascadia Code PL" font-size="11.00" fill="cyan">Wait for post&#45;render</text>
</g>
<!-- LD_IDLE&#45;&gt;LD_DEFERRED -->
<g id="edge12" class="edge">
<title>LD_IDLE&#45;&gt;LD_DEFERRED</title>
<path fill="none" stroke="#66cc66" d="M767.38,-534.32C749.15,-527.66 731.3,-517.49 719.5,-502 712.24,-492.47 709.47,-480.02 708.83,-468.2"/>
<polygon fill="#66cc66" stroke="#66cc66" points="712.33,-468.05 708.75,-458.07 705.33,-468.1 712.33,-468.05"/>
<text text-anchor="middle" x="771" y="-494.8" font-family="Cascadia Code PL" font-size="9.00" fill="#aaaaaa"> &#160;Ctrl+O or menu Open</text>
<text text-anchor="middle" x="771" y="-484.8" font-family="Cascadia Code PL" font-size="9.00" fill="#aaaaaa"> &#160;DEFERRED_ACTION% = 3</text>
</g>
<!-- LD_DIALOG -->
<g id="node16" class="node">
<title>LD_DIALOG</title>
<polygon fill="none" stroke="white" points="849,-328 716,-328 716,-272 849,-272 849,-328"/>
<text text-anchor="middle" x="782.5" y="-315.2" font-family="Cascadia Code PL" font-size="11.00" fill="cyan">3 · FILE DIALOG</text>
<text text-anchor="middle" x="782.5" y="-303.2" font-family="Cascadia Code PL" font-size="11.00" fill="cyan">─────────────────</text>
<text text-anchor="middle" x="782.5" y="-291.2" font-family="Cascadia Code PL" font-size="11.00" fill="cyan">_OPENFILEDIALOG$()</text>
<text text-anchor="middle" x="782.5" y="-279.2" font-family="Cascadia Code PL" font-size="11.00" fill="cyan">Filter: *.drw;*.png;*.bmp</text>
</g>
<!-- LD_DEFERRED&#45;&gt;LD_DIALOG -->
<g id="edge13" class="edge">
<title>LD_DEFERRED&#45;&gt;LD_DIALOG</title>
<path fill="none" stroke="#66cc66" d="M717.65,-401.99C720.96,-388.27 726.06,-371.66 733.5,-358 737.63,-350.42 742.89,-342.96 748.43,-336.05"/>
<polygon fill="#66cc66" stroke="#66cc66" points="751.25,-338.13 755.01,-328.23 745.89,-333.63 751.25,-338.13"/>
<text text-anchor="middle" x="778" y="-370.8" font-family="Cascadia Code PL" font-size="9.00" fill="#aaaaaa"> &#160;Post&#45;render dispatch</text>
<text text-anchor="middle" x="778" y="-360.8" font-family="Cascadia Code PL" font-size="9.00" fill="#aaaaaa"> &#160;_OPENFILEDIALOG$()</text>
</g>
<!-- LD_DIALOG&#45;&gt;LD_IDLE -->
<g id="edge15" class="edge">
<title>LD_DIALOG&#45;&gt;LD_IDLE</title>
<path fill="none" stroke="#cc6666" stroke-dasharray="5,2" d="M805.9,-328.02C812.41,-336.99 818.72,-347.41 822.5,-358 840.4,-408.13 841.27,-470.39 839.48,-509.42"/>
<polygon fill="#cc6666" stroke="#cc6666" points="835.96,-509.61 838.92,-519.78 842.95,-509.99 835.96,-509.61"/>
<text text-anchor="middle" x="867.5" y="-427.8" font-family="Cascadia Code PL" font-size="9.00" fill="#aaaaaa"> &#160;User cancels</text>
</g>
<!-- LD_LOADING -->
<g id="node17" class="node">
<title>LD_LOADING</title>
<polygon fill="none" stroke="white" points="848.5,-198 716.5,-198 716.5,-130 848.5,-130 848.5,-198"/>
<text text-anchor="middle" x="782.5" y="-185.2" font-family="Cascadia Code PL" font-size="11.00" fill="cyan">4 · LOADING</text>
<text text-anchor="middle" x="782.5" y="-173.2" font-family="Cascadia Code PL" font-size="11.00" fill="cyan">─────────────────</text>
<text text-anchor="middle" x="782.5" y="-161.2" font-family="Cascadia Code PL" font-size="11.00" fill="cyan">DRW_load(filename$)</text>
<text text-anchor="middle" x="782.5" y="-149.2" font-family="Cascadia Code PL" font-size="11.00" fill="cyan">Reset all tool state</text>
<text text-anchor="middle" x="782.5" y="-137.2" font-family="Cascadia Code PL" font-size="11.00" fill="cyan">Restore layers + palette</text>
</g>
<!-- LD_DIALOG&#45;&gt;LD_LOADING -->
<g id="edge14" class="edge">
<title>LD_DIALOG&#45;&gt;LD_LOADING</title>
<path fill="none" stroke="#cccc66" d="M782.5,-271.88C782.5,-253.7 782.5,-229.34 782.5,-208.48"/>
<polygon fill="#cccc66" stroke="#cccc66" points="786,-208.25 782.5,-198.25 779,-208.25 786,-208.25"/>
<text text-anchor="middle" x="815" y="-234.8" font-family="Cascadia Code PL" font-size="9.00" fill="#aaaaaa"> &#160;User selects file</text>
<text text-anchor="middle" x="815" y="-224.8" font-family="Cascadia Code PL" font-size="9.00" fill="#aaaaaa"> &#160;DRW_load()</text>
</g>
<!-- LD_DONE -->
<g id="node18" class="node">
<title>LD_DONE</title>
<polygon fill="none" stroke="white" points="917,-68 784,-68 784,0 917,0 917,-68"/>
<text text-anchor="middle" x="850.5" y="-55.2" font-family="Cascadia Code PL" font-size="11.00" fill="cyan">5 · DONE</text>
<text text-anchor="middle" x="850.5" y="-43.2" font-family="Cascadia Code PL" font-size="11.00" fill="cyan">─────────────────</text>
<text text-anchor="middle" x="850.5" y="-31.2" font-family="Cascadia Code PL" font-size="11.00" fill="cyan">File loaded successfully</text>
<text text-anchor="middle" x="850.5" y="-19.2" font-family="Cascadia Code PL" font-size="11.00" fill="cyan">DRW_load_binary resets</text>
<text text-anchor="middle" x="850.5" y="-7.2" font-family="Cascadia Code PL" font-size="11.00" fill="cyan">all tool/panel state</text>
</g>
<!-- LD_LOADING&#45;&gt;LD_DONE -->
<g id="edge16" class="edge">
<title>LD_LOADING&#45;&gt;LD_DONE</title>
<path fill="none" stroke="#cccc66" d="M776.67,-129.63C775.75,-115.49 776.82,-99.25 783.5,-86 785.3,-82.43 787.48,-79.04 789.93,-75.83"/>
<polygon fill="#cccc66" stroke="#cccc66" points="792.62,-78.08 796.56,-68.24 787.34,-73.48 792.62,-78.08"/>
<text text-anchor="middle" x="844" y="-98.8" font-family="Cascadia Code PL" font-size="9.00" fill="#aaaaaa"> &#160;Load complete</text>
<text text-anchor="middle" x="844" y="-88.8" font-family="Cascadia Code PL" font-size="9.00" fill="#aaaaaa"> &#160;MOUSE_cleanup_after_dialog</text>
</g>
<!-- LD_DONE&#45;&gt;LD_IDLE -->
<g id="edge17" class="edge">
<title>LD_DONE&#45;&gt;LD_IDLE</title>
<path fill="none" stroke="#6699ff" d="M891.58,-68.12C896.54,-73.64 901.06,-79.65 904.5,-86 921.08,-116.58 918.5,-128.22 918.5,-163 918.5,-431 918.5,-431 918.5,-431 918.5,-462.55 898.03,-491.53 877.54,-512.64"/>
<polygon fill="#6699ff" stroke="#6699ff" points="874.98,-510.24 870.33,-519.76 879.9,-515.22 874.98,-510.24"/>
<text text-anchor="middle" x="970" y="-297.8" font-family="Cascadia Code PL" font-size="9.00" fill="#aaaaaa"> &#160;DEFERRED_ACTION% = 0</text>
</g>
<!-- EX_CHECK -->
<g id="node20" class="node">
<title>EX_CHECK</title>
<polygon fill="none" stroke="white" points="1125.5,-464 991.5,-464 991.5,-396 1125.5,-396 1125.5,-464"/>
<text text-anchor="middle" x="1058.5" y="-451.2" font-family="Cascadia Code PL" font-size="11.00" fill="cyan">2 · CHECK SELECTION</text>
<text text-anchor="middle" x="1058.5" y="-439.2" font-family="Cascadia Code PL" font-size="11.00" fill="cyan">─────────────────</text>
<text text-anchor="middle" x="1058.5" y="-427.2" font-family="Cascadia Code PL" font-size="11.00" fill="cyan">Verify MARQUEE.ACTIVE</text>
<text text-anchor="middle" x="1058.5" y="-415.2" font-family="Cascadia Code PL" font-size="11.00" fill="cyan">Copy marquee region</text>
<text text-anchor="middle" x="1058.5" y="-403.2" font-family="Cascadia Code PL" font-size="11.00" fill="cyan">to temp image buffer</text>
</g>
<!-- EX_IDLE&#45;&gt;EX_CHECK -->
<g id="edge18" class="edge">
<title>EX_IDLE&#45;&gt;EX_CHECK</title>
<path fill="none" stroke="#66cc66" d="M1009.8,-528.31C983.58,-521.41 960.58,-512.63 952.5,-502 937.39,-482.12 956.14,-465.99 981.85,-454.15"/>
<polygon fill="#66cc66" stroke="#66cc66" points="983.38,-457.3 991.19,-450.14 980.62,-450.87 983.38,-457.3"/>
<text text-anchor="middle" x="999" y="-494.8" font-family="Cascadia Code PL" font-size="9.00" fill="#aaaaaa"> &#160;Click EXPORT_SEL tool</text>
<text text-anchor="middle" x="999" y="-484.8" font-family="Cascadia Code PL" font-size="9.00" fill="#aaaaaa"> &#160;or Ctrl+Shift+E</text>
</g>
<!-- EX_CHECK&#45;&gt;EX_IDLE -->
<g id="edge20" class="edge">
<title>EX_CHECK&#45;&gt;EX_IDLE</title>
<path fill="none" stroke="#cc6666" stroke-dasharray="5,2" d="M1058.71,-464.15C1059.91,-476.56 1062.66,-490.45 1068.5,-502 1070.21,-505.39 1072.28,-508.67 1074.59,-511.82"/>
<polygon fill="#cc6666" stroke="#cc6666" points="1072.08,-514.29 1081.13,-519.8 1077.5,-509.85 1072.08,-514.29"/>
<text text-anchor="middle" x="1108" y="-494.8" font-family="Cascadia Code PL" font-size="9.00" fill="#aaaaaa"> &#160;No active marquee</text>
<text text-anchor="middle" x="1108" y="-484.8" font-family="Cascadia Code PL" font-size="9.00" fill="#aaaaaa"> &#160;Show message</text>
</g>
<!-- EX_DIALOG -->
<g id="node21" class="node">
<title>EX_DIALOG</title>
<polygon fill="none" stroke="white" points="1204,-328 1089,-328 1089,-272 1204,-272 1204,-328"/>
<text text-anchor="middle" x="1146.5" y="-315.2" font-family="Cascadia Code PL" font-size="11.00" fill="cyan">3 · FILE DIALOG</text>
<text text-anchor="middle" x="1146.5" y="-303.2" font-family="Cascadia Code PL" font-size="11.00" fill="cyan">─────────────────</text>
<text text-anchor="middle" x="1146.5" y="-291.2" font-family="Cascadia Code PL" font-size="11.00" fill="cyan">_SAVEFILEDIALOG$()</text>
<text text-anchor="middle" x="1146.5" y="-279.2" font-family="Cascadia Code PL" font-size="11.00" fill="cyan">Filter: *.png</text>
</g>
<!-- EX_CHECK&#45;&gt;EX_DIALOG -->
<g id="edge19" class="edge">
<title>EX_CHECK&#45;&gt;EX_DIALOG</title>
<path fill="none" stroke="#cccc66" d="M1065.26,-395.9C1068.81,-383.35 1074.02,-369.36 1081.5,-358 1086.95,-349.73 1093.9,-341.93 1101.23,-334.91"/>
<polygon fill="#cccc66" stroke="#cccc66" points="1103.6,-337.49 1108.64,-328.17 1098.89,-332.31 1103.6,-337.49"/>
<text text-anchor="middle" x="1114.5" y="-370.8" font-family="Cascadia Code PL" font-size="9.00" fill="#aaaaaa"> &#160;Marquee active</text>
<text text-anchor="middle" x="1114.5" y="-360.8" font-family="Cascadia Code PL" font-size="9.00" fill="#aaaaaa"> &#160;Pixels captured</text>
</g>
<!-- EX_DIALOG&#45;&gt;EX_IDLE -->
<g id="edge22" class="edge">
<title>EX_DIALOG&#45;&gt;EX_IDLE</title>
<path fill="none" stroke="#cc6666" stroke-dasharray="5,2" d="M1151.94,-328.17C1158.66,-367.6 1166.99,-442.47 1147.5,-502 1146.48,-505.13 1145.14,-508.22 1143.6,-511.23"/>
<polygon fill="#cc6666" stroke="#cc6666" points="1140.51,-509.58 1138.44,-519.97 1146.54,-513.14 1140.51,-509.58"/>
<text text-anchor="middle" x="1187.5" y="-427.8" font-family="Cascadia Code PL" font-size="9.00" fill="#aaaaaa"> &#160;User cancels</text>
</g>
<!-- EX_SAVING -->
<g id="node22" class="node">
<title>EX_SAVING</title>
<polygon fill="none" stroke="white" points="1215.5,-198 1077.5,-198 1077.5,-130 1215.5,-130 1215.5,-198"/>
<text text-anchor="middle" x="1146.5" y="-185.2" font-family="Cascadia Code PL" font-size="11.00" fill="cyan">4 · SAVING</text>
<text text-anchor="middle" x="1146.5" y="-173.2" font-family="Cascadia Code PL" font-size="11.00" fill="cyan">─────────────────</text>
<text text-anchor="middle" x="1146.5" y="-161.2" font-family="Cascadia Code PL" font-size="11.00" fill="cyan">_SAVEIMAGE(tempImg&amp;,</text>
<text text-anchor="middle" x="1146.5" y="-149.2" font-family="Cascadia Code PL" font-size="11.00" fill="cyan">filename$)</text>
<text text-anchor="middle" x="1146.5" y="-137.2" font-family="Cascadia Code PL" font-size="11.00" fill="cyan">PNG with alpha</text>
</g>
<!-- EX_DIALOG&#45;&gt;EX_SAVING -->
<g id="edge21" class="edge">
<title>EX_DIALOG&#45;&gt;EX_SAVING</title>
<path fill="none" stroke="#cccc66" d="M1146.5,-271.88C1146.5,-253.7 1146.5,-229.34 1146.5,-208.48"/>
<polygon fill="#cccc66" stroke="#cccc66" points="1150,-208.25 1146.5,-198.25 1143,-208.25 1150,-208.25"/>
<text text-anchor="middle" x="1179" y="-229.8" font-family="Cascadia Code PL" font-size="9.00" fill="#aaaaaa"> &#160;User selects file</text>
</g>
<!-- EX_DONE -->
<g id="node23" class="node">
<title>EX_DONE</title>
<polygon fill="none" stroke="white" points="1258.5,-68 1142.5,-68 1142.5,0 1258.5,0 1258.5,-68"/>
<text text-anchor="middle" x="1200.5" y="-55.2" font-family="Cascadia Code PL" font-size="11.00" fill="cyan">5 · DONE</text>
<text text-anchor="middle" x="1200.5" y="-43.2" font-family="Cascadia Code PL" font-size="11.00" fill="cyan">─────────────────</text>
<text text-anchor="middle" x="1200.5" y="-31.2" font-family="Cascadia Code PL" font-size="11.00" fill="cyan">Selection exported</text>
<text text-anchor="middle" x="1200.5" y="-19.2" font-family="Cascadia Code PL" font-size="11.00" fill="cyan">Temp image freed</text>
<text text-anchor="middle" x="1200.5" y="-7.2" font-family="Cascadia Code PL" font-size="11.00" fill="cyan">Cleanup after dialog</text>
</g>
<!-- EX_SAVING&#45;&gt;EX_DONE -->
<g id="edge23" class="edge">
<title>EX_SAVING&#45;&gt;EX_DONE</title>
<path fill="none" stroke="#cccc66" d="M1148.4,-129.71C1150.13,-115.73 1153.39,-99.6 1159.5,-86 1160.92,-82.85 1162.57,-79.72 1164.4,-76.67"/>
<polygon fill="#cccc66" stroke="#cccc66" points="1167.35,-78.54 1169.91,-68.26 1161.5,-74.7 1167.35,-78.54"/>
<text text-anchor="middle" x="1194.5" y="-93.8" font-family="Cascadia Code PL" font-size="9.00" fill="#aaaaaa"> &#160;Export complete</text>
</g>
<!-- EX_DONE&#45;&gt;EX_IDLE -->
<g id="edge24" class="edge">
<title>EX_DONE&#45;&gt;EX_IDLE</title>
<path fill="none" stroke="#6699ff" d="M1221.51,-68.25C1224.53,-74.01 1227.34,-80.06 1229.5,-86 1241.38,-118.69 1243.5,-128.22 1243.5,-163 1243.5,-431 1243.5,-431 1243.5,-431 1243.5,-467.48 1214.63,-495.4 1184.2,-514.71"/>
<polygon fill="#6699ff" stroke="#6699ff" points="1182.34,-511.74 1175.6,-519.92 1185.97,-517.73 1182.34,-511.74"/>
<text text-anchor="middle" x="1274.5" y="-297.8" font-family="Cascadia Code PL" font-size="9.00" fill="#aaaaaa"> &#160;Ready for next</text>
</g>
<!-- L1 -->
<g id="node24" class="node">
<title>L1</title>
<ellipse fill="white" stroke="white" cx="1517.5" cy="-640" rx="0.36" ry="0.36"/>
</g>
<!-- L2 -->
<g id="node25" class="node">
<title>L2</title>
<ellipse fill="white" stroke="white" cx="1517.5" cy="-548" rx="0.36" ry="0.36"/>
</g>
<!-- L1&#45;&gt;L2 -->
<g id="edge29" class="edge">
<title>L1&#45;&gt;L2</title>
<path fill="none" stroke="#66cc66" d="M1517.5,-638.93C1517.5,-636.79 1517.5,-582.14 1517.5,-559.1"/>
<polygon fill="#66cc66" stroke="#66cc66" points="1521,-559.06 1517.5,-549.06 1514,-559.06 1521,-559.06"/>
<text text-anchor="middle" x="1552.5" y="-596.8" font-family="Cascadia Code PL" font-size="9.00" fill="#aaaaaa"> Initiate / Activate</text>
</g>
<!-- L3 -->
<g id="node26" class="node">
<title>L3</title>
<ellipse fill="white" stroke="white" cx="1434.5" cy="-640" rx="0.36" ry="0.36"/>
</g>
<!-- L4 -->
<g id="node27" class="node">
<title>L4</title>
<ellipse fill="white" stroke="white" cx="1434.5" cy="-548" rx="0.36" ry="0.36"/>
</g>
<!-- L3&#45;&gt;L4 -->
<g id="edge30" class="edge">
<title>L3&#45;&gt;L4</title>
<path fill="none" stroke="#cc6666" stroke-dasharray="5,2" d="M1434.5,-638.93C1434.5,-636.79 1434.5,-582.14 1434.5,-559.1"/>
<polygon fill="#cc6666" stroke="#cc6666" points="1438,-559.06 1434.5,-549.06 1431,-559.06 1438,-559.06"/>
<text text-anchor="middle" x="1464.5" y="-596.8" font-family="Cascadia Code PL" font-size="9.00" fill="#aaaaaa"> Cancel / Abort</text>
</g>
<!-- L5 -->
<g id="node28" class="node">
<title>L5</title>
<ellipse fill="white" stroke="white" cx="1332.5" cy="-640" rx="0.36" ry="0.36"/>
</g>
<!-- L6 -->
<g id="node29" class="node">
<title>L6</title>
<ellipse fill="white" stroke="white" cx="1332.5" cy="-548" rx="0.36" ry="0.36"/>
</g>
<!-- L5&#45;&gt;L6 -->
<g id="edge31" class="edge">
<title>L5&#45;&gt;L6</title>
<path fill="none" stroke="#cccc66" d="M1332.5,-638.93C1332.5,-636.79 1332.5,-582.14 1332.5,-559.1"/>
<polygon fill="#cccc66" stroke="#cccc66" points="1336,-559.06 1332.5,-549.06 1329,-559.06 1336,-559.06"/>
<text text-anchor="middle" x="1372" y="-596.8" font-family="Cascadia Code PL" font-size="9.00" fill="#aaaaaa"> Complete / Commit</text>
</g>
<!-- L7 -->
<g id="node30" class="node">
<title>L7</title>
<ellipse fill="white" stroke="white" cx="1253.5" cy="-640" rx="0.36" ry="0.36"/>
</g>
<!-- L8 -->
<g id="node31" class="node">
<title>L8</title>
<ellipse fill="white" stroke="white" cx="1253.5" cy="-548" rx="0.36" ry="0.36"/>
</g>
<!-- L7&#45;&gt;L8 -->
<g id="edge32" class="edge">
<title>L7&#45;&gt;L8</title>
<path fill="none" stroke="#6699ff" d="M1253.5,-638.93C1253.5,-636.79 1253.5,-582.14 1253.5,-559.1"/>
<polygon fill="#6699ff" stroke="#6699ff" points="1257,-559.06 1253.5,-549.06 1250,-559.06 1257,-559.06"/>
<text text-anchor="middle" x="1281.5" y="-596.8" font-family="Cascadia Code PL" font-size="9.00" fill="#aaaaaa"> Reset / Ready</text>
</g>
</g>
</svg>
