<?xml version="1.0" encoding="UTF-8" standalone="no"?>
<!DOCTYPE svg PUBLIC "-//W3C//DTD SVG 1.1//EN"
 "http://www.w3.org/Graphics/SVG/1.1/DTD/svg11.dtd">
<!-- Generated by graphviz version 2.42.4 (0)
 -->
<!-- Title: SPRAY_TOOL Pages: 1 -->
<svg width="724pt" height="640pt"
 viewBox="0.00 0.00 723.50 640.36" xmlns="http://www.w3.org/2000/svg" xmlns:xlink="http://www.w3.org/1999/xlink">
<g id="graph0" class="graph" transform="scale(1 1) rotate(0) translate(4 636.36)">
<title>SPRAY_TOOL</title>
<text text-anchor="middle" x="357.75" y="-609.16" font-family="Cascadia Code PL" font-size="24.00" fill="white">SPRAY TOOL STATE MACHINE</text>
<g id="clust3" class="cluster">
<title>cluster_legend</title>
<polygon fill="transparent" stroke="white" stroke-dasharray="5,2" points="418.5,-455.64 418.5,-590.36 707.5,-590.36 707.5,-455.64 418.5,-455.64"/>
<text text-anchor="middle" x="446.5" y="-577.56" font-family="Cascadia Code PL" font-size="11.00" fill="white">LEGEND</text>
</g>
<!-- MAIN -->
<g id="node1" class="node">
<title>MAIN</title>
<polygon fill="none" stroke="orange" stroke-width="2" points="368,-580 365,-584 344,-584 341,-580 271,-580 271,-544 368,-544 368,-580"/>
<text text-anchor="middle" x="319.5" y="-558.6" font-family="Cascadia Code PL" font-size="13.00" fill="orange">SPRAY STATES</text>
</g>
<!-- S_IDLE -->
<g id="node2" class="node">
<title>S_IDLE</title>
<polygon fill="none" stroke="white" points="410,-498 229,-498 229,-430 410,-430 410,-498"/>
<text text-anchor="middle" x="319.5" y="-485.2" font-family="Cascadia Code PL" font-size="11.00" fill="cyan">1 · IDLE</text>
<text text-anchor="middle" x="319.5" y="-473.2" font-family="Cascadia Code PL" font-size="11.00" fill="cyan">─────────────────</text>
<text text-anchor="middle" x="319.5" y="-461.2" font-family="Cascadia Code PL" font-size="11.00" fill="cyan">CURRENT_TOOL% = TOOL_SPRAY</text>
<text text-anchor="middle" x="319.5" y="-449.2" font-family="Cascadia Code PL" font-size="11.00" fill="cyan">SPRAY.ACTIVE = FALSE</text>
<text text-anchor="middle" x="319.5" y="-437.2" font-family="Cascadia Code PL" font-size="11.00" fill="cyan">Cursor: spray can icon</text>
</g>
<!-- MAIN&#45;&gt;S_IDLE -->
<g id="edge8" class="edge">
<title>MAIN&#45;&gt;S_IDLE</title>
<path fill="none" stroke="#555555" stroke-dasharray="1,5" d="M319.5,-543.84C319.5,-531.22 319.5,-513.67 319.5,-498.33"/>
</g>
<!-- S_SPRAYING -->
<g id="node3" class="node">
<title>S_SPRAYING</title>
<polygon fill="none" stroke="white" points="297.5,-364 141.5,-364 141.5,-272 297.5,-272 297.5,-364"/>
<text text-anchor="middle" x="219.5" y="-351.2" font-family="Cascadia Code PL" font-size="11.00" fill="cyan">2 · SPRAYING</text>
<text text-anchor="middle" x="219.5" y="-339.2" font-family="Cascadia Code PL" font-size="11.00" fill="cyan">─────────────────</text>
<text text-anchor="middle" x="219.5" y="-327.2" font-family="Cascadia Code PL" font-size="11.00" fill="cyan">B1 held on canvas</text>
<text text-anchor="middle" x="219.5" y="-315.2" font-family="Cascadia Code PL" font-size="11.00" fill="cyan">Randomized pixel burst</text>
<text text-anchor="middle" x="219.5" y="-303.2" font-family="Cascadia Code PL" font-size="11.00" fill="cyan">within BRUSH_SIZE radius</text>
<text text-anchor="middle" x="219.5" y="-291.2" font-family="Cascadia Code PL" font-size="11.00" fill="cyan">Density per frame tick</text>
<text text-anchor="middle" x="219.5" y="-279.2" font-family="Cascadia Code PL" font-size="11.00" fill="cyan">PAINT_pset_with_symmetry()</text>
</g>
<!-- S_IDLE&#45;&gt;S_SPRAYING -->
<g id="edge1" class="edge">
<title>S_IDLE&#45;&gt;S_SPRAYING</title>
<path fill="none" stroke="#66cc66" d="M296.56,-429.96C284.75,-412.97 270.07,-391.82 256.7,-372.56"/>
<polygon fill="#66cc66" stroke="#66cc66" points="259.44,-370.38 250.86,-364.16 253.69,-374.37 259.44,-370.38"/>
<text text-anchor="middle" x="326" y="-404.8" font-family="Cascadia Code PL" font-size="9.00" fill="#aaaaaa"> &#160;B1 press on canvas</text>
<text text-anchor="middle" x="326" y="-394.8" font-family="Cascadia Code PL" font-size="9.00" fill="#aaaaaa"> &#160;Capture BEFORE_IMG</text>
<text text-anchor="middle" x="326" y="-384.8" font-family="Cascadia Code PL" font-size="9.00" fill="#aaaaaa"> &#160;Start spray burst</text>
</g>
<!-- S_SPRAYING&#45;&gt;S_SPRAYING -->
<g id="edge3" class="edge">
<title>S_SPRAYING&#45;&gt;S_SPRAYING</title>
<path fill="none" stroke="#88aacc" d="M297.85,-330.31C308.44,-328.25 315.5,-324.14 315.5,-318 315.5,-314.06 312.6,-310.97 307.74,-308.71"/>
<polygon fill="#88aacc" stroke="#88aacc" points="308.43,-305.26 297.85,-305.69 306.39,-311.95 308.43,-305.26"/>
<text text-anchor="middle" x="353.5" y="-325.8" font-family="Cascadia Code PL" font-size="9.00" fill="#aaaaaa"> &#160;B1 held stationary</text>
<text text-anchor="middle" x="353.5" y="-315.8" font-family="Cascadia Code PL" font-size="9.00" fill="#aaaaaa"> &#160;Accumulate spray</text>
<text text-anchor="middle" x="353.5" y="-305.8" font-family="Cascadia Code PL" font-size="9.00" fill="#aaaaaa"> &#160;density increases</text>
</g>
<!-- S_CONTINUOUS -->
<g id="node4" class="node">
<title>S_CONTINUOUS</title>
<polygon fill="none" stroke="white" points="145,-216 0,-216 0,-136 145,-136 145,-216"/>
<text text-anchor="middle" x="72.5" y="-203.2" font-family="Cascadia Code PL" font-size="11.00" fill="cyan">3 · CONTINUOUS</text>
<text text-anchor="middle" x="72.5" y="-191.2" font-family="Cascadia Code PL" font-size="11.00" fill="cyan">─────────────────</text>
<text text-anchor="middle" x="72.5" y="-179.2" font-family="Cascadia Code PL" font-size="11.00" fill="cyan">B1 held + drag</text>
<text text-anchor="middle" x="72.5" y="-167.2" font-family="Cascadia Code PL" font-size="11.00" fill="cyan">Spray follows cursor</text>
<text text-anchor="middle" x="72.5" y="-155.2" font-family="Cascadia Code PL" font-size="11.00" fill="cyan">Accumulates spray density</text>
<text text-anchor="middle" x="72.5" y="-143.2" font-family="Cascadia Code PL" font-size="11.00" fill="cyan">over time per position</text>
</g>
<!-- S_SPRAYING&#45;&gt;S_CONTINUOUS -->
<g id="edge2" class="edge">
<title>S_SPRAYING&#45;&gt;S_CONTINUOUS</title>
<path fill="none" stroke="#66cc66" d="M172.18,-271.93C155.88,-256.41 137.6,-239 121.18,-223.37"/>
<polygon fill="#66cc66" stroke="#66cc66" points="123.45,-220.69 113.79,-216.32 118.62,-225.75 123.45,-220.69"/>
<text text-anchor="middle" x="194" y="-246.8" font-family="Cascadia Code PL" font-size="9.00" fill="#aaaaaa"> &#160;B1 held + movement</text>
<text text-anchor="middle" x="194" y="-236.8" font-family="Cascadia Code PL" font-size="9.00" fill="#aaaaaa"> &#160;Spray follows cursor</text>
</g>
<!-- S_COMMITTED -->
<g id="node5" class="node">
<title>S_COMMITTED</title>
<polygon fill="none" stroke="white" points="368.5,-80 210.5,-80 210.5,0 368.5,0 368.5,-80"/>
<text text-anchor="middle" x="289.5" y="-67.2" font-family="Cascadia Code PL" font-size="11.00" fill="cyan">4 · COMMITTED</text>
<text text-anchor="middle" x="289.5" y="-55.2" font-family="Cascadia Code PL" font-size="11.00" fill="cyan">─────────────────</text>
<text text-anchor="middle" x="289.5" y="-43.2" font-family="Cascadia Code PL" font-size="11.00" fill="cyan">B1 released</text>
<text text-anchor="middle" x="289.5" y="-31.2" font-family="Cascadia Code PL" font-size="11.00" fill="cyan">HISTORY_record_brush()</text>
<text text-anchor="middle" x="289.5" y="-19.2" font-family="Cascadia Code PL" font-size="11.00" fill="cyan">SPRAY.HISTORY_BEFORE_IMG</text>
<text text-anchor="middle" x="289.5" y="-7.2" font-family="Cascadia Code PL" font-size="11.00" fill="cyan">Layer contentDirty%</text>
</g>
<!-- S_SPRAYING&#45;&gt;S_COMMITTED -->
<g id="edge6" class="edge">
<title>S_SPRAYING&#45;&gt;S_COMMITTED</title>
<path fill="none" stroke="#cccc66" d="M240.96,-271.81C248.4,-254.65 256.19,-234.73 261.5,-216 273.31,-174.38 280.59,-125.68 284.76,-90.24"/>
<polygon fill="#cccc66" stroke="#cccc66" points="288.25,-90.48 285.9,-80.15 281.3,-89.69 288.25,-90.48"/>
<text text-anchor="middle" x="329.5" y="-178.8" font-family="Cascadia Code PL" font-size="9.00" fill="#aaaaaa"> &#160;B1 released</text>
<text text-anchor="middle" x="329.5" y="-168.8" font-family="Cascadia Code PL" font-size="9.00" fill="#aaaaaa"> &#160;HISTORY_record_brush()</text>
</g>
<!-- S_CONTINUOUS&#45;&gt;S_CONTINUOUS -->
<g id="edge4" class="edge">
<title>S_CONTINUOUS&#45;&gt;S_CONTINUOUS</title>
<path fill="none" stroke="#88aacc" d="M145.29,-187.5C155.87,-185.68 163,-181.84 163,-176 163,-172.26 160.07,-169.34 155.19,-167.24"/>
<polygon fill="#88aacc" stroke="#88aacc" points="155.86,-163.8 145.29,-164.5 153.99,-170.54 155.86,-163.8"/>
<text text-anchor="middle" x="208" y="-178.8" font-family="Cascadia Code PL" font-size="9.00" fill="#aaaaaa"> &#160;B1 held + movement</text>
<text text-anchor="middle" x="208" y="-168.8" font-family="Cascadia Code PL" font-size="9.00" fill="#aaaaaa"> &#160;Spray at new position</text>
</g>
<!-- S_CONTINUOUS&#45;&gt;S_COMMITTED -->
<g id="edge5" class="edge">
<title>S_CONTINUOUS&#45;&gt;S_COMMITTED</title>
<path fill="none" stroke="#cccc66" d="M119.94,-135.81C136.41,-123.03 155.31,-109.25 173.5,-98 182.32,-92.54 191.74,-87.2 201.25,-82.1"/>
<polygon fill="#cccc66" stroke="#cccc66" points="203.16,-85.05 210.38,-77.3 199.9,-78.86 203.16,-85.05"/>
<text text-anchor="middle" x="224.5" y="-110.8" font-family="Cascadia Code PL" font-size="9.00" fill="#aaaaaa"> &#160;B1 released</text>
<text text-anchor="middle" x="224.5" y="-100.8" font-family="Cascadia Code PL" font-size="9.00" fill="#aaaaaa"> &#160;HISTORY_record_brush()</text>
</g>
<!-- S_COMMITTED&#45;&gt;S_IDLE -->
<g id="edge7" class="edge">
<title>S_COMMITTED&#45;&gt;S_IDLE</title>
<path fill="none" stroke="#6699ff" d="M341.01,-80.45C357.61,-95.92 374.33,-115.01 384.5,-136 411.04,-190.77 396.94,-211.24 400.5,-272 402.89,-312.82 410.55,-324.36 400.5,-364 394.54,-387.52 389.37,-392.83 374.5,-412 371.73,-415.57 368.7,-419.11 365.54,-422.56"/>
<polygon fill="#6699ff" stroke="#6699ff" points="362.84,-420.31 358.43,-429.95 367.88,-425.17 362.84,-420.31"/>
<text text-anchor="middle" x="423.5" y="-246.8" font-family="Cascadia Code PL" font-size="9.00" fill="#aaaaaa"> &#160;Ready for</text>
<text text-anchor="middle" x="423.5" y="-236.8" font-family="Cascadia Code PL" font-size="9.00" fill="#aaaaaa"> &#160;next spray</text>
</g>
<!-- L1 -->
<g id="node6" class="node">
<title>L1</title>
<ellipse fill="white" stroke="white" cx="634.5" cy="-562" rx="0.36" ry="0.36"/>
</g>
<!-- L2 -->
<g id="node7" class="node">
<title>L2</title>
<ellipse fill="white" stroke="white" cx="634.5" cy="-464" rx="0.36" ry="0.36"/>
</g>
<!-- L1&#45;&gt;L2 -->
<g id="edge9" class="edge">
<title>L1&#45;&gt;L2</title>
<path fill="none" stroke="#66cc66" d="M634.5,-560.93C634.5,-558.63 634.5,-499.78 634.5,-475.42"/>
<polygon fill="#66cc66" stroke="#66cc66" points="638,-475.07 634.5,-465.07 631,-475.07 638,-475.07"/>
<text text-anchor="middle" x="667" y="-518.8" font-family="Cascadia Code PL" font-size="9.00" fill="#aaaaaa"> Activate / Spray</text>
</g>
<!-- L3 -->
<g id="node8" class="node">
<title>L3</title>
<ellipse fill="white" stroke="white" cx="536.5" cy="-562" rx="0.36" ry="0.36"/>
</g>
<!-- L4 -->
<g id="node9" class="node">
<title>L4</title>
<ellipse fill="white" stroke="white" cx="536.5" cy="-464" rx="0.36" ry="0.36"/>
</g>
<!-- L3&#45;&gt;L4 -->
<g id="edge10" class="edge">
<title>L3&#45;&gt;L4</title>
<path fill="none" stroke="#cccc66" d="M536.5,-560.93C536.5,-558.63 536.5,-499.78 536.5,-475.42"/>
<polygon fill="#cccc66" stroke="#cccc66" points="540,-475.07 536.5,-465.07 533,-475.07 540,-475.07"/>
<text text-anchor="middle" x="574" y="-518.8" font-family="Cascadia Code PL" font-size="9.00" fill="#aaaaaa"> Commit to History</text>
</g>
<!-- L5 -->
<g id="node10" class="node">
<title>L5</title>
<ellipse fill="white" stroke="white" cx="444.5" cy="-562" rx="0.36" ry="0.36"/>
</g>
<!-- L6 -->
<g id="node11" class="node">
<title>L6</title>
<ellipse fill="white" stroke="white" cx="444.5" cy="-464" rx="0.36" ry="0.36"/>
</g>
<!-- L5&#45;&gt;L6 -->
<g id="edge11" class="edge">
<title>L5&#45;&gt;L6</title>
<path fill="none" stroke="#6699ff" d="M444.5,-560.93C444.5,-558.63 444.5,-499.78 444.5,-475.42"/>
<polygon fill="#6699ff" stroke="#6699ff" points="448,-475.07 444.5,-465.07 441,-475.07 448,-475.07"/>
<text text-anchor="middle" x="479" y="-518.8" font-family="Cascadia Code PL" font-size="9.00" fill="#aaaaaa"> Ready / Re&#45;enter</text>
</g>
</g>
</svg>
