<?xml version="1.0" encoding="UTF-8" standalone="no"?>
<!DOCTYPE svg PUBLIC "-//W3C//DTD SVG 1.1//EN"
 "http://www.w3.org/Graphics/SVG/1.1/DTD/svg11.dtd">
<!-- Generated by graphviz version 2.42.4 (0)
 -->
<!-- Title: ZOOM_TOOL Pages: 1 -->
<svg width="855pt" height="416pt"
 viewBox="0.00 0.00 855.00 416.00" xmlns="http://www.w3.org/2000/svg" xmlns:xlink="http://www.w3.org/1999/xlink">
<g id="graph0" class="graph" transform="scale(1 1) rotate(0) translate(4 412)">
<title>ZOOM_TOOL</title>
<text text-anchor="middle" x="423.5" y="-384.8" font-family="Cascadia Code PL" font-size="24.00" fill="white">ZOOM TOOL STATE MACHINE</text>
<g id="clust2" class="cluster">
<title>cluster_levels</title>
<polygon fill="transparent" stroke="orange" stroke-dasharray="5,2" points="491,-233 491,-366 650,-366 650,-233 491,-233"/>
<text text-anchor="middle" x="570.5" y="-353.2" font-family="Cascadia Code PL" font-size="11.00" fill="orange">ZOOM LEVELS — Snap Points</text>
</g>
<!-- MAIN -->
<g id="node1" class="node">
<title>MAIN</title>
<polygon fill="none" stroke="orange" stroke-width="2" points="482.5,-307.5 479.5,-311.5 458.5,-311.5 455.5,-307.5 383.5,-307.5 383.5,-271.5 482.5,-271.5 482.5,-307.5"/>
<text text-anchor="middle" x="433" y="-286.1" font-family="Cascadia Code PL" font-size="13.00" fill="orange">ZOOM STATES</text>
</g>
<!-- S_IDLE -->
<g id="node2" class="node">
<title>S_IDLE</title>
<polygon fill="none" stroke="white" points="519.5,-204 346.5,-204 346.5,-136 519.5,-136 519.5,-204"/>
<text text-anchor="middle" x="433" y="-191.2" font-family="Cascadia Code PL" font-size="11.00" fill="cyan">1 · IDLE</text>
<text text-anchor="middle" x="433" y="-179.2" font-family="Cascadia Code PL" font-size="11.00" fill="cyan">─────────────────</text>
<text text-anchor="middle" x="433" y="-167.2" font-family="Cascadia Code PL" font-size="11.00" fill="cyan">CURRENT_TOOL = TOOL_ZOOM</text>
<text text-anchor="middle" x="433" y="-155.2" font-family="Cascadia Code PL" font-size="11.00" fill="cyan">or Ctrl+Alt held (assistant)</text>
<text text-anchor="middle" x="433" y="-143.2" font-family="Cascadia Code PL" font-size="11.00" fill="cyan">Cursor: magnifier</text>
</g>
<!-- MAIN&#45;&gt;S_IDLE -->
<g id="edge9" class="edge">
<title>MAIN&#45;&gt;S_IDLE</title>
<path fill="none" stroke="#555555" stroke-dasharray="1,5" d="M433,-271.41C433,-253.85 433,-226.04 433,-204.14"/>
</g>
<!-- S_ZOOM_IN -->
<g id="node3" class="node">
<title>S_ZOOM_IN</title>
<polygon fill="none" stroke="white" points="170,-80 0,-80 0,0 170,0 170,-80"/>
<text text-anchor="middle" x="85" y="-67.2" font-family="Cascadia Code PL" font-size="11.00" fill="cyan">2 · ZOOM IN</text>
<text text-anchor="middle" x="85" y="-55.2" font-family="Cascadia Code PL" font-size="11.00" fill="cyan">─────────────────</text>
<text text-anchor="middle" x="85" y="-43.2" font-family="Cascadia Code PL" font-size="11.00" fill="cyan">B1 click or + key</text>
<text text-anchor="middle" x="85" y="-31.2" font-family="Cascadia Code PL" font-size="11.00" fill="cyan">SCRN.zoomLevel! increases</text>
<text text-anchor="middle" x="85" y="-19.2" font-family="Cascadia Code PL" font-size="11.00" fill="cyan">Snap to next level:</text>
<text text-anchor="middle" x="85" y="-7.2" font-family="Cascadia Code PL" font-size="11.00" fill="cyan">25→50→100→200→400→800%</text>
</g>
<!-- S_IDLE&#45;&gt;S_ZOOM_IN -->
<g id="edge1" class="edge">
<title>S_IDLE&#45;&gt;S_ZOOM_IN</title>
<path fill="none" stroke="#66cc66" d="M346.24,-164.27C232.01,-157.14 43.1,-141.88 22,-118 13.61,-108.5 15.2,-98.12 21.75,-88.15"/>
<polygon fill="#66cc66" stroke="#66cc66" points="24.53,-90.28 27.97,-80.26 19.03,-85.95 24.53,-90.28"/>
<text text-anchor="middle" x="69" y="-110.8" font-family="Cascadia Code PL" font-size="9.00" fill="#aaaaaa"> &#160;B1 click / + key</text>
<text text-anchor="middle" x="69" y="-100.8" font-family="Cascadia Code PL" font-size="9.00" fill="#aaaaaa"> &#160;Ctrl+Alt+B1 (assistant)</text>
</g>
<!-- S_ZOOM_OUT -->
<g id="node4" class="node">
<title>S_ZOOM_OUT</title>
<polygon fill="none" stroke="white" points="370.5,-74 215.5,-74 215.5,-6 370.5,-6 370.5,-74"/>
<text text-anchor="middle" x="293" y="-61.2" font-family="Cascadia Code PL" font-size="11.00" fill="cyan">3 · ZOOM OUT</text>
<text text-anchor="middle" x="293" y="-49.2" font-family="Cascadia Code PL" font-size="11.00" fill="cyan">─────────────────</text>
<text text-anchor="middle" x="293" y="-37.2" font-family="Cascadia Code PL" font-size="11.00" fill="cyan">B2 click or &#45; key</text>
<text text-anchor="middle" x="293" y="-25.2" font-family="Cascadia Code PL" font-size="11.00" fill="cyan">SCRN.zoomLevel! decreases</text>
<text text-anchor="middle" x="293" y="-13.2" font-family="Cascadia Code PL" font-size="11.00" fill="cyan">Snap to previous level</text>
</g>
<!-- S_IDLE&#45;&gt;S_ZOOM_OUT -->
<g id="edge2" class="edge">
<title>S_IDLE&#45;&gt;S_ZOOM_OUT</title>
<path fill="none" stroke="#cc6666" d="M346.47,-153.86C308.23,-145.24 269.35,-133.13 258,-118 250.14,-107.52 252.01,-94.98 257.79,-83.1"/>
<polygon fill="#cc6666" stroke="#cc6666" points="260.95,-84.61 262.87,-74.19 254.87,-81.15 260.95,-84.61"/>
<text text-anchor="middle" x="305" y="-110.8" font-family="Cascadia Code PL" font-size="9.00" fill="#aaaaaa"> &#160;B2 click / &#45; key</text>
<text text-anchor="middle" x="305" y="-100.8" font-family="Cascadia Code PL" font-size="9.00" fill="#aaaaaa"> &#160;Ctrl+Alt+B2 (assistant)</text>
</g>
<!-- S_FIT -->
<g id="node5" class="node">
<title>S_FIT</title>
<polygon fill="none" stroke="white" points="573,-74 439,-74 439,-6 573,-6 573,-74"/>
<text text-anchor="middle" x="506" y="-61.2" font-family="Cascadia Code PL" font-size="11.00" fill="cyan">4 · FIT TO SCREEN</text>
<text text-anchor="middle" x="506" y="-49.2" font-family="Cascadia Code PL" font-size="11.00" fill="cyan">─────────────────</text>
<text text-anchor="middle" x="506" y="-37.2" font-family="Cascadia Code PL" font-size="11.00" fill="cyan">0 key / Menu command</text>
<text text-anchor="middle" x="506" y="-25.2" font-family="Cascadia Code PL" font-size="11.00" fill="cyan">Auto&#45;calculate zoom</text>
<text text-anchor="middle" x="506" y="-13.2" font-family="Cascadia Code PL" font-size="11.00" fill="cyan">Center canvas on screen</text>
</g>
<!-- S_IDLE&#45;&gt;S_FIT -->
<g id="edge3" class="edge">
<title>S_IDLE&#45;&gt;S_FIT</title>
<path fill="none" stroke="#6699ff" d="M459.2,-135.96C463.36,-130.12 467.46,-123.99 471,-118 477.36,-107.23 483.36,-95.11 488.54,-83.72"/>
<polygon fill="#6699ff" stroke="#6699ff" points="491.83,-84.94 492.68,-74.38 485.43,-82.1 491.83,-84.94"/>
<text text-anchor="middle" x="516" y="-110.8" font-family="Cascadia Code PL" font-size="9.00" fill="#aaaaaa"> &#160;0 key / CMD &#39;Fit&#39;</text>
<text text-anchor="middle" x="516" y="-100.8" font-family="Cascadia Code PL" font-size="9.00" fill="#aaaaaa"> &#160;Auto&#45;fit zoom</text>
</g>
<!-- S_WHEEL -->
<g id="node6" class="node">
<title>S_WHEEL</title>
<polygon fill="none" stroke="white" points="811,-80 651,-80 651,0 811,0 811,-80"/>
<text text-anchor="middle" x="731" y="-67.2" font-family="Cascadia Code PL" font-size="11.00" fill="cyan">5 · WHEEL ZOOM</text>
<text text-anchor="middle" x="731" y="-55.2" font-family="Cascadia Code PL" font-size="11.00" fill="cyan">─────────────────</text>
<text text-anchor="middle" x="731" y="-43.2" font-family="Cascadia Code PL" font-size="11.00" fill="cyan">Mousewheel over canvas</text>
<text text-anchor="middle" x="731" y="-31.2" font-family="Cascadia Code PL" font-size="11.00" fill="cyan">Smooth zoom steps</text>
<text text-anchor="middle" x="731" y="-19.2" font-family="Cascadia Code PL" font-size="11.00" fill="cyan">Zoom toward cursor position</text>
<text text-anchor="middle" x="731" y="-7.2" font-family="Cascadia Code PL" font-size="11.00" fill="cyan">SCRN.zoomTarget!</text>
</g>
<!-- S_IDLE&#45;&gt;S_WHEEL -->
<g id="edge4" class="edge">
<title>S_IDLE&#45;&gt;S_WHEEL</title>
<path fill="none" stroke="#88aacc" d="M519.56,-156.37C557.32,-148.65 601.25,-136.56 638,-118 654.11,-109.86 669.9,-98.49 683.77,-86.98"/>
<polygon fill="#88aacc" stroke="#88aacc" points="686.37,-89.36 691.7,-80.21 681.82,-84.04 686.37,-89.36"/>
<text text-anchor="middle" x="704" y="-110.8" font-family="Cascadia Code PL" font-size="9.00" fill="#aaaaaa"> &#160;Mousewheel</text>
<text text-anchor="middle" x="704" y="-100.8" font-family="Cascadia Code PL" font-size="9.00" fill="#aaaaaa"> &#160;Over canvas area</text>
</g>
<!-- S_ZOOM_IN&#45;&gt;S_IDLE -->
<g id="edge5" class="edge">
<title>S_ZOOM_IN&#45;&gt;S_IDLE</title>
<path fill="none" stroke="#cccc66" d="M111.04,-80.16C122.32,-94.19 136.69,-108.8 153,-118 208.72,-149.44 279.7,-162.13 336.25,-166.98"/>
<polygon fill="#cccc66" stroke="#cccc66" points="336.03,-170.48 346.27,-167.77 336.58,-163.5 336.03,-170.48"/>
<text text-anchor="middle" x="201" y="-110.8" font-family="Cascadia Code PL" font-size="9.00" fill="#aaaaaa"> &#160;Zoom applied</text>
<text text-anchor="middle" x="201" y="-100.8" font-family="Cascadia Code PL" font-size="9.00" fill="#aaaaaa"> &#160;SCENE_DIRTY% = TRUE</text>
</g>
<!-- S_ZOOM_OUT&#45;&gt;S_IDLE -->
<g id="edge6" class="edge">
<title>S_ZOOM_OUT&#45;&gt;S_IDLE</title>
<path fill="none" stroke="#cccc66" d="M327.87,-74.21C335.86,-81.95 344.28,-90.21 352,-98 360.63,-106.71 362.03,-109.65 371,-118 375.02,-121.74 379.26,-125.54 383.58,-129.28"/>
<polygon fill="#cccc66" stroke="#cccc66" points="381.5,-132.11 391.37,-135.95 386.05,-126.79 381.5,-132.11"/>
<text text-anchor="middle" x="419" y="-110.8" font-family="Cascadia Code PL" font-size="9.00" fill="#aaaaaa"> &#160;Zoom applied</text>
<text text-anchor="middle" x="419" y="-100.8" font-family="Cascadia Code PL" font-size="9.00" fill="#aaaaaa"> &#160;SCENE_DIRTY% = TRUE</text>
</g>
<!-- S_FIT&#45;&gt;S_IDLE -->
<g id="edge7" class="edge">
<title>S_FIT&#45;&gt;S_IDLE</title>
<path fill="none" stroke="#cccc66" d="M545.71,-74.17C557.25,-87.83 564.48,-103.76 555,-118 548.24,-128.15 539.03,-136.29 528.68,-142.8"/>
<polygon fill="#cccc66" stroke="#cccc66" points="526.7,-139.91 519.75,-147.91 530.17,-145.99 526.7,-139.91"/>
<text text-anchor="middle" x="596.5" y="-105.8" font-family="Cascadia Code PL" font-size="9.00" fill="#aaaaaa"> &#160;Zoom + offset set</text>
</g>
<!-- S_WHEEL&#45;&gt;S_IDLE -->
<g id="edge8" class="edge">
<title>S_WHEEL&#45;&gt;S_IDLE</title>
<path fill="none" stroke="#cccc66" d="M749.27,-80.02C752.71,-93.38 752.86,-107.56 744,-118 716.87,-149.94 610.84,-161.92 530.05,-166.39"/>
<polygon fill="#cccc66" stroke="#cccc66" points="529.64,-162.9 519.83,-166.92 530,-169.89 529.64,-162.9"/>
<text text-anchor="middle" x="799" y="-105.8" font-family="Cascadia Code PL" font-size="9.00" fill="#aaaaaa"> &#160;Wheel event processed</text>
</g>
<!-- ZL -->
<g id="node7" class="node">
<title>ZL</title>
<polygon fill="none" stroke="white" points="636.5,-338 505.5,-338 505.5,-241 636.5,-241 636.5,-338"/>
<text text-anchor="middle" x="571" y="-326" font-family="Cascadia Code PL" font-size="10.00" fill="cyan">Zoom Snap Levels</text>
<text text-anchor="middle" x="571" y="-315" font-family="Cascadia Code PL" font-size="10.00" fill="cyan">────────────</text>
<text text-anchor="middle" x="571" y="-304" font-family="Cascadia Code PL" font-size="10.00" fill="cyan">25% → 50% → 100%</text>
<text text-anchor="middle" x="571" y="-293" font-family="Cascadia Code PL" font-size="10.00" fill="cyan">→ 200% → 400% → 800%</text>
<text text-anchor="middle" x="571" y="-270" font-family="Cascadia Code PL" font-size="10.00" fill="cyan">SCRN.zoomLevel! = float</text>
<text text-anchor="middle" x="571" y="-259" font-family="Cascadia Code PL" font-size="10.00" fill="cyan">Pixel grid at ≥ 4x</text>
<text text-anchor="middle" x="571" y="-248" font-family="Cascadia Code PL" font-size="10.00" fill="cyan">Grid visible at ≥ 2x</text>
</g>
</g>
</svg>
