<?xml version="1.0" encoding="UTF-8" standalone="no"?>
<!DOCTYPE svg PUBLIC "-//W3C//DTD SVG 1.1//EN"
 "http://www.w3.org/Graphics/SVG/1.1/DTD/svg11.dtd">
<!-- Generated by graphviz version 2.42.4 (0)
 -->
<!-- Title: ABOUT_DIALOG Pages: 1 -->
<svg width="1205pt" height="743pt"
 viewBox="0.00 0.00 1205.00 743.00" xmlns="http://www.w3.org/2000/svg" xmlns:xlink="http://www.w3.org/1999/xlink">
<g id="graph0" class="graph" transform="scale(1 1) rotate(0) translate(4 739)">
<title>ABOUT_DIALOG</title>
<text text-anchor="middle" x="598.5" y="-711.8" font-family="Cascadia Code PL" font-size="24.00" fill="white">ABOUT DIALOG STATE MACHINE</text>
<g id="clust2" class="cluster">
<title>cluster_content</title>
<polygon fill="transparent" stroke="orange" stroke-dasharray="5,2" points="440,-594 440,-693 971,-693 971,-594 440,-594"/>
<text text-anchor="middle" x="501" y="-680.2" font-family="Cascadia Code PL" font-size="11.00" fill="orange">DISPLAYED CONTENT</text>
</g>
<g id="clust4" class="cluster">
<title>cluster_legend</title>
<polygon fill="transparent" stroke="white" stroke-dasharray="5,2" points="979,-519.64 979,-661.86 1189,-661.86 1189,-519.64 979,-519.64"/>
<text text-anchor="middle" x="1007" y="-649.06" font-family="Cascadia Code PL" font-size="11.00" fill="white">LEGEND</text>
</g>
<!-- MAIN -->
<g id="node1" class="node">
<title>MAIN</title>
<polygon fill="none" stroke="orange" stroke-width="2" points="430.5,-651.5 427.5,-655.5 406.5,-655.5 403.5,-651.5 323.5,-651.5 323.5,-615.5 430.5,-615.5 430.5,-651.5"/>
<text text-anchor="middle" x="377" y="-630.1" font-family="Cascadia Code PL" font-size="13.00" fill="orange">ABOUT DIALOG</text>
</g>
<!-- S_CLOSED -->
<g id="node2" class="node">
<title>S_CLOSED</title>
<polygon fill="none" stroke="white" points="444.5,-556 309.5,-556 309.5,-500 444.5,-500 444.5,-556"/>
<text text-anchor="middle" x="377" y="-543.2" font-family="Cascadia Code PL" font-size="11.00" fill="cyan">1 · CLOSED</text>
<text text-anchor="middle" x="377" y="-531.2" font-family="Cascadia Code PL" font-size="11.00" fill="cyan">─────────────────</text>
<text text-anchor="middle" x="377" y="-519.2" font-family="Cascadia Code PL" font-size="11.00" fill="cyan">ABOUT.visible% = FALSE</text>
<text text-anchor="middle" x="377" y="-507.2" font-family="Cascadia Code PL" font-size="11.00" fill="cyan">No overlay drawn</text>
</g>
<!-- MAIN&#45;&gt;S_CLOSED -->
<g id="edge9" class="edge">
<title>MAIN&#45;&gt;S_CLOSED</title>
<path fill="none" stroke="#555555" stroke-dasharray="1,5" d="M377,-615.41C377,-599.33 377,-575 377,-556.24"/>
</g>
<!-- S_INTRO -->
<g id="node3" class="node">
<title>S_INTRO</title>
<polygon fill="none" stroke="white" points="376.5,-444 249.5,-444 249.5,-376 376.5,-376 376.5,-444"/>
<text text-anchor="middle" x="313" y="-431.2" font-family="Cascadia Code PL" font-size="11.00" fill="cyan">2 · INTRO ANIMATION</text>
<text text-anchor="middle" x="313" y="-419.2" font-family="Cascadia Code PL" font-size="11.00" fill="cyan">─────────────────</text>
<text text-anchor="middle" x="313" y="-407.2" font-family="Cascadia Code PL" font-size="11.00" fill="cyan">Logo scales/fades in</text>
<text text-anchor="middle" x="313" y="-395.2" font-family="Cascadia Code PL" font-size="11.00" fill="cyan">FRAME_IDLE% = FALSE</text>
<text text-anchor="middle" x="313" y="-383.2" font-family="Cascadia Code PL" font-size="11.00" fill="cyan">frameCount counts up</text>
</g>
<!-- S_CLOSED&#45;&gt;S_INTRO -->
<g id="edge1" class="edge">
<title>S_CLOSED&#45;&gt;S_INTRO</title>
<path fill="none" stroke="#66cc66" d="M361.99,-499.8C354.34,-485.92 344.85,-468.72 336.26,-453.17"/>
<polygon fill="#66cc66" stroke="#66cc66" points="339.23,-451.3 331.34,-444.24 333.1,-454.68 339.23,-451.3"/>
<text text-anchor="middle" x="381.5" y="-474.8" font-family="Cascadia Code PL" font-size="9.00" fill="#aaaaaa"> &#160;Help → About</text>
<text text-anchor="middle" x="381.5" y="-464.8" font-family="Cascadia Code PL" font-size="9.00" fill="#aaaaaa"> &#160;(action ID)</text>
</g>
<!-- S_IDLE -->
<g id="node4" class="node">
<title>S_IDLE</title>
<polygon fill="none" stroke="white" points="268.5,-320 139.5,-320 139.5,-240 268.5,-240 268.5,-320"/>
<text text-anchor="middle" x="204" y="-307.2" font-family="Cascadia Code PL" font-size="11.00" fill="cyan">3 · IDLE DISPLAY</text>
<text text-anchor="middle" x="204" y="-295.2" font-family="Cascadia Code PL" font-size="11.00" fill="cyan">─────────────────</text>
<text text-anchor="middle" x="204" y="-283.2" font-family="Cascadia Code PL" font-size="11.00" fill="cyan">Animated logo loop</text>
<text text-anchor="middle" x="204" y="-271.2" font-family="Cascadia Code PL" font-size="11.00" fill="cyan">Version APP_VERSION$</text>
<text text-anchor="middle" x="204" y="-259.2" font-family="Cascadia Code PL" font-size="11.00" fill="cyan">Credits scroll/blink</text>
<text text-anchor="middle" x="204" y="-247.2" font-family="Cascadia Code PL" font-size="11.00" fill="cyan">Clickable GitHub link</text>
</g>
<!-- S_INTRO&#45;&gt;S_IDLE -->
<g id="edge2" class="edge">
<title>S_INTRO&#45;&gt;S_IDLE</title>
<path fill="none" stroke="#cccc66" d="M284.65,-375.7C272.18,-361.06 257.32,-343.61 243.77,-327.7"/>
<polygon fill="#cccc66" stroke="#cccc66" points="246.39,-325.38 237.24,-320.04 241.06,-329.92 246.39,-325.38"/>
<text text-anchor="middle" x="303.5" y="-350.8" font-family="Cascadia Code PL" font-size="9.00" fill="#aaaaaa"> &#160;Animation done</text>
<text text-anchor="middle" x="303.5" y="-340.8" font-family="Cascadia Code PL" font-size="9.00" fill="#aaaaaa"> &#160;~1 second</text>
</g>
<!-- S_HOVER_LINK -->
<g id="node5" class="node">
<title>S_HOVER_LINK</title>
<polygon fill="none" stroke="white" points="271,-194 137,-194 137,-126 271,-126 271,-194"/>
<text text-anchor="middle" x="204" y="-181.2" font-family="Cascadia Code PL" font-size="11.00" fill="cyan">4 · HOVER LINK</text>
<text text-anchor="middle" x="204" y="-169.2" font-family="Cascadia Code PL" font-size="11.00" fill="cyan">─────────────────</text>
<text text-anchor="middle" x="204" y="-157.2" font-family="Cascadia Code PL" font-size="11.00" fill="cyan">Mouse over GitHub URL</text>
<text text-anchor="middle" x="204" y="-145.2" font-family="Cascadia Code PL" font-size="11.00" fill="cyan">Cursor → hand</text>
<text text-anchor="middle" x="204" y="-133.2" font-family="Cascadia Code PL" font-size="11.00" fill="cyan">Underline highlight</text>
</g>
<!-- S_IDLE&#45;&gt;S_HOVER_LINK -->
<g id="edge3" class="edge">
<title>S_IDLE&#45;&gt;S_HOVER_LINK</title>
<path fill="none" stroke="#66cc66" d="M204,-239.71C204,-228.42 204,-216.03 204,-204.5"/>
<polygon fill="#66cc66" stroke="#66cc66" points="207.5,-204.21 204,-194.21 200.5,-204.21 207.5,-204.21"/>
<text text-anchor="middle" x="255.5" y="-214.8" font-family="Cascadia Code PL" font-size="9.00" fill="#aaaaaa"> &#160;Mouse enters URL hitbox</text>
</g>
<!-- S_CLOSING -->
<g id="node7" class="node">
<title>S_CLOSING</title>
<polygon fill="none" stroke="white" points="463.5,-188 332.5,-188 332.5,-132 463.5,-132 463.5,-188"/>
<text text-anchor="middle" x="398" y="-175.2" font-family="Cascadia Code PL" font-size="11.00" fill="cyan">6 · CLOSING</text>
<text text-anchor="middle" x="398" y="-163.2" font-family="Cascadia Code PL" font-size="11.00" fill="cyan">─────────────────</text>
<text text-anchor="middle" x="398" y="-151.2" font-family="Cascadia Code PL" font-size="11.00" fill="cyan">Click outside / Esc / OK</text>
<text text-anchor="middle" x="398" y="-139.2" font-family="Cascadia Code PL" font-size="11.00" fill="cyan">Fade out animation</text>
</g>
<!-- S_IDLE&#45;&gt;S_CLOSING -->
<g id="edge7" class="edge">
<title>S_IDLE&#45;&gt;S_CLOSING</title>
<path fill="none" stroke="#cc6666" stroke-dasharray="5,2" d="M268.62,-244.82C281.78,-237.51 295.44,-229.68 308,-222 322.27,-213.28 337.45,-203.29 351.19,-193.95"/>
<polygon fill="#cc6666" stroke="#cc6666" points="353.26,-196.77 359.54,-188.24 349.31,-190.99 353.26,-196.77"/>
<text text-anchor="middle" x="372" y="-214.8" font-family="Cascadia Code PL" font-size="9.00" fill="#aaaaaa"> &#160;Esc / OK / outside click</text>
</g>
<!-- S_HOVER_LINK&#45;&gt;S_IDLE -->
<g id="edge4" class="edge">
<title>S_HOVER_LINK&#45;&gt;S_IDLE</title>
<path fill="none" stroke="#cc6666" stroke-dasharray="5,2" d="M147.74,-194.14C140.79,-202.36 137.51,-211.77 142,-222 143.5,-225.41 145.31,-228.71 147.37,-231.89"/>
<polygon fill="#cc6666" stroke="#cc6666" points="144.57,-233.99 153.31,-239.99 150.22,-229.85 144.57,-233.99"/>
<text text-anchor="middle" x="171" y="-214.8" font-family="Cascadia Code PL" font-size="9.00" fill="#aaaaaa"> &#160;Mouse leaves</text>
</g>
<!-- S_OPEN_URL -->
<g id="node6" class="node">
<title>S_OPEN_URL</title>
<polygon fill="none" stroke="white" points="118,-80 0,-80 0,0 118,0 118,-80"/>
<text text-anchor="middle" x="59" y="-67.2" font-family="Cascadia Code PL" font-size="11.00" fill="cyan">5 · OPENING URL</text>
<text text-anchor="middle" x="59" y="-55.2" font-family="Cascadia Code PL" font-size="11.00" fill="cyan">─────────────────</text>
<text text-anchor="middle" x="59" y="-43.2" font-family="Cascadia Code PL" font-size="11.00" fill="cyan">Link clicked</text>
<text text-anchor="middle" x="59" y="-31.2" font-family="Cascadia Code PL" font-size="11.00" fill="cyan">_OPENBROWSER call</text>
<text text-anchor="middle" x="59" y="-19.2" font-family="Cascadia Code PL" font-size="11.00" fill="cyan">(or shell command)</text>
<text text-anchor="middle" x="59" y="-7.2" font-family="Cascadia Code PL" font-size="11.00" fill="cyan">Return to idle</text>
</g>
<!-- S_HOVER_LINK&#45;&gt;S_OPEN_URL -->
<g id="edge5" class="edge">
<title>S_HOVER_LINK&#45;&gt;S_OPEN_URL</title>
<path fill="none" stroke="#66cc66" d="M163.22,-125.82C148.25,-113.63 131.03,-99.62 114.95,-86.54"/>
<polygon fill="#66cc66" stroke="#66cc66" points="117.14,-83.8 107.17,-80.2 112.72,-89.23 117.14,-83.8"/>
<text text-anchor="middle" x="173" y="-100.8" font-family="Cascadia Code PL" font-size="9.00" fill="#aaaaaa"> &#160;B1 click on link</text>
</g>
<!-- S_OPEN_URL&#45;&gt;S_IDLE -->
<g id="edge6" class="edge">
<title>S_OPEN_URL&#45;&gt;S_IDLE</title>
<path fill="none" stroke="#cccc66" d="M46.01,-80.28C37.69,-112.98 31.82,-159.6 52,-194 69.05,-223.06 100.06,-242.93 129.64,-256.1"/>
<polygon fill="#cccc66" stroke="#cccc66" points="128.6,-259.46 139.18,-260.14 131.34,-253.02 128.6,-259.46"/>
<text text-anchor="middle" x="90" y="-162.8" font-family="Cascadia Code PL" font-size="9.00" fill="#aaaaaa"> &#160;Browser launched</text>
<text text-anchor="middle" x="90" y="-152.8" font-family="Cascadia Code PL" font-size="9.00" fill="#aaaaaa"> &#160;Stay on About</text>
</g>
<!-- S_CLOSING&#45;&gt;S_CLOSED -->
<g id="edge8" class="edge">
<title>S_CLOSING&#45;&gt;S_CLOSED</title>
<path fill="none" stroke="#cc6666" stroke-dasharray="5,2" d="M414.8,-188.14C418.58,-195.6 422.05,-203.88 424,-212 425.04,-216.32 424.07,-217.56 424,-222 422.22,-337.6 458.07,-374.32 416,-482 414.72,-485.28 413.09,-488.48 411.23,-491.57"/>
<polygon fill="#cc6666" stroke="#cc6666" points="408.25,-489.71 405.46,-499.93 414.02,-493.69 408.25,-489.71"/>
<text text-anchor="middle" x="466.5" y="-345.8" font-family="Cascadia Code PL" font-size="9.00" fill="#aaaaaa"> &#160;Fade complete</text>
</g>
<!-- C1 -->
<g id="node8" class="node">
<title>C1</title>
<polygon fill="none" stroke="white" points="962.5,-665 847.5,-665 847.5,-602 962.5,-602 962.5,-665"/>
<text text-anchor="middle" x="905" y="-653" font-family="Cascadia Code PL" font-size="10.00" fill="cyan">Animated Logo</text>
<text text-anchor="middle" x="905" y="-642" font-family="Cascadia Code PL" font-size="10.00" fill="cyan">────────────</text>
<text text-anchor="middle" x="905" y="-631" font-family="Cascadia Code PL" font-size="10.00" fill="cyan">DRAW logo with FX</text>
<text text-anchor="middle" x="905" y="-620" font-family="Cascadia Code PL" font-size="10.00" fill="cyan">Looping animation</text>
<text text-anchor="middle" x="905" y="-609" font-family="Cascadia Code PL" font-size="10.00" fill="cyan">Driven by frameCount</text>
</g>
<!-- C2 -->
<g id="node9" class="node">
<title>C2</title>
<polygon fill="none" stroke="white" points="829,-659.5 721,-659.5 721,-607.5 829,-607.5 829,-659.5"/>
<text text-anchor="middle" x="775" y="-647.5" font-family="Cascadia Code PL" font-size="10.00" fill="cyan">Version</text>
<text text-anchor="middle" x="775" y="-636.5" font-family="Cascadia Code PL" font-size="10.00" fill="cyan">────────────</text>
<text text-anchor="middle" x="775" y="-625.5" font-family="Cascadia Code PL" font-size="10.00" fill="cyan">APP_VERSION$ from</text>
<text text-anchor="middle" x="775" y="-614.5" font-family="Cascadia Code PL" font-size="10.00" fill="cyan">_COMMON.BI</text>
</g>
<!-- C3 -->
<g id="node10" class="node">
<title>C3</title>
<polygon fill="none" stroke="white" points="702.5,-665 599.5,-665 599.5,-602 702.5,-602 702.5,-665"/>
<text text-anchor="middle" x="651" y="-653" font-family="Cascadia Code PL" font-size="10.00" fill="cyan">Credits</text>
<text text-anchor="middle" x="651" y="-642" font-family="Cascadia Code PL" font-size="10.00" fill="cyan">────────────</text>
<text text-anchor="middle" x="651" y="-631" font-family="Cascadia Code PL" font-size="10.00" fill="cyan">Author: grymmjack</text>
<text text-anchor="middle" x="651" y="-620" font-family="Cascadia Code PL" font-size="10.00" fill="cyan">(Rick Christy)</text>
<text text-anchor="middle" x="651" y="-609" font-family="Cascadia Code PL" font-size="10.00" fill="cyan">Contributors list</text>
</g>
<!-- C4 -->
<g id="node11" class="node">
<title>C4</title>
<polygon fill="none" stroke="white" points="581.5,-659.5 448.5,-659.5 448.5,-607.5 581.5,-607.5 581.5,-659.5"/>
<text text-anchor="middle" x="515" y="-647.5" font-family="Cascadia Code PL" font-size="10.00" fill="cyan">GitHub Link</text>
<text text-anchor="middle" x="515" y="-636.5" font-family="Cascadia Code PL" font-size="10.00" fill="cyan">────────────</text>
<text text-anchor="middle" x="515" y="-625.5" font-family="Cascadia Code PL" font-size="10.00" fill="cyan">Clickable URL</text>
<text text-anchor="middle" x="515" y="-614.5" font-family="Cascadia Code PL" font-size="10.00" fill="cyan">Launches default browser</text>
</g>
<!-- L1 -->
<g id="node12" class="node">
<title>L1</title>
<ellipse fill="white" stroke="white" cx="1146" cy="-633.5" rx="0.36" ry="0.36"/>
</g>
<!-- L2 -->
<g id="node13" class="node">
<title>L2</title>
<ellipse fill="white" stroke="white" cx="1146" cy="-528" rx="0.36" ry="0.36"/>
</g>
<!-- L1&#45;&gt;L2 -->
<g id="edge10" class="edge">
<title>L1&#45;&gt;L2</title>
<path fill="none" stroke="#66cc66" d="M1146,-632.42C1146,-629.91 1146,-564.64 1146,-539.1"/>
<polygon fill="#66cc66" stroke="#66cc66" points="1149.5,-539.07 1146,-529.07 1142.5,-539.07 1149.5,-539.07"/>
<text text-anchor="middle" x="1163.5" y="-576.8" font-family="Cascadia Code PL" font-size="9.00" fill="#aaaaaa"> Activate</text>
</g>
<!-- L3 -->
<g id="node14" class="node">
<title>L3</title>
<ellipse fill="white" stroke="white" cx="1070" cy="-633.5" rx="0.36" ry="0.36"/>
</g>
<!-- L4 -->
<g id="node15" class="node">
<title>L4</title>
<ellipse fill="white" stroke="white" cx="1070" cy="-528" rx="0.36" ry="0.36"/>
</g>
<!-- L3&#45;&gt;L4 -->
<g id="edge11" class="edge">
<title>L3&#45;&gt;L4</title>
<path fill="none" stroke="#cc6666" stroke-dasharray="5,2" d="M1070,-632.42C1070,-629.91 1070,-564.64 1070,-539.1"/>
<polygon fill="#cc6666" stroke="#cc6666" points="1073.5,-539.07 1070,-529.07 1066.5,-539.07 1073.5,-539.07"/>
<text text-anchor="middle" x="1096.5" y="-576.8" font-family="Cascadia Code PL" font-size="9.00" fill="#aaaaaa"> Close / Reset</text>
</g>
<!-- L5 -->
<g id="node16" class="node">
<title>L5</title>
<ellipse fill="white" stroke="white" cx="1005" cy="-633.5" rx="0.36" ry="0.36"/>
</g>
<!-- L6 -->
<g id="node17" class="node">
<title>L6</title>
<ellipse fill="white" stroke="white" cx="1005" cy="-528" rx="0.36" ry="0.36"/>
</g>
<!-- L5&#45;&gt;L6 -->
<g id="edge12" class="edge">
<title>L5&#45;&gt;L6</title>
<path fill="none" stroke="#cccc66" d="M1005,-632.42C1005,-629.91 1005,-564.64 1005,-539.1"/>
<polygon fill="#cccc66" stroke="#cccc66" points="1008.5,-539.07 1005,-529.07 1001.5,-539.07 1008.5,-539.07"/>
<text text-anchor="middle" x="1026" y="-576.8" font-family="Cascadia Code PL" font-size="9.00" fill="#aaaaaa"> Transition</text>
</g>
</g>
</svg>
