<?xml version="1.0" encoding="UTF-8" standalone="no"?>
<!DOCTYPE svg PUBLIC "-//W3C//DTD SVG 1.1//EN"
 "http://www.w3.org/Graphics/SVG/1.1/DTD/svg11.dtd">
<!-- Generated by graphviz version 14.1.2 (20260124.0452)
 -->
<!-- Title: CHARMAP Pages: 1 -->
<svg width="2769pt" height="618pt"
 viewBox="0.00 0.00 2769.00 618.00" xmlns="http://www.w3.org/2000/svg" xmlns:xlink="http://www.w3.org/1999/xlink">
<g id="graph0" class="graph" transform="scale(1 1) rotate(0) translate(4 613.88)">
<title>CHARMAP</title>
<text xml:space="preserve" text-anchor="middle" x="1380.56" y="-583.08" font-family="Cascadia Code PL" font-size="24.00" fill="white">CHARACTER MAP STATE MACHINE</text>
<g id="clust2" class="cluster">
<title>cluster_docking</title>
<polygon fill="none" stroke="orange" stroke-dasharray="5,2" points="2264.12,-330.75 2264.12,-569.12 2563.12,-569.12 2563.12,-330.75 2264.12,-330.75"/>
<text xml:space="preserve" text-anchor="middle" x="2341.88" y="-554.67" font-family="Cascadia Code PL" font-size="11.00" fill="orange">DOCKING — LEFT / RIGHT</text>
</g>
<g id="clust3" class="cluster">
<title>cluster_bitmap</title>
<polygon fill="none" stroke="orange" stroke-dasharray="5,2" points="2571.12,-8 2571.12,-569.12 2753.12,-569.12 2753.12,-8 2571.12,-8"/>
<text xml:space="preserve" text-anchor="middle" x="2642.5" y="-554.67" font-family="Cascadia Code PL" font-size="11.00" fill="orange">BITMAP FONT LOADING</text>
</g>
<!-- MAIN -->
<g id="node1" class="node">
<title>MAIN</title>
<polygon fill="none" stroke="orange" stroke-width="2" points="102.25,-527 99.25,-531 78.25,-531 75.25,-527 0,-527 0,-491 102.25,-491 102.25,-527"/>
<text xml:space="preserve" text-anchor="middle" x="51.12" y="-503.4" font-family="Cascadia Code PL" font-size="13.00" fill="orange">MAIN STATES</text>
</g>
<!-- CELL -->
<g id="node2" class="node">
<title>CELL</title>
<polygon fill="none" stroke="orange" stroke-width="2" points="263.5,-527 260.5,-531 239.5,-531 236.5,-527 120.75,-527 120.75,-491 263.5,-491 263.5,-527"/>
<text xml:space="preserve" text-anchor="middle" x="192.12" y="-503.4" font-family="Cascadia Code PL" font-size="13.00" fill="orange">CELL INTERACTION</text>
</g>
<!-- USE_CHARS -->
<g id="node3" class="node">
<title>USE_CHARS</title>
<polygon fill="none" stroke="orange" stroke-width="2" points="418.88,-527 415.88,-531 394.88,-531 391.88,-527 281.38,-527 281.38,-491 418.88,-491 418.88,-527"/>
<text xml:space="preserve" text-anchor="middle" x="350.12" y="-503.4" font-family="Cascadia Code PL" font-size="13.00" fill="orange">USE CHARS MODE</text>
</g>
<!-- CHAR_GRID -->
<g id="node4" class="node">
<title>CHAR_GRID</title>
<polygon fill="none" stroke="orange" stroke-width="2" points="573.5,-527 570.5,-531 549.5,-531 546.5,-527 436.75,-527 436.75,-491 573.5,-491 573.5,-527"/>
<text xml:space="preserve" text-anchor="middle" x="505.12" y="-503.4" font-family="Cascadia Code PL" font-size="13.00" fill="orange">CHARACTER GRID</text>
</g>
<!-- DOCK -->
<g id="node5" class="node">
<title>DOCK</title>
<polygon fill="none" stroke="orange" stroke-width="2" points="668.88,-527 665.88,-531 644.88,-531 641.88,-527 591.38,-527 591.38,-491 668.88,-491 668.88,-527"/>
<text xml:space="preserve" text-anchor="middle" x="630.12" y="-503.4" font-family="Cascadia Code PL" font-size="13.00" fill="orange">DOCKING</text>
</g>
<!-- BITMAP -->
<g id="node6" class="node">
<title>BITMAP</title>
<polygon fill="none" stroke="orange" stroke-width="2" points="853.5,-527 850.5,-531 829.5,-531 826.5,-527 686.75,-527 686.75,-491 853.5,-491 853.5,-527"/>
<text xml:space="preserve" text-anchor="middle" x="770.12" y="-503.4" font-family="Cascadia Code PL" font-size="13.00" fill="orange">BITMAP FONT LOADING</text>
</g>
<!-- S_HIDDEN -->
<g id="node7" class="node">
<title>S_HIDDEN</title>
<polygon fill="none" stroke="white" points="1078.75,-543 871.5,-543 871.5,-475 1078.75,-475 1078.75,-543"/>
<text xml:space="preserve" text-anchor="middle" x="975.12" y="-528.55" font-family="Cascadia Code PL" font-size="11.00" fill="cyan">1 · HIDDEN</text>
<text xml:space="preserve" text-anchor="middle" x="975.12" y="-516.55" font-family="Cascadia Code PL" font-size="11.00" fill="cyan">─────────────────</text>
<text xml:space="preserve" text-anchor="middle" x="975.12" y="-504.55" font-family="Cascadia Code PL" font-size="11.00" fill="cyan">SCRN.showCharMap% = FALSE</text>
<text xml:space="preserve" text-anchor="middle" x="975.12" y="-492.55" font-family="Cascadia Code PL" font-size="11.00" fill="cyan">ManuallyHidden% = TRUE</text>
<text xml:space="preserve" text-anchor="middle" x="975.12" y="-480.55" font-family="Cascadia Code PL" font-size="11.00" fill="cyan">Panel not rendered</text>
</g>
<!-- S_VISIBLE -->
<g id="node8" class="node">
<title>S_VISIBLE</title>
<polygon fill="none" stroke="white" points="1078.75,-410.88 871.5,-410.88 871.5,-330.88 1078.75,-330.88 1078.75,-410.88"/>
<text xml:space="preserve" text-anchor="middle" x="975.12" y="-396.43" font-family="Cascadia Code PL" font-size="11.00" fill="cyan">2 · VISIBLE</text>
<text xml:space="preserve" text-anchor="middle" x="975.12" y="-384.43" font-family="Cascadia Code PL" font-size="11.00" fill="cyan">─────────────────</text>
<text xml:space="preserve" text-anchor="middle" x="975.12" y="-372.43" font-family="Cascadia Code PL" font-size="11.00" fill="cyan">SCRN.showCharMap% = TRUE</text>
<text xml:space="preserve" text-anchor="middle" x="975.12" y="-360.43" font-family="Cascadia Code PL" font-size="11.00" fill="cyan">16×16 glyph grid shown</text>
<text xml:space="preserve" text-anchor="middle" x="975.12" y="-348.43" font-family="Cascadia Code PL" font-size="11.00" fill="cyan">Docked LEFT or RIGHT</text>
<text xml:space="preserve" text-anchor="middle" x="975.12" y="-336.43" font-family="Cascadia Code PL" font-size="11.00" fill="cyan">Glyph cache built</text>
</g>
<!-- S_HIDDEN&#45;&gt;S_VISIBLE -->
<g id="edge1" class="edge">
<title>S_HIDDEN&#45;&gt;S_VISIBLE</title>
<path fill="none" stroke="#66cc66" d="M871.01,-475.27C858.5,-469.44 848.64,-463.24 844.38,-457 831.25,-437.79 841.65,-421.89 861.27,-409.24"/>
<polygon fill="#66cc66" stroke="#66cc66" points="863.02,-412.27 869.92,-404.23 859.51,-406.21 863.02,-412.27"/>
<text xml:space="preserve" text-anchor="middle" x="898.75" y="-447.7" font-family="Cascadia Code PL" font-size="9.00" fill="#aaaaaa"> &#160;Ctrl+M / Menu toggle</text>
<text xml:space="preserve" text-anchor="middle" x="898.75" y="-437.95" font-family="Cascadia Code PL" font-size="9.00" fill="#aaaaaa"> &#160;or [USE CHARS] enabled</text>
</g>
<!-- S_HIDDEN&#45;&gt;S_VISIBLE -->
<g id="edge5" class="edge">
<title>S_HIDDEN&#45;&gt;S_VISIBLE</title>
<path fill="none" stroke="#88aacc" stroke-dasharray="1,5" d="M1050.29,-474.69C1056.12,-469.54 1061.24,-463.67 1065.12,-457 1073.05,-443.39 1069.08,-430.61 1059.37,-419.28"/>
<polygon fill="#88aacc" stroke="#88aacc" points="1062,-416.96 1052.45,-412.37 1057.05,-421.91 1062,-416.96"/>
<text xml:space="preserve" text-anchor="middle" x="1094.09" y="-447.7" font-family="Cascadia Code PL" font-size="9.00" fill="#aaaaaa"> &#160;F11 restore</text>
<text xml:space="preserve" text-anchor="middle" x="1094.09" y="-437.95" font-family="Cascadia Code PL" font-size="9.00" fill="#aaaaaa"> &#160;(toggle&#45;all)</text>
</g>
<!-- S_VISIBLE&#45;&gt;S_HIDDEN -->
<g id="edge2" class="edge">
<title>S_VISIBLE&#45;&gt;S_HIDDEN</title>
<path fill="none" stroke="#cc6666" stroke-dasharray="5,2" d="M975.12,-411.11C975.12,-427.47 975.12,-446.54 975.12,-463.43"/>
<polygon fill="#cc6666" stroke="#cc6666" points="971.63,-463.19 975.13,-473.19 978.63,-463.19 971.63,-463.19"/>
<text xml:space="preserve" text-anchor="middle" x="1019.75" y="-442.82" font-family="Cascadia Code PL" font-size="9.00" fill="#aaaaaa"> &#160;Ctrl+M / Menu toggle</text>
</g>
<!-- S_CACHE_STALE -->
<g id="node9" class="node">
<title>S_CACHE_STALE</title>
<polygon fill="none" stroke="white" points="1105.75,-243.12 898.5,-243.12 898.5,-175.12 1105.75,-175.12 1105.75,-243.12"/>
<text xml:space="preserve" text-anchor="middle" x="1002.12" y="-228.68" font-family="Cascadia Code PL" font-size="11.00" fill="cyan">3 · CACHE STALE</text>
<text xml:space="preserve" text-anchor="middle" x="1002.12" y="-216.68" font-family="Cascadia Code PL" font-size="11.00" fill="cyan">─────────────────</text>
<text xml:space="preserve" text-anchor="middle" x="1002.12" y="-204.68" font-family="Cascadia Code PL" font-size="11.00" fill="cyan">cacheValid% = FALSE</text>
<text xml:space="preserve" text-anchor="middle" x="1002.12" y="-192.68" font-family="Cascadia Code PL" font-size="11.00" fill="cyan">Font or size changed</text>
<text xml:space="preserve" text-anchor="middle" x="1002.12" y="-180.68" font-family="Cascadia Code PL" font-size="11.00" fill="cyan">Rebuild on next render</text>
</g>
<!-- S_VISIBLE&#45;&gt;S_CACHE_STALE -->
<g id="edge3" class="edge">
<title>S_VISIBLE&#45;&gt;S_CACHE_STALE</title>
<path fill="none" stroke="#cccc66" d="M961.48,-330.47C958.4,-316.41 956.99,-300.53 960.62,-286.25 963.47,-275.09 968.32,-263.8 973.72,-253.46"/>
<polygon fill="#cccc66" stroke="#cccc66" points="976.74,-255.24 978.52,-244.8 970.61,-251.85 976.74,-255.24"/>
<text xml:space="preserve" text-anchor="middle" x="1000.38" y="-297.2" font-family="Cascadia Code PL" font-size="9.00" fill="#aaaaaa"> &#160;Font/size changed</text>
<text xml:space="preserve" text-anchor="middle" x="1000.38" y="-287.45" font-family="Cascadia Code PL" font-size="9.00" fill="#aaaaaa"> &#160;in TEXT BAR</text>
</g>
<!-- S_CACHE_STALE&#45;&gt;S_VISIBLE -->
<g id="edge4" class="edge">
<title>S_CACHE_STALE&#45;&gt;S_VISIBLE</title>
<path fill="none" stroke="#66cc66" d="M1028.56,-243.43C1039.88,-261.87 1048.74,-285.15 1040.12,-305.75 1037.79,-311.33 1034.71,-316.66 1031.16,-321.71"/>
<polygon fill="#66cc66" stroke="#66cc66" points="1028.65,-319.24 1025.25,-329.27 1034.17,-323.55 1028.65,-319.24"/>
<text xml:space="preserve" text-anchor="middle" x="1100.58" y="-297.2" font-family="Cascadia Code PL" font-size="9.00" fill="#aaaaaa"> &#160;CHARMAP_rebuild_cache</text>
<text xml:space="preserve" text-anchor="middle" x="1100.58" y="-287.45" font-family="Cascadia Code PL" font-size="9.00" fill="#aaaaaa"> &#160;(or _bitmap variant)</text>
</g>
<!-- C_IDLE -->
<g id="node10" class="node">
<title>C_IDLE</title>
<polygon fill="none" stroke="white" points="1468.75,-543 1261.5,-543 1261.5,-475 1468.75,-475 1468.75,-543"/>
<text xml:space="preserve" text-anchor="middle" x="1365.12" y="-528.55" font-family="Cascadia Code PL" font-size="11.00" fill="cyan">4 · NO SELECTION</text>
<text xml:space="preserve" text-anchor="middle" x="1365.12" y="-516.55" font-family="Cascadia Code PL" font-size="11.00" fill="cyan">─────────────────</text>
<text xml:space="preserve" text-anchor="middle" x="1365.12" y="-504.55" font-family="Cascadia Code PL" font-size="11.00" fill="cyan">selectedIdx% = &#45;1</text>
<text xml:space="preserve" text-anchor="middle" x="1365.12" y="-492.55" font-family="Cascadia Code PL" font-size="11.00" fill="cyan">hoverIdx% = &#45;1</text>
<text xml:space="preserve" text-anchor="middle" x="1365.12" y="-480.55" font-family="Cascadia Code PL" font-size="11.00" fill="cyan">Cells show default colors</text>
</g>
<!-- C_HOVER -->
<g id="node11" class="node">
<title>C_HOVER</title>
<polygon fill="none" stroke="white" points="1365.75,-404.88 1158.5,-404.88 1158.5,-336.88 1365.75,-336.88 1365.75,-404.88"/>
<text xml:space="preserve" text-anchor="middle" x="1262.12" y="-390.43" font-family="Cascadia Code PL" font-size="11.00" fill="cyan">5 · CELL HOVER</text>
<text xml:space="preserve" text-anchor="middle" x="1262.12" y="-378.43" font-family="Cascadia Code PL" font-size="11.00" fill="cyan">─────────────────</text>
<text xml:space="preserve" text-anchor="middle" x="1262.12" y="-366.43" font-family="Cascadia Code PL" font-size="11.00" fill="cyan">hoverIdx% = 0..255</text>
<text xml:space="preserve" text-anchor="middle" x="1262.12" y="-354.43" font-family="Cascadia Code PL" font-size="11.00" fill="cyan">Hover BG/FG highlight</text>
<text xml:space="preserve" text-anchor="middle" x="1262.12" y="-342.43" font-family="Cascadia Code PL" font-size="11.00" fill="cyan">Tooltip: char code</text>
</g>
<!-- C_IDLE&#45;&gt;C_HOVER -->
<g id="edge6" class="edge">
<title>C_IDLE&#45;&gt;C_HOVER</title>
<path fill="none" stroke="#88aacc" d="M1261.11,-487.89C1230.55,-479.74 1202.82,-469.33 1193.62,-457 1182.72,-442.38 1189.67,-426.74 1202.59,-412.9"/>
<polygon fill="#88aacc" stroke="#88aacc" points="1204.95,-415.5 1209.72,-406.04 1200.09,-410.46 1204.95,-415.5"/>
<text xml:space="preserve" text-anchor="middle" x="1231.88" y="-442.82" font-family="Cascadia Code PL" font-size="9.00" fill="#aaaaaa"> &#160;Mouse enters cell</text>
</g>
<!-- C_FLASH -->
<g id="node13" class="node">
<title>C_FLASH</title>
<polygon fill="none" stroke="white" points="1455.75,-94.5 1248.5,-94.5 1248.5,-14.5 1455.75,-14.5 1455.75,-94.5"/>
<text xml:space="preserve" text-anchor="middle" x="1352.12" y="-80.05" font-family="Cascadia Code PL" font-size="11.00" fill="cyan">7 · CELL FLASH</text>
<text xml:space="preserve" text-anchor="middle" x="1352.12" y="-68.05" font-family="Cascadia Code PL" font-size="11.00" fill="cyan">─────────────────</text>
<text xml:space="preserve" text-anchor="middle" x="1352.12" y="-56.05" font-family="Cascadia Code PL" font-size="11.00" fill="cyan">flashIdx% = 0..255</text>
<text xml:space="preserve" text-anchor="middle" x="1352.12" y="-44.05" font-family="Cascadia Code PL" font-size="11.00" fill="cyan">Flash FG color (0.3s)</text>
<text xml:space="preserve" text-anchor="middle" x="1352.12" y="-32.05" font-family="Cascadia Code PL" font-size="11.00" fill="cyan">Triggered by typing</text>
<text xml:space="preserve" text-anchor="middle" x="1352.12" y="-20.05" font-family="Cascadia Code PL" font-size="11.00" fill="cyan">or F&#45;key ANSI insert</text>
</g>
<!-- C_IDLE&#45;&gt;C_FLASH -->
<g id="edge13" class="edge">
<title>C_IDLE&#45;&gt;C_FLASH</title>
<path fill="none" stroke="#cc88ff" d="M1421.5,-474.54C1441.24,-459.8 1461.39,-440.65 1473.12,-418 1527.97,-312.13 1539.81,-255.95 1485.12,-150 1475.22,-130.82 1459.43,-114.68 1442.13,-101.48"/>
<polygon fill="#cc88ff" stroke="#cc88ff" points="1444.34,-98.76 1434.19,-95.73 1440.24,-104.43 1444.34,-98.76"/>
<text xml:space="preserve" text-anchor="middle" x="1562.26" y="-297.2" font-family="Cascadia Code PL" font-size="9.00" fill="#aaaaaa"> &#160;Typing (Use Chars)</text>
<text xml:space="preserve" text-anchor="middle" x="1562.26" y="-287.45" font-family="Cascadia Code PL" font-size="9.00" fill="#aaaaaa"> &#160;syncs selectedIdx%</text>
</g>
<!-- C_HOVER&#45;&gt;C_IDLE -->
<g id="edge7" class="edge">
<title>C_HOVER&#45;&gt;C_IDLE</title>
<path fill="none" stroke="#cc6666" stroke-dasharray="5,2" d="M1269.5,-405.29C1274.37,-422.01 1282.04,-441.85 1293.62,-457 1296.31,-460.51 1299.3,-463.88 1302.5,-467.1"/>
<polygon fill="#cc6666" stroke="#cc6666" points="1299.97,-469.53 1309.7,-473.74 1304.72,-464.38 1299.97,-469.53"/>
<text xml:space="preserve" text-anchor="middle" x="1340.88" y="-442.82" font-family="Cascadia Code PL" font-size="9.00" fill="#aaaaaa"> &#160;Mouse leaves all cells</text>
</g>
<!-- C_SELECTED -->
<g id="node12" class="node">
<title>C_SELECTED</title>
<polygon fill="none" stroke="white" points="1373.75,-244.25 1166.5,-244.25 1166.5,-174 1373.75,-174 1373.75,-244.25"/>
<text xml:space="preserve" text-anchor="middle" x="1270.12" y="-229.8" font-family="Cascadia Code PL" font-size="11.00" fill="cyan">6 · CELL SELECTED</text>
<text xml:space="preserve" text-anchor="middle" x="1270.12" y="-217.8" font-family="Cascadia Code PL" font-size="11.00" fill="cyan">─────────────────</text>
<text xml:space="preserve" text-anchor="middle" x="1270.12" y="-205.8" font-family="Cascadia Code PL" font-size="11.00" fill="cyan">selectedIdx% = 0..255</text>
<text xml:space="preserve" text-anchor="middle" x="1270.12" y="-193.8" font-family="Cascadia Code PL" font-size="11.00" fill="cyan">Selected BG/FG highlight</text>
<text xml:space="preserve" text-anchor="middle" x="1270.12" y="-181.8" font-family="Cascadia Code PL" font-size="11.00" fill="cyan">Glyph → custom brush</text>
</g>
<!-- C_HOVER&#45;&gt;C_SELECTED -->
<g id="edge8" class="edge">
<title>C_HOVER&#45;&gt;C_SELECTED</title>
<path fill="none" stroke="#66cc66" d="M1263.8,-336.39C1264.97,-313.06 1266.54,-281.66 1267.83,-256"/>
<polygon fill="#66cc66" stroke="#66cc66" points="1271.31,-256.35 1268.32,-246.18 1264.32,-256 1271.31,-256.35"/>
<text xml:space="preserve" text-anchor="middle" x="1290.88" y="-292.32" font-family="Cascadia Code PL" font-size="9.00" fill="#aaaaaa"> &#160;L&#45;Click cell</text>
</g>
<!-- C_SELECTED&#45;&gt;C_IDLE -->
<g id="edge9" class="edge">
<title>C_SELECTED&#45;&gt;C_IDLE</title>
<path fill="none" stroke="#cc6666" stroke-dasharray="5,2" d="M1313.19,-244.72C1335.54,-265.21 1361.05,-293.12 1375.12,-323.75 1400.96,-379.99 1396.35,-418.77 1388.12,-457 1387.63,-459.3 1387.02,-461.62 1386.33,-463.94"/>
<polygon fill="#cc6666" stroke="#cc6666" points="1383.07,-462.65 1383.05,-473.24 1389.68,-464.97 1383.07,-462.65"/>
<text xml:space="preserve" text-anchor="middle" x="1431.72" y="-372.07" font-family="Cascadia Code PL" font-size="9.00" fill="#aaaaaa"> &#160;L&#45;Click same cell</text>
<text xml:space="preserve" text-anchor="middle" x="1431.72" y="-362.32" font-family="Cascadia Code PL" font-size="9.00" fill="#aaaaaa"> &#160;(deselect toggle)</text>
</g>
<!-- C_SELECTED&#45;&gt;C_SELECTED -->
<g id="edge10" class="edge">
<title>C_SELECTED&#45;&gt;C_SELECTED</title>
<path fill="none" stroke="#cccc66" d="M1373.93,-222.62C1384.79,-219.99 1391.75,-215.49 1391.75,-209.12 1391.75,-205.25 1389.17,-202.06 1384.69,-199.57"/>
<polygon fill="#cccc66" stroke="#cccc66" points="1385.94,-196.3 1375.35,-196.15 1383.54,-202.88 1385.94,-196.3"/>
<text xml:space="preserve" text-anchor="middle" x="1434.12" y="-205.45" font-family="Cascadia Code PL" font-size="9.00" fill="#aaaaaa"> &#160;L&#45;Click different cell</text>
</g>
<!-- C_SELECTED&#45;&gt;C_FLASH -->
<g id="edge11" class="edge">
<title>C_SELECTED&#45;&gt;C_FLASH</title>
<path fill="none" stroke="#cc88ff" d="M1301.88,-173.7C1312.05,-161.27 1322.6,-146.67 1330.12,-132 1334.34,-123.78 1337.85,-114.64 1340.74,-105.62"/>
<polygon fill="#cc88ff" stroke="#cc88ff" points="1344.05,-106.78 1343.54,-96.2 1337.34,-104.79 1344.05,-106.78"/>
<text xml:space="preserve" text-anchor="middle" x="1371.99" y="-123.45" font-family="Cascadia Code PL" font-size="9.00" fill="#aaaaaa"> &#160;Typing / F&#45;key</text>
<text xml:space="preserve" text-anchor="middle" x="1371.99" y="-113.7" font-family="Cascadia Code PL" font-size="9.00" fill="#aaaaaa"> &#160;(char feedback)</text>
</g>
<!-- C_FLASH&#45;&gt;C_SELECTED -->
<g id="edge12" class="edge">
<title>C_FLASH&#45;&gt;C_SELECTED</title>
<path fill="none" stroke="#88aacc" stroke-dasharray="1,5" d="M1280.01,-94.96C1274.84,-100.22 1270.32,-106.06 1266.88,-112.5 1258.8,-127.62 1257.76,-146.08 1259.4,-162.74"/>
<polygon fill="#88aacc" stroke="#88aacc" points="1255.9,-162.98 1260.71,-172.43 1262.84,-162.05 1255.9,-162.98"/>
<text xml:space="preserve" text-anchor="middle" x="1296.5" y="-123.45" font-family="Cascadia Code PL" font-size="9.00" fill="#aaaaaa"> &#160;Timer &gt; 0.3s</text>
<text xml:space="preserve" text-anchor="middle" x="1296.5" y="-113.7" font-family="Cascadia Code PL" font-size="9.00" fill="#aaaaaa"> &#160;Flash expires</text>
</g>
<!-- UC_OFF -->
<g id="node14" class="node">
<title>UC_OFF</title>
<polygon fill="none" stroke="white" points="1704.75,-543 1497.5,-543 1497.5,-475 1704.75,-475 1704.75,-543"/>
<text xml:space="preserve" text-anchor="middle" x="1601.12" y="-528.55" font-family="Cascadia Code PL" font-size="11.00" fill="cyan">8 · USE CHARS OFF</text>
<text xml:space="preserve" text-anchor="middle" x="1601.12" y="-516.55" font-family="Cascadia Code PL" font-size="11.00" fill="cyan">─────────────────</text>
<text xml:space="preserve" text-anchor="middle" x="1601.12" y="-504.55" font-family="Cascadia Code PL" font-size="11.00" fill="cyan">useChars% = FALSE</text>
<text xml:space="preserve" text-anchor="middle" x="1601.12" y="-492.55" font-family="Cascadia Code PL" font-size="11.00" fill="cyan">Standard text entry</text>
<text xml:space="preserve" text-anchor="middle" x="1601.12" y="-480.55" font-family="Cascadia Code PL" font-size="11.00" fill="cyan">No char grid auto&#45;enable</text>
</g>
<!-- UC_ON -->
<g id="node15" class="node">
<title>UC_ON</title>
<polygon fill="none" stroke="white" points="1764.75,-418 1557.5,-418 1557.5,-323.75 1764.75,-323.75 1764.75,-418"/>
<text xml:space="preserve" text-anchor="middle" x="1661.12" y="-403.55" font-family="Cascadia Code PL" font-size="11.00" fill="cyan">9 · USE CHARS ON</text>
<text xml:space="preserve" text-anchor="middle" x="1661.12" y="-391.55" font-family="Cascadia Code PL" font-size="11.00" fill="cyan">─────────────────</text>
<text xml:space="preserve" text-anchor="middle" x="1661.12" y="-379.55" font-family="Cascadia Code PL" font-size="11.00" fill="cyan">useChars% = TRUE</text>
<text xml:space="preserve" text-anchor="middle" x="1661.12" y="-367.55" font-family="Cascadia Code PL" font-size="11.00" fill="cyan">Char mode active</text>
<text xml:space="preserve" text-anchor="middle" x="1661.12" y="-355.55" font-family="Cascadia Code PL" font-size="11.00" fill="cyan">CharMap auto&#45;shown</text>
<text xml:space="preserve" text-anchor="middle" x="1661.12" y="-343.55" font-family="Cascadia Code PL" font-size="11.00" fill="cyan">Brush recolor enabled</text>
<text xml:space="preserve" text-anchor="middle" x="1661.12" y="-331.55" font-family="Cascadia Code PL" font-size="11.00" fill="cyan">F&#45;keys → ANSI chars</text>
</g>
<!-- UC_OFF&#45;&gt;UC_ON -->
<g id="edge14" class="edge">
<title>UC_OFF&#45;&gt;UC_ON</title>
<path fill="none" stroke="#66cc66" d="M1570.42,-474.83C1562.75,-462.55 1558.4,-448.57 1565.12,-436 1566.77,-432.92 1568.64,-429.96 1570.69,-427.12"/>
<polygon fill="#66cc66" stroke="#66cc66" points="1573.21,-429.57 1576.86,-419.62 1567.8,-425.12 1573.21,-429.57"/>
<text xml:space="preserve" text-anchor="middle" x="1610.12" y="-447.7" font-family="Cascadia Code PL" font-size="9.00" fill="#aaaaaa"> &#160;[USE CHARS] button</text>
<text xml:space="preserve" text-anchor="middle" x="1610.12" y="-437.95" font-family="Cascadia Code PL" font-size="9.00" fill="#aaaaaa"> &#160;in Text Bar</text>
</g>
<!-- UC_ON&#45;&gt;UC_OFF -->
<g id="edge15" class="edge">
<title>UC_ON&#45;&gt;UC_OFF</title>
<path fill="none" stroke="#cc6666" stroke-dasharray="5,2" d="M1664,-418.07C1663.21,-431.16 1660.77,-445.08 1655.12,-457 1653.73,-459.95 1652.08,-462.82 1650.24,-465.58"/>
<polygon fill="#cc6666" stroke="#cc6666" points="1647.56,-463.33 1644.28,-473.4 1653.13,-467.57 1647.56,-463.33"/>
<text xml:space="preserve" text-anchor="middle" x="1706.53" y="-447.7" font-family="Cascadia Code PL" font-size="9.00" fill="#aaaaaa"> &#160;[USE CHARS] button</text>
<text xml:space="preserve" text-anchor="middle" x="1706.53" y="-437.95" font-family="Cascadia Code PL" font-size="9.00" fill="#aaaaaa"> &#160;in Text Bar</text>
</g>
<!-- UC_FKEYS -->
<g id="node16" class="node">
<title>UC_FKEYS</title>
<polygon fill="none" stroke="white" points="1793.75,-268.25 1586.5,-268.25 1586.5,-150 1793.75,-150 1793.75,-268.25"/>
<text xml:space="preserve" text-anchor="middle" x="1690.12" y="-253.8" font-family="Cascadia Code PL" font-size="11.00" fill="cyan">10 · F&#45;KEY INSERT</text>
<text xml:space="preserve" text-anchor="middle" x="1690.12" y="-241.8" font-family="Cascadia Code PL" font-size="11.00" fill="cyan">─────────────────</text>
<text xml:space="preserve" text-anchor="middle" x="1690.12" y="-229.8" font-family="Cascadia Code PL" font-size="11.00" fill="cyan">F1→176 ░ &#160;F2→177 ▒</text>
<text xml:space="preserve" text-anchor="middle" x="1690.12" y="-214.8" font-family="Cascadia Code PL" font-size="11.00" fill="cyan">F3→178 ▓ &#160;F4→219 █</text>
<text xml:space="preserve" text-anchor="middle" x="1690.12" y="-200.55" font-family="Cascadia Code PL" font-size="11.00" fill="cyan">F5→223 ▀ &#160;F6→220 ▄</text>
<text xml:space="preserve" text-anchor="middle" x="1690.12" y="-186.3" font-family="Cascadia Code PL" font-size="11.00" fill="cyan">F7→221 ▌ &#160;F8→222 ▐</text>
<text xml:space="preserve" text-anchor="middle" x="1690.12" y="-172.05" font-family="Cascadia Code PL" font-size="11.00" fill="cyan">F9→254 ■ &#160;F10→250 ·</text>
<text xml:space="preserve" text-anchor="middle" x="1690.12" y="-157.8" font-family="Cascadia Code PL" font-size="11.00" fill="cyan">F11,F12→32 (space)</text>
</g>
<!-- UC_ON&#45;&gt;UC_FKEYS -->
<g id="edge16" class="edge">
<title>UC_ON&#45;&gt;UC_FKEYS</title>
<path fill="none" stroke="#cc88ff" d="M1644.73,-323.57C1642.45,-311.35 1641.85,-298.23 1645.12,-286.25 1645.78,-283.84 1646.54,-281.44 1647.38,-279.04"/>
<polygon fill="#cc88ff" stroke="#cc88ff" points="1650.52,-280.6 1650.98,-270.01 1644.02,-278 1650.52,-280.6"/>
<text xml:space="preserve" text-anchor="middle" x="1679.62" y="-297.2" font-family="Cascadia Code PL" font-size="9.00" fill="#aaaaaa"> &#160;F1&#45;F12 pressed</text>
<text xml:space="preserve" text-anchor="middle" x="1679.62" y="-287.45" font-family="Cascadia Code PL" font-size="9.00" fill="#aaaaaa"> &#160;(text tool active)</text>
</g>
<!-- UC_FKEYS&#45;&gt;UC_ON -->
<g id="edge17" class="edge">
<title>UC_FKEYS&#45;&gt;UC_ON</title>
<path fill="none" stroke="#88aacc" d="M1715.82,-268.58C1718.22,-280.99 1718.38,-293.91 1714.12,-305.75 1713.16,-308.43 1712.03,-311.07 1710.77,-313.67"/>
<polygon fill="#88aacc" stroke="#88aacc" points="1707.86,-311.7 1706.04,-322.14 1713.97,-315.12 1707.86,-311.7"/>
<text xml:space="preserve" text-anchor="middle" x="1751.2" y="-297.2" font-family="Cascadia Code PL" font-size="9.00" fill="#aaaaaa"> &#160;Char inserted +</text>
<text xml:space="preserve" text-anchor="middle" x="1751.2" y="-287.45" font-family="Cascadia Code PL" font-size="9.00" fill="#aaaaaa"> &#160;flash on map</text>
</g>
<!-- CG_OFF -->
<g id="node17" class="node">
<title>CG_OFF</title>
<polygon fill="none" stroke="white" points="1967.75,-537 1760.5,-537 1760.5,-481 1967.75,-481 1967.75,-537"/>
<text xml:space="preserve" text-anchor="middle" x="1864.12" y="-522.55" font-family="Cascadia Code PL" font-size="11.00" fill="cyan">11 · CHAR GRID OFF</text>
<text xml:space="preserve" text-anchor="middle" x="1864.12" y="-510.55" font-family="Cascadia Code PL" font-size="11.00" fill="cyan">─────────────────</text>
<text xml:space="preserve" text-anchor="middle" x="1864.12" y="-498.55" font-family="Cascadia Code PL" font-size="11.00" fill="cyan">charGridShow% = FALSE</text>
<text xml:space="preserve" text-anchor="middle" x="1864.12" y="-486.55" font-family="Cascadia Code PL" font-size="11.00" fill="cyan">No overlay on canvas</text>
</g>
<!-- CG_ON -->
<g id="node18" class="node">
<title>CG_ON</title>
<polygon fill="none" stroke="white" points="2005.75,-404.88 1798.5,-404.88 1798.5,-336.88 2005.75,-336.88 2005.75,-404.88"/>
<text xml:space="preserve" text-anchor="middle" x="1902.12" y="-390.43" font-family="Cascadia Code PL" font-size="11.00" fill="cyan">12 · CHAR GRID ON</text>
<text xml:space="preserve" text-anchor="middle" x="1902.12" y="-378.43" font-family="Cascadia Code PL" font-size="11.00" fill="cyan">─────────────────</text>
<text xml:space="preserve" text-anchor="middle" x="1902.12" y="-366.43" font-family="Cascadia Code PL" font-size="11.00" fill="cyan">charGridShow% = TRUE</text>
<text xml:space="preserve" text-anchor="middle" x="1902.12" y="-354.43" font-family="Cascadia Code PL" font-size="11.00" fill="cyan">Grid lines on canvas</text>
<text xml:space="preserve" text-anchor="middle" x="1902.12" y="-342.43" font-family="Cascadia Code PL" font-size="11.00" fill="cyan">Cell W×H from font</text>
</g>
<!-- CG_OFF&#45;&gt;CG_ON -->
<g id="edge18" class="edge">
<title>CG_OFF&#45;&gt;CG_ON</title>
<path fill="none" stroke="#66cc66" d="M1809.79,-480.69C1792.99,-468.38 1781.15,-452.83 1790.88,-436 1796.08,-427 1803.07,-419.15 1811.04,-412.33"/>
<polygon fill="#66cc66" stroke="#66cc66" points="1813.1,-415.17 1818.83,-406.26 1808.79,-409.64 1813.1,-415.17"/>
<text xml:space="preserve" text-anchor="middle" x="1835.5" y="-443.57" font-family="Cascadia Code PL" font-size="9.00" fill="#aaaaaa"> &#160;View → CHAR GRID</text>
</g>
<!-- CG_ON&#45;&gt;CG_OFF -->
<g id="edge19" class="edge">
<title>CG_ON&#45;&gt;CG_OFF</title>
<path fill="none" stroke="#cc6666" stroke-dasharray="5,2" d="M1893.95,-405.13C1889.97,-420.9 1884.99,-439.98 1880.12,-457 1878.93,-461.2 1877.63,-465.57 1876.31,-469.92"/>
<polygon fill="#cc6666" stroke="#cc6666" points="1873.08,-468.52 1873.47,-479.1 1879.76,-470.58 1873.08,-468.52"/>
<text xml:space="preserve" text-anchor="middle" x="1930.53" y="-443.57" font-family="Cascadia Code PL" font-size="9.00" fill="#aaaaaa"> &#160;View → CHAR GRID</text>
</g>
<!-- CG_SNAP_OFF -->
<g id="node19" class="node">
<title>CG_SNAP_OFF</title>
<polygon fill="none" stroke="white" points="2224.75,-537 2017.5,-537 2017.5,-481 2224.75,-481 2224.75,-537"/>
<text xml:space="preserve" text-anchor="middle" x="2121.12" y="-522.55" font-family="Cascadia Code PL" font-size="11.00" fill="cyan">13 · SNAP OFF</text>
<text xml:space="preserve" text-anchor="middle" x="2121.12" y="-510.55" font-family="Cascadia Code PL" font-size="11.00" fill="cyan">─────────────────</text>
<text xml:space="preserve" text-anchor="middle" x="2121.12" y="-498.55" font-family="Cascadia Code PL" font-size="11.00" fill="cyan">charGridSnap% = FALSE</text>
<text xml:space="preserve" text-anchor="middle" x="2121.12" y="-486.55" font-family="Cascadia Code PL" font-size="11.00" fill="cyan">Free cursor movement</text>
</g>
<!-- CG_SNAP_ON -->
<g id="node20" class="node">
<title>CG_SNAP_ON</title>
<polygon fill="none" stroke="white" points="2230.75,-404.88 2023.5,-404.88 2023.5,-336.88 2230.75,-336.88 2230.75,-404.88"/>
<text xml:space="preserve" text-anchor="middle" x="2127.12" y="-390.43" font-family="Cascadia Code PL" font-size="11.00" fill="cyan">14 · SNAP ON</text>
<text xml:space="preserve" text-anchor="middle" x="2127.12" y="-378.43" font-family="Cascadia Code PL" font-size="11.00" fill="cyan">─────────────────</text>
<text xml:space="preserve" text-anchor="middle" x="2127.12" y="-366.43" font-family="Cascadia Code PL" font-size="11.00" fill="cyan">charGridSnap% = TRUE</text>
<text xml:space="preserve" text-anchor="middle" x="2127.12" y="-354.43" font-family="Cascadia Code PL" font-size="11.00" fill="cyan">Cursor snaps to</text>
<text xml:space="preserve" text-anchor="middle" x="2127.12" y="-342.43" font-family="Cascadia Code PL" font-size="11.00" fill="cyan">char cell boundaries</text>
</g>
<!-- CG_SNAP_OFF&#45;&gt;CG_SNAP_ON -->
<g id="edge20" class="edge">
<title>CG_SNAP_OFF&#45;&gt;CG_SNAP_ON</title>
<path fill="none" stroke="#66cc66" d="M2060.34,-480.83C2043,-468.94 2030.94,-453.66 2039.88,-436 2044.21,-427.44 2050.28,-419.75 2057.22,-412.91"/>
<polygon fill="#66cc66" stroke="#66cc66" points="2059.5,-415.57 2064.6,-406.29 2054.82,-410.36 2059.5,-415.57"/>
<text xml:space="preserve" text-anchor="middle" x="2078.5" y="-448.45" font-family="Cascadia Code PL" font-size="9.00" fill="#aaaaaa"> &#160;View → SNAP TO</text>
<text xml:space="preserve" text-anchor="middle" x="2078.5" y="-437.2" font-family="Cascadia Code PL" font-size="9.00" fill="#aaaaaa"> &#160;CHAR GRID</text>
</g>
<!-- CG_SNAP_ON&#45;&gt;CG_SNAP_OFF -->
<g id="edge21" class="edge">
<title>CG_SNAP_ON&#45;&gt;CG_SNAP_OFF</title>
<path fill="none" stroke="#cc6666" stroke-dasharray="5,2" d="M2125.65,-405.31C2124.8,-424.71 2123.72,-449.23 2122.82,-469.45"/>
<polygon fill="#cc6666" stroke="#cc6666" points="2119.34,-469.12 2122.39,-479.27 2126.33,-469.43 2119.34,-469.12"/>
<text xml:space="preserve" text-anchor="middle" x="2162.75" y="-448.45" font-family="Cascadia Code PL" font-size="9.00" fill="#aaaaaa"> &#160;View → SNAP TO</text>
<text xml:space="preserve" text-anchor="middle" x="2162.75" y="-437.2" font-family="Cascadia Code PL" font-size="9.00" fill="#aaaaaa"> &#160;CHAR GRID</text>
</g>
<!-- D_LEFT -->
<g id="node21" class="node">
<title>D_LEFT</title>
<polygon fill="none" stroke="white" points="2427.12,-541.12 2291.12,-541.12 2291.12,-476.88 2427.12,-476.88 2427.12,-541.12"/>
<text xml:space="preserve" text-anchor="middle" x="2359.12" y="-527.62" font-family="Cascadia Code PL" font-size="10.00" fill="cyan">Docked Left</text>
<text xml:space="preserve" text-anchor="middle" x="2359.12" y="-516.38" font-family="Cascadia Code PL" font-size="10.00" fill="cyan">────────────</text>
<text xml:space="preserve" text-anchor="middle" x="2359.12" y="-505.12" font-family="Cascadia Code PL" font-size="10.00" fill="cyan">dockSide% = DOCK_LEFT</text>
<text xml:space="preserve" text-anchor="middle" x="2359.12" y="-493.88" font-family="Cascadia Code PL" font-size="10.00" fill="cyan">Panel on left edge</text>
<text xml:space="preserve" text-anchor="middle" x="2359.12" y="-482.62" font-family="Cascadia Code PL" font-size="10.00" fill="cyan">Inside edit bar</text>
</g>
<!-- D_RIGHT -->
<g id="node22" class="node">
<title>D_RIGHT</title>
<polygon fill="none" stroke="white" points="2415.88,-403 2272.38,-403 2272.38,-338.75 2415.88,-338.75 2415.88,-403"/>
<text xml:space="preserve" text-anchor="middle" x="2344.12" y="-389.5" font-family="Cascadia Code PL" font-size="10.00" fill="cyan">Docked Right</text>
<text xml:space="preserve" text-anchor="middle" x="2344.12" y="-378.25" font-family="Cascadia Code PL" font-size="10.00" fill="cyan">────────────</text>
<text xml:space="preserve" text-anchor="middle" x="2344.12" y="-367" font-family="Cascadia Code PL" font-size="10.00" fill="cyan">dockSide% = DOCK_RIGHT</text>
<text xml:space="preserve" text-anchor="middle" x="2344.12" y="-355.75" font-family="Cascadia Code PL" font-size="10.00" fill="cyan">Panel on right edge</text>
<text xml:space="preserve" text-anchor="middle" x="2344.12" y="-344.5" font-family="Cascadia Code PL" font-size="10.00" fill="cyan">Inside edit bar</text>
</g>
<!-- D_LEFT&#45;&gt;D_RIGHT -->
<g id="edge22" class="edge">
<title>D_LEFT&#45;&gt;D_RIGHT</title>
<path fill="none" stroke="#cccc66" d="M2306.1,-476.45C2300.18,-470.73 2294.99,-464.25 2291.38,-457 2283.86,-441.94 2289.57,-426.1 2299.58,-412.22"/>
<polygon fill="#cccc66" stroke="#cccc66" points="2302.18,-414.57 2305.73,-404.59 2296.73,-410.18 2302.18,-414.57"/>
<text xml:space="preserve" text-anchor="middle" x="2353.25" y="-443.57" font-family="Cascadia Code PL" font-size="9.00" fill="#aaaaaa"> &#160;Layout → CHAR MAP RIGHT</text>
</g>
<!-- D_RIGHT&#45;&gt;D_LEFT -->
<g id="edge23" class="edge">
<title>D_RIGHT&#45;&gt;D_LEFT</title>
<path fill="none" stroke="#cccc66" d="M2390.27,-403.23C2400.32,-412.5 2409.59,-423.55 2415.12,-436 2420.05,-447.08 2417.02,-457.97 2410.35,-467.8"/>
<polygon fill="#cccc66" stroke="#cccc66" points="2407.84,-465.34 2404.28,-475.32 2413.28,-469.74 2407.84,-465.34"/>
<text xml:space="preserve" text-anchor="middle" x="2476.43" y="-443.57" font-family="Cascadia Code PL" font-size="9.00" fill="#aaaaaa"> &#160;Layout → CHAR MAP LEFT</text>
</g>
<!-- BF_SCAN -->
<g id="node23" class="node">
<title>BF_SCAN</title>
<polygon fill="none" stroke="white" points="2742.5,-541.12 2581.75,-541.12 2581.75,-476.88 2742.5,-476.88 2742.5,-541.12"/>
<text xml:space="preserve" text-anchor="middle" x="2662.12" y="-527.62" font-family="Cascadia Code PL" font-size="10.00" fill="cyan">Font Scan</text>
<text xml:space="preserve" text-anchor="middle" x="2662.12" y="-516.38" font-family="Cascadia Code PL" font-size="10.00" fill="cyan">────────────</text>
<text xml:space="preserve" text-anchor="middle" x="2662.12" y="-505.12" font-family="Cascadia Code PL" font-size="10.00" fill="cyan">Scan ASSETS/FONTS/BITMAP/</text>
<text xml:space="preserve" text-anchor="middle" x="2662.12" y="-493.88" font-family="Cascadia Code PL" font-size="10.00" fill="cyan">Scan USER/FONTS/BITMAP/</text>
<text xml:space="preserve" text-anchor="middle" x="2662.12" y="-482.62" font-family="Cascadia Code PL" font-size="10.00" fill="cyan">Detect: F??, PSF, BDF</text>
</g>
<!-- BF_DETECT -->
<g id="node24" class="node">
<title>BF_DETECT</title>
<polygon fill="none" stroke="white" points="2734.62,-408.62 2589.62,-408.62 2589.62,-333.12 2734.62,-333.12 2734.62,-408.62"/>
<text xml:space="preserve" text-anchor="middle" x="2662.12" y="-395.12" font-family="Cascadia Code PL" font-size="10.00" fill="cyan">Format Detect</text>
<text xml:space="preserve" text-anchor="middle" x="2662.12" y="-383.88" font-family="Cascadia Code PL" font-size="10.00" fill="cyan">────────────</text>
<text xml:space="preserve" text-anchor="middle" x="2662.12" y="-372.62" font-family="Cascadia Code PL" font-size="10.00" fill="cyan">Fontraption: filesize=256*H</text>
<text xml:space="preserve" text-anchor="middle" x="2662.12" y="-361.38" font-family="Cascadia Code PL" font-size="10.00" fill="cyan">PSFv1: magic 0x36 0x04</text>
<text xml:space="preserve" text-anchor="middle" x="2662.12" y="-350.12" font-family="Cascadia Code PL" font-size="10.00" fill="cyan">PSFv2: magic 0x72 0xb5..</text>
<text xml:space="preserve" text-anchor="middle" x="2662.12" y="-338.88" font-family="Cascadia Code PL" font-size="10.00" fill="cyan">BDF: FONTBOUNDINGBOX</text>
</g>
<!-- BF_SCAN&#45;&gt;BF_DETECT -->
<g id="edge24" class="edge">
<title>BF_SCAN&#45;&gt;BF_DETECT</title>
<path fill="none" stroke="#88aacc" d="M2662.12,-476.43C2662.12,-459.78 2662.12,-438.99 2662.12,-420.35"/>
<polygon fill="#88aacc" stroke="#88aacc" points="2665.63,-420.59 2662.13,-410.59 2658.63,-420.59 2665.63,-420.59"/>
<text xml:space="preserve" text-anchor="middle" x="2678.62" y="-442.82" font-family="Cascadia Code PL" font-size="9.00" fill="#aaaaaa"> &#160;Per file</text>
</g>
<!-- BF_ADD -->
<g id="node25" class="node">
<title>BF_ADD</title>
<polygon fill="none" stroke="white" points="2728.62,-241.25 2595.62,-241.25 2595.62,-177 2728.62,-177 2728.62,-241.25"/>
<text xml:space="preserve" text-anchor="middle" x="2662.12" y="-227.75" font-family="Cascadia Code PL" font-size="10.00" fill="cyan">Add to List</text>
<text xml:space="preserve" text-anchor="middle" x="2662.12" y="-216.5" font-family="Cascadia Code PL" font-size="10.00" fill="cyan">────────────</text>
<text xml:space="preserve" text-anchor="middle" x="2662.12" y="-205.25" font-family="Cascadia Code PL" font-size="10.00" fill="cyan">isBitmapFont = TRUE</text>
<text xml:space="preserve" text-anchor="middle" x="2662.12" y="-194" font-family="Cascadia Code PL" font-size="10.00" fill="cyan">bitmapGlyphW,H set</text>
<text xml:space="preserve" text-anchor="middle" x="2662.12" y="-182.75" font-family="Cascadia Code PL" font-size="10.00" fill="cyan">Display name + WxH</text>
</g>
<!-- BF_DETECT&#45;&gt;BF_ADD -->
<g id="edge25" class="edge">
<title>BF_DETECT&#45;&gt;BF_ADD</title>
<path fill="none" stroke="#66cc66" d="M2662.12,-332.82C2662.12,-308.95 2662.12,-277.84 2662.12,-252.91"/>
<polygon fill="#66cc66" stroke="#66cc66" points="2665.63,-253.1 2662.13,-243.1 2658.63,-253.1 2665.63,-253.1"/>
<text xml:space="preserve" text-anchor="middle" x="2702.62" y="-292.32" font-family="Cascadia Code PL" font-size="9.00" fill="#aaaaaa"> &#160;Format recognized</text>
</g>
<!-- BF_RENDER -->
<g id="node26" class="node">
<title>BF_RENDER</title>
<polygon fill="none" stroke="white" points="2745.5,-93 2578.75,-93 2578.75,-16 2745.5,-16 2745.5,-93"/>
<text xml:space="preserve" text-anchor="middle" x="2662.12" y="-79.5" font-family="Cascadia Code PL" font-size="10.00" fill="cyan">Render Glyphs</text>
<text xml:space="preserve" text-anchor="middle" x="2662.12" y="-68.25" font-family="Cascadia Code PL" font-size="10.00" fill="cyan">────────────</text>
<text xml:space="preserve" text-anchor="middle" x="2662.12" y="-57" font-family="Cascadia Code PL" font-size="10.00" fill="cyan">CHARMAP_rebuild_cache_bitmap</text>
<text xml:space="preserve" text-anchor="middle" x="2662.12" y="-45.75" font-family="Cascadia Code PL" font-size="10.00" fill="cyan">Read raw binary per char</text>
<text xml:space="preserve" text-anchor="middle" x="2662.12" y="-34.5" font-family="Cascadia Code PL" font-size="10.00" fill="cyan">White pixels on transparent</text>
<text xml:space="preserve" text-anchor="middle" x="2662.12" y="-23.25" font-family="Cascadia Code PL" font-size="10.00" fill="cyan">→ CHARMAP_GLYPH(0..255)</text>
</g>
<!-- BF_ADD&#45;&gt;BF_RENDER -->
<g id="edge26" class="edge">
<title>BF_ADD&#45;&gt;BF_RENDER</title>
<path fill="none" stroke="#cccc66" d="M2662.12,-176.5C2662.12,-155.72 2662.12,-128.1 2662.12,-104.5"/>
<polygon fill="#cccc66" stroke="#cccc66" points="2665.63,-104.8 2662.13,-94.8 2658.63,-104.8 2665.63,-104.8"/>
<text xml:space="preserve" text-anchor="middle" x="2687.25" y="-123.45" font-family="Cascadia Code PL" font-size="9.00" fill="#aaaaaa"> &#160;Selected in</text>
<text xml:space="preserve" text-anchor="middle" x="2687.25" y="-113.7" font-family="Cascadia Code PL" font-size="9.00" fill="#aaaaaa"> &#160;Text Bar</text>
</g>
</g>
</svg>
