<?xml version="1.0" encoding="UTF-8" standalone="no"?>
<!DOCTYPE svg PUBLIC "-//W3C//DTD SVG 1.1//EN"
 "http://www.w3.org/Graphics/SVG/1.1/DTD/svg11.dtd">
<!-- Generated by graphviz version 2.42.4 (0)
 -->
<!-- Title: CHARMAP Pages: 1 -->
<svg width="3658pt" height="635pt"
 viewBox="0.00 0.00 3658.00 634.50" xmlns="http://www.w3.org/2000/svg" xmlns:xlink="http://www.w3.org/1999/xlink">
<g id="graph0" class="graph" transform="scale(1 1) rotate(0) translate(4 630.5)">
<title>CHARMAP</title>
<text text-anchor="middle" x="1825" y="-603.3" font-family="Cascadia Code PL" font-size="24.00" fill="white">CHARACTER MAP STATE MACHINE</text>
<g id="clust2" class="cluster">
<title>cluster_docking</title>
<polygon fill="transparent" stroke="orange" stroke-dasharray="5,2" points="2610,-327.5 2610,-584.5 2892,-584.5 2892,-327.5 2610,-327.5"/>
<text text-anchor="middle" x="2682.5" y="-571.7" font-family="Cascadia Code PL" font-size="11.00" fill="orange">DOCKING — LEFT / RIGHT</text>
</g>
<g id="clust3" class="cluster">
<title>cluster_bitmap</title>
<polygon fill="transparent" stroke="orange" stroke-dasharray="5,2" points="2900,-8 2900,-584.5 3082,-584.5 3082,-8 2900,-8"/>
<text text-anchor="middle" x="2967" y="-571.7" font-family="Cascadia Code PL" font-size="11.00" fill="orange">BITMAP FONT LOADING</text>
</g>
<!-- MAIN -->
<g id="node1" class="node">
<title>MAIN</title>
<polygon fill="none" stroke="orange" stroke-width="2" points="94,-543 91,-547 70,-547 67,-543 0,-543 0,-507 94,-507 94,-543"/>
<text text-anchor="middle" x="47" y="-521.6" font-family="Cascadia Code PL" font-size="13.00" fill="orange">MAIN STATES</text>
</g>
<!-- CELL -->
<g id="node2" class="node">
<title>CELL</title>
<polygon fill="none" stroke="orange" stroke-width="2" points="240,-543 237,-547 216,-547 213,-543 112,-543 112,-507 240,-507 240,-543"/>
<text text-anchor="middle" x="176" y="-521.6" font-family="Cascadia Code PL" font-size="13.00" fill="orange">CELL INTERACTION</text>
</g>
<!-- USE_CHARS -->
<g id="node3" class="node">
<title>USE_CHARS</title>
<polygon fill="none" stroke="orange" stroke-width="2" points="382,-543 379,-547 358,-547 355,-543 258,-543 258,-507 382,-507 382,-543"/>
<text text-anchor="middle" x="320" y="-521.6" font-family="Cascadia Code PL" font-size="13.00" fill="orange">USE CHARS MODE</text>
</g>
<!-- CHAR_GRID -->
<g id="node4" class="node">
<title>CHAR_GRID</title>
<polygon fill="none" stroke="orange" stroke-width="2" points="520,-543 517,-547 496,-547 493,-543 400,-543 400,-507 520,-507 520,-543"/>
<text text-anchor="middle" x="460" y="-521.6" font-family="Cascadia Code PL" font-size="13.00" fill="orange">CHARACTER GRID</text>
</g>
<!-- DOCK -->
<g id="node5" class="node">
<title>DOCK</title>
<polygon fill="none" stroke="orange" stroke-width="2" points="612,-543 609,-547 588,-547 585,-543 538,-543 538,-507 612,-507 612,-543"/>
<text text-anchor="middle" x="575" y="-521.6" font-family="Cascadia Code PL" font-size="13.00" fill="orange">DOCKING</text>
</g>
<!-- BITMAP -->
<g id="node6" class="node">
<title>BITMAP</title>
<polygon fill="none" stroke="orange" stroke-width="2" points="788,-543 785,-547 764,-547 761,-543 630,-543 630,-507 788,-507 788,-543"/>
<text text-anchor="middle" x="709" y="-521.6" font-family="Cascadia Code PL" font-size="13.00" fill="orange">BITMAP FONT LOADING</text>
</g>
<!-- VCURSOR -->
<g id="node7" class="node">
<title>VCURSOR</title>
<polygon fill="none" stroke="orange" stroke-width="2" points="925.5,-543 922.5,-547 901.5,-547 898.5,-543 806.5,-543 806.5,-507 925.5,-507 925.5,-543"/>
<text text-anchor="middle" x="866" y="-521.6" font-family="Cascadia Code PL" font-size="13.00" fill="orange">VIRTUAL CURSOR</text>
</g>
<!-- COLOR_PICKUP -->
<g id="node8" class="node">
<title>COLOR_PICKUP</title>
<polygon fill="none" stroke="orange" stroke-width="2" points="1048.5,-543 1045.5,-547 1024.5,-547 1021.5,-543 943.5,-543 943.5,-507 1048.5,-507 1048.5,-543"/>
<text text-anchor="middle" x="996" y="-521.6" font-family="Cascadia Code PL" font-size="13.00" fill="orange">COLOR PICKUP</text>
</g>
<!-- S_HIDDEN -->
<g id="node9" class="node">
<title>S_HIDDEN</title>
<polygon fill="none" stroke="white" points="1233.5,-559 1066.5,-559 1066.5,-491 1233.5,-491 1233.5,-559"/>
<text text-anchor="middle" x="1150" y="-546.2" font-family="Cascadia Code PL" font-size="11.00" fill="cyan">1 · HIDDEN</text>
<text text-anchor="middle" x="1150" y="-534.2" font-family="Cascadia Code PL" font-size="11.00" fill="cyan">─────────────────</text>
<text text-anchor="middle" x="1150" y="-522.2" font-family="Cascadia Code PL" font-size="11.00" fill="cyan">SCRN.showCharMap% = FALSE</text>
<text text-anchor="middle" x="1150" y="-510.2" font-family="Cascadia Code PL" font-size="11.00" fill="cyan">ManuallyHidden% = TRUE</text>
<text text-anchor="middle" x="1150" y="-498.2" font-family="Cascadia Code PL" font-size="11.00" fill="cyan">Panel not rendered</text>
</g>
<!-- S_VISIBLE -->
<g id="node10" class="node">
<title>S_VISIBLE</title>
<polygon fill="none" stroke="white" points="1232,-407 1068,-407 1068,-327 1232,-327 1232,-407"/>
<text text-anchor="middle" x="1150" y="-394.2" font-family="Cascadia Code PL" font-size="11.00" fill="cyan">2 · VISIBLE</text>
<text text-anchor="middle" x="1150" y="-382.2" font-family="Cascadia Code PL" font-size="11.00" fill="cyan">─────────────────</text>
<text text-anchor="middle" x="1150" y="-370.2" font-family="Cascadia Code PL" font-size="11.00" fill="cyan">SCRN.showCharMap% = TRUE</text>
<text text-anchor="middle" x="1150" y="-358.2" font-family="Cascadia Code PL" font-size="11.00" fill="cyan">16×16 glyph grid shown</text>
<text text-anchor="middle" x="1150" y="-346.2" font-family="Cascadia Code PL" font-size="11.00" fill="cyan">Docked LEFT or RIGHT</text>
<text text-anchor="middle" x="1150" y="-334.2" font-family="Cascadia Code PL" font-size="11.00" fill="cyan">Glyph cache built</text>
</g>
<!-- S_HIDDEN&#45;&gt;S_VISIBLE -->
<g id="edge1" class="edge">
<title>S_HIDDEN&#45;&gt;S_VISIBLE</title>
<path fill="none" stroke="#66cc66" d="M1066.24,-492.9C1046.79,-484.88 1030.86,-477.3 1028,-473 1011.01,-447.49 1030.97,-424.57 1059.34,-406.69"/>
<polygon fill="#66cc66" stroke="#66cc66" points="1061.17,-409.68 1067.96,-401.55 1057.58,-403.67 1061.17,-409.68"/>
<text text-anchor="middle" x="1078" y="-460.8" font-family="Cascadia Code PL" font-size="9.00" fill="#aaaaaa"> &#160;Ctrl+M / Menu toggle</text>
<text text-anchor="middle" x="1078" y="-450.8" font-family="Cascadia Code PL" font-size="9.00" fill="#aaaaaa"> &#160;or [USE CHARS] enabled</text>
</g>
<!-- S_HIDDEN&#45;&gt;S_VISIBLE -->
<g id="edge5" class="edge">
<title>S_HIDDEN&#45;&gt;S_VISIBLE</title>
<path fill="none" stroke="#88aacc" stroke-dasharray="1,5" d="M1227.63,-490.98C1233.66,-485.78 1238.97,-479.81 1243,-473 1255.49,-451.91 1243.78,-431.18 1224.98,-413.78"/>
<polygon fill="#88aacc" stroke="#88aacc" points="1227.01,-410.91 1217.15,-407.03 1222.44,-416.21 1227.01,-410.91"/>
<text text-anchor="middle" x="1273.5" y="-460.8" font-family="Cascadia Code PL" font-size="9.00" fill="#aaaaaa"> &#160;F11 restore</text>
<text text-anchor="middle" x="1273.5" y="-450.8" font-family="Cascadia Code PL" font-size="9.00" fill="#aaaaaa"> &#160;(toggle&#45;all)</text>
</g>
<!-- S_VISIBLE&#45;&gt;S_HIDDEN -->
<g id="edge2" class="edge">
<title>S_VISIBLE&#45;&gt;S_HIDDEN</title>
<path fill="none" stroke="#cc6666" stroke-dasharray="5,2" d="M1150,-407.1C1150,-429.5 1150,-457.65 1150,-480.72"/>
<polygon fill="#cc6666" stroke="#cc6666" points="1146.5,-480.92 1150,-490.92 1153.5,-480.92 1146.5,-480.92"/>
<text text-anchor="middle" x="1196" y="-455.8" font-family="Cascadia Code PL" font-size="9.00" fill="#aaaaaa"> &#160;Ctrl+M / Menu toggle</text>
</g>
<!-- S_CACHE_STALE -->
<g id="node11" class="node">
<title>S_CACHE_STALE</title>
<polygon fill="none" stroke="white" points="1215.5,-235 1086.5,-235 1086.5,-167 1215.5,-167 1215.5,-235"/>
<text text-anchor="middle" x="1151" y="-222.2" font-family="Cascadia Code PL" font-size="11.00" fill="cyan">3 · CACHE STALE</text>
<text text-anchor="middle" x="1151" y="-210.2" font-family="Cascadia Code PL" font-size="11.00" fill="cyan">─────────────────</text>
<text text-anchor="middle" x="1151" y="-198.2" font-family="Cascadia Code PL" font-size="11.00" fill="cyan">cacheValid% = FALSE</text>
<text text-anchor="middle" x="1151" y="-186.2" font-family="Cascadia Code PL" font-size="11.00" fill="cyan">Font or size changed</text>
<text text-anchor="middle" x="1151" y="-174.2" font-family="Cascadia Code PL" font-size="11.00" fill="cyan">Rebuild on next render</text>
</g>
<!-- S_VISIBLE&#45;&gt;S_CACHE_STALE -->
<g id="edge3" class="edge">
<title>S_VISIBLE&#45;&gt;S_CACHE_STALE</title>
<path fill="none" stroke="#cccc66" d="M1113.61,-326.57C1102.57,-309.95 1094.82,-290.07 1101,-271 1104.11,-261.4 1109.12,-252.01 1114.79,-243.4"/>
<polygon fill="#cccc66" stroke="#cccc66" points="1117.75,-245.28 1120.64,-235.08 1112.02,-241.25 1117.75,-245.28"/>
<text text-anchor="middle" x="1140" y="-283.8" font-family="Cascadia Code PL" font-size="9.00" fill="#aaaaaa"> &#160;Font/size changed</text>
<text text-anchor="middle" x="1140" y="-273.8" font-family="Cascadia Code PL" font-size="9.00" fill="#aaaaaa"> &#160;in TEXT BAR</text>
</g>
<!-- S_CACHE_STALE&#45;&gt;S_VISIBLE -->
<g id="edge4" class="edge">
<title>S_CACHE_STALE&#45;&gt;S_VISIBLE</title>
<path fill="none" stroke="#66cc66" d="M1167.5,-235.24C1172.18,-246.34 1176.65,-258.95 1179,-271 1181.98,-286.27 1179.26,-302.58 1174.48,-317.3"/>
<polygon fill="#66cc66" stroke="#66cc66" points="1171.19,-316.12 1171.08,-326.71 1177.77,-318.49 1171.19,-316.12"/>
<text text-anchor="middle" x="1234" y="-283.8" font-family="Cascadia Code PL" font-size="9.00" fill="#aaaaaa"> &#160;CHARMAP_rebuild_cache</text>
<text text-anchor="middle" x="1234" y="-273.8" font-family="Cascadia Code PL" font-size="9.00" fill="#aaaaaa"> &#160;(or _bitmap variant)</text>
</g>
<!-- C_IDLE -->
<g id="node12" class="node">
<title>C_IDLE</title>
<polygon fill="none" stroke="white" points="1555.5,-559 1416.5,-559 1416.5,-491 1555.5,-491 1555.5,-559"/>
<text text-anchor="middle" x="1486" y="-546.2" font-family="Cascadia Code PL" font-size="11.00" fill="cyan">4 · NO SELECTION</text>
<text text-anchor="middle" x="1486" y="-534.2" font-family="Cascadia Code PL" font-size="11.00" fill="cyan">─────────────────</text>
<text text-anchor="middle" x="1486" y="-522.2" font-family="Cascadia Code PL" font-size="11.00" fill="cyan">selectedIdx% = &#45;1</text>
<text text-anchor="middle" x="1486" y="-510.2" font-family="Cascadia Code PL" font-size="11.00" fill="cyan">hoverIdx% = &#45;1</text>
<text text-anchor="middle" x="1486" y="-498.2" font-family="Cascadia Code PL" font-size="11.00" fill="cyan">Cells show default colors</text>
</g>
<!-- C_HOVER -->
<g id="node13" class="node">
<title>C_HOVER</title>
<polygon fill="none" stroke="white" points="1497.5,-401 1370.5,-401 1370.5,-333 1497.5,-333 1497.5,-401"/>
<text text-anchor="middle" x="1434" y="-388.2" font-family="Cascadia Code PL" font-size="11.00" fill="cyan">5 · CELL HOVER</text>
<text text-anchor="middle" x="1434" y="-376.2" font-family="Cascadia Code PL" font-size="11.00" fill="cyan">─────────────────</text>
<text text-anchor="middle" x="1434" y="-364.2" font-family="Cascadia Code PL" font-size="11.00" fill="cyan">hoverIdx% = 0..255</text>
<text text-anchor="middle" x="1434" y="-352.2" font-family="Cascadia Code PL" font-size="11.00" fill="cyan">Hover BG/FG highlight</text>
<text text-anchor="middle" x="1434" y="-340.2" font-family="Cascadia Code PL" font-size="11.00" fill="cyan">Tooltip: char code</text>
</g>
<!-- C_IDLE&#45;&gt;C_HOVER -->
<g id="edge6" class="edge">
<title>C_IDLE&#45;&gt;C_HOVER</title>
<path fill="none" stroke="#88aacc" d="M1416.13,-517.53C1387.03,-510.98 1355.91,-498.11 1338,-473 1321.44,-449.77 1339.36,-426.13 1364.02,-407.18"/>
<polygon fill="#88aacc" stroke="#88aacc" points="1366.21,-409.91 1372.23,-401.19 1362.09,-404.26 1366.21,-409.91"/>
<text text-anchor="middle" x="1375" y="-455.8" font-family="Cascadia Code PL" font-size="9.00" fill="#aaaaaa"> &#160;Mouse enters cell</text>
</g>
<!-- C_FLASH -->
<g id="node15" class="node">
<title>C_FLASH</title>
<polygon fill="none" stroke="white" points="1571.5,-93 1458.5,-93 1458.5,-13 1571.5,-13 1571.5,-93"/>
<text text-anchor="middle" x="1515" y="-80.2" font-family="Cascadia Code PL" font-size="11.00" fill="cyan">7 · CELL FLASH</text>
<text text-anchor="middle" x="1515" y="-68.2" font-family="Cascadia Code PL" font-size="11.00" fill="cyan">─────────────────</text>
<text text-anchor="middle" x="1515" y="-56.2" font-family="Cascadia Code PL" font-size="11.00" fill="cyan">flashIdx% = 0..255</text>
<text text-anchor="middle" x="1515" y="-44.2" font-family="Cascadia Code PL" font-size="11.00" fill="cyan">Flash FG color (0.3s)</text>
<text text-anchor="middle" x="1515" y="-32.2" font-family="Cascadia Code PL" font-size="11.00" fill="cyan">Triggered by typing</text>
<text text-anchor="middle" x="1515" y="-20.2" font-family="Cascadia Code PL" font-size="11.00" fill="cyan">or F&#45;key ANSI insert</text>
</g>
<!-- C_IDLE&#45;&gt;C_FLASH -->
<g id="edge13" class="edge">
<title>C_IDLE&#45;&gt;C_FLASH</title>
<path fill="none" stroke="#cc88ff" d="M1544.05,-490.8C1567.46,-474.21 1592.16,-451.9 1606,-425 1634.09,-370.41 1642.63,-205.23 1618,-149 1609.53,-129.66 1594.96,-112.51 1579.4,-98.3"/>
<polygon fill="#cc88ff" stroke="#cc88ff" points="1581.54,-95.51 1571.71,-91.56 1576.93,-100.78 1581.54,-95.51"/>
<text text-anchor="middle" x="1673.5" y="-283.8" font-family="Cascadia Code PL" font-size="9.00" fill="#aaaaaa"> &#160;Typing (Use Chars)</text>
<text text-anchor="middle" x="1673.5" y="-273.8" font-family="Cascadia Code PL" font-size="9.00" fill="#aaaaaa"> &#160;syncs selectedIdx%</text>
</g>
<!-- C_HOVER&#45;&gt;C_IDLE -->
<g id="edge7" class="edge">
<title>C_HOVER&#45;&gt;C_IDLE</title>
<path fill="none" stroke="#cc6666" stroke-dasharray="5,2" d="M1428.02,-401.46C1425.71,-422.76 1425.54,-450.48 1435,-473 1436.37,-476.27 1438.07,-479.45 1440,-482.51"/>
<polygon fill="#cc6666" stroke="#cc6666" points="1437.29,-484.73 1445.98,-490.79 1442.97,-480.64 1437.29,-484.73"/>
<text text-anchor="middle" x="1479.5" y="-455.8" font-family="Cascadia Code PL" font-size="9.00" fill="#aaaaaa"> &#160;Mouse leaves all cells</text>
</g>
<!-- C_SELECTED -->
<g id="node14" class="node">
<title>C_SELECTED</title>
<polygon fill="none" stroke="white" points="1507,-235 1367,-235 1367,-167 1507,-167 1507,-235"/>
<text text-anchor="middle" x="1437" y="-222.2" font-family="Cascadia Code PL" font-size="11.00" fill="cyan">6 · CELL SELECTED</text>
<text text-anchor="middle" x="1437" y="-210.2" font-family="Cascadia Code PL" font-size="11.00" fill="cyan">─────────────────</text>
<text text-anchor="middle" x="1437" y="-198.2" font-family="Cascadia Code PL" font-size="11.00" fill="cyan">selectedIdx% = 0..255</text>
<text text-anchor="middle" x="1437" y="-186.2" font-family="Cascadia Code PL" font-size="11.00" fill="cyan">Selected BG/FG highlight</text>
<text text-anchor="middle" x="1437" y="-174.2" font-family="Cascadia Code PL" font-size="11.00" fill="cyan">Glyph → custom brush</text>
</g>
<!-- C_HOVER&#45;&gt;C_SELECTED -->
<g id="edge8" class="edge">
<title>C_HOVER&#45;&gt;C_SELECTED</title>
<path fill="none" stroke="#66cc66" d="M1434.61,-332.81C1435.07,-307.58 1435.71,-272.66 1436.21,-245.24"/>
<polygon fill="#66cc66" stroke="#66cc66" points="1439.71,-245.2 1436.39,-235.14 1432.71,-245.07 1439.71,-245.2"/>
<text text-anchor="middle" x="1460" y="-278.8" font-family="Cascadia Code PL" font-size="9.00" fill="#aaaaaa"> &#160;L&#45;Click cell</text>
</g>
<!-- C_SELECTED&#45;&gt;C_IDLE -->
<g id="edge9" class="edge">
<title>C_SELECTED&#45;&gt;C_IDLE</title>
<path fill="none" stroke="#cc6666" stroke-dasharray="5,2" d="M1465.47,-235.15C1480.72,-255.12 1497.97,-281.87 1506,-309 1534.39,-404.85 1536.02,-436.75 1524,-473 1522.97,-476.09 1521.68,-479.15 1520.19,-482.14"/>
<polygon fill="#cc6666" stroke="#cc6666" points="1517.13,-480.44 1515.23,-490.86 1523.22,-483.9 1517.13,-480.44"/>
<text text-anchor="middle" x="1566.5" y="-369.8" font-family="Cascadia Code PL" font-size="9.00" fill="#aaaaaa"> &#160;L&#45;Click same cell</text>
<text text-anchor="middle" x="1566.5" y="-359.8" font-family="Cascadia Code PL" font-size="9.00" fill="#aaaaaa"> &#160;(deselect toggle)</text>
</g>
<!-- C_SELECTED&#45;&gt;C_SELECTED -->
<g id="edge10" class="edge">
<title>C_SELECTED&#45;&gt;C_SELECTED</title>
<path fill="none" stroke="#cccc66" d="M1507.07,-214.68C1517.75,-212.59 1525,-208.03 1525,-201 1525,-196.39 1521.88,-192.84 1516.71,-190.35"/>
<polygon fill="#cccc66" stroke="#cccc66" points="1517.66,-186.98 1507.07,-187.32 1515.56,-193.66 1517.66,-186.98"/>
<text text-anchor="middle" x="1567" y="-198.8" font-family="Cascadia Code PL" font-size="9.00" fill="#aaaaaa"> &#160;L&#45;Click different cell</text>
</g>
<!-- C_SELECTED&#45;&gt;C_FLASH -->
<g id="edge11" class="edge">
<title>C_SELECTED&#45;&gt;C_FLASH</title>
<path fill="none" stroke="#cc88ff" d="M1468.43,-166.83C1477.37,-156.04 1486.45,-143.59 1493,-131 1497.53,-122.31 1501.23,-112.56 1504.22,-103"/>
<polygon fill="#cc88ff" stroke="#cc88ff" points="1507.65,-103.74 1507.08,-93.16 1500.93,-101.78 1507.65,-103.74"/>
<text text-anchor="middle" x="1534.5" y="-123.8" font-family="Cascadia Code PL" font-size="9.00" fill="#aaaaaa"> &#160;Typing / F&#45;key</text>
<text text-anchor="middle" x="1534.5" y="-113.8" font-family="Cascadia Code PL" font-size="9.00" fill="#aaaaaa"> &#160;(char feedback)</text>
</g>
<!-- C_FLASH&#45;&gt;C_SELECTED -->
<g id="edge12" class="edge">
<title>C_FLASH&#45;&gt;C_SELECTED</title>
<path fill="none" stroke="#88aacc" stroke-dasharray="1,5" d="M1458.46,-82.98C1448.61,-90.7 1439.7,-100.01 1434,-111 1426.82,-124.82 1425.76,-141.55 1427.11,-156.76"/>
<polygon fill="#88aacc" stroke="#88aacc" points="1423.68,-157.5 1428.39,-166.99 1430.62,-156.63 1423.68,-157.5"/>
<text text-anchor="middle" x="1461.5" y="-123.8" font-family="Cascadia Code PL" font-size="9.00" fill="#aaaaaa"> &#160;Timer &gt; 0.3s</text>
<text text-anchor="middle" x="1461.5" y="-113.8" font-family="Cascadia Code PL" font-size="9.00" fill="#aaaaaa"> &#160;Flash expires</text>
</g>
<!-- UC_OFF -->
<g id="node16" class="node">
<title>UC_OFF</title>
<polygon fill="none" stroke="white" points="1948,-559 1808,-559 1808,-491 1948,-491 1948,-559"/>
<text text-anchor="middle" x="1878" y="-546.2" font-family="Cascadia Code PL" font-size="11.00" fill="cyan">8 · USE CHARS OFF</text>
<text text-anchor="middle" x="1878" y="-534.2" font-family="Cascadia Code PL" font-size="11.00" fill="cyan">─────────────────</text>
<text text-anchor="middle" x="1878" y="-522.2" font-family="Cascadia Code PL" font-size="11.00" fill="cyan">useChars% = FALSE</text>
<text text-anchor="middle" x="1878" y="-510.2" font-family="Cascadia Code PL" font-size="11.00" fill="cyan">Standard text entry</text>
<text text-anchor="middle" x="1878" y="-498.2" font-family="Cascadia Code PL" font-size="11.00" fill="cyan">No char grid auto&#45;enable</text>
</g>
<!-- UC_ON -->
<g id="node17" class="node">
<title>UC_ON</title>
<polygon fill="none" stroke="white" points="1954.5,-425 1801.5,-425 1801.5,-309 1954.5,-309 1954.5,-425"/>
<text text-anchor="middle" x="1878" y="-412.2" font-family="Cascadia Code PL" font-size="11.00" fill="cyan">9 · USE CHARS ON</text>
<text text-anchor="middle" x="1878" y="-400.2" font-family="Cascadia Code PL" font-size="11.00" fill="cyan">─────────────────</text>
<text text-anchor="middle" x="1878" y="-388.2" font-family="Cascadia Code PL" font-size="11.00" fill="cyan">useChars% = TRUE</text>
<text text-anchor="middle" x="1878" y="-376.2" font-family="Cascadia Code PL" font-size="11.00" fill="cyan">Char mode active</text>
<text text-anchor="middle" x="1878" y="-364.2" font-family="Cascadia Code PL" font-size="11.00" fill="cyan">CharMap auto&#45;shown</text>
<text text-anchor="middle" x="1878" y="-352.2" font-family="Cascadia Code PL" font-size="11.00" fill="cyan">Brush recolor enabled</text>
<text text-anchor="middle" x="1878" y="-340.2" font-family="Cascadia Code PL" font-size="11.00" fill="cyan">F&#45;keys → ANSI chars</text>
<text text-anchor="middle" x="1878" y="-328.2" font-family="Cascadia Code PL" font-size="11.00" fill="cyan">Font stays locked</text>
<text text-anchor="middle" x="1878" y="-316.2" font-family="Cascadia Code PL" font-size="11.00" fill="cyan">Saved per&#45;document (v19+)</text>
</g>
<!-- UC_OFF&#45;&gt;UC_ON -->
<g id="edge14" class="edge">
<title>UC_OFF&#45;&gt;UC_ON</title>
<path fill="none" stroke="#66cc66" d="M1808,-504.43C1793.36,-497 1779.73,-486.83 1771,-473 1756.77,-450.46 1771.06,-429.14 1793.32,-411.69"/>
<polygon fill="#66cc66" stroke="#66cc66" points="1795.51,-414.42 1801.49,-405.68 1791.36,-408.78 1795.51,-414.42"/>
<text text-anchor="middle" x="1813.5" y="-460.8" font-family="Cascadia Code PL" font-size="9.00" fill="#aaaaaa"> &#160;[USE CHARS] button</text>
<text text-anchor="middle" x="1813.5" y="-450.8" font-family="Cascadia Code PL" font-size="9.00" fill="#aaaaaa"> &#160;in Text Bar</text>
</g>
<!-- UC_OFF&#45;&gt;UC_ON -->
<g id="edge15" class="edge">
<title>UC_OFF&#45;&gt;UC_ON</title>
<path fill="none" stroke="#88aacc" stroke-dasharray="1,5" d="M1878,-490.92C1878,-474.77 1878,-454.72 1878,-435.54"/>
<polygon fill="#88aacc" stroke="#88aacc" points="1881.5,-435.31 1878,-425.31 1874.5,-435.31 1881.5,-435.31"/>
<text text-anchor="middle" x="1915.5" y="-460.8" font-family="Cascadia Code PL" font-size="9.00" fill="#aaaaaa"> &#160;DRW load (v19+)</text>
<text text-anchor="middle" x="1915.5" y="-450.8" font-family="Cascadia Code PL" font-size="9.00" fill="#aaaaaa"> &#160;useChars restored</text>
</g>
<!-- UC_ON&#45;&gt;UC_OFF -->
<g id="edge16" class="edge">
<title>UC_ON&#45;&gt;UC_OFF</title>
<path fill="none" stroke="#cc6666" stroke-dasharray="5,2" d="M1944.21,-425.33C1948.07,-430.93 1951.43,-436.84 1954,-443 1959.14,-455.3 1960.27,-461.23 1954,-473 1952.08,-476.6 1949.78,-480 1947.19,-483.19"/>
<polygon fill="#cc6666" stroke="#cc6666" points="1944.46,-480.99 1940.23,-490.7 1949.59,-485.75 1944.46,-480.99"/>
<text text-anchor="middle" x="2001.5" y="-460.8" font-family="Cascadia Code PL" font-size="9.00" fill="#aaaaaa"> &#160;[USE CHARS] button</text>
<text text-anchor="middle" x="2001.5" y="-450.8" font-family="Cascadia Code PL" font-size="9.00" fill="#aaaaaa"> &#160;in Text Bar</text>
</g>
<!-- UC_FKEYS -->
<g id="node18" class="node">
<title>UC_FKEYS</title>
<polygon fill="none" stroke="white" points="1818,-253 1690,-253 1690,-149 1818,-149 1818,-253"/>
<text text-anchor="middle" x="1754" y="-240.2" font-family="Cascadia Code PL" font-size="11.00" fill="cyan">10 · F&#45;KEY INSERT</text>
<text text-anchor="middle" x="1754" y="-228.2" font-family="Cascadia Code PL" font-size="11.00" fill="cyan">─────────────────</text>
<text text-anchor="middle" x="1754" y="-216.2" font-family="Cascadia Code PL" font-size="11.00" fill="cyan">F1→176 ░ &#160;F2→177 ▒</text>
<text text-anchor="middle" x="1754" y="-204.2" font-family="Cascadia Code PL" font-size="11.00" fill="cyan">F3→178 ▓ &#160;F4→219 █</text>
<text text-anchor="middle" x="1754" y="-192.2" font-family="Cascadia Code PL" font-size="11.00" fill="cyan">F5→223 ▀ &#160;F6→220 ▄</text>
<text text-anchor="middle" x="1754" y="-180.2" font-family="Cascadia Code PL" font-size="11.00" fill="cyan">F7→221 ▌ &#160;F8→222 ▐</text>
<text text-anchor="middle" x="1754" y="-168.2" font-family="Cascadia Code PL" font-size="11.00" fill="cyan">F9→254 ■ &#160;F10→250 ·</text>
<text text-anchor="middle" x="1754" y="-156.2" font-family="Cascadia Code PL" font-size="11.00" fill="cyan">F11,F12→32 (space)</text>
</g>
<!-- UC_ON&#45;&gt;UC_FKEYS -->
<g id="edge17" class="edge">
<title>UC_ON&#45;&gt;UC_FKEYS</title>
<path fill="none" stroke="#cc88ff" d="M1801.17,-341.21C1778.05,-329.74 1755.3,-313.52 1742,-291 1737.06,-282.63 1735.23,-273.06 1735.3,-263.37"/>
<polygon fill="#cc88ff" stroke="#cc88ff" points="1738.8,-263.49 1736.01,-253.27 1731.82,-263 1738.8,-263.49"/>
<text text-anchor="middle" x="1777" y="-283.8" font-family="Cascadia Code PL" font-size="9.00" fill="#aaaaaa"> &#160;F1&#45;F12 pressed</text>
<text text-anchor="middle" x="1777" y="-273.8" font-family="Cascadia Code PL" font-size="9.00" fill="#aaaaaa"> &#160;(text tool active)</text>
</g>
<!-- UC_DRAW -->
<g id="node19" class="node">
<title>UC_DRAW</title>
<polygon fill="none" stroke="white" points="2047,-235 1903,-235 1903,-167 2047,-167 2047,-235"/>
<text text-anchor="middle" x="1975" y="-222.2" font-family="Cascadia Code PL" font-size="11.00" fill="cyan">10b · DRAW TOOLS</text>
<text text-anchor="middle" x="1975" y="-210.2" font-family="Cascadia Code PL" font-size="11.00" fill="cyan">─────────────────</text>
<text text-anchor="middle" x="1975" y="-198.2" font-family="Cascadia Code PL" font-size="11.00" fill="cyan">DOT / RECT / RECT_FILLED</text>
<text text-anchor="middle" x="1975" y="-186.2" font-family="Cascadia Code PL" font-size="11.00" fill="cyan">Fill cells with selected</text>
<text text-anchor="middle" x="1975" y="-174.2" font-family="Cascadia Code PL" font-size="11.00" fill="cyan">charmap glyph + FG/BG</text>
</g>
<!-- UC_ON&#45;&gt;UC_DRAW -->
<g id="edge19" class="edge">
<title>UC_ON&#45;&gt;UC_DRAW</title>
<path fill="none" stroke="#cccc66" d="M1902.81,-308.75C1908.94,-296.06 1915.82,-282.87 1923,-271 1928.65,-261.67 1935.28,-252.06 1941.89,-243.1"/>
<polygon fill="#cccc66" stroke="#cccc66" points="1944.71,-245.18 1947.92,-235.08 1939.12,-240.97 1944.71,-245.18"/>
<text text-anchor="middle" x="1965" y="-283.8" font-family="Cascadia Code PL" font-size="9.00" fill="#aaaaaa"> &#160;Switch to DOT/RECT</text>
<text text-anchor="middle" x="1965" y="-273.8" font-family="Cascadia Code PL" font-size="9.00" fill="#aaaaaa"> &#160;tool on text layer</text>
</g>
<!-- UC_FKEYS&#45;&gt;UC_ON -->
<g id="edge18" class="edge">
<title>UC_FKEYS&#45;&gt;UC_ON</title>
<path fill="none" stroke="#88aacc" d="M1797.92,-253.2C1802.75,-259.14 1807.53,-265.16 1812,-271 1819.2,-280.41 1826.58,-290.52 1833.69,-300.52"/>
<polygon fill="#88aacc" stroke="#88aacc" points="1830.95,-302.72 1839.58,-308.87 1836.67,-298.69 1830.95,-302.72"/>
<text text-anchor="middle" x="1858.5" y="-283.8" font-family="Cascadia Code PL" font-size="9.00" fill="#aaaaaa"> &#160;Char inserted +</text>
<text text-anchor="middle" x="1858.5" y="-273.8" font-family="Cascadia Code PL" font-size="9.00" fill="#aaaaaa"> &#160;flash on map</text>
</g>
<!-- UC_DRAW&#45;&gt;UC_ON -->
<g id="edge20" class="edge">
<title>UC_DRAW&#45;&gt;UC_ON</title>
<path fill="none" stroke="#88aacc" d="M2000.34,-235.35C2010.19,-252.61 2016.99,-273.64 2007,-291 1996.93,-308.5 1981.04,-322.29 1963.81,-333.01"/>
<polygon fill="#88aacc" stroke="#88aacc" points="1961.56,-330.27 1954.7,-338.35 1965.1,-336.32 1961.56,-330.27"/>
<text text-anchor="middle" x="2043" y="-283.8" font-family="Cascadia Code PL" font-size="9.00" fill="#aaaaaa"> &#160;Switch back to</text>
<text text-anchor="middle" x="2043" y="-273.8" font-family="Cascadia Code PL" font-size="9.00" fill="#aaaaaa"> &#160;text tool</text>
</g>
<!-- CG_OFF -->
<g id="node20" class="node">
<title>CG_OFF</title>
<polygon fill="none" stroke="white" points="2256,-553 2120,-553 2120,-497 2256,-497 2256,-553"/>
<text text-anchor="middle" x="2188" y="-540.2" font-family="Cascadia Code PL" font-size="11.00" fill="cyan">11 · CHAR GRID OFF</text>
<text text-anchor="middle" x="2188" y="-528.2" font-family="Cascadia Code PL" font-size="11.00" fill="cyan">─────────────────</text>
<text text-anchor="middle" x="2188" y="-516.2" font-family="Cascadia Code PL" font-size="11.00" fill="cyan">charGridShow% = FALSE</text>
<text text-anchor="middle" x="2188" y="-504.2" font-family="Cascadia Code PL" font-size="11.00" fill="cyan">No overlay on canvas</text>
</g>
<!-- CG_ON -->
<g id="node21" class="node">
<title>CG_ON</title>
<polygon fill="none" stroke="white" points="2254.5,-401 2121.5,-401 2121.5,-333 2254.5,-333 2254.5,-401"/>
<text text-anchor="middle" x="2188" y="-388.2" font-family="Cascadia Code PL" font-size="11.00" fill="cyan">12 · CHAR GRID ON</text>
<text text-anchor="middle" x="2188" y="-376.2" font-family="Cascadia Code PL" font-size="11.00" fill="cyan">─────────────────</text>
<text text-anchor="middle" x="2188" y="-364.2" font-family="Cascadia Code PL" font-size="11.00" fill="cyan">charGridShow% = TRUE</text>
<text text-anchor="middle" x="2188" y="-352.2" font-family="Cascadia Code PL" font-size="11.00" fill="cyan">Grid lines on canvas</text>
<text text-anchor="middle" x="2188" y="-340.2" font-family="Cascadia Code PL" font-size="11.00" fill="cyan">Cell W×H from font</text>
</g>
<!-- CG_OFF&#45;&gt;CG_ON -->
<g id="edge21" class="edge">
<title>CG_OFF&#45;&gt;CG_ON</title>
<path fill="none" stroke="#66cc66" d="M2119.76,-503.5C2105.98,-496.12 2093.21,-486.22 2085,-473 2069.81,-448.53 2088,-425.24 2113.11,-406.84"/>
<polygon fill="#66cc66" stroke="#66cc66" points="2115.24,-409.62 2121.47,-401.04 2111.25,-403.86 2115.24,-409.62"/>
<text text-anchor="middle" x="2125.5" y="-455.8" font-family="Cascadia Code PL" font-size="9.00" fill="#aaaaaa"> &#160;View → CHAR GRID</text>
</g>
<!-- CG_OFF&#45;&gt;CG_ON -->
<g id="edge22" class="edge">
<title>CG_OFF&#45;&gt;CG_ON</title>
<path fill="none" stroke="#88aacc" stroke-dasharray="1,5" d="M2188,-496.83C2188,-473.22 2188,-438.61 2188,-411.2"/>
<polygon fill="#88aacc" stroke="#88aacc" points="2191.5,-411.09 2188,-401.09 2184.5,-411.09 2191.5,-411.09"/>
<text text-anchor="middle" x="2248" y="-465.8" font-family="Cascadia Code PL" font-size="9.00" fill="#aaaaaa"> &#160;DRW load (v18+)</text>
<text text-anchor="middle" x="2248" y="-455.8" font-family="Cascadia Code PL" font-size="9.00" fill="#aaaaaa"> &#160;charGridShow restored</text>
<text text-anchor="middle" x="2248" y="-445.8" font-family="Cascadia Code PL" font-size="9.00" fill="#aaaaaa"> &#160;+ CHARMAP_char_grid_draw</text>
</g>
<!-- CG_ON&#45;&gt;CG_OFF -->
<g id="edge23" class="edge">
<title>CG_ON&#45;&gt;CG_OFF</title>
<path fill="none" stroke="#cc6666" stroke-dasharray="5,2" d="M2254.54,-393.77C2293.14,-412.8 2330.3,-440.9 2309,-473 2298.74,-488.47 2282.76,-499.25 2265.75,-506.77"/>
<polygon fill="#cc6666" stroke="#cc6666" points="2264.18,-503.63 2256.22,-510.62 2266.8,-510.12 2264.18,-503.63"/>
<text text-anchor="middle" x="2356.5" y="-455.8" font-family="Cascadia Code PL" font-size="9.00" fill="#aaaaaa"> &#160;View → CHAR GRID</text>
</g>
<!-- CG_SNAP_OFF -->
<g id="node22" class="node">
<title>CG_SNAP_OFF</title>
<polygon fill="none" stroke="white" points="2548.5,-553 2415.5,-553 2415.5,-497 2548.5,-497 2548.5,-553"/>
<text text-anchor="middle" x="2482" y="-540.2" font-family="Cascadia Code PL" font-size="11.00" fill="cyan">13 · SNAP OFF</text>
<text text-anchor="middle" x="2482" y="-528.2" font-family="Cascadia Code PL" font-size="11.00" fill="cyan">─────────────────</text>
<text text-anchor="middle" x="2482" y="-516.2" font-family="Cascadia Code PL" font-size="11.00" fill="cyan">charGridSnap% = FALSE</text>
<text text-anchor="middle" x="2482" y="-504.2" font-family="Cascadia Code PL" font-size="11.00" fill="cyan">Free cursor movement</text>
</g>
<!-- CG_SNAP_ON -->
<g id="node23" class="node">
<title>CG_SNAP_ON</title>
<polygon fill="none" stroke="white" points="2547,-401 2417,-401 2417,-333 2547,-333 2547,-401"/>
<text text-anchor="middle" x="2482" y="-388.2" font-family="Cascadia Code PL" font-size="11.00" fill="cyan">14 · SNAP ON</text>
<text text-anchor="middle" x="2482" y="-376.2" font-family="Cascadia Code PL" font-size="11.00" fill="cyan">─────────────────</text>
<text text-anchor="middle" x="2482" y="-364.2" font-family="Cascadia Code PL" font-size="11.00" fill="cyan">charGridSnap% = TRUE</text>
<text text-anchor="middle" x="2482" y="-352.2" font-family="Cascadia Code PL" font-size="11.00" fill="cyan">Cursor snaps to</text>
<text text-anchor="middle" x="2482" y="-340.2" font-family="Cascadia Code PL" font-size="11.00" fill="cyan">char cell boundaries</text>
</g>
<!-- CG_SNAP_OFF&#45;&gt;CG_SNAP_ON -->
<g id="edge24" class="edge">
<title>CG_SNAP_OFF&#45;&gt;CG_SNAP_ON</title>
<path fill="none" stroke="#66cc66" d="M2451.05,-496.91C2444.91,-489.81 2439.34,-481.68 2436,-473 2431.22,-460.55 2432.38,-455.83 2436,-443 2439.21,-431.63 2444.68,-420.28 2450.75,-409.99"/>
<polygon fill="#66cc66" stroke="#66cc66" points="2453.88,-411.57 2456.2,-401.23 2447.94,-407.87 2453.88,-411.57"/>
<text text-anchor="middle" x="2472" y="-460.8" font-family="Cascadia Code PL" font-size="9.00" fill="#aaaaaa"> &#160;View → SNAP TO</text>
<text text-anchor="middle" x="2472" y="-450.8" font-family="Cascadia Code PL" font-size="9.00" fill="#aaaaaa"> &#160;CHAR GRID</text>
</g>
<!-- CG_SNAP_ON&#45;&gt;CG_SNAP_OFF -->
<g id="edge25" class="edge">
<title>CG_SNAP_ON&#45;&gt;CG_SNAP_OFF</title>
<path fill="none" stroke="#cc6666" stroke-dasharray="5,2" d="M2498.47,-401.07C2506.7,-421.73 2513.79,-448.9 2508,-473 2506.84,-477.82 2505.15,-482.7 2503.17,-487.43"/>
<polygon fill="#cc6666" stroke="#cc6666" points="2499.83,-486.32 2498.8,-496.86 2506.18,-489.26 2499.83,-486.32"/>
<text text-anchor="middle" x="2547" y="-460.8" font-family="Cascadia Code PL" font-size="9.00" fill="#aaaaaa"> &#160;View → SNAP TO</text>
<text text-anchor="middle" x="2547" y="-450.8" font-family="Cascadia Code PL" font-size="9.00" fill="#aaaaaa"> &#160;CHAR GRID</text>
</g>
<!-- D_LEFT -->
<g id="node24" class="node">
<title>D_LEFT</title>
<polygon fill="none" stroke="white" points="2793.5,-556.5 2664.5,-556.5 2664.5,-493.5 2793.5,-493.5 2793.5,-556.5"/>
<text text-anchor="middle" x="2729" y="-544.5" font-family="Cascadia Code PL" font-size="10.00" fill="cyan">Docked Left</text>
<text text-anchor="middle" x="2729" y="-533.5" font-family="Cascadia Code PL" font-size="10.00" fill="cyan">────────────</text>
<text text-anchor="middle" x="2729" y="-522.5" font-family="Cascadia Code PL" font-size="10.00" fill="cyan">dockSide% = DOCK_LEFT</text>
<text text-anchor="middle" x="2729" y="-511.5" font-family="Cascadia Code PL" font-size="10.00" fill="cyan">Panel on left edge</text>
<text text-anchor="middle" x="2729" y="-500.5" font-family="Cascadia Code PL" font-size="10.00" fill="cyan">Inside edit bar</text>
</g>
<!-- D_RIGHT -->
<g id="node25" class="node">
<title>D_RIGHT</title>
<polygon fill="none" stroke="white" points="2799.5,-398.5 2662.5,-398.5 2662.5,-335.5 2799.5,-335.5 2799.5,-398.5"/>
<text text-anchor="middle" x="2731" y="-386.5" font-family="Cascadia Code PL" font-size="10.00" fill="cyan">Docked Right</text>
<text text-anchor="middle" x="2731" y="-375.5" font-family="Cascadia Code PL" font-size="10.00" fill="cyan">────────────</text>
<text text-anchor="middle" x="2731" y="-364.5" font-family="Cascadia Code PL" font-size="10.00" fill="cyan">dockSide% = DOCK_RIGHT</text>
<text text-anchor="middle" x="2731" y="-353.5" font-family="Cascadia Code PL" font-size="10.00" fill="cyan">Panel on right edge</text>
<text text-anchor="middle" x="2731" y="-342.5" font-family="Cascadia Code PL" font-size="10.00" fill="cyan">Inside edit bar</text>
</g>
<!-- D_LEFT&#45;&gt;D_RIGHT -->
<g id="edge26" class="edge">
<title>D_LEFT&#45;&gt;D_RIGHT</title>
<path fill="none" stroke="#cccc66" d="M2664.15,-499.8C2653.31,-492.82 2643.49,-484.01 2637,-473 2630.23,-461.51 2631.22,-455.01 2637,-443 2644.05,-428.36 2655.5,-415.68 2668.03,-405.14"/>
<polygon fill="#cccc66" stroke="#cccc66" points="2670.29,-407.81 2675.94,-398.85 2665.94,-402.33 2670.29,-407.81"/>
<text text-anchor="middle" x="2695" y="-455.8" font-family="Cascadia Code PL" font-size="9.00" fill="#aaaaaa"> &#160;Layout → CHAR MAP RIGHT</text>
</g>
<!-- D_RIGHT&#45;&gt;D_LEFT -->
<g id="edge27" class="edge">
<title>D_RIGHT&#45;&gt;D_LEFT</title>
<path fill="none" stroke="#cccc66" d="M2744.45,-398.83C2751.87,-419.78 2758.57,-448.1 2753,-473 2752.18,-476.65 2751.08,-480.35 2749.78,-484"/>
<polygon fill="#cccc66" stroke="#cccc66" points="2746.45,-482.9 2745.99,-493.49 2752.95,-485.5 2746.45,-482.9"/>
<text text-anchor="middle" x="2809.5" y="-455.8" font-family="Cascadia Code PL" font-size="9.00" fill="#aaaaaa"> &#160;Layout → CHAR MAP LEFT</text>
</g>
<!-- BF_SCAN -->
<g id="node26" class="node">
<title>BF_SCAN</title>
<polygon fill="none" stroke="white" points="3066.5,-556.5 2915.5,-556.5 2915.5,-493.5 3066.5,-493.5 3066.5,-556.5"/>
<text text-anchor="middle" x="2991" y="-544.5" font-family="Cascadia Code PL" font-size="10.00" fill="cyan">Font Scan</text>
<text text-anchor="middle" x="2991" y="-533.5" font-family="Cascadia Code PL" font-size="10.00" fill="cyan">────────────</text>
<text text-anchor="middle" x="2991" y="-522.5" font-family="Cascadia Code PL" font-size="10.00" fill="cyan">Scan ASSETS/FONTS/BITMAP/</text>
<text text-anchor="middle" x="2991" y="-511.5" font-family="Cascadia Code PL" font-size="10.00" fill="cyan">Scan USER/FONTS/BITMAP/</text>
<text text-anchor="middle" x="2991" y="-500.5" font-family="Cascadia Code PL" font-size="10.00" fill="cyan">Detect: F??, PSF, BDF</text>
</g>
<!-- BF_DETECT -->
<g id="node27" class="node">
<title>BF_DETECT</title>
<polygon fill="none" stroke="white" points="3060.5,-404 2921.5,-404 2921.5,-330 3060.5,-330 3060.5,-404"/>
<text text-anchor="middle" x="2991" y="-392" font-family="Cascadia Code PL" font-size="10.00" fill="cyan">Format Detect</text>
<text text-anchor="middle" x="2991" y="-381" font-family="Cascadia Code PL" font-size="10.00" fill="cyan">────────────</text>
<text text-anchor="middle" x="2991" y="-370" font-family="Cascadia Code PL" font-size="10.00" fill="cyan">Fontraption: filesize=256*H</text>
<text text-anchor="middle" x="2991" y="-359" font-family="Cascadia Code PL" font-size="10.00" fill="cyan">PSFv1: magic 0x36 0x04</text>
<text text-anchor="middle" x="2991" y="-348" font-family="Cascadia Code PL" font-size="10.00" fill="cyan">PSFv2: magic 0x72 0xb5..</text>
<text text-anchor="middle" x="2991" y="-337" font-family="Cascadia Code PL" font-size="10.00" fill="cyan">BDF: FONTBOUNDINGBOX</text>
</g>
<!-- BF_SCAN&#45;&gt;BF_DETECT -->
<g id="edge28" class="edge">
<title>BF_SCAN&#45;&gt;BF_DETECT</title>
<path fill="none" stroke="#88aacc" d="M2991,-493.18C2991,-470.7 2991,-439.85 2991,-414.41"/>
<polygon fill="#88aacc" stroke="#88aacc" points="2994.5,-414.23 2991,-404.23 2987.5,-414.23 2994.5,-414.23"/>
<text text-anchor="middle" x="3006.5" y="-455.8" font-family="Cascadia Code PL" font-size="9.00" fill="#aaaaaa"> &#160;Per file</text>
</g>
<!-- BF_ADD -->
<g id="node28" class="node">
<title>BF_ADD</title>
<polygon fill="none" stroke="white" points="3047,-232.5 2935,-232.5 2935,-169.5 3047,-169.5 3047,-232.5"/>
<text text-anchor="middle" x="2991" y="-220.5" font-family="Cascadia Code PL" font-size="10.00" fill="cyan">Add to List</text>
<text text-anchor="middle" x="2991" y="-209.5" font-family="Cascadia Code PL" font-size="10.00" fill="cyan">────────────</text>
<text text-anchor="middle" x="2991" y="-198.5" font-family="Cascadia Code PL" font-size="10.00" fill="cyan">isBitmapFont = TRUE</text>
<text text-anchor="middle" x="2991" y="-187.5" font-family="Cascadia Code PL" font-size="10.00" fill="cyan">bitmapGlyphW,H set</text>
<text text-anchor="middle" x="2991" y="-176.5" font-family="Cascadia Code PL" font-size="10.00" fill="cyan">Display name + WxH</text>
</g>
<!-- BF_DETECT&#45;&gt;BF_ADD -->
<g id="edge29" class="edge">
<title>BF_DETECT&#45;&gt;BF_ADD</title>
<path fill="none" stroke="#66cc66" d="M2991,-329.6C2991,-303.86 2991,-269.33 2991,-242.68"/>
<polygon fill="#66cc66" stroke="#66cc66" points="2994.5,-242.52 2991,-232.52 2987.5,-242.52 2994.5,-242.52"/>
<text text-anchor="middle" x="3030.5" y="-278.8" font-family="Cascadia Code PL" font-size="9.00" fill="#aaaaaa"> &#160;Format recognized</text>
</g>
<!-- BF_RENDER -->
<g id="node29" class="node">
<title>BF_RENDER</title>
<polygon fill="none" stroke="white" points="3073.5,-90 2908.5,-90 2908.5,-16 3073.5,-16 3073.5,-90"/>
<text text-anchor="middle" x="2991" y="-78" font-family="Cascadia Code PL" font-size="10.00" fill="cyan">Render Glyphs</text>
<text text-anchor="middle" x="2991" y="-67" font-family="Cascadia Code PL" font-size="10.00" fill="cyan">────────────</text>
<text text-anchor="middle" x="2991" y="-56" font-family="Cascadia Code PL" font-size="10.00" fill="cyan">CHARMAP_rebuild_cache_bitmap</text>
<text text-anchor="middle" x="2991" y="-45" font-family="Cascadia Code PL" font-size="10.00" fill="cyan">Read raw binary per char</text>
<text text-anchor="middle" x="2991" y="-34" font-family="Cascadia Code PL" font-size="10.00" fill="cyan">White pixels on transparent</text>
<text text-anchor="middle" x="2991" y="-23" font-family="Cascadia Code PL" font-size="10.00" fill="cyan">→ CHARMAP_GLYPH(0..255)</text>
</g>
<!-- BF_ADD&#45;&gt;BF_RENDER -->
<g id="edge30" class="edge">
<title>BF_ADD&#45;&gt;BF_RENDER</title>
<path fill="none" stroke="#cccc66" d="M2991,-169.39C2991,-149.38 2991,-122.86 2991,-100.29"/>
<polygon fill="#cccc66" stroke="#cccc66" points="2994.5,-100.24 2991,-90.24 2987.5,-100.24 2994.5,-100.24"/>
<text text-anchor="middle" x="3015" y="-123.8" font-family="Cascadia Code PL" font-size="9.00" fill="#aaaaaa"> &#160;Selected in</text>
<text text-anchor="middle" x="3015" y="-113.8" font-family="Cascadia Code PL" font-size="9.00" fill="#aaaaaa"> &#160;Text Bar</text>
</g>
<!-- VC_IDLE -->
<g id="node30" class="node">
<title>VC_IDLE</title>
<polygon fill="none" stroke="white" points="3328,-559 3170,-559 3170,-491 3328,-491 3328,-559"/>
<text text-anchor="middle" x="3249" y="-546.2" font-family="Cascadia Code PL" font-size="11.00" fill="cyan">15 · VCURSOR IDLE</text>
<text text-anchor="middle" x="3249" y="-534.2" font-family="Cascadia Code PL" font-size="11.00" fill="cyan">─────────────────</text>
<text text-anchor="middle" x="3249" y="-522.2" font-family="Cascadia Code PL" font-size="11.00" fill="cyan">cmVirtualCol / cmVirtualRow</text>
<text text-anchor="middle" x="3249" y="-510.2" font-family="Cascadia Code PL" font-size="11.00" fill="cyan">at current position</text>
<text text-anchor="middle" x="3249" y="-498.2" font-family="Cascadia Code PL" font-size="11.00" fill="cyan">No data created</text>
</g>
<!-- VC_MOVE -->
<g id="node31" class="node">
<title>VC_MOVE</title>
<polygon fill="none" stroke="white" points="3254.5,-407 3121.5,-407 3121.5,-327 3254.5,-327 3254.5,-407"/>
<text text-anchor="middle" x="3188" y="-394.2" font-family="Cascadia Code PL" font-size="11.00" fill="cyan">16 · VCURSOR MOVING</text>
<text text-anchor="middle" x="3188" y="-382.2" font-family="Cascadia Code PL" font-size="11.00" fill="cyan">─────────────────</text>
<text text-anchor="middle" x="3188" y="-370.2" font-family="Cascadia Code PL" font-size="11.00" fill="cyan">Arrow keys move cursor</text>
<text text-anchor="middle" x="3188" y="-358.2" font-family="Cascadia Code PL" font-size="11.00" fill="cyan">Free grid navigation</text>
<text text-anchor="middle" x="3188" y="-346.2" font-family="Cascadia Code PL" font-size="11.00" fill="cyan">No characters created</text>
<text text-anchor="middle" x="3188" y="-334.2" font-family="Cascadia Code PL" font-size="11.00" fill="cyan">(expand=FALSE)</text>
</g>
<!-- VC_IDLE&#45;&gt;VC_MOVE -->
<g id="edge31" class="edge">
<title>VC_IDLE&#45;&gt;VC_MOVE</title>
<path fill="none" stroke="#88aacc" d="M3169.99,-512.98C3146.49,-505.6 3123.24,-493.34 3109,-473 3095.31,-453.45 3106.01,-432.34 3123.44,-414.22"/>
<polygon fill="#88aacc" stroke="#88aacc" points="3125.96,-416.65 3130.69,-407.17 3121.08,-411.63 3125.96,-416.65"/>
<text text-anchor="middle" x="3148.5" y="-460.8" font-family="Cascadia Code PL" font-size="9.00" fill="#aaaaaa"> &#160;Arrow key pressed</text>
<text text-anchor="middle" x="3148.5" y="-450.8" font-family="Cascadia Code PL" font-size="9.00" fill="#aaaaaa"> &#160;(char mode active)</text>
</g>
<!-- VC_TYPE -->
<g id="node32" class="node">
<title>VC_TYPE</title>
<polygon fill="none" stroke="white" points="3418,-407 3292,-407 3292,-327 3418,-327 3418,-407"/>
<text text-anchor="middle" x="3355" y="-394.2" font-family="Cascadia Code PL" font-size="11.00" fill="cyan">17 · VCURSOR TYPING</text>
<text text-anchor="middle" x="3355" y="-382.2" font-family="Cascadia Code PL" font-size="11.00" fill="cyan">─────────────────</text>
<text text-anchor="middle" x="3355" y="-370.2" font-family="Cascadia Code PL" font-size="11.00" fill="cyan">Character materialized</text>
<text text-anchor="middle" x="3355" y="-358.2" font-family="Cascadia Code PL" font-size="11.00" fill="cyan">at virtual cursor pos</text>
<text text-anchor="middle" x="3355" y="-346.2" font-family="Cascadia Code PL" font-size="11.00" fill="cyan">Cursor advances right</text>
<text text-anchor="middle" x="3355" y="-334.2" font-family="Cascadia Code PL" font-size="11.00" fill="cyan">(expand=TRUE)</text>
</g>
<!-- VC_IDLE&#45;&gt;VC_TYPE -->
<g id="edge33" class="edge">
<title>VC_IDLE&#45;&gt;VC_TYPE</title>
<path fill="none" stroke="#66cc66" d="M3262.39,-490.93C3269.15,-475.79 3278.03,-457.93 3288,-443 3294.38,-433.46 3301.9,-423.87 3309.55,-414.89"/>
<polygon fill="#66cc66" stroke="#66cc66" points="3312.35,-417 3316.29,-407.17 3307.08,-412.4 3312.35,-417"/>
<text text-anchor="middle" x="3332" y="-455.8" font-family="Cascadia Code PL" font-size="9.00" fill="#aaaaaa"> &#160;Printable key pressed</text>
</g>
<!-- VC_MOVE&#45;&gt;VC_IDLE -->
<g id="edge32" class="edge">
<title>VC_MOVE&#45;&gt;VC_IDLE</title>
<path fill="none" stroke="#cc6666" stroke-dasharray="5,2" d="M3192.54,-407.16C3195.88,-427.47 3201.55,-452.29 3211,-473 3212.44,-476.16 3214.1,-479.31 3215.91,-482.41"/>
<polygon fill="#cc6666" stroke="#cc6666" points="3213.01,-484.39 3221.31,-490.97 3218.93,-480.65 3213.01,-484.39"/>
<text text-anchor="middle" x="3238" y="-455.8" font-family="Cascadia Code PL" font-size="9.00" fill="#aaaaaa"> &#160;Key released</text>
</g>
<!-- VC_TYPE&#45;&gt;VC_IDLE -->
<g id="edge34" class="edge">
<title>VC_TYPE&#45;&gt;VC_IDLE</title>
<path fill="none" stroke="#88aacc" d="M3376.09,-407.22C3384.31,-428.26 3389.01,-453.75 3376,-473 3366.63,-486.86 3352.82,-496.95 3337.7,-504.3"/>
<polygon fill="#88aacc" stroke="#88aacc" points="3335.88,-501.28 3328.15,-508.53 3338.71,-507.68 3335.88,-501.28"/>
<text text-anchor="middle" x="3419" y="-460.8" font-family="Cascadia Code PL" font-size="9.00" fill="#aaaaaa"> &#160;Char inserted</text>
<text text-anchor="middle" x="3419" y="-450.8" font-family="Cascadia Code PL" font-size="9.00" fill="#aaaaaa"> &#160;cursor advanced</text>
</g>
<!-- CP_IDLE -->
<g id="node33" class="node">
<title>CP_IDLE</title>
<polygon fill="none" stroke="white" points="3610,-547 3504,-547 3504,-503 3610,-503 3610,-547"/>
<text text-anchor="middle" x="3557" y="-534.2" font-family="Cascadia Code PL" font-size="11.00" fill="cyan">18 · PICKUP IDLE</text>
<text text-anchor="middle" x="3557" y="-522.2" font-family="Cascadia Code PL" font-size="11.00" fill="cyan">─────────────────</text>
<text text-anchor="middle" x="3557" y="-510.2" font-family="Cascadia Code PL" font-size="11.00" fill="cyan">Waiting for Alt+U</text>
</g>
<!-- CP_SAMPLE -->
<g id="node34" class="node">
<title>CP_SAMPLE</title>
<polygon fill="none" stroke="white" points="3608.5,-413 3445.5,-413 3445.5,-321 3608.5,-321 3608.5,-413"/>
<text text-anchor="middle" x="3527" y="-400.2" font-family="Cascadia Code PL" font-size="11.00" fill="cyan">19 · SAMPLING</text>
<text text-anchor="middle" x="3527" y="-388.2" font-family="Cascadia Code PL" font-size="11.00" fill="cyan">─────────────────</text>
<text text-anchor="middle" x="3527" y="-376.2" font-family="Cascadia Code PL" font-size="11.00" fill="cyan">Read FG+BG from char</text>
<text text-anchor="middle" x="3527" y="-364.2" font-family="Cascadia Code PL" font-size="11.00" fill="cyan">at virtual cursor pos</text>
<text text-anchor="middle" x="3527" y="-352.2" font-family="Cascadia Code PL" font-size="11.00" fill="cyan">Resolve via line breaks</text>
<text text-anchor="middle" x="3527" y="-340.2" font-family="Cascadia Code PL" font-size="11.00" fill="cyan">Set PAINT_COLOR/BG_COLOR</text>
<text text-anchor="middle" x="3527" y="-328.2" font-family="Cascadia Code PL" font-size="11.00" fill="cyan">Update palette indices</text>
</g>
<!-- CP_IDLE&#45;&gt;CP_SAMPLE -->
<g id="edge35" class="edge">
<title>CP_IDLE&#45;&gt;CP_SAMPLE</title>
<path fill="none" stroke="#cc88ff" d="M3528.89,-502.8C3520.17,-494.57 3511.64,-484.36 3507,-473 3500.61,-457.35 3501.3,-439.54 3504.84,-423.1"/>
<polygon fill="#cc88ff" stroke="#cc88ff" points="3508.32,-423.61 3507.37,-413.06 3501.53,-421.9 3508.32,-423.61"/>
<text text-anchor="middle" x="3546.5" y="-460.8" font-family="Cascadia Code PL" font-size="9.00" fill="#aaaaaa"> &#160;Alt+U pressed</text>
<text text-anchor="middle" x="3546.5" y="-450.8" font-family="Cascadia Code PL" font-size="9.00" fill="#aaaaaa"> &#160;(char mode active)</text>
</g>
<!-- CP_SAMPLE&#45;&gt;CP_IDLE -->
<g id="edge36" class="edge">
<title>CP_SAMPLE&#45;&gt;CP_IDLE</title>
<path fill="none" stroke="#66cc66" d="M3570.05,-413.13C3576.6,-422.38 3582.37,-432.51 3586,-443 3591.83,-459.83 3585.93,-478.56 3577.97,-493.76"/>
<polygon fill="#66cc66" stroke="#66cc66" points="3574.77,-492.31 3572.84,-502.73 3580.85,-495.79 3574.77,-492.31"/>
<text text-anchor="middle" x="3619" y="-460.8" font-family="Cascadia Code PL" font-size="9.00" fill="#aaaaaa"> &#160;Colors applied</text>
<text text-anchor="middle" x="3619" y="-450.8" font-family="Cascadia Code PL" font-size="9.00" fill="#aaaaaa"> &#160;palette synced</text>
</g>
</g>
</svg>
