<?xml version="1.0" encoding="UTF-8" standalone="no"?>
<!DOCTYPE svg PUBLIC "-//W3C//DTD SVG 1.1//EN"
 "http://www.w3.org/Graphics/SVG/1.1/DTD/svg11.dtd">
<!-- Generated by graphviz version 2.42.4 (0)
 -->
<!-- Title: COLOR_MIXER Pages: 1 -->
<svg width="1472pt" height="539pt"
 viewBox="0.00 0.00 1471.50 539.00" xmlns="http://www.w3.org/2000/svg" xmlns:xlink="http://www.w3.org/1999/xlink">
<g id="graph0" class="graph" transform="scale(1 1) rotate(0) translate(4 535)">
<title>COLOR_MIXER</title>
<text text-anchor="middle" x="731.75" y="-507.8" font-family="Cascadia Code PL" font-size="24.00" fill="white">COLOR MIXER STATE MACHINE</text>
<g id="clust2" class="cluster">
<title>cluster_channels</title>
<polygon fill="transparent" stroke="orange" stroke-dasharray="5,2" points="384.5,-390 384.5,-489 942.5,-489 942.5,-390 384.5,-390"/>
<text text-anchor="middle" x="443.5" y="-476.2" font-family="Cascadia Code PL" font-size="11.00" fill="orange">EDITABLE CHANNELS</text>
</g>
<g id="clust3" class="cluster">
<title>cluster_persist</title>
<polygon fill="transparent" stroke="orange" stroke-dasharray="5,2" points="950.5,-390 950.5,-489 1246.5,-489 1246.5,-390 950.5,-390"/>
<text text-anchor="middle" x="991" y="-476.2" font-family="Cascadia Code PL" font-size="11.00" fill="orange">PERSISTENCE</text>
</g>
<g id="clust5" class="cluster">
<title>cluster_legend</title>
<polygon fill="transparent" stroke="white" stroke-dasharray="5,2" points="1254.5,-303.64 1254.5,-457.86 1455.5,-457.86 1455.5,-303.64 1254.5,-303.64"/>
<text text-anchor="middle" x="1282.5" y="-445.06" font-family="Cascadia Code PL" font-size="11.00" fill="white">LEGEND</text>
</g>
<!-- MAIN -->
<g id="node1" class="node">
<title>MAIN</title>
<polygon fill="none" stroke="orange" stroke-width="2" points="374.5,-447.5 371.5,-451.5 350.5,-451.5 347.5,-447.5 234.5,-447.5 234.5,-411.5 374.5,-411.5 374.5,-447.5"/>
<text text-anchor="middle" x="304.5" y="-426.1" font-family="Cascadia Code PL" font-size="13.00" fill="orange">COLOR MIXER PANEL</text>
</g>
<!-- S_HIDDEN -->
<g id="node2" class="node">
<title>S_HIDDEN</title>
<polygon fill="none" stroke="white" points="388,-352 221,-352 221,-272 388,-272 388,-352"/>
<text text-anchor="middle" x="304.5" y="-339.2" font-family="Cascadia Code PL" font-size="11.00" fill="cyan">1 · HIDDEN</text>
<text text-anchor="middle" x="304.5" y="-327.2" font-family="Cascadia Code PL" font-size="11.00" fill="cyan">─────────────────</text>
<text text-anchor="middle" x="304.5" y="-315.2" font-family="Cascadia Code PL" font-size="11.00" fill="cyan">COLOR_MIXER.show% = FALSE</text>
<text text-anchor="middle" x="304.5" y="-303.2" font-family="Cascadia Code PL" font-size="11.00" fill="cyan">Panel not rendered</text>
<text text-anchor="middle" x="304.5" y="-291.2" font-family="Cascadia Code PL" font-size="11.00" fill="cyan">View → Color Mixer (act 2021)</text>
<text text-anchor="middle" x="304.5" y="-279.2" font-family="Cascadia Code PL" font-size="11.00" fill="cyan">to toggle</text>
</g>
<!-- MAIN&#45;&gt;S_HIDDEN -->
<g id="edge9" class="edge">
<title>MAIN&#45;&gt;S_HIDDEN</title>
<path fill="none" stroke="#555555" stroke-dasharray="1,5" d="M304.5,-411.46C304.5,-395.9 304.5,-372.31 304.5,-352.12"/>
</g>
<!-- S_VISIBLE -->
<g id="node3" class="node">
<title>S_VISIBLE</title>
<polygon fill="none" stroke="white" points="386.5,-216 222.5,-216 222.5,-136 386.5,-136 386.5,-216"/>
<text text-anchor="middle" x="304.5" y="-203.2" font-family="Cascadia Code PL" font-size="11.00" fill="cyan">2 · VISIBLE</text>
<text text-anchor="middle" x="304.5" y="-191.2" font-family="Cascadia Code PL" font-size="11.00" fill="cyan">─────────────────</text>
<text text-anchor="middle" x="304.5" y="-179.2" font-family="Cascadia Code PL" font-size="11.00" fill="cyan">COLOR_MIXER.show% = TRUE</text>
<text text-anchor="middle" x="304.5" y="-167.2" font-family="Cascadia Code PL" font-size="11.00" fill="cyan">Floating panel drawn</text>
<text text-anchor="middle" x="304.5" y="-155.2" font-family="Cascadia Code PL" font-size="11.00" fill="cyan">Live sliders for FG color</text>
<text text-anchor="middle" x="304.5" y="-143.2" font-family="Cascadia Code PL" font-size="11.00" fill="cyan">RGB + HSV channels</text>
</g>
<!-- S_HIDDEN&#45;&gt;S_VISIBLE -->
<g id="edge1" class="edge">
<title>S_HIDDEN&#45;&gt;S_VISIBLE</title>
<path fill="none" stroke="#66cc66" d="M251.09,-271.91C246.44,-266.41 242.41,-260.43 239.5,-254 234.8,-243.63 236.69,-233.56 242.13,-224.3"/>
<polygon fill="#66cc66" stroke="#66cc66" points="245.06,-226.21 248.02,-216.04 239.36,-222.14 245.06,-226.21"/>
<text text-anchor="middle" x="294.5" y="-246.8" font-family="Cascadia Code PL" font-size="9.00" fill="#aaaaaa"> &#160;Action 2021 fired</text>
<text text-anchor="middle" x="294.5" y="-236.8" font-family="Cascadia Code PL" font-size="9.00" fill="#aaaaaa"> &#160;(View menu / Cmd palette)</text>
</g>
<!-- S_VISIBLE&#45;&gt;S_HIDDEN -->
<g id="edge2" class="edge">
<title>S_VISIBLE&#45;&gt;S_HIDDEN</title>
<path fill="none" stroke="#cc6666" stroke-dasharray="5,2" d="M342.98,-216.33C350.05,-228.01 353.97,-241.13 349.5,-254 348.42,-257.1 347.1,-260.15 345.6,-263.14"/>
<polygon fill="#cc6666" stroke="#cc6666" points="342.52,-261.48 340.59,-271.9 348.59,-264.96 342.52,-261.48"/>
<text text-anchor="middle" x="399.5" y="-246.8" font-family="Cascadia Code PL" font-size="9.00" fill="#aaaaaa"> &#160;Action 2021 fired again</text>
<text text-anchor="middle" x="399.5" y="-236.8" font-family="Cascadia Code PL" font-size="9.00" fill="#aaaaaa"> &#160;Close button clicked</text>
</g>
<!-- S_DRAGGING -->
<g id="node4" class="node">
<title>S_DRAGGING</title>
<polygon fill="none" stroke="white" points="163,-80 0,-80 0,0 163,0 163,-80"/>
<text text-anchor="middle" x="81.5" y="-67.2" font-family="Cascadia Code PL" font-size="11.00" fill="cyan">3 · DRAGGING SLIDER</text>
<text text-anchor="middle" x="81.5" y="-55.2" font-family="Cascadia Code PL" font-size="11.00" fill="cyan">─────────────────</text>
<text text-anchor="middle" x="81.5" y="-43.2" font-family="Cascadia Code PL" font-size="11.00" fill="cyan">MOUSE.B1% held</text>
<text text-anchor="middle" x="81.5" y="-31.2" font-family="Cascadia Code PL" font-size="11.00" fill="cyan">over R/G/B/H/S/V slider</text>
<text text-anchor="middle" x="81.5" y="-19.2" font-family="Cascadia Code PL" font-size="11.00" fill="cyan">Live update PAINT_COLOR~&amp;</text>
<text text-anchor="middle" x="81.5" y="-7.2" font-family="Cascadia Code PL" font-size="11.00" fill="cyan">SCENE_DIRTY% = TRUE</text>
</g>
<!-- S_VISIBLE&#45;&gt;S_DRAGGING -->
<g id="edge3" class="edge">
<title>S_VISIBLE&#45;&gt;S_DRAGGING</title>
<path fill="none" stroke="#66cc66" d="M222.22,-169.82C147.63,-163.2 45.64,-148.68 20.5,-118 12.73,-108.52 14.13,-98.29 20.17,-88.48"/>
<polygon fill="#66cc66" stroke="#66cc66" points="23.05,-90.48 26.23,-80.37 17.44,-86.29 23.05,-90.48"/>
<text text-anchor="middle" x="68" y="-105.8" font-family="Cascadia Code PL" font-size="9.00" fill="#aaaaaa"> &#160;B1 press on slider track</text>
</g>
<!-- S_TYPING -->
<g id="node5" class="node">
<title>S_TYPING</title>
<polygon fill="none" stroke="white" points="338,-80 217,-80 217,0 338,0 338,-80"/>
<text text-anchor="middle" x="277.5" y="-67.2" font-family="Cascadia Code PL" font-size="11.00" fill="cyan">4 · TYPING HEX</text>
<text text-anchor="middle" x="277.5" y="-55.2" font-family="Cascadia Code PL" font-size="11.00" fill="cyan">─────────────────</text>
<text text-anchor="middle" x="277.5" y="-43.2" font-family="Cascadia Code PL" font-size="11.00" fill="cyan">Focus on hex field</text>
<text text-anchor="middle" x="277.5" y="-31.2" font-family="Cascadia Code PL" font-size="11.00" fill="cyan">Input keyboard digits</text>
<text text-anchor="middle" x="277.5" y="-19.2" font-family="Cascadia Code PL" font-size="11.00" fill="cyan">Parse → _RGB32()</text>
<text text-anchor="middle" x="277.5" y="-7.2" font-family="Cascadia Code PL" font-size="11.00" fill="cyan">Apply on Enter</text>
</g>
<!-- S_VISIBLE&#45;&gt;S_TYPING -->
<g id="edge5" class="edge">
<title>S_VISIBLE&#45;&gt;S_TYPING</title>
<path fill="none" stroke="#66cc66" d="M262.38,-135.8C258.38,-130.22 254.92,-124.24 252.5,-118 248.99,-108.95 249.2,-99.19 251.36,-89.75"/>
<polygon fill="#66cc66" stroke="#66cc66" points="254.74,-90.66 254.26,-80.07 248.04,-88.65 254.74,-90.66"/>
<text text-anchor="middle" x="294" y="-105.8" font-family="Cascadia Code PL" font-size="9.00" fill="#aaaaaa"> &#160;Click hex input field</text>
</g>
<!-- S_PANEL_DRAG -->
<g id="node6" class="node">
<title>S_PANEL_DRAG</title>
<polygon fill="none" stroke="white" points="569.5,-74 435.5,-74 435.5,-6 569.5,-6 569.5,-74"/>
<text text-anchor="middle" x="502.5" y="-61.2" font-family="Cascadia Code PL" font-size="11.00" fill="cyan">5 · MOVING PANEL</text>
<text text-anchor="middle" x="502.5" y="-49.2" font-family="Cascadia Code PL" font-size="11.00" fill="cyan">─────────────────</text>
<text text-anchor="middle" x="502.5" y="-37.2" font-family="Cascadia Code PL" font-size="11.00" fill="cyan">MOUSE.B1% on title bar</text>
<text text-anchor="middle" x="502.5" y="-25.2" font-family="Cascadia Code PL" font-size="11.00" fill="cyan">Update panel X/Y</text>
<text text-anchor="middle" x="502.5" y="-13.2" font-family="Cascadia Code PL" font-size="11.00" fill="cyan">Clamp to work area</text>
</g>
<!-- S_VISIBLE&#45;&gt;S_PANEL_DRAG -->
<g id="edge7" class="edge">
<title>S_VISIBLE&#45;&gt;S_PANEL_DRAG</title>
<path fill="none" stroke="#66cc66" d="M383.57,-135.9C393.51,-130.22 403.38,-124.19 412.5,-118 428.72,-106.98 445.34,-93.49 459.81,-80.9"/>
<polygon fill="#66cc66" stroke="#66cc66" points="462.43,-83.25 467.62,-74.01 457.8,-78 462.43,-83.25"/>
<text text-anchor="middle" x="479.5" y="-105.8" font-family="Cascadia Code PL" font-size="9.00" fill="#aaaaaa"> &#160;B1 press on title bar</text>
</g>
<!-- S_DRAGGING&#45;&gt;S_VISIBLE -->
<g id="edge4" class="edge">
<title>S_DRAGGING&#45;&gt;S_VISIBLE</title>
<path fill="none" stroke="#cccc66" d="M112.87,-80.12C125.08,-93.49 139.89,-107.65 155.5,-118 173.04,-129.62 193.29,-139.37 213.1,-147.33"/>
<polygon fill="#cccc66" stroke="#cccc66" points="211.87,-150.61 222.46,-150.97 214.41,-144.08 211.87,-150.61"/>
<text text-anchor="middle" x="201" y="-110.8" font-family="Cascadia Code PL" font-size="9.00" fill="#aaaaaa"> &#160;B1 released</text>
<text text-anchor="middle" x="201" y="-100.8" font-family="Cascadia Code PL" font-size="9.00" fill="#aaaaaa"> &#160;Final color committed</text>
</g>
<!-- S_TYPING&#45;&gt;S_VISIBLE -->
<g id="edge6" class="edge">
<title>S_TYPING&#45;&gt;S_VISIBLE</title>
<path fill="none" stroke="#cccc66" d="M324.69,-80.02C329.05,-85.59 332.82,-91.62 335.5,-98 339.31,-107.07 338.87,-116.79 336.2,-126.15"/>
<polygon fill="#cccc66" stroke="#cccc66" points="332.84,-125.15 332.68,-135.74 339.41,-127.56 332.84,-125.15"/>
<text text-anchor="middle" x="373.5" y="-105.8" font-family="Cascadia Code PL" font-size="9.00" fill="#aaaaaa"> &#160;Enter / Esc / blur</text>
</g>
<!-- S_PANEL_DRAG&#45;&gt;S_VISIBLE -->
<g id="edge8" class="edge">
<title>S_PANEL_DRAG&#45;&gt;S_VISIBLE</title>
<path fill="none" stroke="#cccc66" d="M524.25,-74.22C530.9,-88.83 534.2,-105.47 524.5,-118 508.42,-138.78 449.54,-153.36 396.74,-162.57"/>
<polygon fill="#cccc66" stroke="#cccc66" points="395.89,-159.17 386.62,-164.29 397.06,-166.07 395.89,-159.17"/>
<text text-anchor="middle" x="555" y="-105.8" font-family="Cascadia Code PL" font-size="9.00" fill="#aaaaaa"> &#160;B1 released</text>
</g>
<!-- C_RGB -->
<g id="node7" class="node">
<title>C_RGB</title>
<polygon fill="none" stroke="white" points="934,-455.5 809,-455.5 809,-403.5 934,-403.5 934,-455.5"/>
<text text-anchor="middle" x="871.5" y="-443.5" font-family="Cascadia Code PL" font-size="10.00" fill="cyan">RGB Sliders</text>
<text text-anchor="middle" x="871.5" y="-432.5" font-family="Cascadia Code PL" font-size="10.00" fill="cyan">────────────</text>
<text text-anchor="middle" x="871.5" y="-421.5" font-family="Cascadia Code PL" font-size="10.00" fill="cyan">R / G / B (0–255)</text>
<text text-anchor="middle" x="871.5" y="-410.5" font-family="Cascadia Code PL" font-size="10.00" fill="cyan">Live update via _RGB32()</text>
</g>
<!-- C_HSV -->
<g id="node8" class="node">
<title>C_HSV</title>
<polygon fill="none" stroke="white" points="790.5,-461 678.5,-461 678.5,-398 790.5,-398 790.5,-461"/>
<text text-anchor="middle" x="734.5" y="-449" font-family="Cascadia Code PL" font-size="10.00" fill="cyan">HSV Sliders</text>
<text text-anchor="middle" x="734.5" y="-438" font-family="Cascadia Code PL" font-size="10.00" fill="cyan">────────────</text>
<text text-anchor="middle" x="734.5" y="-427" font-family="Cascadia Code PL" font-size="10.00" fill="cyan">H (0–360) S/V (0–100)</text>
<text text-anchor="middle" x="734.5" y="-416" font-family="Cascadia Code PL" font-size="10.00" fill="cyan">Convert HSV → RGB</text>
<text text-anchor="middle" x="734.5" y="-405" font-family="Cascadia Code PL" font-size="10.00" fill="cyan">on change</text>
</g>
<!-- C_ALPHA -->
<g id="node9" class="node">
<title>C_ALPHA</title>
<polygon fill="none" stroke="white" points="660.5,-461 544.5,-461 544.5,-398 660.5,-398 660.5,-461"/>
<text text-anchor="middle" x="602.5" y="-449" font-family="Cascadia Code PL" font-size="10.00" fill="cyan">Alpha Slider</text>
<text text-anchor="middle" x="602.5" y="-438" font-family="Cascadia Code PL" font-size="10.00" fill="cyan">────────────</text>
<text text-anchor="middle" x="602.5" y="-427" font-family="Cascadia Code PL" font-size="10.00" fill="cyan">A (0–255)</text>
<text text-anchor="middle" x="602.5" y="-416" font-family="Cascadia Code PL" font-size="10.00" fill="cyan">_RGBA32() builds</text>
<text text-anchor="middle" x="602.5" y="-405" font-family="Cascadia Code PL" font-size="10.00" fill="cyan">final PAINT_COLOR~&amp;</text>
</g>
<!-- C_HEX -->
<g id="node10" class="node">
<title>C_HEX</title>
<polygon fill="none" stroke="white" points="526,-455.5 393,-455.5 393,-403.5 526,-403.5 526,-455.5"/>
<text text-anchor="middle" x="459.5" y="-443.5" font-family="Cascadia Code PL" font-size="10.00" fill="cyan">Hex Input</text>
<text text-anchor="middle" x="459.5" y="-432.5" font-family="Cascadia Code PL" font-size="10.00" fill="cyan">────────────</text>
<text text-anchor="middle" x="459.5" y="-421.5" font-family="Cascadia Code PL" font-size="10.00" fill="cyan">#RRGGBB or #RRGGBBAA</text>
<text text-anchor="middle" x="459.5" y="-410.5" font-family="Cascadia Code PL" font-size="10.00" fill="cyan">Parsed on Enter</text>
</g>
<!-- P1 -->
<g id="node11" class="node">
<title>P1</title>
<polygon fill="none" stroke="white" points="1238.5,-461 1098.5,-461 1098.5,-398 1238.5,-398 1238.5,-461"/>
<text text-anchor="middle" x="1168.5" y="-449" font-family="Cascadia Code PL" font-size="10.00" fill="cyan">Visibility</text>
<text text-anchor="middle" x="1168.5" y="-438" font-family="Cascadia Code PL" font-size="10.00" fill="cyan">────────────</text>
<text text-anchor="middle" x="1168.5" y="-427" font-family="Cascadia Code PL" font-size="10.00" fill="cyan">COLOR_MIXER.show%</text>
<text text-anchor="middle" x="1168.5" y="-416" font-family="Cascadia Code PL" font-size="10.00" fill="cyan">saved to DRAW.cfg</text>
<text text-anchor="middle" x="1168.5" y="-405" font-family="Cascadia Code PL" font-size="10.00" fill="cyan">as COLOR_MIXER_VISIBLE%</text>
</g>
<!-- P2 -->
<g id="node12" class="node">
<title>P2</title>
<polygon fill="none" stroke="white" points="1080.5,-455.5 958.5,-455.5 958.5,-403.5 1080.5,-403.5 1080.5,-455.5"/>
<text text-anchor="middle" x="1019.5" y="-443.5" font-family="Cascadia Code PL" font-size="10.00" fill="cyan">Position</text>
<text text-anchor="middle" x="1019.5" y="-432.5" font-family="Cascadia Code PL" font-size="10.00" fill="cyan">────────────</text>
<text text-anchor="middle" x="1019.5" y="-421.5" font-family="Cascadia Code PL" font-size="10.00" fill="cyan">Panel X/Y persisted</text>
<text text-anchor="middle" x="1019.5" y="-410.5" font-family="Cascadia Code PL" font-size="10.00" fill="cyan">Alongside other panels</text>
</g>
<!-- L1 -->
<g id="node13" class="node">
<title>L1</title>
<ellipse fill="white" stroke="white" cx="1412.5" cy="-429.5" rx="0.36" ry="0.36"/>
</g>
<!-- L2 -->
<g id="node14" class="node">
<title>L2</title>
<ellipse fill="white" stroke="white" cx="1412.5" cy="-312" rx="0.36" ry="0.36"/>
</g>
<!-- L1&#45;&gt;L2 -->
<g id="edge10" class="edge">
<title>L1&#45;&gt;L2</title>
<path fill="none" stroke="#66cc66" d="M1412.5,-428.42C1412.5,-425.58 1412.5,-351.37 1412.5,-323.47"/>
<polygon fill="#66cc66" stroke="#66cc66" points="1416,-323.08 1412.5,-313.08 1409,-323.08 1416,-323.08"/>
<text text-anchor="middle" x="1430" y="-372.8" font-family="Cascadia Code PL" font-size="9.00" fill="#aaaaaa"> Activate</text>
</g>
<!-- L3 -->
<g id="node15" class="node">
<title>L3</title>
<ellipse fill="white" stroke="white" cx="1345.5" cy="-429.5" rx="0.36" ry="0.36"/>
</g>
<!-- L4 -->
<g id="node16" class="node">
<title>L4</title>
<ellipse fill="white" stroke="white" cx="1345.5" cy="-312" rx="0.36" ry="0.36"/>
</g>
<!-- L3&#45;&gt;L4 -->
<g id="edge11" class="edge">
<title>L3&#45;&gt;L4</title>
<path fill="none" stroke="#cc6666" stroke-dasharray="5,2" d="M1345.5,-428.42C1345.5,-425.58 1345.5,-351.37 1345.5,-323.47"/>
<polygon fill="#cc6666" stroke="#cc6666" points="1349,-323.08 1345.5,-313.08 1342,-323.08 1349,-323.08"/>
<text text-anchor="middle" x="1367.5" y="-372.8" font-family="Cascadia Code PL" font-size="9.00" fill="#aaaaaa"> Deactivate</text>
</g>
<!-- L5 -->
<g id="node17" class="node">
<title>L5</title>
<ellipse fill="white" stroke="white" cx="1280.5" cy="-429.5" rx="0.36" ry="0.36"/>
</g>
<!-- L6 -->
<g id="node18" class="node">
<title>L6</title>
<ellipse fill="white" stroke="white" cx="1280.5" cy="-312" rx="0.36" ry="0.36"/>
</g>
<!-- L5&#45;&gt;L6 -->
<g id="edge12" class="edge">
<title>L5&#45;&gt;L6</title>
<path fill="none" stroke="#cccc66" d="M1280.5,-428.42C1280.5,-425.58 1280.5,-351.37 1280.5,-323.47"/>
<polygon fill="#cccc66" stroke="#cccc66" points="1284,-323.08 1280.5,-313.08 1277,-323.08 1284,-323.08"/>
<text text-anchor="middle" x="1301.5" y="-372.8" font-family="Cascadia Code PL" font-size="9.00" fill="#aaaaaa"> Transition</text>
</g>
</g>
</svg>
