<?xml version="1.0" encoding="UTF-8" standalone="no"?>
<!DOCTYPE svg PUBLIC "-//W3C//DTD SVG 1.1//EN"
 "http://www.w3.org/Graphics/SVG/1.1/DTD/svg11.dtd">
<!-- Generated by graphviz version 2.42.4 (0)
 -->
<!-- Title: COMMAND_PALETTE Pages: 1 -->
<svg width="888pt" height="695pt"
 viewBox="0.00 0.00 888.00 695.00" xmlns="http://www.w3.org/2000/svg" xmlns:xlink="http://www.w3.org/1999/xlink">
<g id="graph0" class="graph" transform="scale(1 1) rotate(0) translate(4 691)">
<title>COMMAND_PALETTE</title>
<text text-anchor="middle" x="440" y="-663.8" font-family="Cascadia Code PL" font-size="24.00" fill="white">COMMAND PALETTE STATE MACHINE</text>
<g id="clust2" class="cluster">
<title>cluster_categories</title>
<polygon fill="transparent" stroke="orange" stroke-dasharray="5,2" points="161,-502 161,-645 373,-645 373,-502 161,-502"/>
<text text-anchor="middle" x="267" y="-632.2" font-family="Cascadia Code PL" font-size="11.00" fill="orange">COMMAND CATEGORIES — 15 GROUPS</text>
</g>
<g id="clust3" class="cluster">
<title>cluster_keyboard</title>
<polygon fill="transparent" stroke="orange" stroke-dasharray="5,2" points="381,-518.5 381,-628.5 631,-628.5 631,-518.5 381,-518.5"/>
<text text-anchor="middle" x="449.5" y="-615.7" font-family="Cascadia Code PL" font-size="11.00" fill="orange">KEYBOARD NAVIGATION</text>
</g>
<g id="clust6" class="cluster">
<title>cluster_legend</title>
<polygon fill="transparent" stroke="white" stroke-dasharray="5,2" points="639,-415.64 639,-591.86 872,-591.86 872,-415.64 639,-415.64"/>
<text text-anchor="middle" x="667" y="-579.06" font-family="Cascadia Code PL" font-size="11.00" fill="white">LEGEND</text>
</g>
<!-- MAIN -->
<g id="node1" class="node">
<title>MAIN</title>
<polygon fill="none" stroke="orange" stroke-width="2" points="152.5,-581.5 149.5,-585.5 128.5,-585.5 125.5,-581.5 15.5,-581.5 15.5,-545.5 152.5,-545.5 152.5,-581.5"/>
<text text-anchor="middle" x="84" y="-560.1" font-family="Cascadia Code PL" font-size="13.00" fill="orange">COMMAND PALETTE</text>
</g>
<!-- S_CLOSED -->
<g id="node2" class="node">
<title>S_CLOSED</title>
<polygon fill="none" stroke="white" points="149,-458 19,-458 19,-390 149,-390 149,-458"/>
<text text-anchor="middle" x="84" y="-445.2" font-family="Cascadia Code PL" font-size="11.00" fill="cyan">1 · CLOSED</text>
<text text-anchor="middle" x="84" y="-433.2" font-family="Cascadia Code PL" font-size="11.00" fill="cyan">─────────────────</text>
<text text-anchor="middle" x="84" y="-421.2" font-family="Cascadia Code PL" font-size="11.00" fill="cyan">CMD.VISIBLE% = FALSE</text>
<text text-anchor="middle" x="84" y="-409.2" font-family="Cascadia Code PL" font-size="11.00" fill="cyan">Not rendered</text>
<text text-anchor="middle" x="84" y="-397.2" font-family="Cascadia Code PL" font-size="11.00" fill="cyan">Normal keyboard input</text>
</g>
<!-- MAIN&#45;&gt;S_CLOSED -->
<g id="edge11" class="edge">
<title>MAIN&#45;&gt;S_CLOSED</title>
<path fill="none" stroke="#555555" stroke-dasharray="1,5" d="M84,-545.36C84,-523.62 84,-485.65 84,-458.16"/>
</g>
<!-- S_OPEN -->
<g id="node3" class="node">
<title>S_OPEN</title>
<polygon fill="none" stroke="white" points="406.5,-464 261.5,-464 261.5,-384 406.5,-384 406.5,-464"/>
<text text-anchor="middle" x="334" y="-451.2" font-family="Cascadia Code PL" font-size="11.00" fill="cyan">2 · OPEN</text>
<text text-anchor="middle" x="334" y="-439.2" font-family="Cascadia Code PL" font-size="11.00" fill="cyan">─────────────────</text>
<text text-anchor="middle" x="334" y="-427.2" font-family="Cascadia Code PL" font-size="11.00" fill="cyan">CMD.VISIBLE% = TRUE</text>
<text text-anchor="middle" x="334" y="-415.2" font-family="Cascadia Code PL" font-size="11.00" fill="cyan">Search box focused</text>
<text text-anchor="middle" x="334" y="-403.2" font-family="Cascadia Code PL" font-size="11.00" fill="cyan">All 200+ commands listed</text>
<text text-anchor="middle" x="334" y="-391.2" font-family="Cascadia Code PL" font-size="11.00" fill="cyan">Category filter active</text>
</g>
<!-- S_CLOSED&#45;&gt;S_OPEN -->
<g id="edge1" class="edge">
<title>S_CLOSED&#45;&gt;S_OPEN</title>
<path fill="none" stroke="#66cc66" d="M149.11,-393.42C152.34,-392.49 155.56,-391.67 158.75,-391 176.84,-387.18 220.75,-387.06 251.19,-391.44"/>
<polygon fill="#66cc66" stroke="#66cc66" points="250.89,-394.94 261.34,-393.18 252.07,-388.04 250.89,-394.94"/>
<text text-anchor="middle" x="205.25" y="-413.8" font-family="Cascadia Code PL" font-size="9.00" fill="#aaaaaa"> &#160;Ctrl+P / Menu</text>
<text text-anchor="middle" x="205.25" y="-403.8" font-family="Cascadia Code PL" font-size="9.00" fill="#aaaaaa"> &#160;CMD.VISIBLE% = TRUE</text>
<text text-anchor="middle" x="205.25" y="-393.8" font-family="Cascadia Code PL" font-size="9.00" fill="#aaaaaa"> &#160;Focus search input</text>
</g>
<!-- S_OPEN&#45;&gt;S_CLOSED -->
<g id="edge8" class="edge">
<title>S_OPEN&#45;&gt;S_CLOSED</title>
<path fill="none" stroke="#cc6666" stroke-dasharray="5,2" d="M261.36,-424C229.32,-424 191.68,-424 159.33,-424"/>
<polygon fill="#cc6666" stroke="#cc6666" points="159.03,-420.5 149.03,-424 159.03,-427.5 159.03,-420.5"/>
<text text-anchor="middle" x="205.25" y="-439.8" font-family="Cascadia Code PL" font-size="9.00" fill="#aaaaaa"> &#160;Escape</text>
<text text-anchor="middle" x="205.25" y="-429.8" font-family="Cascadia Code PL" font-size="9.00" fill="#aaaaaa"> &#160;CMD.VISIBLE% = FALSE</text>
</g>
<!-- S_SEARCHING -->
<g id="node4" class="node">
<title>S_SEARCHING</title>
<polygon fill="none" stroke="white" points="230,-328 100,-328 100,-248 230,-248 230,-328"/>
<text text-anchor="middle" x="165" y="-315.2" font-family="Cascadia Code PL" font-size="11.00" fill="cyan">3 · SEARCHING</text>
<text text-anchor="middle" x="165" y="-303.2" font-family="Cascadia Code PL" font-size="11.00" fill="cyan">─────────────────</text>
<text text-anchor="middle" x="165" y="-291.2" font-family="Cascadia Code PL" font-size="11.00" fill="cyan">Search text entered</text>
<text text-anchor="middle" x="165" y="-279.2" font-family="Cascadia Code PL" font-size="11.00" fill="cyan">CMD.SEARCH_TEXT$</text>
<text text-anchor="middle" x="165" y="-267.2" font-family="Cascadia Code PL" font-size="11.00" fill="cyan">Substring filter applied</text>
<text text-anchor="middle" x="165" y="-255.2" font-family="Cascadia Code PL" font-size="11.00" fill="cyan">Matching items shown</text>
</g>
<!-- S_OPEN&#45;&gt;S_SEARCHING -->
<g id="edge2" class="edge">
<title>S_OPEN&#45;&gt;S_SEARCHING</title>
<path fill="none" stroke="#66cc66" d="M284.66,-383.88C265.14,-368.4 242.57,-350.5 222.32,-334.45"/>
<polygon fill="#66cc66" stroke="#66cc66" points="224.41,-331.64 214.4,-328.17 220.06,-337.12 224.41,-331.64"/>
<text text-anchor="middle" x="296" y="-358.8" font-family="Cascadia Code PL" font-size="9.00" fill="#aaaaaa"> &#160;Type characters</text>
<text text-anchor="middle" x="296" y="-348.8" font-family="Cascadia Code PL" font-size="9.00" fill="#aaaaaa"> &#160;Filter updates live</text>
</g>
<!-- S_HOVER -->
<g id="node5" class="node">
<title>S_HOVER</title>
<polygon fill="none" stroke="white" points="288.5,-192 163.5,-192 163.5,-124 288.5,-124 288.5,-192"/>
<text text-anchor="middle" x="226" y="-179.2" font-family="Cascadia Code PL" font-size="11.00" fill="cyan">4 · ITEM HOVER</text>
<text text-anchor="middle" x="226" y="-167.2" font-family="Cascadia Code PL" font-size="11.00" fill="cyan">─────────────────</text>
<text text-anchor="middle" x="226" y="-155.2" font-family="Cascadia Code PL" font-size="11.00" fill="cyan">CMD.HOVER_IDX% set</text>
<text text-anchor="middle" x="226" y="-143.2" font-family="Cascadia Code PL" font-size="11.00" fill="cyan">Item highlighted</text>
<text text-anchor="middle" x="226" y="-131.2" font-family="Cascadia Code PL" font-size="11.00" fill="cyan">Description shown</text>
</g>
<!-- S_OPEN&#45;&gt;S_HOVER -->
<g id="edge4" class="edge">
<title>S_OPEN&#45;&gt;S_HOVER</title>
<path fill="none" stroke="#88aacc" d="M348.46,-383.75C362.68,-337.8 377.55,-261.45 342,-210 331.45,-194.73 315.25,-183.98 298.28,-176.44"/>
<polygon fill="#88aacc" stroke="#88aacc" points="299.38,-173.11 288.8,-172.57 296.73,-179.59 299.38,-173.11"/>
<text text-anchor="middle" x="399.5" y="-290.8" font-family="Cascadia Code PL" font-size="9.00" fill="#aaaaaa"> &#160;Mouse over item</text>
<text text-anchor="middle" x="399.5" y="-280.8" font-family="Cascadia Code PL" font-size="9.00" fill="#aaaaaa"> &#160;or ↑/↓ arrows</text>
</g>
<!-- S_SEARCHING&#45;&gt;S_CLOSED -->
<g id="edge9" class="edge">
<title>S_SEARCHING&#45;&gt;S_CLOSED</title>
<path fill="none" stroke="#cc6666" stroke-dasharray="5,2" d="M141.18,-328.41C131.12,-345.05 119.4,-364.43 109.2,-381.31"/>
<polygon fill="#cc6666" stroke="#cc6666" points="106.2,-379.51 104.02,-389.88 112.19,-383.13 106.2,-379.51"/>
<text text-anchor="middle" x="168" y="-358.8" font-family="Cascadia Code PL" font-size="9.00" fill="#aaaaaa"> &#160;Escape</text>
<text text-anchor="middle" x="168" y="-348.8" font-family="Cascadia Code PL" font-size="9.00" fill="#aaaaaa"> &#160;Clear search, close</text>
</g>
<!-- S_SEARCHING&#45;&gt;S_SEARCHING -->
<g id="edge3" class="edge">
<title>S_SEARCHING&#45;&gt;S_SEARCHING</title>
<path fill="none" stroke="#88aacc" d="M230.07,-299.8C240.7,-298.11 248,-294.18 248,-288 248,-284.04 245,-281.01 240.06,-278.89"/>
<polygon fill="#88aacc" stroke="#88aacc" points="240.64,-275.43 230.07,-276.2 238.82,-282.18 240.64,-275.43"/>
<text text-anchor="middle" x="291.5" y="-290.8" font-family="Cascadia Code PL" font-size="9.00" fill="#aaaaaa"> &#160;More typing / Delete</text>
<text text-anchor="middle" x="291.5" y="-280.8" font-family="Cascadia Code PL" font-size="9.00" fill="#aaaaaa"> &#160;Filter refines</text>
</g>
<!-- S_SEARCHING&#45;&gt;S_HOVER -->
<g id="edge5" class="edge">
<title>S_SEARCHING&#45;&gt;S_HOVER</title>
<path fill="none" stroke="#88aacc" d="M158.63,-247.99C158.21,-235.36 159.57,-221.63 165,-210 166.61,-206.55 168.59,-203.24 170.83,-200.1"/>
<polygon fill="#88aacc" stroke="#88aacc" points="173.71,-202.11 177.32,-192.15 168.28,-197.69 173.71,-202.11"/>
<text text-anchor="middle" x="215.5" y="-222.8" font-family="Cascadia Code PL" font-size="9.00" fill="#aaaaaa"> &#160;Mouse over filtered item</text>
<text text-anchor="middle" x="215.5" y="-212.8" font-family="Cascadia Code PL" font-size="9.00" fill="#aaaaaa"> &#160;or ↑/↓ arrows</text>
</g>
<!-- S_HOVER&#45;&gt;S_SEARCHING -->
<g id="edge10" class="edge">
<title>S_HOVER&#45;&gt;S_SEARCHING</title>
<path fill="none" stroke="#88aacc" d="M260.41,-192.35C268.59,-204.28 273.13,-217.78 266,-230 259.37,-241.36 249.54,-250.64 238.58,-258.15"/>
<polygon fill="#88aacc" stroke="#88aacc" points="236.6,-255.26 230.01,-263.56 240.34,-261.18 236.6,-255.26"/>
<text text-anchor="middle" x="303.5" y="-217.8" font-family="Cascadia Code PL" font-size="9.00" fill="#aaaaaa"> &#160;Continue typing</text>
</g>
<!-- S_EXECUTE -->
<g id="node6" class="node">
<title>S_EXECUTE</title>
<polygon fill="none" stroke="white" points="124,-68 0,-68 0,0 124,0 124,-68"/>
<text text-anchor="middle" x="62" y="-55.2" font-family="Cascadia Code PL" font-size="11.00" fill="cyan">5 · EXECUTE</text>
<text text-anchor="middle" x="62" y="-43.2" font-family="Cascadia Code PL" font-size="11.00" fill="cyan">─────────────────</text>
<text text-anchor="middle" x="62" y="-31.2" font-family="Cascadia Code PL" font-size="11.00" fill="cyan">CMD_execute_action()</text>
<text text-anchor="middle" x="62" y="-19.2" font-family="Cascadia Code PL" font-size="11.00" fill="cyan">Action ID dispatched</text>
<text text-anchor="middle" x="62" y="-7.2" font-family="Cascadia Code PL" font-size="11.00" fill="cyan">Palette closes</text>
</g>
<!-- S_HOVER&#45;&gt;S_EXECUTE -->
<g id="edge6" class="edge">
<title>S_HOVER&#45;&gt;S_EXECUTE</title>
<path fill="none" stroke="#cccc66" d="M181.62,-123.99C160.93,-108.59 136.15,-90.16 114.53,-74.08"/>
<polygon fill="#cccc66" stroke="#cccc66" points="116.53,-71.2 106.42,-68.04 112.35,-76.82 116.53,-71.2"/>
<text text-anchor="middle" x="215.5" y="-98.8" font-family="Cascadia Code PL" font-size="9.00" fill="#aaaaaa"> &#160;Enter / Click item</text>
<text text-anchor="middle" x="215.5" y="-88.8" font-family="Cascadia Code PL" font-size="9.00" fill="#aaaaaa"> &#160;CMD_execute_action(actionId)</text>
</g>
<!-- S_EXECUTE&#45;&gt;S_CLOSED -->
<g id="edge7" class="edge">
<title>S_EXECUTE&#45;&gt;S_CLOSED</title>
<path fill="none" stroke="#cc6666" stroke-dasharray="5,2" d="M61.51,-68.22C61.01,-103.42 60.28,-160.63 60,-210 59.95,-218.89 59.45,-221.13 60,-230 63.21,-281.82 71.22,-341.01 77.11,-380.03"/>
<polygon fill="#cc6666" stroke="#cc6666" points="73.66,-380.63 78.63,-389.99 80.58,-379.58 73.66,-380.63"/>
<text text-anchor="middle" x="107.5" y="-222.8" font-family="Cascadia Code PL" font-size="9.00" fill="#aaaaaa"> &#160;Action complete</text>
<text text-anchor="middle" x="107.5" y="-212.8" font-family="Cascadia Code PL" font-size="9.00" fill="#aaaaaa"> &#160;CMD.VISIBLE% = FALSE</text>
</g>
<!-- CAT_LIST -->
<g id="node7" class="node">
<title>CAT_LIST</title>
<polygon fill="none" stroke="white" points="317.5,-617 216.5,-617 216.5,-510 317.5,-510 317.5,-617"/>
<text text-anchor="middle" x="267" y="-605" font-family="Cascadia Code PL" font-size="10.00" fill="cyan">Categories</text>
<text text-anchor="middle" x="267" y="-594" font-family="Cascadia Code PL" font-size="10.00" fill="cyan">────────────</text>
<text text-anchor="middle" x="267" y="-583" font-family="Cascadia Code PL" font-size="10.00" fill="cyan">File, Edit, Select,</text>
<text text-anchor="middle" x="267" y="-572" font-family="Cascadia Code PL" font-size="10.00" fill="cyan">View, Image, Layer,</text>
<text text-anchor="middle" x="267" y="-561" font-family="Cascadia Code PL" font-size="10.00" fill="cyan">Brush, Tools,</text>
<text text-anchor="middle" x="267" y="-550" font-family="Cascadia Code PL" font-size="10.00" fill="cyan">Palette, Grid,</text>
<text text-anchor="middle" x="267" y="-539" font-family="Cascadia Code PL" font-size="10.00" fill="cyan">Symmetry, Preview,</text>
<text text-anchor="middle" x="267" y="-528" font-family="Cascadia Code PL" font-size="10.00" fill="cyan">Drawer, Transform,</text>
<text text-anchor="middle" x="267" y="-517" font-family="Cascadia Code PL" font-size="10.00" fill="cyan">Help</text>
</g>
<!-- KB_SEARCH -->
<g id="node8" class="node">
<title>KB_SEARCH</title>
<polygon fill="none" stroke="white" points="623,-600.5 525,-600.5 525,-526.5 623,-526.5 623,-600.5"/>
<text text-anchor="middle" x="574" y="-588.5" font-family="Cascadia Code PL" font-size="10.00" fill="cyan">Search Input</text>
<text text-anchor="middle" x="574" y="-577.5" font-family="Cascadia Code PL" font-size="10.00" fill="cyan">────────────</text>
<text text-anchor="middle" x="574" y="-566.5" font-family="Cascadia Code PL" font-size="10.00" fill="cyan">All typing goes to</text>
<text text-anchor="middle" x="574" y="-555.5" font-family="Cascadia Code PL" font-size="10.00" fill="cyan">search box</text>
<text text-anchor="middle" x="574" y="-544.5" font-family="Cascadia Code PL" font-size="10.00" fill="cyan">Backspace deletes</text>
<text text-anchor="middle" x="574" y="-533.5" font-family="Cascadia Code PL" font-size="10.00" fill="cyan">Active while open</text>
</g>
<!-- KB_NAV -->
<g id="node9" class="node">
<title>KB_NAV</title>
<polygon fill="none" stroke="white" points="507,-600.5 389,-600.5 389,-526.5 507,-526.5 507,-600.5"/>
<text text-anchor="middle" x="448" y="-588.5" font-family="Cascadia Code PL" font-size="10.00" fill="cyan">List Navigation</text>
<text text-anchor="middle" x="448" y="-577.5" font-family="Cascadia Code PL" font-size="10.00" fill="cyan">────────────</text>
<text text-anchor="middle" x="448" y="-566.5" font-family="Cascadia Code PL" font-size="10.00" fill="cyan">↑/↓ = Move highlight</text>
<text text-anchor="middle" x="448" y="-555.5" font-family="Cascadia Code PL" font-size="10.00" fill="cyan">Enter = Execute</text>
<text text-anchor="middle" x="448" y="-544.5" font-family="Cascadia Code PL" font-size="10.00" fill="cyan">PageUp/Down = Jump</text>
<text text-anchor="middle" x="448" y="-533.5" font-family="Cascadia Code PL" font-size="10.00" fill="cyan">Home/End = First/Last</text>
</g>
<!-- L1 -->
<g id="node10" class="node">
<title>L1</title>
<ellipse fill="white" stroke="white" cx="796" cy="-563.5" rx="0.36" ry="0.36"/>
</g>
<!-- L2 -->
<g id="node11" class="node">
<title>L2</title>
<ellipse fill="white" stroke="white" cx="796" cy="-424" rx="0.36" ry="0.36"/>
</g>
<!-- L1&#45;&gt;L2 -->
<g id="edge12" class="edge">
<title>L1&#45;&gt;L2</title>
<path fill="none" stroke="#66cc66" d="M796,-562.4C796,-558.94 796,-466.44 796,-435.2"/>
<polygon fill="#66cc66" stroke="#66cc66" points="799.5,-435.1 796,-425.1 792.5,-435.1 799.5,-435.1"/>
<text text-anchor="middle" x="830" y="-484.8" font-family="Cascadia Code PL" font-size="9.00" fill="#aaaaaa"> Open / Navigate</text>
</g>
<!-- L3 -->
<g id="node12" class="node">
<title>L3</title>
<ellipse fill="white" stroke="white" cx="749" cy="-563.5" rx="0.36" ry="0.36"/>
</g>
<!-- L4 -->
<g id="node13" class="node">
<title>L4</title>
<ellipse fill="white" stroke="white" cx="749" cy="-424" rx="0.36" ry="0.36"/>
</g>
<!-- L3&#45;&gt;L4 -->
<g id="edge13" class="edge">
<title>L3&#45;&gt;L4</title>
<path fill="none" stroke="#cc6666" stroke-dasharray="5,2" d="M749,-562.4C749,-558.94 749,-466.44 749,-435.2"/>
<polygon fill="#cc6666" stroke="#cc6666" points="752.5,-435.1 749,-425.1 745.5,-435.1 752.5,-435.1"/>
<text text-anchor="middle" x="761" y="-484.8" font-family="Cascadia Code PL" font-size="9.00" fill="#aaaaaa"> Close</text>
</g>
<!-- L5 -->
<g id="node14" class="node">
<title>L5</title>
<ellipse fill="white" stroke="white" cx="665" cy="-563.5" rx="0.36" ry="0.36"/>
</g>
<!-- L6 -->
<g id="node15" class="node">
<title>L6</title>
<ellipse fill="white" stroke="white" cx="665" cy="-424" rx="0.36" ry="0.36"/>
</g>
<!-- L5&#45;&gt;L6 -->
<g id="edge14" class="edge">
<title>L5&#45;&gt;L6</title>
<path fill="none" stroke="#cccc66" d="M665,-562.4C665,-558.94 665,-466.44 665,-435.2"/>
<polygon fill="#cccc66" stroke="#cccc66" points="668.5,-435.1 665,-425.1 661.5,-435.1 668.5,-435.1"/>
<text text-anchor="middle" x="695.5" y="-484.8" font-family="Cascadia Code PL" font-size="9.00" fill="#aaaaaa"> Execute Action</text>
</g>
</g>
</svg>
