<?xml version="1.0" encoding="UTF-8" standalone="no"?>
<!DOCTYPE svg PUBLIC "-//W3C//DTD SVG 1.1//EN"
 "http://www.w3.org/Graphics/SVG/1.1/DTD/svg11.dtd">
<!-- Generated by graphviz version 2.42.4 (0)
 -->
<!-- Title: DIALOGS Pages: 1 -->
<svg width="2204pt" height="552pt"
 viewBox="0.00 0.00 2203.50 552.00" xmlns="http://www.w3.org/2000/svg" xmlns:xlink="http://www.w3.org/1999/xlink">
<g id="graph0" class="graph" transform="scale(1 1) rotate(0) translate(4 548)">
<title>DIALOGS</title>
<text text-anchor="middle" x="1097.75" y="-520.8" font-family="Cascadia Code PL" font-size="24.00" fill="white">DIALOGS STATE MACHINE</text>
<g id="clust5" class="cluster">
<title>cluster_legend</title>
<polygon fill="transparent" stroke="white" stroke-dasharray="5,2" points="1913.5,-323.64 1913.5,-476.36 2187.5,-476.36 2187.5,-323.64 1913.5,-323.64"/>
<text text-anchor="middle" x="1941.5" y="-463.56" font-family="Cascadia Code PL" font-size="11.00" fill="white">LEGEND</text>
</g>
<g id="clust2" class="cluster">
<title>cluster_overlay</title>
<polygon fill="transparent" stroke="orange" stroke-dasharray="5,2" points="674.5,-8 674.5,-386 958.5,-386 958.5,-8 674.5,-8"/>
<text text-anchor="middle" x="816.5" y="-373.2" font-family="Cascadia Code PL" font-size="11.00" fill="orange">IMAGE ADJUSTMENT OVERLAYS — GUI/IMAGE&#45;ADJ.BM</text>
</g>
<g id="clust3" class="cluster">
<title>cluster_adj_types</title>
<polygon fill="transparent" stroke="orange" stroke-dasharray="5,2" points="891.5,-414 891.5,-502 1905.5,-502 1905.5,-414 891.5,-414"/>
<text text-anchor="middle" x="949.5" y="-489.2" font-family="Cascadia Code PL" font-size="11.00" fill="orange">ADJUSTMENT TYPES</text>
</g>
<!-- NATIVE -->
<g id="node1" class="node">
<title>NATIVE</title>
<polygon fill="none" stroke="orange" stroke-width="2" points="420.5,-466 417.5,-470 396.5,-470 393.5,-466 304.5,-466 304.5,-430 420.5,-430 420.5,-466"/>
<text text-anchor="middle" x="362.5" y="-444.6" font-family="Cascadia Code PL" font-size="13.00" fill="orange">NATIVE DIALOGS</text>
</g>
<!-- N_IDLE -->
<g id="node3" class="node">
<title>N_IDLE</title>
<polygon fill="none" stroke="white" points="431,-366 294,-366 294,-298 431,-298 431,-366"/>
<text text-anchor="middle" x="362.5" y="-353.2" font-family="Cascadia Code PL" font-size="11.00" fill="cyan">1 · NO DIALOG</text>
<text text-anchor="middle" x="362.5" y="-341.2" font-family="Cascadia Code PL" font-size="11.00" fill="cyan">─────────────────</text>
<text text-anchor="middle" x="362.5" y="-329.2" font-family="Cascadia Code PL" font-size="11.00" fill="cyan">Normal application state</text>
<text text-anchor="middle" x="362.5" y="-317.2" font-family="Cascadia Code PL" font-size="11.00" fill="cyan">All input processed</text>
<text text-anchor="middle" x="362.5" y="-305.2" font-family="Cascadia Code PL" font-size="11.00" fill="cyan">Dialogs closed</text>
</g>
<!-- NATIVE&#45;&gt;N_IDLE -->
<g id="edge13" class="edge">
<title>NATIVE&#45;&gt;N_IDLE</title>
<path fill="none" stroke="#555555" stroke-dasharray="1,5" d="M362.5,-429.69C362.5,-412.87 362.5,-386.9 362.5,-366.11"/>
</g>
<!-- OVERLAY -->
<g id="node2" class="node">
<title>OVERLAY</title>
<polygon fill="none" stroke="orange" stroke-width="2" points="881.5,-466 878.5,-470 857.5,-470 854.5,-466 755.5,-466 755.5,-430 881.5,-430 881.5,-466"/>
<text text-anchor="middle" x="818.5" y="-444.6" font-family="Cascadia Code PL" font-size="13.00" fill="orange">OVERLAY DIALOGS</text>
</g>
<!-- O_CLOSED -->
<g id="node8" class="node">
<title>O_CLOSED</title>
<polygon fill="none" stroke="white" points="885,-358 752,-358 752,-306 885,-306 885,-358"/>
<text text-anchor="middle" x="818.5" y="-346" font-family="Cascadia Code PL" font-size="10.00" fill="cyan">No Overlay</text>
<text text-anchor="middle" x="818.5" y="-335" font-family="Cascadia Code PL" font-size="10.00" fill="cyan">────────────</text>
<text text-anchor="middle" x="818.5" y="-324" font-family="Cascadia Code PL" font-size="10.00" fill="cyan">IMGADJ.ACTIVE% = FALSE</text>
<text text-anchor="middle" x="818.5" y="-313" font-family="Cascadia Code PL" font-size="10.00" fill="cyan">Normal canvas editing</text>
</g>
<!-- OVERLAY&#45;&gt;O_CLOSED -->
<g id="edge14" class="edge">
<title>OVERLAY&#45;&gt;O_CLOSED</title>
<path fill="none" stroke="#555555" stroke-dasharray="1,5" d="M818.5,-429.69C818.5,-417.95 818.5,-401.77 818.5,-386"/>
</g>
<!-- N_FILE_OPEN -->
<g id="node4" class="node">
<title>N_FILE_OPEN</title>
<polygon fill="none" stroke="white" points="221,-235 0,-235 0,-155 221,-155 221,-235"/>
<text text-anchor="middle" x="110.5" y="-222.2" font-family="Cascadia Code PL" font-size="11.00" fill="cyan">2 · FILE OPEN DIALOG</text>
<text text-anchor="middle" x="110.5" y="-210.2" font-family="Cascadia Code PL" font-size="11.00" fill="cyan">─────────────────</text>
<text text-anchor="middle" x="110.5" y="-198.2" font-family="Cascadia Code PL" font-size="11.00" fill="cyan">_OPENFILEDIALOG$()</text>
<text text-anchor="middle" x="110.5" y="-186.2" font-family="Cascadia Code PL" font-size="11.00" fill="cyan">OS native dialog</text>
<text text-anchor="middle" x="110.5" y="-174.2" font-family="Cascadia Code PL" font-size="11.00" fill="cyan">Blocking call</text>
<text text-anchor="middle" x="110.5" y="-162.2" font-family="Cascadia Code PL" font-size="11.00" fill="cyan">Deferred via MOUSE.DEFERRED_ACTION%</text>
</g>
<!-- N_IDLE&#45;&gt;N_FILE_OPEN -->
<g id="edge1" class="edge">
<title>N_IDLE&#45;&gt;N_FILE_OPEN</title>
<path fill="none" stroke="#66cc66" d="M293.65,-326.84C251.69,-321.3 198.92,-308.64 160.5,-280 148.12,-270.77 138.22,-257.49 130.61,-244.2"/>
<polygon fill="#66cc66" stroke="#66cc66" points="133.51,-242.21 125.7,-235.05 127.34,-245.52 133.51,-242.21"/>
<text text-anchor="middle" x="221" y="-269.3" font-family="Cascadia Code PL" font-size="9.00" fill="#aaaaaa"> &#160;DEFERRED_ACTION% = 2/3</text>
<text text-anchor="middle" x="221" y="-259.3" font-family="Cascadia Code PL" font-size="9.00" fill="#aaaaaa"> &#160;MOUSE_input_handler_loop()</text>
</g>
<!-- N_FILE_SAVE -->
<g id="node5" class="node">
<title>N_FILE_SAVE</title>
<polygon fill="none" stroke="white" points="358,-229 239,-229 239,-161 358,-161 358,-229"/>
<text text-anchor="middle" x="298.5" y="-216.2" font-family="Cascadia Code PL" font-size="11.00" fill="cyan">3 · FILE SAVE DIALOG</text>
<text text-anchor="middle" x="298.5" y="-204.2" font-family="Cascadia Code PL" font-size="11.00" fill="cyan">─────────────────</text>
<text text-anchor="middle" x="298.5" y="-192.2" font-family="Cascadia Code PL" font-size="11.00" fill="cyan">_SAVEFILEDIALOG$()</text>
<text text-anchor="middle" x="298.5" y="-180.2" font-family="Cascadia Code PL" font-size="11.00" fill="cyan">OS native dialog</text>
<text text-anchor="middle" x="298.5" y="-168.2" font-family="Cascadia Code PL" font-size="11.00" fill="cyan">Blocking call</text>
</g>
<!-- N_IDLE&#45;&gt;N_FILE_SAVE -->
<g id="edge2" class="edge">
<title>N_IDLE&#45;&gt;N_FILE_SAVE</title>
<path fill="none" stroke="#66cc66" d="M304.97,-297.87C299.59,-292.57 294.89,-286.62 291.5,-280 285.17,-267.65 284.49,-252.93 286.14,-239.28"/>
<polygon fill="#66cc66" stroke="#66cc66" points="289.64,-239.54 287.8,-229.11 282.73,-238.41 289.64,-239.54"/>
<text text-anchor="middle" x="352" y="-269.3" font-family="Cascadia Code PL" font-size="9.00" fill="#aaaaaa"> &#160;DEFERRED_ACTION% = 1/4</text>
<text text-anchor="middle" x="352" y="-259.3" font-family="Cascadia Code PL" font-size="9.00" fill="#aaaaaa"> &#160;MOUSE_input_handler_loop()</text>
</g>
<!-- N_MESSAGE -->
<g id="node6" class="node">
<title>N_MESSAGE</title>
<polygon fill="none" stroke="white" points="519,-235 376,-235 376,-155 519,-155 519,-235"/>
<text text-anchor="middle" x="447.5" y="-222.2" font-family="Cascadia Code PL" font-size="11.00" fill="cyan">4 · MESSAGE BOX</text>
<text text-anchor="middle" x="447.5" y="-210.2" font-family="Cascadia Code PL" font-size="11.00" fill="cyan">─────────────────</text>
<text text-anchor="middle" x="447.5" y="-198.2" font-family="Cascadia Code PL" font-size="11.00" fill="cyan">_MESSAGEBOX()</text>
<text text-anchor="middle" x="447.5" y="-186.2" font-family="Cascadia Code PL" font-size="11.00" fill="cyan">Confirmation dialogs</text>
<text text-anchor="middle" x="447.5" y="-174.2" font-family="Cascadia Code PL" font-size="11.00" fill="cyan">Unsaved changes warning</text>
<text text-anchor="middle" x="447.5" y="-162.2" font-family="Cascadia Code PL" font-size="11.00" fill="cyan">Return: OK/Cancel</text>
</g>
<!-- N_IDLE&#45;&gt;N_MESSAGE -->
<g id="edge3" class="edge">
<title>N_IDLE&#45;&gt;N_MESSAGE</title>
<path fill="none" stroke="#66cc66" d="M398.32,-298C403.46,-292.3 408.39,-286.2 412.5,-280 419.66,-269.19 425.83,-256.68 430.9,-244.67"/>
<polygon fill="#66cc66" stroke="#66cc66" points="434.23,-245.77 434.73,-235.19 427.74,-243.15 434.23,-245.77"/>
<text text-anchor="middle" x="484" y="-269.3" font-family="Cascadia Code PL" font-size="9.00" fill="#aaaaaa"> &#160;Unsaved changes / confirm</text>
<text text-anchor="middle" x="484" y="-259.3" font-family="Cascadia Code PL" font-size="9.00" fill="#aaaaaa"> &#160;CMD_execute_action()</text>
</g>
<!-- N_CLEANUP -->
<g id="node7" class="node">
<title>N_CLEANUP</title>
<polygon fill="none" stroke="white" points="465,-99 300,-99 300,-7 465,-7 465,-99"/>
<text text-anchor="middle" x="382.5" y="-86.2" font-family="Cascadia Code PL" font-size="11.00" fill="cyan">5 · POST&#45;DIALOG CLEANUP</text>
<text text-anchor="middle" x="382.5" y="-74.2" font-family="Cascadia Code PL" font-size="11.00" fill="cyan">─────────────────</text>
<text text-anchor="middle" x="382.5" y="-62.2" font-family="Cascadia Code PL" font-size="11.00" fill="cyan">MOUSE_cleanup_after_dialog()</text>
<text text-anchor="middle" x="382.5" y="-50.2" font-family="Cascadia Code PL" font-size="11.00" fill="cyan">Drain mouse buffer</text>
<text text-anchor="middle" x="382.5" y="-38.2" font-family="Cascadia Code PL" font-size="11.00" fill="cyan">Force buttons up</text>
<text text-anchor="middle" x="382.5" y="-26.2" font-family="Cascadia Code PL" font-size="11.00" fill="cyan">SUPPRESS_FRAMES% = 2</text>
<text text-anchor="middle" x="382.5" y="-14.2" font-family="Cascadia Code PL" font-size="11.00" fill="cyan">Clear keyboard buffer</text>
</g>
<!-- N_FILE_OPEN&#45;&gt;N_CLEANUP -->
<g id="edge4" class="edge">
<title>N_FILE_OPEN&#45;&gt;N_CLEANUP</title>
<path fill="none" stroke="#cccc66" d="M163.24,-154.92C182.04,-141.94 203.71,-128 224.5,-117 245.28,-106 268.42,-95.75 290.44,-86.85"/>
<polygon fill="#cccc66" stroke="#cccc66" points="291.81,-90.07 299.8,-83.11 289.22,-83.57 291.81,-90.07"/>
<text text-anchor="middle" x="267.5" y="-129.8" font-family="Cascadia Code PL" font-size="9.00" fill="#aaaaaa"> &#160;Dialog returns path$</text>
<text text-anchor="middle" x="267.5" y="-119.8" font-family="Cascadia Code PL" font-size="9.00" fill="#aaaaaa"> &#160;or empty (cancelled)</text>
</g>
<!-- N_FILE_SAVE&#45;&gt;N_CLEANUP -->
<g id="edge5" class="edge">
<title>N_FILE_SAVE&#45;&gt;N_CLEANUP</title>
<path fill="none" stroke="#cccc66" d="M305.84,-160.81C309.82,-146.7 315.57,-130.43 323.5,-117 325.4,-113.78 327.49,-110.59 329.72,-107.45"/>
<polygon fill="#cccc66" stroke="#cccc66" points="332.66,-109.37 335.89,-99.28 327.07,-105.15 332.66,-109.37"/>
<text text-anchor="middle" x="366.5" y="-129.8" font-family="Cascadia Code PL" font-size="9.00" fill="#aaaaaa"> &#160;Dialog returns path$</text>
<text text-anchor="middle" x="366.5" y="-119.8" font-family="Cascadia Code PL" font-size="9.00" fill="#aaaaaa"> &#160;or empty (cancelled)</text>
</g>
<!-- N_MESSAGE&#45;&gt;N_CLEANUP -->
<g id="edge6" class="edge">
<title>N_MESSAGE&#45;&gt;N_CLEANUP</title>
<path fill="none" stroke="#cccc66" d="M429.22,-154.63C422.6,-140.36 414.99,-123.98 407.87,-108.64"/>
<polygon fill="#cccc66" stroke="#cccc66" points="410.89,-106.84 403.51,-99.25 404.54,-109.79 410.89,-106.84"/>
<text text-anchor="middle" x="467" y="-124.8" font-family="Cascadia Code PL" font-size="9.00" fill="#aaaaaa"> &#160;User clicks OK/Cancel</text>
</g>
<!-- N_CLEANUP&#45;&gt;N_IDLE -->
<g id="edge7" class="edge">
<title>N_CLEANUP&#45;&gt;N_IDLE</title>
<path fill="none" stroke="#cc6666" stroke-dasharray="5,2" d="M465.1,-79.53C484.15,-88.74 502.81,-100.97 516.5,-117 540.36,-144.95 566.71,-250.71 544.5,-280 531.53,-297.1 484.3,-310.04 441.2,-318.61"/>
<polygon fill="#cc6666" stroke="#cc6666" points="440.38,-315.2 431.22,-320.53 441.7,-322.08 440.38,-315.2"/>
<text text-anchor="middle" x="605.5" y="-197.8" font-family="Cascadia Code PL" font-size="9.00" fill="#aaaaaa"> &#160;SUPPRESS_FRAMES% = 0</text>
<text text-anchor="middle" x="605.5" y="-187.8" font-family="Cascadia Code PL" font-size="9.00" fill="#aaaaaa"> &#160;Input restored</text>
</g>
<!-- O_OPEN -->
<g id="node9" class="node">
<title>O_OPEN</title>
<polygon fill="none" stroke="white" points="817,-232 686,-232 686,-158 817,-158 817,-232"/>
<text text-anchor="middle" x="751.5" y="-220" font-family="Cascadia Code PL" font-size="10.00" fill="cyan">Overlay Open</text>
<text text-anchor="middle" x="751.5" y="-209" font-family="Cascadia Code PL" font-size="10.00" fill="cyan">────────────</text>
<text text-anchor="middle" x="751.5" y="-198" font-family="Cascadia Code PL" font-size="10.00" fill="cyan">IMGADJ.ACTIVE% = TRUE</text>
<text text-anchor="middle" x="751.5" y="-187" font-family="Cascadia Code PL" font-size="10.00" fill="cyan">Modal overlay panel</text>
<text text-anchor="middle" x="751.5" y="-176" font-family="Cascadia Code PL" font-size="10.00" fill="cyan">Live preview active</text>
<text text-anchor="middle" x="751.5" y="-165" font-family="Cascadia Code PL" font-size="10.00" fill="cyan">Sliders visible</text>
</g>
<!-- O_CLOSED&#45;&gt;O_OPEN -->
<g id="edge8" class="edge">
<title>O_CLOSED&#45;&gt;O_OPEN</title>
<path fill="none" stroke="#66cc66" d="M800.27,-305.97C794.82,-297.9 789.08,-288.77 784.5,-280 778.2,-267.94 772.38,-254.39 767.43,-241.75"/>
<polygon fill="#66cc66" stroke="#66cc66" points="770.66,-240.4 763.83,-232.31 764.12,-242.9 770.66,-240.4"/>
<text text-anchor="middle" x="816.5" y="-273.6" font-family="Cascadia Code PL" font-size="8.00" fill="#aaaaaa"> Menu action</text>
<text text-anchor="middle" x="816.5" y="-264.6" font-family="Cascadia Code PL" font-size="8.00" fill="#aaaaaa"> (Brightness, Hue,</text>
<text text-anchor="middle" x="816.5" y="-255.6" font-family="Cascadia Code PL" font-size="8.00" fill="#aaaaaa"> Levels, Blur, etc.)</text>
</g>
<!-- O_ADJUSTING -->
<g id="node10" class="node">
<title>O_ADJUSTING</title>
<polygon fill="none" stroke="white" points="796.5,-84.5 686.5,-84.5 686.5,-21.5 796.5,-21.5 796.5,-84.5"/>
<text text-anchor="middle" x="741.5" y="-72.5" font-family="Cascadia Code PL" font-size="10.00" fill="cyan">Adjusting Values</text>
<text text-anchor="middle" x="741.5" y="-61.5" font-family="Cascadia Code PL" font-size="10.00" fill="cyan">────────────</text>
<text text-anchor="middle" x="741.5" y="-50.5" font-family="Cascadia Code PL" font-size="10.00" fill="cyan">Slider drag active</text>
<text text-anchor="middle" x="741.5" y="-39.5" font-family="Cascadia Code PL" font-size="10.00" fill="cyan">Live preview updates</text>
<text text-anchor="middle" x="741.5" y="-28.5" font-family="Cascadia Code PL" font-size="10.00" fill="cyan">Before/after toggle</text>
</g>
<!-- O_OPEN&#45;&gt;O_ADJUSTING -->
<g id="edge9" class="edge">
<title>O_OPEN&#45;&gt;O_ADJUSTING</title>
<path fill="none" stroke="#66cc66" d="M713.35,-157.92C708.51,-151.45 704.28,-144.39 701.5,-137 696,-122.39 700.51,-106.85 708.2,-93.22"/>
<polygon fill="#66cc66" stroke="#66cc66" points="711.28,-94.89 713.63,-84.56 705.35,-91.17 711.28,-94.89"/>
<text text-anchor="middle" x="722.5" y="-125.1" font-family="Cascadia Code PL" font-size="8.00" fill="#aaaaaa"> Drag slider</text>
</g>
<!-- O_COMMIT -->
<g id="node11" class="node">
<title>O_COMMIT</title>
<polygon fill="none" stroke="white" points="948.5,-90 816.5,-90 816.5,-16 948.5,-16 948.5,-90"/>
<text text-anchor="middle" x="882.5" y="-78" font-family="Cascadia Code PL" font-size="10.00" fill="cyan">Apply / Cancel</text>
<text text-anchor="middle" x="882.5" y="-67" font-family="Cascadia Code PL" font-size="10.00" fill="cyan">────────────</text>
<text text-anchor="middle" x="882.5" y="-56" font-family="Cascadia Code PL" font-size="10.00" fill="cyan">OK = Apply to canvas</text>
<text text-anchor="middle" x="882.5" y="-45" font-family="Cascadia Code PL" font-size="10.00" fill="cyan"> &#160;HISTORY_record_brush()</text>
<text text-anchor="middle" x="882.5" y="-34" font-family="Cascadia Code PL" font-size="10.00" fill="cyan">Cancel = Revert preview</text>
<text text-anchor="middle" x="882.5" y="-23" font-family="Cascadia Code PL" font-size="10.00" fill="cyan"> &#160;Restore original</text>
</g>
<!-- O_OPEN&#45;&gt;O_COMMIT -->
<g id="edge11" class="edge">
<title>O_OPEN&#45;&gt;O_COMMIT</title>
<path fill="none" stroke="#cccc66" d="M785.24,-157.95C802.37,-139.64 823.33,-117.24 841.4,-97.93"/>
<polygon fill="#cccc66" stroke="#cccc66" points="844.15,-100.11 848.42,-90.42 839.04,-95.33 844.15,-100.11"/>
<text text-anchor="middle" x="873" y="-125.1" font-family="Cascadia Code PL" font-size="8.00" fill="#aaaaaa"> OK / Cancel / Enter / Escape</text>
</g>
<!-- O_ADJUSTING&#45;&gt;O_OPEN -->
<g id="edge10" class="edge">
<title>O_ADJUSTING&#45;&gt;O_OPEN</title>
<path fill="none" stroke="#88aacc" d="M743.69,-84.71C745.01,-103.18 746.72,-127.04 748.2,-147.76"/>
<polygon fill="#88aacc" stroke="#88aacc" points="744.72,-148.22 748.92,-157.95 751.7,-147.72 744.72,-148.22"/>
<text text-anchor="middle" x="773.5" y="-125.1" font-family="Cascadia Code PL" font-size="8.00" fill="#aaaaaa"> Release slider</text>
</g>
<!-- O_COMMIT&#45;&gt;O_CLOSED -->
<g id="edge12" class="edge">
<title>O_COMMIT&#45;&gt;O_CLOSED</title>
<path fill="none" stroke="#cc6666" stroke-dasharray="5,2" d="M917.01,-90.32C926.3,-104.26 932.74,-120.74 928.5,-137 912.49,-198.39 871.91,-260.68 844.77,-297.56"/>
<polygon fill="#cc6666" stroke="#cc6666" points="841.7,-295.82 838.52,-305.92 847.31,-300.01 841.7,-295.82"/>
<text text-anchor="middle" x="971" y="-197.6" font-family="Cascadia Code PL" font-size="8.00" fill="#aaaaaa"> Dialog closes</text>
<text text-anchor="middle" x="971" y="-188.6" font-family="Cascadia Code PL" font-size="8.00" fill="#aaaaaa"> IMGADJ.ACTIVE% = FALSE</text>
</g>
<!-- ADJ_BC -->
<g id="node12" class="node">
<title>ADJ_BC</title>
<polygon fill="none" stroke="white" points="1897.5,-468.5 1781.5,-468.5 1781.5,-427.5 1897.5,-427.5 1897.5,-468.5"/>
<text text-anchor="middle" x="1839.5" y="-456.5" font-family="Cascadia Code PL" font-size="10.00" fill="cyan">Brightness/Contrast</text>
<text text-anchor="middle" x="1839.5" y="-445.5" font-family="Cascadia Code PL" font-size="10.00" fill="cyan">────────────</text>
<text text-anchor="middle" x="1839.5" y="-434.5" font-family="Cascadia Code PL" font-size="10.00" fill="cyan">2 sliders: &#45;100 to +100</text>
</g>
<!-- ADJ_HS -->
<g id="node13" class="node">
<title>ADJ_HS</title>
<polygon fill="none" stroke="white" points="1763.5,-468.5 1639.5,-468.5 1639.5,-427.5 1763.5,-427.5 1763.5,-468.5"/>
<text text-anchor="middle" x="1701.5" y="-456.5" font-family="Cascadia Code PL" font-size="10.00" fill="cyan">Hue/Saturation</text>
<text text-anchor="middle" x="1701.5" y="-445.5" font-family="Cascadia Code PL" font-size="10.00" fill="cyan">────────────</text>
<text text-anchor="middle" x="1701.5" y="-434.5" font-family="Cascadia Code PL" font-size="10.00" fill="cyan">3 sliders: Hue, Sat, Light</text>
</g>
<!-- ADJ_LV -->
<g id="node14" class="node">
<title>ADJ_LV</title>
<polygon fill="none" stroke="white" points="1621.5,-474 1483.5,-474 1483.5,-422 1621.5,-422 1621.5,-474"/>
<text text-anchor="middle" x="1552.5" y="-462" font-family="Cascadia Code PL" font-size="10.00" fill="cyan">Levels</text>
<text text-anchor="middle" x="1552.5" y="-451" font-family="Cascadia Code PL" font-size="10.00" fill="cyan">────────────</text>
<text text-anchor="middle" x="1552.5" y="-440" font-family="Cascadia Code PL" font-size="10.00" fill="cyan">Histogram + input/output</text>
<text text-anchor="middle" x="1552.5" y="-429" font-family="Cascadia Code PL" font-size="10.00" fill="cyan">Black/White/Gamma points</text>
</g>
<!-- ADJ_BL -->
<g id="node15" class="node">
<title>ADJ_BL</title>
<polygon fill="none" stroke="white" points="1465.5,-474 1361.5,-474 1361.5,-422 1465.5,-422 1465.5,-474"/>
<text text-anchor="middle" x="1413.5" y="-462" font-family="Cascadia Code PL" font-size="10.00" fill="cyan">Blur</text>
<text text-anchor="middle" x="1413.5" y="-451" font-family="Cascadia Code PL" font-size="10.00" fill="cyan">────────────</text>
<text text-anchor="middle" x="1413.5" y="-440" font-family="Cascadia Code PL" font-size="10.00" fill="cyan">Radius slider</text>
<text text-anchor="middle" x="1413.5" y="-429" font-family="Cascadia Code PL" font-size="10.00" fill="cyan">Box blur / Gaussian</text>
</g>
<!-- ADJ_SH -->
<g id="node16" class="node">
<title>ADJ_SH</title>
<polygon fill="none" stroke="white" points="1343,-474 1262,-474 1262,-422 1343,-422 1343,-474"/>
<text text-anchor="middle" x="1302.5" y="-462" font-family="Cascadia Code PL" font-size="10.00" fill="cyan">Sharpen</text>
<text text-anchor="middle" x="1302.5" y="-451" font-family="Cascadia Code PL" font-size="10.00" fill="cyan">────────────</text>
<text text-anchor="middle" x="1302.5" y="-440" font-family="Cascadia Code PL" font-size="10.00" fill="cyan">Amount slider</text>
<text text-anchor="middle" x="1302.5" y="-429" font-family="Cascadia Code PL" font-size="10.00" fill="cyan">Unsharp mask</text>
</g>
<!-- ADJ_PO -->
<g id="node17" class="node">
<title>ADJ_PO</title>
<polygon fill="none" stroke="white" points="1244,-474 1139,-474 1139,-422 1244,-422 1244,-474"/>
<text text-anchor="middle" x="1191.5" y="-462" font-family="Cascadia Code PL" font-size="10.00" fill="cyan">Posterize</text>
<text text-anchor="middle" x="1191.5" y="-451" font-family="Cascadia Code PL" font-size="10.00" fill="cyan">────────────</text>
<text text-anchor="middle" x="1191.5" y="-440" font-family="Cascadia Code PL" font-size="10.00" fill="cyan">Levels slider (2&#45;256)</text>
<text text-anchor="middle" x="1191.5" y="-429" font-family="Cascadia Code PL" font-size="10.00" fill="cyan">Reduce color depth</text>
</g>
<!-- ADJ_PX -->
<g id="node18" class="node">
<title>ADJ_PX</title>
<polygon fill="none" stroke="white" points="1121,-474 1034,-474 1034,-422 1121,-422 1121,-474"/>
<text text-anchor="middle" x="1077.5" y="-462" font-family="Cascadia Code PL" font-size="10.00" fill="cyan">Pixelate</text>
<text text-anchor="middle" x="1077.5" y="-451" font-family="Cascadia Code PL" font-size="10.00" fill="cyan">────────────</text>
<text text-anchor="middle" x="1077.5" y="-440" font-family="Cascadia Code PL" font-size="10.00" fill="cyan">Block size slider</text>
<text text-anchor="middle" x="1077.5" y="-429" font-family="Cascadia Code PL" font-size="10.00" fill="cyan">Mosaic effect</text>
</g>
<!-- ADJ_RB -->
<g id="node19" class="node">
<title>ADJ_RB</title>
<polygon fill="none" stroke="white" points="1015.5,-474 899.5,-474 899.5,-422 1015.5,-422 1015.5,-474"/>
<text text-anchor="middle" x="957.5" y="-462" font-family="Cascadia Code PL" font-size="10.00" fill="cyan">Remove Background</text>
<text text-anchor="middle" x="957.5" y="-451" font-family="Cascadia Code PL" font-size="10.00" fill="cyan">────────────</text>
<text text-anchor="middle" x="957.5" y="-440" font-family="Cascadia Code PL" font-size="10.00" fill="cyan">Threshold slider</text>
<text text-anchor="middle" x="957.5" y="-429" font-family="Cascadia Code PL" font-size="10.00" fill="cyan">Auto&#45;detect + remove</text>
</g>
<!-- L1 -->
<g id="node20" class="node">
<title>L1</title>
<ellipse fill="white" stroke="white" cx="2114.5" cy="-448" rx="0.36" ry="0.36"/>
</g>
<!-- L2 -->
<g id="node21" class="node">
<title>L2</title>
<ellipse fill="white" stroke="white" cx="2114.5" cy="-332" rx="0.36" ry="0.36"/>
</g>
<!-- L1&#45;&gt;L2 -->
<g id="edge15" class="edge">
<title>L1&#45;&gt;L2</title>
<path fill="none" stroke="#66cc66" d="M2114.5,-446.92C2114.5,-444.12 2114.5,-370.87 2114.5,-343.33"/>
<polygon fill="#66cc66" stroke="#66cc66" points="2118,-343.08 2114.5,-333.08 2111,-343.08 2118,-343.08"/>
<text text-anchor="middle" x="2147" y="-396.8" font-family="Cascadia Code PL" font-size="9.00" fill="#aaaaaa"> Open / Activate</text>
</g>
<!-- L3 -->
<g id="node22" class="node">
<title>L3</title>
<ellipse fill="white" stroke="white" cx="2027.5" cy="-448" rx="0.36" ry="0.36"/>
</g>
<!-- L4 -->
<g id="node23" class="node">
<title>L4</title>
<ellipse fill="white" stroke="white" cx="2027.5" cy="-332" rx="0.36" ry="0.36"/>
</g>
<!-- L3&#45;&gt;L4 -->
<g id="edge16" class="edge">
<title>L3&#45;&gt;L4</title>
<path fill="none" stroke="#cc6666" stroke-dasharray="5,2" d="M2027.5,-446.92C2027.5,-444.12 2027.5,-370.87 2027.5,-343.33"/>
<polygon fill="#cc6666" stroke="#cc6666" points="2031,-343.08 2027.5,-333.08 2024,-343.08 2031,-343.08"/>
<text text-anchor="middle" x="2059.5" y="-396.8" font-family="Cascadia Code PL" font-size="9.00" fill="#aaaaaa"> Close / Cleanup</text>
</g>
<!-- L5 -->
<g id="node24" class="node">
<title>L5</title>
<ellipse fill="white" stroke="white" cx="1939.5" cy="-448" rx="0.36" ry="0.36"/>
</g>
<!-- L6 -->
<g id="node25" class="node">
<title>L6</title>
<ellipse fill="white" stroke="white" cx="1939.5" cy="-332" rx="0.36" ry="0.36"/>
</g>
<!-- L5&#45;&gt;L6 -->
<g id="edge17" class="edge">
<title>L5&#45;&gt;L6</title>
<path fill="none" stroke="#cccc66" d="M1939.5,-446.92C1939.5,-444.12 1939.5,-370.87 1939.5,-343.33"/>
<polygon fill="#cccc66" stroke="#cccc66" points="1943,-343.08 1939.5,-333.08 1936,-343.08 1943,-343.08"/>
<text text-anchor="middle" x="1972" y="-396.8" font-family="Cascadia Code PL" font-size="9.00" fill="#aaaaaa"> Commit / Apply</text>
</g>
</g>
</svg>
