<?xml version="1.0" encoding="UTF-8" standalone="no"?>
<!DOCTYPE svg PUBLIC "-//W3C//DTD SVG 1.1//EN"
 "http://www.w3.org/Graphics/SVG/1.1/DTD/svg11.dtd">
<!-- Generated by graphviz version 2.42.4 (0)
 -->
<!-- Title: DRAWER Pages: 1 -->
<svg width="2212pt" height="685pt"
 viewBox="0.00 0.00 2211.86 685.00" xmlns="http://www.w3.org/2000/svg" xmlns:xlink="http://www.w3.org/1999/xlink">
<g id="graph0" class="graph" transform="scale(1 1) rotate(0) translate(4 681)">
<title>DRAWER</title>
<text text-anchor="middle" x="1101.93" y="-653.8" font-family="Cascadia Code PL" font-size="24.00" fill="white">DRAWER PANEL STATE MACHINE</text>
<g id="clust6" class="cluster">
<title>cluster_legend</title>
<polygon fill="transparent" stroke="white" stroke-dasharray="5,2" points="1934.86,-434.64 1934.86,-603.86 2195.86,-603.86 2195.86,-434.64 1934.86,-434.64"/>
<text text-anchor="middle" x="1962.86" y="-591.06" font-family="Cascadia Code PL" font-size="11.00" fill="white">LEGEND</text>
</g>
<g id="clust2" class="cluster">
<title>cluster_modes</title>
<polygon fill="transparent" stroke="orange" stroke-dasharray="5,2" points="478.86,-121 478.86,-508 887.86,-508 887.86,-121 478.86,-121"/>
<text text-anchor="middle" x="602.86" y="-495.2" font-family="Cascadia Code PL" font-size="11.00" fill="orange">DRAWING MODES — Color / Gradient / Pattern</text>
</g>
<g id="clust3" class="cluster">
<title>cluster_context</title>
<polygon fill="transparent" stroke="orange" stroke-dasharray="5,2" points="895.86,-409 895.86,-497 1755.86,-497 1755.86,-409 895.86,-409"/>
<text text-anchor="middle" x="1001.36" y="-484.2" font-family="Cascadia Code PL" font-size="11.00" fill="orange">SLOT CONTEXT MENU — POPUP_MENU</text>
</g>
<g id="clust4" class="cluster">
<title>cluster_mini_palette</title>
<polygon fill="transparent" stroke="orange" stroke-dasharray="5,2" points="1763.86,-403.5 1763.86,-635 1926.86,-635 1926.86,-403.5 1763.86,-403.5"/>
<text text-anchor="middle" x="1805.86" y="-622.2" font-family="Cascadia Code PL" font-size="11.00" fill="orange">MINI PALETTE</text>
</g>
<!-- MAIN -->
<g id="node1" class="node">
<title>MAIN</title>
<polygon fill="none" stroke="orange" stroke-width="2" points="220.86,-593.5 217.86,-597.5 196.86,-597.5 193.86,-593.5 126.86,-593.5 126.86,-557.5 220.86,-557.5 220.86,-593.5"/>
<text text-anchor="middle" x="173.86" y="-572.1" font-family="Cascadia Code PL" font-size="13.00" fill="orange">MAIN STATES</text>
</g>
<!-- S_HIDDEN -->
<g id="node4" class="node">
<title>S_HIDDEN</title>
<polygon fill="none" stroke="white" points="252.86,-477 94.86,-477 94.86,-409 252.86,-409 252.86,-477"/>
<text text-anchor="middle" x="173.86" y="-464.2" font-family="Cascadia Code PL" font-size="11.00" fill="cyan">1 · HIDDEN</text>
<text text-anchor="middle" x="173.86" y="-452.2" font-family="Cascadia Code PL" font-size="11.00" fill="cyan">─────────────────</text>
<text text-anchor="middle" x="173.86" y="-440.2" font-family="Cascadia Code PL" font-size="11.00" fill="cyan">SCRN.showDrawer% = FALSE</text>
<text text-anchor="middle" x="173.86" y="-428.2" font-family="Cascadia Code PL" font-size="11.00" fill="cyan">ManuallyHidden% = TRUE</text>
<text text-anchor="middle" x="173.86" y="-416.2" font-family="Cascadia Code PL" font-size="11.00" fill="cyan">Panel not rendered</text>
</g>
<!-- MAIN&#45;&gt;S_HIDDEN -->
<g id="edge18" class="edge">
<title>MAIN&#45;&gt;S_HIDDEN</title>
<path fill="none" stroke="#555555" stroke-dasharray="1,5" d="M173.86,-557.44C173.86,-537.13 173.86,-502.74 173.86,-477.14"/>
</g>
<!-- MODES -->
<g id="node2" class="node">
<title>MODES</title>
<polygon fill="none" stroke="orange" stroke-width="2" points="736.86,-593.5 733.86,-597.5 712.86,-597.5 709.86,-593.5 612.86,-593.5 612.86,-557.5 736.86,-557.5 736.86,-593.5"/>
<text text-anchor="middle" x="674.86" y="-572.1" font-family="Cascadia Code PL" font-size="13.00" fill="orange">DRAWING MODES</text>
</g>
<!-- DM_COLOR -->
<g id="node9" class="node">
<title>DM_COLOR</title>
<polygon fill="none" stroke="white" points="759.36,-480 590.36,-480 590.36,-406 759.36,-406 759.36,-480"/>
<text text-anchor="middle" x="674.86" y="-468" font-family="Cascadia Code PL" font-size="10.00" fill="cyan">Color Mode (Brushes Bin)</text>
<text text-anchor="middle" x="674.86" y="-457" font-family="Cascadia Code PL" font-size="10.00" fill="cyan">────────────</text>
<text text-anchor="middle" x="674.86" y="-446" font-family="Cascadia Code PL" font-size="10.00" fill="cyan">DRAWER.mode% = MODE_COLOR</text>
<text text-anchor="middle" x="674.86" y="-435" font-family="Cascadia Code PL" font-size="10.00" fill="cyan">Slots contain brush images</text>
<text text-anchor="middle" x="674.86" y="-424" font-family="Cascadia Code PL" font-size="10.00" fill="cyan">Paint with custom brush</text>
<text text-anchor="middle" x="674.86" y="-413" font-family="Cascadia Code PL" font-size="10.00" fill="cyan">or solid color</text>
</g>
<!-- MODES&#45;&gt;DM_COLOR -->
<g id="edge19" class="edge">
<title>MODES&#45;&gt;DM_COLOR</title>
<path fill="none" stroke="#555555" stroke-dasharray="1,5" d="M674.86,-557.44C674.86,-544.64 674.86,-526.25 674.86,-508"/>
</g>
<!-- CTX -->
<g id="node3" class="node">
<title>CTX</title>
<polygon fill="none" stroke="orange" stroke-width="2" points="1738.36,-593.5 1735.36,-597.5 1714.36,-597.5 1711.36,-593.5 1625.36,-593.5 1625.36,-557.5 1738.36,-557.5 1738.36,-593.5"/>
<text text-anchor="middle" x="1681.86" y="-572.1" font-family="Cascadia Code PL" font-size="13.00" fill="orange">CONTEXT MENU</text>
</g>
<!-- CM_EDIT -->
<g id="node12" class="node">
<title>CM_EDIT</title>
<polygon fill="none" stroke="white" points="1747.36,-469 1616.36,-469 1616.36,-417 1747.36,-417 1747.36,-469"/>
<text text-anchor="middle" x="1681.86" y="-457" font-family="Cascadia Code PL" font-size="10.00" fill="cyan">Edit Slot</text>
<text text-anchor="middle" x="1681.86" y="-446" font-family="Cascadia Code PL" font-size="10.00" fill="cyan">────────────</text>
<text text-anchor="middle" x="1681.86" y="-435" font-family="Cascadia Code PL" font-size="10.00" fill="cyan">Open slot editor</text>
<text text-anchor="middle" x="1681.86" y="-424" font-family="Cascadia Code PL" font-size="10.00" fill="cyan">(brush, pattern, gradient)</text>
</g>
<!-- CTX&#45;&gt;CM_EDIT -->
<g id="edge20" class="edge">
<title>CTX&#45;&gt;CM_EDIT</title>
<path fill="none" stroke="#555555" stroke-dasharray="1,5" d="M1681.86,-557.44C1681.86,-542.06 1681.86,-518.6 1681.86,-497"/>
</g>
<!-- S_VISIBLE -->
<g id="node5" class="node">
<title>S_VISIBLE</title>
<polygon fill="none" stroke="white" points="251.36,-352 96.36,-352 96.36,-272 251.36,-272 251.36,-352"/>
<text text-anchor="middle" x="173.86" y="-339.2" font-family="Cascadia Code PL" font-size="11.00" fill="cyan">2 · VISIBLE</text>
<text text-anchor="middle" x="173.86" y="-327.2" font-family="Cascadia Code PL" font-size="11.00" fill="cyan">─────────────────</text>
<text text-anchor="middle" x="173.86" y="-315.2" font-family="Cascadia Code PL" font-size="11.00" fill="cyan">SCRN.showDrawer% = TRUE</text>
<text text-anchor="middle" x="173.86" y="-303.2" font-family="Cascadia Code PL" font-size="11.00" fill="cyan">30 slots displayed</text>
<text text-anchor="middle" x="173.86" y="-291.2" font-family="Cascadia Code PL" font-size="11.00" fill="cyan">Current mode active</text>
<text text-anchor="middle" x="173.86" y="-279.2" font-family="Cascadia Code PL" font-size="11.00" fill="cyan">Mini palette shown</text>
</g>
<!-- S_HIDDEN&#45;&gt;S_VISIBLE -->
<g id="edge1" class="edge">
<title>S_HIDDEN&#45;&gt;S_VISIBLE</title>
<path fill="none" stroke="#66cc66" d="M136.32,-408.95C127.53,-397.27 121.96,-383.63 126.86,-370 127.96,-366.92 129.31,-363.89 130.85,-360.93"/>
<polygon fill="#66cc66" stroke="#66cc66" points="133.89,-362.66 135.96,-352.27 127.86,-359.1 133.89,-362.66"/>
<text text-anchor="middle" x="163.36" y="-376.8" font-family="Cascadia Code PL" font-size="9.00" fill="#aaaaaa"> &#160;F6 / Menu toggle</text>
</g>
<!-- S_VISIBLE&#45;&gt;S_HIDDEN -->
<g id="edge2" class="edge">
<title>S_VISIBLE&#45;&gt;S_HIDDEN</title>
<path fill="none" stroke="#cc6666" stroke-dasharray="5,2" d="M196.24,-352.23C200.33,-363.62 202.55,-376.18 199.86,-388 198.98,-391.83 197.8,-395.7 196.42,-399.52"/>
<polygon fill="#cc6666" stroke="#cc6666" points="193.15,-398.28 192.65,-408.86 199.64,-400.9 193.15,-398.28"/>
<text text-anchor="middle" x="238.36" y="-376.8" font-family="Cascadia Code PL" font-size="9.00" fill="#aaaaaa"> &#160;F6 / Menu toggle</text>
</g>
<!-- S_HOVER_SLOT -->
<g id="node6" class="node">
<title>S_HOVER_SLOT</title>
<polygon fill="none" stroke="white" points="278.86,-206 114.86,-206 114.86,-126 278.86,-126 278.86,-206"/>
<text text-anchor="middle" x="196.86" y="-193.2" font-family="Cascadia Code PL" font-size="11.00" fill="cyan">3 · SLOT HOVER</text>
<text text-anchor="middle" x="196.86" y="-181.2" font-family="Cascadia Code PL" font-size="11.00" fill="cyan">─────────────────</text>
<text text-anchor="middle" x="196.86" y="-169.2" font-family="Cascadia Code PL" font-size="11.00" fill="cyan">hoverSlot = slotIdx</text>
<text text-anchor="middle" x="196.86" y="-157.2" font-family="Cascadia Code PL" font-size="11.00" fill="cyan">Slot highlighted</text>
<text text-anchor="middle" x="196.86" y="-145.2" font-family="Cascadia Code PL" font-size="11.00" fill="cyan">Preview tooltip if applicable</text>
<text text-anchor="middle" x="196.86" y="-133.2" font-family="Cascadia Code PL" font-size="11.00" fill="cyan">QuickLook in Preview window</text>
</g>
<!-- S_VISIBLE&#45;&gt;S_HOVER_SLOT -->
<g id="edge3" class="edge">
<title>S_VISIBLE&#45;&gt;S_HOVER_SLOT</title>
<path fill="none" stroke="#88aacc" d="M171.36,-271.72C171.17,-256.68 171.89,-239.43 174.86,-224 175.37,-221.31 176.01,-218.58 176.74,-215.85"/>
<polygon fill="#88aacc" stroke="#88aacc" points="180.17,-216.6 179.71,-206.02 173.47,-214.58 180.17,-216.6"/>
<text text-anchor="middle" x="208.86" y="-236.8" font-family="Cascadia Code PL" font-size="9.00" fill="#aaaaaa"> &#160;Mouse over slot</text>
</g>
<!-- S_HOVER_SLOT&#45;&gt;S_VISIBLE -->
<g id="edge4" class="edge">
<title>S_HOVER_SLOT&#45;&gt;S_VISIBLE</title>
<path fill="none" stroke="#cc6666" stroke-dasharray="5,2" d="M234.54,-206.02C244.37,-220.89 250.35,-238.08 242.86,-254 241.24,-257.44 239.3,-260.73 237.12,-263.89"/>
<polygon fill="#cc6666" stroke="#cc6666" points="234.24,-261.89 230.83,-271.91 239.75,-266.21 234.24,-261.89"/>
<text text-anchor="middle" x="284.36" y="-236.8" font-family="Cascadia Code PL" font-size="9.00" fill="#aaaaaa"> &#160;Mouse leaves slot</text>
</g>
<!-- S_HOVER_SLOT&#45;&gt;S_VISIBLE -->
<g id="edge9" class="edge">
<title>S_HOVER_SLOT&#45;&gt;S_VISIBLE</title>
<path fill="none" stroke="#cccc66" d="M114.71,-200.58C110.03,-202.43 105.39,-204.25 100.86,-206 79.22,-214.37 65.14,-204.98 51.86,-224 34.99,-248.17 56.94,-267.98 86.65,-282.56"/>
<polygon fill="#cccc66" stroke="#cccc66" points="85.55,-285.9 96.09,-286.92 88.48,-279.55 85.55,-285.9"/>
<text text-anchor="middle" x="109.86" y="-246.8" font-family="Cascadia Code PL" font-size="9.00" fill="#aaaaaa"> &#160;B1 click slot</text>
<text text-anchor="middle" x="109.86" y="-236.8" font-family="Cascadia Code PL" font-size="9.00" fill="#aaaaaa"> &#160;Select slot as active</text>
<text text-anchor="middle" x="109.86" y="-226.8" font-family="Cascadia Code PL" font-size="9.00" fill="#aaaaaa"> &#160;DRAWER.currentSlot% = idx</text>
</g>
<!-- S_DRAG_SLOT -->
<g id="node7" class="node">
<title>S_DRAG_SLOT</title>
<polygon fill="none" stroke="white" points="187.36,-80 50.36,-80 50.36,0 187.36,0 187.36,-80"/>
<text text-anchor="middle" x="118.86" y="-67.2" font-family="Cascadia Code PL" font-size="11.00" fill="cyan">4 · SLOT DRAG</text>
<text text-anchor="middle" x="118.86" y="-55.2" font-family="Cascadia Code PL" font-size="11.00" fill="cyan">─────────────────</text>
<text text-anchor="middle" x="118.86" y="-43.2" font-family="Cascadia Code PL" font-size="11.00" fill="cyan">Dragging slot to reorder</text>
<text text-anchor="middle" x="118.86" y="-31.2" font-family="Cascadia Code PL" font-size="11.00" fill="cyan">dragSlot = srcIdx</text>
<text text-anchor="middle" x="118.86" y="-19.2" font-family="Cascadia Code PL" font-size="11.00" fill="cyan">dropSlot = dstIdx</text>
<text text-anchor="middle" x="118.86" y="-7.2" font-family="Cascadia Code PL" font-size="11.00" fill="cyan">Insertion marker shown</text>
</g>
<!-- S_HOVER_SLOT&#45;&gt;S_DRAG_SLOT -->
<g id="edge5" class="edge">
<title>S_HOVER_SLOT&#45;&gt;S_DRAG_SLOT</title>
<path fill="none" stroke="#66cc66" d="M172.18,-125.77C164.85,-114.12 156.74,-101.23 149.1,-89.08"/>
<polygon fill="#66cc66" stroke="#66cc66" points="151.93,-87.01 143.64,-80.4 146.01,-90.73 151.93,-87.01"/>
<text text-anchor="middle" x="178.36" y="-100.8" font-family="Cascadia Code PL" font-size="9.00" fill="#aaaaaa"> &#160;B1 drag</text>
</g>
<!-- S_CONTEXT -->
<g id="node8" class="node">
<title>S_CONTEXT</title>
<polygon fill="none" stroke="white" points="366.36,-80 223.36,-80 223.36,0 366.36,0 366.36,-80"/>
<text text-anchor="middle" x="294.86" y="-67.2" font-family="Cascadia Code PL" font-size="11.00" fill="cyan">5 · CONTEXT MENU</text>
<text text-anchor="middle" x="294.86" y="-55.2" font-family="Cascadia Code PL" font-size="11.00" fill="cyan">─────────────────</text>
<text text-anchor="middle" x="294.86" y="-43.2" font-family="Cascadia Code PL" font-size="11.00" fill="cyan">Right&#45;click on slot</text>
<text text-anchor="middle" x="294.86" y="-31.2" font-family="Cascadia Code PL" font-size="11.00" fill="cyan">Popup menu visible</text>
<text text-anchor="middle" x="294.86" y="-19.2" font-family="Cascadia Code PL" font-size="11.00" fill="cyan">Options: Edit, Copy, Paste,</text>
<text text-anchor="middle" x="294.86" y="-7.2" font-family="Cascadia Code PL" font-size="11.00" fill="cyan">Clear, Import, Export</text>
</g>
<!-- S_HOVER_SLOT&#45;&gt;S_CONTEXT -->
<g id="edge7" class="edge">
<title>S_HOVER_SLOT&#45;&gt;S_CONTEXT</title>
<path fill="none" stroke="#66cc66" d="M227.86,-125.77C237.25,-113.89 247.65,-100.72 257.41,-88.38"/>
<polygon fill="#66cc66" stroke="#66cc66" points="260.26,-90.42 263.71,-80.4 254.77,-86.08 260.26,-90.42"/>
<text text-anchor="middle" x="281.36" y="-100.8" font-family="Cascadia Code PL" font-size="9.00" fill="#aaaaaa"> &#160;Right&#45;click (B2)</text>
</g>
<!-- S_DRAG_SLOT&#45;&gt;S_VISIBLE -->
<g id="edge6" class="edge">
<title>S_DRAG_SLOT&#45;&gt;S_VISIBLE</title>
<path fill="none" stroke="#cccc66" d="M50.33,-76.9C34.51,-88.69 19.73,-103.39 10.86,-121 -6.14,-154.74 -0.09,-169.84 10.86,-206 18.29,-230.54 23.19,-237.55 42.86,-254 55.9,-264.91 71.35,-274.06 86.98,-281.62"/>
<polygon fill="#cccc66" stroke="#cccc66" points="85.64,-284.86 96.19,-285.88 88.59,-278.5 85.64,-284.86"/>
<text text-anchor="middle" x="58.36" y="-163.8" font-family="Cascadia Code PL" font-size="9.00" fill="#aaaaaa"> &#160;Release → reorder slots</text>
</g>
<!-- S_CONTEXT&#45;&gt;S_VISIBLE -->
<g id="edge8" class="edge">
<title>S_CONTEXT&#45;&gt;S_VISIBLE</title>
<path fill="none" stroke="#cccc66" d="M315.63,-80.1C336.8,-125.89 361.83,-202.09 325.86,-254 310.77,-275.77 286.27,-289.24 261.3,-297.57"/>
<polygon fill="#cccc66" stroke="#cccc66" points="260.26,-294.23 251.73,-300.52 262.32,-300.92 260.26,-294.23"/>
<text text-anchor="middle" x="402.86" y="-163.8" font-family="Cascadia Code PL" font-size="9.00" fill="#aaaaaa"> &#160;Click item / outside / Escape</text>
</g>
<!-- DM_GRADIENT -->
<g id="node10" class="node">
<title>DM_GRADIENT</title>
<polygon fill="none" stroke="white" points="781.36,-349 596.36,-349 596.36,-275 781.36,-275 781.36,-349"/>
<text text-anchor="middle" x="688.86" y="-337" font-family="Cascadia Code PL" font-size="10.00" fill="cyan">Gradient Mode (Gradient Bin)</text>
<text text-anchor="middle" x="688.86" y="-326" font-family="Cascadia Code PL" font-size="10.00" fill="cyan">────────────</text>
<text text-anchor="middle" x="688.86" y="-315" font-family="Cascadia Code PL" font-size="10.00" fill="cyan">DRAWER.mode% = MODE_GRADIENT</text>
<text text-anchor="middle" x="688.86" y="-304" font-family="Cascadia Code PL" font-size="10.00" fill="cyan">Slots contain gradient defs</text>
<text text-anchor="middle" x="688.86" y="-293" font-family="Cascadia Code PL" font-size="10.00" fill="cyan">2&#45;color with dither settings</text>
<text text-anchor="middle" x="688.86" y="-282" font-family="Cascadia Code PL" font-size="10.00" fill="cyan">Paint with gradient fill</text>
</g>
<!-- DM_COLOR&#45;&gt;DM_GRADIENT -->
<g id="edge10" class="edge">
<title>DM_COLOR&#45;&gt;DM_GRADIENT</title>
<path fill="none" stroke="#88aacc" d="M634.45,-405.98C626.73,-394.88 622.51,-382.32 627.86,-370 629.81,-365.5 632.31,-361.19 635.19,-357.11"/>
<polygon fill="#88aacc" stroke="#88aacc" points="638.1,-359.06 641.55,-349.04 632.61,-354.73 638.1,-359.06"/>
<text text-anchor="middle" x="664.36" y="-381.6" font-family="Cascadia Code PL" font-size="8.00" fill="#aaaaaa"> Click gradient tab</text>
<text text-anchor="middle" x="664.36" y="-372.6" font-family="Cascadia Code PL" font-size="8.00" fill="#aaaaaa"> or Organizer toggle</text>
</g>
<!-- DM_PATTERN -->
<g id="node11" class="node">
<title>DM_PATTERN</title>
<polygon fill="none" stroke="white" points="757.86,-203 579.86,-203 579.86,-129 757.86,-129 757.86,-203"/>
<text text-anchor="middle" x="668.86" y="-191" font-family="Cascadia Code PL" font-size="10.00" fill="cyan">Pattern Mode (Pattern Bin)</text>
<text text-anchor="middle" x="668.86" y="-180" font-family="Cascadia Code PL" font-size="10.00" fill="cyan">────────────</text>
<text text-anchor="middle" x="668.86" y="-169" font-family="Cascadia Code PL" font-size="10.00" fill="cyan">DRAWER.mode% = MODE_PATTERN</text>
<text text-anchor="middle" x="668.86" y="-158" font-family="Cascadia Code PL" font-size="10.00" fill="cyan">Slots contain pattern tiles</text>
<text text-anchor="middle" x="668.86" y="-147" font-family="Cascadia Code PL" font-size="10.00" fill="cyan">8×8 or larger patterns</text>
<text text-anchor="middle" x="668.86" y="-136" font-family="Cascadia Code PL" font-size="10.00" fill="cyan">Paint with tiled pattern</text>
</g>
<!-- DM_COLOR&#45;&gt;DM_PATTERN -->
<g id="edge13" class="edge">
<title>DM_COLOR&#45;&gt;DM_PATTERN</title>
<path fill="none" stroke="#88aacc" d="M746.33,-405.81C765.23,-391.98 782.65,-374.1 790.86,-352 803.23,-318.67 799.03,-306.6 790.86,-272 785.38,-248.79 783.18,-241.39 766.86,-224 761.95,-218.77 756.45,-213.88 750.63,-209.33"/>
<polygon fill="#88aacc" stroke="#88aacc" points="752.65,-206.46 742.53,-203.34 748.49,-212.09 752.65,-206.46"/>
<text text-anchor="middle" x="828.86" y="-310.1" font-family="Cascadia Code PL" font-size="8.00" fill="#aaaaaa"> Click pattern tab</text>
</g>
<!-- DM_GRADIENT&#45;&gt;DM_COLOR -->
<g id="edge14" class="edge">
<title>DM_GRADIENT&#45;&gt;DM_COLOR</title>
<path fill="none" stroke="#88aacc" d="M700.21,-349.04C702.65,-361.46 703.73,-375.4 700.86,-388 700.22,-390.81 699.41,-393.64 698.48,-396.45"/>
<polygon fill="#88aacc" stroke="#88aacc" points="695.17,-395.32 694.92,-405.92 701.72,-397.79 695.17,-395.32"/>
<text text-anchor="middle" x="728.86" y="-377.1" font-family="Cascadia Code PL" font-size="8.00" fill="#aaaaaa"> Click color tab</text>
</g>
<!-- DM_GRADIENT&#45;&gt;DM_PATTERN -->
<g id="edge11" class="edge">
<title>DM_GRADIENT&#45;&gt;DM_PATTERN</title>
<path fill="none" stroke="#88aacc" d="M636.32,-274.86C630.48,-268.6 625.38,-261.62 621.86,-254 615.42,-240.07 619.21,-225.25 626.87,-211.87"/>
<polygon fill="#88aacc" stroke="#88aacc" points="629.91,-213.61 632.4,-203.31 624.03,-209.82 629.91,-213.61"/>
<text text-anchor="middle" x="658.36" y="-241.6" font-family="Cascadia Code PL" font-size="8.00" fill="#aaaaaa"> Click pattern tab</text>
<text text-anchor="middle" x="658.36" y="-232.6" font-family="Cascadia Code PL" font-size="8.00" fill="#aaaaaa"> or Organizer toggle</text>
</g>
<!-- DM_PATTERN&#45;&gt;DM_COLOR -->
<g id="edge12" class="edge">
<title>DM_PATTERN&#45;&gt;DM_COLOR</title>
<path fill="none" stroke="#88aacc" d="M586.27,-203.11C558.4,-219.78 530.43,-242.53 514.86,-272 498.24,-303.44 496.91,-321.31 514.86,-352 529.83,-377.59 555.04,-396.47 581.09,-410.13"/>
<polygon fill="#88aacc" stroke="#88aacc" points="579.81,-413.41 590.32,-414.75 582.94,-407.15 579.81,-413.41"/>
<text text-anchor="middle" x="551.36" y="-314.6" font-family="Cascadia Code PL" font-size="8.00" fill="#aaaaaa"> Click color tab</text>
<text text-anchor="middle" x="551.36" y="-305.6" font-family="Cascadia Code PL" font-size="8.00" fill="#aaaaaa"> or Organizer toggle</text>
</g>
<!-- DM_PATTERN&#45;&gt;DM_GRADIENT -->
<g id="edge15" class="edge">
<title>DM_PATTERN&#45;&gt;DM_GRADIENT</title>
<path fill="none" stroke="#88aacc" d="M688.17,-203.3C690.94,-210.02 693.36,-217.09 694.86,-224 697.67,-236.96 697.86,-251.23 696.89,-264.41"/>
<polygon fill="#88aacc" stroke="#88aacc" points="693.37,-264.4 695.89,-274.69 700.34,-265.08 693.37,-264.4"/>
<text text-anchor="middle" x="729.86" y="-237.1" font-family="Cascadia Code PL" font-size="8.00" fill="#aaaaaa"> Click gradient tab</text>
</g>
<!-- CM_COPY -->
<g id="node13" class="node">
<title>CM_COPY</title>
<polygon fill="none" stroke="white" points="1597.86,-463.5 1471.86,-463.5 1471.86,-422.5 1597.86,-422.5 1597.86,-463.5"/>
<text text-anchor="middle" x="1534.86" y="-451.5" font-family="Cascadia Code PL" font-size="10.00" fill="cyan">Copy Slot</text>
<text text-anchor="middle" x="1534.86" y="-440.5" font-family="Cascadia Code PL" font-size="10.00" fill="cyan">────────────</text>
<text text-anchor="middle" x="1534.86" y="-429.5" font-family="Cascadia Code PL" font-size="10.00" fill="cyan">Copy to clipboard buffer</text>
</g>
<!-- CM_PASTE -->
<g id="node14" class="node">
<title>CM_PASTE</title>
<polygon fill="none" stroke="white" points="1453.36,-463.5 1314.36,-463.5 1314.36,-422.5 1453.36,-422.5 1453.36,-463.5"/>
<text text-anchor="middle" x="1383.86" y="-451.5" font-family="Cascadia Code PL" font-size="10.00" fill="cyan">Paste Slot</text>
<text text-anchor="middle" x="1383.86" y="-440.5" font-family="Cascadia Code PL" font-size="10.00" fill="cyan">────────────</text>
<text text-anchor="middle" x="1383.86" y="-429.5" font-family="Cascadia Code PL" font-size="10.00" fill="cyan">Paste from clipboard buffer</text>
</g>
<!-- CM_CLEAR -->
<g id="node15" class="node">
<title>CM_CLEAR</title>
<polygon fill="none" stroke="white" points="1295.86,-463.5 1191.86,-463.5 1191.86,-422.5 1295.86,-422.5 1295.86,-463.5"/>
<text text-anchor="middle" x="1243.86" y="-451.5" font-family="Cascadia Code PL" font-size="10.00" fill="cyan">Clear Slot</text>
<text text-anchor="middle" x="1243.86" y="-440.5" font-family="Cascadia Code PL" font-size="10.00" fill="cyan">────────────</text>
<text text-anchor="middle" x="1243.86" y="-429.5" font-family="Cascadia Code PL" font-size="10.00" fill="cyan">Reset slot to empty</text>
</g>
<!-- CM_IMPORT -->
<g id="node16" class="node">
<title>CM_IMPORT</title>
<polygon fill="none" stroke="white" points="1173.86,-469 1047.86,-469 1047.86,-417 1173.86,-417 1173.86,-469"/>
<text text-anchor="middle" x="1110.86" y="-457" font-family="Cascadia Code PL" font-size="10.00" fill="cyan">Import .dset</text>
<text text-anchor="middle" x="1110.86" y="-446" font-family="Cascadia Code PL" font-size="10.00" fill="cyan">────────────</text>
<text text-anchor="middle" x="1110.86" y="-435" font-family="Cascadia Code PL" font-size="10.00" fill="cyan">DRAWER_IMPORT_dset()</text>
<text text-anchor="middle" x="1110.86" y="-424" font-family="Cascadia Code PL" font-size="10.00" fill="cyan">Load drawer set file</text>
</g>
<!-- CM_EXPORT -->
<g id="node17" class="node">
<title>CM_EXPORT</title>
<polygon fill="none" stroke="white" points="1029.36,-469 904.36,-469 904.36,-417 1029.36,-417 1029.36,-469"/>
<text text-anchor="middle" x="966.86" y="-457" font-family="Cascadia Code PL" font-size="10.00" fill="cyan">Export .dset</text>
<text text-anchor="middle" x="966.86" y="-446" font-family="Cascadia Code PL" font-size="10.00" fill="cyan">────────────</text>
<text text-anchor="middle" x="966.86" y="-435" font-family="Cascadia Code PL" font-size="10.00" fill="cyan">DRAWER_EXPORT_dset()</text>
<text text-anchor="middle" x="966.86" y="-424" font-family="Cascadia Code PL" font-size="10.00" fill="cyan">Save drawer set file</text>
</g>
<!-- MP_IDLE -->
<g id="node18" class="node">
<title>MP_IDLE</title>
<polygon fill="none" stroke="white" points="1902.86,-607 1786.86,-607 1786.86,-544 1902.86,-544 1902.86,-607"/>
<text text-anchor="middle" x="1844.86" y="-595" font-family="Cascadia Code PL" font-size="10.00" fill="cyan">Mini Palette Idle</text>
<text text-anchor="middle" x="1844.86" y="-584" font-family="Cascadia Code PL" font-size="10.00" fill="cyan">────────────</text>
<text text-anchor="middle" x="1844.86" y="-573" font-family="Cascadia Code PL" font-size="10.00" fill="cyan">Compact color grid</text>
<text text-anchor="middle" x="1844.86" y="-562" font-family="Cascadia Code PL" font-size="10.00" fill="cyan">Shows current palette</text>
<text text-anchor="middle" x="1844.86" y="-551" font-family="Cascadia Code PL" font-size="10.00" fill="cyan">FG/BG color swatches</text>
</g>
<!-- MP_CLICK -->
<g id="node19" class="node">
<title>MP_CLICK</title>
<polygon fill="none" stroke="white" points="1912.36,-474.5 1777.36,-474.5 1777.36,-411.5 1912.36,-411.5 1912.36,-474.5"/>
<text text-anchor="middle" x="1844.86" y="-462.5" font-family="Cascadia Code PL" font-size="10.00" fill="cyan">Color Selected</text>
<text text-anchor="middle" x="1844.86" y="-451.5" font-family="Cascadia Code PL" font-size="10.00" fill="cyan">────────────</text>
<text text-anchor="middle" x="1844.86" y="-440.5" font-family="Cascadia Code PL" font-size="10.00" fill="cyan">B1 = Set FG color</text>
<text text-anchor="middle" x="1844.86" y="-429.5" font-family="Cascadia Code PL" font-size="10.00" fill="cyan">B2 = Set BG color</text>
<text text-anchor="middle" x="1844.86" y="-418.5" font-family="Cascadia Code PL" font-size="10.00" fill="cyan">PAINT_COLOR~&amp; updated</text>
</g>
<!-- MP_IDLE&#45;&gt;MP_CLICK -->
<g id="edge16" class="edge">
<title>MP_IDLE&#45;&gt;MP_CLICK</title>
<path fill="none" stroke="#66cc66" d="M1797.9,-543.82C1791.13,-535.65 1787.45,-526.23 1790.86,-516 1794.76,-504.3 1801.38,-492.98 1808.68,-482.9"/>
<polygon fill="#66cc66" stroke="#66cc66" points="1811.62,-484.82 1814.93,-474.76 1806.07,-480.56 1811.62,-484.82"/>
<text text-anchor="middle" x="1818.36" y="-519.1" font-family="Cascadia Code PL" font-size="8.00" fill="#aaaaaa"> Click color cell</text>
</g>
<!-- MP_CLICK&#45;&gt;MP_IDLE -->
<g id="edge17" class="edge">
<title>MP_CLICK&#45;&gt;MP_IDLE</title>
<path fill="none" stroke="#cccc66" d="M1845.56,-474.76C1845.83,-490.15 1846.03,-509.06 1845.86,-526 1845.83,-528.54 1845.8,-531.16 1845.76,-533.8"/>
<polygon fill="#cccc66" stroke="#cccc66" points="1842.25,-533.91 1845.58,-543.97 1849.25,-534.03 1842.25,-533.91"/>
<text text-anchor="middle" x="1871.36" y="-519.1" font-family="Cascadia Code PL" font-size="8.00" fill="#aaaaaa"> Color applied</text>
</g>
<!-- L1 -->
<g id="node20" class="node">
<title>L1</title>
<ellipse fill="white" stroke="white" cx="2122.86" cy="-575.5" rx="0.36" ry="0.36"/>
</g>
<!-- L2 -->
<g id="node21" class="node">
<title>L2</title>
<ellipse fill="white" stroke="white" cx="2122.86" cy="-443" rx="0.36" ry="0.36"/>
</g>
<!-- L1&#45;&gt;L2 -->
<g id="edge21" class="edge">
<title>L1&#45;&gt;L2</title>
<path fill="none" stroke="#66cc66" d="M2122.86,-574.41C2122.86,-571.14 2122.86,-484.15 2122.86,-454.1"/>
<polygon fill="#66cc66" stroke="#66cc66" points="2126.36,-454.09 2122.86,-444.09 2119.36,-454.09 2126.36,-454.09"/>
<text text-anchor="middle" x="2155.36" y="-518.8" font-family="Cascadia Code PL" font-size="9.00" fill="#aaaaaa"> Show / Activate</text>
</g>
<!-- L3 -->
<g id="node22" class="node">
<title>L3</title>
<ellipse fill="white" stroke="white" cx="2048.86" cy="-575.5" rx="0.36" ry="0.36"/>
</g>
<!-- L4 -->
<g id="node23" class="node">
<title>L4</title>
<ellipse fill="white" stroke="white" cx="2048.86" cy="-443" rx="0.36" ry="0.36"/>
</g>
<!-- L3&#45;&gt;L4 -->
<g id="edge22" class="edge">
<title>L3&#45;&gt;L4</title>
<path fill="none" stroke="#cc6666" stroke-dasharray="5,2" d="M2048.86,-574.41C2048.86,-571.14 2048.86,-484.15 2048.86,-454.1"/>
<polygon fill="#cc6666" stroke="#cc6666" points="2052.36,-454.09 2048.86,-444.09 2045.36,-454.09 2052.36,-454.09"/>
<text text-anchor="middle" x="2074.36" y="-518.8" font-family="Cascadia Code PL" font-size="9.00" fill="#aaaaaa"> Hide / Close</text>
</g>
<!-- L5 -->
<g id="node24" class="node">
<title>L5</title>
<ellipse fill="white" stroke="white" cx="1960.86" cy="-575.5" rx="0.36" ry="0.36"/>
</g>
<!-- L6 -->
<g id="node25" class="node">
<title>L6</title>
<ellipse fill="white" stroke="white" cx="1960.86" cy="-443" rx="0.36" ry="0.36"/>
</g>
<!-- L5&#45;&gt;L6 -->
<g id="edge23" class="edge">
<title>L5&#45;&gt;L6</title>
<path fill="none" stroke="#cccc66" d="M1960.86,-574.41C1960.86,-571.14 1960.86,-484.15 1960.86,-454.1"/>
<polygon fill="#cccc66" stroke="#cccc66" points="1964.36,-454.09 1960.86,-444.09 1957.36,-454.09 1964.36,-454.09"/>
<text text-anchor="middle" x="1993.36" y="-518.8" font-family="Cascadia Code PL" font-size="9.00" fill="#aaaaaa"> Select / Commit</text>
</g>
</g>
</svg>
