<?xml version="1.0" encoding="UTF-8" standalone="no"?>
<!DOCTYPE svg PUBLIC "-//W3C//DTD SVG 1.1//EN"
 "http://www.w3.org/Graphics/SVG/1.1/DTD/svg11.dtd">
<!-- Generated by graphviz version 2.42.4 (0)
 -->
<!-- Title: EDITBAR Pages: 1 -->
<svg width="774pt" height="690pt"
 viewBox="0.00 0.00 774.00 689.50" xmlns="http://www.w3.org/2000/svg" xmlns:xlink="http://www.w3.org/1999/xlink">
<g id="graph0" class="graph" transform="scale(1 1) rotate(0) translate(4 685.5)">
<title>EDITBAR</title>
<text text-anchor="middle" x="383" y="-658.3" font-family="Cascadia Code PL" font-size="24.00" fill="white">EDIT BAR STATE MACHINE</text>
<g id="clust5" class="cluster">
<title>cluster_legend</title>
<polygon fill="transparent" stroke="white" stroke-dasharray="5,2" points="585,-367.64 585,-569.86 758,-569.86 758,-367.64 585,-367.64"/>
<text text-anchor="middle" x="613" y="-557.06" font-family="Cascadia Code PL" font-size="11.00" fill="white">LEGEND</text>
</g>
<g id="clust2" class="cluster">
<title>cluster_docking</title>
<polygon fill="transparent" stroke="orange" stroke-dasharray="5,2" points="248,-216.5 248,-435.5 432,-435.5 432,-216.5 248,-216.5"/>
<text text-anchor="middle" x="320.5" y="-422.7" font-family="Cascadia Code PL" font-size="11.00" fill="orange">DOCKING — LEFT / RIGHT</text>
</g>
<g id="clust3" class="cluster">
<title>cluster_actions</title>
<polygon fill="transparent" stroke="orange" stroke-dasharray="5,2" points="389,-463.5 389,-639.5 577,-639.5 577,-463.5 389,-463.5"/>
<text text-anchor="middle" x="483" y="-626.7" font-family="Cascadia Code PL" font-size="11.00" fill="orange">EDIT BAR ACTIONS — 20 BUTTONS</text>
</g>
<!-- MAIN -->
<g id="node1" class="node">
<title>MAIN</title>
<polygon fill="none" stroke="orange" stroke-width="2" points="161,-559.5 158,-563.5 137,-563.5 134,-559.5 67,-559.5 67,-523.5 161,-523.5 161,-559.5"/>
<text text-anchor="middle" x="114" y="-538.1" font-family="Cascadia Code PL" font-size="13.00" fill="orange">MAIN STATES</text>
</g>
<!-- S_HIDDEN -->
<g id="node3" class="node">
<title>S_HIDDEN</title>
<polygon fill="none" stroke="white" points="192.5,-410 35.5,-410 35.5,-342 192.5,-342 192.5,-410"/>
<text text-anchor="middle" x="114" y="-397.2" font-family="Cascadia Code PL" font-size="11.00" fill="cyan">1 · HIDDEN</text>
<text text-anchor="middle" x="114" y="-385.2" font-family="Cascadia Code PL" font-size="11.00" fill="cyan">─────────────────</text>
<text text-anchor="middle" x="114" y="-373.2" font-family="Cascadia Code PL" font-size="11.00" fill="cyan">SCRN.showEditBar% = FALSE</text>
<text text-anchor="middle" x="114" y="-361.2" font-family="Cascadia Code PL" font-size="11.00" fill="cyan">ManuallyHidden% = TRUE</text>
<text text-anchor="middle" x="114" y="-349.2" font-family="Cascadia Code PL" font-size="11.00" fill="cyan">Not rendered</text>
</g>
<!-- MAIN&#45;&gt;S_HIDDEN -->
<g id="edge9" class="edge">
<title>MAIN&#45;&gt;S_HIDDEN</title>
<path fill="none" stroke="#555555" stroke-dasharray="1,5" d="M114,-523.31C114,-496.5 114,-444.26 114,-410"/>
</g>
<!-- DOCK -->
<g id="node2" class="node">
<title>DOCK</title>
<polygon fill="none" stroke="orange" stroke-width="2" points="370,-559.5 367,-563.5 346,-563.5 343,-559.5 296,-559.5 296,-523.5 370,-523.5 370,-559.5"/>
<text text-anchor="middle" x="333" y="-538.1" font-family="Cascadia Code PL" font-size="13.00" fill="orange">DOCKING</text>
</g>
<!-- D_LEFT -->
<g id="node7" class="node">
<title>D_LEFT</title>
<polygon fill="none" stroke="white" points="409,-407.5 257,-407.5 257,-344.5 409,-344.5 409,-407.5"/>
<text text-anchor="middle" x="333" y="-395.5" font-family="Cascadia Code PL" font-size="10.00" fill="cyan">Docked Left</text>
<text text-anchor="middle" x="333" y="-384.5" font-family="Cascadia Code PL" font-size="10.00" fill="cyan">────────────</text>
<text text-anchor="middle" x="333" y="-373.5" font-family="Cascadia Code PL" font-size="10.00" fill="cyan">EDITBAR.dock% = DOCK_LEFT</text>
<text text-anchor="middle" x="333" y="-362.5" font-family="Cascadia Code PL" font-size="10.00" fill="cyan">Bar on left edge</text>
<text text-anchor="middle" x="333" y="-351.5" font-family="Cascadia Code PL" font-size="10.00" fill="cyan">Between toolbar and canvas</text>
</g>
<!-- DOCK&#45;&gt;D_LEFT -->
<g id="edge10" class="edge">
<title>DOCK&#45;&gt;D_LEFT</title>
<path fill="none" stroke="#555555" stroke-dasharray="1,5" d="M333,-523.31C333,-502.56 333,-466.59 333,-435.5"/>
</g>
<!-- S_VISIBLE -->
<g id="node4" class="node">
<title>S_VISIBLE</title>
<polygon fill="none" stroke="white" points="190,-296 36,-296 36,-216 190,-216 190,-296"/>
<text text-anchor="middle" x="113" y="-283.2" font-family="Cascadia Code PL" font-size="11.00" fill="cyan">2 · VISIBLE</text>
<text text-anchor="middle" x="113" y="-271.2" font-family="Cascadia Code PL" font-size="11.00" fill="cyan">─────────────────</text>
<text text-anchor="middle" x="113" y="-259.2" font-family="Cascadia Code PL" font-size="11.00" fill="cyan">SCRN.showEditBar% = TRUE</text>
<text text-anchor="middle" x="113" y="-247.2" font-family="Cascadia Code PL" font-size="11.00" fill="cyan">Vertical icon bar</text>
<text text-anchor="middle" x="113" y="-235.2" font-family="Cascadia Code PL" font-size="11.00" fill="cyan">20 action buttons</text>
<text text-anchor="middle" x="113" y="-223.2" font-family="Cascadia Code PL" font-size="11.00" fill="cyan">Docked LEFT or RIGHT</text>
</g>
<!-- S_HIDDEN&#45;&gt;S_VISIBLE -->
<g id="edge1" class="edge">
<title>S_HIDDEN&#45;&gt;S_VISIBLE</title>
<path fill="none" stroke="#66cc66" d="M78.25,-341.96C74.07,-336.39 70.44,-330.34 68,-324 65.59,-317.73 65.66,-311.47 67.36,-305.42"/>
<polygon fill="#66cc66" stroke="#66cc66" points="70.62,-306.7 71.26,-296.13 64.17,-303.99 70.62,-306.7"/>
<text text-anchor="middle" x="104.5" y="-316.8" font-family="Cascadia Code PL" font-size="9.00" fill="#aaaaaa"> &#160;F5 / Menu toggle</text>
</g>
<!-- S_VISIBLE&#45;&gt;S_HIDDEN -->
<g id="edge2" class="edge">
<title>S_VISIBLE&#45;&gt;S_HIDDEN</title>
<path fill="none" stroke="#cc6666" stroke-dasharray="5,2" d="M135.14,-296.31C137.55,-302.09 139.63,-308.09 141,-314 142.39,-320 142.04,-326.14 140.61,-332.1"/>
<polygon fill="#cc6666" stroke="#cc6666" points="137.19,-331.31 137.31,-341.91 143.82,-333.55 137.19,-331.31"/>
<text text-anchor="middle" x="178.5" y="-316.8" font-family="Cascadia Code PL" font-size="9.00" fill="#aaaaaa"> &#160;F5 / Menu toggle</text>
</g>
<!-- S_HOVER -->
<g id="node5" class="node">
<title>S_HOVER</title>
<polygon fill="none" stroke="white" points="150,-170 0,-170 0,-114 150,-114 150,-170"/>
<text text-anchor="middle" x="75" y="-157.2" font-family="Cascadia Code PL" font-size="11.00" fill="cyan">3 · BUTTON HOVER</text>
<text text-anchor="middle" x="75" y="-145.2" font-family="Cascadia Code PL" font-size="11.00" fill="cyan">─────────────────</text>
<text text-anchor="middle" x="75" y="-133.2" font-family="Cascadia Code PL" font-size="11.00" fill="cyan">Mouse over action button</text>
<text text-anchor="middle" x="75" y="-121.2" font-family="Cascadia Code PL" font-size="11.00" fill="cyan">Highlight + tooltip queued</text>
</g>
<!-- S_VISIBLE&#45;&gt;S_HOVER -->
<g id="edge3" class="edge">
<title>S_VISIBLE&#45;&gt;S_HOVER</title>
<path fill="none" stroke="#88aacc" d="M35.78,-224.86C25.49,-217.6 16.33,-208.74 10,-198 5.77,-190.82 6.55,-184.14 10.35,-178.08"/>
<polygon fill="#88aacc" stroke="#88aacc" points="13.27,-180.05 17.2,-170.21 7.99,-175.45 13.27,-180.05"/>
<text text-anchor="middle" x="50.5" y="-190.8" font-family="Cascadia Code PL" font-size="9.00" fill="#aaaaaa"> &#160;Mouse over button</text>
</g>
<!-- S_HOVER&#45;&gt;S_VISIBLE -->
<g id="edge6" class="edge">
<title>S_HOVER&#45;&gt;S_VISIBLE</title>
<path fill="none" stroke="#cc6666" stroke-dasharray="5,2" d="M84.75,-170.09C86.84,-175.98 89.01,-182.19 91,-188 93.03,-193.93 95.12,-200.17 97.18,-206.35"/>
<polygon fill="#cc6666" stroke="#cc6666" points="93.9,-207.58 100.36,-215.98 100.55,-205.38 93.9,-207.58"/>
<text text-anchor="middle" x="124" y="-190.8" font-family="Cascadia Code PL" font-size="9.00" fill="#aaaaaa"> &#160;Mouse leaves</text>
</g>
<!-- S_CLICK -->
<g id="node6" class="node">
<title>S_CLICK</title>
<polygon fill="none" stroke="white" points="193,-68 69,-68 69,0 193,0 193,-68"/>
<text text-anchor="middle" x="131" y="-55.2" font-family="Cascadia Code PL" font-size="11.00" fill="cyan">4 · BUTTON CLICK</text>
<text text-anchor="middle" x="131" y="-43.2" font-family="Cascadia Code PL" font-size="11.00" fill="cyan">─────────────────</text>
<text text-anchor="middle" x="131" y="-31.2" font-family="Cascadia Code PL" font-size="11.00" fill="cyan">CMD_execute_action()</text>
<text text-anchor="middle" x="131" y="-19.2" font-family="Cascadia Code PL" font-size="11.00" fill="cyan">Action dispatched</text>
<text text-anchor="middle" x="131" y="-7.2" font-family="Cascadia Code PL" font-size="11.00" fill="cyan">Visual feedback flash</text>
</g>
<!-- S_HOVER&#45;&gt;S_CLICK -->
<g id="edge4" class="edge">
<title>S_HOVER&#45;&gt;S_CLICK</title>
<path fill="none" stroke="#66cc66" d="M89.28,-113.98C95.22,-102.72 102.26,-89.39 108.85,-76.92"/>
<polygon fill="#66cc66" stroke="#66cc66" points="111.97,-78.51 113.55,-68.03 105.78,-75.24 111.97,-78.51"/>
<text text-anchor="middle" x="120.5" y="-88.8" font-family="Cascadia Code PL" font-size="9.00" fill="#aaaaaa"> &#160;B1 click</text>
</g>
<!-- S_CLICK&#45;&gt;S_VISIBLE -->
<g id="edge5" class="edge">
<title>S_CLICK&#45;&gt;S_VISIBLE</title>
<path fill="none" stroke="#cccc66" d="M146,-68.19C159.01,-101.87 173.39,-155.03 157,-198 155.82,-201.1 154.41,-204.16 152.84,-207.17"/>
<polygon fill="#cccc66" stroke="#cccc66" points="149.7,-205.6 147.67,-216 155.74,-209.13 149.7,-205.6"/>
<text text-anchor="middle" x="199.5" y="-139.8" font-family="Cascadia Code PL" font-size="9.00" fill="#aaaaaa"> &#160;Action executed</text>
</g>
<!-- D_RIGHT -->
<g id="node8" class="node">
<title>D_RIGHT</title>
<polygon fill="none" stroke="white" points="419.5,-287.5 260.5,-287.5 260.5,-224.5 419.5,-224.5 419.5,-287.5"/>
<text text-anchor="middle" x="340" y="-275.5" font-family="Cascadia Code PL" font-size="10.00" fill="cyan">Docked Right</text>
<text text-anchor="middle" x="340" y="-264.5" font-family="Cascadia Code PL" font-size="10.00" fill="cyan">────────────</text>
<text text-anchor="middle" x="340" y="-253.5" font-family="Cascadia Code PL" font-size="10.00" fill="cyan">EDITBAR.dock% = DOCK_RIGHT</text>
<text text-anchor="middle" x="340" y="-242.5" font-family="Cascadia Code PL" font-size="10.00" fill="cyan">Bar on right edge</text>
<text text-anchor="middle" x="340" y="-231.5" font-family="Cascadia Code PL" font-size="10.00" fill="cyan">Between canvas and layers</text>
</g>
<!-- D_LEFT&#45;&gt;D_RIGHT -->
<g id="edge7" class="edge">
<title>D_LEFT&#45;&gt;D_RIGHT</title>
<path fill="none" stroke="#88aacc" d="M282.48,-344.21C274.33,-335.34 269.99,-325.05 275,-314 278.07,-307.23 282.38,-300.95 287.34,-295.22"/>
<polygon fill="#88aacc" stroke="#88aacc" points="290.08,-297.41 294.44,-287.75 285.01,-292.58 290.08,-297.41"/>
<text text-anchor="middle" x="308" y="-317.1" font-family="Cascadia Code PL" font-size="8.00" fill="#aaaaaa"> Menu: Dock Right</text>
</g>
<!-- D_RIGHT&#45;&gt;D_LEFT -->
<g id="edge8" class="edge">
<title>D_RIGHT&#45;&gt;D_LEFT</title>
<path fill="none" stroke="#88aacc" d="M341.65,-287.72C341.95,-299.13 341.92,-312.17 341,-324 340.74,-327.31 340.39,-330.72 339.98,-334.15"/>
<polygon fill="#88aacc" stroke="#88aacc" points="336.47,-333.97 338.6,-344.35 343.41,-334.91 336.47,-333.97"/>
<text text-anchor="middle" x="372.5" y="-317.1" font-family="Cascadia Code PL" font-size="8.00" fill="#aaaaaa"> Menu: Dock Left</text>
</g>
<!-- A_LIST -->
<g id="node9" class="node">
<title>A_LIST</title>
<polygon fill="none" stroke="white" points="537.5,-611.5 408.5,-611.5 408.5,-471.5 537.5,-471.5 537.5,-611.5"/>
<text text-anchor="middle" x="473" y="-599.5" font-family="Cascadia Code PL" font-size="10.00" fill="cyan">Edit Actions</text>
<text text-anchor="middle" x="473" y="-588.5" font-family="Cascadia Code PL" font-size="10.00" fill="cyan">────────────</text>
<text text-anchor="middle" x="473" y="-577.5" font-family="Cascadia Code PL" font-size="10.00" fill="cyan">Undo, Redo</text>
<text text-anchor="middle" x="473" y="-566.5" font-family="Cascadia Code PL" font-size="10.00" fill="cyan">Cut, Copy, Paste</text>
<text text-anchor="middle" x="473" y="-555.5" font-family="Cascadia Code PL" font-size="10.00" fill="cyan">Clear, Select All</text>
<text text-anchor="middle" x="473" y="-544.5" font-family="Cascadia Code PL" font-size="10.00" fill="cyan">Deselect, Invert Selection</text>
<text text-anchor="middle" x="473" y="-533.5" font-family="Cascadia Code PL" font-size="10.00" fill="cyan">Crop to Selection</text>
<text text-anchor="middle" x="473" y="-522.5" font-family="Cascadia Code PL" font-size="10.00" fill="cyan">Flip H/V, Rotate CW/CCW</text>
<text text-anchor="middle" x="473" y="-511.5" font-family="Cascadia Code PL" font-size="10.00" fill="cyan">Scale Up/Down</text>
<text text-anchor="middle" x="473" y="-500.5" font-family="Cascadia Code PL" font-size="10.00" fill="cyan">Transform...</text>
<text text-anchor="middle" x="473" y="-489.5" font-family="Cascadia Code PL" font-size="10.00" fill="cyan">Image Adjustments</text>
<text text-anchor="middle" x="473" y="-478.5" font-family="Cascadia Code PL" font-size="10.00" fill="cyan">Remove Background</text>
</g>
<!-- L1 -->
<g id="node10" class="node">
<title>L1</title>
<ellipse fill="white" stroke="white" cx="685" cy="-541.5" rx="0.36" ry="0.36"/>
</g>
<!-- L2 -->
<g id="node11" class="node">
<title>L2</title>
<ellipse fill="white" stroke="white" cx="685" cy="-376" rx="0.36" ry="0.36"/>
</g>
<!-- L1&#45;&gt;L2 -->
<g id="edge11" class="edge">
<title>L1&#45;&gt;L2</title>
<path fill="none" stroke="#66cc66" d="M685,-540.38C685,-536.19 685,-422.17 685,-387.14"/>
<polygon fill="#66cc66" stroke="#66cc66" points="688.5,-387.11 685,-377.11 681.5,-387.11 688.5,-387.11"/>
<text text-anchor="middle" x="717.5" y="-446.3" font-family="Cascadia Code PL" font-size="9.00" fill="#aaaaaa"> Show / Activate</text>
</g>
<!-- L3 -->
<g id="node12" class="node">
<title>L3</title>
<ellipse fill="white" stroke="white" cx="611" cy="-541.5" rx="0.36" ry="0.36"/>
</g>
<!-- L4 -->
<g id="node13" class="node">
<title>L4</title>
<ellipse fill="white" stroke="white" cx="611" cy="-376" rx="0.36" ry="0.36"/>
</g>
<!-- L3&#45;&gt;L4 -->
<g id="edge12" class="edge">
<title>L3&#45;&gt;L4</title>
<path fill="none" stroke="#cc6666" stroke-dasharray="5,2" d="M611,-540.38C611,-536.19 611,-422.17 611,-387.14"/>
<polygon fill="#cc6666" stroke="#cc6666" points="614.5,-387.11 611,-377.11 607.5,-387.11 614.5,-387.11"/>
<text text-anchor="middle" x="636.5" y="-446.3" font-family="Cascadia Code PL" font-size="9.00" fill="#aaaaaa"> Hide / Close</text>
</g>
</g>
</svg>
