<?xml version="1.0" encoding="UTF-8" standalone="no"?>
<!DOCTYPE svg PUBLIC "-//W3C//DTD SVG 1.1//EN"
 "http://www.w3.org/Graphics/SVG/1.1/DTD/svg11.dtd">
<!-- Generated by graphviz version 2.42.4 (0)
 -->
<!-- Title: LAYERS_PANEL Pages: 1 -->
<svg width="2164pt" height="879pt"
 viewBox="0.00 0.00 2163.84 879.36" xmlns="http://www.w3.org/2000/svg" xmlns:xlink="http://www.w3.org/1999/xlink">
<g id="graph0" class="graph" transform="scale(1 1) rotate(0) translate(4 875.36)">
<title>LAYERS_PANEL</title>
<text text-anchor="middle" x="1077.92" y="-848.16" font-family="Cascadia Code PL" font-size="24.00" fill="white">LAYERS PANEL STATE MACHINE</text>
<g id="clust7" class="cluster">
<title>cluster_legend</title>
<polygon fill="transparent" stroke="white" stroke-dasharray="5,2" points="1788.84,-688.64 1788.84,-829.36 2147.84,-829.36 2147.84,-688.64 1788.84,-688.64"/>
<text text-anchor="middle" x="1816.84" y="-816.56" font-family="Cascadia Code PL" font-size="11.00" fill="white">LEGEND</text>
</g>
<g id="clust2" class="cluster">
<title>cluster_drag</title>
<polygon fill="transparent" stroke="orange" stroke-dasharray="5,2" points="1059.84,-8 1059.84,-332 1291.84,-332 1291.84,-8 1059.84,-8"/>
<text text-anchor="middle" x="1107.34" y="-319.2" font-family="Cascadia Code PL" font-size="11.00" fill="orange">DRAG REORDER</text>
</g>
<g id="clust3" class="cluster">
<title>cluster_visibility</title>
<polygon fill="transparent" stroke="orange" stroke-dasharray="5,2" points="1231.84,-363 1231.84,-599.5 1459.84,-599.5 1459.84,-363 1231.84,-363"/>
<text text-anchor="middle" x="1280.84" y="-586.7" font-family="Cascadia Code PL" font-size="11.00" fill="orange">VISIBILITY SWIPE</text>
</g>
<g id="clust4" class="cluster">
<title>cluster_blend</title>
<polygon fill="transparent" stroke="orange" stroke-dasharray="5,2" points="1554.84,-368.5 1554.84,-745.5 1780.84,-745.5 1780.84,-368.5 1554.84,-368.5"/>
<text text-anchor="middle" x="1648.84" y="-732.7" font-family="Cascadia Code PL" font-size="11.00" fill="orange">BLEND MODE POPUP — 18 MODES</text>
</g>
<!-- MAIN -->
<g id="node1" class="node">
<title>MAIN</title>
<polygon fill="none" stroke="orange" stroke-width="2" points="467.84,-819 464.84,-823 443.84,-823 440.84,-819 373.84,-819 373.84,-783 467.84,-783 467.84,-819"/>
<text text-anchor="middle" x="420.84" y="-797.6" font-family="Cascadia Code PL" font-size="13.00" fill="orange">MAIN STATES</text>
</g>
<!-- S_NORMAL -->
<g id="node5" class="node">
<title>S_NORMAL</title>
<polygon fill="none" stroke="white" points="496.84,-737 344.84,-737 344.84,-657 496.84,-657 496.84,-737"/>
<text text-anchor="middle" x="420.84" y="-724.2" font-family="Cascadia Code PL" font-size="11.00" fill="cyan">1 · NORMAL</text>
<text text-anchor="middle" x="420.84" y="-712.2" font-family="Cascadia Code PL" font-size="11.00" fill="cyan">─────────────────</text>
<text text-anchor="middle" x="420.84" y="-700.2" font-family="Cascadia Code PL" font-size="11.00" fill="cyan">No drag, no popup</text>
<text text-anchor="middle" x="420.84" y="-688.2" font-family="Cascadia Code PL" font-size="11.00" fill="cyan">Rows rendered normally</text>
<text text-anchor="middle" x="420.84" y="-676.2" font-family="Cascadia Code PL" font-size="11.00" fill="cyan">hoverRow tracks mouse</text>
<text text-anchor="middle" x="420.84" y="-664.2" font-family="Cascadia Code PL" font-size="11.00" fill="cyan">CURRENT_LAYER% selected</text>
</g>
<!-- MAIN&#45;&gt;S_NORMAL -->
<g id="edge27" class="edge">
<title>MAIN&#45;&gt;S_NORMAL</title>
<path fill="none" stroke="#555555" stroke-dasharray="1,5" d="M420.84,-782.7C420.84,-770.19 420.84,-752.8 420.84,-737.02"/>
</g>
<!-- DRAG_F -->
<g id="node2" class="node">
<title>DRAG_F</title>
<polygon fill="none" stroke="orange" stroke-width="2" points="1561.34,-819 1558.34,-823 1537.34,-823 1534.34,-819 1452.34,-819 1452.34,-783 1561.34,-783 1561.34,-819"/>
<text text-anchor="middle" x="1506.84" y="-797.6" font-family="Cascadia Code PL" font-size="13.00" fill="orange">DRAG REORDER</text>
</g>
<!-- D_ABOVE -->
<g id="node13" class="node">
<title>D_ABOVE</title>
<polygon fill="none" stroke="white" points="1222.34,-304 1109.34,-304 1109.34,-241 1222.34,-241 1222.34,-304"/>
<text text-anchor="middle" x="1165.84" y="-292" font-family="Cascadia Code PL" font-size="10.00" fill="cyan">Drop Above Target</text>
<text text-anchor="middle" x="1165.84" y="-281" font-family="Cascadia Code PL" font-size="10.00" fill="cyan">────────────</text>
<text text-anchor="middle" x="1165.84" y="-270" font-family="Cascadia Code PL" font-size="10.00" fill="cyan">dropTargetZIndex set</text>
<text text-anchor="middle" x="1165.84" y="-259" font-family="Cascadia Code PL" font-size="10.00" fill="cyan">Insertion line shown</text>
<text text-anchor="middle" x="1165.84" y="-248" font-family="Cascadia Code PL" font-size="10.00" fill="cyan">above target row</text>
</g>
<!-- DRAG_F&#45;&gt;D_ABOVE -->
<g id="edge28" class="edge">
<title>DRAG_F&#45;&gt;D_ABOVE</title>
<path fill="none" stroke="#555555" stroke-dasharray="1,5" d="M1506.84,-782.67C1506.84,-762.38 1506.84,-727.75 1506.84,-698 1506.84,-698 1506.84,-698 1506.84,-407 1506.84,-359.16 1388.98,-321.43 1291.84,-298.45"/>
</g>
<!-- BLEND_F -->
<g id="node3" class="node">
<title>BLEND_F</title>
<polygon fill="none" stroke="orange" stroke-width="2" points="1680.34,-819 1677.34,-823 1656.34,-823 1653.34,-819 1579.34,-819 1579.34,-783 1680.34,-783 1680.34,-819"/>
<text text-anchor="middle" x="1629.84" y="-797.6" font-family="Cascadia Code PL" font-size="13.00" fill="orange">BLEND POPUP</text>
</g>
<!-- B_CLOSED -->
<g id="node18" class="node">
<title>B_CLOSED</title>
<polygon fill="none" stroke="white" points="1696.84,-717.5 1562.84,-717.5 1562.84,-676.5 1696.84,-676.5 1696.84,-717.5"/>
<text text-anchor="middle" x="1629.84" y="-705.5" font-family="Cascadia Code PL" font-size="10.00" fill="cyan">Popup Closed</text>
<text text-anchor="middle" x="1629.84" y="-694.5" font-family="Cascadia Code PL" font-size="10.00" fill="cyan">────────────</text>
<text text-anchor="middle" x="1629.84" y="-683.5" font-family="Cascadia Code PL" font-size="10.00" fill="cyan">blendPopupOpen = FALSE</text>
</g>
<!-- BLEND_F&#45;&gt;B_CLOSED -->
<g id="edge29" class="edge">
<title>BLEND_F&#45;&gt;B_CLOSED</title>
<path fill="none" stroke="#555555" stroke-dasharray="1,5" d="M1629.84,-782.7C1629.84,-772.4 1629.84,-758.79 1629.84,-745.5"/>
</g>
<!-- VIS_F -->
<g id="node4" class="node">
<title>VIS_F</title>
<polygon fill="none" stroke="orange" stroke-width="2" points="1433.84,-819 1430.84,-823 1409.84,-823 1406.84,-819 1359.84,-819 1359.84,-783 1433.84,-783 1433.84,-819"/>
<text text-anchor="middle" x="1396.84" y="-797.6" font-family="Cascadia Code PL" font-size="13.00" fill="orange">VISIBILITY</text>
</g>
<!-- V_OFF -->
<g id="node16" class="node">
<title>V_OFF</title>
<polygon fill="none" stroke="white" points="1379.34,-571.5 1278.34,-571.5 1278.34,-530.5 1379.34,-530.5 1379.34,-571.5"/>
<text text-anchor="middle" x="1328.84" y="-559.5" font-family="Cascadia Code PL" font-size="10.00" fill="cyan">No Swipe</text>
<text text-anchor="middle" x="1328.84" y="-548.5" font-family="Cascadia Code PL" font-size="10.00" fill="cyan">────────────</text>
<text text-anchor="middle" x="1328.84" y="-537.5" font-family="Cascadia Code PL" font-size="10.00" fill="cyan">visSwiping = FALSE</text>
</g>
<!-- VIS_F&#45;&gt;V_OFF -->
<g id="edge30" class="edge">
<title>VIS_F&#45;&gt;V_OFF</title>
<path fill="none" stroke="#555555" stroke-dasharray="1,5" d="M1397.8,-782.88C1399.1,-748.48 1398.84,-669.14 1373.84,-609 1372.5,-605.79 1370.94,-602.61 1369.2,-599.5"/>
</g>
<!-- S_HOVER -->
<g id="node6" class="node">
<title>S_HOVER</title>
<polygon fill="none" stroke="white" points="801.84,-731 661.84,-731 661.84,-663 801.84,-663 801.84,-731"/>
<text text-anchor="middle" x="731.84" y="-718.2" font-family="Cascadia Code PL" font-size="11.00" fill="cyan">2 · HOVER ROW</text>
<text text-anchor="middle" x="731.84" y="-706.2" font-family="Cascadia Code PL" font-size="11.00" fill="cyan">─────────────────</text>
<text text-anchor="middle" x="731.84" y="-694.2" font-family="Cascadia Code PL" font-size="11.00" fill="cyan">hoverRow = layerIdx</text>
<text text-anchor="middle" x="731.84" y="-682.2" font-family="Cascadia Code PL" font-size="11.00" fill="cyan">Row highlighted</text>
<text text-anchor="middle" x="731.84" y="-670.2" font-family="Cascadia Code PL" font-size="11.00" fill="cyan">Buttons visible (eye, lock)</text>
</g>
<!-- S_NORMAL&#45;&gt;S_HOVER -->
<g id="edge1" class="edge">
<title>S_NORMAL&#45;&gt;S_HOVER</title>
<path fill="none" stroke="#66cc66" d="M497.14,-687.73C512.89,-686.18 529.38,-684.81 544.84,-684 575.46,-682.4 583.22,-682.32 613.84,-684 626.1,-684.67 639.04,-685.74 651.69,-686.97"/>
<polygon fill="#66cc66" stroke="#66cc66" points="651.44,-690.47 661.75,-688 652.15,-683.5 651.44,-690.47"/>
<text text-anchor="middle" x="579.34" y="-686.8" font-family="Cascadia Code PL" font-size="9.00" fill="#aaaaaa"> &#160;Mouse over row</text>
</g>
<!-- S_SOLO -->
<g id="node12" class="node">
<title>S_SOLO</title>
<polygon fill="none" stroke="white" points="292.34,-591 143.34,-591 143.34,-511 292.34,-511 292.34,-591"/>
<text text-anchor="middle" x="217.84" y="-578.2" font-family="Cascadia Code PL" font-size="11.00" fill="cyan">8 · SOLO MODE</text>
<text text-anchor="middle" x="217.84" y="-566.2" font-family="Cascadia Code PL" font-size="11.00" fill="cyan">─────────────────</text>
<text text-anchor="middle" x="217.84" y="-554.2" font-family="Cascadia Code PL" font-size="11.00" fill="cyan">soloLayer = layerIdx</text>
<text text-anchor="middle" x="217.84" y="-542.2" font-family="Cascadia Code PL" font-size="11.00" fill="cyan">savedVisibility(1&#45;64) stored</text>
<text text-anchor="middle" x="217.84" y="-530.2" font-family="Cascadia Code PL" font-size="11.00" fill="cyan">All others hidden</text>
<text text-anchor="middle" x="217.84" y="-518.2" font-family="Cascadia Code PL" font-size="11.00" fill="cyan">Alt+Click eye toggles</text>
</g>
<!-- S_NORMAL&#45;&gt;S_SOLO -->
<g id="edge13" class="edge">
<title>S_NORMAL&#45;&gt;S_SOLO</title>
<path fill="none" stroke="#cc66cc" d="M344.8,-686.27C288.49,-677.32 218.59,-661.93 200.84,-639 192.42,-628.13 191.95,-614.25 194.9,-600.79"/>
<polygon fill="#cc66cc" stroke="#cc66cc" points="198.29,-601.68 197.59,-591.11 191.54,-599.81 198.29,-601.68"/>
<text text-anchor="middle" x="244.84" y="-631.8" font-family="Cascadia Code PL" font-size="9.00" fill="#aaaaaa"> &#160;Alt+Click eye icon</text>
<text text-anchor="middle" x="244.84" y="-621.8" font-family="Cascadia Code PL" font-size="9.00" fill="#aaaaaa"> &#160;Save all visibility</text>
<text text-anchor="middle" x="244.84" y="-611.8" font-family="Cascadia Code PL" font-size="9.00" fill="#aaaaaa"> &#160;Hide all except target</text>
</g>
<!-- S_HOVER&#45;&gt;S_NORMAL -->
<g id="edge2" class="edge">
<title>S_HOVER&#45;&gt;S_NORMAL</title>
<path fill="none" stroke="#cc6666" stroke-dasharray="5,2" d="M661.6,-697C615.83,-697 555.79,-697 507.12,-697"/>
<polygon fill="#cc6666" stroke="#cc6666" points="506.92,-693.5 496.92,-697 506.92,-700.5 506.92,-693.5"/>
<text text-anchor="middle" x="579.34" y="-702.8" font-family="Cascadia Code PL" font-size="9.00" fill="#aaaaaa"> &#160;Mouse leaves panel</text>
</g>
<!-- S_DRAG_PENDING -->
<g id="node7" class="node">
<title>S_DRAG_PENDING</title>
<polygon fill="none" stroke="white" points="526.84,-591 386.84,-591 386.84,-511 526.84,-511 526.84,-591"/>
<text text-anchor="middle" x="456.84" y="-578.2" font-family="Cascadia Code PL" font-size="11.00" fill="cyan">3 · DRAG PENDING</text>
<text text-anchor="middle" x="456.84" y="-566.2" font-family="Cascadia Code PL" font-size="11.00" fill="cyan">─────────────────</text>
<text text-anchor="middle" x="456.84" y="-554.2" font-family="Cascadia Code PL" font-size="11.00" fill="cyan">dragPending = TRUE</text>
<text text-anchor="middle" x="456.84" y="-542.2" font-family="Cascadia Code PL" font-size="11.00" fill="cyan">Mouse down, not moved</text>
<text text-anchor="middle" x="456.84" y="-530.2" font-family="Cascadia Code PL" font-size="11.00" fill="cyan">dragStartY = mouseY</text>
<text text-anchor="middle" x="456.84" y="-518.2" font-family="Cascadia Code PL" font-size="11.00" fill="cyan">Waiting for threshold</text>
</g>
<!-- S_HOVER&#45;&gt;S_DRAG_PENDING -->
<g id="edge3" class="edge">
<title>S_HOVER&#45;&gt;S_DRAG_PENDING</title>
<path fill="none" stroke="#66cc66" d="M661.8,-687.1C621.39,-679.36 571.16,-665.09 532.84,-639 518.95,-629.54 520.68,-621.83 509.84,-609 506.96,-605.6 503.95,-602.13 500.88,-598.66"/>
<polygon fill="#66cc66" stroke="#66cc66" points="503.4,-596.22 494.11,-591.12 498.19,-600.9 503.4,-596.22"/>
<text text-anchor="middle" x="576.34" y="-626.8" font-family="Cascadia Code PL" font-size="9.00" fill="#aaaaaa"> &#160;Mouse down on row</text>
<text text-anchor="middle" x="576.34" y="-616.8" font-family="Cascadia Code PL" font-size="9.00" fill="#aaaaaa"> &#160;(not on button)</text>
</g>
<!-- S_OPACITY_DRAG -->
<g id="node9" class="node">
<title>S_OPACITY_DRAG</title>
<polygon fill="none" stroke="white" points="735.84,-591 605.84,-591 605.84,-511 735.84,-511 735.84,-591"/>
<text text-anchor="middle" x="670.84" y="-578.2" font-family="Cascadia Code PL" font-size="11.00" fill="cyan">5 · OPACITY DRAG</text>
<text text-anchor="middle" x="670.84" y="-566.2" font-family="Cascadia Code PL" font-size="11.00" fill="cyan">─────────────────</text>
<text text-anchor="middle" x="670.84" y="-554.2" font-family="Cascadia Code PL" font-size="11.00" fill="cyan">opacityDrag = TRUE</text>
<text text-anchor="middle" x="670.84" y="-542.2" font-family="Cascadia Code PL" font-size="11.00" fill="cyan">opacityDragLayer = idx</text>
<text text-anchor="middle" x="670.84" y="-530.2" font-family="Cascadia Code PL" font-size="11.00" fill="cyan">Slider tracks mouse X</text>
<text text-anchor="middle" x="670.84" y="-518.2" font-family="Cascadia Code PL" font-size="11.00" fill="cyan">0&#45;255 range</text>
</g>
<!-- S_HOVER&#45;&gt;S_OPACITY_DRAG -->
<g id="edge7" class="edge">
<title>S_HOVER&#45;&gt;S_OPACITY_DRAG</title>
<path fill="none" stroke="#66cc66" d="M726.32,-662.86C722.84,-646.22 717.53,-626.04 709.84,-609 708.48,-605.99 706.97,-602.98 705.34,-599.98"/>
<polygon fill="#66cc66" stroke="#66cc66" points="708.24,-598.01 700.19,-591.12 702.19,-601.53 708.24,-598.01"/>
<text text-anchor="middle" x="768.34" y="-626.8" font-family="Cascadia Code PL" font-size="9.00" fill="#aaaaaa"> &#160;Click opacity slider area</text>
<text text-anchor="middle" x="768.34" y="-616.8" font-family="Cascadia Code PL" font-size="9.00" fill="#aaaaaa"> &#160;opacityDrag = TRUE</text>
</g>
<!-- S_SCROLL_DRAG -->
<g id="node10" class="node">
<title>S_SCROLL_DRAG</title>
<polygon fill="none" stroke="white" points="931.34,-585 796.34,-585 796.34,-517 931.34,-517 931.34,-585"/>
<text text-anchor="middle" x="863.84" y="-572.2" font-family="Cascadia Code PL" font-size="11.00" fill="cyan">6 · SCROLL DRAG</text>
<text text-anchor="middle" x="863.84" y="-560.2" font-family="Cascadia Code PL" font-size="11.00" fill="cyan">─────────────────</text>
<text text-anchor="middle" x="863.84" y="-548.2" font-family="Cascadia Code PL" font-size="11.00" fill="cyan">scrollDragging = TRUE</text>
<text text-anchor="middle" x="863.84" y="-536.2" font-family="Cascadia Code PL" font-size="11.00" fill="cyan">scrollDragOffset set</text>
<text text-anchor="middle" x="863.84" y="-524.2" font-family="Cascadia Code PL" font-size="11.00" fill="cyan">Panel scrolls with thumb</text>
</g>
<!-- S_HOVER&#45;&gt;S_SCROLL_DRAG -->
<g id="edge9" class="edge">
<title>S_HOVER&#45;&gt;S_SCROLL_DRAG</title>
<path fill="none" stroke="#66cc66" d="M802.07,-690.75C872.42,-683.86 973.64,-668.93 997.84,-639 1006.22,-628.63 1005.19,-620.12 997.84,-609 995.87,-606.03 969.63,-594.61 940.88,-582.76"/>
<polygon fill="#66cc66" stroke="#66cc66" points="942.06,-579.47 931.48,-578.91 939.41,-585.94 942.06,-579.47"/>
<text text-anchor="middle" x="1046.84" y="-621.8" font-family="Cascadia Code PL" font-size="9.00" fill="#aaaaaa"> &#160;Click scrollbar thumb</text>
</g>
<!-- S_BLEND_POPUP -->
<g id="node11" class="node">
<title>S_BLEND_POPUP</title>
<polygon fill="none" stroke="white" points="1133.34,-591 990.34,-591 990.34,-511 1133.34,-511 1133.34,-591"/>
<text text-anchor="middle" x="1061.84" y="-578.2" font-family="Cascadia Code PL" font-size="11.00" fill="cyan">7 · BLEND MODE POPUP</text>
<text text-anchor="middle" x="1061.84" y="-566.2" font-family="Cascadia Code PL" font-size="11.00" fill="cyan">─────────────────</text>
<text text-anchor="middle" x="1061.84" y="-554.2" font-family="Cascadia Code PL" font-size="11.00" fill="cyan">blendPopupOpen = TRUE</text>
<text text-anchor="middle" x="1061.84" y="-542.2" font-family="Cascadia Code PL" font-size="11.00" fill="cyan">blendPopupLayer = idx</text>
<text text-anchor="middle" x="1061.84" y="-530.2" font-family="Cascadia Code PL" font-size="11.00" fill="cyan">18 blend mode options</text>
<text text-anchor="middle" x="1061.84" y="-518.2" font-family="Cascadia Code PL" font-size="11.00" fill="cyan">blendPopupHover tracks</text>
</g>
<!-- S_HOVER&#45;&gt;S_BLEND_POPUP -->
<g id="edge11" class="edge">
<title>S_HOVER&#45;&gt;S_BLEND_POPUP</title>
<path fill="none" stroke="#66cc66" d="M802.12,-695.37C896.86,-692.85 1057.94,-682.15 1094.84,-639 1104.22,-628.03 1103.03,-614.11 1097.51,-600.65"/>
<polygon fill="#66cc66" stroke="#66cc66" points="1100.56,-598.92 1093.07,-591.44 1094.26,-601.97 1100.56,-598.92"/>
<text text-anchor="middle" x="1173.34" y="-626.8" font-family="Cascadia Code PL" font-size="9.00" fill="#aaaaaa"> &#160;Click blend mode cell</text>
<text text-anchor="middle" x="1173.34" y="-616.8" font-family="Cascadia Code PL" font-size="9.00" fill="#aaaaaa"> &#160;LAYER_PANEL_blend_popup_show()</text>
</g>
<!-- S_HOVER&#45;&gt;V_OFF -->
<g id="edge26" class="edge">
<title>S_HOVER&#45;&gt;V_OFF</title>
<path fill="none" stroke="#555555" stroke-dasharray="1,5" d="M802.11,-694.37C925.02,-690.53 1173.27,-678.05 1249.84,-639 1264.8,-631.37 1278.3,-619.65 1289.75,-607.27"/>
<polygon fill="#555555" stroke="#555555" points="1292.61,-609.31 1296.6,-599.5 1287.36,-604.68 1292.61,-609.31"/>
<text text-anchor="middle" x="1328.34" y="-621.8" font-family="Cascadia Code PL" font-size="9.00" fill="#aaaaaa"> &#160;Eye icon interaction</text>
</g>
<!-- S_DRAG_PENDING&#45;&gt;S_NORMAL -->
<g id="edge5" class="edge">
<title>S_DRAG_PENDING&#45;&gt;S_NORMAL</title>
<path fill="none" stroke="#cccc66" d="M386.66,-559.1C354.33,-566.29 318.78,-580.6 298.84,-609 281.56,-633.61 304.75,-653.73 335.4,-668.4"/>
<polygon fill="#cccc66" stroke="#cccc66" points="334.1,-671.66 344.66,-672.59 336.99,-665.28 334.1,-671.66"/>
<text text-anchor="middle" x="348.84" y="-631.8" font-family="Cascadia Code PL" font-size="9.00" fill="#aaaaaa"> &#160;Mouse released (click)</text>
<text text-anchor="middle" x="348.84" y="-621.8" font-family="Cascadia Code PL" font-size="9.00" fill="#aaaaaa"> &#160;LAYERS_select(idx)</text>
<text text-anchor="middle" x="348.84" y="-611.8" font-family="Cascadia Code PL" font-size="9.00" fill="#aaaaaa"> &#160;CURRENT_LAYER% = idx</text>
</g>
<!-- S_DRAGGING -->
<g id="node8" class="node">
<title>S_DRAGGING</title>
<polygon fill="none" stroke="white" points="535.34,-448 378.34,-448 378.34,-368 535.34,-368 535.34,-448"/>
<text text-anchor="middle" x="456.84" y="-435.2" font-family="Cascadia Code PL" font-size="11.00" fill="cyan">4 · DRAGGING</text>
<text text-anchor="middle" x="456.84" y="-423.2" font-family="Cascadia Code PL" font-size="11.00" fill="cyan">─────────────────</text>
<text text-anchor="middle" x="456.84" y="-411.2" font-family="Cascadia Code PL" font-size="11.00" fill="cyan">isDragging = TRUE</text>
<text text-anchor="middle" x="456.84" y="-399.2" font-family="Cascadia Code PL" font-size="11.00" fill="cyan">dragLayerIdx set</text>
<text text-anchor="middle" x="456.84" y="-387.2" font-family="Cascadia Code PL" font-size="11.00" fill="cyan">Drag preview follows mouse</text>
<text text-anchor="middle" x="456.84" y="-375.2" font-family="Cascadia Code PL" font-size="11.00" fill="cyan">dropTargetZIndex updates</text>
</g>
<!-- S_DRAG_PENDING&#45;&gt;S_DRAGGING -->
<g id="edge4" class="edge">
<title>S_DRAG_PENDING&#45;&gt;S_DRAGGING</title>
<path fill="none" stroke="#66cc66" d="M456.84,-510.72C456.84,-494.53 456.84,-475.58 456.84,-458.45"/>
<polygon fill="#66cc66" stroke="#66cc66" points="460.34,-458.07 456.84,-448.07 453.34,-458.07 460.34,-458.07"/>
<text text-anchor="middle" x="511.34" y="-482.3" font-family="Cascadia Code PL" font-size="9.00" fill="#aaaaaa"> &#160;Mouse moved &gt; threshold</text>
<text text-anchor="middle" x="511.34" y="-472.3" font-family="Cascadia Code PL" font-size="9.00" fill="#aaaaaa"> &#160;isDragging = TRUE</text>
</g>
<!-- S_DRAGGING&#45;&gt;S_NORMAL -->
<g id="edge6" class="edge">
<title>S_DRAGGING&#45;&gt;S_NORMAL</title>
<path fill="none" stroke="#cccc66" d="M377.98,-415.73C263.78,-427.3 61.11,-455.29 16.84,-511 -7.63,-541.79 -2.78,-565.41 16.84,-599.5 34.27,-629.79 51.97,-627.11 84.84,-639 166.77,-668.64 265.62,-683.04 334.81,-689.93"/>
<polygon fill="#cccc66" stroke="#cccc66" points="334.51,-693.42 344.8,-690.89 335.18,-686.45 334.51,-693.42"/>
<text text-anchor="middle" x="75.84" y="-558.8" font-family="Cascadia Code PL" font-size="9.00" fill="#aaaaaa"> &#160;Mouse released</text>
<text text-anchor="middle" x="75.84" y="-548.8" font-family="Cascadia Code PL" font-size="9.00" fill="#aaaaaa"> &#160;LAYER_PANEL_handle_drop()</text>
<text text-anchor="middle" x="75.84" y="-538.8" font-family="Cascadia Code PL" font-size="9.00" fill="#aaaaaa"> &#160;Reorder layer z&#45;index</text>
</g>
<!-- S_DRAGGING&#45;&gt;D_ABOVE -->
<g id="edge25" class="edge">
<title>S_DRAGGING&#45;&gt;D_ABOVE</title>
<path fill="none" stroke="#555555" stroke-dasharray="1,5" d="M535.42,-392.2C660.36,-368.68 904.95,-322.62 1050,-295.31"/>
<polygon fill="#555555" stroke="#555555" points="1050.66,-298.75 1059.84,-293.46 1049.37,-291.87 1050.66,-298.75"/>
<text text-anchor="middle" x="850.84" y="-342.8" font-family="Cascadia Code PL" font-size="9.00" fill="#aaaaaa"> &#160;Drag reorder active</text>
</g>
<!-- S_OPACITY_DRAG&#45;&gt;S_NORMAL -->
<g id="edge8" class="edge">
<title>S_OPACITY_DRAG&#45;&gt;S_NORMAL</title>
<path fill="none" stroke="#cccc66" d="M605.54,-578.75C583.72,-586.67 559.04,-594.54 535.84,-599.5 523.41,-602.16 430.5,-599.7 421.84,-609 412.57,-618.96 409.7,-632.67 409.87,-646.27"/>
<polygon fill="#cccc66" stroke="#cccc66" points="406.4,-646.83 410.54,-656.58 413.38,-646.38 406.4,-646.83"/>
<text text-anchor="middle" x="465.84" y="-631.8" font-family="Cascadia Code PL" font-size="9.00" fill="#aaaaaa"> &#160;Mouse released</text>
<text text-anchor="middle" x="465.84" y="-621.8" font-family="Cascadia Code PL" font-size="9.00" fill="#aaaaaa"> &#160;Opacity finalized</text>
<text text-anchor="middle" x="465.84" y="-611.8" font-family="Cascadia Code PL" font-size="9.00" fill="#aaaaaa"> &#160;LAYERS_set_opacity()</text>
</g>
<!-- S_SCROLL_DRAG&#45;&gt;S_NORMAL -->
<g id="edge10" class="edge">
<title>S_SCROLL_DRAG&#45;&gt;S_NORMAL</title>
<path fill="none" stroke="#cccc66" d="M796.04,-582.99C779.58,-589.41 761.82,-595.44 744.84,-599.5 721.84,-605 659.03,-596.68 638.84,-609 625.37,-617.22 632.47,-629.54 619.84,-639 587.22,-663.42 544.47,-677.39 506.95,-685.37"/>
<polygon fill="#cccc66" stroke="#cccc66" points="506.14,-681.97 497.03,-687.37 507.52,-688.83 506.14,-681.97"/>
<text text-anchor="middle" x="672.34" y="-621.8" font-family="Cascadia Code PL" font-size="9.00" fill="#aaaaaa"> &#160;Mouse released</text>
</g>
<!-- S_BLEND_POPUP&#45;&gt;S_NORMAL -->
<g id="edge12" class="edge">
<title>S_BLEND_POPUP&#45;&gt;S_NORMAL</title>
<path fill="none" stroke="#cccc66" d="M990.25,-583.78C974.25,-589.85 957.18,-595.53 940.84,-599.5 900.9,-609.21 885.65,-590.7 848.84,-609 832.51,-617.12 837.15,-630.85 820.84,-639 753.66,-672.56 727.23,-646.77 652.84,-657 604.41,-663.66 550.56,-672.61 506.94,-680.27"/>
<polygon fill="#cccc66" stroke="#cccc66" points="506.18,-676.84 496.94,-682.03 507.4,-683.74 506.18,-676.84"/>
<text text-anchor="middle" x="921.34" y="-626.8" font-family="Cascadia Code PL" font-size="9.00" fill="#aaaaaa"> &#160;Click blend item / outside</text>
<text text-anchor="middle" x="921.34" y="-616.8" font-family="Cascadia Code PL" font-size="9.00" fill="#aaaaaa"> &#160;LAYER_PANEL_blend_popup_close()</text>
</g>
<!-- S_SOLO&#45;&gt;S_NORMAL -->
<g id="edge14" class="edge">
<title>S_SOLO&#45;&gt;S_NORMAL</title>
<path fill="none" stroke="#cc66cc" stroke-dasharray="5,2" d="M148.07,-591.05C141.65,-594.09 135.18,-596.96 128.84,-599.5 114.28,-605.34 104.32,-596.5 94.84,-609 86.78,-619.62 86.26,-628.79 94.84,-639 124.93,-674.81 248.59,-688.12 334.64,-693.07"/>
<polygon fill="#cc66cc" stroke="#cc66cc" points="334.5,-696.57 344.68,-693.62 334.89,-689.58 334.5,-696.57"/>
<text text-anchor="middle" x="141.84" y="-626.8" font-family="Cascadia Code PL" font-size="9.00" fill="#aaaaaa"> &#160;Alt+Click eye again</text>
<text text-anchor="middle" x="141.84" y="-616.8" font-family="Cascadia Code PL" font-size="9.00" fill="#aaaaaa"> &#160;Restore saved visibility</text>
</g>
<!-- D_BELOW -->
<g id="node14" class="node">
<title>D_BELOW</title>
<polygon fill="none" stroke="white" points="1181.34,-187 1068.34,-187 1068.34,-124 1181.34,-124 1181.34,-187"/>
<text text-anchor="middle" x="1124.84" y="-175" font-family="Cascadia Code PL" font-size="10.00" fill="cyan">Drop Below Target</text>
<text text-anchor="middle" x="1124.84" y="-164" font-family="Cascadia Code PL" font-size="10.00" fill="cyan">────────────</text>
<text text-anchor="middle" x="1124.84" y="-153" font-family="Cascadia Code PL" font-size="10.00" fill="cyan">dropTargetZIndex set</text>
<text text-anchor="middle" x="1124.84" y="-142" font-family="Cascadia Code PL" font-size="10.00" fill="cyan">Insertion line shown</text>
<text text-anchor="middle" x="1124.84" y="-131" font-family="Cascadia Code PL" font-size="10.00" fill="cyan">below target row</text>
</g>
<!-- D_ABOVE&#45;&gt;D_BELOW -->
<g id="edge15" class="edge">
<title>D_ABOVE&#45;&gt;D_BELOW</title>
<path fill="none" stroke="#88aacc" d="M1109.24,-246.9C1100.26,-240.45 1092.18,-232.55 1086.84,-223 1081.92,-214.21 1083.24,-204.8 1087.54,-195.9"/>
<polygon fill="#88aacc" stroke="#88aacc" points="1090.6,-197.61 1092.7,-187.22 1084.58,-194.03 1090.6,-197.61"/>
<text text-anchor="middle" x="1115.34" y="-216.6" font-family="Cascadia Code PL" font-size="8.00" fill="#aaaaaa"> Mouse crosses</text>
<text text-anchor="middle" x="1115.34" y="-207.6" font-family="Cascadia Code PL" font-size="8.00" fill="#aaaaaa"> row midpoint</text>
</g>
<!-- D_AUTOSCROLL -->
<g id="node15" class="node">
<title>D_AUTOSCROLL</title>
<polygon fill="none" stroke="white" points="1235.84,-79 1111.84,-79 1111.84,-16 1235.84,-16 1235.84,-79"/>
<text text-anchor="middle" x="1173.84" y="-67" font-family="Cascadia Code PL" font-size="10.00" fill="cyan">Auto&#45;Scroll</text>
<text text-anchor="middle" x="1173.84" y="-56" font-family="Cascadia Code PL" font-size="10.00" fill="cyan">────────────</text>
<text text-anchor="middle" x="1173.84" y="-45" font-family="Cascadia Code PL" font-size="10.00" fill="cyan">autoScrollTimer active</text>
<text text-anchor="middle" x="1173.84" y="-34" font-family="Cascadia Code PL" font-size="10.00" fill="cyan">Mouse near panel edge</text>
<text text-anchor="middle" x="1173.84" y="-23" font-family="Cascadia Code PL" font-size="10.00" fill="cyan">scrollOffset adjusts</text>
</g>
<!-- D_ABOVE&#45;&gt;D_AUTOSCROLL -->
<g id="edge17" class="edge">
<title>D_ABOVE&#45;&gt;D_AUTOSCROLL</title>
<path fill="none" stroke="#88aacc" d="M1199.26,-240.88C1203.54,-235.36 1207.3,-229.33 1209.84,-223 1230.68,-171.01 1231.45,-149.83 1212.84,-97 1211.74,-93.89 1210.36,-90.84 1208.76,-87.86"/>
<polygon fill="#88aacc" stroke="#88aacc" points="1211.67,-85.91 1203.44,-79.23 1205.71,-89.58 1211.67,-85.91"/>
<text text-anchor="middle" x="1258.84" y="-153.6" font-family="Cascadia Code PL" font-size="8.00" fill="#aaaaaa"> Mouse near edge</text>
</g>
<!-- D_BELOW&#45;&gt;D_ABOVE -->
<g id="edge16" class="edge">
<title>D_BELOW&#45;&gt;D_ABOVE</title>
<path fill="none" stroke="#88aacc" d="M1137.15,-187.19C1139.43,-193.08 1141.75,-199.22 1143.84,-205 1146.9,-213.48 1150.03,-222.62 1152.94,-231.33"/>
<polygon fill="#88aacc" stroke="#88aacc" points="1149.65,-232.53 1156.1,-240.92 1156.29,-230.33 1149.65,-232.53"/>
<text text-anchor="middle" x="1177.34" y="-216.6" font-family="Cascadia Code PL" font-size="8.00" fill="#aaaaaa"> Mouse crosses</text>
<text text-anchor="middle" x="1177.34" y="-207.6" font-family="Cascadia Code PL" font-size="8.00" fill="#aaaaaa"> row midpoint</text>
</g>
<!-- D_BELOW&#45;&gt;D_AUTOSCROLL -->
<g id="edge18" class="edge">
<title>D_BELOW&#45;&gt;D_AUTOSCROLL</title>
<path fill="none" stroke="#88aacc" d="M1135.69,-123.72C1139.02,-114.98 1142.86,-105.52 1146.84,-97 1148.2,-94.07 1149.67,-91.08 1151.2,-88.1"/>
<polygon fill="#88aacc" stroke="#88aacc" points="1154.32,-89.68 1155.88,-79.21 1148.13,-86.42 1154.32,-89.68"/>
<text text-anchor="middle" x="1179.84" y="-99.6" font-family="Cascadia Code PL" font-size="8.00" fill="#aaaaaa"> Mouse near edge</text>
</g>
<!-- V_SWIPING -->
<g id="node17" class="node">
<title>V_SWIPING</title>
<polygon fill="none" stroke="white" points="1417.34,-445 1274.34,-445 1274.34,-371 1417.34,-371 1417.34,-445"/>
<text text-anchor="middle" x="1345.84" y="-433" font-family="Cascadia Code PL" font-size="10.00" fill="cyan">Swiping</text>
<text text-anchor="middle" x="1345.84" y="-422" font-family="Cascadia Code PL" font-size="10.00" fill="cyan">────────────</text>
<text text-anchor="middle" x="1345.84" y="-411" font-family="Cascadia Code PL" font-size="10.00" fill="cyan">visSwiping = TRUE</text>
<text text-anchor="middle" x="1345.84" y="-400" font-family="Cascadia Code PL" font-size="10.00" fill="cyan">visSwipeAction = show/hide</text>
<text text-anchor="middle" x="1345.84" y="-389" font-family="Cascadia Code PL" font-size="10.00" fill="cyan">Drag across eye icons</text>
<text text-anchor="middle" x="1345.84" y="-378" font-family="Cascadia Code PL" font-size="10.00" fill="cyan">Toggle each crossed layer</text>
</g>
<!-- V_OFF&#45;&gt;V_SWIPING -->
<g id="edge19" class="edge">
<title>V_OFF&#45;&gt;V_SWIPING</title>
<path fill="none" stroke="#66cc66" d="M1293.87,-530.31C1270.28,-514.28 1245.66,-490.38 1258.84,-466 1261.47,-461.13 1264.71,-456.62 1268.39,-452.44"/>
<polygon fill="#66cc66" stroke="#66cc66" points="1270.92,-454.85 1275.43,-445.27 1265.93,-449.95 1270.92,-454.85"/>
<text text-anchor="middle" x="1308.34" y="-486.6" font-family="Cascadia Code PL" font-size="8.00" fill="#aaaaaa"> Click+drag eye icon</text>
<text text-anchor="middle" x="1308.34" y="-477.6" font-family="Cascadia Code PL" font-size="8.00" fill="#aaaaaa"> visSwipeAction = opposite</text>
<text text-anchor="middle" x="1308.34" y="-468.6" font-family="Cascadia Code PL" font-size="8.00" fill="#aaaaaa"> of clicked layer vis</text>
</g>
<!-- V_SWIPING&#45;&gt;V_OFF -->
<g id="edge20" class="edge">
<title>V_SWIPING&#45;&gt;V_OFF</title>
<path fill="none" stroke="#cc6666" stroke-dasharray="5,2" d="M1356.95,-445.25C1359.99,-460.16 1361.55,-477.53 1357.84,-493 1355.52,-502.67 1351.27,-512.56 1346.73,-521.32"/>
<polygon fill="#cc6666" stroke="#cc6666" points="1343.53,-519.88 1341.76,-530.32 1349.66,-523.26 1343.53,-519.88"/>
<text text-anchor="middle" x="1395.84" y="-482.1" font-family="Cascadia Code PL" font-size="8.00" fill="#aaaaaa"> Mouse released</text>
<text text-anchor="middle" x="1395.84" y="-473.1" font-family="Cascadia Code PL" font-size="8.00" fill="#aaaaaa"> visSwiping = FALSE</text>
</g>
<!-- B_OPEN -->
<g id="node19" class="node">
<title>B_OPEN</title>
<polygon fill="none" stroke="white" points="1772.84,-582.5 1640.84,-582.5 1640.84,-519.5 1772.84,-519.5 1772.84,-582.5"/>
<text text-anchor="middle" x="1706.84" y="-570.5" font-family="Cascadia Code PL" font-size="10.00" fill="cyan">Popup Open</text>
<text text-anchor="middle" x="1706.84" y="-559.5" font-family="Cascadia Code PL" font-size="10.00" fill="cyan">────────────</text>
<text text-anchor="middle" x="1706.84" y="-548.5" font-family="Cascadia Code PL" font-size="10.00" fill="cyan">blendPopupOpen = TRUE</text>
<text text-anchor="middle" x="1706.84" y="-537.5" font-family="Cascadia Code PL" font-size="10.00" fill="cyan">18 items listed</text>
<text text-anchor="middle" x="1706.84" y="-526.5" font-family="Cascadia Code PL" font-size="10.00" fill="cyan">blendPopupHover = idx</text>
</g>
<!-- B_CLOSED&#45;&gt;B_OPEN -->
<g id="edge21" class="edge">
<title>B_CLOSED&#45;&gt;B_OPEN</title>
<path fill="none" stroke="#66cc66" d="M1657.16,-676.36C1668.97,-666.46 1681.89,-653.48 1689.84,-639 1697.54,-624.97 1701.79,-607.98 1704.12,-592.75"/>
<polygon fill="#66cc66" stroke="#66cc66" points="1707.63,-592.92 1705.45,-582.55 1700.69,-592.01 1707.63,-592.92"/>
<text text-anchor="middle" x="1728.84" y="-622.1" font-family="Cascadia Code PL" font-size="8.00" fill="#aaaaaa"> Click blend cell</text>
</g>
<!-- B_OPEN&#45;&gt;B_CLOSED -->
<g id="edge24" class="edge">
<title>B_OPEN&#45;&gt;B_CLOSED</title>
<path fill="none" stroke="#cc6666" stroke-dasharray="5,2" d="M1657.46,-582.65C1647.46,-588.48 1636.91,-594.36 1626.84,-599.5 1617.35,-604.34 1610.69,-600.1 1604.84,-609 1593.3,-626.56 1600.63,-649.5 1610.27,-667.42"/>
<polygon fill="#cc6666" stroke="#cc6666" points="1607.37,-669.4 1615.43,-676.28 1613.42,-665.88 1607.37,-669.4"/>
<text text-anchor="middle" x="1645.34" y="-622.1" font-family="Cascadia Code PL" font-size="8.00" fill="#aaaaaa"> Click outside / Escape</text>
</g>
<!-- B_SELECT -->
<g id="node20" class="node">
<title>B_SELECT</title>
<polygon fill="none" stroke="white" points="1722.34,-439.5 1605.34,-439.5 1605.34,-376.5 1722.34,-376.5 1722.34,-439.5"/>
<text text-anchor="middle" x="1663.84" y="-427.5" font-family="Cascadia Code PL" font-size="10.00" fill="cyan">Mode Selected</text>
<text text-anchor="middle" x="1663.84" y="-416.5" font-family="Cascadia Code PL" font-size="10.00" fill="cyan">────────────</text>
<text text-anchor="middle" x="1663.84" y="-405.5" font-family="Cascadia Code PL" font-size="10.00" fill="cyan">blendMode = selected</text>
<text text-anchor="middle" x="1663.84" y="-394.5" font-family="Cascadia Code PL" font-size="10.00" fill="cyan">LAYER.blendMode set</text>
<text text-anchor="middle" x="1663.84" y="-383.5" font-family="Cascadia Code PL" font-size="10.00" fill="cyan">Composite invalidated</text>
</g>
<!-- B_OPEN&#45;&gt;B_SELECT -->
<g id="edge22" class="edge">
<title>B_OPEN&#45;&gt;B_SELECT</title>
<path fill="none" stroke="#cccc66" d="M1697.51,-519.41C1691.25,-498.9 1682.95,-471.67 1676.15,-449.38"/>
<polygon fill="#cccc66" stroke="#cccc66" points="1679.42,-448.08 1673.15,-439.54 1672.72,-450.12 1679.42,-448.08"/>
<text text-anchor="middle" x="1708.34" y="-477.6" font-family="Cascadia Code PL" font-size="8.00" fill="#aaaaaa"> Click item</text>
</g>
<!-- B_SELECT&#45;&gt;B_CLOSED -->
<g id="edge23" class="edge">
<title>B_SELECT&#45;&gt;B_CLOSED</title>
<path fill="none" stroke="#cc6666" stroke-dasharray="5,2" d="M1633.7,-439.58C1617.27,-458.47 1598.55,-484.16 1589.84,-511 1572.26,-565.15 1575.94,-585.29 1594.84,-639 1598.36,-649.02 1603.84,-659.16 1609.42,-668.06"/>
<polygon fill="#cc6666" stroke="#cc6666" points="1606.55,-670.06 1614.97,-676.48 1612.4,-666.21 1606.55,-670.06"/>
<text text-anchor="middle" x="1610.84" y="-549.1" font-family="Cascadia Code PL" font-size="8.00" fill="#aaaaaa"> Auto&#45;close</text>
</g>
<!-- L1 -->
<g id="node21" class="node">
<title>L1</title>
<ellipse fill="white" stroke="white" cx="2074.84" cy="-801" rx="0.36" ry="0.36"/>
</g>
<!-- L2 -->
<g id="node22" class="node">
<title>L2</title>
<ellipse fill="white" stroke="white" cx="2074.84" cy="-697" rx="0.36" ry="0.36"/>
</g>
<!-- L1&#45;&gt;L2 -->
<g id="edge31" class="edge">
<title>L1&#45;&gt;L2</title>
<path fill="none" stroke="#66cc66" d="M2074.84,-799.93C2074.84,-797.46 2074.84,-733.74 2074.84,-708.32"/>
<polygon fill="#66cc66" stroke="#66cc66" points="2078.34,-708.07 2074.84,-698.07 2071.34,-708.07 2078.34,-708.07"/>
<text text-anchor="middle" x="2107.34" y="-757.8" font-family="Cascadia Code PL" font-size="9.00" fill="#aaaaaa"> Activate / Open</text>
</g>
<!-- L3 -->
<g id="node23" class="node">
<title>L3</title>
<ellipse fill="white" stroke="white" cx="1990.84" cy="-801" rx="0.36" ry="0.36"/>
</g>
<!-- L4 -->
<g id="node24" class="node">
<title>L4</title>
<ellipse fill="white" stroke="white" cx="1990.84" cy="-697" rx="0.36" ry="0.36"/>
</g>
<!-- L3&#45;&gt;L4 -->
<g id="edge32" class="edge">
<title>L3&#45;&gt;L4</title>
<path fill="none" stroke="#cc6666" stroke-dasharray="5,2" d="M1990.84,-799.93C1990.84,-797.46 1990.84,-733.74 1990.84,-708.32"/>
<polygon fill="#cc6666" stroke="#cc6666" points="1994.34,-708.07 1990.84,-698.07 1987.34,-708.07 1994.34,-708.07"/>
<text text-anchor="middle" x="2021.34" y="-757.8" font-family="Cascadia Code PL" font-size="9.00" fill="#aaaaaa"> Close / Release</text>
</g>
<!-- L5 -->
<g id="node25" class="node">
<title>L5</title>
<ellipse fill="white" stroke="white" cx="1902.84" cy="-801" rx="0.36" ry="0.36"/>
</g>
<!-- L6 -->
<g id="node26" class="node">
<title>L6</title>
<ellipse fill="white" stroke="white" cx="1902.84" cy="-697" rx="0.36" ry="0.36"/>
</g>
<!-- L5&#45;&gt;L6 -->
<g id="edge33" class="edge">
<title>L5&#45;&gt;L6</title>
<path fill="none" stroke="#cccc66" d="M1902.84,-799.93C1902.84,-797.46 1902.84,-733.74 1902.84,-708.32"/>
<polygon fill="#cccc66" stroke="#cccc66" points="1906.34,-708.07 1902.84,-698.07 1899.34,-708.07 1906.34,-708.07"/>
<text text-anchor="middle" x="1935.34" y="-757.8" font-family="Cascadia Code PL" font-size="9.00" fill="#aaaaaa"> Commit / Select</text>
</g>
<!-- L7 -->
<g id="node27" class="node">
<title>L7</title>
<ellipse fill="white" stroke="white" cx="1814.84" cy="-801" rx="0.36" ry="0.36"/>
</g>
<!-- L8 -->
<g id="node28" class="node">
<title>L8</title>
<ellipse fill="white" stroke="white" cx="1814.84" cy="-697" rx="0.36" ry="0.36"/>
</g>
<!-- L7&#45;&gt;L8 -->
<g id="edge34" class="edge">
<title>L7&#45;&gt;L8</title>
<path fill="none" stroke="#cc66cc" d="M1814.84,-799.93C1814.84,-797.46 1814.84,-733.74 1814.84,-708.32"/>
<polygon fill="#cc66cc" stroke="#cc66cc" points="1818.34,-708.07 1814.84,-698.07 1811.34,-708.07 1818.34,-708.07"/>
<text text-anchor="middle" x="1847.34" y="-757.8" font-family="Cascadia Code PL" font-size="9.00" fill="#aaaaaa"> Special / Toggle</text>
</g>
</g>
</svg>
