<?xml version="1.0" encoding="UTF-8" standalone="no"?>
<!DOCTYPE svg PUBLIC "-//W3C//DTD SVG 1.1//EN"
 "http://www.w3.org/Graphics/SVG/1.1/DTD/svg11.dtd">
<!-- Generated by graphviz version 2.42.4 (0)
 -->
<!-- Title: MENUBAR Pages: 1 -->
<svg width="2087pt" height="612pt"
 viewBox="0.00 0.00 2087.04 611.86" xmlns="http://www.w3.org/2000/svg" xmlns:xlink="http://www.w3.org/1999/xlink">
<g id="graph0" class="graph" transform="scale(1 1) rotate(0) translate(4 607.86)">
<title>MENUBAR</title>
<text text-anchor="middle" x="1039.52" y="-580.66" font-family="Cascadia Code PL" font-size="24.00" fill="white">MENU BAR STATE MACHINE</text>
<g id="clust6" class="cluster">
<title>cluster_legend</title>
<polygon fill="transparent" stroke="white" stroke-dasharray="5,2" points="1730.04,-351.64 1730.04,-561.86 2071.04,-561.86 2071.04,-351.64 1730.04,-351.64"/>
<text text-anchor="middle" x="1758.04" y="-549.06" font-family="Cascadia Code PL" font-size="11.00" fill="white">LEGEND</text>
</g>
<g id="clust2" class="cluster">
<title>cluster_cascade</title>
<polygon fill="transparent" stroke="orange" stroke-dasharray="5,2" points="885.04,-172 885.04,-439.5 1546.04,-439.5 1546.04,-172 885.04,-172"/>
<text text-anchor="middle" x="952.54" y="-426.7" font-family="Cascadia Code PL" font-size="11.00" fill="orange">CASCADING SUBMENUS</text>
</g>
<g id="clust3" class="cluster">
<title>cluster_kbnav</title>
<polygon fill="transparent" stroke="orange" stroke-dasharray="5,2" points="1554.04,-8 1554.04,-439.5 1722.04,-439.5 1722.04,-8 1554.04,-8"/>
<text text-anchor="middle" x="1622.54" y="-426.7" font-family="Cascadia Code PL" font-size="11.00" fill="orange">KEYBOARD NAVIGATION</text>
</g>
<!-- MAIN -->
<g id="node1" class="node">
<title>MAIN</title>
<polygon fill="none" stroke="orange" stroke-width="2" points="131.04,-531.5 128.04,-535.5 107.04,-535.5 104.04,-531.5 37.04,-531.5 37.04,-495.5 131.04,-495.5 131.04,-531.5"/>
<text text-anchor="middle" x="84.04" y="-510.1" font-family="Cascadia Code PL" font-size="13.00" fill="orange">MAIN STATES</text>
</g>
<!-- S_CLOSED -->
<g id="node4" class="node">
<title>S_CLOSED</title>
<polygon fill="none" stroke="white" points="151.54,-400 16.54,-400 16.54,-320 151.54,-320 151.54,-400"/>
<text text-anchor="middle" x="84.04" y="-387.2" font-family="Cascadia Code PL" font-size="11.00" fill="cyan">1 · CLOSED</text>
<text text-anchor="middle" x="84.04" y="-375.2" font-family="Cascadia Code PL" font-size="11.00" fill="cyan">─────────────────</text>
<text text-anchor="middle" x="84.04" y="-363.2" font-family="Cascadia Code PL" font-size="11.00" fill="cyan">openMenu = &#45;1</text>
<text text-anchor="middle" x="84.04" y="-351.2" font-family="Cascadia Code PL" font-size="11.00" fill="cyan">No dropdown visible</text>
<text text-anchor="middle" x="84.04" y="-339.2" font-family="Cascadia Code PL" font-size="11.00" fill="cyan">Bar rendered with labels</text>
<text text-anchor="middle" x="84.04" y="-327.2" font-family="Cascadia Code PL" font-size="11.00" fill="cyan">hoverRoot tracks mouse</text>
</g>
<!-- MAIN&#45;&gt;S_CLOSED -->
<g id="edge21" class="edge">
<title>MAIN&#45;&gt;S_CLOSED</title>
<path fill="none" stroke="#555555" stroke-dasharray="1,5" d="M84.04,-495.42C84.04,-472.43 84.04,-430.88 84.04,-400.04"/>
</g>
<!-- CASCADE -->
<g id="node2" class="node">
<title>CASCADE</title>
<polygon fill="none" stroke="orange" stroke-width="2" points="446.54,-531.5 443.54,-535.5 422.54,-535.5 419.54,-531.5 287.54,-531.5 287.54,-495.5 446.54,-495.5 446.54,-531.5"/>
<text text-anchor="middle" x="367.04" y="-510.1" font-family="Cascadia Code PL" font-size="13.00" fill="orange">CASCADING SUBMENUS</text>
</g>
<!-- C_RECENT -->
<g id="node10" class="node">
<title>C_RECENT</title>
<polygon fill="none" stroke="white" points="1538.54,-391.5 1431.54,-391.5 1431.54,-328.5 1538.54,-328.5 1538.54,-391.5"/>
<text text-anchor="middle" x="1485.04" y="-379.5" font-family="Cascadia Code PL" font-size="10.00" fill="cyan">Recent Files</text>
<text text-anchor="middle" x="1485.04" y="-368.5" font-family="Cascadia Code PL" font-size="10.00" fill="cyan">────────────</text>
<text text-anchor="middle" x="1485.04" y="-357.5" font-family="Cascadia Code PL" font-size="10.00" fill="cyan">recentOpen = TRUE</text>
<text text-anchor="middle" x="1485.04" y="-346.5" font-family="Cascadia Code PL" font-size="10.00" fill="cyan">recentHover = idx</text>
<text text-anchor="middle" x="1485.04" y="-335.5" font-family="Cascadia Code PL" font-size="10.00" fill="cyan">Up to 10 recent files</text>
</g>
<!-- CASCADE&#45;&gt;C_RECENT -->
<g id="edge22" class="edge">
<title>CASCADE&#45;&gt;C_RECENT</title>
<path fill="none" stroke="#555555" stroke-dasharray="1,5" d="M365.38,-495.4C364.96,-480.24 367.17,-458.79 381.04,-447.5 403.47,-429.25 1396.02,-452.11 1422.04,-439.5"/>
</g>
<!-- KB_NAV -->
<g id="node3" class="node">
<title>KB_NAV</title>
<polygon fill="none" stroke="orange" stroke-width="2" points="1687.04,-531.5 1684.04,-535.5 1663.04,-535.5 1660.04,-531.5 1577.04,-531.5 1577.04,-495.5 1687.04,-495.5 1687.04,-531.5"/>
<text text-anchor="middle" x="1632.04" y="-510.1" font-family="Cascadia Code PL" font-size="13.00" fill="orange">KEYBOARD NAV</text>
</g>
<!-- KB_ROOT -->
<g id="node16" class="node">
<title>KB_ROOT</title>
<polygon fill="none" stroke="white" points="1697.54,-391.5 1566.54,-391.5 1566.54,-328.5 1697.54,-328.5 1697.54,-391.5"/>
<text text-anchor="middle" x="1632.04" y="-379.5" font-family="Cascadia Code PL" font-size="10.00" fill="cyan">Root Level</text>
<text text-anchor="middle" x="1632.04" y="-368.5" font-family="Cascadia Code PL" font-size="10.00" fill="cyan">────────────</text>
<text text-anchor="middle" x="1632.04" y="-357.5" font-family="Cascadia Code PL" font-size="10.00" fill="cyan">← → = Switch root</text>
<text text-anchor="middle" x="1632.04" y="-346.5" font-family="Cascadia Code PL" font-size="10.00" fill="cyan">Enter/↓ = Open submenu</text>
<text text-anchor="middle" x="1632.04" y="-335.5" font-family="Cascadia Code PL" font-size="10.00" fill="cyan">Escape = Close</text>
</g>
<!-- KB_NAV&#45;&gt;KB_ROOT -->
<g id="edge23" class="edge">
<title>KB_NAV&#45;&gt;KB_ROOT</title>
<path fill="none" stroke="#555555" stroke-dasharray="1,5" d="M1632.04,-495.42C1632.04,-481.45 1632.04,-460.62 1632.04,-439.5"/>
</g>
<!-- S_ROOT_OPEN -->
<g id="node5" class="node">
<title>S_ROOT_OPEN</title>
<polygon fill="none" stroke="white" points="751.04,-400 601.04,-400 601.04,-320 751.04,-320 751.04,-400"/>
<text text-anchor="middle" x="676.04" y="-387.2" font-family="Cascadia Code PL" font-size="11.00" fill="cyan">2 · ROOT MENU OPEN</text>
<text text-anchor="middle" x="676.04" y="-375.2" font-family="Cascadia Code PL" font-size="11.00" fill="cyan">─────────────────</text>
<text text-anchor="middle" x="676.04" y="-363.2" font-family="Cascadia Code PL" font-size="11.00" fill="cyan">openMenu = rootIdx</text>
<text text-anchor="middle" x="676.04" y="-351.2" font-family="Cascadia Code PL" font-size="11.00" fill="cyan">Dropdown rendered below</text>
<text text-anchor="middle" x="676.04" y="-339.2" font-family="Cascadia Code PL" font-size="11.00" fill="cyan">hoverSub = item index</text>
<text text-anchor="middle" x="676.04" y="-327.2" font-family="Cascadia Code PL" font-size="11.00" fill="cyan">stayOpen = TRUE</text>
</g>
<!-- S_CLOSED&#45;&gt;S_ROOT_OPEN -->
<g id="edge1" class="edge">
<title>S_CLOSED&#45;&gt;S_ROOT_OPEN</title>
<path fill="none" stroke="#66cc66" d="M144.58,-400.03C170.95,-415.31 202.89,-431.07 234.04,-439.5 308.94,-459.76 511.08,-478.5 583.04,-449.5 604.67,-440.78 624.08,-424.36 639.51,-407.95"/>
<polygon fill="#66cc66" stroke="#66cc66" points="642.19,-410.19 646.31,-400.43 637,-405.5 642.19,-410.19"/>
<text text-anchor="middle" x="530.04" y="-465.3" font-family="Cascadia Code PL" font-size="9.00" fill="#aaaaaa"> &#160;Click root label</text>
<text text-anchor="middle" x="530.04" y="-455.3" font-family="Cascadia Code PL" font-size="9.00" fill="#aaaaaa"> &#160;MENUBAR_handle_click()</text>
</g>
<!-- S_OVERFLOW -->
<g id="node8" class="node">
<title>S_OVERFLOW</title>
<polygon fill="none" stroke="white" points="225.54,-245.5 46.54,-245.5 46.54,-177.5 225.54,-177.5 225.54,-245.5"/>
<text text-anchor="middle" x="136.04" y="-232.7" font-family="Cascadia Code PL" font-size="11.00" fill="cyan">5 · OVERFLOW MENU</text>
<text text-anchor="middle" x="136.04" y="-220.7" font-family="Cascadia Code PL" font-size="11.00" fill="cyan">─────────────────</text>
<text text-anchor="middle" x="136.04" y="-208.7" font-family="Cascadia Code PL" font-size="11.00" fill="cyan">MENU_CHEVRON_ACTIVE = TRUE</text>
<text text-anchor="middle" x="136.04" y="-196.7" font-family="Cascadia Code PL" font-size="11.00" fill="cyan">MENU_OVERFLOW_OPEN = TRUE</text>
<text text-anchor="middle" x="136.04" y="-184.7" font-family="Cascadia Code PL" font-size="11.00" fill="cyan">&gt;&gt; button shows hidden roots</text>
</g>
<!-- S_CLOSED&#45;&gt;S_OVERFLOW -->
<g id="edge10" class="edge">
<title>S_CLOSED&#45;&gt;S_OVERFLOW</title>
<path fill="none" stroke="#66cc66" d="M18.54,-319.7C3.26,-305.5 -5.78,-288.81 5.04,-272 13.12,-259.46 24.56,-249.53 37.35,-241.68"/>
<polygon fill="#66cc66" stroke="#66cc66" points="39.41,-244.54 46.4,-236.57 35.97,-238.44 39.41,-244.54"/>
<text text-anchor="middle" x="73.54" y="-289.8" font-family="Cascadia Code PL" font-size="9.00" fill="#aaaaaa"> &#160;Click &gt;&gt; chevron</text>
<text text-anchor="middle" x="73.54" y="-279.8" font-family="Cascadia Code PL" font-size="9.00" fill="#aaaaaa"> &#160;MENU_CHEVRON_ACTIVE = TRUE</text>
</g>
<!-- S_KB_ACTIVE -->
<g id="node9" class="node">
<title>S_KB_ACTIVE</title>
<polygon fill="none" stroke="white" points="390.54,-400 243.54,-400 243.54,-320 390.54,-320 390.54,-400"/>
<text text-anchor="middle" x="317.04" y="-387.2" font-family="Cascadia Code PL" font-size="11.00" fill="cyan">6 · KEYBOARD ACTIVE</text>
<text text-anchor="middle" x="317.04" y="-375.2" font-family="Cascadia Code PL" font-size="11.00" fill="cyan">─────────────────</text>
<text text-anchor="middle" x="317.04" y="-363.2" font-family="Cascadia Code PL" font-size="11.00" fill="cyan">kbActive = TRUE</text>
<text text-anchor="middle" x="317.04" y="-351.2" font-family="Cascadia Code PL" font-size="11.00" fill="cyan">Arrow keys navigate</text>
<text text-anchor="middle" x="317.04" y="-339.2" font-family="Cascadia Code PL" font-size="11.00" fill="cyan">Mouse ignored until move</text>
<text text-anchor="middle" x="317.04" y="-327.2" font-family="Cascadia Code PL" font-size="11.00" fill="cyan">Enter executes action</text>
</g>
<!-- S_CLOSED&#45;&gt;S_KB_ACTIVE -->
<g id="edge2" class="edge">
<title>S_CLOSED&#45;&gt;S_KB_ACTIVE</title>
<path fill="none" stroke="#6699ff" d="M151.75,-360C177.25,-360 206.55,-360 233.33,-360"/>
<polygon fill="#6699ff" stroke="#6699ff" points="233.46,-363.5 243.46,-360 233.46,-356.5 233.46,-363.5"/>
<text text-anchor="middle" x="197.54" y="-385.8" font-family="Cascadia Code PL" font-size="9.00" fill="#aaaaaa"> &#160;ALT tap / F10</text>
<text text-anchor="middle" x="197.54" y="-375.8" font-family="Cascadia Code PL" font-size="9.00" fill="#aaaaaa"> &#160;altTapped = TRUE</text>
<text text-anchor="middle" x="197.54" y="-365.8" font-family="Cascadia Code PL" font-size="9.00" fill="#aaaaaa"> &#160;kbActive = TRUE</text>
</g>
<!-- S_ROOT_OPEN&#45;&gt;S_CLOSED -->
<g id="edge7" class="edge">
<title>S_ROOT_OPEN&#45;&gt;S_CLOSED</title>
<path fill="none" stroke="#cc6666" stroke-dasharray="5,2" d="M646.31,-400.43C629.98,-419.15 607.98,-439.45 583.04,-449.5 511.08,-478.5 308.94,-459.76 234.04,-439.5 206.3,-431.99 177.92,-418.67 153.43,-405.05"/>
<polygon fill="#cc6666" stroke="#cc6666" points="155.01,-401.92 144.58,-400.03 151.55,-408.01 155.01,-401.92"/>
<text text-anchor="middle" x="530.04" y="-470.3" font-family="Cascadia Code PL" font-size="9.00" fill="#aaaaaa"> &#160;Click outside menu</text>
<text text-anchor="middle" x="530.04" y="-460.3" font-family="Cascadia Code PL" font-size="9.00" fill="#aaaaaa"> &#160;Escape key</text>
<text text-anchor="middle" x="530.04" y="-450.3" font-family="Cascadia Code PL" font-size="9.00" fill="#aaaaaa"> &#160;MENUBAR_close_all()</text>
</g>
<!-- S_ROOT_OPEN&#45;&gt;S_ROOT_OPEN -->
<g id="edge3" class="edge">
<title>S_ROOT_OPEN&#45;&gt;S_ROOT_OPEN</title>
<path fill="none" stroke="#88aacc" d="M751.21,-372.11C761.88,-370.16 769.04,-366.12 769.04,-360 769.04,-356.08 766.11,-353.02 761.19,-350.8"/>
<polygon fill="#88aacc" stroke="#88aacc" points="761.79,-347.33 751.21,-347.89 759.83,-354.05 761.79,-347.33"/>
<text text-anchor="middle" x="822.04" y="-367.8" font-family="Cascadia Code PL" font-size="9.00" fill="#aaaaaa"> &#160;Hover different root</text>
<text text-anchor="middle" x="822.04" y="-357.8" font-family="Cascadia Code PL" font-size="9.00" fill="#aaaaaa"> &#160;openMenu = newRootIdx</text>
<text text-anchor="middle" x="822.04" y="-347.8" font-family="Cascadia Code PL" font-size="9.00" fill="#aaaaaa"> &#160;(auto&#45;switch while open)</text>
</g>
<!-- S_HOVER -->
<g id="node6" class="node">
<title>S_HOVER</title>
<polygon fill="none" stroke="white" points="497.54,-251.5 378.54,-251.5 378.54,-171.5 497.54,-171.5 497.54,-251.5"/>
<text text-anchor="middle" x="438.04" y="-238.7" font-family="Cascadia Code PL" font-size="11.00" fill="cyan">3 · SUBMENU HOVER</text>
<text text-anchor="middle" x="438.04" y="-226.7" font-family="Cascadia Code PL" font-size="11.00" fill="cyan">─────────────────</text>
<text text-anchor="middle" x="438.04" y="-214.7" font-family="Cascadia Code PL" font-size="11.00" fill="cyan">hoverSub = itemIdx</text>
<text text-anchor="middle" x="438.04" y="-202.7" font-family="Cascadia Code PL" font-size="11.00" fill="cyan">Item highlighted</text>
<text text-anchor="middle" x="438.04" y="-190.7" font-family="Cascadia Code PL" font-size="11.00" fill="cyan">Ready for click or</text>
<text text-anchor="middle" x="438.04" y="-178.7" font-family="Cascadia Code PL" font-size="11.00" fill="cyan">keyboard Enter</text>
</g>
<!-- S_ROOT_OPEN&#45;&gt;S_HOVER -->
<g id="edge4" class="edge">
<title>S_ROOT_OPEN&#45;&gt;S_HOVER</title>
<path fill="none" stroke="#66cc66" d="M663.6,-319.87C656.47,-303.05 645.92,-284.43 631.04,-272 596.32,-242.98 547.56,-228.1 507.73,-220.47"/>
<polygon fill="#66cc66" stroke="#66cc66" points="508.28,-217.01 497.81,-218.69 507.04,-223.9 508.28,-217.01"/>
<text text-anchor="middle" x="713.54" y="-289.8" font-family="Cascadia Code PL" font-size="9.00" fill="#aaaaaa"> &#160;Mouse enters submenu item</text>
<text text-anchor="middle" x="713.54" y="-279.8" font-family="Cascadia Code PL" font-size="9.00" fill="#aaaaaa"> &#160;hoverSub = itemIdx</text>
</g>
<!-- S_HOVER&#45;&gt;S_CLOSED -->
<g id="edge6" class="edge">
<title>S_HOVER&#45;&gt;S_CLOSED</title>
<path fill="none" stroke="#cccc66" d="M378.3,-246.08C373.48,-248.77 368.68,-251.43 364.04,-254 325.06,-275.56 317.18,-284.9 276.04,-302 239.36,-317.25 197.17,-330.24 161.71,-339.95"/>
<polygon fill="#cccc66" stroke="#cccc66" points="160.63,-336.62 151.89,-342.6 162.46,-343.38 160.63,-336.62"/>
<text text-anchor="middle" x="395.54" y="-294.8" font-family="Cascadia Code PL" font-size="9.00" fill="#aaaaaa"> &#160;Click item → execute action</text>
<text text-anchor="middle" x="395.54" y="-284.8" font-family="Cascadia Code PL" font-size="9.00" fill="#aaaaaa"> &#160;MENUBAR_close_all()</text>
<text text-anchor="middle" x="395.54" y="-274.8" font-family="Cascadia Code PL" font-size="9.00" fill="#aaaaaa"> &#160;CMD_execute_action(actionId)</text>
</g>
<!-- S_CASCADE -->
<g id="node7" class="node">
<title>S_CASCADE</title>
<polygon fill="none" stroke="white" points="387.04,-93 221.04,-93 221.04,-13 387.04,-13 387.04,-93"/>
<text text-anchor="middle" x="304.04" y="-80.2" font-family="Cascadia Code PL" font-size="11.00" fill="cyan">4 · CASCADE OPEN</text>
<text text-anchor="middle" x="304.04" y="-68.2" font-family="Cascadia Code PL" font-size="11.00" fill="cyan">─────────────────</text>
<text text-anchor="middle" x="304.04" y="-56.2" font-family="Cascadia Code PL" font-size="11.00" fill="cyan">recentOpen / randomOpen /</text>
<text text-anchor="middle" x="304.04" y="-44.2" font-family="Cascadia Code PL" font-size="11.00" fill="cyan">transformOpen / layoutOpen /</text>
<text text-anchor="middle" x="304.04" y="-32.2" font-family="Cascadia Code PL" font-size="11.00" fill="cyan">pvwOpen = TRUE</text>
<text text-anchor="middle" x="304.04" y="-20.2" font-family="Cascadia Code PL" font-size="11.00" fill="cyan">Nested dropdown visible</text>
</g>
<!-- S_HOVER&#45;&gt;S_CASCADE -->
<g id="edge5" class="edge">
<title>S_HOVER&#45;&gt;S_CASCADE</title>
<path fill="none" stroke="#66cc66" d="M437.13,-171.28C434.87,-151.46 429.26,-128.07 416.04,-111 410.31,-103.59 403.34,-97.06 395.72,-91.33"/>
<polygon fill="#66cc66" stroke="#66cc66" points="397.43,-88.25 387.22,-85.41 393.43,-94 397.43,-88.25"/>
<text text-anchor="middle" x="493.54" y="-143.8" font-family="Cascadia Code PL" font-size="9.00" fill="#aaaaaa"> &#160;Hover item with cascade</text>
<text text-anchor="middle" x="493.54" y="-133.8" font-family="Cascadia Code PL" font-size="9.00" fill="#aaaaaa"> &#160;(Recent, Random, Transform,</text>
<text text-anchor="middle" x="493.54" y="-123.8" font-family="Cascadia Code PL" font-size="9.00" fill="#aaaaaa"> &#160;Layout, Preview)</text>
<text text-anchor="middle" x="493.54" y="-113.8" font-family="Cascadia Code PL" font-size="9.00" fill="#aaaaaa"> &#160;Open nested submenu</text>
</g>
<!-- S_CASCADE&#45;&gt;S_CLOSED -->
<g id="edge9" class="edge">
<title>S_CASCADE&#45;&gt;S_CLOSED</title>
<path fill="none" stroke="#cccc66" d="M292.59,-93.13C280.1,-134.03 258.59,-199.69 234.04,-254 223.96,-276.3 225.02,-285.38 207.04,-302 193.7,-314.33 177.22,-324.41 160.71,-332.48"/>
<polygon fill="#cccc66" stroke="#cccc66" points="159.13,-329.35 151.55,-336.75 162.09,-335.69 159.13,-329.35"/>
<text text-anchor="middle" x="317.04" y="-214.3" font-family="Cascadia Code PL" font-size="9.00" fill="#aaaaaa"> &#160;Click cascade item</text>
<text text-anchor="middle" x="317.04" y="-204.3" font-family="Cascadia Code PL" font-size="9.00" fill="#aaaaaa"> &#160;Execute action, close all</text>
</g>
<!-- S_CASCADE&#45;&gt;S_HOVER -->
<g id="edge8" class="edge">
<title>S_CASCADE&#45;&gt;S_HOVER</title>
<path fill="none" stroke="#cc6666" stroke-dasharray="5,2" d="M292.1,-93.37C288.77,-112.54 288.87,-134.86 301.04,-151 318.58,-174.25 337.16,-157.8 364.04,-169 365.68,-169.68 367.33,-170.39 368.98,-171.12"/>
<polygon fill="#cc6666" stroke="#cc6666" points="367.91,-174.49 378.46,-175.55 370.87,-168.15 367.91,-174.49"/>
<text text-anchor="middle" x="356.54" y="-133.8" font-family="Cascadia Code PL" font-size="9.00" fill="#aaaaaa"> &#160;Mouse leaves cascade area</text>
<text text-anchor="middle" x="356.54" y="-123.8" font-family="Cascadia Code PL" font-size="9.00" fill="#aaaaaa"> &#160;Close nested dropdown</text>
</g>
<!-- S_OVERFLOW&#45;&gt;S_CLOSED -->
<g id="edge12" class="edge">
<title>S_OVERFLOW&#45;&gt;S_CLOSED</title>
<path fill="none" stroke="#cc6666" stroke-dasharray="5,2" d="M145.22,-245.57C148.36,-262.98 149.45,-284.34 142.04,-302 140.67,-305.29 138.99,-308.48 137.1,-311.57"/>
<polygon fill="#cc6666" stroke="#cc6666" points="134.09,-309.77 131.24,-319.98 139.83,-313.78 134.09,-309.77"/>
<text text-anchor="middle" x="175.54" y="-289.8" font-family="Cascadia Code PL" font-size="9.00" fill="#aaaaaa"> &#160;Click outside</text>
<text text-anchor="middle" x="175.54" y="-279.8" font-family="Cascadia Code PL" font-size="9.00" fill="#aaaaaa"> &#160;Escape</text>
</g>
<!-- S_OVERFLOW&#45;&gt;S_ROOT_OPEN -->
<g id="edge11" class="edge">
<title>S_OVERFLOW&#45;&gt;S_ROOT_OPEN</title>
<path fill="none" stroke="#66cc66" d="M211.31,-245.56C220.85,-248.85 230.58,-251.78 240.04,-254 336.42,-276.6 367.08,-244.04 462.04,-272 489.13,-279.98 492.25,-290.51 518.04,-302 541.44,-312.42 567.39,-322.4 591.37,-331.02"/>
<polygon fill="#66cc66" stroke="#66cc66" points="590.22,-334.32 600.81,-334.37 592.56,-327.73 590.22,-334.32"/>
<text text-anchor="middle" x="572.54" y="-289.8" font-family="Cascadia Code PL" font-size="9.00" fill="#aaaaaa"> &#160;Click overflow item</text>
<text text-anchor="middle" x="572.54" y="-279.8" font-family="Cascadia Code PL" font-size="9.00" fill="#aaaaaa"> &#160;Open that root&#39;s submenu</text>
</g>
<!-- S_KB_ACTIVE&#45;&gt;S_CLOSED -->
<g id="edge15" class="edge">
<title>S_KB_ACTIVE&#45;&gt;S_CLOSED</title>
<path fill="none" stroke="#cc6666" stroke-dasharray="5,2" d="M243.49,-338.51C240.32,-337.93 237.16,-337.42 234.04,-337 204.66,-333 194.82,-332.39 161.79,-337.12"/>
<polygon fill="#cc6666" stroke="#cc6666" points="161.2,-333.67 151.82,-338.59 162.23,-340.59 161.2,-333.67"/>
<text text-anchor="middle" x="197.54" y="-349.8" font-family="Cascadia Code PL" font-size="9.00" fill="#aaaaaa"> &#160;Escape / ALT tap</text>
<text text-anchor="middle" x="197.54" y="-339.8" font-family="Cascadia Code PL" font-size="9.00" fill="#aaaaaa"> &#160;kbActive = FALSE</text>
</g>
<!-- S_KB_ACTIVE&#45;&gt;S_ROOT_OPEN -->
<g id="edge13" class="edge">
<title>S_KB_ACTIVE&#45;&gt;S_ROOT_OPEN</title>
<path fill="none" stroke="#66cc66" d="M390.56,-360C448.54,-360 529.51,-360 590.41,-360"/>
<polygon fill="#66cc66" stroke="#66cc66" points="590.77,-363.5 600.77,-360 590.77,-356.5 590.77,-363.5"/>
<text text-anchor="middle" x="495.79" y="-375.8" font-family="Cascadia Code PL" font-size="9.00" fill="#aaaaaa"> &#160;Enter / Down arrow</text>
<text text-anchor="middle" x="495.79" y="-365.8" font-family="Cascadia Code PL" font-size="9.00" fill="#aaaaaa"> &#160;Open selected root</text>
</g>
<!-- S_KB_ACTIVE&#45;&gt;S_KB_ACTIVE -->
<g id="edge14" class="edge">
<title>S_KB_ACTIVE&#45;&gt;S_KB_ACTIVE</title>
<path fill="none" stroke="#88aacc" d="M390.64,-372.18C401.34,-370.25 408.54,-366.19 408.54,-360 408.54,-355.94 405.44,-352.79 400.28,-350.57"/>
<polygon fill="#88aacc" stroke="#88aacc" points="401.21,-347.19 390.64,-347.82 399.3,-353.92 401.21,-347.19"/>
<text text-anchor="middle" x="455.04" y="-362.8" font-family="Cascadia Code PL" font-size="9.00" fill="#aaaaaa"> &#160;Left/Right arrow</text>
<text text-anchor="middle" x="455.04" y="-352.8" font-family="Cascadia Code PL" font-size="9.00" fill="#aaaaaa"> &#160;Move to adjacent root</text>
</g>
<!-- C_RANDOM -->
<g id="node11" class="node">
<title>C_RANDOM</title>
<polygon fill="none" stroke="white" points="1413.04,-391.5 1289.04,-391.5 1289.04,-328.5 1413.04,-328.5 1413.04,-391.5"/>
<text text-anchor="middle" x="1351.04" y="-379.5" font-family="Cascadia Code PL" font-size="10.00" fill="cyan">Random Palette</text>
<text text-anchor="middle" x="1351.04" y="-368.5" font-family="Cascadia Code PL" font-size="10.00" fill="cyan">────────────</text>
<text text-anchor="middle" x="1351.04" y="-357.5" font-family="Cascadia Code PL" font-size="10.00" fill="cyan">randomOpen = TRUE</text>
<text text-anchor="middle" x="1351.04" y="-346.5" font-family="Cascadia Code PL" font-size="10.00" fill="cyan">randomHover = idx</text>
<text text-anchor="middle" x="1351.04" y="-335.5" font-family="Cascadia Code PL" font-size="10.00" fill="cyan">Lospec random palettes</text>
</g>
<!-- C_TRANSFORM -->
<g id="node12" class="node">
<title>C_TRANSFORM</title>
<polygon fill="none" stroke="white" points="1271.04,-391.5 1149.04,-391.5 1149.04,-328.5 1271.04,-328.5 1271.04,-391.5"/>
<text text-anchor="middle" x="1210.04" y="-379.5" font-family="Cascadia Code PL" font-size="10.00" fill="cyan">Transform Menu</text>
<text text-anchor="middle" x="1210.04" y="-368.5" font-family="Cascadia Code PL" font-size="10.00" fill="cyan">────────────</text>
<text text-anchor="middle" x="1210.04" y="-357.5" font-family="Cascadia Code PL" font-size="10.00" fill="cyan">transformOpen = TRUE</text>
<text text-anchor="middle" x="1210.04" y="-346.5" font-family="Cascadia Code PL" font-size="10.00" fill="cyan">transformHover = idx</text>
<text text-anchor="middle" x="1210.04" y="-335.5" font-family="Cascadia Code PL" font-size="10.00" fill="cyan">Flip, Rotate, Scale</text>
</g>
<!-- C_LAYOUT -->
<g id="node13" class="node">
<title>C_LAYOUT</title>
<polygon fill="none" stroke="white" points="1130.54,-391.5 1025.54,-391.5 1025.54,-328.5 1130.54,-328.5 1130.54,-391.5"/>
<text text-anchor="middle" x="1078.04" y="-379.5" font-family="Cascadia Code PL" font-size="10.00" fill="cyan">Layer Layout</text>
<text text-anchor="middle" x="1078.04" y="-368.5" font-family="Cascadia Code PL" font-size="10.00" fill="cyan">────────────</text>
<text text-anchor="middle" x="1078.04" y="-357.5" font-family="Cascadia Code PL" font-size="10.00" fill="cyan">layoutOpen = TRUE</text>
<text text-anchor="middle" x="1078.04" y="-346.5" font-family="Cascadia Code PL" font-size="10.00" fill="cyan">layoutHover = idx</text>
<text text-anchor="middle" x="1078.04" y="-335.5" font-family="Cascadia Code PL" font-size="10.00" fill="cyan">Align, Distribute</text>
</g>
<!-- C_PVW -->
<g id="node14" class="node">
<title>C_PVW</title>
<polygon fill="none" stroke="white" points="1007.04,-391.5 893.04,-391.5 893.04,-328.5 1007.04,-328.5 1007.04,-391.5"/>
<text text-anchor="middle" x="950.04" y="-379.5" font-family="Cascadia Code PL" font-size="10.00" fill="cyan">Preview Submenu</text>
<text text-anchor="middle" x="950.04" y="-368.5" font-family="Cascadia Code PL" font-size="10.00" fill="cyan">────────────</text>
<text text-anchor="middle" x="950.04" y="-357.5" font-family="Cascadia Code PL" font-size="10.00" fill="cyan">pvwOpen = TRUE</text>
<text text-anchor="middle" x="950.04" y="-346.5" font-family="Cascadia Code PL" font-size="10.00" fill="cyan">pvwHover = idx</text>
<text text-anchor="middle" x="950.04" y="-335.5" font-family="Cascadia Code PL" font-size="10.00" fill="cyan">Mode, Recent Images</text>
</g>
<!-- C_PVW_RECENT -->
<g id="node15" class="node">
<title>C_PVW_RECENT</title>
<polygon fill="none" stroke="white" points="1019.04,-243 893.04,-243 893.04,-180 1019.04,-180 1019.04,-243"/>
<text text-anchor="middle" x="956.04" y="-231" font-family="Cascadia Code PL" font-size="10.00" fill="cyan">PVW → Recent</text>
<text text-anchor="middle" x="956.04" y="-220" font-family="Cascadia Code PL" font-size="10.00" fill="cyan">────────────</text>
<text text-anchor="middle" x="956.04" y="-209" font-family="Cascadia Code PL" font-size="10.00" fill="cyan">pvwRecentOpen = TRUE</text>
<text text-anchor="middle" x="956.04" y="-198" font-family="Cascadia Code PL" font-size="10.00" fill="cyan">pvwRecentHover = idx</text>
<text text-anchor="middle" x="956.04" y="-187" font-family="Cascadia Code PL" font-size="10.00" fill="cyan">Nested level 3</text>
</g>
<!-- C_PVW&#45;&gt;C_PVW_RECENT -->
<g id="edge16" class="edge">
<title>C_PVW&#45;&gt;C_PVW_RECENT</title>
<path fill="none" stroke="#88aacc" d="M951.3,-328.29C952.19,-306.51 953.4,-277.05 954.37,-253.3"/>
<polygon fill="#88aacc" stroke="#88aacc" points="957.88,-253.31 954.79,-243.17 950.88,-253.02 957.88,-253.31"/>
<text text-anchor="middle" x="988.04" y="-285.1" font-family="Cascadia Code PL" font-size="8.00" fill="#aaaaaa"> Hover Recent item</text>
</g>
<!-- KB_SUB -->
<g id="node17" class="node">
<title>KB_SUB</title>
<polygon fill="none" stroke="white" points="1695.54,-254 1578.54,-254 1578.54,-169 1695.54,-169 1695.54,-254"/>
<text text-anchor="middle" x="1637.04" y="-242" font-family="Cascadia Code PL" font-size="10.00" fill="cyan">Submenu Level</text>
<text text-anchor="middle" x="1637.04" y="-231" font-family="Cascadia Code PL" font-size="10.00" fill="cyan">────────────</text>
<text text-anchor="middle" x="1637.04" y="-220" font-family="Cascadia Code PL" font-size="10.00" fill="cyan">↑ ↓ = Navigate items</text>
<text text-anchor="middle" x="1637.04" y="-209" font-family="Cascadia Code PL" font-size="10.00" fill="cyan">Enter = Execute action</text>
<text text-anchor="middle" x="1637.04" y="-198" font-family="Cascadia Code PL" font-size="10.00" fill="cyan">→ = Open cascade</text>
<text text-anchor="middle" x="1637.04" y="-187" font-family="Cascadia Code PL" font-size="10.00" fill="cyan">← = Close submenu</text>
<text text-anchor="middle" x="1637.04" y="-176" font-family="Cascadia Code PL" font-size="10.00" fill="cyan">Escape = Back to root</text>
</g>
<!-- KB_ROOT&#45;&gt;KB_SUB -->
<g id="edge17" class="edge">
<title>KB_ROOT&#45;&gt;KB_SUB</title>
<path fill="none" stroke="#66cc66" d="M1610.4,-328.35C1605.74,-320.16 1601.48,-311.06 1599.04,-302 1595.59,-289.12 1595.31,-284.8 1599.04,-272 1599.87,-269.19 1600.87,-266.38 1602,-263.6"/>
<polygon fill="#66cc66" stroke="#66cc66" points="1605.28,-264.86 1606.34,-254.31 1598.94,-261.89 1605.28,-264.86"/>
<text text-anchor="middle" x="1615.54" y="-285.1" font-family="Cascadia Code PL" font-size="8.00" fill="#aaaaaa"> Enter / ↓</text>
</g>
<!-- KB_SUB&#45;&gt;KB_ROOT -->
<g id="edge18" class="edge">
<title>KB_SUB&#45;&gt;KB_ROOT</title>
<path fill="none" stroke="#cc6666" stroke-dasharray="5,2" d="M1635.63,-254.01C1634.94,-274.13 1634.12,-298.21 1633.44,-318.23"/>
<polygon fill="#cc6666" stroke="#cc6666" points="1629.94,-318.18 1633.09,-328.29 1636.93,-318.41 1629.94,-318.18"/>
<text text-anchor="middle" x="1654.54" y="-285.1" font-family="Cascadia Code PL" font-size="8.00" fill="#aaaaaa"> ← / Escape</text>
</g>
<!-- KB_CASCADE -->
<g id="node18" class="node">
<title>KB_CASCADE</title>
<polygon fill="none" stroke="white" points="1707.04,-90 1569.04,-90 1569.04,-16 1707.04,-16 1707.04,-90"/>
<text text-anchor="middle" x="1638.04" y="-78" font-family="Cascadia Code PL" font-size="10.00" fill="cyan">Cascade Level</text>
<text text-anchor="middle" x="1638.04" y="-67" font-family="Cascadia Code PL" font-size="10.00" fill="cyan">────────────</text>
<text text-anchor="middle" x="1638.04" y="-56" font-family="Cascadia Code PL" font-size="10.00" fill="cyan">↑ ↓ = Navigate cascade</text>
<text text-anchor="middle" x="1638.04" y="-45" font-family="Cascadia Code PL" font-size="10.00" fill="cyan">Enter = Execute</text>
<text text-anchor="middle" x="1638.04" y="-34" font-family="Cascadia Code PL" font-size="10.00" fill="cyan">← = Close cascade</text>
<text text-anchor="middle" x="1638.04" y="-23" font-family="Cascadia Code PL" font-size="10.00" fill="cyan">Escape = Back to submenu</text>
</g>
<!-- KB_SUB&#45;&gt;KB_CASCADE -->
<g id="edge19" class="edge">
<title>KB_SUB&#45;&gt;KB_CASCADE</title>
<path fill="none" stroke="#66cc66" d="M1590.93,-168.67C1586.95,-163.13 1583.5,-157.2 1581.04,-151 1574.49,-134.47 1574.24,-127.42 1581.04,-111 1582.89,-106.55 1585.27,-102.26 1588.01,-98.18"/>
<polygon fill="#66cc66" stroke="#66cc66" points="1590.87,-100.19 1594.07,-90.09 1585.27,-95.99 1590.87,-100.19"/>
<text text-anchor="middle" x="1616.04" y="-129.1" font-family="Cascadia Code PL" font-size="8.00" fill="#aaaaaa"> → on cascade item</text>
</g>
<!-- KB_CASCADE&#45;&gt;KB_SUB -->
<g id="edge20" class="edge">
<title>KB_CASCADE&#45;&gt;KB_SUB</title>
<path fill="none" stroke="#cc6666" stroke-dasharray="5,2" d="M1647.59,-90.28C1649.03,-97.12 1650.28,-104.24 1651.04,-111 1653.03,-128.67 1653.09,-133.34 1651.04,-151 1650.75,-153.54 1650.39,-156.12 1649.97,-158.72"/>
<polygon fill="#cc6666" stroke="#cc6666" points="1646.49,-158.32 1648.14,-168.78 1653.38,-159.57 1646.49,-158.32"/>
<text text-anchor="middle" x="1672.54" y="-129.1" font-family="Cascadia Code PL" font-size="8.00" fill="#aaaaaa"> ← / Escape</text>
</g>
<!-- L1 -->
<g id="node19" class="node">
<title>L1</title>
<ellipse fill="white" stroke="white" cx="1995.04" cy="-513.5" rx="0.36" ry="0.36"/>
</g>
<!-- L2 -->
<g id="node20" class="node">
<title>L2</title>
<ellipse fill="white" stroke="white" cx="1995.04" cy="-360" rx="0.36" ry="0.36"/>
</g>
<!-- L1&#45;&gt;L2 -->
<g id="edge24" class="edge">
<title>L1&#45;&gt;L2</title>
<path fill="none" stroke="#66cc66" d="M1995.04,-512.39C1995.04,-508.54 1995.04,-404.77 1995.04,-371.3"/>
<polygon fill="#66cc66" stroke="#66cc66" points="1998.54,-371.11 1995.04,-361.11 1991.54,-371.11 1998.54,-371.11"/>
<text text-anchor="middle" x="2029.04" y="-460.3" font-family="Cascadia Code PL" font-size="9.00" fill="#aaaaaa"> Open / Navigate</text>
</g>
<!-- L3 -->
<g id="node21" class="node">
<title>L3</title>
<ellipse fill="white" stroke="white" cx="1926.04" cy="-513.5" rx="0.36" ry="0.36"/>
</g>
<!-- L4 -->
<g id="node22" class="node">
<title>L4</title>
<ellipse fill="white" stroke="white" cx="1926.04" cy="-360" rx="0.36" ry="0.36"/>
</g>
<!-- L3&#45;&gt;L4 -->
<g id="edge25" class="edge">
<title>L3&#45;&gt;L4</title>
<path fill="none" stroke="#cc6666" stroke-dasharray="5,2" d="M1926.04,-512.39C1926.04,-508.54 1926.04,-404.77 1926.04,-371.3"/>
<polygon fill="#cc6666" stroke="#cc6666" points="1929.54,-371.11 1926.04,-361.11 1922.54,-371.11 1929.54,-371.11"/>
<text text-anchor="middle" x="1949.04" y="-460.3" font-family="Cascadia Code PL" font-size="9.00" fill="#aaaaaa"> Close / Exit</text>
</g>
<!-- L5 -->
<g id="node23" class="node">
<title>L5</title>
<ellipse fill="white" stroke="white" cx="1842.04" cy="-513.5" rx="0.36" ry="0.36"/>
</g>
<!-- L6 -->
<g id="node24" class="node">
<title>L6</title>
<ellipse fill="white" stroke="white" cx="1842.04" cy="-360" rx="0.36" ry="0.36"/>
</g>
<!-- L5&#45;&gt;L6 -->
<g id="edge26" class="edge">
<title>L5&#45;&gt;L6</title>
<path fill="none" stroke="#cccc66" d="M1842.04,-512.39C1842.04,-508.54 1842.04,-404.77 1842.04,-371.3"/>
<polygon fill="#cccc66" stroke="#cccc66" points="1845.54,-371.11 1842.04,-361.11 1838.54,-371.11 1845.54,-371.11"/>
<text text-anchor="middle" x="1872.54" y="-460.3" font-family="Cascadia Code PL" font-size="9.00" fill="#aaaaaa"> Execute Action</text>
</g>
<!-- L7 -->
<g id="node25" class="node">
<title>L7</title>
<ellipse fill="white" stroke="white" cx="1756.04" cy="-513.5" rx="0.36" ry="0.36"/>
</g>
<!-- L8 -->
<g id="node26" class="node">
<title>L8</title>
<ellipse fill="white" stroke="white" cx="1756.04" cy="-360" rx="0.36" ry="0.36"/>
</g>
<!-- L7&#45;&gt;L8 -->
<g id="edge27" class="edge">
<title>L7&#45;&gt;L8</title>
<path fill="none" stroke="#6699ff" d="M1756.04,-512.39C1756.04,-508.54 1756.04,-404.77 1756.04,-371.3"/>
<polygon fill="#6699ff" stroke="#6699ff" points="1759.54,-371.11 1756.04,-361.11 1752.54,-371.11 1759.54,-371.11"/>
<text text-anchor="middle" x="1787.54" y="-460.3" font-family="Cascadia Code PL" font-size="9.00" fill="#aaaaaa"> Keyboard Entry</text>
</g>
</g>
</svg>
