<?xml version="1.0" encoding="UTF-8" standalone="no"?>
<!DOCTYPE svg PUBLIC "-//W3C//DTD SVG 1.1//EN"
 "http://www.w3.org/Graphics/SVG/1.1/DTD/svg11.dtd">
<!-- Generated by graphviz version 2.42.4 (0)
 -->
<!-- Title: MENUBAR Pages: 1 -->
<svg width="2603pt" height="636pt"
 viewBox="0.00 0.00 2602.82 636.36" xmlns="http://www.w3.org/2000/svg" xmlns:xlink="http://www.w3.org/1999/xlink">
<g id="graph0" class="graph" transform="scale(1 1) rotate(0) translate(4 632.36)">
<title>MENUBAR</title>
<text text-anchor="middle" x="1297.41" y="-605.16" font-family="Cascadia Code PL" font-size="24.00" fill="white">MENU BAR STATE MACHINE</text>
<g id="clust6" class="cluster">
<title>cluster_legend</title>
<polygon fill="transparent" stroke="white" stroke-dasharray="5,2" points="2209.82,-359.64 2209.82,-586.36 2586.82,-586.36 2586.82,-359.64 2209.82,-359.64"/>
<text text-anchor="middle" x="2240.32" y="-573.56" font-family="Cascadia Code PL" font-size="11.00" fill="white">LEGEND</text>
</g>
<g id="clust2" class="cluster">
<title>cluster_cascade</title>
<polygon fill="transparent" stroke="orange" stroke-dasharray="5,2" points="981.82,-172 981.82,-464 2010.82,-464 2010.82,-172 981.82,-172"/>
<text text-anchor="middle" x="1055.32" y="-451.2" font-family="Cascadia Code PL" font-size="11.00" fill="orange">CASCADING SUBMENUS</text>
</g>
<g id="clust3" class="cluster">
<title>cluster_kbnav</title>
<polygon fill="transparent" stroke="orange" stroke-dasharray="5,2" points="2018.82,-8 2018.82,-447.5 2201.82,-447.5 2201.82,-8 2018.82,-8"/>
<text text-anchor="middle" x="2092.82" y="-434.7" font-family="Cascadia Code PL" font-size="11.00" fill="orange">KEYBOARD NAVIGATION</text>
</g>
<!-- MAIN -->
<g id="node1" class="node">
<title>MAIN</title>
<polygon fill="none" stroke="orange" stroke-width="2" points="146.32,-556 143.32,-560 122.32,-560 119.32,-556 43.32,-556 43.32,-520 146.32,-520 146.32,-556"/>
<text text-anchor="middle" x="94.82" y="-534.6" font-family="Cascadia Code PL" font-size="13.00" fill="orange">MAIN STATES</text>
</g>
<!-- S_CLOSED -->
<g id="node4" class="node">
<title>S_CLOSED</title>
<polygon fill="none" stroke="white" points="170.82,-408 18.82,-408 18.82,-328 170.82,-328 170.82,-408"/>
<text text-anchor="middle" x="94.82" y="-395.2" font-family="Cascadia Code PL" font-size="11.00" fill="cyan">1 · CLOSED</text>
<text text-anchor="middle" x="94.82" y="-383.2" font-family="Cascadia Code PL" font-size="11.00" fill="cyan">─────────────────</text>
<text text-anchor="middle" x="94.82" y="-371.2" font-family="Cascadia Code PL" font-size="11.00" fill="cyan">openMenu = &#45;1</text>
<text text-anchor="middle" x="94.82" y="-359.2" font-family="Cascadia Code PL" font-size="11.00" fill="cyan">No dropdown visible</text>
<text text-anchor="middle" x="94.82" y="-347.2" font-family="Cascadia Code PL" font-size="11.00" fill="cyan">Bar rendered with labels</text>
<text text-anchor="middle" x="94.82" y="-335.2" font-family="Cascadia Code PL" font-size="11.00" fill="cyan">hoverRoot tracks mouse</text>
</g>
<!-- MAIN&#45;&gt;S_CLOSED -->
<g id="edge21" class="edge">
<title>MAIN&#45;&gt;S_CLOSED</title>
<path fill="none" stroke="#555555" stroke-dasharray="1,5" d="M94.82,-519.97C94.82,-493.94 94.82,-443.57 94.82,-408.2"/>
</g>
<!-- CASCADE -->
<g id="node2" class="node">
<title>CASCADE</title>
<polygon fill="none" stroke="orange" stroke-width="2" points="500.32,-556 497.32,-560 476.32,-560 473.32,-556 327.32,-556 327.32,-520 500.32,-520 500.32,-556"/>
<text text-anchor="middle" x="413.82" y="-534.6" font-family="Cascadia Code PL" font-size="13.00" fill="orange">CASCADING SUBMENUS</text>
</g>
<!-- C_RECENT -->
<g id="node10" class="node">
<title>C_RECENT</title>
<polygon fill="none" stroke="white" points="2002.32,-399.5 1887.32,-399.5 1887.32,-336.5 2002.32,-336.5 2002.32,-399.5"/>
<text text-anchor="middle" x="1944.82" y="-387.5" font-family="Cascadia Code PL" font-size="10.00" fill="cyan">Recent Files</text>
<text text-anchor="middle" x="1944.82" y="-376.5" font-family="Cascadia Code PL" font-size="10.00" fill="cyan">────────────</text>
<text text-anchor="middle" x="1944.82" y="-365.5" font-family="Cascadia Code PL" font-size="10.00" fill="cyan">recentOpen = TRUE</text>
<text text-anchor="middle" x="1944.82" y="-354.5" font-family="Cascadia Code PL" font-size="10.00" fill="cyan">recentHover = idx</text>
<text text-anchor="middle" x="1944.82" y="-343.5" font-family="Cascadia Code PL" font-size="10.00" fill="cyan">Up to 10 recent files</text>
</g>
<!-- CASCADE&#45;&gt;C_RECENT -->
<g id="edge22" class="edge">
<title>CASCADE&#45;&gt;C_RECENT</title>
<path fill="none" stroke="#555555" stroke-dasharray="1,5" d="M412.15,-519.9C411.73,-504.73 413.93,-483.28 427.82,-472 443.45,-459.3 1859.97,-473.32 1877.82,-464"/>
</g>
<!-- KB_NAV -->
<g id="node3" class="node">
<title>KB_NAV</title>
<polygon fill="none" stroke="orange" stroke-width="2" points="2161.32,-556 2158.32,-560 2137.32,-560 2134.32,-556 2042.32,-556 2042.32,-520 2161.32,-520 2161.32,-556"/>
<text text-anchor="middle" x="2101.82" y="-534.6" font-family="Cascadia Code PL" font-size="13.00" fill="orange">KEYBOARD NAV</text>
</g>
<!-- KB_ROOT -->
<g id="node18" class="node">
<title>KB_ROOT</title>
<polygon fill="none" stroke="white" points="2172.32,-399.5 2031.32,-399.5 2031.32,-336.5 2172.32,-336.5 2172.32,-399.5"/>
<text text-anchor="middle" x="2101.82" y="-387.5" font-family="Cascadia Code PL" font-size="10.00" fill="cyan">Root Level</text>
<text text-anchor="middle" x="2101.82" y="-376.5" font-family="Cascadia Code PL" font-size="10.00" fill="cyan">────────────</text>
<text text-anchor="middle" x="2101.82" y="-365.5" font-family="Cascadia Code PL" font-size="10.00" fill="cyan">← → = Switch root</text>
<text text-anchor="middle" x="2101.82" y="-354.5" font-family="Cascadia Code PL" font-size="10.00" fill="cyan">Enter/↓ = Open submenu</text>
<text text-anchor="middle" x="2101.82" y="-343.5" font-family="Cascadia Code PL" font-size="10.00" fill="cyan">Escape = Close</text>
</g>
<!-- KB_NAV&#45;&gt;KB_ROOT -->
<g id="edge23" class="edge">
<title>KB_NAV&#45;&gt;KB_ROOT</title>
<path fill="none" stroke="#555555" stroke-dasharray="1,5" d="M2101.82,-519.97C2101.82,-502.7 2101.82,-474.71 2101.82,-447.5"/>
</g>
<!-- S_ROOT_OPEN -->
<g id="node5" class="node">
<title>S_ROOT_OPEN</title>
<polygon fill="none" stroke="white" points="832.32,-408 671.32,-408 671.32,-328 832.32,-328 832.32,-408"/>
<text text-anchor="middle" x="751.82" y="-395.2" font-family="Cascadia Code PL" font-size="11.00" fill="cyan">2 · ROOT MENU OPEN</text>
<text text-anchor="middle" x="751.82" y="-383.2" font-family="Cascadia Code PL" font-size="11.00" fill="cyan">─────────────────</text>
<text text-anchor="middle" x="751.82" y="-371.2" font-family="Cascadia Code PL" font-size="11.00" fill="cyan">openMenu = rootIdx</text>
<text text-anchor="middle" x="751.82" y="-359.2" font-family="Cascadia Code PL" font-size="11.00" fill="cyan">Dropdown rendered below</text>
<text text-anchor="middle" x="751.82" y="-347.2" font-family="Cascadia Code PL" font-size="11.00" fill="cyan">hoverSub = item index</text>
<text text-anchor="middle" x="751.82" y="-335.2" font-family="Cascadia Code PL" font-size="11.00" fill="cyan">stayOpen = TRUE</text>
</g>
<!-- S_CLOSED&#45;&gt;S_ROOT_OPEN -->
<g id="edge1" class="edge">
<title>S_CLOSED&#45;&gt;S_ROOT_OPEN</title>
<path fill="none" stroke="#66cc66" d="M150.64,-408.12C183.15,-429.06 225.88,-452.64 267.82,-464 350.51,-486.4 574.45,-503.48 653.32,-470 679.64,-458.83 702.36,-436.79 719.32,-416.05"/>
<polygon fill="#66cc66" stroke="#66cc66" points="722.08,-418.21 725.53,-408.19 716.58,-413.87 722.08,-418.21"/>
<text text-anchor="middle" x="593.82" y="-489.8" font-family="Cascadia Code PL" font-size="9.00" fill="#aaaaaa"> &#160;Click root label</text>
<text text-anchor="middle" x="593.82" y="-479.8" font-family="Cascadia Code PL" font-size="9.00" fill="#aaaaaa"> &#160;MENUBAR_handle_click()</text>
</g>
<!-- S_OVERFLOW -->
<g id="node8" class="node">
<title>S_OVERFLOW</title>
<polygon fill="none" stroke="white" points="255.82,-245.5 55.82,-245.5 55.82,-177.5 255.82,-177.5 255.82,-245.5"/>
<text text-anchor="middle" x="155.82" y="-232.7" font-family="Cascadia Code PL" font-size="11.00" fill="cyan">5 · OVERFLOW MENU</text>
<text text-anchor="middle" x="155.82" y="-220.7" font-family="Cascadia Code PL" font-size="11.00" fill="cyan">─────────────────</text>
<text text-anchor="middle" x="155.82" y="-208.7" font-family="Cascadia Code PL" font-size="11.00" fill="cyan">MENU_CHEVRON_ACTIVE = TRUE</text>
<text text-anchor="middle" x="155.82" y="-196.7" font-family="Cascadia Code PL" font-size="11.00" fill="cyan">MENU_OVERFLOW_OPEN = TRUE</text>
<text text-anchor="middle" x="155.82" y="-184.7" font-family="Cascadia Code PL" font-size="11.00" fill="cyan">&gt;&gt; button shows hidden roots</text>
</g>
<!-- S_CLOSED&#45;&gt;S_OVERFLOW -->
<g id="edge10" class="edge">
<title>S_CLOSED&#45;&gt;S_OVERFLOW</title>
<path fill="none" stroke="#66cc66" d="M25.1,-327.79C5.31,-311.51 -7.64,-291.82 5.82,-272 15.98,-257.04 30.55,-245.84 46.66,-237.46"/>
<polygon fill="#66cc66" stroke="#66cc66" points="48.26,-240.57 55.76,-233.09 45.23,-234.27 48.26,-240.57"/>
<text text-anchor="middle" x="84.32" y="-289.8" font-family="Cascadia Code PL" font-size="9.00" fill="#aaaaaa"> &#160;Click &gt;&gt; chevron</text>
<text text-anchor="middle" x="84.32" y="-279.8" font-family="Cascadia Code PL" font-size="9.00" fill="#aaaaaa"> &#160;MENU_CHEVRON_ACTIVE = TRUE</text>
</g>
<!-- S_KB_ACTIVE -->
<g id="node9" class="node">
<title>S_KB_ACTIVE</title>
<polygon fill="none" stroke="white" points="436.82,-408 276.82,-408 276.82,-328 436.82,-328 436.82,-408"/>
<text text-anchor="middle" x="356.82" y="-395.2" font-family="Cascadia Code PL" font-size="11.00" fill="cyan">6 · KEYBOARD ACTIVE</text>
<text text-anchor="middle" x="356.82" y="-383.2" font-family="Cascadia Code PL" font-size="11.00" fill="cyan">─────────────────</text>
<text text-anchor="middle" x="356.82" y="-371.2" font-family="Cascadia Code PL" font-size="11.00" fill="cyan">kbActive = TRUE</text>
<text text-anchor="middle" x="356.82" y="-359.2" font-family="Cascadia Code PL" font-size="11.00" fill="cyan">Arrow keys navigate</text>
<text text-anchor="middle" x="356.82" y="-347.2" font-family="Cascadia Code PL" font-size="11.00" fill="cyan">Mouse ignored until move</text>
<text text-anchor="middle" x="356.82" y="-335.2" font-family="Cascadia Code PL" font-size="11.00" fill="cyan">Enter executes action</text>
</g>
<!-- S_CLOSED&#45;&gt;S_KB_ACTIVE -->
<g id="edge2" class="edge">
<title>S_CLOSED&#45;&gt;S_KB_ACTIVE</title>
<path fill="none" stroke="#6699ff" d="M170.95,-368C200.68,-368 235.01,-368 266.01,-368"/>
<polygon fill="#6699ff" stroke="#6699ff" points="266.39,-371.5 276.39,-368 266.39,-364.5 266.39,-371.5"/>
<text text-anchor="middle" x="223.82" y="-393.8" font-family="Cascadia Code PL" font-size="9.00" fill="#aaaaaa"> &#160;ALT tap / F10</text>
<text text-anchor="middle" x="223.82" y="-383.8" font-family="Cascadia Code PL" font-size="9.00" fill="#aaaaaa"> &#160;altTapped = TRUE</text>
<text text-anchor="middle" x="223.82" y="-373.8" font-family="Cascadia Code PL" font-size="9.00" fill="#aaaaaa"> &#160;kbActive = TRUE</text>
</g>
<!-- S_ROOT_OPEN&#45;&gt;S_CLOSED -->
<g id="edge7" class="edge">
<title>S_ROOT_OPEN&#45;&gt;S_CLOSED</title>
<path fill="none" stroke="#cc6666" stroke-dasharray="5,2" d="M725.53,-408.19C708.1,-430.99 683,-457.4 653.32,-470 574.45,-503.48 350.51,-486.4 267.82,-464 229.48,-453.61 190.48,-433.03 159.24,-413.57"/>
<polygon fill="#cc6666" stroke="#cc6666" points="160.96,-410.52 150.64,-408.12 157.22,-416.43 160.96,-410.52"/>
<text text-anchor="middle" x="593.82" y="-494.8" font-family="Cascadia Code PL" font-size="9.00" fill="#aaaaaa"> &#160;Click outside menu</text>
<text text-anchor="middle" x="593.82" y="-484.8" font-family="Cascadia Code PL" font-size="9.00" fill="#aaaaaa"> &#160;Escape key</text>
<text text-anchor="middle" x="593.82" y="-474.8" font-family="Cascadia Code PL" font-size="9.00" fill="#aaaaaa"> &#160;MENUBAR_close_all()</text>
</g>
<!-- S_ROOT_OPEN&#45;&gt;S_ROOT_OPEN -->
<g id="edge3" class="edge">
<title>S_ROOT_OPEN&#45;&gt;S_ROOT_OPEN</title>
<path fill="none" stroke="#88aacc" d="M832.59,-381.23C843.25,-378.97 850.32,-374.56 850.32,-368 850.32,-363.69 847.27,-360.31 842.17,-357.86"/>
<polygon fill="#88aacc" stroke="#88aacc" points="843.18,-354.51 832.59,-354.77 841.03,-361.17 843.18,-354.51"/>
<text text-anchor="middle" x="910.82" y="-375.8" font-family="Cascadia Code PL" font-size="9.00" fill="#aaaaaa"> &#160;Hover different root</text>
<text text-anchor="middle" x="910.82" y="-365.8" font-family="Cascadia Code PL" font-size="9.00" fill="#aaaaaa"> &#160;openMenu = newRootIdx</text>
<text text-anchor="middle" x="910.82" y="-355.8" font-family="Cascadia Code PL" font-size="9.00" fill="#aaaaaa"> &#160;(auto&#45;switch while open)</text>
</g>
<!-- S_HOVER -->
<g id="node6" class="node">
<title>S_HOVER</title>
<polygon fill="none" stroke="white" points="556.82,-251.5 424.82,-251.5 424.82,-171.5 556.82,-171.5 556.82,-251.5"/>
<text text-anchor="middle" x="490.82" y="-238.7" font-family="Cascadia Code PL" font-size="11.00" fill="cyan">3 · SUBMENU HOVER</text>
<text text-anchor="middle" x="490.82" y="-226.7" font-family="Cascadia Code PL" font-size="11.00" fill="cyan">─────────────────</text>
<text text-anchor="middle" x="490.82" y="-214.7" font-family="Cascadia Code PL" font-size="11.00" fill="cyan">hoverSub = itemIdx</text>
<text text-anchor="middle" x="490.82" y="-202.7" font-family="Cascadia Code PL" font-size="11.00" fill="cyan">Item highlighted</text>
<text text-anchor="middle" x="490.82" y="-190.7" font-family="Cascadia Code PL" font-size="11.00" fill="cyan">Ready for click or</text>
<text text-anchor="middle" x="490.82" y="-178.7" font-family="Cascadia Code PL" font-size="11.00" fill="cyan">keyboard Enter</text>
</g>
<!-- S_ROOT_OPEN&#45;&gt;S_HOVER -->
<g id="edge4" class="edge">
<title>S_ROOT_OPEN&#45;&gt;S_HOVER</title>
<path fill="none" stroke="#66cc66" d="M740.88,-327.93C733.6,-308.56 722.11,-286.31 704.82,-272 666.23,-240.07 611.71,-225.22 567.36,-218.34"/>
<polygon fill="#66cc66" stroke="#66cc66" points="567.59,-214.84 557.2,-216.88 566.59,-221.77 567.59,-214.84"/>
<text text-anchor="middle" x="796.82" y="-289.8" font-family="Cascadia Code PL" font-size="9.00" fill="#aaaaaa"> &#160;Mouse enters submenu item</text>
<text text-anchor="middle" x="796.82" y="-279.8" font-family="Cascadia Code PL" font-size="9.00" fill="#aaaaaa"> &#160;hoverSub = itemIdx</text>
</g>
<!-- S_HOVER&#45;&gt;S_CLOSED -->
<g id="edge6" class="edge">
<title>S_HOVER&#45;&gt;S_CLOSED</title>
<path fill="none" stroke="#cccc66" d="M424.59,-247.18C419.94,-249.51 415.32,-251.81 410.82,-254 364.7,-276.49 353.77,-283.74 305.82,-302 265.2,-317.47 219.17,-331.98 180.49,-343.36"/>
<polygon fill="#cccc66" stroke="#cccc66" points="179.44,-340.02 170.82,-346.18 181.4,-346.74 179.44,-340.02"/>
<text text-anchor="middle" x="445.82" y="-294.8" font-family="Cascadia Code PL" font-size="9.00" fill="#aaaaaa"> &#160;Click item → execute action</text>
<text text-anchor="middle" x="445.82" y="-284.8" font-family="Cascadia Code PL" font-size="9.00" fill="#aaaaaa"> &#160;MENUBAR_close_all()</text>
<text text-anchor="middle" x="445.82" y="-274.8" font-family="Cascadia Code PL" font-size="9.00" fill="#aaaaaa"> &#160;CMD_execute_action(actionId)</text>
</g>
<!-- S_CASCADE -->
<g id="node7" class="node">
<title>S_CASCADE</title>
<polygon fill="none" stroke="white" points="472.82,-93 206.82,-93 206.82,-13 472.82,-13 472.82,-93"/>
<text text-anchor="middle" x="339.82" y="-80.2" font-family="Cascadia Code PL" font-size="11.00" fill="cyan">4 · CASCADE OPEN</text>
<text text-anchor="middle" x="339.82" y="-68.2" font-family="Cascadia Code PL" font-size="11.00" fill="cyan">─────────────────</text>
<text text-anchor="middle" x="339.82" y="-56.2" font-family="Cascadia Code PL" font-size="11.00" fill="cyan">recentOpen / randomOpen / transformOpen /</text>
<text text-anchor="middle" x="339.82" y="-44.2" font-family="Cascadia Code PL" font-size="11.00" fill="cyan">layoutOpen / pvwOpen / exportOpen /</text>
<text text-anchor="middle" x="339.82" y="-32.2" font-family="Cascadia Code PL" font-size="11.00" fill="cyan">genOpen (EFFECTS category flyout) = TRUE</text>
<text text-anchor="middle" x="339.82" y="-20.2" font-family="Cascadia Code PL" font-size="11.00" fill="cyan">Nested dropdown visible</text>
</g>
<!-- S_HOVER&#45;&gt;S_CASCADE -->
<g id="edge5" class="edge">
<title>S_HOVER&#45;&gt;S_CASCADE</title>
<path fill="none" stroke="#66cc66" d="M490.34,-171.47C488.22,-151.46 482.61,-127.84 468.82,-111 465.46,-106.9 461.75,-103.09 457.77,-99.54"/>
<polygon fill="#66cc66" stroke="#66cc66" points="459.77,-96.66 449.81,-93.05 455.35,-102.08 459.77,-96.66"/>
<text text-anchor="middle" x="593.32" y="-143.8" font-family="Cascadia Code PL" font-size="9.00" fill="#aaaaaa"> &#160;Hover item with cascade</text>
<text text-anchor="middle" x="593.32" y="-133.8" font-family="Cascadia Code PL" font-size="9.00" fill="#aaaaaa"> &#160;(Recent, Random, Transform, Layout,</text>
<text text-anchor="middle" x="593.32" y="-123.8" font-family="Cascadia Code PL" font-size="9.00" fill="#aaaaaa"> &#160;Preview, Export As, EFFECTS category)</text>
<text text-anchor="middle" x="593.32" y="-113.8" font-family="Cascadia Code PL" font-size="9.00" fill="#aaaaaa"> &#160;Open nested submenu (auto&#45;open on hover)</text>
</g>
<!-- S_CASCADE&#45;&gt;S_CLOSED -->
<g id="edge9" class="edge">
<title>S_CASCADE&#45;&gt;S_CLOSED</title>
<path fill="none" stroke="#cccc66" d="M327.33,-93.14C313.78,-134.06 290.59,-199.73 264.82,-254 254.22,-276.31 255.12,-285.42 236.82,-302 220.53,-316.76 200.31,-328.69 180.29,-338.1"/>
<polygon fill="#cccc66" stroke="#cccc66" points="178.79,-334.94 171.12,-342.25 181.67,-341.32 178.79,-334.94"/>
<text text-anchor="middle" x="358.32" y="-214.3" font-family="Cascadia Code PL" font-size="9.00" fill="#aaaaaa"> &#160;Click cascade item</text>
<text text-anchor="middle" x="358.32" y="-204.3" font-family="Cascadia Code PL" font-size="9.00" fill="#aaaaaa"> &#160;Execute action, close all</text>
</g>
<!-- S_CASCADE&#45;&gt;S_HOVER -->
<g id="edge8" class="edge">
<title>S_CASCADE&#45;&gt;S_HOVER</title>
<path fill="none" stroke="#cc6666" stroke-dasharray="5,2" d="M327.69,-93.1C324.2,-112.42 324.22,-134.97 336.82,-151 357.73,-177.61 379.12,-157.12 410.82,-169 412.24,-169.53 413.66,-170.08 415.1,-170.65"/>
<polygon fill="#cc6666" stroke="#cc6666" points="414,-173.99 424.58,-174.62 416.71,-167.53 414,-173.99"/>
<text text-anchor="middle" x="400.82" y="-133.8" font-family="Cascadia Code PL" font-size="9.00" fill="#aaaaaa"> &#160;Mouse leaves cascade area</text>
<text text-anchor="middle" x="400.82" y="-123.8" font-family="Cascadia Code PL" font-size="9.00" fill="#aaaaaa"> &#160;Close nested dropdown</text>
</g>
<!-- S_OVERFLOW&#45;&gt;S_CLOSED -->
<g id="edge12" class="edge">
<title>S_OVERFLOW&#45;&gt;S_CLOSED</title>
<path fill="none" stroke="#cc6666" stroke-dasharray="5,2" d="M165.63,-245.6C169.03,-263.02 170.35,-284.37 162.82,-302 160.14,-308.26 156.54,-314.2 152.38,-319.76"/>
<polygon fill="#cc6666" stroke="#cc6666" points="149.56,-317.68 145.93,-327.63 154.97,-322.12 149.56,-317.68"/>
<text text-anchor="middle" x="200.82" y="-289.8" font-family="Cascadia Code PL" font-size="9.00" fill="#aaaaaa"> &#160;Click outside</text>
<text text-anchor="middle" x="200.82" y="-279.8" font-family="Cascadia Code PL" font-size="9.00" fill="#aaaaaa"> &#160;Escape</text>
</g>
<!-- S_OVERFLOW&#45;&gt;S_ROOT_OPEN -->
<g id="edge11" class="edge">
<title>S_OVERFLOW&#45;&gt;S_ROOT_OPEN</title>
<path fill="none" stroke="#66cc66" d="M238.15,-245.5C248.68,-248.82 259.42,-251.78 269.82,-254 379.63,-277.43 414.33,-239.55 521.82,-272 547.73,-279.82 550.26,-290.63 574.82,-302 602.44,-314.79 633.35,-326.86 661.52,-337.05"/>
<polygon fill="#66cc66" stroke="#66cc66" points="660.36,-340.35 670.95,-340.43 662.72,-333.77 660.36,-340.35"/>
<text text-anchor="middle" x="637.82" y="-289.8" font-family="Cascadia Code PL" font-size="9.00" fill="#aaaaaa"> &#160;Click overflow item</text>
<text text-anchor="middle" x="637.82" y="-279.8" font-family="Cascadia Code PL" font-size="9.00" fill="#aaaaaa"> &#160;Open that root&#39;s submenu</text>
</g>
<!-- S_KB_ACTIVE&#45;&gt;S_CLOSED -->
<g id="edge15" class="edge">
<title>S_KB_ACTIVE&#45;&gt;S_CLOSED</title>
<path fill="none" stroke="#cc6666" stroke-dasharray="5,2" d="M276.5,-346.34C273.41,-345.83 270.34,-345.38 267.32,-345 231.8,-340.51 220.34,-339.99 181.07,-345.09"/>
<polygon fill="#cc6666" stroke="#cc6666" points="180.51,-341.63 171.06,-346.43 181.44,-348.57 180.51,-341.63"/>
<text text-anchor="middle" x="223.82" y="-357.8" font-family="Cascadia Code PL" font-size="9.00" fill="#aaaaaa"> &#160;Escape / ALT tap</text>
<text text-anchor="middle" x="223.82" y="-347.8" font-family="Cascadia Code PL" font-size="9.00" fill="#aaaaaa"> &#160;kbActive = FALSE</text>
</g>
<!-- S_KB_ACTIVE&#45;&gt;S_ROOT_OPEN -->
<g id="edge13" class="edge">
<title>S_KB_ACTIVE&#45;&gt;S_ROOT_OPEN</title>
<path fill="none" stroke="#66cc66" d="M437.23,-368C502.13,-368 593.44,-368 660.98,-368"/>
<polygon fill="#66cc66" stroke="#66cc66" points="661.18,-371.5 671.18,-368 661.18,-364.5 661.18,-371.5"/>
<text text-anchor="middle" x="554.07" y="-383.8" font-family="Cascadia Code PL" font-size="9.00" fill="#aaaaaa"> &#160;Enter / Down arrow</text>
<text text-anchor="middle" x="554.07" y="-373.8" font-family="Cascadia Code PL" font-size="9.00" fill="#aaaaaa"> &#160;Open selected root</text>
</g>
<!-- S_KB_ACTIVE&#45;&gt;S_KB_ACTIVE -->
<g id="edge14" class="edge">
<title>S_KB_ACTIVE&#45;&gt;S_KB_ACTIVE</title>
<path fill="none" stroke="#88aacc" d="M437.18,-381.23C447.78,-378.97 454.82,-374.56 454.82,-368 454.82,-363.69 451.79,-360.31 446.71,-357.86"/>
<polygon fill="#88aacc" stroke="#88aacc" points="447.77,-354.53 437.18,-354.77 445.61,-361.19 447.77,-354.53"/>
<text text-anchor="middle" x="507.32" y="-370.8" font-family="Cascadia Code PL" font-size="9.00" fill="#aaaaaa"> &#160;Left/Right arrow</text>
<text text-anchor="middle" x="507.32" y="-360.8" font-family="Cascadia Code PL" font-size="9.00" fill="#aaaaaa"> &#160;Move to adjacent root</text>
</g>
<!-- C_RANDOM -->
<g id="node11" class="node">
<title>C_RANDOM</title>
<polygon fill="none" stroke="white" points="1868.82,-399.5 1734.82,-399.5 1734.82,-336.5 1868.82,-336.5 1868.82,-399.5"/>
<text text-anchor="middle" x="1801.82" y="-387.5" font-family="Cascadia Code PL" font-size="10.00" fill="cyan">Random Palette</text>
<text text-anchor="middle" x="1801.82" y="-376.5" font-family="Cascadia Code PL" font-size="10.00" fill="cyan">────────────</text>
<text text-anchor="middle" x="1801.82" y="-365.5" font-family="Cascadia Code PL" font-size="10.00" fill="cyan">randomOpen = TRUE</text>
<text text-anchor="middle" x="1801.82" y="-354.5" font-family="Cascadia Code PL" font-size="10.00" fill="cyan">randomHover = idx</text>
<text text-anchor="middle" x="1801.82" y="-343.5" font-family="Cascadia Code PL" font-size="10.00" fill="cyan">Lospec random palettes</text>
</g>
<!-- C_TRANSFORM -->
<g id="node12" class="node">
<title>C_TRANSFORM</title>
<polygon fill="none" stroke="white" points="1716.32,-399.5 1585.32,-399.5 1585.32,-336.5 1716.32,-336.5 1716.32,-399.5"/>
<text text-anchor="middle" x="1650.82" y="-387.5" font-family="Cascadia Code PL" font-size="10.00" fill="cyan">Transform Menu</text>
<text text-anchor="middle" x="1650.82" y="-376.5" font-family="Cascadia Code PL" font-size="10.00" fill="cyan">────────────</text>
<text text-anchor="middle" x="1650.82" y="-365.5" font-family="Cascadia Code PL" font-size="10.00" fill="cyan">transformOpen = TRUE</text>
<text text-anchor="middle" x="1650.82" y="-354.5" font-family="Cascadia Code PL" font-size="10.00" fill="cyan">transformHover = idx</text>
<text text-anchor="middle" x="1650.82" y="-343.5" font-family="Cascadia Code PL" font-size="10.00" fill="cyan">Flip, Rotate, Scale</text>
</g>
<!-- C_LAYOUT -->
<g id="node13" class="node">
<title>C_LAYOUT</title>
<polygon fill="none" stroke="white" points="1567.32,-399.5 1454.32,-399.5 1454.32,-336.5 1567.32,-336.5 1567.32,-399.5"/>
<text text-anchor="middle" x="1510.82" y="-387.5" font-family="Cascadia Code PL" font-size="10.00" fill="cyan">Layer Layout</text>
<text text-anchor="middle" x="1510.82" y="-376.5" font-family="Cascadia Code PL" font-size="10.00" fill="cyan">────────────</text>
<text text-anchor="middle" x="1510.82" y="-365.5" font-family="Cascadia Code PL" font-size="10.00" fill="cyan">layoutOpen = TRUE</text>
<text text-anchor="middle" x="1510.82" y="-354.5" font-family="Cascadia Code PL" font-size="10.00" fill="cyan">layoutHover = idx</text>
<text text-anchor="middle" x="1510.82" y="-343.5" font-family="Cascadia Code PL" font-size="10.00" fill="cyan">Align, Distribute</text>
</g>
<!-- C_PVW -->
<g id="node14" class="node">
<title>C_PVW</title>
<polygon fill="none" stroke="white" points="1435.82,-399.5 1313.82,-399.5 1313.82,-336.5 1435.82,-336.5 1435.82,-399.5"/>
<text text-anchor="middle" x="1374.82" y="-387.5" font-family="Cascadia Code PL" font-size="10.00" fill="cyan">Preview Submenu</text>
<text text-anchor="middle" x="1374.82" y="-376.5" font-family="Cascadia Code PL" font-size="10.00" fill="cyan">────────────</text>
<text text-anchor="middle" x="1374.82" y="-365.5" font-family="Cascadia Code PL" font-size="10.00" fill="cyan">pvwOpen = TRUE</text>
<text text-anchor="middle" x="1374.82" y="-354.5" font-family="Cascadia Code PL" font-size="10.00" fill="cyan">pvwHover = idx</text>
<text text-anchor="middle" x="1374.82" y="-343.5" font-family="Cascadia Code PL" font-size="10.00" fill="cyan">Mode, Recent Images</text>
</g>
<!-- C_PVW_RECENT -->
<g id="node15" class="node">
<title>C_PVW_RECENT</title>
<polygon fill="none" stroke="white" points="1443.32,-243 1306.32,-243 1306.32,-180 1443.32,-180 1443.32,-243"/>
<text text-anchor="middle" x="1374.82" y="-231" font-family="Cascadia Code PL" font-size="10.00" fill="cyan">PVW → Recent</text>
<text text-anchor="middle" x="1374.82" y="-220" font-family="Cascadia Code PL" font-size="10.00" fill="cyan">────────────</text>
<text text-anchor="middle" x="1374.82" y="-209" font-family="Cascadia Code PL" font-size="10.00" fill="cyan">pvwRecentOpen = TRUE</text>
<text text-anchor="middle" x="1374.82" y="-198" font-family="Cascadia Code PL" font-size="10.00" fill="cyan">pvwRecentHover = idx</text>
<text text-anchor="middle" x="1374.82" y="-187" font-family="Cascadia Code PL" font-size="10.00" fill="cyan">Nested level 3</text>
</g>
<!-- C_PVW&#45;&gt;C_PVW_RECENT -->
<g id="edge16" class="edge">
<title>C_PVW&#45;&gt;C_PVW_RECENT</title>
<path fill="none" stroke="#88aacc" d="M1374.82,-336.48C1374.82,-312.75 1374.82,-279.6 1374.82,-253.55"/>
<polygon fill="#88aacc" stroke="#88aacc" points="1378.32,-253.22 1374.82,-243.22 1371.32,-253.22 1378.32,-253.22"/>
<text text-anchor="middle" x="1413.82" y="-285.1" font-family="Cascadia Code PL" font-size="8.00" fill="#aaaaaa"> Hover Recent item</text>
</g>
<!-- C_EXPORT -->
<g id="node16" class="node">
<title>C_EXPORT</title>
<polygon fill="none" stroke="white" points="1295.32,-399.5 1174.32,-399.5 1174.32,-336.5 1295.32,-336.5 1295.32,-399.5"/>
<text text-anchor="middle" x="1234.82" y="-387.5" font-family="Cascadia Code PL" font-size="10.00" fill="cyan">Export As</text>
<text text-anchor="middle" x="1234.82" y="-376.5" font-family="Cascadia Code PL" font-size="10.00" fill="cyan">────────────</text>
<text text-anchor="middle" x="1234.82" y="-365.5" font-family="Cascadia Code PL" font-size="10.00" fill="cyan">exportOpen = TRUE</text>
<text text-anchor="middle" x="1234.82" y="-354.5" font-family="Cascadia Code PL" font-size="10.00" fill="cyan">exportHover = idx</text>
<text text-anchor="middle" x="1234.82" y="-343.5" font-family="Cascadia Code PL" font-size="10.00" fill="cyan">PNG / BMP / GIF / etc.</text>
</g>
<!-- C_EFFECTS -->
<g id="node17" class="node">
<title>C_EFFECTS</title>
<polygon fill="none" stroke="white" points="1156.32,-416 989.32,-416 989.32,-320 1156.32,-320 1156.32,-416"/>
<text text-anchor="middle" x="1072.82" y="-404" font-family="Cascadia Code PL" font-size="10.00" fill="cyan">EFFECTS Category Flyout</text>
<text text-anchor="middle" x="1072.82" y="-393" font-family="Cascadia Code PL" font-size="10.00" fill="cyan">────────────</text>
<text text-anchor="middle" x="1072.82" y="-382" font-family="Cascadia Code PL" font-size="10.00" fill="cyan">genOpen = TRUE (data&#45;driven)</text>
<text text-anchor="middle" x="1072.82" y="-371" font-family="Cascadia Code PL" font-size="10.00" fill="cyan">genParent = category row idx</text>
<text text-anchor="middle" x="1072.82" y="-360" font-family="Cascadia Code PL" font-size="10.00" fill="cyan">genHover = child idx</text>
<text text-anchor="middle" x="1072.82" y="-349" font-family="Cascadia Code PL" font-size="10.00" fill="cyan">ADJUST · STYLIZE · LAYER FX ·</text>
<text text-anchor="middle" x="1072.82" y="-338" font-family="Cascadia Code PL" font-size="10.00" fill="cyan">DISTORT · PIXELATE · NOISE ·</text>
<text text-anchor="middle" x="1072.82" y="-327" font-family="Cascadia Code PL" font-size="10.00" fill="cyan">RENDER · SHAPE · TEXTURE</text>
</g>
<!-- KB_SUB -->
<g id="node19" class="node">
<title>KB_SUB</title>
<polygon fill="none" stroke="white" points="2172.82,-254 2044.82,-254 2044.82,-169 2172.82,-169 2172.82,-254"/>
<text text-anchor="middle" x="2108.82" y="-242" font-family="Cascadia Code PL" font-size="10.00" fill="cyan">Submenu Level</text>
<text text-anchor="middle" x="2108.82" y="-231" font-family="Cascadia Code PL" font-size="10.00" fill="cyan">────────────</text>
<text text-anchor="middle" x="2108.82" y="-220" font-family="Cascadia Code PL" font-size="10.00" fill="cyan">↑ ↓ = Navigate items</text>
<text text-anchor="middle" x="2108.82" y="-209" font-family="Cascadia Code PL" font-size="10.00" fill="cyan">Enter = Execute action</text>
<text text-anchor="middle" x="2108.82" y="-198" font-family="Cascadia Code PL" font-size="10.00" fill="cyan">→ = Open cascade</text>
<text text-anchor="middle" x="2108.82" y="-187" font-family="Cascadia Code PL" font-size="10.00" fill="cyan">← = Close submenu</text>
<text text-anchor="middle" x="2108.82" y="-176" font-family="Cascadia Code PL" font-size="10.00" fill="cyan">Escape = Back to root</text>
</g>
<!-- KB_ROOT&#45;&gt;KB_SUB -->
<g id="edge17" class="edge">
<title>KB_ROOT&#45;&gt;KB_SUB</title>
<path fill="none" stroke="#66cc66" d="M2079.11,-336.47C2068.15,-317.97 2058.76,-293.82 2065.82,-272 2066.77,-269.06 2067.92,-266.15 2069.24,-263.28"/>
<polygon fill="#66cc66" stroke="#66cc66" points="2072.4,-264.79 2073.91,-254.3 2066.19,-261.56 2072.4,-264.79"/>
<text text-anchor="middle" x="2085.32" y="-285.1" font-family="Cascadia Code PL" font-size="8.00" fill="#aaaaaa"> Enter / ↓</text>
</g>
<!-- KB_SUB&#45;&gt;KB_ROOT -->
<g id="edge18" class="edge">
<title>KB_SUB&#45;&gt;KB_ROOT</title>
<path fill="none" stroke="#cc6666" stroke-dasharray="5,2" d="M2106.96,-254.39C2106.29,-269.41 2105.52,-286.46 2104.82,-302 2104.47,-309.77 2104.09,-318.06 2103.72,-326.03"/>
<polygon fill="#cc6666" stroke="#cc6666" points="2100.21,-326.1 2103.25,-336.25 2107.2,-326.42 2100.21,-326.1"/>
<text text-anchor="middle" x="2129.32" y="-285.1" font-family="Cascadia Code PL" font-size="8.00" fill="#aaaaaa"> ← / Escape</text>
</g>
<!-- KB_CASCADE -->
<g id="node20" class="node">
<title>KB_CASCADE</title>
<polygon fill="none" stroke="white" points="2184.82,-90 2034.82,-90 2034.82,-16 2184.82,-16 2184.82,-90"/>
<text text-anchor="middle" x="2109.82" y="-78" font-family="Cascadia Code PL" font-size="10.00" fill="cyan">Cascade Level</text>
<text text-anchor="middle" x="2109.82" y="-67" font-family="Cascadia Code PL" font-size="10.00" fill="cyan">────────────</text>
<text text-anchor="middle" x="2109.82" y="-56" font-family="Cascadia Code PL" font-size="10.00" fill="cyan">↑ ↓ = Navigate cascade</text>
<text text-anchor="middle" x="2109.82" y="-45" font-family="Cascadia Code PL" font-size="10.00" fill="cyan">Enter = Execute</text>
<text text-anchor="middle" x="2109.82" y="-34" font-family="Cascadia Code PL" font-size="10.00" fill="cyan">← = Close cascade</text>
<text text-anchor="middle" x="2109.82" y="-23" font-family="Cascadia Code PL" font-size="10.00" fill="cyan">Escape = Back to submenu</text>
</g>
<!-- KB_SUB&#45;&gt;KB_CASCADE -->
<g id="edge19" class="edge">
<title>KB_SUB&#45;&gt;KB_CASCADE</title>
<path fill="none" stroke="#66cc66" d="M2056.72,-168.9C2052.35,-163.35 2048.56,-157.36 2045.82,-151 2038.78,-134.67 2038.54,-127.22 2045.82,-111 2047.84,-106.49 2050.42,-102.18 2053.38,-98.11"/>
<polygon fill="#66cc66" stroke="#66cc66" points="2056.31,-100.05 2059.91,-90.09 2050.88,-95.63 2056.31,-100.05"/>
<text text-anchor="middle" x="2085.32" y="-129.1" font-family="Cascadia Code PL" font-size="8.00" fill="#aaaaaa"> → on cascade item</text>
</g>
<!-- KB_CASCADE&#45;&gt;KB_SUB -->
<g id="edge20" class="edge">
<title>KB_CASCADE&#45;&gt;KB_SUB</title>
<path fill="none" stroke="#cc6666" stroke-dasharray="5,2" d="M2120.84,-90.21C2122.49,-97.06 2123.94,-104.2 2124.82,-111 2127.1,-128.63 2127.15,-133.38 2124.82,-151 2124.47,-153.64 2124.04,-156.34 2123.54,-159.04"/>
<polygon fill="#cc6666" stroke="#cc6666" points="2120.11,-158.34 2121.5,-168.85 2126.96,-159.77 2120.11,-158.34"/>
<text text-anchor="middle" x="2149.32" y="-129.1" font-family="Cascadia Code PL" font-size="8.00" fill="#aaaaaa"> ← / Escape</text>
</g>
<!-- L1 -->
<g id="node21" class="node">
<title>L1</title>
<ellipse fill="white" stroke="white" cx="2502.82" cy="-538" rx="0.36" ry="0.36"/>
</g>
<!-- L2 -->
<g id="node22" class="node">
<title>L2</title>
<ellipse fill="white" stroke="white" cx="2502.82" cy="-368" rx="0.36" ry="0.36"/>
</g>
<!-- L1&#45;&gt;L2 -->
<g id="edge24" class="edge">
<title>L1&#45;&gt;L2</title>
<path fill="none" stroke="#66cc66" d="M2502.82,-536.88C2502.82,-532.57 2502.82,-415.41 2502.82,-379.42"/>
<polygon fill="#66cc66" stroke="#66cc66" points="2506.32,-379.12 2502.82,-369.12 2499.32,-379.12 2506.32,-379.12"/>
<text text-anchor="middle" x="2540.82" y="-484.8" font-family="Cascadia Code PL" font-size="9.00" fill="#aaaaaa"> Open / Navigate</text>
</g>
<!-- L3 -->
<g id="node23" class="node">
<title>L3</title>
<ellipse fill="white" stroke="white" cx="2426.82" cy="-538" rx="0.36" ry="0.36"/>
</g>
<!-- L4 -->
<g id="node24" class="node">
<title>L4</title>
<ellipse fill="white" stroke="white" cx="2426.82" cy="-368" rx="0.36" ry="0.36"/>
</g>
<!-- L3&#45;&gt;L4 -->
<g id="edge25" class="edge">
<title>L3&#45;&gt;L4</title>
<path fill="none" stroke="#cc6666" stroke-dasharray="5,2" d="M2426.82,-536.88C2426.82,-532.57 2426.82,-415.41 2426.82,-379.42"/>
<polygon fill="#cc6666" stroke="#cc6666" points="2430.32,-379.12 2426.82,-369.12 2423.32,-379.12 2430.32,-379.12"/>
<text text-anchor="middle" x="2453.32" y="-484.8" font-family="Cascadia Code PL" font-size="9.00" fill="#aaaaaa"> Close / Exit</text>
</g>
<!-- L5 -->
<g id="node25" class="node">
<title>L5</title>
<ellipse fill="white" stroke="white" cx="2331.82" cy="-538" rx="0.36" ry="0.36"/>
</g>
<!-- L6 -->
<g id="node26" class="node">
<title>L6</title>
<ellipse fill="white" stroke="white" cx="2331.82" cy="-368" rx="0.36" ry="0.36"/>
</g>
<!-- L5&#45;&gt;L6 -->
<g id="edge26" class="edge">
<title>L5&#45;&gt;L6</title>
<path fill="none" stroke="#cccc66" d="M2331.82,-536.88C2331.82,-532.57 2331.82,-415.41 2331.82,-379.42"/>
<polygon fill="#cccc66" stroke="#cccc66" points="2335.32,-379.12 2331.82,-369.12 2328.32,-379.12 2335.32,-379.12"/>
<text text-anchor="middle" x="2367.82" y="-484.8" font-family="Cascadia Code PL" font-size="9.00" fill="#aaaaaa"> Execute Action</text>
</g>
<!-- L7 -->
<g id="node27" class="node">
<title>L7</title>
<ellipse fill="white" stroke="white" cx="2235.82" cy="-538" rx="0.36" ry="0.36"/>
</g>
<!-- L8 -->
<g id="node28" class="node">
<title>L8</title>
<ellipse fill="white" stroke="white" cx="2235.82" cy="-368" rx="0.36" ry="0.36"/>
</g>
<!-- L7&#45;&gt;L8 -->
<g id="edge27" class="edge">
<title>L7&#45;&gt;L8</title>
<path fill="none" stroke="#6699ff" d="M2235.82,-536.88C2235.82,-532.57 2235.82,-415.41 2235.82,-379.42"/>
<polygon fill="#6699ff" stroke="#6699ff" points="2239.32,-379.12 2235.82,-369.12 2232.32,-379.12 2239.32,-379.12"/>
<text text-anchor="middle" x="2272.32" y="-484.8" font-family="Cascadia Code PL" font-size="9.00" fill="#aaaaaa"> Keyboard Entry</text>
</g>
</g>
</svg>
