<?xml version="1.0" encoding="UTF-8" standalone="no"?>
<!DOCTYPE svg PUBLIC "-//W3C//DTD SVG 1.1//EN"
 "http://www.w3.org/Graphics/SVG/1.1/DTD/svg11.dtd">
<!-- Generated by graphviz version 2.42.4 (0)
 -->
<!-- Title: ORGANIZER Pages: 1 -->
<svg width="2288pt" height="475pt"
 viewBox="0.00 0.00 2288.00 475.36" xmlns="http://www.w3.org/2000/svg" xmlns:xlink="http://www.w3.org/1999/xlink">
<g id="graph0" class="graph" transform="scale(1 1) rotate(0) translate(4 471.36)">
<title>ORGANIZER</title>
<text text-anchor="middle" x="1140" y="-444.16" font-family="Cascadia Code PL" font-size="24.00" fill="white">ORGANIZER STATE MACHINE</text>
<g id="clust4" class="cluster">
<title>cluster_legend</title>
<polygon fill="transparent" stroke="white" stroke-dasharray="5,2" points="2029,-269.64 2029,-425.36 2272,-425.36 2272,-269.64 2029,-269.64"/>
<text text-anchor="middle" x="2057" y="-412.56" font-family="Cascadia Code PL" font-size="11.00" fill="white">LEGEND</text>
</g>
<g id="clust2" class="cluster">
<title>cluster_widgets</title>
<polygon fill="transparent" stroke="orange" stroke-dasharray="5,2" points="339,-233 339,-343 2021,-343 2021,-233 339,-233"/>
<text text-anchor="middle" x="433" y="-330.2" font-family="Cascadia Code PL" font-size="11.00" fill="orange">ORGANIZER WIDGETS — 4×3 GRID</text>
</g>
<!-- MAIN -->
<g id="node1" class="node">
<title>MAIN</title>
<polygon fill="none" stroke="orange" stroke-width="2" points="292,-415 289,-419 268,-419 265,-415 198,-415 198,-379 292,-379 292,-415"/>
<text text-anchor="middle" x="245" y="-393.6" font-family="Cascadia Code PL" font-size="13.00" fill="orange">MAIN STATES</text>
</g>
<!-- S_VISIBLE -->
<g id="node3" class="node">
<title>S_VISIBLE</title>
<polygon fill="none" stroke="white" points="329,-318 161,-318 161,-238 329,-238 329,-318"/>
<text text-anchor="middle" x="245" y="-305.2" font-family="Cascadia Code PL" font-size="11.00" fill="cyan">1 · VISIBLE</text>
<text text-anchor="middle" x="245" y="-293.2" font-family="Cascadia Code PL" font-size="11.00" fill="cyan">─────────────────</text>
<text text-anchor="middle" x="245" y="-281.2" font-family="Cascadia Code PL" font-size="11.00" fill="cyan">SCRN.showOrganizer% = TRUE</text>
<text text-anchor="middle" x="245" y="-269.2" font-family="Cascadia Code PL" font-size="11.00" fill="cyan">4×3 grid of icon buttons</text>
<text text-anchor="middle" x="245" y="-257.2" font-family="Cascadia Code PL" font-size="11.00" fill="cyan">11 functional widgets</text>
<text text-anchor="middle" x="245" y="-245.2" font-family="Cascadia Code PL" font-size="11.00" fill="cyan">Renders below toolbar</text>
</g>
<!-- MAIN&#45;&gt;S_VISIBLE -->
<g id="edge8" class="edge">
<title>MAIN&#45;&gt;S_VISIBLE</title>
<path fill="none" stroke="#555555" stroke-dasharray="1,5" d="M245,-378.99C245,-363.14 245,-338.93 245,-318.3"/>
</g>
<!-- WIDGETS -->
<g id="node2" class="node">
<title>WIDGETS</title>
<polygon fill="none" stroke="orange" stroke-width="2" points="2019,-415 2016,-419 1995,-419 1992,-415 1897,-415 1897,-379 2019,-379 2019,-415"/>
<text text-anchor="middle" x="1958" y="-393.6" font-family="Cascadia Code PL" font-size="13.00" fill="orange">WIDGET TOGGLES</text>
</g>
<!-- W_GRID -->
<g id="node7" class="node">
<title>W_GRID</title>
<polygon fill="none" stroke="white" points="2013,-309.5 1903,-309.5 1903,-246.5 2013,-246.5 2013,-309.5"/>
<text text-anchor="middle" x="1958" y="-297.5" font-family="Cascadia Code PL" font-size="10.00" fill="cyan">Grid Toggle</text>
<text text-anchor="middle" x="1958" y="-286.5" font-family="Cascadia Code PL" font-size="10.00" fill="cyan">────────────</text>
<text text-anchor="middle" x="1958" y="-275.5" font-family="Cascadia Code PL" font-size="10.00" fill="cyan">ON: Grid visible</text>
<text text-anchor="middle" x="1958" y="-264.5" font-family="Cascadia Code PL" font-size="10.00" fill="cyan">OFF: Grid hidden</text>
<text text-anchor="middle" x="1958" y="-253.5" font-family="Cascadia Code PL" font-size="10.00" fill="cyan">Icon: grid&#45;on/off.png</text>
</g>
<!-- WIDGETS&#45;&gt;W_GRID -->
<g id="edge9" class="edge">
<title>WIDGETS&#45;&gt;W_GRID</title>
<path fill="none" stroke="#555555" stroke-dasharray="1,5" d="M1958,-378.99C1958,-369.23 1958,-356.31 1958,-343"/>
</g>
<!-- S_HIDDEN -->
<g id="node4" class="node">
<title>S_HIDDEN</title>
<polygon fill="none" stroke="white" points="182,-182 0,-182 0,-114 182,-114 182,-182"/>
<text text-anchor="middle" x="91" y="-169.2" font-family="Cascadia Code PL" font-size="11.00" fill="cyan">2 · HIDDEN</text>
<text text-anchor="middle" x="91" y="-157.2" font-family="Cascadia Code PL" font-size="11.00" fill="cyan">─────────────────</text>
<text text-anchor="middle" x="91" y="-145.2" font-family="Cascadia Code PL" font-size="11.00" fill="cyan">SCRN.showOrganizer% = FALSE</text>
<text text-anchor="middle" x="91" y="-133.2" font-family="Cascadia Code PL" font-size="11.00" fill="cyan">SCRN.organizerManuallyHidden%</text>
<text text-anchor="middle" x="91" y="-121.2" font-family="Cascadia Code PL" font-size="11.00" fill="cyan">Toggle via F4 / menu</text>
</g>
<!-- S_VISIBLE&#45;&gt;S_HIDDEN -->
<g id="edge1" class="edge">
<title>S_VISIBLE&#45;&gt;S_HIDDEN</title>
<path fill="none" stroke="#cc6666" stroke-dasharray="5,2" d="M160.9,-263.17C113.59,-253.48 61.23,-238.9 47,-220 40.12,-210.86 41.66,-200.61 47.08,-190.8"/>
<polygon fill="#cc6666" stroke="#cc6666" points="50.09,-192.6 52.73,-182.34 44.27,-188.71 50.09,-192.6"/>
<text text-anchor="middle" x="101.5" y="-212.8" font-family="Cascadia Code PL" font-size="9.00" fill="#aaaaaa"> &#160;F4 / Menu toggle</text>
<text text-anchor="middle" x="101.5" y="-202.8" font-family="Cascadia Code PL" font-size="9.00" fill="#aaaaaa"> &#160;ManuallyHidden% = TRUE</text>
</g>
<!-- S_HOVER -->
<g id="node5" class="node">
<title>S_HOVER</title>
<polygon fill="none" stroke="white" points="372,-182 236,-182 236,-114 372,-114 372,-182"/>
<text text-anchor="middle" x="304" y="-169.2" font-family="Cascadia Code PL" font-size="11.00" fill="cyan">3 · BUTTON HOVER</text>
<text text-anchor="middle" x="304" y="-157.2" font-family="Cascadia Code PL" font-size="11.00" fill="cyan">─────────────────</text>
<text text-anchor="middle" x="304" y="-145.2" font-family="Cascadia Code PL" font-size="11.00" fill="cyan">Mouse over widget icon</text>
<text text-anchor="middle" x="304" y="-133.2" font-family="Cascadia Code PL" font-size="11.00" fill="cyan">Tooltip queued</text>
<text text-anchor="middle" x="304" y="-121.2" font-family="Cascadia Code PL" font-size="11.00" fill="cyan">Highlight rendered</text>
</g>
<!-- S_VISIBLE&#45;&gt;S_HOVER -->
<g id="edge3" class="edge">
<title>S_VISIBLE&#45;&gt;S_HOVER</title>
<path fill="none" stroke="#88aacc" d="M280.6,-237.87C284.57,-232.16 288.19,-226.13 291,-220 294.95,-211.38 297.7,-201.66 299.62,-192.24"/>
<polygon fill="#88aacc" stroke="#88aacc" points="303.1,-192.65 301.39,-182.2 296.21,-191.44 303.1,-192.65"/>
<text text-anchor="middle" x="333.5" y="-207.8" font-family="Cascadia Code PL" font-size="9.00" fill="#aaaaaa"> &#160;Mouse over icon</text>
</g>
<!-- S_HIDDEN&#45;&gt;S_VISIBLE -->
<g id="edge2" class="edge">
<title>S_HIDDEN&#45;&gt;S_VISIBLE</title>
<path fill="none" stroke="#66cc66" d="M135.08,-182.16C142.22,-187.94 149.42,-194.02 156,-200 165.07,-208.25 166.01,-211.67 175,-220 179.02,-223.73 183.26,-227.5 187.56,-231.24"/>
<polygon fill="#66cc66" stroke="#66cc66" points="185.5,-234.08 195.37,-237.91 190.04,-228.75 185.5,-234.08"/>
<text text-anchor="middle" x="231" y="-212.8" font-family="Cascadia Code PL" font-size="9.00" fill="#aaaaaa"> &#160;F4 / Menu toggle</text>
<text text-anchor="middle" x="231" y="-202.8" font-family="Cascadia Code PL" font-size="9.00" fill="#aaaaaa"> &#160;ManuallyHidden% = FALSE</text>
</g>
<!-- S_CLICK -->
<g id="node6" class="node">
<title>S_CLICK</title>
<polygon fill="none" stroke="white" points="409.5,-68 302.5,-68 302.5,0 409.5,0 409.5,-68"/>
<text text-anchor="middle" x="356" y="-55.2" font-family="Cascadia Code PL" font-size="11.00" fill="cyan">4 · BUTTON CLICK</text>
<text text-anchor="middle" x="356" y="-43.2" font-family="Cascadia Code PL" font-size="11.00" fill="cyan">─────────────────</text>
<text text-anchor="middle" x="356" y="-31.2" font-family="Cascadia Code PL" font-size="11.00" fill="cyan">Widget toggled</text>
<text text-anchor="middle" x="356" y="-19.2" font-family="Cascadia Code PL" font-size="11.00" fill="cyan">State icon updates</text>
<text text-anchor="middle" x="356" y="-7.2" font-family="Cascadia Code PL" font-size="11.00" fill="cyan">Action dispatched</text>
</g>
<!-- S_HOVER&#45;&gt;S_CLICK -->
<g id="edge4" class="edge">
<title>S_HOVER&#45;&gt;S_CLICK</title>
<path fill="none" stroke="#66cc66" d="M319.46,-113.7C324.71,-102.4 330.64,-89.63 336.17,-77.7"/>
<polygon fill="#66cc66" stroke="#66cc66" points="339.47,-78.91 340.51,-68.37 333.12,-75.96 339.47,-78.91"/>
<text text-anchor="middle" x="348.5" y="-88.8" font-family="Cascadia Code PL" font-size="9.00" fill="#aaaaaa"> &#160;B1 click</text>
</g>
<!-- S_CLICK&#45;&gt;S_VISIBLE -->
<g id="edge5" class="edge">
<title>S_CLICK&#45;&gt;S_VISIBLE</title>
<path fill="none" stroke="#cccc66" d="M372.16,-68.26C389.45,-109.22 409.76,-178.45 373,-220 361.17,-233.37 351.49,-226.18 335,-233 334.42,-233.24 333.84,-233.48 333.26,-233.72"/>
<polygon fill="#cccc66" stroke="#cccc66" points="331.57,-230.64 323.76,-237.8 334.33,-237.07 331.57,-230.64"/>
<text text-anchor="middle" x="426.5" y="-145.8" font-family="Cascadia Code PL" font-size="9.00" fill="#aaaaaa"> &#160;Widget toggled</text>
</g>
<!-- W_SNAP -->
<g id="node8" class="node">
<title>W_SNAP</title>
<polygon fill="none" stroke="white" points="1805.5,-309.5 1680.5,-309.5 1680.5,-246.5 1805.5,-246.5 1805.5,-309.5"/>
<text text-anchor="middle" x="1743" y="-297.5" font-family="Cascadia Code PL" font-size="10.00" fill="cyan">Grid Snap</text>
<text text-anchor="middle" x="1743" y="-286.5" font-family="Cascadia Code PL" font-size="10.00" fill="cyan">────────────</text>
<text text-anchor="middle" x="1743" y="-275.5" font-family="Cascadia Code PL" font-size="10.00" fill="cyan">3 modes cycle:</text>
<text text-anchor="middle" x="1743" y="-264.5" font-family="Cascadia Code PL" font-size="10.00" fill="cyan">OFF → Corner → Center</text>
<text text-anchor="middle" x="1743" y="-253.5" font-family="Cascadia Code PL" font-size="10.00" fill="cyan">Snap affects MOUSE.X/Y</text>
</g>
<!-- W_SNAP&#45;&gt;W_SNAP -->
<g id="edge6" class="edge">
<title>W_SNAP&#45;&gt;W_SNAP</title>
<path fill="none" stroke="#88aacc" d="M1805.78,-289.85C1816.26,-288.19 1823.5,-284.24 1823.5,-278 1823.5,-274 1820.53,-270.94 1815.64,-268.83"/>
<polygon fill="#88aacc" stroke="#88aacc" points="1816.35,-265.39 1805.78,-266.15 1814.51,-272.15 1816.35,-265.39"/>
<text text-anchor="middle" x="1854" y="-285.1" font-family="Cascadia Code PL" font-size="8.00" fill="#aaaaaa"> Click cycles:</text>
<text text-anchor="middle" x="1854" y="-276.1" font-family="Cascadia Code PL" font-size="8.00" fill="#aaaaaa"> OFF → Corner →</text>
<text text-anchor="middle" x="1854" y="-267.1" font-family="Cascadia Code PL" font-size="8.00" fill="#aaaaaa"> Center → OFF</text>
</g>
<!-- W_PIXEL -->
<g id="node9" class="node">
<title>W_PIXEL</title>
<polygon fill="none" stroke="white" points="1662.5,-309.5 1533.5,-309.5 1533.5,-246.5 1662.5,-246.5 1662.5,-309.5"/>
<text text-anchor="middle" x="1598" y="-297.5" font-family="Cascadia Code PL" font-size="10.00" fill="cyan">Pixel Grid</text>
<text text-anchor="middle" x="1598" y="-286.5" font-family="Cascadia Code PL" font-size="10.00" fill="cyan">────────────</text>
<text text-anchor="middle" x="1598" y="-275.5" font-family="Cascadia Code PL" font-size="10.00" fill="cyan">ON: 1px grid at zoom</text>
<text text-anchor="middle" x="1598" y="-264.5" font-family="Cascadia Code PL" font-size="10.00" fill="cyan">OFF: No pixel grid</text>
<text text-anchor="middle" x="1598" y="-253.5" font-family="Cascadia Code PL" font-size="10.00" fill="cyan">Only visible at zoom ≥ 4x</text>
</g>
<!-- W_CROSSHAIR -->
<g id="node10" class="node">
<title>W_CROSSHAIR</title>
<polygon fill="none" stroke="white" points="1515.5,-309.5 1404.5,-309.5 1404.5,-246.5 1515.5,-246.5 1515.5,-309.5"/>
<text text-anchor="middle" x="1460" y="-297.5" font-family="Cascadia Code PL" font-size="10.00" fill="cyan">Crosshair</text>
<text text-anchor="middle" x="1460" y="-286.5" font-family="Cascadia Code PL" font-size="10.00" fill="cyan">────────────</text>
<text text-anchor="middle" x="1460" y="-275.5" font-family="Cascadia Code PL" font-size="10.00" fill="cyan">ON: Axis lines drawn</text>
<text text-anchor="middle" x="1460" y="-264.5" font-family="Cascadia Code PL" font-size="10.00" fill="cyan">OFF: No crosshair</text>
<text text-anchor="middle" x="1460" y="-253.5" font-family="Cascadia Code PL" font-size="10.00" fill="cyan">Shift = temporary on</text>
</g>
<!-- W_SYMMETRY -->
<g id="node11" class="node">
<title>W_SYMMETRY</title>
<polygon fill="none" stroke="white" points="1280.5,-315 1175.5,-315 1175.5,-241 1280.5,-241 1280.5,-315"/>
<text text-anchor="middle" x="1228" y="-303" font-family="Cascadia Code PL" font-size="10.00" fill="cyan">Symmetry Mode</text>
<text text-anchor="middle" x="1228" y="-292" font-family="Cascadia Code PL" font-size="10.00" fill="cyan">────────────</text>
<text text-anchor="middle" x="1228" y="-281" font-family="Cascadia Code PL" font-size="10.00" fill="cyan">4 modes cycle:</text>
<text text-anchor="middle" x="1228" y="-270" font-family="Cascadia Code PL" font-size="10.00" fill="cyan">OFF → Vertical →</text>
<text text-anchor="middle" x="1228" y="-259" font-family="Cascadia Code PL" font-size="10.00" fill="cyan">Cross → Asterisk</text>
<text text-anchor="middle" x="1228" y="-248" font-family="Cascadia Code PL" font-size="10.00" fill="cyan">Scroll Lock = toggle</text>
</g>
<!-- W_SYMMETRY&#45;&gt;W_SYMMETRY -->
<g id="edge7" class="edge">
<title>W_SYMMETRY&#45;&gt;W_SYMMETRY</title>
<path fill="none" stroke="#88aacc" d="M1280.58,-290.22C1291.04,-288.85 1298.5,-284.77 1298.5,-278 1298.5,-273.66 1295.44,-270.43 1290.49,-268.31"/>
<polygon fill="#88aacc" stroke="#88aacc" points="1291.13,-264.86 1280.58,-265.78 1289.4,-271.64 1291.13,-264.86"/>
<text text-anchor="middle" x="1342.5" y="-285.1" font-family="Cascadia Code PL" font-size="8.00" fill="#aaaaaa"> Click cycles:</text>
<text text-anchor="middle" x="1342.5" y="-276.1" font-family="Cascadia Code PL" font-size="8.00" fill="#aaaaaa"> OFF → V&#45;Mirror →</text>
<text text-anchor="middle" x="1342.5" y="-267.1" font-family="Cascadia Code PL" font-size="8.00" fill="#aaaaaa"> Cross → Asterisk → OFF</text>
</g>
<!-- W_PATTERN -->
<g id="node12" class="node">
<title>W_PATTERN</title>
<polygon fill="none" stroke="white" points="1157,-309.5 1029,-309.5 1029,-246.5 1157,-246.5 1157,-309.5"/>
<text text-anchor="middle" x="1093" y="-297.5" font-family="Cascadia Code PL" font-size="10.00" fill="cyan">Pattern Mode</text>
<text text-anchor="middle" x="1093" y="-286.5" font-family="Cascadia Code PL" font-size="10.00" fill="cyan">────────────</text>
<text text-anchor="middle" x="1093" y="-275.5" font-family="Cascadia Code PL" font-size="10.00" fill="cyan">ON: Draw with pattern</text>
<text text-anchor="middle" x="1093" y="-264.5" font-family="Cascadia Code PL" font-size="10.00" fill="cyan">OFF: Solid color</text>
<text text-anchor="middle" x="1093" y="-253.5" font-family="Cascadia Code PL" font-size="10.00" fill="cyan">Uses drawer slot pattern</text>
</g>
<!-- W_GRADIENT -->
<g id="node13" class="node">
<title>W_GRADIENT</title>
<polygon fill="none" stroke="white" points="1010.5,-309.5 877.5,-309.5 877.5,-246.5 1010.5,-246.5 1010.5,-309.5"/>
<text text-anchor="middle" x="944" y="-297.5" font-family="Cascadia Code PL" font-size="10.00" fill="cyan">Gradient Mode</text>
<text text-anchor="middle" x="944" y="-286.5" font-family="Cascadia Code PL" font-size="10.00" fill="cyan">────────────</text>
<text text-anchor="middle" x="944" y="-275.5" font-family="Cascadia Code PL" font-size="10.00" fill="cyan">ON: Draw with gradient</text>
<text text-anchor="middle" x="944" y="-264.5" font-family="Cascadia Code PL" font-size="10.00" fill="cyan">OFF: Solid color</text>
<text text-anchor="middle" x="944" y="-253.5" font-family="Cascadia Code PL" font-size="10.00" fill="cyan">Uses drawer slot gradient</text>
</g>
<!-- W_DITHER -->
<g id="node14" class="node">
<title>W_DITHER</title>
<polygon fill="none" stroke="white" points="859,-309.5 725,-309.5 725,-246.5 859,-246.5 859,-309.5"/>
<text text-anchor="middle" x="792" y="-297.5" font-family="Cascadia Code PL" font-size="10.00" fill="cyan">Dither Toggle</text>
<text text-anchor="middle" x="792" y="-286.5" font-family="Cascadia Code PL" font-size="10.00" fill="cyan">────────────</text>
<text text-anchor="middle" x="792" y="-275.5" font-family="Cascadia Code PL" font-size="10.00" fill="cyan">ON: Dithered drawing</text>
<text text-anchor="middle" x="792" y="-264.5" font-family="Cascadia Code PL" font-size="10.00" fill="cyan">OFF: Clean drawing</text>
<text text-anchor="middle" x="792" y="-253.5" font-family="Cascadia Code PL" font-size="10.00" fill="cyan">Algorithm per drawer slot</text>
</g>
<!-- W_PREVIEW -->
<g id="node15" class="node">
<title>W_PREVIEW</title>
<polygon fill="none" stroke="white" points="707,-309.5 599,-309.5 599,-246.5 707,-246.5 707,-309.5"/>
<text text-anchor="middle" x="653" y="-297.5" font-family="Cascadia Code PL" font-size="10.00" fill="cyan">Preview Window</text>
<text text-anchor="middle" x="653" y="-286.5" font-family="Cascadia Code PL" font-size="10.00" fill="cyan">────────────</text>
<text text-anchor="middle" x="653" y="-275.5" font-family="Cascadia Code PL" font-size="10.00" fill="cyan">ON: Preview visible</text>
<text text-anchor="middle" x="653" y="-264.5" font-family="Cascadia Code PL" font-size="10.00" fill="cyan">OFF: Preview hidden</text>
<text text-anchor="middle" x="653" y="-253.5" font-family="Cascadia Code PL" font-size="10.00" fill="cyan">F7 = toggle</text>
</g>
<!-- W_TILE -->
<g id="node16" class="node">
<title>W_TILE</title>
<polygon fill="none" stroke="white" points="580.5,-309.5 465.5,-309.5 465.5,-246.5 580.5,-246.5 580.5,-309.5"/>
<text text-anchor="middle" x="523" y="-297.5" font-family="Cascadia Code PL" font-size="10.00" fill="cyan">Tile Mode</text>
<text text-anchor="middle" x="523" y="-286.5" font-family="Cascadia Code PL" font-size="10.00" fill="cyan">────────────</text>
<text text-anchor="middle" x="523" y="-275.5" font-family="Cascadia Code PL" font-size="10.00" fill="cyan">ON: Canvas tiles</text>
<text text-anchor="middle" x="523" y="-264.5" font-family="Cascadia Code PL" font-size="10.00" fill="cyan">OFF: Normal view</text>
<text text-anchor="middle" x="523" y="-253.5" font-family="Cascadia Code PL" font-size="10.00" fill="cyan">For seamless patterns</text>
</g>
<!-- W_REFIMG -->
<g id="node17" class="node">
<title>W_REFIMG</title>
<polygon fill="none" stroke="white" points="447,-309.5 347,-309.5 347,-246.5 447,-246.5 447,-309.5"/>
<text text-anchor="middle" x="397" y="-297.5" font-family="Cascadia Code PL" font-size="10.00" fill="cyan">Reference Image</text>
<text text-anchor="middle" x="397" y="-286.5" font-family="Cascadia Code PL" font-size="10.00" fill="cyan">────────────</text>
<text text-anchor="middle" x="397" y="-275.5" font-family="Cascadia Code PL" font-size="10.00" fill="cyan">ON: Ref visible</text>
<text text-anchor="middle" x="397" y="-264.5" font-family="Cascadia Code PL" font-size="10.00" fill="cyan">OFF: Ref hidden</text>
<text text-anchor="middle" x="397" y="-253.5" font-family="Cascadia Code PL" font-size="10.00" fill="cyan">Overlay for tracing</text>
</g>
<!-- L1 -->
<g id="node18" class="node">
<title>L1</title>
<ellipse fill="white" stroke="white" cx="2205" cy="-397" rx="0.36" ry="0.36"/>
</g>
<!-- L2 -->
<g id="node19" class="node">
<title>L2</title>
<ellipse fill="white" stroke="white" cx="2205" cy="-278" rx="0.36" ry="0.36"/>
</g>
<!-- L1&#45;&gt;L2 -->
<g id="edge10" class="edge">
<title>L1&#45;&gt;L2</title>
<path fill="none" stroke="#66cc66" d="M2205,-395.92C2205,-393.03 2205,-317.15 2205,-289.21"/>
<polygon fill="#66cc66" stroke="#66cc66" points="2208.5,-289.08 2205,-279.08 2201.5,-289.08 2208.5,-289.08"/>
<text text-anchor="middle" x="2234.5" y="-353.8" font-family="Cascadia Code PL" font-size="9.00" fill="#aaaaaa"> Show / Enable</text>
</g>
<!-- L3 -->
<g id="node20" class="node">
<title>L3</title>
<ellipse fill="white" stroke="white" cx="2124" cy="-397" rx="0.36" ry="0.36"/>
</g>
<!-- L4 -->
<g id="node21" class="node">
<title>L4</title>
<ellipse fill="white" stroke="white" cx="2124" cy="-278" rx="0.36" ry="0.36"/>
</g>
<!-- L3&#45;&gt;L4 -->
<g id="edge11" class="edge">
<title>L3&#45;&gt;L4</title>
<path fill="none" stroke="#cc6666" stroke-dasharray="5,2" d="M2124,-395.92C2124,-393.03 2124,-317.15 2124,-289.21"/>
<polygon fill="#cc6666" stroke="#cc6666" points="2127.5,-289.08 2124,-279.08 2120.5,-289.08 2127.5,-289.08"/>
<text text-anchor="middle" x="2153" y="-353.8" font-family="Cascadia Code PL" font-size="9.00" fill="#aaaaaa"> Hide / Disable</text>
</g>
<!-- L5 -->
<g id="node22" class="node">
<title>L5</title>
<ellipse fill="white" stroke="white" cx="2055" cy="-397" rx="0.36" ry="0.36"/>
</g>
<!-- L6 -->
<g id="node23" class="node">
<title>L6</title>
<ellipse fill="white" stroke="white" cx="2055" cy="-278" rx="0.36" ry="0.36"/>
</g>
<!-- L5&#45;&gt;L6 -->
<g id="edge12" class="edge">
<title>L5&#45;&gt;L6</title>
<path fill="none" stroke="#88aacc" d="M2055,-395.92C2055,-393.03 2055,-317.15 2055,-289.21"/>
<polygon fill="#88aacc" stroke="#88aacc" points="2058.5,-289.08 2055,-279.08 2051.5,-289.08 2058.5,-289.08"/>
<text text-anchor="middle" x="2078" y="-353.8" font-family="Cascadia Code PL" font-size="9.00" fill="#aaaaaa"> Cycle State</text>
</g>
</g>
</svg>
