<?xml version="1.0" encoding="UTF-8" standalone="no"?>
<!DOCTYPE svg PUBLIC "-//W3C//DTD SVG 1.1//EN"
 "http://www.w3.org/Graphics/SVG/1.1/DTD/svg11.dtd">
<!-- Generated by graphviz version 2.42.4 (0)
 -->
<!-- Title: PALETTE_OPS Pages: 1 -->
<svg width="2080pt" height="665pt"
 viewBox="0.00 0.00 2080.00 665.00" xmlns="http://www.w3.org/2000/svg" xmlns:xlink="http://www.w3.org/1999/xlink">
<g id="graph0" class="graph" transform="scale(1 1) rotate(0) translate(4 661)">
<title>PALETTE_OPS</title>
<text text-anchor="middle" x="1036" y="-633.8" font-family="Cascadia Code PL" font-size="24.00" fill="white">PALETTE OPS STATE MACHINE</text>
<g id="clust2" class="cluster">
<title>cluster_doc</title>
<polygon fill="transparent" stroke="orange" stroke-dasharray="5,2" points="1022,-516 1022,-615 1382,-615 1382,-516 1022,-516"/>
<text text-anchor="middle" x="1084.5" y="-602.2" font-family="Cascadia Code PL" font-size="11.00" fill="orange">[DOCUMENT] PALETTE</text>
</g>
<g id="clust3" class="cluster">
<title>cluster_actions</title>
<polygon fill="transparent" stroke="orange" stroke-dasharray="5,2" points="1390,-521.5 1390,-609.5 1888,-609.5 1888,-521.5 1390,-521.5"/>
<text text-anchor="middle" x="1432.5" y="-596.7" font-family="Cascadia Code PL" font-size="11.00" fill="orange">OPS ACTIONS</text>
</g>
<g id="clust5" class="cluster">
<title>cluster_legend</title>
<polygon fill="transparent" stroke="white" stroke-dasharray="5,2" points="1896,-435.64 1896,-583.86 2064,-583.86 2064,-435.64 1896,-435.64"/>
<text text-anchor="middle" x="1924" y="-571.06" font-family="Cascadia Code PL" font-size="11.00" fill="white">LEGEND</text>
</g>
<!-- MAIN -->
<g id="node1" class="node">
<title>MAIN</title>
<polygon fill="none" stroke="orange" stroke-width="2" points="1011,-573.5 1008,-577.5 987,-577.5 984,-573.5 789,-573.5 789,-537.5 1011,-537.5 1011,-573.5"/>
<text text-anchor="middle" x="900" y="-552.1" font-family="Cascadia Code PL" font-size="13.00" fill="orange">PALETTE OPS — ON&#45;STRIP EDITING</text>
</g>
<!-- S_NORMAL -->
<g id="node2" class="node">
<title>S_NORMAL</title>
<polygon fill="none" stroke="white" points="982,-478 818,-478 818,-410 982,-410 982,-478"/>
<text text-anchor="middle" x="900" y="-465.2" font-family="Cascadia Code PL" font-size="11.00" fill="cyan">1 · NORMAL MODE</text>
<text text-anchor="middle" x="900" y="-453.2" font-family="Cascadia Code PL" font-size="11.00" fill="cyan">─────────────────</text>
<text text-anchor="middle" x="900" y="-441.2" font-family="Cascadia Code PL" font-size="11.00" fill="cyan">PALETTE_OPS.active% = FALSE</text>
<text text-anchor="middle" x="900" y="-429.2" font-family="Cascadia Code PL" font-size="11.00" fill="cyan">Click = pick FG/BG color</text>
<text text-anchor="middle" x="900" y="-417.2" font-family="Cascadia Code PL" font-size="11.00" fill="cyan">Standard palette behavior</text>
</g>
<!-- MAIN&#45;&gt;S_NORMAL -->
<g id="edge15" class="edge">
<title>MAIN&#45;&gt;S_NORMAL</title>
<path fill="none" stroke="#555555" stroke-dasharray="1,5" d="M900,-537.39C900,-521.63 900,-497.81 900,-478.3"/>
</g>
<!-- S_ENTERING -->
<g id="node3" class="node">
<title>S_ENTERING</title>
<polygon fill="none" stroke="white" points="856.5,-364 709.5,-364 709.5,-272 856.5,-272 856.5,-364"/>
<text text-anchor="middle" x="783" y="-351.2" font-family="Cascadia Code PL" font-size="11.00" fill="cyan">2 · ENTERING OPS</text>
<text text-anchor="middle" x="783" y="-339.2" font-family="Cascadia Code PL" font-size="11.00" fill="cyan">─────────────────</text>
<text text-anchor="middle" x="783" y="-327.2" font-family="Cascadia Code PL" font-size="11.00" fill="cyan">User toggled Ops mode</text>
<text text-anchor="middle" x="783" y="-315.2" font-family="Cascadia Code PL" font-size="11.00" fill="cyan">If no [DOCUMENT] palette,</text>
<text text-anchor="middle" x="783" y="-303.2" font-family="Cascadia Code PL" font-size="11.00" fill="cyan">auto&#45;clone current →</text>
<text text-anchor="middle" x="783" y="-291.2" font-family="Cascadia Code PL" font-size="11.00" fill="cyan">[DOCUMENT]</text>
<text text-anchor="middle" x="783" y="-279.2" font-family="Cascadia Code PL" font-size="11.00" fill="cyan">Snapshot saved</text>
</g>
<!-- S_NORMAL&#45;&gt;S_ENTERING -->
<g id="edge1" class="edge">
<title>S_NORMAL&#45;&gt;S_ENTERING</title>
<path fill="none" stroke="#66cc66" d="M868.65,-409.77C857.67,-398.14 845.05,-384.77 832.94,-371.93"/>
<polygon fill="#66cc66" stroke="#66cc66" points="835.29,-369.32 825.88,-364.44 830.2,-374.12 835.29,-369.32"/>
<text text-anchor="middle" x="894.5" y="-384.8" font-family="Cascadia Code PL" font-size="9.00" fill="#aaaaaa"> &#160;Ops mode toggled on</text>
</g>
<!-- S_OPS_IDLE -->
<g id="node4" class="node">
<title>S_OPS_IDLE</title>
<polygon fill="none" stroke="white" points="587.5,-216 426.5,-216 426.5,-136 587.5,-136 587.5,-216"/>
<text text-anchor="middle" x="507" y="-203.2" font-family="Cascadia Code PL" font-size="11.00" fill="cyan">3 · OPS IDLE</text>
<text text-anchor="middle" x="507" y="-191.2" font-family="Cascadia Code PL" font-size="11.00" fill="cyan">─────────────────</text>
<text text-anchor="middle" x="507" y="-179.2" font-family="Cascadia Code PL" font-size="11.00" fill="cyan">PALETTE_OPS.active% = TRUE</text>
<text text-anchor="middle" x="507" y="-167.2" font-family="Cascadia Code PL" font-size="11.00" fill="cyan">Visual indicator on strip</text>
<text text-anchor="middle" x="507" y="-155.2" font-family="Cascadia Code PL" font-size="11.00" fill="cyan">Click targets are</text>
<text text-anchor="middle" x="507" y="-143.2" font-family="Cascadia Code PL" font-size="11.00" fill="cyan">editable cells</text>
</g>
<!-- S_ENTERING&#45;&gt;S_OPS_IDLE -->
<g id="edge2" class="edge">
<title>S_ENTERING&#45;&gt;S_OPS_IDLE</title>
<path fill="none" stroke="#cccc66" d="M709.4,-279.67C673.77,-261.6 630.77,-239.78 593.57,-220.91"/>
<polygon fill="#cccc66" stroke="#cccc66" points="594.75,-217.59 584.25,-216.19 591.59,-223.83 594.75,-217.59"/>
<text text-anchor="middle" x="695.5" y="-246.8" font-family="Cascadia Code PL" font-size="9.00" fill="#aaaaaa"> &#160;[DOCUMENT] ready</text>
<text text-anchor="middle" x="695.5" y="-236.8" font-family="Cascadia Code PL" font-size="9.00" fill="#aaaaaa"> &#160;snapshot stored</text>
</g>
<!-- S_CHANGE -->
<g id="node5" class="node">
<title>S_CHANGE</title>
<polygon fill="none" stroke="white" points="146,-74 0,-74 0,-6 146,-6 146,-74"/>
<text text-anchor="middle" x="73" y="-61.2" font-family="Cascadia Code PL" font-size="11.00" fill="cyan">4 · CHANGE COLOR</text>
<text text-anchor="middle" x="73" y="-49.2" font-family="Cascadia Code PL" font-size="11.00" fill="cyan">─────────────────</text>
<text text-anchor="middle" x="73" y="-37.2" font-family="Cascadia Code PL" font-size="11.00" fill="cyan">Click + edit color</text>
<text text-anchor="middle" x="73" y="-25.2" font-family="Cascadia Code PL" font-size="11.00" fill="cyan">opens picker</text>
<text text-anchor="middle" x="73" y="-13.2" font-family="Cascadia Code PL" font-size="11.00" fill="cyan">PAL_color~&amp;(idx) updated</text>
</g>
<!-- S_OPS_IDLE&#45;&gt;S_CHANGE -->
<g id="edge3" class="edge">
<title>S_OPS_IDLE&#45;&gt;S_CHANGE</title>
<path fill="none" stroke="#66cc66" d="M426.31,-170.53C302.95,-162.87 79.11,-145.34 55,-118 46.69,-108.58 46.62,-96.05 49.97,-83.84"/>
<polygon fill="#66cc66" stroke="#66cc66" points="53.35,-84.78 53.29,-74.18 46.73,-82.5 53.35,-84.78"/>
<text text-anchor="middle" x="87.5" y="-105.8" font-family="Cascadia Code PL" font-size="9.00" fill="#aaaaaa"> &#160;Click cell + edit</text>
</g>
<!-- S_DELETE -->
<g id="node6" class="node">
<title>S_DELETE</title>
<polygon fill="none" stroke="white" points="299.5,-74 170.5,-74 170.5,-6 299.5,-6 299.5,-74"/>
<text text-anchor="middle" x="235" y="-61.2" font-family="Cascadia Code PL" font-size="11.00" fill="cyan">5 · DELETE SLOT</text>
<text text-anchor="middle" x="235" y="-49.2" font-family="Cascadia Code PL" font-size="11.00" fill="cyan">─────────────────</text>
<text text-anchor="middle" x="235" y="-37.2" font-family="Cascadia Code PL" font-size="11.00" fill="cyan">Right&#45;click / shortcut</text>
<text text-anchor="middle" x="235" y="-25.2" font-family="Cascadia Code PL" font-size="11.00" fill="cyan">Remove cell from list</text>
<text text-anchor="middle" x="235" y="-13.2" font-family="Cascadia Code PL" font-size="11.00" fill="cyan">Shift remaining indices</text>
</g>
<!-- S_OPS_IDLE&#45;&gt;S_DELETE -->
<g id="edge5" class="edge">
<title>S_OPS_IDLE&#45;&gt;S_DELETE</title>
<path fill="none" stroke="#66cc66" d="M426.49,-169.97C351.76,-163.42 248.34,-148.93 223,-118 215.23,-108.52 214.46,-96.1 216.72,-84.01"/>
<polygon fill="#66cc66" stroke="#66cc66" points="220.19,-84.56 219.24,-74.01 213.4,-82.85 220.19,-84.56"/>
<text text-anchor="middle" x="255" y="-105.8" font-family="Cascadia Code PL" font-size="9.00" fill="#aaaaaa"> &#160;Delete shortcut</text>
</g>
<!-- S_INSERT -->
<g id="node7" class="node">
<title>S_INSERT</title>
<polygon fill="none" stroke="white" points="449.5,-74 334.5,-74 334.5,-6 449.5,-6 449.5,-74"/>
<text text-anchor="middle" x="392" y="-61.2" font-family="Cascadia Code PL" font-size="11.00" fill="cyan">6 · INSERT SLOT</text>
<text text-anchor="middle" x="392" y="-49.2" font-family="Cascadia Code PL" font-size="11.00" fill="cyan">─────────────────</text>
<text text-anchor="middle" x="392" y="-37.2" font-family="Cascadia Code PL" font-size="11.00" fill="cyan">Insert key / button</text>
<text text-anchor="middle" x="392" y="-25.2" font-family="Cascadia Code PL" font-size="11.00" fill="cyan">New cell at position</text>
<text text-anchor="middle" x="392" y="-13.2" font-family="Cascadia Code PL" font-size="11.00" fill="cyan">default color</text>
</g>
<!-- S_OPS_IDLE&#45;&gt;S_INSERT -->
<g id="edge7" class="edge">
<title>S_OPS_IDLE&#45;&gt;S_INSERT</title>
<path fill="none" stroke="#66cc66" d="M426.45,-151.16C411.58,-143.04 397.95,-132.26 389,-118 382.79,-108.1 381.16,-95.98 381.72,-84.32"/>
<polygon fill="#66cc66" stroke="#66cc66" points="385.22,-84.55 382.72,-74.25 378.25,-83.86 385.22,-84.55"/>
<text text-anchor="middle" x="419.5" y="-105.8" font-family="Cascadia Code PL" font-size="9.00" fill="#aaaaaa"> &#160;Insert shortcut</text>
</g>
<!-- S_REARRANGE -->
<g id="node8" class="node">
<title>S_REARRANGE</title>
<polygon fill="none" stroke="white" points="622.5,-74 483.5,-74 483.5,-6 622.5,-6 622.5,-74"/>
<text text-anchor="middle" x="553" y="-61.2" font-family="Cascadia Code PL" font-size="11.00" fill="cyan">7 · DRAG TO REARRANGE</text>
<text text-anchor="middle" x="553" y="-49.2" font-family="Cascadia Code PL" font-size="11.00" fill="cyan">─────────────────</text>
<text text-anchor="middle" x="553" y="-37.2" font-family="Cascadia Code PL" font-size="11.00" fill="cyan">B1 drag a cell</text>
<text text-anchor="middle" x="553" y="-25.2" font-family="Cascadia Code PL" font-size="11.00" fill="cyan">Drop at new index</text>
<text text-anchor="middle" x="553" y="-13.2" font-family="Cascadia Code PL" font-size="11.00" fill="cyan">Refresh palette indices</text>
</g>
<!-- S_OPS_IDLE&#45;&gt;S_REARRANGE -->
<g id="edge9" class="edge">
<title>S_OPS_IDLE&#45;&gt;S_REARRANGE</title>
<path fill="none" stroke="#66cc66" d="M520.43,-135.88C526.06,-119.48 532.62,-100.36 538.37,-83.61"/>
<polygon fill="#66cc66" stroke="#66cc66" points="541.72,-84.64 541.65,-74.05 535.1,-82.37 541.72,-84.64"/>
<text text-anchor="middle" x="563" y="-105.8" font-family="Cascadia Code PL" font-size="9.00" fill="#aaaaaa"> &#160;B1 drag begin</text>
</g>
<!-- S_WAND -->
<g id="node9" class="node">
<title>S_WAND</title>
<polygon fill="none" stroke="white" points="804,-74 672,-74 672,-6 804,-6 804,-74"/>
<text text-anchor="middle" x="738" y="-61.2" font-family="Cascadia Code PL" font-size="11.00" fill="cyan">8 · WAND SELECT</text>
<text text-anchor="middle" x="738" y="-49.2" font-family="Cascadia Code PL" font-size="11.00" fill="cyan">─────────────────</text>
<text text-anchor="middle" x="738" y="-37.2" font-family="Cascadia Code PL" font-size="11.00" fill="cyan">Click canvas pixel</text>
<text text-anchor="middle" x="738" y="-25.2" font-family="Cascadia Code PL" font-size="11.00" fill="cyan">Look up nearest palette</text>
<text text-anchor="middle" x="738" y="-13.2" font-family="Cascadia Code PL" font-size="11.00" fill="cyan">index, highlight cell</text>
</g>
<!-- S_OPS_IDLE&#45;&gt;S_WAND -->
<g id="edge11" class="edge">
<title>S_OPS_IDLE&#45;&gt;S_WAND</title>
<path fill="none" stroke="#66cc66" d="M587.72,-158.57C617.9,-149.84 651.3,-136.88 678,-118 691.28,-108.61 703.04,-95.44 712.55,-82.64"/>
<polygon fill="#66cc66" stroke="#66cc66" points="715.52,-84.5 718.46,-74.33 709.81,-80.45 715.52,-84.5"/>
<text text-anchor="middle" x="738" y="-105.8" font-family="Cascadia Code PL" font-size="9.00" fill="#aaaaaa"> &#160;Wand tool clicked</text>
</g>
<!-- S_EXITING -->
<g id="node10" class="node">
<title>S_EXITING</title>
<polygon fill="none" stroke="white" points="1030.5,-80 893.5,-80 893.5,0 1030.5,0 1030.5,-80"/>
<text text-anchor="middle" x="962" y="-67.2" font-family="Cascadia Code PL" font-size="11.00" fill="cyan">9 · EXITING OPS</text>
<text text-anchor="middle" x="962" y="-55.2" font-family="Cascadia Code PL" font-size="11.00" fill="cyan">─────────────────</text>
<text text-anchor="middle" x="962" y="-43.2" font-family="Cascadia Code PL" font-size="11.00" fill="cyan">User toggled off</text>
<text text-anchor="middle" x="962" y="-31.2" font-family="Cascadia Code PL" font-size="11.00" fill="cyan">or switched palette</text>
<text text-anchor="middle" x="962" y="-19.2" font-family="Cascadia Code PL" font-size="11.00" fill="cyan">Write [DOCUMENT] back</text>
<text text-anchor="middle" x="962" y="-7.2" font-family="Cascadia Code PL" font-size="11.00" fill="cyan">or restore snapshot</text>
</g>
<!-- S_OPS_IDLE&#45;&gt;S_EXITING -->
<g id="edge13" class="edge">
<title>S_OPS_IDLE&#45;&gt;S_EXITING</title>
<path fill="none" stroke="#cc6666" stroke-dasharray="5,2" d="M587.77,-172.53C660.67,-167.85 769.57,-154.67 857,-118 875.64,-110.18 894.07,-98.43 910.16,-86.45"/>
<polygon fill="#cc6666" stroke="#cc6666" points="912.53,-89.04 918.35,-80.18 908.28,-83.48 912.53,-89.04"/>
<text text-anchor="middle" x="938" y="-105.8" font-family="Cascadia Code PL" font-size="9.00" fill="#aaaaaa"> &#160;Ops mode toggled off</text>
</g>
<!-- S_CHANGE&#45;&gt;S_OPS_IDLE -->
<g id="edge4" class="edge">
<title>S_CHANGE&#45;&gt;S_OPS_IDLE</title>
<path fill="none" stroke="#cccc66" d="M100.04,-74.34C114.64,-90.09 133.97,-107.65 155,-118 237.36,-158.53 342.4,-171.23 416.22,-174.74"/>
<polygon fill="#cccc66" stroke="#cccc66" points="416.28,-178.25 426.42,-175.18 416.58,-171.25 416.28,-178.25"/>
<text text-anchor="middle" x="183.5" y="-105.8" font-family="Cascadia Code PL" font-size="9.00" fill="#aaaaaa"> &#160;Picker closed</text>
</g>
<!-- S_DELETE&#45;&gt;S_OPS_IDLE -->
<g id="edge6" class="edge">
<title>S_DELETE&#45;&gt;S_OPS_IDLE</title>
<path fill="none" stroke="#cccc66" d="M266.32,-74.2C282.1,-89.33 302.27,-106.41 323,-118 351.71,-134.05 385.52,-146.18 416.28,-155.03"/>
<polygon fill="#cccc66" stroke="#cccc66" points="415.57,-158.47 426.14,-157.79 417.45,-151.73 415.57,-158.47"/>
<text text-anchor="middle" x="351" y="-105.8" font-family="Cascadia Code PL" font-size="9.00" fill="#aaaaaa"> &#160;Cell removed</text>
</g>
<!-- S_INSERT&#45;&gt;S_OPS_IDLE -->
<g id="edge8" class="edge">
<title>S_INSERT&#45;&gt;S_OPS_IDLE</title>
<path fill="none" stroke="#cccc66" d="M427.56,-74.21C435.2,-81.81 443.05,-90.01 450,-98 458.01,-107.22 466.12,-117.48 473.61,-127.44"/>
<polygon fill="#cccc66" stroke="#cccc66" points="470.97,-129.75 479.74,-135.7 476.59,-125.58 470.97,-129.75"/>
<text text-anchor="middle" x="489" y="-105.8" font-family="Cascadia Code PL" font-size="9.00" fill="#aaaaaa"> &#160;Cell added</text>
</g>
<!-- S_REARRANGE&#45;&gt;S_OPS_IDLE -->
<g id="edge10" class="edge">
<title>S_REARRANGE&#45;&gt;S_OPS_IDLE</title>
<path fill="none" stroke="#cccc66" d="M588.44,-74.22C598.56,-87.75 604.94,-103.57 597,-118 594.94,-121.74 592.53,-125.26 589.83,-128.59"/>
<polygon fill="#cccc66" stroke="#cccc66" points="587.24,-126.23 583.08,-135.98 592.41,-130.96 587.24,-126.23"/>
<text text-anchor="middle" x="637.5" y="-110.8" font-family="Cascadia Code PL" font-size="9.00" fill="#aaaaaa"> &#160;B1 released</text>
<text text-anchor="middle" x="637.5" y="-100.8" font-family="Cascadia Code PL" font-size="9.00" fill="#aaaaaa"> &#160;indices reordered</text>
</g>
<!-- S_WAND&#45;&gt;S_OPS_IDLE -->
<g id="edge12" class="edge">
<title>S_WAND&#45;&gt;S_OPS_IDLE</title>
<path fill="none" stroke="#cccc66" d="M773.13,-74.12C784.06,-88.37 790.76,-104.77 780,-118 757.22,-146.02 668.3,-160.74 598.05,-168.15"/>
<polygon fill="#cccc66" stroke="#cccc66" points="597.43,-164.69 587.83,-169.19 598.14,-171.65 597.43,-164.69"/>
<text text-anchor="middle" x="819.5" y="-105.8" font-family="Cascadia Code PL" font-size="9.00" fill="#aaaaaa"> &#160;Cell highlighted</text>
</g>
<!-- S_EXITING&#45;&gt;S_NORMAL -->
<g id="edge14" class="edge">
<title>S_EXITING&#45;&gt;S_NORMAL</title>
<path fill="none" stroke="#cc6666" stroke-dasharray="5,2" d="M982.44,-80.11C984.73,-85.97 986.71,-92.05 988,-98 989.89,-106.69 988.71,-109.14 988,-118 978.19,-240.95 996.04,-280.18 944,-392 942.45,-395.32 940.63,-398.6 938.61,-401.78"/>
<polygon fill="#cc6666" stroke="#cc6666" points="935.74,-399.78 932.89,-409.99 941.48,-403.78 935.74,-399.78"/>
<text text-anchor="middle" x="1027.5" y="-246.8" font-family="Cascadia Code PL" font-size="9.00" fill="#aaaaaa"> &#160;Snapshot restored or</text>
<text text-anchor="middle" x="1027.5" y="-236.8" font-family="Cascadia Code PL" font-size="9.00" fill="#aaaaaa"> &#160;[DOCUMENT] saved</text>
</g>
<!-- D1 -->
<g id="node11" class="node">
<title>D1</title>
<polygon fill="none" stroke="white" points="1374,-587 1270,-587 1270,-524 1374,-524 1374,-587"/>
<text text-anchor="middle" x="1322" y="-575" font-family="Cascadia Code PL" font-size="10.00" fill="cyan">Auto&#45;Clone</text>
<text text-anchor="middle" x="1322" y="-564" font-family="Cascadia Code PL" font-size="10.00" fill="cyan">────────────</text>
<text text-anchor="middle" x="1322" y="-553" font-family="Cascadia Code PL" font-size="10.00" fill="cyan">Current palette →</text>
<text text-anchor="middle" x="1322" y="-542" font-family="Cascadia Code PL" font-size="10.00" fill="cyan">[DOCUMENT] entry</text>
<text text-anchor="middle" x="1322" y="-531" font-family="Cascadia Code PL" font-size="10.00" fill="cyan">on Ops entry</text>
</g>
<!-- D2 -->
<g id="node12" class="node">
<title>D2</title>
<polygon fill="none" stroke="white" points="1251.5,-587 1144.5,-587 1144.5,-524 1251.5,-524 1251.5,-587"/>
<text text-anchor="middle" x="1198" y="-575" font-family="Cascadia Code PL" font-size="10.00" fill="cyan">Document&#45;Scoped</text>
<text text-anchor="middle" x="1198" y="-564" font-family="Cascadia Code PL" font-size="10.00" fill="cyan">────────────</text>
<text text-anchor="middle" x="1198" y="-553" font-family="Cascadia Code PL" font-size="10.00" fill="cyan">Lives with the file</text>
<text text-anchor="middle" x="1198" y="-542" font-family="Cascadia Code PL" font-size="10.00" fill="cyan">Not a global preset</text>
<text text-anchor="middle" x="1198" y="-531" font-family="Cascadia Code PL" font-size="10.00" fill="cyan">Serialized into .draw</text>
</g>
<!-- D3 -->
<g id="node13" class="node">
<title>D3</title>
<polygon fill="none" stroke="white" points="1126.5,-587 1029.5,-587 1029.5,-524 1126.5,-524 1126.5,-587"/>
<text text-anchor="middle" x="1078" y="-575" font-family="Cascadia Code PL" font-size="10.00" fill="cyan">Snapshot/Restore</text>
<text text-anchor="middle" x="1078" y="-564" font-family="Cascadia Code PL" font-size="10.00" fill="cyan">────────────</text>
<text text-anchor="middle" x="1078" y="-553" font-family="Cascadia Code PL" font-size="10.00" fill="cyan">Ops changes can</text>
<text text-anchor="middle" x="1078" y="-542" font-family="Cascadia Code PL" font-size="10.00" fill="cyan">be rolled back</text>
<text text-anchor="middle" x="1078" y="-531" font-family="Cascadia Code PL" font-size="10.00" fill="cyan">if user cancels</text>
</g>
<!-- A1 -->
<g id="node14" class="node">
<title>A1</title>
<polygon fill="none" stroke="white" points="1880,-576 1800,-576 1800,-535 1880,-535 1880,-576"/>
<text text-anchor="middle" x="1840" y="-564" font-family="Cascadia Code PL" font-size="10.00" fill="cyan">Change</text>
<text text-anchor="middle" x="1840" y="-553" font-family="Cascadia Code PL" font-size="10.00" fill="cyan">────────────</text>
<text text-anchor="middle" x="1840" y="-542" font-family="Cascadia Code PL" font-size="10.00" fill="cyan">Edit slot color</text>
</g>
<!-- A2 -->
<g id="node15" class="node">
<title>A2</title>
<polygon fill="none" stroke="white" points="1782,-576 1702,-576 1702,-535 1782,-535 1782,-576"/>
<text text-anchor="middle" x="1742" y="-564" font-family="Cascadia Code PL" font-size="10.00" fill="cyan">Delete</text>
<text text-anchor="middle" x="1742" y="-553" font-family="Cascadia Code PL" font-size="10.00" fill="cyan">────────────</text>
<text text-anchor="middle" x="1742" y="-542" font-family="Cascadia Code PL" font-size="10.00" fill="cyan">Remove slot</text>
</g>
<!-- A3 -->
<g id="node16" class="node">
<title>A3</title>
<polygon fill="none" stroke="white" points="1684,-576 1604,-576 1604,-535 1684,-535 1684,-576"/>
<text text-anchor="middle" x="1644" y="-564" font-family="Cascadia Code PL" font-size="10.00" fill="cyan">Insert</text>
<text text-anchor="middle" x="1644" y="-553" font-family="Cascadia Code PL" font-size="10.00" fill="cyan">────────────</text>
<text text-anchor="middle" x="1644" y="-542" font-family="Cascadia Code PL" font-size="10.00" fill="cyan">Add new slot</text>
</g>
<!-- A4 -->
<g id="node17" class="node">
<title>A4</title>
<polygon fill="none" stroke="white" points="1585.5,-576 1496.5,-576 1496.5,-535 1585.5,-535 1585.5,-576"/>
<text text-anchor="middle" x="1541" y="-564" font-family="Cascadia Code PL" font-size="10.00" fill="cyan">Rearrange</text>
<text text-anchor="middle" x="1541" y="-553" font-family="Cascadia Code PL" font-size="10.00" fill="cyan">────────────</text>
<text text-anchor="middle" x="1541" y="-542" font-family="Cascadia Code PL" font-size="10.00" fill="cyan">Drag&#45;to&#45;reorder</text>
</g>
<!-- A5 -->
<g id="node18" class="node">
<title>A5</title>
<polygon fill="none" stroke="white" points="1478,-581.5 1398,-581.5 1398,-529.5 1478,-529.5 1478,-581.5"/>
<text text-anchor="middle" x="1438" y="-569.5" font-family="Cascadia Code PL" font-size="10.00" fill="cyan">Wand</text>
<text text-anchor="middle" x="1438" y="-558.5" font-family="Cascadia Code PL" font-size="10.00" fill="cyan">────────────</text>
<text text-anchor="middle" x="1438" y="-547.5" font-family="Cascadia Code PL" font-size="10.00" fill="cyan">Match canvas</text>
<text text-anchor="middle" x="1438" y="-536.5" font-family="Cascadia Code PL" font-size="10.00" fill="cyan">pixel to slot</text>
</g>
<!-- L1 -->
<g id="node19" class="node">
<title>L1</title>
<ellipse fill="white" stroke="white" cx="2027" cy="-555.5" rx="0.36" ry="0.36"/>
</g>
<!-- L2 -->
<g id="node20" class="node">
<title>L2</title>
<ellipse fill="white" stroke="white" cx="2027" cy="-444" rx="0.36" ry="0.36"/>
</g>
<!-- L1&#45;&gt;L2 -->
<g id="edge16" class="edge">
<title>L1&#45;&gt;L2</title>
<path fill="none" stroke="#66cc66" d="M2027,-554.42C2027,-551.74 2027,-482.04 2027,-455.31"/>
<polygon fill="#66cc66" stroke="#66cc66" points="2030.5,-455.08 2027,-445.08 2023.5,-455.08 2030.5,-455.08"/>
<text text-anchor="middle" x="2041.5" y="-498.8" font-family="Cascadia Code PL" font-size="9.00" fill="#aaaaaa"> Action</text>
</g>
<!-- L3 -->
<g id="node21" class="node">
<title>L3</title>
<ellipse fill="white" stroke="white" cx="1987" cy="-555.5" rx="0.36" ry="0.36"/>
</g>
<!-- L4 -->
<g id="node22" class="node">
<title>L4</title>
<ellipse fill="white" stroke="white" cx="1987" cy="-444" rx="0.36" ry="0.36"/>
</g>
<!-- L3&#45;&gt;L4 -->
<g id="edge17" class="edge">
<title>L3&#45;&gt;L4</title>
<path fill="none" stroke="#cc6666" stroke-dasharray="5,2" d="M1987,-554.42C1987,-551.74 1987,-482.04 1987,-455.31"/>
<polygon fill="#cc6666" stroke="#cc6666" points="1990.5,-455.08 1987,-445.08 1983.5,-455.08 1990.5,-455.08"/>
<text text-anchor="middle" x="1995.5" y="-498.8" font-family="Cascadia Code PL" font-size="9.00" fill="#aaaaaa"> Exit</text>
</g>
<!-- L5 -->
<g id="node23" class="node">
<title>L5</title>
<ellipse fill="white" stroke="white" cx="1922" cy="-555.5" rx="0.36" ry="0.36"/>
</g>
<!-- L6 -->
<g id="node24" class="node">
<title>L6</title>
<ellipse fill="white" stroke="white" cx="1922" cy="-444" rx="0.36" ry="0.36"/>
</g>
<!-- L5&#45;&gt;L6 -->
<g id="edge18" class="edge">
<title>L5&#45;&gt;L6</title>
<path fill="none" stroke="#cccc66" d="M1922,-554.42C1922,-551.74 1922,-482.04 1922,-455.31"/>
<polygon fill="#cccc66" stroke="#cccc66" points="1925.5,-455.08 1922,-445.08 1918.5,-455.08 1925.5,-455.08"/>
<text text-anchor="middle" x="1943" y="-498.8" font-family="Cascadia Code PL" font-size="9.00" fill="#aaaaaa"> Transition</text>
</g>
</g>
</svg>
