<?xml version="1.0" encoding="UTF-8" standalone="no"?>
<!DOCTYPE svg PUBLIC "-//W3C//DTD SVG 1.1//EN"
 "http://www.w3.org/Graphics/SVG/1.1/DTD/svg11.dtd">
<!-- Generated by graphviz version 2.42.4 (0)
 -->
<!-- Title: PALETTE_STRIP Pages: 1 -->
<svg width="1139pt" height="509pt"
 viewBox="0.00 0.00 1139.00 509.36" xmlns="http://www.w3.org/2000/svg" xmlns:xlink="http://www.w3.org/1999/xlink">
<g id="graph0" class="graph" transform="scale(1 1) rotate(0) translate(4 505.36)">
<title>PALETTE_STRIP</title>
<text text-anchor="middle" x="565.5" y="-478.16" font-family="Cascadia Code PL" font-size="24.00" fill="white">COLOR STRIP / PALETTE STRIP STATE MACHINE</text>
<g id="clust4" class="cluster">
<title>cluster_legend</title>
<polygon fill="transparent" stroke="white" stroke-dasharray="5,2" points="879,-314.64 879,-459.36 1123,-459.36 1123,-314.64 879,-314.64"/>
<text text-anchor="middle" x="907" y="-446.56" font-family="Cascadia Code PL" font-size="11.00" fill="white">LEGEND</text>
</g>
<g id="clust2" class="cluster">
<title>cluster_palette_menu</title>
<polygon fill="transparent" stroke="orange" stroke-dasharray="5,2" points="658,-8 658,-377 871,-377 871,-8 658,-8"/>
<text text-anchor="middle" x="753.5" y="-364.2" font-family="Cascadia Code PL" font-size="11.00" fill="orange">PALETTE MENU — Palette Selection</text>
</g>
<!-- MAIN -->
<g id="node1" class="node">
<title>MAIN</title>
<polygon fill="none" stroke="orange" stroke-width="2" points="346.5,-449 343.5,-453 322.5,-453 319.5,-449 245.5,-449 245.5,-413 346.5,-413 346.5,-449"/>
<text text-anchor="middle" x="296" y="-427.6" font-family="Cascadia Code PL" font-size="13.00" fill="orange">PALETTE STRIP</text>
</g>
<!-- S_VISIBLE -->
<g id="node3" class="node">
<title>S_VISIBLE</title>
<polygon fill="none" stroke="white" points="384.5,-363 207.5,-363 207.5,-283 384.5,-283 384.5,-363"/>
<text text-anchor="middle" x="296" y="-350.2" font-family="Cascadia Code PL" font-size="11.00" fill="cyan">1 · VISIBLE</text>
<text text-anchor="middle" x="296" y="-338.2" font-family="Cascadia Code PL" font-size="11.00" fill="cyan">─────────────────</text>
<text text-anchor="middle" x="296" y="-326.2" font-family="Cascadia Code PL" font-size="11.00" fill="cyan">SCRN.showPaletteStrip% = TRUE</text>
<text text-anchor="middle" x="296" y="-314.2" font-family="Cascadia Code PL" font-size="11.00" fill="cyan">Horizontal color row</text>
<text text-anchor="middle" x="296" y="-302.2" font-family="Cascadia Code PL" font-size="11.00" fill="cyan">Above status bar</text>
<text text-anchor="middle" x="296" y="-290.2" font-family="Cascadia Code PL" font-size="11.00" fill="cyan">Shows loaded palette</text>
</g>
<!-- MAIN&#45;&gt;S_VISIBLE -->
<g id="edge13" class="edge">
<title>MAIN&#45;&gt;S_VISIBLE</title>
<path fill="none" stroke="#555555" stroke-dasharray="1,5" d="M296,-412.97C296,-399.63 296,-380.52 296,-363.44"/>
</g>
<!-- MENU_F -->
<g id="node2" class="node">
<title>MENU_F</title>
<polygon fill="none" stroke="orange" stroke-width="2" points="830,-449 827,-453 806,-453 803,-449 724,-449 724,-413 830,-413 830,-449"/>
<text text-anchor="middle" x="777" y="-427.6" font-family="Cascadia Code PL" font-size="13.00" fill="orange">PALETTE MENU</text>
</g>
<!-- PM_CLOSED -->
<g id="node8" class="node">
<title>PM_CLOSED</title>
<polygon fill="none" stroke="white" points="836,-349 718,-349 718,-297 836,-297 836,-349"/>
<text text-anchor="middle" x="777" y="-337" font-family="Cascadia Code PL" font-size="10.00" fill="cyan">Menu Closed</text>
<text text-anchor="middle" x="777" y="-326" font-family="Cascadia Code PL" font-size="10.00" fill="cyan">────────────</text>
<text text-anchor="middle" x="777" y="-315" font-family="Cascadia Code PL" font-size="10.00" fill="cyan">Normal strip display</text>
<text text-anchor="middle" x="777" y="-304" font-family="Cascadia Code PL" font-size="10.00" fill="cyan">Palette name in corner</text>
</g>
<!-- MENU_F&#45;&gt;PM_CLOSED -->
<g id="edge14" class="edge">
<title>MENU_F&#45;&gt;PM_CLOSED</title>
<path fill="none" stroke="#555555" stroke-dasharray="1,5" d="M777,-412.97C777,-403.09 777,-390.04 777,-377"/>
</g>
<!-- S_HIDDEN -->
<g id="node4" class="node">
<title>S_HIDDEN</title>
<polygon fill="none" stroke="white" points="180,-217 0,-217 0,-161 180,-161 180,-217"/>
<text text-anchor="middle" x="90" y="-204.2" font-family="Cascadia Code PL" font-size="11.00" fill="cyan">2 · HIDDEN</text>
<text text-anchor="middle" x="90" y="-192.2" font-family="Cascadia Code PL" font-size="11.00" fill="cyan">─────────────────</text>
<text text-anchor="middle" x="90" y="-180.2" font-family="Cascadia Code PL" font-size="11.00" fill="cyan">SCRN.showPaletteStrip% = FALSE</text>
<text text-anchor="middle" x="90" y="-168.2" font-family="Cascadia Code PL" font-size="11.00" fill="cyan">ManuallyHidden% = TRUE</text>
</g>
<!-- S_VISIBLE&#45;&gt;S_HIDDEN -->
<g id="edge1" class="edge">
<title>S_VISIBLE&#45;&gt;S_HIDDEN</title>
<path fill="none" stroke="#cc6666" stroke-dasharray="5,2" d="M207.4,-313.6C143.26,-305.47 64.41,-290.54 44,-265 34.13,-252.65 39.76,-238.02 49.98,-224.98"/>
<polygon fill="#cc6666" stroke="#cc6666" points="52.91,-226.94 56.83,-217.1 47.63,-222.35 52.91,-226.94"/>
<text text-anchor="middle" x="89.5" y="-253.8" font-family="Cascadia Code PL" font-size="9.00" fill="#aaaaaa"> &#160;Ctrl+Shift+Up / Menu</text>
</g>
<!-- S_HOVER -->
<g id="node5" class="node">
<title>S_HOVER</title>
<polygon fill="none" stroke="white" points="464.5,-223 339.5,-223 339.5,-155 464.5,-155 464.5,-223"/>
<text text-anchor="middle" x="402" y="-210.2" font-family="Cascadia Code PL" font-size="11.00" fill="cyan">3 · HOVER COLOR</text>
<text text-anchor="middle" x="402" y="-198.2" font-family="Cascadia Code PL" font-size="11.00" fill="cyan">─────────────────</text>
<text text-anchor="middle" x="402" y="-186.2" font-family="Cascadia Code PL" font-size="11.00" fill="cyan">hoverIdx = colorIndex</text>
<text text-anchor="middle" x="402" y="-174.2" font-family="Cascadia Code PL" font-size="11.00" fill="cyan">Color highlighted</text>
<text text-anchor="middle" x="402" y="-162.2" font-family="Cascadia Code PL" font-size="11.00" fill="cyan">RGB tooltip shown</text>
</g>
<!-- S_VISIBLE&#45;&gt;S_HOVER -->
<g id="edge3" class="edge">
<title>S_VISIBLE&#45;&gt;S_HOVER</title>
<path fill="none" stroke="#88aacc" d="M289.1,-282.88C288.82,-270.65 290.6,-257.59 297,-247 298.26,-244.92 312.65,-236.73 330.4,-227.18"/>
<polygon fill="#88aacc" stroke="#88aacc" points="332.17,-230.21 339.34,-222.41 328.87,-224.03 332.17,-230.21"/>
<text text-anchor="middle" x="342" y="-253.8" font-family="Cascadia Code PL" font-size="9.00" fill="#aaaaaa"> &#160;Mouse over color cell</text>
</g>
<!-- S_SCROLL -->
<g id="node7" class="node">
<title>S_SCROLL</title>
<polygon fill="none" stroke="white" points="623,-229 509,-229 509,-149 623,-149 623,-229"/>
<text text-anchor="middle" x="566" y="-216.2" font-family="Cascadia Code PL" font-size="11.00" fill="cyan">5 · SCROLLING</text>
<text text-anchor="middle" x="566" y="-204.2" font-family="Cascadia Code PL" font-size="11.00" fill="cyan">─────────────────</text>
<text text-anchor="middle" x="566" y="-192.2" font-family="Cascadia Code PL" font-size="11.00" fill="cyan">Palette has &gt; visible</text>
<text text-anchor="middle" x="566" y="-180.2" font-family="Cascadia Code PL" font-size="11.00" fill="cyan">number of colors</text>
<text text-anchor="middle" x="566" y="-168.2" font-family="Cascadia Code PL" font-size="11.00" fill="cyan">Mousewheel scrolls</text>
<text text-anchor="middle" x="566" y="-156.2" font-family="Cascadia Code PL" font-size="11.00" fill="cyan">Nav arrows visible</text>
</g>
<!-- S_VISIBLE&#45;&gt;S_SCROLL -->
<g id="edge6" class="edge">
<title>S_VISIBLE&#45;&gt;S_SCROLL</title>
<path fill="none" stroke="#88aacc" d="M384.81,-295.57C409.1,-287.06 435.04,-276.74 458,-265 474.63,-256.49 491.67,-245.76 507.15,-235.1"/>
<polygon fill="#88aacc" stroke="#88aacc" points="509.4,-237.79 515.58,-229.19 505.38,-232.06 509.4,-237.79"/>
<text text-anchor="middle" x="532.5" y="-253.8" font-family="Cascadia Code PL" font-size="9.00" fill="#aaaaaa"> &#160;Mousewheel / [ ] keys</text>
</g>
<!-- S_HIDDEN&#45;&gt;S_VISIBLE -->
<g id="edge2" class="edge">
<title>S_HIDDEN&#45;&gt;S_VISIBLE</title>
<path fill="none" stroke="#66cc66" d="M109.62,-217.07C122.07,-232.72 139.31,-251.85 158,-265 170.26,-273.62 184.03,-281.26 197.99,-287.92"/>
<polygon fill="#66cc66" stroke="#66cc66" points="196.63,-291.15 207.18,-292.15 199.56,-284.79 196.63,-291.15"/>
<text text-anchor="middle" x="203.5" y="-253.8" font-family="Cascadia Code PL" font-size="9.00" fill="#aaaaaa"> &#160;Ctrl+Shift+Up / Menu</text>
</g>
<!-- S_HOVER&#45;&gt;S_VISIBLE -->
<g id="edge8" class="edge">
<title>S_HOVER&#45;&gt;S_VISIBLE</title>
<path fill="none" stroke="#cc6666" stroke-dasharray="5,2" d="M401.07,-223.25C399.31,-237.16 395.37,-252.87 387,-265 384.37,-268.81 381.39,-272.42 378.15,-275.83"/>
<polygon fill="#cc6666" stroke="#cc6666" points="375.49,-273.54 370.7,-282.98 380.34,-278.59 375.49,-273.54"/>
<text text-anchor="middle" x="425" y="-253.8" font-family="Cascadia Code PL" font-size="9.00" fill="#aaaaaa"> &#160;Mouse leaves</text>
</g>
<!-- S_SELECT -->
<g id="node6" class="node">
<title>S_SELECT</title>
<polygon fill="none" stroke="white" points="352.5,-93 205.5,-93 205.5,-13 352.5,-13 352.5,-93"/>
<text text-anchor="middle" x="279" y="-80.2" font-family="Cascadia Code PL" font-size="11.00" fill="cyan">4 · COLOR SELECTED</text>
<text text-anchor="middle" x="279" y="-68.2" font-family="Cascadia Code PL" font-size="11.00" fill="cyan">─────────────────</text>
<text text-anchor="middle" x="279" y="-56.2" font-family="Cascadia Code PL" font-size="11.00" fill="cyan">B1 = Set FG color</text>
<text text-anchor="middle" x="279" y="-44.2" font-family="Cascadia Code PL" font-size="11.00" fill="cyan">B2 = Set BG color</text>
<text text-anchor="middle" x="279" y="-32.2" font-family="Cascadia Code PL" font-size="11.00" fill="cyan">PAINT_COLOR~&amp; updated</text>
<text text-anchor="middle" x="279" y="-20.2" font-family="Cascadia Code PL" font-size="11.00" fill="cyan">PAL_FG_IDX% set</text>
</g>
<!-- S_HOVER&#45;&gt;S_SELECT -->
<g id="edge4" class="edge">
<title>S_HOVER&#45;&gt;S_SELECT</title>
<path fill="none" stroke="#66cc66" d="M371.6,-154.88C356.66,-138.6 338.39,-118.71 322.05,-100.9"/>
<polygon fill="#66cc66" stroke="#66cc66" points="324.52,-98.41 315.18,-93.41 319.36,-103.15 324.52,-98.41"/>
<text text-anchor="middle" x="375.5" y="-123.8" font-family="Cascadia Code PL" font-size="9.00" fill="#aaaaaa"> &#160;B1 click (FG)</text>
<text text-anchor="middle" x="375.5" y="-113.8" font-family="Cascadia Code PL" font-size="9.00" fill="#aaaaaa"> &#160;B2 click (BG)</text>
</g>
<!-- S_SELECT&#45;&gt;S_VISIBLE -->
<g id="edge5" class="edge">
<title>S_SELECT&#45;&gt;S_VISIBLE</title>
<path fill="none" stroke="#cccc66" d="M273.74,-93.08C269.83,-128.65 266.1,-182.55 272,-229 273.83,-243.38 277.18,-258.71 280.81,-272.69"/>
<polygon fill="#cccc66" stroke="#cccc66" points="277.5,-273.86 283.48,-282.6 284.26,-272.04 277.5,-273.86"/>
<text text-anchor="middle" x="301" y="-186.8" font-family="Cascadia Code PL" font-size="9.00" fill="#aaaaaa"> &#160;Color applied</text>
</g>
<!-- S_SCROLL&#45;&gt;S_VISIBLE -->
<g id="edge7" class="edge">
<title>S_SCROLL&#45;&gt;S_VISIBLE</title>
<path fill="none" stroke="#88aacc" d="M586.33,-229.3C589.88,-241.83 590.19,-255.02 582,-265 558.42,-293.74 467.79,-308.26 394.79,-315.42"/>
<polygon fill="#88aacc" stroke="#88aacc" points="394.24,-311.96 384.62,-316.39 394.9,-318.93 394.24,-311.96"/>
<text text-anchor="middle" x="612" y="-253.8" font-family="Cascadia Code PL" font-size="9.00" fill="#aaaaaa"> &#160;Scroll stop</text>
</g>
<!-- PM_OPEN -->
<g id="node9" class="node">
<title>PM_OPEN</title>
<polygon fill="none" stroke="white" points="784.5,-226 683.5,-226 683.5,-152 784.5,-152 784.5,-226"/>
<text text-anchor="middle" x="734" y="-214" font-family="Cascadia Code PL" font-size="10.00" fill="cyan">Menu Open</text>
<text text-anchor="middle" x="734" y="-203" font-family="Cascadia Code PL" font-size="10.00" fill="cyan">────────────</text>
<text text-anchor="middle" x="734" y="-192" font-family="Cascadia Code PL" font-size="10.00" fill="cyan">56 GPL palette files</text>
<text text-anchor="middle" x="734" y="-181" font-family="Cascadia Code PL" font-size="10.00" fill="cyan">Scrollable list</text>
<text text-anchor="middle" x="734" y="-170" font-family="Cascadia Code PL" font-size="10.00" fill="cyan">Search filter</text>
<text text-anchor="middle" x="734" y="-159" font-family="Cascadia Code PL" font-size="10.00" fill="cyan">Hover highlights</text>
</g>
<!-- PM_CLOSED&#45;&gt;PM_OPEN -->
<g id="edge9" class="edge">
<title>PM_CLOSED&#45;&gt;PM_OPEN</title>
<path fill="none" stroke="#66cc66" d="M717.66,-297.45C704.63,-289.15 692.5,-278.46 685,-265 679.5,-255.12 681.08,-244.79 686.16,-235.08"/>
<polygon fill="#66cc66" stroke="#66cc66" points="689.29,-236.68 691.71,-226.36 683.38,-232.92 689.29,-236.68"/>
<text text-anchor="middle" x="720" y="-258.6" font-family="Cascadia Code PL" font-size="8.00" fill="#aaaaaa"> Click palette name</text>
<text text-anchor="middle" x="720" y="-249.6" font-family="Cascadia Code PL" font-size="8.00" fill="#aaaaaa"> or hotkey</text>
</g>
<!-- PM_OPEN&#45;&gt;PM_CLOSED -->
<g id="edge12" class="edge">
<title>PM_OPEN&#45;&gt;PM_CLOSED</title>
<path fill="none" stroke="#cc6666" stroke-dasharray="5,2" d="M747.7,-226.05C750.21,-232.98 752.75,-240.19 755,-247 759.3,-260.01 763.63,-274.43 767.3,-287.12"/>
<polygon fill="#cc6666" stroke="#cc6666" points="763.97,-288.22 770.09,-296.87 770.7,-286.29 763.97,-288.22"/>
<text text-anchor="middle" x="799.5" y="-254.1" font-family="Cascadia Code PL" font-size="8.00" fill="#aaaaaa"> Escape / click outside</text>
</g>
<!-- PM_SELECT -->
<g id="node10" class="node">
<title>PM_SELECT</title>
<polygon fill="none" stroke="white" points="836.5,-90 711.5,-90 711.5,-16 836.5,-16 836.5,-90"/>
<text text-anchor="middle" x="774" y="-78" font-family="Cascadia Code PL" font-size="10.00" fill="cyan">Palette Selected</text>
<text text-anchor="middle" x="774" y="-67" font-family="Cascadia Code PL" font-size="10.00" fill="cyan">────────────</text>
<text text-anchor="middle" x="774" y="-56" font-family="Cascadia Code PL" font-size="10.00" fill="cyan">PALETTE_LOADER_load()</text>
<text text-anchor="middle" x="774" y="-45" font-family="Cascadia Code PL" font-size="10.00" fill="cyan">PAL_color~&amp;() updated</text>
<text text-anchor="middle" x="774" y="-34" font-family="Cascadia Code PL" font-size="10.00" fill="cyan">Strip redrawn</text>
<text text-anchor="middle" x="774" y="-23" font-family="Cascadia Code PL" font-size="10.00" fill="cyan">All colors refreshed</text>
</g>
<!-- PM_OPEN&#45;&gt;PM_SELECT -->
<g id="edge10" class="edge">
<title>PM_OPEN&#45;&gt;PM_SELECT</title>
<path fill="none" stroke="#cccc66" d="M739.33,-151.94C741.7,-138.88 744.9,-124.13 749,-111 750.18,-107.22 751.54,-103.36 752.99,-99.51"/>
<polygon fill="#cccc66" stroke="#cccc66" points="756.32,-100.62 756.77,-90.03 749.82,-98.02 756.32,-100.62"/>
<text text-anchor="middle" x="782.5" y="-119.1" font-family="Cascadia Code PL" font-size="8.00" fill="#aaaaaa"> Click palette item</text>
</g>
<!-- PM_SELECT&#45;&gt;PM_CLOSED -->
<g id="edge11" class="edge">
<title>PM_SELECT&#45;&gt;PM_CLOSED</title>
<path fill="none" stroke="#cc6666" stroke-dasharray="5,2" d="M804.29,-90.26C808.74,-96.86 812.87,-103.91 816,-111 840.87,-167.38 836.97,-185.67 843,-247 843.78,-254.96 846.33,-257.73 843,-265 838.75,-274.29 832.15,-282.65 824.74,-289.91"/>
<polygon fill="#cc6666" stroke="#cc6666" points="822.18,-287.51 817.11,-296.81 826.87,-292.7 822.18,-287.51"/>
<text text-anchor="middle" x="862" y="-187.1" font-family="Cascadia Code PL" font-size="8.00" fill="#aaaaaa"> Auto&#45;close</text>
</g>
<!-- L1 -->
<g id="node11" class="node">
<title>L1</title>
<ellipse fill="white" stroke="white" cx="1060" cy="-431" rx="0.36" ry="0.36"/>
</g>
<!-- L2 -->
<g id="node12" class="node">
<title>L2</title>
<ellipse fill="white" stroke="white" cx="1060" cy="-323" rx="0.36" ry="0.36"/>
</g>
<!-- L1&#45;&gt;L2 -->
<g id="edge15" class="edge">
<title>L1&#45;&gt;L2</title>
<path fill="none" stroke="#66cc66" d="M1060,-429.92C1060,-427.34 1060,-360.5 1060,-334.35"/>
<polygon fill="#66cc66" stroke="#66cc66" points="1063.5,-334.07 1060,-324.07 1056.5,-334.07 1063.5,-334.07"/>
<text text-anchor="middle" x="1087.5" y="-387.8" font-family="Cascadia Code PL" font-size="9.00" fill="#aaaaaa"> Show / Open</text>
</g>
<!-- L3 -->
<g id="node13" class="node">
<title>L3</title>
<ellipse fill="white" stroke="white" cx="986" cy="-431" rx="0.36" ry="0.36"/>
</g>
<!-- L4 -->
<g id="node14" class="node">
<title>L4</title>
<ellipse fill="white" stroke="white" cx="986" cy="-323" rx="0.36" ry="0.36"/>
</g>
<!-- L3&#45;&gt;L4 -->
<g id="edge16" class="edge">
<title>L3&#45;&gt;L4</title>
<path fill="none" stroke="#cc6666" stroke-dasharray="5,2" d="M986,-429.92C986,-427.34 986,-360.5 986,-334.35"/>
<polygon fill="#cc6666" stroke="#cc6666" points="989.5,-334.07 986,-324.07 982.5,-334.07 989.5,-334.07"/>
<text text-anchor="middle" x="1011.5" y="-387.8" font-family="Cascadia Code PL" font-size="9.00" fill="#aaaaaa"> Hide / Close</text>
</g>
<!-- L5 -->
<g id="node15" class="node">
<title>L5</title>
<ellipse fill="white" stroke="white" cx="905" cy="-431" rx="0.36" ry="0.36"/>
</g>
<!-- L6 -->
<g id="node16" class="node">
<title>L6</title>
<ellipse fill="white" stroke="white" cx="905" cy="-323" rx="0.36" ry="0.36"/>
</g>
<!-- L5&#45;&gt;L6 -->
<g id="edge17" class="edge">
<title>L5&#45;&gt;L6</title>
<path fill="none" stroke="#cccc66" d="M905,-429.92C905,-427.34 905,-360.5 905,-334.35"/>
<polygon fill="#cccc66" stroke="#cccc66" points="908.5,-334.07 905,-324.07 901.5,-334.07 908.5,-334.07"/>
<text text-anchor="middle" x="934" y="-387.8" font-family="Cascadia Code PL" font-size="9.00" fill="#aaaaaa"> Select / Apply</text>
</g>
</g>
</svg>
