<?xml version="1.0" encoding="UTF-8" standalone="no"?>
<!DOCTYPE svg PUBLIC "-//W3C//DTD SVG 1.1//EN"
 "http://www.w3.org/Graphics/SVG/1.1/DTD/svg11.dtd">
<!-- Generated by graphviz version 2.42.4 (0)
 -->
<!-- Title: PREVIEW Pages: 1 -->
<svg width="1827pt" height="553pt"
 viewBox="0.00 0.00 1826.50 553.00" xmlns="http://www.w3.org/2000/svg" xmlns:xlink="http://www.w3.org/1999/xlink">
<g id="graph0" class="graph" transform="scale(1 1) rotate(0) translate(4 549)">
<title>PREVIEW</title>
<text text-anchor="middle" x="909.25" y="-521.8" font-family="Cascadia Code PL" font-size="24.00" fill="white">PREVIEW WINDOW STATE MACHINE</text>
<g id="clust5" class="cluster">
<title>cluster_legend</title>
<polygon fill="transparent" stroke="white" stroke-dasharray="5,2" points="1540.5,-302.64 1540.5,-471.86 1810.5,-471.86 1810.5,-302.64 1540.5,-302.64"/>
<text text-anchor="middle" x="1568.5" y="-459.06" font-family="Cascadia Code PL" font-size="11.00" fill="white">LEGEND</text>
</g>
<g id="clust2" class="cluster">
<title>cluster_modes</title>
<polygon fill="transparent" stroke="orange" stroke-dasharray="5,2" points="884.5,-8 884.5,-376 1269.5,-376 1269.5,-8 884.5,-8"/>
<text text-anchor="middle" x="935" y="-363.2" font-family="Cascadia Code PL" font-size="11.00" fill="orange">PREVIEW MODES</text>
</g>
<g id="clust3" class="cluster">
<title>cluster_features</title>
<polygon fill="transparent" stroke="orange" stroke-dasharray="5,2" points="1116.5,-404 1116.5,-503 1532.5,-503 1532.5,-404 1116.5,-404"/>
<text text-anchor="middle" x="1172.5" y="-490.2" font-family="Cascadia Code PL" font-size="11.00" fill="orange">PREVIEW FEATURES</text>
</g>
<!-- MAIN -->
<g id="node1" class="node">
<title>MAIN</title>
<polygon fill="none" stroke="orange" stroke-width="2" points="441.5,-461.5 438.5,-465.5 417.5,-465.5 414.5,-461.5 347.5,-461.5 347.5,-425.5 441.5,-425.5 441.5,-461.5"/>
<text text-anchor="middle" x="394.5" y="-440.1" font-family="Cascadia Code PL" font-size="13.00" fill="orange">MAIN STATES</text>
</g>
<!-- S_HIDDEN -->
<g id="node4" class="node">
<title>S_HIDDEN</title>
<polygon fill="none" stroke="white" points="475,-345 314,-345 314,-277 475,-277 475,-345"/>
<text text-anchor="middle" x="394.5" y="-332.2" font-family="Cascadia Code PL" font-size="11.00" fill="cyan">1 · HIDDEN</text>
<text text-anchor="middle" x="394.5" y="-320.2" font-family="Cascadia Code PL" font-size="11.00" fill="cyan">─────────────────</text>
<text text-anchor="middle" x="394.5" y="-308.2" font-family="Cascadia Code PL" font-size="11.00" fill="cyan">SCRN.showPreview% = FALSE</text>
<text text-anchor="middle" x="394.5" y="-296.2" font-family="Cascadia Code PL" font-size="11.00" fill="cyan">ManuallyHidden% = TRUE</text>
<text text-anchor="middle" x="394.5" y="-284.2" font-family="Cascadia Code PL" font-size="11.00" fill="cyan">Not rendered</text>
</g>
<!-- MAIN&#45;&gt;S_HIDDEN -->
<g id="edge17" class="edge">
<title>MAIN&#45;&gt;S_HIDDEN</title>
<path fill="none" stroke="#555555" stroke-dasharray="1,5" d="M394.5,-425.44C394.5,-405.13 394.5,-370.74 394.5,-345.14"/>
</g>
<!-- MODES -->
<g id="node2" class="node">
<title>MODES</title>
<polygon fill="none" stroke="orange" stroke-width="2" points="1106,-461.5 1103,-465.5 1082,-465.5 1079,-461.5 989,-461.5 989,-425.5 1106,-425.5 1106,-461.5"/>
<text text-anchor="middle" x="1047.5" y="-440.1" font-family="Cascadia Code PL" font-size="13.00" fill="orange">PREVIEW MODES</text>
</g>
<!-- PM_FOLLOW -->
<g id="node10" class="node">
<title>PM_FOLLOW</title>
<polygon fill="none" stroke="white" points="1119,-348 976,-348 976,-274 1119,-274 1119,-348"/>
<text text-anchor="middle" x="1047.5" y="-336" font-family="Cascadia Code PL" font-size="10.00" fill="cyan">Follow Magnifier</text>
<text text-anchor="middle" x="1047.5" y="-325" font-family="Cascadia Code PL" font-size="10.00" fill="cyan">────────────</text>
<text text-anchor="middle" x="1047.5" y="-314" font-family="Cascadia Code PL" font-size="10.00" fill="cyan">PREVIEW.mode% = FOLLOW</text>
<text text-anchor="middle" x="1047.5" y="-303" font-family="Cascadia Code PL" font-size="10.00" fill="cyan">Shows zoomed area</text>
<text text-anchor="middle" x="1047.5" y="-292" font-family="Cascadia Code PL" font-size="10.00" fill="cyan">around cursor position</text>
<text text-anchor="middle" x="1047.5" y="-281" font-family="Cascadia Code PL" font-size="10.00" fill="cyan">Real&#45;time update</text>
</g>
<!-- MODES&#45;&gt;PM_FOLLOW -->
<g id="edge18" class="edge">
<title>MODES&#45;&gt;PM_FOLLOW</title>
<path fill="none" stroke="#555555" stroke-dasharray="1,5" d="M1047.5,-425.44C1047.5,-412.64 1047.5,-394.25 1047.5,-376"/>
</g>
<!-- INTERACT -->
<g id="node3" class="node">
<title>INTERACT</title>
<polygon fill="none" stroke="orange" stroke-width="2" points="916.5,-461.5 913.5,-465.5 892.5,-465.5 889.5,-461.5 812.5,-461.5 812.5,-425.5 916.5,-425.5 916.5,-461.5"/>
<text text-anchor="middle" x="864.5" y="-440.1" font-family="Cascadia Code PL" font-size="13.00" fill="orange">INTERACTIONS</text>
</g>
<!-- S_DRAGGING -->
<g id="node6" class="node">
<title>S_DRAGGING</title>
<polygon fill="none" stroke="white" points="811,-87 656,-87 656,-19 811,-19 811,-87"/>
<text text-anchor="middle" x="733.5" y="-74.2" font-family="Cascadia Code PL" font-size="11.00" fill="cyan">3 · DRAGGING</text>
<text text-anchor="middle" x="733.5" y="-62.2" font-family="Cascadia Code PL" font-size="11.00" fill="cyan">─────────────────</text>
<text text-anchor="middle" x="733.5" y="-50.2" font-family="Cascadia Code PL" font-size="11.00" fill="cyan">PREVIEW.dragging% = TRUE</text>
<text text-anchor="middle" x="733.5" y="-38.2" font-family="Cascadia Code PL" font-size="11.00" fill="cyan">Window being repositioned</text>
<text text-anchor="middle" x="733.5" y="-26.2" font-family="Cascadia Code PL" font-size="11.00" fill="cyan">Follows mouse offset</text>
</g>
<!-- INTERACT&#45;&gt;S_DRAGGING -->
<g id="edge19" class="edge">
<title>INTERACT&#45;&gt;S_DRAGGING</title>
<path fill="none" stroke="#555555" stroke-dasharray="1,5" d="M865.69,-425.23C869.55,-364.34 879.56,-160.49 844.5,-108 836.23,-95.61 824.27,-85.97 811.23,-78.5"/>
</g>
<!-- S_VISIBLE -->
<g id="node5" class="node">
<title>S_VISIBLE</title>
<polygon fill="none" stroke="white" points="473.5,-217 315.5,-217 315.5,-149 473.5,-149 473.5,-217"/>
<text text-anchor="middle" x="394.5" y="-204.2" font-family="Cascadia Code PL" font-size="11.00" fill="cyan">2 · VISIBLE</text>
<text text-anchor="middle" x="394.5" y="-192.2" font-family="Cascadia Code PL" font-size="11.00" fill="cyan">─────────────────</text>
<text text-anchor="middle" x="394.5" y="-180.2" font-family="Cascadia Code PL" font-size="11.00" fill="cyan">SCRN.showPreview% = TRUE</text>
<text text-anchor="middle" x="394.5" y="-168.2" font-family="Cascadia Code PL" font-size="11.00" fill="cyan">Floating window rendered</text>
<text text-anchor="middle" x="394.5" y="-156.2" font-family="Cascadia Code PL" font-size="11.00" fill="cyan">Mode determines content</text>
</g>
<!-- S_HIDDEN&#45;&gt;S_VISIBLE -->
<g id="edge1" class="edge">
<title>S_HIDDEN&#45;&gt;S_VISIBLE</title>
<path fill="none" stroke="#66cc66" d="M413.29,-276.86C416.28,-270.15 418.9,-263 420.5,-256 422.69,-246.38 421.43,-236.29 418.53,-226.81"/>
<polygon fill="#66cc66" stroke="#66cc66" points="421.73,-225.37 414.99,-217.19 415.16,-227.78 421.73,-225.37"/>
<text text-anchor="middle" x="459" y="-244.8" font-family="Cascadia Code PL" font-size="9.00" fill="#aaaaaa"> &#160;F7 / Menu toggle</text>
</g>
<!-- S_VISIBLE&#45;&gt;S_HIDDEN -->
<g id="edge2" class="edge">
<title>S_VISIBLE&#45;&gt;S_HIDDEN</title>
<path fill="none" stroke="#cc6666" stroke-dasharray="5,2" d="M356.11,-217.23C350.97,-223.57 346.45,-230.57 343.5,-238 339.34,-248.46 341.77,-258.85 347.36,-268.35"/>
<polygon fill="#cc6666" stroke="#cc6666" points="344.67,-270.61 353.27,-276.79 350.4,-266.6 344.67,-270.61"/>
<text text-anchor="middle" x="380" y="-244.8" font-family="Cascadia Code PL" font-size="9.00" fill="#aaaaaa"> &#160;F7 / Menu toggle</text>
</g>
<!-- S_VISIBLE&#45;&gt;S_DRAGGING -->
<g id="edge3" class="edge">
<title>S_VISIBLE&#45;&gt;S_DRAGGING</title>
<path fill="none" stroke="#66cc66" d="M473.87,-177.91C556.05,-172.07 677.14,-158.46 711.5,-128 720.42,-120.09 725.8,-108.75 729.02,-97.31"/>
<polygon fill="#66cc66" stroke="#66cc66" points="732.49,-97.84 731.33,-87.31 725.67,-96.27 732.49,-97.84"/>
<text text-anchor="middle" x="782.5" y="-120.8" font-family="Cascadia Code PL" font-size="9.00" fill="#aaaaaa"> &#160;B1 on title bar</text>
<text text-anchor="middle" x="782.5" y="-110.8" font-family="Cascadia Code PL" font-size="9.00" fill="#aaaaaa"> &#160;PREVIEW.dragging% = TRUE</text>
</g>
<!-- S_RESIZING -->
<g id="node7" class="node">
<title>S_RESIZING</title>
<polygon fill="none" stroke="white" points="149,-87 0,-87 0,-19 149,-19 149,-87"/>
<text text-anchor="middle" x="74.5" y="-74.2" font-family="Cascadia Code PL" font-size="11.00" fill="cyan">4 · RESIZING</text>
<text text-anchor="middle" x="74.5" y="-62.2" font-family="Cascadia Code PL" font-size="11.00" fill="cyan">─────────────────</text>
<text text-anchor="middle" x="74.5" y="-50.2" font-family="Cascadia Code PL" font-size="11.00" fill="cyan">PREVIEW.resizing% = TRUE</text>
<text text-anchor="middle" x="74.5" y="-38.2" font-family="Cascadia Code PL" font-size="11.00" fill="cyan">Corner/edge resize handle</text>
<text text-anchor="middle" x="74.5" y="-26.2" font-family="Cascadia Code PL" font-size="11.00" fill="cyan">Min/max size clamped</text>
</g>
<!-- S_VISIBLE&#45;&gt;S_RESIZING -->
<g id="edge5" class="edge">
<title>S_VISIBLE&#45;&gt;S_RESIZING</title>
<path fill="none" stroke="#66cc66" d="M315.42,-181.41C222.36,-178.83 76.08,-168.28 41.5,-128 33.55,-118.74 34.78,-107.25 39.88,-96.11"/>
<polygon fill="#66cc66" stroke="#66cc66" points="42.98,-97.75 44.71,-87.3 36.83,-94.39 42.98,-97.75"/>
<text text-anchor="middle" x="82" y="-115.8" font-family="Cascadia Code PL" font-size="9.00" fill="#aaaaaa"> &#160;B1 on resize handle</text>
</g>
<!-- S_PANNING -->
<g id="node8" class="node">
<title>S_PANNING</title>
<polygon fill="none" stroke="white" points="324.5,-87 170.5,-87 170.5,-19 324.5,-19 324.5,-87"/>
<text text-anchor="middle" x="247.5" y="-74.2" font-family="Cascadia Code PL" font-size="11.00" fill="cyan">5 · PANNING</text>
<text text-anchor="middle" x="247.5" y="-62.2" font-family="Cascadia Code PL" font-size="11.00" fill="cyan">─────────────────</text>
<text text-anchor="middle" x="247.5" y="-50.2" font-family="Cascadia Code PL" font-size="11.00" fill="cyan">PREVIEW.panning% = TRUE</text>
<text text-anchor="middle" x="247.5" y="-38.2" font-family="Cascadia Code PL" font-size="11.00" fill="cyan">Image pan within window</text>
<text text-anchor="middle" x="247.5" y="-26.2" font-family="Cascadia Code PL" font-size="11.00" fill="cyan">Middle&#45;click or Space+drag</text>
</g>
<!-- S_VISIBLE&#45;&gt;S_PANNING -->
<g id="edge7" class="edge">
<title>S_VISIBLE&#45;&gt;S_PANNING</title>
<path fill="none" stroke="#66cc66" d="M315.32,-178.4C279.43,-172.32 240.06,-158.47 217.5,-128 210.48,-118.51 211.44,-107.15 215.86,-96.21"/>
<polygon fill="#66cc66" stroke="#66cc66" points="219.04,-97.69 220.29,-87.17 212.75,-94.61 219.04,-97.69"/>
<text text-anchor="middle" x="272.5" y="-115.8" font-family="Cascadia Code PL" font-size="9.00" fill="#aaaaaa"> &#160;Middle&#45;click / Space+drag</text>
</g>
<!-- S_COLOR_PICK -->
<g id="node9" class="node">
<title>S_COLOR_PICK</title>
<polygon fill="none" stroke="white" points="568,-87 437,-87 437,-19 568,-19 568,-87"/>
<text text-anchor="middle" x="502.5" y="-74.2" font-family="Cascadia Code PL" font-size="11.00" fill="cyan">6 · COLOR PICKING</text>
<text text-anchor="middle" x="502.5" y="-62.2" font-family="Cascadia Code PL" font-size="11.00" fill="cyan">─────────────────</text>
<text text-anchor="middle" x="502.5" y="-50.2" font-family="Cascadia Code PL" font-size="11.00" fill="cyan">Click on preview image</text>
<text text-anchor="middle" x="502.5" y="-38.2" font-family="Cascadia Code PL" font-size="11.00" fill="cyan">Samples pixel color</text>
<text text-anchor="middle" x="502.5" y="-26.2" font-family="Cascadia Code PL" font-size="11.00" fill="cyan">Sets PAINT_COLOR~&amp;</text>
</g>
<!-- S_VISIBLE&#45;&gt;S_COLOR_PICK -->
<g id="edge9" class="edge">
<title>S_VISIBLE&#45;&gt;S_COLOR_PICK</title>
<path fill="none" stroke="#66cc66" d="M412.23,-148.87C420.07,-135.55 429.91,-120.44 440.5,-108 444.51,-103.29 448.93,-98.63 453.52,-94.14"/>
<polygon fill="#66cc66" stroke="#66cc66" points="455.97,-96.64 460.83,-87.23 451.16,-91.56 455.97,-96.64"/>
<text text-anchor="middle" x="492" y="-115.8" font-family="Cascadia Code PL" font-size="9.00" fill="#aaaaaa"> &#160;B1 on image (pick mode)</text>
</g>
<!-- S_DRAGGING&#45;&gt;S_VISIBLE -->
<g id="edge4" class="edge">
<title>S_DRAGGING&#45;&gt;S_VISIBLE</title>
<path fill="none" stroke="#cccc66" d="M680.38,-87.01C649.17,-106.36 615.42,-127.2 613.5,-128 572.22,-145.32 524.13,-157.94 483.55,-166.6"/>
<polygon fill="#cccc66" stroke="#cccc66" points="482.75,-163.19 473.67,-168.66 484.18,-170.04 482.75,-163.19"/>
<text text-anchor="middle" x="674" y="-120.8" font-family="Cascadia Code PL" font-size="9.00" fill="#aaaaaa"> &#160;B1 released</text>
<text text-anchor="middle" x="674" y="-110.8" font-family="Cascadia Code PL" font-size="9.00" fill="#aaaaaa"> &#160;Position saved</text>
</g>
<!-- S_RESIZING&#45;&gt;S_VISIBLE -->
<g id="edge6" class="edge">
<title>S_RESIZING&#45;&gt;S_VISIBLE</title>
<path fill="none" stroke="#cccc66" d="M105.21,-87.32C120.26,-101.82 139.45,-117.79 159.5,-128 204.67,-151.01 259.69,-164.33 305.13,-171.98"/>
<polygon fill="#cccc66" stroke="#cccc66" points="304.84,-175.48 315.27,-173.63 305.96,-168.57 304.84,-175.48"/>
<text text-anchor="middle" x="184" y="-120.8" font-family="Cascadia Code PL" font-size="9.00" fill="#aaaaaa"> &#160;B1 released</text>
<text text-anchor="middle" x="184" y="-110.8" font-family="Cascadia Code PL" font-size="9.00" fill="#aaaaaa"> &#160;Size saved</text>
</g>
<!-- S_PANNING&#45;&gt;S_VISIBLE -->
<g id="edge8" class="edge">
<title>S_PANNING&#45;&gt;S_VISIBLE</title>
<path fill="none" stroke="#cccc66" d="M300.48,-87.11C309.78,-93.66 319.14,-100.75 327.5,-108 338.99,-117.96 350.47,-129.79 360.61,-141.03"/>
<polygon fill="#cccc66" stroke="#cccc66" points="358.14,-143.53 367.39,-148.69 363.38,-138.89 358.14,-143.53"/>
<text text-anchor="middle" x="381" y="-115.8" font-family="Cascadia Code PL" font-size="9.00" fill="#aaaaaa"> &#160;Button released</text>
</g>
<!-- S_COLOR_PICK&#45;&gt;S_VISIBLE -->
<g id="edge10" class="edge">
<title>S_COLOR_PICK&#45;&gt;S_VISIBLE</title>
<path fill="none" stroke="#cccc66" d="M537.44,-87.32C546.95,-100.38 552.44,-115.25 543.5,-128 529.27,-148.29 506.6,-160.99 483.2,-168.93"/>
<polygon fill="#cccc66" stroke="#cccc66" points="482.01,-165.63 473.5,-171.94 484.09,-172.32 482.01,-165.63"/>
<text text-anchor="middle" x="579" y="-115.8" font-family="Cascadia Code PL" font-size="9.00" fill="#aaaaaa"> &#160;Color sampled</text>
</g>
<!-- PM_FLOAT -->
<g id="node11" class="node">
<title>PM_FLOAT</title>
<polygon fill="none" stroke="white" points="1042.5,-220 892.5,-220 892.5,-146 1042.5,-146 1042.5,-220"/>
<text text-anchor="middle" x="967.5" y="-208" font-family="Cascadia Code PL" font-size="10.00" fill="cyan">Floating Image</text>
<text text-anchor="middle" x="967.5" y="-197" font-family="Cascadia Code PL" font-size="10.00" fill="cyan">────────────</text>
<text text-anchor="middle" x="967.5" y="-186" font-family="Cascadia Code PL" font-size="10.00" fill="cyan">PREVIEW.mode% = FLOATING</text>
<text text-anchor="middle" x="967.5" y="-175" font-family="Cascadia Code PL" font-size="10.00" fill="cyan">Shows full canvas</text>
<text text-anchor="middle" x="967.5" y="-164" font-family="Cascadia Code PL" font-size="10.00" fill="cyan">at independent zoom</text>
<text text-anchor="middle" x="967.5" y="-153" font-family="Cascadia Code PL" font-size="10.00" fill="cyan">Pan/zoom within window</text>
</g>
<!-- PM_FOLLOW&#45;&gt;PM_FLOAT -->
<g id="edge11" class="edge">
<title>PM_FOLLOW&#45;&gt;PM_FLOAT</title>
<path fill="none" stroke="#88aacc" d="M975.76,-287.58C961.76,-279.83 948.84,-269.56 940.5,-256 935.52,-247.9 935.4,-238.73 937.82,-229.72"/>
<polygon fill="#88aacc" stroke="#88aacc" points="941.2,-230.65 941.34,-220.06 934.63,-228.26 941.2,-230.65"/>
<text text-anchor="middle" x="968" y="-249.6" font-family="Cascadia Code PL" font-size="8.00" fill="#aaaaaa"> Menu / hotkey</text>
<text text-anchor="middle" x="968" y="-240.6" font-family="Cascadia Code PL" font-size="8.00" fill="#aaaaaa"> mode switch</text>
</g>
<!-- PM_QUICK -->
<g id="node12" class="node">
<title>PM_QUICK</title>
<polygon fill="none" stroke="white" points="1107.5,-90 979.5,-90 979.5,-16 1107.5,-16 1107.5,-90"/>
<text text-anchor="middle" x="1043.5" y="-78" font-family="Cascadia Code PL" font-size="10.00" fill="cyan">Bin Quick Look</text>
<text text-anchor="middle" x="1043.5" y="-67" font-family="Cascadia Code PL" font-size="10.00" fill="cyan">────────────</text>
<text text-anchor="middle" x="1043.5" y="-56" font-family="Cascadia Code PL" font-size="10.00" fill="cyan">Hover over drawer slot</text>
<text text-anchor="middle" x="1043.5" y="-45" font-family="Cascadia Code PL" font-size="10.00" fill="cyan">Shows slot content</text>
<text text-anchor="middle" x="1043.5" y="-34" font-family="Cascadia Code PL" font-size="10.00" fill="cyan">Preview of brush/pattern</text>
<text text-anchor="middle" x="1043.5" y="-23" font-family="Cascadia Code PL" font-size="10.00" fill="cyan">Auto&#45;hides on leave</text>
</g>
<!-- PM_FOLLOW&#45;&gt;PM_QUICK -->
<g id="edge13" class="edge">
<title>PM_FOLLOW&#45;&gt;PM_QUICK</title>
<path fill="none" stroke="#88aacc" d="M1064.7,-273.94C1066.97,-268.05 1069.02,-261.93 1070.5,-256 1086.45,-192 1101.41,-170.88 1081.5,-108 1080.56,-105.04 1079.4,-102.09 1078.06,-99.2"/>
<polygon fill="#88aacc" stroke="#88aacc" points="1081.06,-97.38 1073.29,-90.17 1074.87,-100.65 1081.06,-97.38"/>
<text text-anchor="middle" x="1124" y="-181.1" font-family="Cascadia Code PL" font-size="8.00" fill="#aaaaaa"> Drawer slot hover</text>
</g>
<!-- PM_FLOAT&#45;&gt;PM_FOLLOW -->
<g id="edge12" class="edge">
<title>PM_FLOAT&#45;&gt;PM_FOLLOW</title>
<path fill="none" stroke="#88aacc" d="M990.43,-220.11C999.38,-234.22 1009.74,-250.53 1019.16,-265.36"/>
<polygon fill="#88aacc" stroke="#88aacc" points="1016.26,-267.33 1024.58,-273.89 1022.17,-263.58 1016.26,-267.33"/>
<text text-anchor="middle" x="1039" y="-249.6" font-family="Cascadia Code PL" font-size="8.00" fill="#aaaaaa"> Menu / hotkey</text>
<text text-anchor="middle" x="1039" y="-240.6" font-family="Cascadia Code PL" font-size="8.00" fill="#aaaaaa"> mode switch</text>
</g>
<!-- PM_FLOAT&#45;&gt;PM_QUICK -->
<g id="edge14" class="edge">
<title>PM_FLOAT&#45;&gt;PM_QUICK</title>
<path fill="none" stroke="#88aacc" d="M918.46,-145.71C908.37,-133.89 903.06,-120.57 911.5,-108 924.9,-88.03 947.14,-75.45 969.57,-67.51"/>
<polygon fill="#88aacc" stroke="#88aacc" points="970.75,-70.81 979.17,-64.39 968.58,-64.15 970.75,-70.81"/>
<text text-anchor="middle" x="945" y="-116.1" font-family="Cascadia Code PL" font-size="8.00" fill="#aaaaaa"> Drawer slot hover</text>
</g>
<!-- PM_QUICK&#45;&gt;PM_FOLLOW -->
<g id="edge15" class="edge">
<title>PM_QUICK&#45;&gt;PM_FOLLOW</title>
<path fill="none" stroke="#cc6666" stroke-dasharray="5,2" d="M1107.77,-89.07C1128.17,-103.76 1148.32,-122.86 1159.5,-146 1173.81,-175.61 1173.71,-190.34 1159.5,-220 1150.61,-238.56 1135.81,-254.5 1119.85,-267.59"/>
<polygon fill="#cc6666" stroke="#cc6666" points="1117.65,-264.86 1111.93,-273.78 1121.97,-270.37 1117.65,-264.86"/>
<text text-anchor="middle" x="1209.5" y="-185.6" font-family="Cascadia Code PL" font-size="8.00" fill="#aaaaaa"> Mouse leaves slot</text>
<text text-anchor="middle" x="1209.5" y="-176.6" font-family="Cascadia Code PL" font-size="8.00" fill="#aaaaaa"> (return to prev mode)</text>
</g>
<!-- PM_QUICK&#45;&gt;PM_FLOAT -->
<g id="edge16" class="edge">
<title>PM_QUICK&#45;&gt;PM_FLOAT</title>
<path fill="none" stroke="#cc6666" stroke-dasharray="5,2" d="M1013.63,-90.08C1009.33,-95.91 1005.14,-102.01 1001.5,-108 996.05,-116.97 990.9,-126.97 986.33,-136.64"/>
<polygon fill="#cc6666" stroke="#cc6666" points="983.14,-135.21 982.15,-145.76 989.5,-138.13 983.14,-135.21"/>
<text text-anchor="middle" x="1041.5" y="-120.6" font-family="Cascadia Code PL" font-size="8.00" fill="#aaaaaa"> Mouse leaves slot</text>
<text text-anchor="middle" x="1041.5" y="-111.6" font-family="Cascadia Code PL" font-size="8.00" fill="#aaaaaa"> (return to prev mode)</text>
</g>
<!-- F_ZOOM -->
<g id="node13" class="node">
<title>F_ZOOM</title>
<polygon fill="none" stroke="white" points="1524,-475 1399,-475 1399,-412 1524,-412 1524,-475"/>
<text text-anchor="middle" x="1461.5" y="-463" font-family="Cascadia Code PL" font-size="10.00" fill="cyan">Preview Zoom</text>
<text text-anchor="middle" x="1461.5" y="-452" font-family="Cascadia Code PL" font-size="10.00" fill="cyan">────────────</text>
<text text-anchor="middle" x="1461.5" y="-441" font-family="Cascadia Code PL" font-size="10.00" fill="cyan">Mousewheel in preview</text>
<text text-anchor="middle" x="1461.5" y="-430" font-family="Cascadia Code PL" font-size="10.00" fill="cyan">Independent zoom level</text>
<text text-anchor="middle" x="1461.5" y="-419" font-family="Cascadia Code PL" font-size="10.00" fill="cyan">Min 1x, Max 8x</text>
</g>
<!-- F_RECENT -->
<g id="node14" class="node">
<title>F_RECENT</title>
<polygon fill="none" stroke="white" points="1380.5,-475 1252.5,-475 1252.5,-412 1380.5,-412 1380.5,-475"/>
<text text-anchor="middle" x="1316.5" y="-463" font-family="Cascadia Code PL" font-size="10.00" fill="cyan">Recent Images</text>
<text text-anchor="middle" x="1316.5" y="-452" font-family="Cascadia Code PL" font-size="10.00" fill="cyan">────────────</text>
<text text-anchor="middle" x="1316.5" y="-441" font-family="Cascadia Code PL" font-size="10.00" fill="cyan">Up to 10 recent previews</text>
<text text-anchor="middle" x="1316.5" y="-430" font-family="Cascadia Code PL" font-size="10.00" fill="cyan">Accessible via submenu</text>
<text text-anchor="middle" x="1316.5" y="-419" font-family="Cascadia Code PL" font-size="10.00" fill="cyan">Quick comparison</text>
</g>
<!-- F_CLAMP -->
<g id="node15" class="node">
<title>F_CLAMP</title>
<polygon fill="none" stroke="white" points="1234.5,-475 1124.5,-475 1124.5,-412 1234.5,-412 1234.5,-475"/>
<text text-anchor="middle" x="1179.5" y="-463" font-family="Cascadia Code PL" font-size="10.00" fill="cyan">Work&#45;Area Clamping</text>
<text text-anchor="middle" x="1179.5" y="-452" font-family="Cascadia Code PL" font-size="10.00" fill="cyan">────────────</text>
<text text-anchor="middle" x="1179.5" y="-441" font-family="Cascadia Code PL" font-size="10.00" fill="cyan">Window stays within</text>
<text text-anchor="middle" x="1179.5" y="-430" font-family="Cascadia Code PL" font-size="10.00" fill="cyan">screen bounds</text>
<text text-anchor="middle" x="1179.5" y="-419" font-family="Cascadia Code PL" font-size="10.00" fill="cyan">Snap to edges</text>
</g>
<!-- L1 -->
<g id="node16" class="node">
<title>L1</title>
<ellipse fill="white" stroke="white" cx="1738.5" cy="-443.5" rx="0.36" ry="0.36"/>
</g>
<!-- L2 -->
<g id="node17" class="node">
<title>L2</title>
<ellipse fill="white" stroke="white" cx="1738.5" cy="-311" rx="0.36" ry="0.36"/>
</g>
<!-- L1&#45;&gt;L2 -->
<g id="edge20" class="edge">
<title>L1&#45;&gt;L2</title>
<path fill="none" stroke="#66cc66" d="M1738.5,-442.41C1738.5,-439.14 1738.5,-352.15 1738.5,-322.1"/>
<polygon fill="#66cc66" stroke="#66cc66" points="1742,-322.09 1738.5,-312.09 1735,-322.09 1742,-322.09"/>
<text text-anchor="middle" x="1770.5" y="-386.8" font-family="Cascadia Code PL" font-size="9.00" fill="#aaaaaa"> Activate / Enter</text>
</g>
<!-- L3 -->
<g id="node18" class="node">
<title>L3</title>
<ellipse fill="white" stroke="white" cx="1654.5" cy="-443.5" rx="0.36" ry="0.36"/>
</g>
<!-- L4 -->
<g id="node19" class="node">
<title>L4</title>
<ellipse fill="white" stroke="white" cx="1654.5" cy="-311" rx="0.36" ry="0.36"/>
</g>
<!-- L3&#45;&gt;L4 -->
<g id="edge21" class="edge">
<title>L3&#45;&gt;L4</title>
<path fill="none" stroke="#cc6666" stroke-dasharray="5,2" d="M1654.5,-442.41C1654.5,-439.14 1654.5,-352.15 1654.5,-322.1"/>
<polygon fill="#cc6666" stroke="#cc6666" points="1658,-322.09 1654.5,-312.09 1651,-322.09 1658,-322.09"/>
<text text-anchor="middle" x="1685" y="-386.8" font-family="Cascadia Code PL" font-size="9.00" fill="#aaaaaa"> Close / Release</text>
</g>
<!-- L5 -->
<g id="node20" class="node">
<title>L5</title>
<ellipse fill="white" stroke="white" cx="1566.5" cy="-443.5" rx="0.36" ry="0.36"/>
</g>
<!-- L6 -->
<g id="node21" class="node">
<title>L6</title>
<ellipse fill="white" stroke="white" cx="1566.5" cy="-311" rx="0.36" ry="0.36"/>
</g>
<!-- L5&#45;&gt;L6 -->
<g id="edge22" class="edge">
<title>L5&#45;&gt;L6</title>
<path fill="none" stroke="#cccc66" d="M1566.5,-442.41C1566.5,-439.14 1566.5,-352.15 1566.5,-322.1"/>
<polygon fill="#cccc66" stroke="#cccc66" points="1570,-322.09 1566.5,-312.09 1563,-322.09 1570,-322.09"/>
<text text-anchor="middle" x="1599" y="-386.8" font-family="Cascadia Code PL" font-size="9.00" fill="#aaaaaa"> Commit / Apply</text>
</g>
</g>
</svg>
