<?xml version="1.0" encoding="UTF-8" standalone="no"?>
<!DOCTYPE svg PUBLIC "-//W3C//DTD SVG 1.1//EN"
 "http://www.w3.org/Graphics/SVG/1.1/DTD/svg11.dtd">
<!-- Generated by graphviz version 2.42.4 (0)
 -->
<!-- Title: SETTINGS_DIALOG Pages: 1 -->
<svg width="1695pt" height="664pt"
 viewBox="0.00 0.00 1695.00 664.00" xmlns="http://www.w3.org/2000/svg" xmlns:xlink="http://www.w3.org/1999/xlink">
<g id="graph0" class="graph" transform="scale(1 1) rotate(0) translate(4 660)">
<title>SETTINGS_DIALOG</title>
<text text-anchor="middle" x="843.5" y="-632.8" font-family="Cascadia Code PL" font-size="24.00" fill="white">SETTINGS DIALOG STATE MACHINE</text>
<g id="clust2" class="cluster">
<title>cluster_tabs</title>
<polygon fill="transparent" stroke="orange" stroke-dasharray="5,2" points="297,-509.5 297,-608.5 1105,-608.5 1105,-509.5 297,-509.5"/>
<text text-anchor="middle" x="325" y="-595.7" font-family="Cascadia Code PL" font-size="11.00" fill="orange">TABS (8)</text>
</g>
<g id="clust3" class="cluster">
<title>cluster_modal</title>
<polygon fill="transparent" stroke="orange" stroke-dasharray="5,2" points="1113,-504 1113,-614 1435,-614 1435,-504 1113,-504"/>
<text text-anchor="middle" x="1166.5" y="-601.2" font-family="Cascadia Code PL" font-size="11.00" fill="orange">MODAL BEHAVIOR</text>
</g>
<g id="clust5" class="cluster">
<title>cluster_legend</title>
<polygon fill="transparent" stroke="white" stroke-dasharray="5,2" points="1443,-423.64 1443,-577.36 1679,-577.36 1679,-423.64 1443,-423.64"/>
<text text-anchor="middle" x="1471" y="-564.56" font-family="Cascadia Code PL" font-size="11.00" fill="white">LEGEND</text>
</g>
<!-- MAIN -->
<g id="node1" class="node">
<title>MAIN</title>
<polygon fill="none" stroke="orange" stroke-width="2" points="287,-567 284,-571 263,-571 260,-567 165,-567 165,-531 287,-531 287,-567"/>
<text text-anchor="middle" x="226" y="-545.6" font-family="Cascadia Code PL" font-size="13.00" fill="orange">SETTINGS DIALOG</text>
</g>
<!-- S_CLOSED -->
<g id="node2" class="node">
<title>S_CLOSED</title>
<polygon fill="none" stroke="white" points="300.5,-466 151.5,-466 151.5,-398 300.5,-398 300.5,-466"/>
<text text-anchor="middle" x="226" y="-453.2" font-family="Cascadia Code PL" font-size="11.00" fill="cyan">1 · CLOSED</text>
<text text-anchor="middle" x="226" y="-441.2" font-family="Cascadia Code PL" font-size="11.00" fill="cyan">─────────────────</text>
<text text-anchor="middle" x="226" y="-429.2" font-family="Cascadia Code PL" font-size="11.00" fill="cyan">SETTINGS.visible% = FALSE</text>
<text text-anchor="middle" x="226" y="-417.2" font-family="Cascadia Code PL" font-size="11.00" fill="cyan">No modal active</text>
<text text-anchor="middle" x="226" y="-405.2" font-family="Cascadia Code PL" font-size="11.00" fill="cyan">Normal app input</text>
</g>
<!-- MAIN&#45;&gt;S_CLOSED -->
<g id="edge9" class="edge">
<title>MAIN&#45;&gt;S_CLOSED</title>
<path fill="none" stroke="#555555" stroke-dasharray="1,5" d="M226,-530.53C226,-513.57 226,-487.37 226,-466.4"/>
</g>
<!-- S_OPENING -->
<g id="node3" class="node">
<title>S_OPENING</title>
<polygon fill="none" stroke="white" points="291,-342 161,-342 161,-262 291,-262 291,-342"/>
<text text-anchor="middle" x="226" y="-329.2" font-family="Cascadia Code PL" font-size="11.00" fill="cyan">2 · OPENING</text>
<text text-anchor="middle" x="226" y="-317.2" font-family="Cascadia Code PL" font-size="11.00" fill="cyan">─────────────────</text>
<text text-anchor="middle" x="226" y="-305.2" font-family="Cascadia Code PL" font-size="11.00" fill="cyan">SETTINGS_open()</text>
<text text-anchor="middle" x="226" y="-293.2" font-family="Cascadia Code PL" font-size="11.00" fill="cyan">Snapshot CFG.* values</text>
<text text-anchor="middle" x="226" y="-281.2" font-family="Cascadia Code PL" font-size="11.00" fill="cyan">Load current tab</text>
<text text-anchor="middle" x="226" y="-269.2" font-family="Cascadia Code PL" font-size="11.00" fill="cyan">SCENE_DIRTY% = TRUE</text>
</g>
<!-- S_CLOSED&#45;&gt;S_OPENING -->
<g id="edge1" class="edge">
<title>S_CLOSED&#45;&gt;S_OPENING</title>
<path fill="none" stroke="#66cc66" d="M226,-397.7C226,-383.86 226,-367.51 226,-352.32"/>
<polygon fill="#66cc66" stroke="#66cc66" points="229.5,-352.04 226,-342.04 222.5,-352.04 229.5,-352.04"/>
<text text-anchor="middle" x="261" y="-372.8" font-family="Cascadia Code PL" font-size="9.00" fill="#aaaaaa"> &#160;Edit → Settings...</text>
<text text-anchor="middle" x="261" y="-362.8" font-family="Cascadia Code PL" font-size="9.00" fill="#aaaaaa"> &#160;(action ID)</text>
</g>
<!-- S_OPEN -->
<g id="node4" class="node">
<title>S_OPEN</title>
<polygon fill="none" stroke="white" points="309.5,-206 142.5,-206 142.5,-126 309.5,-126 309.5,-206"/>
<text text-anchor="middle" x="226" y="-193.2" font-family="Cascadia Code PL" font-size="11.00" fill="cyan">3 · OPEN (TABBED)</text>
<text text-anchor="middle" x="226" y="-181.2" font-family="Cascadia Code PL" font-size="11.00" fill="cyan">─────────────────</text>
<text text-anchor="middle" x="226" y="-169.2" font-family="Cascadia Code PL" font-size="11.00" fill="cyan">Modal overlay active</text>
<text text-anchor="middle" x="226" y="-157.2" font-family="Cascadia Code PL" font-size="11.00" fill="cyan">Left tab list rendered</text>
<text text-anchor="middle" x="226" y="-145.2" font-family="Cascadia Code PL" font-size="11.00" fill="cyan">Right content panel</text>
<text text-anchor="middle" x="226" y="-133.2" font-family="Cascadia Code PL" font-size="11.00" fill="cyan">MOUSE_dispatch_tool blocked</text>
</g>
<!-- S_OPENING&#45;&gt;S_OPEN -->
<g id="edge2" class="edge">
<title>S_OPENING&#45;&gt;S_OPEN</title>
<path fill="none" stroke="#cccc66" d="M226,-261.88C226,-247.7 226,-231.48 226,-216.52"/>
<polygon fill="#cccc66" stroke="#cccc66" points="229.5,-216.4 226,-206.4 222.5,-216.4 229.5,-216.4"/>
<text text-anchor="middle" x="254.5" y="-231.8" font-family="Cascadia Code PL" font-size="9.00" fill="#aaaaaa"> &#160;Init complete</text>
</g>
<!-- S_EDITING -->
<g id="node5" class="node">
<title>S_EDITING</title>
<polygon fill="none" stroke="white" points="297,-80 163,-80 163,0 297,0 297,-80"/>
<text text-anchor="middle" x="230" y="-67.2" font-family="Cascadia Code PL" font-size="11.00" fill="cyan">4 · EDITING WIDGET</text>
<text text-anchor="middle" x="230" y="-55.2" font-family="Cascadia Code PL" font-size="11.00" fill="cyan">─────────────────</text>
<text text-anchor="middle" x="230" y="-43.2" font-family="Cascadia Code PL" font-size="11.00" fill="cyan">Focus on text/spinner/</text>
<text text-anchor="middle" x="230" y="-31.2" font-family="Cascadia Code PL" font-size="11.00" fill="cyan">checkbox/dropdown</text>
<text text-anchor="middle" x="230" y="-19.2" font-family="Cascadia Code PL" font-size="11.00" fill="cyan">Live preview where safe</text>
<text text-anchor="middle" x="230" y="-7.2" font-family="Cascadia Code PL" font-size="11.00" fill="cyan">(theme, panels)</text>
</g>
<!-- S_OPEN&#45;&gt;S_EDITING -->
<g id="edge3" class="edge">
<title>S_OPEN&#45;&gt;S_EDITING</title>
<path fill="none" stroke="#66cc66" d="M181.48,-125.81C176.44,-117.11 174.28,-107.61 178,-98 179.21,-94.88 180.68,-91.82 182.35,-88.85"/>
<polygon fill="#66cc66" stroke="#66cc66" points="185.44,-90.51 187.88,-80.2 179.54,-86.74 185.44,-90.51"/>
<text text-anchor="middle" x="216" y="-100.8" font-family="Cascadia Code PL" font-size="9.00" fill="#aaaaaa"> &#160;Click input widget</text>
</g>
<!-- S_CONFIRMING -->
<g id="node6" class="node">
<title>S_CONFIRMING</title>
<polygon fill="none" stroke="white" points="130,-80 0,-80 0,0 130,0 130,-80"/>
<text text-anchor="middle" x="65" y="-67.2" font-family="Cascadia Code PL" font-size="11.00" fill="cyan">5 · CONFIRMING APPLY</text>
<text text-anchor="middle" x="65" y="-55.2" font-family="Cascadia Code PL" font-size="11.00" fill="cyan">─────────────────</text>
<text text-anchor="middle" x="65" y="-43.2" font-family="Cascadia Code PL" font-size="11.00" fill="cyan">OK pressed</text>
<text text-anchor="middle" x="65" y="-31.2" font-family="Cascadia Code PL" font-size="11.00" fill="cyan">Write CFG.* fields</text>
<text text-anchor="middle" x="65" y="-19.2" font-family="Cascadia Code PL" font-size="11.00" fill="cyan">CFG_save to DRAW.cfg</text>
<text text-anchor="middle" x="65" y="-7.2" font-family="Cascadia Code PL" font-size="11.00" fill="cyan">Close dialog</text>
</g>
<!-- S_OPEN&#45;&gt;S_CONFIRMING -->
<g id="edge5" class="edge">
<title>S_OPEN&#45;&gt;S_CONFIRMING</title>
<path fill="none" stroke="#66cc66" d="M142.48,-138.51C126.04,-130.57 109.91,-120.54 97,-108 91.41,-102.57 86.67,-95.97 82.7,-89.05"/>
<polygon fill="#66cc66" stroke="#66cc66" points="85.8,-87.43 78.07,-80.18 79.6,-90.66 85.8,-87.43"/>
<text text-anchor="middle" x="135" y="-100.8" font-family="Cascadia Code PL" font-size="9.00" fill="#aaaaaa"> &#160;OK button clicked</text>
</g>
<!-- S_CANCELING -->
<g id="node7" class="node">
<title>S_CANCELING</title>
<polygon fill="none" stroke="white" points="462,-74 322,-74 322,-6 462,-6 462,-74"/>
<text text-anchor="middle" x="392" y="-61.2" font-family="Cascadia Code PL" font-size="11.00" fill="cyan">6 · CANCELING</text>
<text text-anchor="middle" x="392" y="-49.2" font-family="Cascadia Code PL" font-size="11.00" fill="cyan">─────────────────</text>
<text text-anchor="middle" x="392" y="-37.2" font-family="Cascadia Code PL" font-size="11.00" fill="cyan">Cancel / Esc</text>
<text text-anchor="middle" x="392" y="-25.2" font-family="Cascadia Code PL" font-size="11.00" fill="cyan">Restore CFG.* snapshot</text>
<text text-anchor="middle" x="392" y="-13.2" font-family="Cascadia Code PL" font-size="11.00" fill="cyan">Discard pending changes</text>
</g>
<!-- S_OPEN&#45;&gt;S_CANCELING -->
<g id="edge6" class="edge">
<title>S_OPEN&#45;&gt;S_CANCELING</title>
<path fill="none" stroke="#cc6666" stroke-dasharray="5,2" d="M309.58,-129.36C320.66,-123.01 331.46,-115.87 341,-108 349.89,-100.66 358.15,-91.48 365.31,-82.29"/>
<polygon fill="#cc6666" stroke="#cc6666" points="368.13,-84.36 371.32,-74.26 362.53,-80.17 368.13,-84.36"/>
<text text-anchor="middle" x="377" y="-100.8" font-family="Cascadia Code PL" font-size="9.00" fill="#aaaaaa"> &#160;Cancel / Esc</text>
</g>
<!-- S_EDITING&#45;&gt;S_OPEN -->
<g id="edge4" class="edge">
<title>S_EDITING&#45;&gt;S_OPEN</title>
<path fill="none" stroke="#cccc66" d="M252.06,-80.23C254.87,-89.23 256.13,-98.85 254,-108 253.38,-110.68 252.61,-113.37 251.74,-116.06"/>
<polygon fill="#cccc66" stroke="#cccc66" points="248.36,-115.09 248.14,-125.69 254.92,-117.54 248.36,-115.09"/>
<text text-anchor="middle" x="296.5" y="-100.8" font-family="Cascadia Code PL" font-size="9.00" fill="#aaaaaa"> &#160;Blur / Tab / commit</text>
</g>
<!-- S_CONFIRMING&#45;&gt;S_CLOSED -->
<g id="edge7" class="edge">
<title>S_CONFIRMING&#45;&gt;S_CLOSED</title>
<path fill="none" stroke="#cc6666" stroke-dasharray="5,2" d="M71.07,-80.48C81.35,-139.93 105.75,-254.77 152,-342 161.05,-359.08 173.75,-375.89 186.08,-390.22"/>
<polygon fill="#cc6666" stroke="#cc6666" points="183.62,-392.72 192.86,-397.91 188.87,-388.09 183.62,-392.72"/>
<text text-anchor="middle" x="140" y="-236.8" font-family="Cascadia Code PL" font-size="9.00" fill="#aaaaaa"> &#160;CFG written</text>
<text text-anchor="middle" x="140" y="-226.8" font-family="Cascadia Code PL" font-size="9.00" fill="#aaaaaa"> &#160;Dialog closed</text>
</g>
<!-- S_CANCELING&#45;&gt;S_CLOSED -->
<g id="edge8" class="edge">
<title>S_CANCELING&#45;&gt;S_CLOSED</title>
<path fill="none" stroke="#cc6666" stroke-dasharray="5,2" d="M404.93,-74.31C407.62,-85.03 409.09,-96.99 407,-108 382.8,-235.63 380.78,-278.26 300,-380 296.95,-383.85 293.53,-387.52 289.87,-391"/>
<polygon fill="#cc6666" stroke="#cc6666" points="287.27,-388.62 282.1,-397.87 291.91,-393.87 287.27,-388.62"/>
<text text-anchor="middle" x="421" y="-231.8" font-family="Cascadia Code PL" font-size="9.00" fill="#aaaaaa"> &#160;Snapshot restored</text>
</g>
<!-- T1 -->
<g id="node8" class="node">
<title>T1</title>
<polygon fill="none" stroke="white" points="1097,-580.5 1013,-580.5 1013,-517.5 1097,-517.5 1097,-580.5"/>
<text text-anchor="middle" x="1055" y="-568.5" font-family="Cascadia Code PL" font-size="10.00" fill="cyan">General</text>
<text text-anchor="middle" x="1055" y="-557.5" font-family="Cascadia Code PL" font-size="10.00" fill="cyan">────────────</text>
<text text-anchor="middle" x="1055" y="-546.5" font-family="Cascadia Code PL" font-size="10.00" fill="cyan">FPS limit</text>
<text text-anchor="middle" x="1055" y="-535.5" font-family="Cascadia Code PL" font-size="10.00" fill="cyan">Title behavior</text>
<text text-anchor="middle" x="1055" y="-524.5" font-family="Cascadia Code PL" font-size="10.00" fill="cyan">App&#45;wide flags</text>
</g>
<!-- T2 -->
<g id="node9" class="node">
<title>T2</title>
<polygon fill="none" stroke="white" points="995,-580.5 915,-580.5 915,-517.5 995,-517.5 995,-580.5"/>
<text text-anchor="middle" x="955" y="-568.5" font-family="Cascadia Code PL" font-size="10.00" fill="cyan">Grid</text>
<text text-anchor="middle" x="955" y="-557.5" font-family="Cascadia Code PL" font-size="10.00" fill="cyan">────────────</text>
<text text-anchor="middle" x="955" y="-546.5" font-family="Cascadia Code PL" font-size="10.00" fill="cyan">Default size</text>
<text text-anchor="middle" x="955" y="-535.5" font-family="Cascadia Code PL" font-size="10.00" fill="cyan">Snap mode</text>
<text text-anchor="middle" x="955" y="-524.5" font-family="Cascadia Code PL" font-size="10.00" fill="cyan">Grid color</text>
</g>
<!-- T3 -->
<g id="node10" class="node">
<title>T3</title>
<polygon fill="none" stroke="white" points="896.5,-580.5 813.5,-580.5 813.5,-517.5 896.5,-517.5 896.5,-580.5"/>
<text text-anchor="middle" x="855" y="-568.5" font-family="Cascadia Code PL" font-size="10.00" fill="cyan">Palette</text>
<text text-anchor="middle" x="855" y="-557.5" font-family="Cascadia Code PL" font-size="10.00" fill="cyan">────────────</text>
<text text-anchor="middle" x="855" y="-546.5" font-family="Cascadia Code PL" font-size="10.00" fill="cyan">Default palette</text>
<text text-anchor="middle" x="855" y="-535.5" font-family="Cascadia Code PL" font-size="10.00" fill="cyan">Index display</text>
<text text-anchor="middle" x="855" y="-524.5" font-family="Cascadia Code PL" font-size="10.00" fill="cyan">Cell size</text>
</g>
<!-- T4 -->
<g id="node11" class="node">
<title>T4</title>
<polygon fill="none" stroke="white" points="795,-580.5 715,-580.5 715,-517.5 795,-517.5 795,-580.5"/>
<text text-anchor="middle" x="755" y="-568.5" font-family="Cascadia Code PL" font-size="10.00" fill="cyan">Panels</text>
<text text-anchor="middle" x="755" y="-557.5" font-family="Cascadia Code PL" font-size="10.00" fill="cyan">────────────</text>
<text text-anchor="middle" x="755" y="-546.5" font-family="Cascadia Code PL" font-size="10.00" fill="cyan">Panel visibility</text>
<text text-anchor="middle" x="755" y="-535.5" font-family="Cascadia Code PL" font-size="10.00" fill="cyan">Dock sides</text>
<text text-anchor="middle" x="755" y="-524.5" font-family="Cascadia Code PL" font-size="10.00" fill="cyan">Auto&#45;hide</text>
</g>
<!-- T5 -->
<g id="node12" class="node">
<title>T5</title>
<polygon fill="none" stroke="white" points="697,-580.5 617,-580.5 617,-517.5 697,-517.5 697,-580.5"/>
<text text-anchor="middle" x="657" y="-568.5" font-family="Cascadia Code PL" font-size="10.00" fill="cyan">Audio</text>
<text text-anchor="middle" x="657" y="-557.5" font-family="Cascadia Code PL" font-size="10.00" fill="cyan">────────────</text>
<text text-anchor="middle" x="657" y="-546.5" font-family="Cascadia Code PL" font-size="10.00" fill="cyan">SFX volume</text>
<text text-anchor="middle" x="657" y="-535.5" font-family="Cascadia Code PL" font-size="10.00" fill="cyan">Music volume</text>
<text text-anchor="middle" x="657" y="-524.5" font-family="Cascadia Code PL" font-size="10.00" fill="cyan">Shuffle mode</text>
</g>
<!-- T6 -->
<g id="node13" class="node">
<title>T6</title>
<polygon fill="none" stroke="white" points="599,-580.5 519,-580.5 519,-517.5 599,-517.5 599,-580.5"/>
<text text-anchor="middle" x="559" y="-568.5" font-family="Cascadia Code PL" font-size="10.00" fill="cyan">Fonts</text>
<text text-anchor="middle" x="559" y="-557.5" font-family="Cascadia Code PL" font-size="10.00" fill="cyan">────────────</text>
<text text-anchor="middle" x="559" y="-546.5" font-family="Cascadia Code PL" font-size="10.00" fill="cyan">Default font</text>
<text text-anchor="middle" x="559" y="-535.5" font-family="Cascadia Code PL" font-size="10.00" fill="cyan">Default size</text>
<text text-anchor="middle" x="559" y="-524.5" font-family="Cascadia Code PL" font-size="10.00" fill="cyan">UI font</text>
</g>
<!-- T7 -->
<g id="node14" class="node">
<title>T7</title>
<polygon fill="none" stroke="white" points="501,-580.5 421,-580.5 421,-517.5 501,-517.5 501,-580.5"/>
<text text-anchor="middle" x="461" y="-568.5" font-family="Cascadia Code PL" font-size="10.00" fill="cyan">Appearance</text>
<text text-anchor="middle" x="461" y="-557.5" font-family="Cascadia Code PL" font-size="10.00" fill="cyan">────────────</text>
<text text-anchor="middle" x="461" y="-546.5" font-family="Cascadia Code PL" font-size="10.00" fill="cyan">Theme select</text>
<text text-anchor="middle" x="461" y="-535.5" font-family="Cascadia Code PL" font-size="10.00" fill="cyan">Toolbar scale</text>
<text text-anchor="middle" x="461" y="-524.5" font-family="Cascadia Code PL" font-size="10.00" fill="cyan">Icon set</text>
</g>
<!-- T8 -->
<g id="node15" class="node">
<title>T8</title>
<polygon fill="none" stroke="white" points="403,-580.5 305,-580.5 305,-517.5 403,-517.5 403,-580.5"/>
<text text-anchor="middle" x="354" y="-568.5" font-family="Cascadia Code PL" font-size="10.00" fill="cyan">Directories</text>
<text text-anchor="middle" x="354" y="-557.5" font-family="Cascadia Code PL" font-size="10.00" fill="cyan">────────────</text>
<text text-anchor="middle" x="354" y="-546.5" font-family="Cascadia Code PL" font-size="10.00" fill="cyan">USER folder paths</text>
<text text-anchor="middle" x="354" y="-535.5" font-family="Cascadia Code PL" font-size="10.00" fill="cyan">Last&#45;used paths</text>
<text text-anchor="middle" x="354" y="-524.5" font-family="Cascadia Code PL" font-size="10.00" fill="cyan">Reset defaults</text>
</g>
<!-- M1 -->
<g id="node16" class="node">
<title>M1</title>
<polygon fill="none" stroke="white" points="1427,-580.5 1269,-580.5 1269,-517.5 1427,-517.5 1427,-580.5"/>
<text text-anchor="middle" x="1348" y="-568.5" font-family="Cascadia Code PL" font-size="10.00" fill="cyan">Input Routing</text>
<text text-anchor="middle" x="1348" y="-557.5" font-family="Cascadia Code PL" font-size="10.00" fill="cyan">────────────</text>
<text text-anchor="middle" x="1348" y="-546.5" font-family="Cascadia Code PL" font-size="10.00" fill="cyan">MOUSE.UI_CHROME_CLICKED%</text>
<text text-anchor="middle" x="1348" y="-535.5" font-family="Cascadia Code PL" font-size="10.00" fill="cyan">Keyboard captured</text>
<text text-anchor="middle" x="1348" y="-524.5" font-family="Cascadia Code PL" font-size="10.00" fill="cyan">No tool actions fire</text>
</g>
<!-- M2 -->
<g id="node17" class="node">
<title>M2</title>
<polygon fill="none" stroke="white" points="1251,-586 1121,-586 1121,-512 1251,-512 1251,-586"/>
<text text-anchor="middle" x="1186" y="-574" font-family="Cascadia Code PL" font-size="10.00" fill="cyan">Render Pipeline</text>
<text text-anchor="middle" x="1186" y="-563" font-family="Cascadia Code PL" font-size="10.00" fill="cyan">────────────</text>
<text text-anchor="middle" x="1186" y="-552" font-family="Cascadia Code PL" font-size="10.00" fill="cyan">Drawn after scene cache</text>
<text text-anchor="middle" x="1186" y="-541" font-family="Cascadia Code PL" font-size="10.00" fill="cyan">as overlay layer</text>
<text text-anchor="middle" x="1186" y="-530" font-family="Cascadia Code PL" font-size="10.00" fill="cyan">FRAME_IDLE% controlled</text>
<text text-anchor="middle" x="1186" y="-519" font-family="Cascadia Code PL" font-size="10.00" fill="cyan">by internal animations</text>
</g>
<!-- L1 -->
<g id="node18" class="node">
<title>L1</title>
<ellipse fill="white" stroke="white" cx="1615" cy="-549" rx="0.36" ry="0.36"/>
</g>
<!-- L2 -->
<g id="node19" class="node">
<title>L2</title>
<ellipse fill="white" stroke="white" cx="1615" cy="-432" rx="0.36" ry="0.36"/>
</g>
<!-- L1&#45;&gt;L2 -->
<g id="edge10" class="edge">
<title>L1&#45;&gt;L2</title>
<path fill="none" stroke="#66cc66" d="M1615,-547.92C1615,-545.09 1615,-471.2 1615,-443.43"/>
<polygon fill="#66cc66" stroke="#66cc66" points="1618.5,-443.08 1615,-433.08 1611.5,-443.08 1618.5,-443.08"/>
<text text-anchor="middle" x="1643" y="-486.8" font-family="Cascadia Code PL" font-size="9.00" fill="#aaaaaa"> Open / Apply</text>
</g>
<!-- L3 -->
<g id="node20" class="node">
<title>L3</title>
<ellipse fill="white" stroke="white" cx="1534" cy="-549" rx="0.36" ry="0.36"/>
</g>
<!-- L4 -->
<g id="node21" class="node">
<title>L4</title>
<ellipse fill="white" stroke="white" cx="1534" cy="-432" rx="0.36" ry="0.36"/>
</g>
<!-- L3&#45;&gt;L4 -->
<g id="edge11" class="edge">
<title>L3&#45;&gt;L4</title>
<path fill="none" stroke="#cc6666" stroke-dasharray="5,2" d="M1534,-547.92C1534,-545.09 1534,-471.2 1534,-443.43"/>
<polygon fill="#cc6666" stroke="#cc6666" points="1537.5,-443.08 1534,-433.08 1530.5,-443.08 1537.5,-443.08"/>
<text text-anchor="middle" x="1563" y="-486.8" font-family="Cascadia Code PL" font-size="9.00" fill="#aaaaaa"> Cancel / Close</text>
</g>
<!-- L5 -->
<g id="node22" class="node">
<title>L5</title>
<ellipse fill="white" stroke="white" cx="1469" cy="-549" rx="0.36" ry="0.36"/>
</g>
<!-- L6 -->
<g id="node23" class="node">
<title>L6</title>
<ellipse fill="white" stroke="white" cx="1469" cy="-432" rx="0.36" ry="0.36"/>
</g>
<!-- L5&#45;&gt;L6 -->
<g id="edge12" class="edge">
<title>L5&#45;&gt;L6</title>
<path fill="none" stroke="#cccc66" d="M1469,-547.92C1469,-545.09 1469,-471.2 1469,-443.43"/>
<polygon fill="#cccc66" stroke="#cccc66" points="1472.5,-443.08 1469,-433.08 1465.5,-443.08 1472.5,-443.08"/>
<text text-anchor="middle" x="1490" y="-486.8" font-family="Cascadia Code PL" font-size="9.00" fill="#aaaaaa"> Transition</text>
</g>
</g>
</svg>
