<?xml version="1.0" encoding="UTF-8" standalone="no"?>
<!DOCTYPE svg PUBLIC "-//W3C//DTD SVG 1.1//EN"
 "http://www.w3.org/Graphics/SVG/1.1/DTD/svg11.dtd">
<!-- Generated by graphviz version 2.42.4 (0)
 -->
<!-- Title: SMART_GUIDES Pages: 1 -->
<svg width="1326pt" height="776pt"
 viewBox="0.00 0.00 1325.50 776.00" xmlns="http://www.w3.org/2000/svg" xmlns:xlink="http://www.w3.org/1999/xlink">
<g id="graph0" class="graph" transform="scale(1 1) rotate(0) translate(4 772)">
<title>SMART_GUIDES</title>
<text text-anchor="middle" x="658.75" y="-744.8" font-family="Cascadia Code PL" font-size="24.00" fill="white">SMART GUIDES STATE MACHINE</text>
<g id="clust2" class="cluster">
<title>cluster_axes</title>
<polygon fill="transparent" stroke="orange" stroke-dasharray="5,2" points="209.5,-638 209.5,-726 920.5,-726 920.5,-638 209.5,-638"/>
<text text-anchor="middle" x="261.5" y="-713.2" font-family="Cascadia Code PL" font-size="11.00" fill="orange">ALIGNMENT AXES</text>
</g>
<g id="clust3" class="cluster">
<title>cluster_render</title>
<polygon fill="transparent" stroke="orange" stroke-dasharray="5,2" points="928.5,-638 928.5,-726 1100.5,-726 1100.5,-638 928.5,-638"/>
<text text-anchor="middle" x="975.5" y="-713.2" font-family="Cascadia Code PL" font-size="11.00" fill="orange">RENDER ORDER</text>
</g>
<g id="clust5" class="cluster">
<title>cluster_legend</title>
<polygon fill="transparent" stroke="white" stroke-dasharray="5,2" points="1108.5,-557.64 1108.5,-700.36 1309.5,-700.36 1309.5,-557.64 1108.5,-557.64"/>
<text text-anchor="middle" x="1136.5" y="-687.56" font-family="Cascadia Code PL" font-size="11.00" fill="white">LEGEND</text>
</g>
<!-- MAIN -->
<g id="node1" class="node">
<title>MAIN</title>
<polygon fill="none" stroke="orange" stroke-width="2" points="199,-690 196,-694 175,-694 172,-690 0,-690 0,-654 199,-654 199,-690"/>
<text text-anchor="middle" x="99.5" y="-668.6" font-family="Cascadia Code PL" font-size="13.00" fill="orange">SMART GUIDES — MOVE TOOL</text>
</g>
<!-- S_DISABLED -->
<g id="node2" class="node">
<title>S_DISABLED</title>
<polygon fill="none" stroke="white" points="192,-600 7,-600 7,-532 192,-532 192,-600"/>
<text text-anchor="middle" x="99.5" y="-587.2" font-family="Cascadia Code PL" font-size="11.00" fill="cyan">1 · DISABLED</text>
<text text-anchor="middle" x="99.5" y="-575.2" font-family="Cascadia Code PL" font-size="11.00" fill="cyan">─────────────────</text>
<text text-anchor="middle" x="99.5" y="-563.2" font-family="Cascadia Code PL" font-size="11.00" fill="cyan">SMART_GUIDES.enabled% = FALSE</text>
<text text-anchor="middle" x="99.5" y="-551.2" font-family="Cascadia Code PL" font-size="11.00" fill="cyan">No alignment hints drawn</text>
<text text-anchor="middle" x="99.5" y="-539.2" font-family="Cascadia Code PL" font-size="11.00" fill="cyan">Action 910 to enable</text>
</g>
<!-- MAIN&#45;&gt;S_DISABLED -->
<g id="edge9" class="edge">
<title>MAIN&#45;&gt;S_DISABLED</title>
<path fill="none" stroke="#555555" stroke-dasharray="1,5" d="M99.5,-653.83C99.5,-639.29 99.5,-618.03 99.5,-600.18"/>
</g>
<!-- S_IDLE -->
<g id="node3" class="node">
<title>S_IDLE</title>
<polygon fill="none" stroke="white" points="167,-476 32,-476 32,-408 167,-408 167,-476"/>
<text text-anchor="middle" x="99.5" y="-463.2" font-family="Cascadia Code PL" font-size="11.00" fill="cyan">2 · IDLE</text>
<text text-anchor="middle" x="99.5" y="-451.2" font-family="Cascadia Code PL" font-size="11.00" fill="cyan">─────────────────</text>
<text text-anchor="middle" x="99.5" y="-439.2" font-family="Cascadia Code PL" font-size="11.00" fill="cyan">Enabled but inactive</text>
<text text-anchor="middle" x="99.5" y="-427.2" font-family="Cascadia Code PL" font-size="11.00" fill="cyan">Move tool not dragging</text>
<text text-anchor="middle" x="99.5" y="-415.2" font-family="Cascadia Code PL" font-size="11.00" fill="cyan">Waiting for drag start</text>
</g>
<!-- S_DISABLED&#45;&gt;S_IDLE -->
<g id="edge1" class="edge">
<title>S_DISABLED&#45;&gt;S_IDLE</title>
<path fill="none" stroke="#66cc66" d="M55.28,-531.98C50.52,-526.52 46.37,-520.5 43.5,-514 38.93,-503.67 41.36,-493.53 47.21,-484.3"/>
<polygon fill="#66cc66" stroke="#66cc66" points="50.18,-486.18 53.44,-476.1 44.61,-481.94 50.18,-486.18"/>
<text text-anchor="middle" x="89" y="-506.8" font-family="Cascadia Code PL" font-size="9.00" fill="#aaaaaa"> &#160;Action 910 fired</text>
<text text-anchor="middle" x="89" y="-496.8" font-family="Cascadia Code PL" font-size="9.00" fill="#aaaaaa"> &#160;(Toggle Smart Guides)</text>
</g>
<!-- S_IDLE&#45;&gt;S_DISABLED -->
<g id="edge2" class="edge">
<title>S_IDLE&#45;&gt;S_DISABLED</title>
<path fill="none" stroke="#cc6666" stroke-dasharray="5,2" d="M127.6,-476.05C134.3,-487.72 138.49,-501.14 134.5,-514 133.58,-516.98 132.41,-519.94 131.07,-522.85"/>
<polygon fill="#cc6666" stroke="#cc6666" points="127.86,-521.44 126.28,-531.91 134.05,-524.71 127.86,-521.44"/>
<text text-anchor="middle" x="182" y="-501.8" font-family="Cascadia Code PL" font-size="9.00" fill="#aaaaaa"> &#160;Action 910 fired again</text>
</g>
<!-- S_DETECTING -->
<g id="node4" class="node">
<title>S_DETECTING</title>
<polygon fill="none" stroke="white" points="167.5,-352 31.5,-352 31.5,-272 167.5,-272 167.5,-352"/>
<text text-anchor="middle" x="99.5" y="-339.2" font-family="Cascadia Code PL" font-size="11.00" fill="cyan">3 · DETECTING</text>
<text text-anchor="middle" x="99.5" y="-327.2" font-family="Cascadia Code PL" font-size="11.00" fill="cyan">─────────────────</text>
<text text-anchor="middle" x="99.5" y="-315.2" font-family="Cascadia Code PL" font-size="11.00" fill="cyan">Move drag in progress</text>
<text text-anchor="middle" x="99.5" y="-303.2" font-family="Cascadia Code PL" font-size="11.00" fill="cyan">Scan canvas for</text>
<text text-anchor="middle" x="99.5" y="-291.2" font-family="Cascadia Code PL" font-size="11.00" fill="cyan">edge / center alignment</text>
<text text-anchor="middle" x="99.5" y="-279.2" font-family="Cascadia Code PL" font-size="11.00" fill="cyan">with other layer bounds</text>
</g>
<!-- S_IDLE&#45;&gt;S_DETECTING -->
<g id="edge3" class="edge">
<title>S_IDLE&#45;&gt;S_DETECTING</title>
<path fill="none" stroke="#66cc66" d="M34.85,-408C29.16,-402.72 24.17,-396.74 20.5,-390 14.21,-378.45 16.98,-367.56 24.39,-357.81"/>
<polygon fill="#66cc66" stroke="#66cc66" points="27.13,-360 31.25,-350.23 21.94,-355.3 27.13,-360"/>
<text text-anchor="middle" x="89.5" y="-382.8" font-family="Cascadia Code PL" font-size="9.00" fill="#aaaaaa"> &#160;Move tool drag begins</text>
<text text-anchor="middle" x="89.5" y="-372.8" font-family="Cascadia Code PL" font-size="9.00" fill="#aaaaaa"> &#160;CURRENT_TOOL% = TOOL_MOVE</text>
</g>
<!-- S_DETECTING&#45;&gt;S_IDLE -->
<g id="edge8" class="edge">
<title>S_DETECTING&#45;&gt;S_IDLE</title>
<path fill="none" stroke="#cc6666" stroke-dasharray="5,2" d="M147.77,-352.28C152.09,-357.77 155.83,-363.71 158.5,-370 163,-380.61 160.32,-390.87 154.13,-400.13"/>
<polygon fill="#cc6666" stroke="#cc6666" points="151.36,-397.98 147.88,-407.99 156.84,-402.34 151.36,-397.98"/>
<text text-anchor="middle" x="214.5" y="-382.8" font-family="Cascadia Code PL" font-size="9.00" fill="#aaaaaa"> &#160;Move drag released</text>
<text text-anchor="middle" x="214.5" y="-372.8" font-family="Cascadia Code PL" font-size="9.00" fill="#aaaaaa"> &#160;Layer position committed</text>
</g>
<!-- S_SHOW_GUIDE -->
<g id="node5" class="node">
<title>S_SHOW_GUIDE</title>
<polygon fill="none" stroke="white" points="173,-216 26,-216 26,-136 173,-136 173,-216"/>
<text text-anchor="middle" x="99.5" y="-203.2" font-family="Cascadia Code PL" font-size="11.00" fill="cyan">4 · SHOWING GUIDE</text>
<text text-anchor="middle" x="99.5" y="-191.2" font-family="Cascadia Code PL" font-size="11.00" fill="cyan">─────────────────</text>
<text text-anchor="middle" x="99.5" y="-179.2" font-family="Cascadia Code PL" font-size="11.00" fill="cyan">Matching alignment found</text>
<text text-anchor="middle" x="99.5" y="-167.2" font-family="Cascadia Code PL" font-size="11.00" fill="cyan">Draw colored line</text>
<text text-anchor="middle" x="99.5" y="-155.2" font-family="Cascadia Code PL" font-size="11.00" fill="cyan">through match axis</text>
<text text-anchor="middle" x="99.5" y="-143.2" font-family="Cascadia Code PL" font-size="11.00" fill="cyan">Left/Right/Top/Bot/Center</text>
</g>
<!-- S_DETECTING&#45;&gt;S_SHOW_GUIDE -->
<g id="edge4" class="edge">
<title>S_DETECTING&#45;&gt;S_SHOW_GUIDE</title>
<path fill="none" stroke="#cccc66" d="M52.31,-271.98C47.95,-266.41 44.18,-260.38 41.5,-254 37.28,-243.94 38.97,-234.01 43.83,-224.8"/>
<polygon fill="#cccc66" stroke="#cccc66" points="46.9,-226.51 49.38,-216.21 41.01,-222.71 46.9,-226.51"/>
<text text-anchor="middle" x="89.5" y="-246.8" font-family="Cascadia Code PL" font-size="9.00" fill="#aaaaaa"> &#160;Match within tolerance</text>
<text text-anchor="middle" x="89.5" y="-236.8" font-family="Cascadia Code PL" font-size="9.00" fill="#aaaaaa"> &#160;~3 px snap distance</text>
</g>
<!-- S_SHOW_GUIDE&#45;&gt;S_DETECTING -->
<g id="edge7" class="edge">
<title>S_SHOW_GUIDE&#45;&gt;S_DETECTING</title>
<path fill="none" stroke="#cc6666" stroke-dasharray="5,2" d="M131.82,-216.34C137.92,-228.13 141.34,-241.3 137.5,-254 136.62,-256.92 135.53,-259.83 134.28,-262.7"/>
<polygon fill="#cc6666" stroke="#cc6666" points="131.13,-261.18 129.84,-271.7 137.41,-264.28 131.13,-261.18"/>
<text text-anchor="middle" x="172" y="-246.8" font-family="Cascadia Code PL" font-size="9.00" fill="#aaaaaa"> &#160;Lost alignment</text>
<text text-anchor="middle" x="172" y="-236.8" font-family="Cascadia Code PL" font-size="9.00" fill="#aaaaaa"> &#160;Hide guide line</text>
</g>
<!-- S_SNAP -->
<g id="node6" class="node">
<title>S_SNAP</title>
<polygon fill="none" stroke="white" points="171.5,-80 27.5,-80 27.5,0 171.5,0 171.5,-80"/>
<text text-anchor="middle" x="99.5" y="-67.2" font-family="Cascadia Code PL" font-size="11.00" fill="cyan">5 · SNAPPED</text>
<text text-anchor="middle" x="99.5" y="-55.2" font-family="Cascadia Code PL" font-size="11.00" fill="cyan">─────────────────</text>
<text text-anchor="middle" x="99.5" y="-43.2" font-family="Cascadia Code PL" font-size="11.00" fill="cyan">MOUSE within snap radius</text>
<text text-anchor="middle" x="99.5" y="-31.2" font-family="Cascadia Code PL" font-size="11.00" fill="cyan">Move offset adjusted</text>
<text text-anchor="middle" x="99.5" y="-19.2" font-family="Cascadia Code PL" font-size="11.00" fill="cyan">to exact alignment</text>
<text text-anchor="middle" x="99.5" y="-7.2" font-family="Cascadia Code PL" font-size="11.00" fill="cyan">FRAME_IDLE% = FALSE</text>
</g>
<!-- S_SHOW_GUIDE&#45;&gt;S_SNAP -->
<g id="edge5" class="edge">
<title>S_SHOW_GUIDE&#45;&gt;S_SNAP</title>
<path fill="none" stroke="#cccc66" d="M48.52,-135.87C39.64,-124.4 34.84,-111.33 40.5,-98 41.88,-94.76 43.54,-91.6 45.42,-88.56"/>
<polygon fill="#cccc66" stroke="#cccc66" points="48.35,-90.47 51.23,-80.28 42.62,-86.45 48.35,-90.47"/>
<text text-anchor="middle" x="89.5" y="-110.8" font-family="Cascadia Code PL" font-size="9.00" fill="#aaaaaa"> &#160;Snap threshold reached</text>
<text text-anchor="middle" x="89.5" y="-100.8" font-family="Cascadia Code PL" font-size="9.00" fill="#aaaaaa"> &#160;Lock to alignment axis</text>
</g>
<!-- S_SNAP&#45;&gt;S_SHOW_GUIDE -->
<g id="edge6" class="edge">
<title>S_SNAP&#45;&gt;S_SHOW_GUIDE</title>
<path fill="none" stroke="#cccc66" d="M132.67,-80.29C138.93,-92.07 142.44,-105.26 138.5,-118 137.59,-120.94 136.47,-123.86 135.19,-126.75"/>
<polygon fill="#cccc66" stroke="#cccc66" points="132.02,-125.27 130.63,-135.77 138.27,-128.42 132.02,-125.27"/>
<text text-anchor="middle" x="182" y="-110.8" font-family="Cascadia Code PL" font-size="9.00" fill="#aaaaaa"> &#160;Mouse moved past</text>
<text text-anchor="middle" x="182" y="-100.8" font-family="Cascadia Code PL" font-size="9.00" fill="#aaaaaa"> &#160;snap break distance</text>
</g>
<!-- A_LEFT -->
<g id="node7" class="node">
<title>A_LEFT</title>
<polygon fill="none" stroke="white" points="912,-698 807,-698 807,-646 912,-646 912,-698"/>
<text text-anchor="middle" x="859.5" y="-686" font-family="Cascadia Code PL" font-size="10.00" fill="cyan">Left Edge</text>
<text text-anchor="middle" x="859.5" y="-675" font-family="Cascadia Code PL" font-size="10.00" fill="cyan">────────────</text>
<text text-anchor="middle" x="859.5" y="-664" font-family="Cascadia Code PL" font-size="10.00" fill="cyan">Matching X bounds</text>
<text text-anchor="middle" x="859.5" y="-653" font-family="Cascadia Code PL" font-size="10.00" fill="cyan">Vertical line drawn</text>
</g>
<!-- A_CTRX -->
<g id="node8" class="node">
<title>A_CTRX</title>
<polygon fill="none" stroke="white" points="788.5,-698 696.5,-698 696.5,-646 788.5,-646 788.5,-698"/>
<text text-anchor="middle" x="742.5" y="-686" font-family="Cascadia Code PL" font-size="10.00" fill="cyan">Center X</text>
<text text-anchor="middle" x="742.5" y="-675" font-family="Cascadia Code PL" font-size="10.00" fill="cyan">────────────</text>
<text text-anchor="middle" x="742.5" y="-664" font-family="Cascadia Code PL" font-size="10.00" fill="cyan">Mid&#45;X alignment</text>
<text text-anchor="middle" x="742.5" y="-653" font-family="Cascadia Code PL" font-size="10.00" fill="cyan">Center line</text>
</g>
<!-- A_RIGHT -->
<g id="node9" class="node">
<title>A_RIGHT</title>
<polygon fill="none" stroke="white" points="678.5,-692.5 582.5,-692.5 582.5,-651.5 678.5,-651.5 678.5,-692.5"/>
<text text-anchor="middle" x="630.5" y="-680.5" font-family="Cascadia Code PL" font-size="10.00" fill="cyan">Right Edge</text>
<text text-anchor="middle" x="630.5" y="-669.5" font-family="Cascadia Code PL" font-size="10.00" fill="cyan">────────────</text>
<text text-anchor="middle" x="630.5" y="-658.5" font-family="Cascadia Code PL" font-size="10.00" fill="cyan">Right&#45;edge match</text>
</g>
<!-- A_TOP -->
<g id="node10" class="node">
<title>A_TOP</title>
<polygon fill="none" stroke="white" points="564,-698 451,-698 451,-646 564,-646 564,-698"/>
<text text-anchor="middle" x="507.5" y="-686" font-family="Cascadia Code PL" font-size="10.00" fill="cyan">Top Edge</text>
<text text-anchor="middle" x="507.5" y="-675" font-family="Cascadia Code PL" font-size="10.00" fill="cyan">────────────</text>
<text text-anchor="middle" x="507.5" y="-664" font-family="Cascadia Code PL" font-size="10.00" fill="cyan">Matching Y bounds</text>
<text text-anchor="middle" x="507.5" y="-653" font-family="Cascadia Code PL" font-size="10.00" fill="cyan">Horizontal line drawn</text>
</g>
<!-- A_CTRY -->
<g id="node11" class="node">
<title>A_CTRY</title>
<polygon fill="none" stroke="white" points="433,-692.5 342,-692.5 342,-651.5 433,-651.5 433,-692.5"/>
<text text-anchor="middle" x="387.5" y="-680.5" font-family="Cascadia Code PL" font-size="10.00" fill="cyan">Center Y</text>
<text text-anchor="middle" x="387.5" y="-669.5" font-family="Cascadia Code PL" font-size="10.00" fill="cyan">────────────</text>
<text text-anchor="middle" x="387.5" y="-658.5" font-family="Cascadia Code PL" font-size="10.00" fill="cyan">Mid&#45;Y alignment</text>
</g>
<!-- A_BOT -->
<g id="node12" class="node">
<title>A_BOT</title>
<polygon fill="none" stroke="white" points="323.5,-692.5 217.5,-692.5 217.5,-651.5 323.5,-651.5 323.5,-692.5"/>
<text text-anchor="middle" x="270.5" y="-680.5" font-family="Cascadia Code PL" font-size="10.00" fill="cyan">Bottom Edge</text>
<text text-anchor="middle" x="270.5" y="-669.5" font-family="Cascadia Code PL" font-size="10.00" fill="cyan">────────────</text>
<text text-anchor="middle" x="270.5" y="-658.5" font-family="Cascadia Code PL" font-size="10.00" fill="cyan">Bottom&#45;edge match</text>
</g>
<!-- R1 -->
<g id="node13" class="node">
<title>R1</title>
<polygon fill="none" stroke="white" points="1092,-698 937,-698 937,-646 1092,-646 1092,-698"/>
<text text-anchor="middle" x="1014.5" y="-686" font-family="Cascadia Code PL" font-size="10.00" fill="cyan">Drawn AFTER selection overlay</text>
<text text-anchor="middle" x="1014.5" y="-675" font-family="Cascadia Code PL" font-size="10.00" fill="cyan">in SCREEN_render pipeline</text>
<text text-anchor="middle" x="1014.5" y="-664" font-family="Cascadia Code PL" font-size="10.00" fill="cyan">Before pointer (step 13)</text>
<text text-anchor="middle" x="1014.5" y="-653" font-family="Cascadia Code PL" font-size="10.00" fill="cyan">Action 911 = clear all</text>
</g>
<!-- L1 -->
<g id="node14" class="node">
<title>L1</title>
<ellipse fill="white" stroke="white" cx="1266.5" cy="-672" rx="0.36" ry="0.36"/>
</g>
<!-- L2 -->
<g id="node15" class="node">
<title>L2</title>
<ellipse fill="white" stroke="white" cx="1266.5" cy="-566" rx="0.36" ry="0.36"/>
</g>
<!-- L1&#45;&gt;L2 -->
<g id="edge10" class="edge">
<title>L1&#45;&gt;L2</title>
<path fill="none" stroke="#66cc66" d="M1266.5,-670.92C1266.5,-668.39 1266.5,-602.81 1266.5,-577.15"/>
<polygon fill="#66cc66" stroke="#66cc66" points="1270,-577.07 1266.5,-567.07 1263,-577.07 1270,-577.07"/>
<text text-anchor="middle" x="1284" y="-620.8" font-family="Cascadia Code PL" font-size="9.00" fill="#aaaaaa"> Activate</text>
</g>
<!-- L3 -->
<g id="node16" class="node">
<title>L3</title>
<ellipse fill="white" stroke="white" cx="1199.5" cy="-672" rx="0.36" ry="0.36"/>
</g>
<!-- L4 -->
<g id="node17" class="node">
<title>L4</title>
<ellipse fill="white" stroke="white" cx="1199.5" cy="-566" rx="0.36" ry="0.36"/>
</g>
<!-- L3&#45;&gt;L4 -->
<g id="edge11" class="edge">
<title>L3&#45;&gt;L4</title>
<path fill="none" stroke="#cc6666" stroke-dasharray="5,2" d="M1199.5,-670.92C1199.5,-668.39 1199.5,-602.81 1199.5,-577.15"/>
<polygon fill="#cc6666" stroke="#cc6666" points="1203,-577.07 1199.5,-567.07 1196,-577.07 1203,-577.07"/>
<text text-anchor="middle" x="1221.5" y="-620.8" font-family="Cascadia Code PL" font-size="9.00" fill="#aaaaaa"> Deactivate</text>
</g>
<!-- L5 -->
<g id="node18" class="node">
<title>L5</title>
<ellipse fill="white" stroke="white" cx="1134.5" cy="-672" rx="0.36" ry="0.36"/>
</g>
<!-- L6 -->
<g id="node19" class="node">
<title>L6</title>
<ellipse fill="white" stroke="white" cx="1134.5" cy="-566" rx="0.36" ry="0.36"/>
</g>
<!-- L5&#45;&gt;L6 -->
<g id="edge12" class="edge">
<title>L5&#45;&gt;L6</title>
<path fill="none" stroke="#cccc66" d="M1134.5,-670.92C1134.5,-668.39 1134.5,-602.81 1134.5,-577.15"/>
<polygon fill="#cccc66" stroke="#cccc66" points="1138,-577.07 1134.5,-567.07 1131,-577.07 1138,-577.07"/>
<text text-anchor="middle" x="1155.5" y="-620.8" font-family="Cascadia Code PL" font-size="9.00" fill="#aaaaaa"> Transition</text>
</g>
</g>
</svg>
