<?xml version="1.0" encoding="UTF-8" standalone="no"?>
<!DOCTYPE svg PUBLIC "-//W3C//DTD SVG 1.1//EN"
 "http://www.w3.org/Graphics/SVG/1.1/DTD/svg11.dtd">
<!-- Generated by graphviz version 2.42.4 (0)
 -->
<!-- Title: STATUSBAR Pages: 1 -->
<svg width="1239pt" height="367pt"
 viewBox="0.00 0.00 1239.00 367.00" xmlns="http://www.w3.org/2000/svg" xmlns:xlink="http://www.w3.org/1999/xlink">
<g id="graph0" class="graph" transform="scale(1 1) rotate(0) translate(4 363)">
<title>STATUSBAR</title>
<text text-anchor="middle" x="615.5" y="-335.8" font-family="Cascadia Code PL" font-size="24.00" fill="white">STATUS BAR STATE MACHINE</text>
<g id="clust2" class="cluster">
<title>cluster_sections</title>
<polygon fill="transparent" stroke="orange" stroke-dasharray="5,2" points="129,-207 129,-317 691,-317 691,-207 129,-207"/>
<text text-anchor="middle" x="193" y="-304.2" font-family="Cascadia Code PL" font-size="11.00" fill="orange">STATUS BAR SECTIONS</text>
</g>
<g id="clust3" class="cluster">
<title>cluster_color_click</title>
<polygon fill="transparent" stroke="orange" stroke-dasharray="5,2" points="699,-96.5 699,-300.5 1223,-300.5 1223,-96.5 699,-96.5"/>
<text text-anchor="middle" x="783" y="-287.7" font-family="Cascadia Code PL" font-size="11.00" fill="orange">COLOR SWATCH INTERACTION</text>
</g>
<!-- MAIN -->
<g id="node1" class="node">
<title>MAIN</title>
<polygon fill="none" stroke="orange" stroke-width="2" points="119,-270 116,-274 95,-274 92,-270 33,-270 33,-234 119,-234 119,-270"/>
<text text-anchor="middle" x="76" y="-248.6" font-family="Cascadia Code PL" font-size="13.00" fill="orange">STATUS BAR</text>
</g>
<!-- S_VISIBLE -->
<g id="node2" class="node">
<title>S_VISIBLE</title>
<polygon fill="none" stroke="white" points="150.5,-170 1.5,-170 1.5,-102 150.5,-102 150.5,-170"/>
<text text-anchor="middle" x="76" y="-157.2" font-family="Cascadia Code PL" font-size="11.00" fill="cyan">1 · VISIBLE</text>
<text text-anchor="middle" x="76" y="-145.2" font-family="Cascadia Code PL" font-size="11.00" fill="cyan">─────────────────</text>
<text text-anchor="middle" x="76" y="-133.2" font-family="Cascadia Code PL" font-size="11.00" fill="cyan">SCRN.showStatus% = TRUE</text>
<text text-anchor="middle" x="76" y="-121.2" font-family="Cascadia Code PL" font-size="11.00" fill="cyan">Bottom bar displayed</text>
<text text-anchor="middle" x="76" y="-109.2" font-family="Cascadia Code PL" font-size="11.00" fill="cyan">Coords, colors, tool info</text>
</g>
<!-- MAIN&#45;&gt;S_VISIBLE -->
<g id="edge11" class="edge">
<title>MAIN&#45;&gt;S_VISIBLE</title>
<path fill="none" stroke="#555555" stroke-dasharray="1,5" d="M76,-233.69C76,-216.87 76,-190.9 76,-170.11"/>
</g>
<!-- S_HIDDEN -->
<g id="node3" class="node">
<title>S_HIDDEN</title>
<polygon fill="none" stroke="white" points="152,-56 0,-56 0,0 152,0 152,-56"/>
<text text-anchor="middle" x="76" y="-43.2" font-family="Cascadia Code PL" font-size="11.00" fill="cyan">2 · HIDDEN</text>
<text text-anchor="middle" x="76" y="-31.2" font-family="Cascadia Code PL" font-size="11.00" fill="cyan">─────────────────</text>
<text text-anchor="middle" x="76" y="-19.2" font-family="Cascadia Code PL" font-size="11.00" fill="cyan">SCRN.showStatus% = FALSE</text>
<text text-anchor="middle" x="76" y="-7.2" font-family="Cascadia Code PL" font-size="11.00" fill="cyan">ManuallyHidden% = TRUE</text>
</g>
<!-- S_VISIBLE&#45;&gt;S_HIDDEN -->
<g id="edge1" class="edge">
<title>S_VISIBLE&#45;&gt;S_HIDDEN</title>
<path fill="none" stroke="#cc6666" stroke-dasharray="5,2" d="M19.13,-101.77C12.05,-93.5 8.86,-84.09 14,-74 15.94,-70.2 18.36,-66.65 21.12,-63.34"/>
<polygon fill="#cc6666" stroke="#cc6666" points="23.7,-65.7 28.09,-56.06 18.65,-60.86 23.7,-65.7"/>
<text text-anchor="middle" x="65.5" y="-76.8" font-family="Cascadia Code PL" font-size="9.00" fill="#aaaaaa"> &#160;Ctrl+Shift+Down / Menu</text>
</g>
<!-- S_HIDDEN&#45;&gt;S_VISIBLE -->
<g id="edge2" class="edge">
<title>S_HIDDEN&#45;&gt;S_VISIBLE</title>
<path fill="none" stroke="#66cc66" d="M110.29,-56.2C116.72,-64.53 120.48,-74.11 117,-84 115.91,-87.11 114.53,-90.17 112.96,-93.15"/>
<polygon fill="#66cc66" stroke="#66cc66" points="109.89,-91.45 107.71,-101.82 115.88,-95.08 109.89,-91.45"/>
<text text-anchor="middle" x="170.5" y="-76.8" font-family="Cascadia Code PL" font-size="9.00" fill="#aaaaaa"> &#160;Ctrl+Shift+Down / Menu</text>
</g>
<!-- SEC_COORDS -->
<g id="node4" class="node">
<title>SEC_COORDS</title>
<polygon fill="none" stroke="white" points="683,-283.5 561,-283.5 561,-220.5 683,-220.5 683,-283.5"/>
<text text-anchor="middle" x="622" y="-271.5" font-family="Cascadia Code PL" font-size="10.00" fill="cyan">Coordinates</text>
<text text-anchor="middle" x="622" y="-260.5" font-family="Cascadia Code PL" font-size="10.00" fill="cyan">────────────</text>
<text text-anchor="middle" x="622" y="-249.5" font-family="Cascadia Code PL" font-size="10.00" fill="cyan">Canvas X, Y position</text>
<text text-anchor="middle" x="622" y="-238.5" font-family="Cascadia Code PL" font-size="10.00" fill="cyan">MOUSE.X%, MOUSE.Y%</text>
<text text-anchor="middle" x="622" y="-227.5" font-family="Cascadia Code PL" font-size="10.00" fill="cyan">Updates every frame</text>
</g>
<!-- SEC_COLORS -->
<g id="node5" class="node">
<title>SEC_COLORS</title>
<polygon fill="none" stroke="white" points="543,-289 397,-289 397,-215 543,-215 543,-289"/>
<text text-anchor="middle" x="470" y="-277" font-family="Cascadia Code PL" font-size="10.00" fill="cyan">FG/BG Swatches</text>
<text text-anchor="middle" x="470" y="-266" font-family="Cascadia Code PL" font-size="10.00" fill="cyan">────────────</text>
<text text-anchor="middle" x="470" y="-255" font-family="Cascadia Code PL" font-size="10.00" fill="cyan">PAINT_COLOR~&amp; swatch</text>
<text text-anchor="middle" x="470" y="-244" font-family="Cascadia Code PL" font-size="10.00" fill="cyan">PAINT_BG_COLOR~&amp; swatch</text>
<text text-anchor="middle" x="470" y="-233" font-family="Cascadia Code PL" font-size="10.00" fill="cyan">Transparency indicator</text>
<text text-anchor="middle" x="470" y="-222" font-family="Cascadia Code PL" font-size="10.00" fill="cyan">Click: open palette picker</text>
</g>
<!-- SEC_TOOL -->
<g id="node6" class="node">
<title>SEC_TOOL</title>
<polygon fill="none" stroke="white" points="379,-289 277,-289 277,-215 379,-215 379,-289"/>
<text text-anchor="middle" x="328" y="-277" font-family="Cascadia Code PL" font-size="10.00" fill="cyan">Tool Info</text>
<text text-anchor="middle" x="328" y="-266" font-family="Cascadia Code PL" font-size="10.00" fill="cyan">────────────</text>
<text text-anchor="middle" x="328" y="-255" font-family="Cascadia Code PL" font-size="10.00" fill="cyan">Current tool name</text>
<text text-anchor="middle" x="328" y="-244" font-family="Cascadia Code PL" font-size="10.00" fill="cyan">Brush size display</text>
<text text-anchor="middle" x="328" y="-233" font-family="Cascadia Code PL" font-size="10.00" fill="cyan">Zoom level %</text>
<text text-anchor="middle" x="328" y="-222" font-family="Cascadia Code PL" font-size="10.00" fill="cyan">Canvas dimensions</text>
</g>
<!-- SEC_MSG -->
<g id="node7" class="node">
<title>SEC_MSG</title>
<polygon fill="none" stroke="white" points="258.5,-283.5 137.5,-283.5 137.5,-220.5 258.5,-220.5 258.5,-283.5"/>
<text text-anchor="middle" x="198" y="-271.5" font-family="Cascadia Code PL" font-size="10.00" fill="cyan">Status Message</text>
<text text-anchor="middle" x="198" y="-260.5" font-family="Cascadia Code PL" font-size="10.00" fill="cyan">────────────</text>
<text text-anchor="middle" x="198" y="-249.5" font-family="Cascadia Code PL" font-size="10.00" fill="cyan">Temporary messages</text>
<text text-anchor="middle" x="198" y="-238.5" font-family="Cascadia Code PL" font-size="10.00" fill="cyan">File load/save feedback</text>
<text text-anchor="middle" x="198" y="-227.5" font-family="Cascadia Code PL" font-size="10.00" fill="cyan">Error notifications</text>
</g>
<!-- CC_IDLE -->
<g id="node8" class="node">
<title>CC_IDLE</title>
<polygon fill="none" stroke="white" points="1005.5,-272.5 902.5,-272.5 902.5,-231.5 1005.5,-231.5 1005.5,-272.5"/>
<text text-anchor="middle" x="954" y="-260.5" font-family="Cascadia Code PL" font-size="10.00" fill="cyan">No Interaction</text>
<text text-anchor="middle" x="954" y="-249.5" font-family="Cascadia Code PL" font-size="10.00" fill="cyan">────────────</text>
<text text-anchor="middle" x="954" y="-238.5" font-family="Cascadia Code PL" font-size="10.00" fill="cyan">Swatches displayed</text>
</g>
<!-- CC_FG -->
<g id="node9" class="node">
<title>CC_FG</title>
<polygon fill="none" stroke="white" points="819,-167.5 707,-167.5 707,-104.5 819,-104.5 819,-167.5"/>
<text text-anchor="middle" x="763" y="-155.5" font-family="Cascadia Code PL" font-size="10.00" fill="cyan">FG Swatch Click</text>
<text text-anchor="middle" x="763" y="-144.5" font-family="Cascadia Code PL" font-size="10.00" fill="cyan">────────────</text>
<text text-anchor="middle" x="763" y="-133.5" font-family="Cascadia Code PL" font-size="10.00" fill="cyan">B1 on FG swatch</text>
<text text-anchor="middle" x="763" y="-122.5" font-family="Cascadia Code PL" font-size="10.00" fill="cyan">Open palette picker</text>
<text text-anchor="middle" x="763" y="-111.5" font-family="Cascadia Code PL" font-size="10.00" fill="cyan">Set PAINT_COLOR~&amp;</text>
</g>
<!-- CC_IDLE&#45;&gt;CC_FG -->
<g id="edge3" class="edge">
<title>CC_IDLE&#45;&gt;CC_FG</title>
<path fill="none" stroke="#66cc66" d="M902.49,-244.39C848.88,-236.32 770.24,-220.75 752,-197 747.71,-191.41 746.39,-184.68 746.79,-177.77"/>
<polygon fill="#66cc66" stroke="#66cc66" points="750.29,-178.07 748.46,-167.64 743.38,-176.94 750.29,-178.07"/>
<text text-anchor="middle" x="769" y="-190.6" font-family="Cascadia Code PL" font-size="8.00" fill="#aaaaaa"> B1 on FG</text>
</g>
<!-- CC_BG -->
<g id="node10" class="node">
<title>CC_BG</title>
<polygon fill="none" stroke="white" points="966.5,-167.5 837.5,-167.5 837.5,-104.5 966.5,-104.5 966.5,-167.5"/>
<text text-anchor="middle" x="902" y="-155.5" font-family="Cascadia Code PL" font-size="10.00" fill="cyan">BG Swatch Click</text>
<text text-anchor="middle" x="902" y="-144.5" font-family="Cascadia Code PL" font-size="10.00" fill="cyan">────────────</text>
<text text-anchor="middle" x="902" y="-133.5" font-family="Cascadia Code PL" font-size="10.00" fill="cyan">B1 on BG swatch</text>
<text text-anchor="middle" x="902" y="-122.5" font-family="Cascadia Code PL" font-size="10.00" fill="cyan">Open palette picker</text>
<text text-anchor="middle" x="902" y="-111.5" font-family="Cascadia Code PL" font-size="10.00" fill="cyan">Set PAINT_BG_COLOR~&amp;</text>
</g>
<!-- CC_IDLE&#45;&gt;CC_BG -->
<g id="edge4" class="edge">
<title>CC_IDLE&#45;&gt;CC_BG</title>
<path fill="none" stroke="#66cc66" d="M904.81,-231.44C890.33,-223.11 876.19,-211.81 868,-197 864.38,-190.44 864.55,-183.51 866.89,-176.77"/>
<polygon fill="#66cc66" stroke="#66cc66" points="870.05,-178.29 871.26,-167.76 863.75,-175.23 870.05,-178.29"/>
<text text-anchor="middle" x="885.5" y="-190.6" font-family="Cascadia Code PL" font-size="8.00" fill="#aaaaaa"> B1 on BG</text>
</g>
<!-- CC_SWAP -->
<g id="node11" class="node">
<title>CC_SWAP</title>
<polygon fill="none" stroke="white" points="1093.5,-167.5 984.5,-167.5 984.5,-104.5 1093.5,-104.5 1093.5,-167.5"/>
<text text-anchor="middle" x="1039" y="-155.5" font-family="Cascadia Code PL" font-size="10.00" fill="cyan">Swap Colors</text>
<text text-anchor="middle" x="1039" y="-144.5" font-family="Cascadia Code PL" font-size="10.00" fill="cyan">────────────</text>
<text text-anchor="middle" x="1039" y="-133.5" font-family="Cascadia Code PL" font-size="10.00" fill="cyan">X key or swap icon</text>
<text text-anchor="middle" x="1039" y="-122.5" font-family="Cascadia Code PL" font-size="10.00" fill="cyan">Swap FG ↔ BG</text>
<text text-anchor="middle" x="1039" y="-111.5" font-family="Cascadia Code PL" font-size="10.00" fill="cyan">PAINT_swap_colors()</text>
</g>
<!-- CC_IDLE&#45;&gt;CC_SWAP -->
<g id="edge5" class="edge">
<title>CC_IDLE&#45;&gt;CC_SWAP</title>
<path fill="none" stroke="#88aacc" d="M961.56,-231.24C967.02,-218.29 975.16,-201.34 985,-188 988.25,-183.59 991.92,-179.24 995.76,-175.05"/>
<polygon fill="#88aacc" stroke="#88aacc" points="998.42,-177.33 1002.83,-167.7 993.37,-172.48 998.42,-177.33"/>
<text text-anchor="middle" x="1006.5" y="-190.6" font-family="Cascadia Code PL" font-size="8.00" fill="#aaaaaa"> X key / icon</text>
</g>
<!-- CC_RESET -->
<g id="node12" class="node">
<title>CC_RESET</title>
<polygon fill="none" stroke="white" points="1214.5,-162 1111.5,-162 1111.5,-110 1214.5,-110 1214.5,-162"/>
<text text-anchor="middle" x="1163" y="-150" font-family="Cascadia Code PL" font-size="10.00" fill="cyan">Reset Colors</text>
<text text-anchor="middle" x="1163" y="-139" font-family="Cascadia Code PL" font-size="10.00" fill="cyan">────────────</text>
<text text-anchor="middle" x="1163" y="-128" font-family="Cascadia Code PL" font-size="10.00" fill="cyan">Default black/white</text>
<text text-anchor="middle" x="1163" y="-117" font-family="Cascadia Code PL" font-size="10.00" fill="cyan">or palette default</text>
</g>
<!-- CC_IDLE&#45;&gt;CC_RESET -->
<g id="edge6" class="edge">
<title>CC_IDLE&#45;&gt;CC_RESET</title>
<path fill="none" stroke="#88aacc" d="M1000.33,-231.48C1022.14,-221.82 1048.29,-209.56 1071,-197 1086.9,-188.21 1103.71,-177.64 1118.55,-167.85"/>
<polygon fill="#88aacc" stroke="#88aacc" points="1120.66,-170.65 1127.04,-162.19 1116.78,-164.83 1120.66,-170.65"/>
<text text-anchor="middle" x="1110" y="-190.6" font-family="Cascadia Code PL" font-size="8.00" fill="#aaaaaa"> Reset hotkey</text>
</g>
<!-- CC_FG&#45;&gt;CC_IDLE -->
<g id="edge7" class="edge">
<title>CC_FG&#45;&gt;CC_IDLE</title>
<path fill="none" stroke="#cccc66" d="M790.08,-167.5C800.3,-177.8 812.49,-188.76 825,-197 845.84,-210.74 870.75,-222.15 893.1,-230.89"/>
<polygon fill="#cccc66" stroke="#cccc66" points="891.91,-234.18 902.5,-234.47 894.4,-227.64 891.91,-234.18"/>
<text text-anchor="middle" x="843" y="-190.6" font-family="Cascadia Code PL" font-size="8.00" fill="#aaaaaa"> Color set</text>
</g>
<!-- CC_BG&#45;&gt;CC_IDLE -->
<g id="edge8" class="edge">
<title>CC_BG&#45;&gt;CC_IDLE</title>
<path fill="none" stroke="#cccc66" d="M913.64,-167.77C917.39,-177.23 921.7,-187.62 926,-197 929.79,-205.28 934.21,-214.11 938.4,-222.18"/>
<polygon fill="#cccc66" stroke="#cccc66" points="935.4,-224.01 943.16,-231.23 941.6,-220.75 935.4,-224.01"/>
<text text-anchor="middle" x="944" y="-190.6" font-family="Cascadia Code PL" font-size="8.00" fill="#aaaaaa"> Color set</text>
</g>
<!-- CC_SWAP&#45;&gt;CC_IDLE -->
<g id="edge9" class="edge">
<title>CC_SWAP&#45;&gt;CC_IDLE</title>
<path fill="none" stroke="#cccc66" d="M1037.86,-167.62C1036.37,-177.58 1033.46,-188.3 1028,-197 1021.06,-208.05 1010.96,-217.57 1000.45,-225.4"/>
<polygon fill="#cccc66" stroke="#cccc66" points="998.17,-222.71 991.98,-231.31 1002.18,-228.45 998.17,-222.71"/>
<text text-anchor="middle" x="1049.5" y="-190.6" font-family="Cascadia Code PL" font-size="8.00" fill="#aaaaaa"> Swapped</text>
</g>
<!-- CC_RESET&#45;&gt;CC_IDLE -->
<g id="edge10" class="edge">
<title>CC_RESET&#45;&gt;CC_IDLE</title>
<path fill="none" stroke="#cccc66" d="M1157.87,-162.16C1154.21,-174.21 1148.08,-187.96 1138,-197 1104.47,-227.05 1055.03,-240.42 1015.83,-246.35"/>
<polygon fill="#cccc66" stroke="#cccc66" points="1015.27,-242.89 1005.85,-247.73 1016.23,-249.82 1015.27,-242.89"/>
<text text-anchor="middle" x="1155" y="-190.6" font-family="Cascadia Code PL" font-size="8.00" fill="#aaaaaa"> Reset</text>
</g>
</g>
</svg>
