<?xml version="1.0" encoding="UTF-8" standalone="no"?>
<!DOCTYPE svg PUBLIC "-//W3C//DTD SVG 1.1//EN"
 "http://www.w3.org/Graphics/SVG/1.1/DTD/svg11.dtd">
<!-- Generated by graphviz version 2.42.4 (0)
 -->
<!-- Title: TOOLTIPS Pages: 1 -->
<svg width="1050pt" height="680pt"
 viewBox="0.00 0.00 1050.21 680.00" xmlns="http://www.w3.org/2000/svg" xmlns:xlink="http://www.w3.org/1999/xlink">
<g id="graph0" class="graph" transform="scale(1 1) rotate(0) translate(4 676)">
<title>TOOLTIPS</title>
<text text-anchor="middle" x="521.1" y="-648.8" font-family="Cascadia Code PL" font-size="24.00" fill="white">TOOLTIP STATE MACHINE</text>
<g id="clust2" class="cluster">
<title>cluster_sources</title>
<polygon fill="transparent" stroke="orange" stroke-dasharray="5,2" points="243.21,-542 243.21,-630 857.21,-630 857.21,-542 243.21,-542"/>
<text text-anchor="middle" x="296.71" y="-617.2" font-family="Cascadia Code PL" font-size="11.00" fill="orange">TOOLTIP SOURCES</text>
</g>
<g id="clust4" class="cluster">
<title>cluster_legend</title>
<polygon fill="transparent" stroke="white" stroke-dasharray="5,2" points="865.21,-461.64 865.21,-604.36 1034.21,-604.36 1034.21,-461.64 865.21,-461.64"/>
<text text-anchor="middle" x="893.21" y="-591.56" font-family="Cascadia Code PL" font-size="11.00" fill="white">LEGEND</text>
</g>
<!-- MAIN -->
<g id="node1" class="node">
<title>MAIN</title>
<polygon fill="none" stroke="orange" stroke-width="2" points="232.71,-594 229.71,-598 208.71,-598 205.71,-594 103.71,-594 103.71,-558 232.71,-558 232.71,-594"/>
<text text-anchor="middle" x="168.21" y="-572.6" font-family="Cascadia Code PL" font-size="13.00" fill="orange">TOOLTIP LIFECYCLE</text>
</g>
<!-- S_HIDDEN -->
<g id="node2" class="node">
<title>S_HIDDEN</title>
<polygon fill="none" stroke="white" points="238.21,-504 98.21,-504 98.21,-436 238.21,-436 238.21,-504"/>
<text text-anchor="middle" x="168.21" y="-491.2" font-family="Cascadia Code PL" font-size="11.00" fill="cyan">1 · HIDDEN</text>
<text text-anchor="middle" x="168.21" y="-479.2" font-family="Cascadia Code PL" font-size="11.00" fill="cyan">─────────────────</text>
<text text-anchor="middle" x="168.21" y="-467.2" font-family="Cascadia Code PL" font-size="11.00" fill="cyan">TOOLTIP.visible% = FALSE</text>
<text text-anchor="middle" x="168.21" y="-455.2" font-family="Cascadia Code PL" font-size="11.00" fill="cyan">No tooltip rendered</text>
<text text-anchor="middle" x="168.21" y="-443.2" font-family="Cascadia Code PL" font-size="11.00" fill="cyan">Waiting for hover</text>
</g>
<!-- MAIN&#45;&gt;S_HIDDEN -->
<g id="edge8" class="edge">
<title>MAIN&#45;&gt;S_HIDDEN</title>
<path fill="none" stroke="#555555" stroke-dasharray="1,5" d="M168.21,-557.83C168.21,-543.29 168.21,-522.03 168.21,-504.18"/>
</g>
<!-- S_DELAY -->
<g id="node3" class="node">
<title>S_DELAY</title>
<polygon fill="none" stroke="white" points="153.21,-360 31.21,-360 31.21,-280 153.21,-280 153.21,-360"/>
<text text-anchor="middle" x="92.21" y="-347.2" font-family="Cascadia Code PL" font-size="11.00" fill="cyan">2 · DELAY</text>
<text text-anchor="middle" x="92.21" y="-335.2" font-family="Cascadia Code PL" font-size="11.00" fill="cyan">─────────────────</text>
<text text-anchor="middle" x="92.21" y="-323.2" font-family="Cascadia Code PL" font-size="11.00" fill="cyan">Mouse hovering over</text>
<text text-anchor="middle" x="92.21" y="-311.2" font-family="Cascadia Code PL" font-size="11.00" fill="cyan">target element</text>
<text text-anchor="middle" x="92.21" y="-299.2" font-family="Cascadia Code PL" font-size="11.00" fill="cyan">Timer counting down</text>
<text text-anchor="middle" x="92.21" y="-287.2" font-family="Cascadia Code PL" font-size="11.00" fill="cyan">TOOLTIP.hoverTimer!</text>
</g>
<!-- S_HIDDEN&#45;&gt;S_DELAY -->
<g id="edge1" class="edge">
<title>S_HIDDEN&#45;&gt;S_DELAY</title>
<path fill="none" stroke="#66cc66" d="M98.19,-465.22C64.98,-459.48 28.08,-446.51 7.21,-418 -3.29,-403.66 -1.16,-393.69 7.21,-378 11.24,-370.45 16.76,-363.72 23.07,-357.78"/>
<polygon fill="#66cc66" stroke="#66cc66" points="25.48,-360.32 30.79,-351.16 20.92,-355.01 25.48,-360.32"/>
<text text-anchor="middle" x="54.71" y="-410.8" font-family="Cascadia Code PL" font-size="9.00" fill="#aaaaaa"> &#160;Mouse enters target</text>
<text text-anchor="middle" x="54.71" y="-400.8" font-family="Cascadia Code PL" font-size="9.00" fill="#aaaaaa"> &#160;(toolbar btn, organizer,</text>
<text text-anchor="middle" x="54.71" y="-390.8" font-family="Cascadia Code PL" font-size="9.00" fill="#aaaaaa"> &#160;palette cell)</text>
<text text-anchor="middle" x="54.71" y="-380.8" font-family="Cascadia Code PL" font-size="9.00" fill="#aaaaaa"> &#160;Start hover timer</text>
</g>
<!-- S_DELAY&#45;&gt;S_HIDDEN -->
<g id="edge3" class="edge">
<title>S_DELAY&#45;&gt;S_HIDDEN</title>
<path fill="none" stroke="#cc6666" stroke-dasharray="5,2" d="M101.92,-360.18C107.33,-378.43 115.06,-400.03 125.21,-418 127.03,-421.21 129.06,-424.42 131.22,-427.57"/>
<polygon fill="#cc6666" stroke="#cc6666" points="128.47,-429.73 137.2,-435.73 134.11,-425.6 128.47,-429.73"/>
<text text-anchor="middle" x="161.71" y="-400.8" font-family="Cascadia Code PL" font-size="9.00" fill="#aaaaaa"> &#160;Mouse left target</text>
<text text-anchor="middle" x="161.71" y="-390.8" font-family="Cascadia Code PL" font-size="9.00" fill="#aaaaaa"> &#160;Cancel timer</text>
</g>
<!-- S_VISIBLE -->
<g id="node4" class="node">
<title>S_VISIBLE</title>
<polygon fill="none" stroke="white" points="248.71,-214 107.71,-214 107.71,-134 248.71,-134 248.71,-214"/>
<text text-anchor="middle" x="178.21" y="-201.2" font-family="Cascadia Code PL" font-size="11.00" fill="cyan">3 · VISIBLE</text>
<text text-anchor="middle" x="178.21" y="-189.2" font-family="Cascadia Code PL" font-size="11.00" fill="cyan">─────────────────</text>
<text text-anchor="middle" x="178.21" y="-177.2" font-family="Cascadia Code PL" font-size="11.00" fill="cyan">TOOLTIP.visible% = TRUE</text>
<text text-anchor="middle" x="178.21" y="-165.2" font-family="Cascadia Code PL" font-size="11.00" fill="cyan">Text rendered near cursor</text>
<text text-anchor="middle" x="178.21" y="-153.2" font-family="Cascadia Code PL" font-size="11.00" fill="cyan">Positioned to avoid</text>
<text text-anchor="middle" x="178.21" y="-141.2" font-family="Cascadia Code PL" font-size="11.00" fill="cyan">screen edge overflow</text>
</g>
<!-- S_DELAY&#45;&gt;S_VISIBLE -->
<g id="edge2" class="edge">
<title>S_DELAY&#45;&gt;S_VISIBLE</title>
<path fill="none" stroke="#66cc66" d="M85.04,-279.78C84.06,-264.08 85.45,-246.35 93.21,-232 95.3,-228.13 97.78,-224.48 100.56,-221.04"/>
<polygon fill="#66cc66" stroke="#66cc66" points="103.39,-223.13 107.53,-213.38 98.21,-218.42 103.39,-223.13"/>
<text text-anchor="middle" x="145.71" y="-254.8" font-family="Cascadia Code PL" font-size="9.00" fill="#aaaaaa"> &#160;Timer exceeded threshold</text>
<text text-anchor="middle" x="145.71" y="-244.8" font-family="Cascadia Code PL" font-size="9.00" fill="#aaaaaa"> &#160;(~0.5&#45;1.0 seconds)</text>
<text text-anchor="middle" x="145.71" y="-234.8" font-family="Cascadia Code PL" font-size="9.00" fill="#aaaaaa"> &#160;Show tooltip</text>
</g>
<!-- S_VISIBLE&#45;&gt;S_HIDDEN -->
<g id="edge5" class="edge">
<title>S_VISIBLE&#45;&gt;S_HIDDEN</title>
<path fill="none" stroke="#cc6666" stroke-dasharray="5,2" d="M193.86,-214.1C195.66,-220.01 197.21,-226.11 198.21,-232 212.09,-313.49 219.93,-338.24 198.21,-418 197.44,-420.83 196.46,-423.67 195.34,-426.48"/>
<polygon fill="#cc6666" stroke="#cc6666" points="192.04,-425.28 191.05,-435.83 198.4,-428.21 192.04,-425.28"/>
<text text-anchor="middle" x="263.71" y="-327.8" font-family="Cascadia Code PL" font-size="9.00" fill="#aaaaaa"> &#160;Button clicked</text>
<text text-anchor="middle" x="263.71" y="-317.8" font-family="Cascadia Code PL" font-size="9.00" fill="#aaaaaa"> &#160;Different widget hovered</text>
<text text-anchor="middle" x="263.71" y="-307.8" font-family="Cascadia Code PL" font-size="9.00" fill="#aaaaaa"> &#160;Immediate hide</text>
</g>
<!-- S_FADING -->
<g id="node5" class="node">
<title>S_FADING</title>
<polygon fill="none" stroke="white" points="310.21,-68 194.21,-68 194.21,0 310.21,0 310.21,-68"/>
<text text-anchor="middle" x="252.21" y="-55.2" font-family="Cascadia Code PL" font-size="11.00" fill="cyan">4 · FADING</text>
<text text-anchor="middle" x="252.21" y="-43.2" font-family="Cascadia Code PL" font-size="11.00" fill="cyan">─────────────────</text>
<text text-anchor="middle" x="252.21" y="-31.2" font-family="Cascadia Code PL" font-size="11.00" fill="cyan">Mouse moved away</text>
<text text-anchor="middle" x="252.21" y="-19.2" font-family="Cascadia Code PL" font-size="11.00" fill="cyan">Fade timer counting</text>
<text text-anchor="middle" x="252.21" y="-7.2" font-family="Cascadia Code PL" font-size="11.00" fill="cyan">Opacity decreasing</text>
</g>
<!-- S_VISIBLE&#45;&gt;S_FADING -->
<g id="edge4" class="edge">
<title>S_VISIBLE&#45;&gt;S_FADING</title>
<path fill="none" stroke="#cccc66" d="M148.99,-133.71C141.13,-118.17 137.05,-100.58 146.21,-86 155.21,-71.68 169.48,-61.29 184.67,-53.78"/>
<polygon fill="#cccc66" stroke="#cccc66" points="186.53,-56.78 194.2,-49.47 183.65,-50.4 186.53,-56.78"/>
<text text-anchor="middle" x="188.21" y="-103.8" font-family="Cascadia Code PL" font-size="9.00" fill="#aaaaaa"> &#160;Mouse leaves target</text>
<text text-anchor="middle" x="188.21" y="-93.8" font-family="Cascadia Code PL" font-size="9.00" fill="#aaaaaa"> &#160;Start fade timer</text>
</g>
<!-- S_FADING&#45;&gt;S_HIDDEN -->
<g id="edge6" class="edge">
<title>S_FADING&#45;&gt;S_HIDDEN</title>
<path fill="none" stroke="#cc6666" stroke-dasharray="5,2" d="M308.95,-68.23C314.24,-73.51 318.87,-79.43 322.21,-86 377.43,-194.55 375.33,-251.92 319.21,-360 303.48,-390.29 275.04,-414.14 247.05,-431.7"/>
<polygon fill="#cc6666" stroke="#cc6666" points="245.13,-428.78 238.39,-436.95 248.76,-434.76 245.13,-428.78"/>
<text text-anchor="middle" x="392.71" y="-249.8" font-family="Cascadia Code PL" font-size="9.00" fill="#aaaaaa"> &#160;Fade complete</text>
<text text-anchor="middle" x="392.71" y="-239.8" font-family="Cascadia Code PL" font-size="9.00" fill="#aaaaaa"> &#160;opacity = 0</text>
</g>
<!-- S_FADING&#45;&gt;S_VISIBLE -->
<g id="edge7" class="edge">
<title>S_FADING&#45;&gt;S_VISIBLE</title>
<path fill="none" stroke="#66cc66" d="M246.88,-68.28C243.54,-83.48 238.28,-101.31 230.21,-116 228.43,-119.24 226.43,-122.45 224.27,-125.59"/>
<polygon fill="#66cc66" stroke="#66cc66" points="221.38,-123.61 218.26,-133.73 227.01,-127.77 221.38,-123.61"/>
<text text-anchor="middle" x="280.21" y="-108.8" font-family="Cascadia Code PL" font-size="9.00" fill="#aaaaaa"> &#160;Mouse returns to</text>
<text text-anchor="middle" x="280.21" y="-98.8" font-family="Cascadia Code PL" font-size="9.00" fill="#aaaaaa"> &#160;same target</text>
<text text-anchor="middle" x="280.21" y="-88.8" font-family="Cascadia Code PL" font-size="9.00" fill="#aaaaaa"> &#160;Cancel fade, show</text>
</g>
<!-- SRC_TB -->
<g id="node6" class="node">
<title>SRC_TB</title>
<polygon fill="none" stroke="white" points="848.71,-602 743.71,-602 743.71,-550 848.71,-550 848.71,-602"/>
<text text-anchor="middle" x="796.21" y="-590" font-family="Cascadia Code PL" font-size="10.00" fill="cyan">Toolbar Buttons</text>
<text text-anchor="middle" x="796.21" y="-579" font-family="Cascadia Code PL" font-size="10.00" fill="cyan">────────────</text>
<text text-anchor="middle" x="796.21" y="-568" font-family="Cascadia Code PL" font-size="10.00" fill="cyan">Tool name + hotkey</text>
<text text-anchor="middle" x="796.21" y="-557" font-family="Cascadia Code PL" font-size="10.00" fill="cyan">&quot;Brush (B)&quot;</text>
</g>
<!-- SRC_ORG -->
<g id="node7" class="node">
<title>SRC_ORG</title>
<polygon fill="none" stroke="white" points="725.71,-602 614.71,-602 614.71,-550 725.71,-550 725.71,-602"/>
<text text-anchor="middle" x="670.21" y="-590" font-family="Cascadia Code PL" font-size="10.00" fill="cyan">Organizer Widgets</text>
<text text-anchor="middle" x="670.21" y="-579" font-family="Cascadia Code PL" font-size="10.00" fill="cyan">────────────</text>
<text text-anchor="middle" x="670.21" y="-568" font-family="Cascadia Code PL" font-size="10.00" fill="cyan">Widget name + state</text>
<text text-anchor="middle" x="670.21" y="-557" font-family="Cascadia Code PL" font-size="10.00" fill="cyan">&quot;Grid Snap: Corner&quot;</text>
</g>
<!-- SRC_PAL -->
<g id="node8" class="node">
<title>SRC_PAL</title>
<polygon fill="none" stroke="white" points="596.71,-602 497.71,-602 497.71,-550 596.71,-550 596.71,-602"/>
<text text-anchor="middle" x="547.21" y="-590" font-family="Cascadia Code PL" font-size="10.00" fill="cyan">Palette Colors</text>
<text text-anchor="middle" x="547.21" y="-579" font-family="Cascadia Code PL" font-size="10.00" fill="cyan">────────────</text>
<text text-anchor="middle" x="547.21" y="-568" font-family="Cascadia Code PL" font-size="10.00" fill="cyan">Color index + RGB</text>
<text text-anchor="middle" x="547.21" y="-557" font-family="Cascadia Code PL" font-size="10.00" fill="cyan">&quot;#FF0000 (idx 4)&quot;</text>
</g>
<!-- SRC_EDIT -->
<g id="node9" class="node">
<title>SRC_EDIT</title>
<polygon fill="none" stroke="white" points="479.21,-602 363.21,-602 363.21,-550 479.21,-550 479.21,-602"/>
<text text-anchor="middle" x="421.21" y="-590" font-family="Cascadia Code PL" font-size="10.00" fill="cyan">Edit Bar Buttons</text>
<text text-anchor="middle" x="421.21" y="-579" font-family="Cascadia Code PL" font-size="10.00" fill="cyan">────────────</text>
<text text-anchor="middle" x="421.21" y="-568" font-family="Cascadia Code PL" font-size="10.00" fill="cyan">Action name + hotkey</text>
<text text-anchor="middle" x="421.21" y="-557" font-family="Cascadia Code PL" font-size="10.00" fill="cyan">&quot;Undo (Ctrl+Z)&quot;</text>
</g>
<!-- SRC_LAYER -->
<g id="node10" class="node">
<title>SRC_LAYER</title>
<polygon fill="none" stroke="white" points="345.21,-602 251.21,-602 251.21,-550 345.21,-550 345.21,-602"/>
<text text-anchor="middle" x="298.21" y="-590" font-family="Cascadia Code PL" font-size="10.00" fill="cyan">Layer Panel Icons</text>
<text text-anchor="middle" x="298.21" y="-579" font-family="Cascadia Code PL" font-size="10.00" fill="cyan">────────────</text>
<text text-anchor="middle" x="298.21" y="-568" font-family="Cascadia Code PL" font-size="10.00" fill="cyan">Button function</text>
<text text-anchor="middle" x="298.21" y="-557" font-family="Cascadia Code PL" font-size="10.00" fill="cyan">&quot;Toggle Visibility&quot;</text>
</g>
<!-- L1 -->
<g id="node11" class="node">
<title>L1</title>
<ellipse fill="white" stroke="white" cx="1001.21" cy="-576" rx="0.36" ry="0.36"/>
</g>
<!-- L2 -->
<g id="node12" class="node">
<title>L2</title>
<ellipse fill="white" stroke="white" cx="1001.21" cy="-470" rx="0.36" ry="0.36"/>
</g>
<!-- L1&#45;&gt;L2 -->
<g id="edge9" class="edge">
<title>L1&#45;&gt;L2</title>
<path fill="none" stroke="#66cc66" d="M1001.21,-574.92C1001.21,-572.39 1001.21,-506.81 1001.21,-481.15"/>
<polygon fill="#66cc66" stroke="#66cc66" points="1004.71,-481.07 1001.21,-471.07 997.71,-481.07 1004.71,-481.07"/>
<text text-anchor="middle" x="1013.71" y="-524.8" font-family="Cascadia Code PL" font-size="9.00" fill="#aaaaaa"> Show</text>
</g>
<!-- L3 -->
<g id="node13" class="node">
<title>L3</title>
<ellipse fill="white" stroke="white" cx="956.21" cy="-576" rx="0.36" ry="0.36"/>
</g>
<!-- L4 -->
<g id="node14" class="node">
<title>L4</title>
<ellipse fill="white" stroke="white" cx="956.21" cy="-470" rx="0.36" ry="0.36"/>
</g>
<!-- L3&#45;&gt;L4 -->
<g id="edge10" class="edge">
<title>L3&#45;&gt;L4</title>
<path fill="none" stroke="#cc6666" stroke-dasharray="5,2" d="M956.21,-574.92C956.21,-572.39 956.21,-506.81 956.21,-481.15"/>
<polygon fill="#cc6666" stroke="#cc6666" points="959.71,-481.07 956.21,-471.07 952.71,-481.07 959.71,-481.07"/>
<text text-anchor="middle" x="967.21" y="-524.8" font-family="Cascadia Code PL" font-size="9.00" fill="#aaaaaa"> Hide</text>
</g>
<!-- L5 -->
<g id="node15" class="node">
<title>L5</title>
<ellipse fill="white" stroke="white" cx="891.21" cy="-576" rx="0.36" ry="0.36"/>
</g>
<!-- L6 -->
<g id="node16" class="node">
<title>L6</title>
<ellipse fill="white" stroke="white" cx="891.21" cy="-470" rx="0.36" ry="0.36"/>
</g>
<!-- L5&#45;&gt;L6 -->
<g id="edge11" class="edge">
<title>L5&#45;&gt;L6</title>
<path fill="none" stroke="#cccc66" d="M891.21,-574.92C891.21,-572.39 891.21,-506.81 891.21,-481.15"/>
<polygon fill="#cccc66" stroke="#cccc66" points="894.71,-481.07 891.21,-471.07 887.71,-481.07 894.71,-481.07"/>
<text text-anchor="middle" x="912.21" y="-524.8" font-family="Cascadia Code PL" font-size="9.00" fill="#aaaaaa"> Transition</text>
</g>
</g>
</svg>
