<?xml version="1.0" encoding="UTF-8" standalone="no"?>
<!DOCTYPE svg PUBLIC "-//W3C//DTD SVG 1.1//EN"
 "http://www.w3.org/Graphics/SVG/1.1/DTD/svg11.dtd">
<!-- Generated by graphviz version 2.42.4 (0)
 -->
<!-- Title: TOOLBAR Pages: 1 -->
<svg width="1752pt" height="586pt"
 viewBox="0.00 0.00 1752.00 586.00" xmlns="http://www.w3.org/2000/svg" xmlns:xlink="http://www.w3.org/1999/xlink">
<g id="graph0" class="graph" transform="scale(1 1) rotate(0) translate(4 582)">
<title>TOOLBAR</title>
<text text-anchor="middle" x="872" y="-554.8" font-family="Cascadia Code PL" font-size="24.00" fill="white">TOOLBOX STATE MACHINE</text>
<g id="clust6" class="cluster">
<title>cluster_legend</title>
<polygon fill="transparent" stroke="white" stroke-dasharray="5,2" points="1516,-291.64 1516,-482.86 1736,-482.86 1736,-291.64 1516,-291.64"/>
<text text-anchor="middle" x="1544" y="-470.06" font-family="Cascadia Code PL" font-size="11.00" fill="white">LEGEND</text>
</g>
<g id="clust2" class="cluster">
<title>cluster_layout</title>
<polygon fill="transparent" stroke="orange" stroke-dasharray="5,2" points="575,-255 575,-365 1075,-365 1075,-255 575,-255"/>
<text text-anchor="middle" x="729.5" y="-352.2" font-family="Cascadia Code PL" font-size="11.00" fill="orange">TOOLBAR LAYOUT — 4 cols × 7 rows (TB_COLS × TB_ROWS)</text>
</g>
<g id="clust3" class="cluster">
<title>cluster_tools</title>
<polygon fill="transparent" stroke="orange" stroke-dasharray="5,2" points="1036,-393 1036,-536 1508,-536 1508,-393 1036,-393"/>
<text text-anchor="middle" x="1124.5" y="-523.2" font-family="Cascadia Code PL" font-size="11.00" fill="orange">TOOL CONSTANTS — GUI/GUI.BI</text>
</g>
<!-- TOOL_SEL -->
<g id="node1" class="node">
<title>TOOL_SEL</title>
<polygon fill="none" stroke="orange" stroke-width="2" points="120.5,-472.5 117.5,-476.5 96.5,-476.5 93.5,-472.5 3.5,-472.5 3.5,-436.5 120.5,-436.5 120.5,-472.5"/>
<text text-anchor="middle" x="62" y="-451.1" font-family="Cascadia Code PL" font-size="13.00" fill="orange">TOOL SELECTION</text>
</g>
<!-- S_IDLE -->
<g id="node3" class="node">
<title>S_IDLE</title>
<polygon fill="none" stroke="white" points="124,-334 0,-334 0,-266 124,-266 124,-334"/>
<text text-anchor="middle" x="62" y="-321.2" font-family="Cascadia Code PL" font-size="11.00" fill="cyan">1 · NO TOOL ACTIVE</text>
<text text-anchor="middle" x="62" y="-309.2" font-family="Cascadia Code PL" font-size="11.00" fill="cyan">─────────────────</text>
<text text-anchor="middle" x="62" y="-297.2" font-family="Cascadia Code PL" font-size="11.00" fill="cyan">CURRENT_TOOL% = 0</text>
<text text-anchor="middle" x="62" y="-285.2" font-family="Cascadia Code PL" font-size="11.00" fill="cyan">Toolbar rendered</text>
<text text-anchor="middle" x="62" y="-273.2" font-family="Cascadia Code PL" font-size="11.00" fill="cyan">All buttons normal</text>
</g>
<!-- TOOL_SEL&#45;&gt;S_IDLE -->
<g id="edge7" class="edge">
<title>TOOL_SEL&#45;&gt;S_IDLE</title>
<path fill="none" stroke="#555555" stroke-dasharray="1,5" d="M62,-436.3C62,-411.61 62,-365.63 62,-334.18"/>
</g>
<!-- LAYOUT_F -->
<g id="node2" class="node">
<title>LAYOUT_F</title>
<polygon fill="none" stroke="orange" stroke-width="2" points="1025.5,-472.5 1022.5,-476.5 1001.5,-476.5 998.5,-472.5 962.5,-472.5 962.5,-436.5 1025.5,-436.5 1025.5,-472.5"/>
<text text-anchor="middle" x="994" y="-451.1" font-family="Cascadia Code PL" font-size="13.00" fill="orange">LAYOUT</text>
</g>
<!-- LY_GRID -->
<g id="node7" class="node">
<title>LY_GRID</title>
<polygon fill="none" stroke="white" points="1067,-337 921,-337 921,-263 1067,-263 1067,-337"/>
<text text-anchor="middle" x="994" y="-325" font-family="Cascadia Code PL" font-size="10.00" fill="cyan">Button Grid</text>
<text text-anchor="middle" x="994" y="-314" font-family="Cascadia Code PL" font-size="10.00" fill="cyan">────────────</text>
<text text-anchor="middle" x="994" y="-303" font-family="Cascadia Code PL" font-size="10.00" fill="cyan">28 tool buttons (4×7)</text>
<text text-anchor="middle" x="994" y="-292" font-family="Cascadia Code PL" font-size="10.00" fill="cyan">TB_BTN_W × TB_BTN_H each</text>
<text text-anchor="middle" x="994" y="-281" font-family="Cascadia Code PL" font-size="10.00" fill="cyan">TB_GAP% spacing</text>
<text text-anchor="middle" x="994" y="-270" font-family="Cascadia Code PL" font-size="10.00" fill="cyan">Icons loaded from theme</text>
</g>
<!-- LAYOUT_F&#45;&gt;LY_GRID -->
<g id="edge8" class="edge">
<title>LAYOUT_F&#45;&gt;LY_GRID</title>
<path fill="none" stroke="#555555" stroke-dasharray="1,5" d="M994,-436.3C994,-418.92 994,-390.98 994,-365"/>
</g>
<!-- S_ACTIVE -->
<g id="node4" class="node">
<title>S_ACTIVE</title>
<polygon fill="none" stroke="white" points="459.5,-340 316.5,-340 316.5,-260 459.5,-260 459.5,-340"/>
<text text-anchor="middle" x="388" y="-327.2" font-family="Cascadia Code PL" font-size="11.00" fill="cyan">2 · TOOL ACTIVE</text>
<text text-anchor="middle" x="388" y="-315.2" font-family="Cascadia Code PL" font-size="11.00" fill="cyan">─────────────────</text>
<text text-anchor="middle" x="388" y="-303.2" font-family="Cascadia Code PL" font-size="11.00" fill="cyan">CURRENT_TOOL% &gt; 0</text>
<text text-anchor="middle" x="388" y="-291.2" font-family="Cascadia Code PL" font-size="11.00" fill="cyan">Active button highlighted</text>
<text text-anchor="middle" x="388" y="-279.2" font-family="Cascadia Code PL" font-size="11.00" fill="cyan">Prev tool saved in</text>
<text text-anchor="middle" x="388" y="-267.2" font-family="Cascadia Code PL" font-size="11.00" fill="cyan">SCRN.prevTool%</text>
</g>
<!-- S_IDLE&#45;&gt;S_ACTIVE -->
<g id="edge1" class="edge">
<title>S_IDLE&#45;&gt;S_ACTIVE</title>
<path fill="none" stroke="#66cc66" d="M124.09,-300C175.74,-300 249.68,-300 306.16,-300"/>
<polygon fill="#66cc66" stroke="#66cc66" points="306.5,-303.5 316.5,-300 306.5,-296.5 306.5,-303.5"/>
<text text-anchor="middle" x="220.25" y="-325.8" font-family="Cascadia Code PL" font-size="9.00" fill="#aaaaaa"> &#160;Hotkey / Menu action</text>
<text text-anchor="middle" x="220.25" y="-315.8" font-family="Cascadia Code PL" font-size="9.00" fill="#aaaaaa"> &#160;KEYBOARD_tools() / CMD_execute_action()</text>
<text text-anchor="middle" x="220.25" y="-305.8" font-family="Cascadia Code PL" font-size="9.00" fill="#aaaaaa"> &#160;Sets CURRENT_TOOL%</text>
</g>
<!-- S_ACTIVE&#45;&gt;S_ACTIVE -->
<g id="edge5" class="edge">
<title>S_ACTIVE&#45;&gt;S_ACTIVE</title>
<path fill="none" stroke="#88aacc" d="M459.63,-311.57C470.29,-309.77 477.5,-305.91 477.5,-300 477.5,-296.21 474.54,-293.27 469.61,-291.17"/>
<polygon fill="#88aacc" stroke="#88aacc" points="470.2,-287.7 459.63,-288.43 468.34,-294.45 470.2,-287.7"/>
<text text-anchor="middle" x="521" y="-307.8" font-family="Cascadia Code PL" font-size="9.00" fill="#aaaaaa"> &#160;Hotkey switches tool</text>
<text text-anchor="middle" x="521" y="-297.8" font-family="Cascadia Code PL" font-size="9.00" fill="#aaaaaa"> &#160;KEYBOARD_tools()</text>
<text text-anchor="middle" x="521" y="-287.8" font-family="Cascadia Code PL" font-size="9.00" fill="#aaaaaa"> &#160;Reset prev, set new</text>
</g>
<!-- S_HOVER -->
<g id="node5" class="node">
<title>S_HOVER</title>
<polygon fill="none" stroke="white" points="449.5,-204 300.5,-204 300.5,-136 449.5,-136 449.5,-204"/>
<text text-anchor="middle" x="375" y="-191.2" font-family="Cascadia Code PL" font-size="11.00" fill="cyan">3 · BUTTON HOVER</text>
<text text-anchor="middle" x="375" y="-179.2" font-family="Cascadia Code PL" font-size="11.00" fill="cyan">─────────────────</text>
<text text-anchor="middle" x="375" y="-167.2" font-family="Cascadia Code PL" font-size="11.00" fill="cyan">Mouse over toolbar button</text>
<text text-anchor="middle" x="375" y="-155.2" font-family="Cascadia Code PL" font-size="11.00" fill="cyan">Tooltip queued</text>
<text text-anchor="middle" x="375" y="-143.2" font-family="Cascadia Code PL" font-size="11.00" fill="cyan">Highlight drawn</text>
</g>
<!-- S_ACTIVE&#45;&gt;S_HOVER -->
<g id="edge2" class="edge">
<title>S_ACTIVE&#45;&gt;S_HOVER</title>
<path fill="none" stroke="#88aacc" d="M316.26,-286.76C290.63,-278.55 264.33,-264.85 249,-242 232.45,-217.33 258.12,-200.29 290.51,-189.11"/>
<polygon fill="#88aacc" stroke="#88aacc" points="291.82,-192.37 300.26,-185.97 289.67,-185.7 291.82,-192.37"/>
<text text-anchor="middle" x="307.5" y="-229.8" font-family="Cascadia Code PL" font-size="9.00" fill="#aaaaaa"> &#160;Mouse over different button</text>
</g>
<!-- S_HOVER&#45;&gt;S_ACTIVE -->
<g id="edge6" class="edge">
<title>S_HOVER&#45;&gt;S_ACTIVE</title>
<path fill="none" stroke="#cc6666" stroke-dasharray="5,2" d="M378.38,-204.25C379.78,-218.08 381.44,-234.43 382.98,-249.62"/>
<polygon fill="#cc6666" stroke="#cc6666" points="379.54,-250.31 384.03,-259.9 386.5,-249.6 379.54,-250.31"/>
<text text-anchor="middle" x="423" y="-234.8" font-family="Cascadia Code PL" font-size="9.00" fill="#aaaaaa"> &#160;Mouse exits button</text>
<text text-anchor="middle" x="423" y="-224.8" font-family="Cascadia Code PL" font-size="9.00" fill="#aaaaaa"> &#160;Tooltip cancelled</text>
</g>
<!-- S_CLICK -->
<g id="node6" class="node">
<title>S_CLICK</title>
<polygon fill="none" stroke="white" points="498.5,-80 361.5,-80 361.5,0 498.5,0 498.5,-80"/>
<text text-anchor="middle" x="430" y="-67.2" font-family="Cascadia Code PL" font-size="11.00" fill="cyan">4 · BUTTON CLICK</text>
<text text-anchor="middle" x="430" y="-55.2" font-family="Cascadia Code PL" font-size="11.00" fill="cyan">─────────────────</text>
<text text-anchor="middle" x="430" y="-43.2" font-family="Cascadia Code PL" font-size="11.00" fill="cyan">TOOLBAR_click()</text>
<text text-anchor="middle" x="430" y="-31.2" font-family="Cascadia Code PL" font-size="11.00" fill="cyan">Reset previous tool state</text>
<text text-anchor="middle" x="430" y="-19.2" font-family="Cascadia Code PL" font-size="11.00" fill="cyan">Set CURRENT_TOOL%</text>
<text text-anchor="middle" x="430" y="-7.2" font-family="Cascadia Code PL" font-size="11.00" fill="cyan">CMD_execute_action()</text>
</g>
<!-- S_HOVER&#45;&gt;S_CLICK -->
<g id="edge3" class="edge">
<title>S_HOVER&#45;&gt;S_CLICK</title>
<path fill="none" stroke="#66cc66" d="M381.69,-135.78C384.71,-123.62 388.78,-109.92 394,-98 395.31,-95 396.77,-91.97 398.32,-88.96"/>
<polygon fill="#66cc66" stroke="#66cc66" points="401.49,-90.47 403.22,-80.02 395.35,-87.1 401.49,-90.47"/>
<text text-anchor="middle" x="432.5" y="-110.8" font-family="Cascadia Code PL" font-size="9.00" fill="#aaaaaa"> &#160;B1 click on button</text>
<text text-anchor="middle" x="432.5" y="-100.8" font-family="Cascadia Code PL" font-size="9.00" fill="#aaaaaa"> &#160;TOOLBAR_click()</text>
</g>
<!-- S_CLICK&#45;&gt;S_ACTIVE -->
<g id="edge4" class="edge">
<title>S_CLICK&#45;&gt;S_ACTIVE</title>
<path fill="none" stroke="#cccc66" d="M462.72,-80.08C466.1,-85.8 469.02,-91.85 471,-98 490.64,-158.93 498.01,-185.46 468,-242 466.12,-245.54 463.91,-248.91 461.45,-252.12"/>
<polygon fill="#cccc66" stroke="#cccc66" points="458.75,-249.89 454.85,-259.74 464.04,-254.47 458.75,-249.89"/>
<text text-anchor="middle" x="547" y="-177.8" font-family="Cascadia Code PL" font-size="9.00" fill="#aaaaaa"> &#160;New tool activated</text>
<text text-anchor="middle" x="547" y="-167.8" font-family="Cascadia Code PL" font-size="9.00" fill="#aaaaaa"> &#160;Previous tool reset</text>
<text text-anchor="middle" x="547" y="-157.8" font-family="Cascadia Code PL" font-size="9.00" fill="#aaaaaa"> &#160;(LINE_reset, RECT_reset, etc.)</text>
</g>
<!-- LY_MAP -->
<g id="node8" class="node">
<title>LY_MAP</title>
<polygon fill="none" stroke="white" points="902.5,-337 753.5,-337 753.5,-263 902.5,-263 902.5,-337"/>
<text text-anchor="middle" x="828" y="-325" font-family="Cascadia Code PL" font-size="10.00" fill="cyan">Button → Tool Mapping</text>
<text text-anchor="middle" x="828" y="-314" font-family="Cascadia Code PL" font-size="10.00" fill="cyan">────────────</text>
<text text-anchor="middle" x="828" y="-303" font-family="Cascadia Code PL" font-size="10.00" fill="cyan">TOOLBAR_BUTTONS(row, col)</text>
<text text-anchor="middle" x="828" y="-292" font-family="Cascadia Code PL" font-size="10.00" fill="cyan">Maps grid position to</text>
<text text-anchor="middle" x="828" y="-281" font-family="Cascadia Code PL" font-size="10.00" fill="cyan">TOOL_* constant</text>
<text text-anchor="middle" x="828" y="-270" font-family="Cascadia Code PL" font-size="10.00" fill="cyan">Action ID for CMD_execute</text>
</g>
<!-- LY_INDICATOR -->
<g id="node9" class="node">
<title>LY_INDICATOR</title>
<polygon fill="none" stroke="white" points="735,-337 583,-337 583,-263 735,-263 735,-337"/>
<text text-anchor="middle" x="659" y="-325" font-family="Cascadia Code PL" font-size="10.00" fill="cyan">Active Indicator</text>
<text text-anchor="middle" x="659" y="-314" font-family="Cascadia Code PL" font-size="10.00" fill="cyan">────────────</text>
<text text-anchor="middle" x="659" y="-303" font-family="Cascadia Code PL" font-size="10.00" fill="cyan">Highlight border on</text>
<text text-anchor="middle" x="659" y="-292" font-family="Cascadia Code PL" font-size="10.00" fill="cyan">active tool button</text>
<text text-anchor="middle" x="659" y="-281" font-family="Cascadia Code PL" font-size="10.00" fill="cyan">Color: THEME.TB_ACTIVE_*~&amp;</text>
<text text-anchor="middle" x="659" y="-270" font-family="Cascadia Code PL" font-size="10.00" fill="cyan">Updated on tool switch</text>
</g>
<!-- T_LIST -->
<g id="node10" class="node">
<title>T_LIST</title>
<polygon fill="none" stroke="white" points="1500,-508 1346,-508 1346,-401 1500,-401 1500,-508"/>
<text text-anchor="middle" x="1423" y="-496" font-family="Cascadia Code PL" font-size="10.00" fill="cyan">Drawing Tools</text>
<text text-anchor="middle" x="1423" y="-485" font-family="Cascadia Code PL" font-size="10.00" fill="cyan">────────────</text>
<text text-anchor="middle" x="1423" y="-474" font-family="Cascadia Code PL" font-size="10.00" fill="cyan">TOOL_DOT, TOOL_BRUSH,</text>
<text text-anchor="middle" x="1423" y="-463" font-family="Cascadia Code PL" font-size="10.00" fill="cyan">TOOL_SPRAY, TOOL_LINE,</text>
<text text-anchor="middle" x="1423" y="-452" font-family="Cascadia Code PL" font-size="10.00" fill="cyan">TOOL_RECT, TOOL_FRECT,</text>
<text text-anchor="middle" x="1423" y="-441" font-family="Cascadia Code PL" font-size="10.00" fill="cyan">TOOL_ELLIPSE, TOOL_FELLIPSE,</text>
<text text-anchor="middle" x="1423" y="-430" font-family="Cascadia Code PL" font-size="10.00" fill="cyan">TOOL_FILL, TOOL_POLY_LINE,</text>
<text text-anchor="middle" x="1423" y="-419" font-family="Cascadia Code PL" font-size="10.00" fill="cyan">TOOL_POLY_FILL, TOOL_RAY,</text>
<text text-anchor="middle" x="1423" y="-408" font-family="Cascadia Code PL" font-size="10.00" fill="cyan">TOOL_TEXT, TOOL_ERASER</text>
</g>
<!-- T_SELECT -->
<g id="node11" class="node">
<title>T_SELECT</title>
<polygon fill="none" stroke="white" points="1327.5,-508 1192.5,-508 1192.5,-401 1327.5,-401 1327.5,-508"/>
<text text-anchor="middle" x="1260" y="-496" font-family="Cascadia Code PL" font-size="10.00" fill="cyan">Selection Tools</text>
<text text-anchor="middle" x="1260" y="-485" font-family="Cascadia Code PL" font-size="10.00" fill="cyan">────────────</text>
<text text-anchor="middle" x="1260" y="-474" font-family="Cascadia Code PL" font-size="10.00" fill="cyan">TOOL_SELECT_RECT,</text>
<text text-anchor="middle" x="1260" y="-463" font-family="Cascadia Code PL" font-size="10.00" fill="cyan">TOOL_SELECT_FREEHAND,</text>
<text text-anchor="middle" x="1260" y="-452" font-family="Cascadia Code PL" font-size="10.00" fill="cyan">TOOL_SELECT_POLYGON,</text>
<text text-anchor="middle" x="1260" y="-441" font-family="Cascadia Code PL" font-size="10.00" fill="cyan">TOOL_SELECT_ELLIPSE,</text>
<text text-anchor="middle" x="1260" y="-430" font-family="Cascadia Code PL" font-size="10.00" fill="cyan">TOOL_SELECT_WAND,</text>
<text text-anchor="middle" x="1260" y="-419" font-family="Cascadia Code PL" font-size="10.00" fill="cyan">TOOL_MOVE, TOOL_PAN,</text>
<text text-anchor="middle" x="1260" y="-408" font-family="Cascadia Code PL" font-size="10.00" fill="cyan">TOOL_ZOOM, TOOL_CROP</text>
</g>
<!-- T_UTIL -->
<g id="node12" class="node">
<title>T_UTIL</title>
<polygon fill="none" stroke="white" points="1174,-497 1044,-497 1044,-412 1174,-412 1174,-497"/>
<text text-anchor="middle" x="1109" y="-485" font-family="Cascadia Code PL" font-size="10.00" fill="cyan">Utility Tools</text>
<text text-anchor="middle" x="1109" y="-474" font-family="Cascadia Code PL" font-size="10.00" fill="cyan">────────────</text>
<text text-anchor="middle" x="1109" y="-463" font-family="Cascadia Code PL" font-size="10.00" fill="cyan">TOOL_PICKER,</text>
<text text-anchor="middle" x="1109" y="-452" font-family="Cascadia Code PL" font-size="10.00" fill="cyan">TOOL_CUSTOM_BRUSH,</text>
<text text-anchor="middle" x="1109" y="-441" font-family="Cascadia Code PL" font-size="10.00" fill="cyan">TOOL_SAVE, TOOL_LOAD,</text>
<text text-anchor="middle" x="1109" y="-430" font-family="Cascadia Code PL" font-size="10.00" fill="cyan">TOOL_BAS (QB64 code),</text>
<text text-anchor="middle" x="1109" y="-419" font-family="Cascadia Code PL" font-size="10.00" fill="cyan">TOOL_HELP (cheatsheet)</text>
</g>
<!-- L1 -->
<g id="node13" class="node">
<title>L1</title>
<ellipse fill="white" stroke="white" cx="1693" cy="-454.5" rx="0.36" ry="0.36"/>
</g>
<!-- L2 -->
<g id="node14" class="node">
<title>L2</title>
<ellipse fill="white" stroke="white" cx="1693" cy="-300" rx="0.36" ry="0.36"/>
</g>
<!-- L1&#45;&gt;L2 -->
<g id="edge9" class="edge">
<title>L1&#45;&gt;L2</title>
<path fill="none" stroke="#66cc66" d="M1693,-453.39C1693,-449.52 1693,-345.06 1693,-311.37"/>
<polygon fill="#66cc66" stroke="#66cc66" points="1696.5,-311.11 1693,-301.11 1689.5,-311.11 1696.5,-311.11"/>
<text text-anchor="middle" x="1710.5" y="-375.8" font-family="Cascadia Code PL" font-size="9.00" fill="#aaaaaa"> Activate</text>
</g>
<!-- L3 -->
<g id="node15" class="node">
<title>L3</title>
<ellipse fill="white" stroke="white" cx="1626" cy="-454.5" rx="0.36" ry="0.36"/>
</g>
<!-- L4 -->
<g id="node16" class="node">
<title>L4</title>
<ellipse fill="white" stroke="white" cx="1626" cy="-300" rx="0.36" ry="0.36"/>
</g>
<!-- L3&#45;&gt;L4 -->
<g id="edge10" class="edge">
<title>L3&#45;&gt;L4</title>
<path fill="none" stroke="#cc6666" stroke-dasharray="5,2" d="M1626,-453.39C1626,-449.52 1626,-345.06 1626,-311.37"/>
<polygon fill="#cc6666" stroke="#cc6666" points="1629.5,-311.11 1626,-301.11 1622.5,-311.11 1629.5,-311.11"/>
<text text-anchor="middle" x="1648" y="-375.8" font-family="Cascadia Code PL" font-size="9.00" fill="#aaaaaa"> Deactivate</text>
</g>
<!-- L5 -->
<g id="node17" class="node">
<title>L5</title>
<ellipse fill="white" stroke="white" cx="1542" cy="-454.5" rx="0.36" ry="0.36"/>
</g>
<!-- L6 -->
<g id="node18" class="node">
<title>L6</title>
<ellipse fill="white" stroke="white" cx="1542" cy="-300" rx="0.36" ry="0.36"/>
</g>
<!-- L5&#45;&gt;L6 -->
<g id="edge11" class="edge">
<title>L5&#45;&gt;L6</title>
<path fill="none" stroke="#cccc66" d="M1542,-453.39C1542,-449.52 1542,-345.06 1542,-311.37"/>
<polygon fill="#cccc66" stroke="#cccc66" points="1545.5,-311.11 1542,-301.11 1538.5,-311.11 1545.5,-311.11"/>
<text text-anchor="middle" x="1572.5" y="-375.8" font-family="Cascadia Code PL" font-size="9.00" fill="#aaaaaa"> Commit Switch</text>
</g>
</g>
</svg>
