<?xml version="1.0" encoding="UTF-8" standalone="no"?>
<!DOCTYPE svg PUBLIC "-//W3C//DTD SVG 1.1//EN"
 "http://www.w3.org/Graphics/SVG/1.1/DTD/svg11.dtd">
<!-- Generated by graphviz version 2.42.4 (0)
 -->
<!-- Title: G Pages: 1 -->
<svg width="1005pt" height="395pt"
 viewBox="0.00 0.00 1004.50 395.00" xmlns="http://www.w3.org/2000/svg" xmlns:xlink="http://www.w3.org/1999/xlink">
<g id="graph0" class="graph" transform="scale(1 1) rotate(0) translate(4 391)">
<title>G</title>
<text text-anchor="middle" x="498.25" y="-363.8" font-family="Cascadia Code PL" font-size="24.00" fill="white"> </text>
<text text-anchor="middle" x="498.25" y="-337.8" font-family="Cascadia Code PL" font-size="24.00" fill="white"> DRAW UI WIDGETS STATES </text>
<text text-anchor="middle" x="498.25" y="-311.8" font-family="Cascadia Code PL" font-size="24.00" fill="white"> </text>
<!-- IDLE -->
<g id="node1" class="node">
<title>IDLE</title>
<polygon fill="none" stroke="white" points="506.5,-301 452.5,-301 452.5,-265 506.5,-265 506.5,-301"/>
<text text-anchor="middle" x="479.5" y="-279.9" font-family="Cascadia Code PL" font-size="12.00" fill="cyan">IDLE</text>
</g>
<!-- WIDGETS -->
<g id="node2" class="node">
<title>WIDGETS</title>
<polygon fill="none" stroke="orange" stroke-width="2" points="512.5,-229 509.5,-233 488.5,-233 485.5,-229 446.5,-229 446.5,-193 512.5,-193 512.5,-229"/>
<text text-anchor="middle" x="479.5" y="-207.9" font-family="Cascadia Code PL" font-size="12.00" fill="cyan">WIDGETS</text>
</g>
<!-- IDLE&#45;&gt;WIDGETS -->
<g id="edge1" class="edge">
<title>IDLE&#45;&gt;WIDGETS:n</title>
<path fill="none" stroke="gray" d="M479.5,-264.81C479.5,-257.28 479.5,-248.1 479.5,-239.06"/>
<polygon fill="gray" stroke="gray" points="483,-239 479.5,-229 476,-239 483,-239"/>
</g>
<!-- PALETTE -->
<g id="node3" class="node">
<title>PALETTE</title>
<polygon fill="none" stroke="white" points="121.5,-157 59.5,-157 59.5,-121 121.5,-121 121.5,-157"/>
<text text-anchor="middle" x="90.5" y="-135.9" font-family="Cascadia Code PL" font-size="12.00" fill="cyan">PALETTE</text>
</g>
<!-- WIDGETS&#45;&gt;PALETTE -->
<g id="edge2" class="edge">
<title>WIDGETS&#45;&gt;PALETTE:n</title>
<path fill="none" stroke="gray" d="M446.33,-208.95C360.35,-205.82 134.25,-194.9 96.03,-165.72"/>
<polygon fill="gray" stroke="gray" points="98.81,-163.57 90.5,-157 92.9,-167.32 98.81,-163.57"/>
</g>
<!-- PATTERN -->
<g id="node4" class="node">
<title>PATTERN</title>
<polygon fill="none" stroke="white" points="317,-157 252,-157 252,-121 317,-121 317,-157"/>
<text text-anchor="middle" x="284.5" y="-135.9" font-family="Cascadia Code PL" font-size="12.00" fill="cyan">PATTERN</text>
</g>
<!-- WIDGETS&#45;&gt;PATTERN -->
<g id="edge3" class="edge">
<title>WIDGETS&#45;&gt;PATTERN:n</title>
<path fill="none" stroke="gray" d="M446.42,-207.82C396.65,-203.72 306.36,-192.82 287.86,-166.83"/>
<polygon fill="gray" stroke="gray" points="291.05,-165.33 284.5,-157 284.42,-167.59 291.05,-165.33"/>
</g>
<!-- WIDTH -->
<g id="node5" class="node">
<title>WIDTH</title>
<polygon fill="none" stroke="white" points="418.5,-157 364.5,-157 364.5,-121 418.5,-121 418.5,-157"/>
<text text-anchor="middle" x="391.5" y="-135.9" font-family="Cascadia Code PL" font-size="12.00" fill="cyan">WIDTH</text>
</g>
<!-- WIDGETS&#45;&gt;WIDTH -->
<g id="edge4" class="edge">
<title>WIDGETS&#45;&gt;WIDTH:n</title>
<path fill="none" stroke="gray" d="M446.48,-203.96C424.83,-198.15 399.38,-187.15 393.01,-166.95"/>
<polygon fill="gray" stroke="gray" points="396.46,-166.36 391.5,-157 389.54,-167.41 396.46,-166.36"/>
</g>
<!-- MENUBAR -->
<g id="node6" class="node">
<title>MENUBAR</title>
<polygon fill="none" stroke="white" points="620.5,-157 548.5,-157 548.5,-121 620.5,-121 620.5,-157"/>
<text text-anchor="middle" x="584.5" y="-135.9" font-family="Cascadia Code PL" font-size="12.00" fill="cyan">MENUBAR</text>
</g>
<!-- WIDGETS&#45;&gt;MENUBAR -->
<g id="edge5" class="edge">
<title>WIDGETS&#45;&gt;MENUBAR:n</title>
<path fill="none" stroke="gray" d="M512.72,-207.01C540.12,-202.73 575.65,-192.32 583.1,-167.01"/>
<polygon fill="gray" stroke="gray" points="586.58,-167.39 584.5,-157 579.64,-166.42 586.58,-167.39"/>
</g>
<!-- LAYERS -->
<g id="node7" class="node">
<title>LAYERS</title>
<polygon fill="none" stroke="white" points="863.5,-157 807.5,-157 807.5,-121 863.5,-121 863.5,-157"/>
<text text-anchor="middle" x="835.5" y="-135.9" font-family="Cascadia Code PL" font-size="12.00" fill="cyan">LAYERS</text>
</g>
<!-- WIDGETS&#45;&gt;LAYERS -->
<g id="edge6" class="edge">
<title>WIDGETS&#45;&gt;LAYERS:n</title>
<path fill="none" stroke="gray" d="M512.67,-208.52C592.76,-204.55 792.82,-192.12 829.63,-165.67"/>
<polygon fill="gray" stroke="gray" points="832.79,-167.24 835.5,-157 826.99,-163.32 832.79,-167.24"/>
</g>
<!-- STATUSBAR -->
<g id="node8" class="node">
<title>STATUSBAR</title>
<polygon fill="none" stroke="white" points="988,-157 909,-157 909,-121 988,-121 988,-157"/>
<text text-anchor="middle" x="948.5" y="-135.9" font-family="Cascadia Code PL" font-size="12.00" fill="cyan">STATUSBAR</text>
</g>
<!-- WIDGETS&#45;&gt;STATUSBAR -->
<g id="edge7" class="edge">
<title>WIDGETS&#45;&gt;STATUSBAR:n</title>
<path fill="none" stroke="gray" d="M512.85,-209.73C612.26,-208.53 902.18,-201.95 943.56,-165.96"/>
<polygon fill="gray" stroke="gray" points="946.74,-167.45 948.5,-157 940.61,-164.07 946.74,-167.45"/>
</g>
<!-- FG -->
<g id="node9" class="node">
<title>FG</title>
<text text-anchor="middle" x="7.5" y="-75.4" font-family="Cascadia Code PL" font-size="12.00" fill="cyan">FG</text>
</g>
<!-- PALETTE&#45;&gt;FG -->
<g id="edge8" class="edge">
<title>PALETTE&#45;&gt;FG:n</title>
<path fill="none" stroke="gray" d="M59.12,-131.31C38.92,-125.24 15.32,-114.22 9.08,-95.07"/>
<polygon fill="gray" stroke="gray" points="12.51,-94.34 7.5,-85 5.59,-95.42 12.51,-94.34"/>
</g>
<!-- BG -->
<g id="node10" class="node">
<title>BG</title>
<text text-anchor="middle" x="41.5" y="-75.4" font-family="Cascadia Code PL" font-size="12.00" fill="cyan">BG</text>
</g>
<!-- PALETTE&#45;&gt;BG -->
<g id="edge9" class="edge">
<title>PALETTE&#45;&gt;BG:n</title>
<path fill="none" stroke="gray" d="M62.56,-120.83C54.23,-113.97 46.43,-105.28 43.14,-95.15"/>
<polygon fill="gray" stroke="gray" points="46.55,-94.31 41.5,-85 39.64,-95.43 46.55,-94.31"/>
</g>
<!-- CP &lt;&#45; &#45;&gt; -->
<g id="node11" class="node">
<title>CP &lt;&#45; &#45;&gt;</title>
<text text-anchor="middle" x="90.5" y="-75.4" font-family="Cascadia Code PL" font-size="12.00" fill="cyan">CP &lt;&#45; &#45;&gt;</text>
</g>
<!-- PALETTE&#45;&gt;CP &lt;&#45; &#45;&gt; -->
<g id="edge10" class="edge">
<title>PALETTE&#45;&gt;CP &lt;&#45; &#45;&gt;:n</title>
<path fill="none" stroke="gray" d="M90.5,-120.81C90.5,-113.28 90.5,-104.1 90.5,-95.06"/>
<polygon fill="gray" stroke="gray" points="94,-95 90.5,-85 87,-95 94,-95"/>
</g>
<!-- DCLICKA -->
<g id="node12" class="node">
<title>DCLICKA</title>
<text text-anchor="middle" x="155.5" y="-75.4" font-family="Cascadia Code PL" font-size="12.00" fill="yellow">DCLICKA</text>
</g>
<!-- PALETTE&#45;&gt;DCLICKA -->
<g id="edge11" class="edge">
<title>PALETTE&#45;&gt;DCLICKA:n</title>
<path fill="none" stroke="gray" d="M121.86,-126.07C135.36,-119.11 149.13,-108.94 153.82,-95.14"/>
<polygon fill="gray" stroke="gray" points="157.32,-95.44 155.5,-85 150.41,-94.29 157.32,-95.44"/>
</g>
<!-- PP &lt;&#45; &#45;&gt; -->
<g id="node14" class="node">
<title>PP &lt;&#45; &#45;&gt;</title>
<text text-anchor="middle" x="284.5" y="-75.4" font-family="Cascadia Code PL" font-size="12.00" fill="cyan">PP &lt;&#45; &#45;&gt;</text>
</g>
<!-- PATTERN&#45;&gt;PP &lt;&#45; &#45;&gt; -->
<g id="edge13" class="edge">
<title>PATTERN&#45;&gt;PP &lt;&#45; &#45;&gt;:n</title>
<path fill="none" stroke="gray" d="M284.5,-120.81C284.5,-113.28 284.5,-104.1 284.5,-95.06"/>
<polygon fill="gray" stroke="gray" points="288,-95 284.5,-85 281,-95 288,-95"/>
</g>
<!-- DCLICKB -->
<g id="node15" class="node">
<title>DCLICKB</title>
<text text-anchor="middle" x="220.5" y="-75.4" font-family="Cascadia Code PL" font-size="12.00" fill="yellow">DCLICKB</text>
</g>
<!-- PATTERN&#45;&gt;DCLICKB -->
<g id="edge14" class="edge">
<title>PATTERN&#45;&gt;DCLICKB:n</title>
<path fill="none" stroke="gray" d="M251.75,-124.94C239.08,-117.99 226.57,-108.13 222.16,-95.08"/>
<polygon fill="gray" stroke="gray" points="225.58,-94.3 220.5,-85 218.67,-95.44 225.58,-94.3"/>
</g>
<!-- 1 -->
<g id="node17" class="node">
<title>1</title>
<text text-anchor="middle" x="329.5" y="-75.4" font-family="Cascadia Code PL" font-size="12.00" fill="cyan">1</text>
</g>
<!-- WIDTH&#45;&gt;1 -->
<g id="edge16" class="edge">
<title>WIDTH&#45;&gt;1:n</title>
<path fill="none" stroke="gray" d="M364.49,-127.24C350.78,-120.17 336.02,-109.52 331.16,-95.06"/>
<polygon fill="gray" stroke="gray" points="334.58,-94.3 329.5,-85 327.67,-95.44 334.58,-94.3"/>
</g>
<!-- 2 -->
<g id="node18" class="node">
<title>2</title>
<text text-anchor="middle" x="354.5" y="-75.4" font-family="Cascadia Code PL" font-size="12.00" fill="cyan">2</text>
</g>
<!-- WIDTH&#45;&gt;2 -->
<g id="edge17" class="edge">
<title>WIDTH&#45;&gt;2:n</title>
<path fill="none" stroke="gray" d="M371.7,-120.89C365.1,-113.75 358.73,-104.83 355.95,-95.04"/>
<polygon fill="gray" stroke="gray" points="359.39,-94.4 354.5,-85 352.47,-95.4 359.39,-94.4"/>
</g>
<!-- 3 -->
<g id="node19" class="node">
<title>3</title>
<text text-anchor="middle" x="379.5" y="-75.4" font-family="Cascadia Code PL" font-size="12.00" fill="cyan">3</text>
</g>
<!-- WIDTH&#45;&gt;3 -->
<g id="edge18" class="edge">
<title>WIDTH&#45;&gt;3:n</title>
<path fill="none" stroke="gray" d="M385.5,-120.56C383.32,-113.12 381.14,-104.1 380.11,-95.08"/>
<polygon fill="gray" stroke="gray" points="383.6,-94.77 379.5,-85 376.61,-95.19 383.6,-94.77"/>
</g>
<!-- 4 -->
<g id="node20" class="node">
<title>4</title>
<text text-anchor="middle" x="404.5" y="-75.4" font-family="Cascadia Code PL" font-size="12.00" fill="cyan">4</text>
</g>
<!-- WIDTH&#45;&gt;4 -->
<g id="edge19" class="edge">
<title>WIDTH&#45;&gt;4:n</title>
<path fill="none" stroke="gray" d="M398,-120.6C400.36,-113.17 402.72,-104.15 403.84,-95.11"/>
<polygon fill="gray" stroke="gray" points="407.34,-95.21 404.5,-85 400.35,-94.75 407.34,-95.21"/>
</g>
<!-- N -->
<g id="node21" class="node">
<title>N</title>
<text text-anchor="middle" x="431.5" y="-75.4" font-family="Cascadia Code PL" font-size="12.00" fill="cyan">N</text>
</g>
<!-- WIDTH&#45;&gt;N -->
<g id="edge20" class="edge">
<title>WIDTH&#45;&gt;N:n</title>
<path fill="none" stroke="gray" d="M413.37,-120.73C420.38,-113.69 427.07,-104.89 429.98,-95.1"/>
<polygon fill="gray" stroke="gray" points="433.47,-95.41 431.5,-85 426.55,-94.37 433.47,-95.41"/>
</g>
<!-- FILE -->
<g id="node22" class="node">
<title>FILE</title>
<text text-anchor="middle" x="465.5" y="-75.4" font-family="Cascadia Code PL" font-size="12.00" fill="cyan">FILE</text>
</g>
<!-- MENUBAR&#45;&gt;FILE -->
<g id="edge21" class="edge">
<title>MENUBAR&#45;&gt;FILE:n</title>
<path fill="none" stroke="gray" d="M548.47,-136.66C516.87,-133.54 474.74,-123.91 466.82,-95.06"/>
<polygon fill="gray" stroke="gray" points="470.27,-94.46 465.5,-85 463.33,-95.37 470.27,-94.46"/>
</g>
<!-- EDIT -->
<g id="node23" class="node">
<title>EDIT</title>
<text text-anchor="middle" x="506.5" y="-75.4" font-family="Cascadia Code PL" font-size="12.00" fill="cyan">EDIT</text>
</g>
<!-- MENUBAR&#45;&gt;EDIT -->
<g id="edge22" class="edge">
<title>MENUBAR&#45;&gt;EDIT:n</title>
<path fill="none" stroke="gray" d="M548.24,-128.31C531.21,-121.72 513.49,-111.21 508.13,-95.13"/>
<polygon fill="gray" stroke="gray" points="511.54,-94.32 506.5,-85 504.63,-95.43 511.54,-94.32"/>
</g>
<!-- SELECT -->
<g id="node24" class="node">
<title>SELECT</title>
<text text-anchor="middle" x="556.5" y="-75.4" font-family="Cascadia Code PL" font-size="12.00" fill="cyan">SELECT</text>
</g>
<!-- MENUBAR&#45;&gt;SELECT -->
<g id="edge23" class="edge">
<title>MENUBAR&#45;&gt;SELECT:n</title>
<path fill="none" stroke="gray" d="M569.84,-120.55C564.87,-113.35 560,-104.51 557.77,-95.21"/>
<polygon fill="gray" stroke="gray" points="561.21,-94.49 556.5,-85 554.26,-95.36 561.21,-94.49"/>
</g>
<!-- BRUSH -->
<g id="node25" class="node">
<title>BRUSH</title>
<text text-anchor="middle" x="613.5" y="-75.4" font-family="Cascadia Code PL" font-size="12.00" fill="cyan">BRUSH</text>
</g>
<!-- MENUBAR&#45;&gt;BRUSH -->
<g id="edge24" class="edge">
<title>MENUBAR&#45;&gt;BRUSH:n</title>
<path fill="none" stroke="gray" d="M599.68,-120.63C604.89,-113.37 609.98,-104.42 612.26,-94.98"/>
<polygon fill="gray" stroke="gray" points="615.74,-95.36 613.5,-85 608.79,-94.49 615.74,-95.36"/>
</g>
<!-- IMAGE -->
<g id="node26" class="node">
<title>IMAGE</title>
<text text-anchor="middle" x="668.5" y="-75.4" font-family="Cascadia Code PL" font-size="12.00" fill="cyan">IMAGE</text>
</g>
<!-- MENUBAR&#45;&gt;IMAGE -->
<g id="edge25" class="edge">
<title>MENUBAR&#45;&gt;IMAGE:n</title>
<path fill="none" stroke="gray" d="M620.61,-130.09C640,-123.82 661.09,-113.04 666.93,-95.07"/>
<polygon fill="gray" stroke="gray" points="670.42,-95.42 668.5,-85 663.5,-94.34 670.42,-95.42"/>
</g>
<!-- CODE -->
<g id="node27" class="node">
<title>CODE</title>
<text text-anchor="middle" x="720.5" y="-75.4" font-family="Cascadia Code PL" font-size="12.00" fill="cyan">CODE</text>
</g>
<!-- MENUBAR&#45;&gt;CODE -->
<g id="edge26" class="edge">
<title>MENUBAR&#45;&gt;CODE:n</title>
<path fill="none" stroke="gray" d="M620.59,-138.65C657.42,-137.38 710.4,-129.49 719.23,-95.34"/>
<polygon fill="gray" stroke="gray" points="722.75,-95.35 720.5,-85 715.81,-94.5 722.75,-95.35"/>
</g>
<!-- EDITORS -->
<g id="node28" class="node">
<title>EDITORS</title>
<text text-anchor="middle" x="777.5" y="-75.4" font-family="Cascadia Code PL" font-size="12.00" fill="cyan">EDITORS</text>
</g>
<!-- MENUBAR&#45;&gt;EDITORS -->
<g id="edge27" class="edge">
<title>MENUBAR&#45;&gt;EDITORS:n</title>
<path fill="none" stroke="gray" d="M620.8,-135.45C670.81,-131.03 756.74,-119.87 774.31,-94.56"/>
<polygon fill="gray" stroke="gray" points="777.65,-95.59 777.5,-85 771.01,-93.38 777.65,-95.59"/>
</g>
<!-- + -->
<g id="node29" class="node">
<title>+</title>
<text text-anchor="middle" x="823.5" y="-75.4" font-family="Cascadia Code PL" font-size="12.00" fill="cyan">+</text>
</g>
<!-- LAYERS&#45;&gt;+ -->
<g id="edge28" class="edge">
<title>LAYERS&#45;&gt;+:n</title>
<path fill="none" stroke="gray" d="M829.5,-120.56C827.32,-113.12 825.14,-104.1 824.11,-95.08"/>
<polygon fill="gray" stroke="gray" points="827.6,-94.77 823.5,-85 820.61,-95.19 827.6,-94.77"/>
</g>
<!-- &#45; -->
<g id="node30" class="node">
<title>&#45;</title>
<text text-anchor="middle" x="848.5" y="-75.4" font-family="Cascadia Code PL" font-size="12.00" fill="cyan">&#45;</text>
</g>
<!-- LAYERS&#45;&gt;&#45; -->
<g id="edge29" class="edge">
<title>LAYERS&#45;&gt;&#45;:n</title>
<path fill="none" stroke="gray" d="M842,-120.6C844.36,-113.17 846.72,-104.15 847.84,-95.11"/>
<polygon fill="gray" stroke="gray" points="851.34,-95.21 848.5,-85 844.35,-94.75 851.34,-95.21"/>
</g>
<!-- LP &lt;&#45; &#45;&gt; -->
<g id="node31" class="node">
<title>LP &lt;&#45; &#45;&gt;</title>
<text text-anchor="middle" x="891.5" y="-75.4" font-family="Cascadia Code PL" font-size="12.00" fill="cyan">LP &lt;&#45; &#45;&gt;</text>
</g>
<!-- LAYERS&#45;&gt;LP &lt;&#45; &#45;&gt; -->
<g id="edge30" class="edge">
<title>LAYERS&#45;&gt;LP &lt;&#45; &#45;&gt;:n</title>
<path fill="none" stroke="gray" d="M863.5,-124.35C874.66,-117.21 885.81,-107.34 889.88,-94.96"/>
<polygon fill="gray" stroke="gray" points="893.35,-95.43 891.5,-85 886.44,-94.31 893.35,-95.43"/>
</g>
<!-- COLORCHIP -->
<g id="node32" class="node">
<title>COLORCHIP</title>
<text text-anchor="middle" x="964.5" y="-75.4" font-family="Cascadia Code PL" font-size="12.00" fill="cyan">COLORCHIP</text>
</g>
<!-- STATUSBAR&#45;&gt;COLORCHIP -->
<g id="edge31" class="edge">
<title>STATUSBAR&#45;&gt;COLORCHIP:n</title>
<path fill="none" stroke="gray" d="M956.5,-120.73C959.41,-113.33 962.31,-104.32 963.68,-95.22"/>
<polygon fill="gray" stroke="gray" points="967.19,-95.25 964.5,-85 960.22,-94.69 967.19,-95.25"/>
</g>
<!-- COLOR EDITOR -->
<g id="node13" class="node">
<title>COLOR EDITOR</title>
<polygon fill="none" stroke="white" points="204.5,-36 110.5,-36 106.5,-32 106.5,0 200.5,0 204.5,-4 204.5,-36"/>
<polyline fill="none" stroke="white" points="200.5,-32 106.5,-32 "/>
<polyline fill="none" stroke="white" points="200.5,-32 200.5,0 "/>
<polyline fill="none" stroke="white" points="200.5,-32 204.5,-36 "/>
<text text-anchor="middle" x="155.5" y="-14.9" font-family="Cascadia Code PL" font-size="12.00" fill="cyan">COLOR EDITOR</text>
</g>
<!-- DCLICKA&#45;&gt;COLOR EDITOR -->
<g id="edge12" class="edge">
<title>DCLICKA&#45;&gt;COLOR EDITOR:n</title>
<path fill="none" stroke="gray" d="M155.5,-71.86C155.5,-65.94 155.5,-56.12 155.5,-46.2"/>
<polygon fill="gray" stroke="gray" points="159,-46 155.5,-36 152,-46 159,-46"/>
</g>
<!-- PATTERN EDITOR -->
<g id="node16" class="node">
<title>PATTERN EDITOR</title>
<polygon fill="none" stroke="white" points="330,-36 227,-36 223,-32 223,0 326,0 330,-4 330,-36"/>
<polyline fill="none" stroke="white" points="326,-32 223,-32 "/>
<polyline fill="none" stroke="white" points="326,-32 326,0 "/>
<polyline fill="none" stroke="white" points="326,-32 330,-36 "/>
<text text-anchor="middle" x="276.5" y="-14.9" font-family="Cascadia Code PL" font-size="12.00" fill="cyan">PATTERN EDITOR</text>
</g>
<!-- DCLICKB&#45;&gt;PATTERN EDITOR -->
<g id="edge15" class="edge">
<title>DCLICKB&#45;&gt;PATTERN EDITOR:n</title>
<path fill="none" stroke="gray" d="M239.77,-71.98C252.81,-67.18 268.65,-58.95 274.34,-46.15"/>
<polygon fill="gray" stroke="gray" points="277.84,-46.51 276.5,-36 270.99,-45.05 277.84,-46.51"/>
</g>
<!-- COLORCHIP&#45;&gt;COLOR EDITOR -->
<g id="edge32" class="edge">
<title>COLORCHIP&#45;&gt;COLOR EDITOR:n</title>
<path fill="none" stroke="gray" d="M932.3,-72.91C929.33,-72.57 926.36,-72.26 923.5,-72 883.45,-68.38 238.17,-77.53 162.69,-42.97"/>
<polygon fill="gray" stroke="gray" points="165.11,-40.45 155.5,-36 160.24,-45.47 165.11,-40.45"/>
</g>
</g>
</svg>
