<?xml version="1.0" encoding="UTF-8" standalone="no"?>
<!DOCTYPE svg PUBLIC "-//W3C//DTD SVG 1.1//EN"
 "http://www.w3.org/Graphics/SVG/1.1/DTD/svg11.dtd">
<!-- Generated by graphviz version 2.42.4 (0)
 -->
<!-- Title: G Pages: 1 -->
<svg width="549pt" height="403pt"
 viewBox="0.00 0.00 548.50 403.00" xmlns="http://www.w3.org/2000/svg" xmlns:xlink="http://www.w3.org/1999/xlink">
<g id="graph0" class="graph" transform="scale(1 1) rotate(0) translate(4 399)">
<title>G</title>
<text text-anchor="middle" x="270.25" y="-371.8" font-family="Cascadia Code PL" font-size="24.00" fill="white"> </text>
<text text-anchor="middle" x="270.25" y="-345.8" font-family="Cascadia Code PL" font-size="24.00" fill="white"> DRAW UI ASSISTANT STATES </text>
<text text-anchor="middle" x="270.25" y="-319.8" font-family="Cascadia Code PL" font-size="24.00" fill="white"> </text>
<!-- ASSISTANT -->
<g id="node1" class="node">
<title>ASSISTANT</title>
<polygon fill="darkorange" stroke="darkorange" stroke-width="2" points="330.5,-309 327.5,-313 306.5,-313 303.5,-309 254.5,-309 254.5,-273 330.5,-273 330.5,-309"/>
<text text-anchor="middle" x="292.5" y="-287.9" font-family="Cascadia Code PL" font-size="12.00" fill="white">ASSISTANT</text>
</g>
<!-- CTRL+ALT -->
<g id="node2" class="node">
<title>CTRL+ALT</title>
<path fill="none" stroke="white" d="M102,-230.5C102,-230.5 43,-230.5 43,-230.5 37,-230.5 31,-224.5 31,-218.5 31,-218.5 31,-201.5 31,-201.5 31,-195.5 37,-189.5 43,-189.5 43,-189.5 102,-189.5 102,-189.5 108,-189.5 114,-195.5 114,-201.5 114,-201.5 114,-218.5 114,-218.5 114,-224.5 108,-230.5 102,-230.5"/>
<text text-anchor="middle" x="72.5" y="-206.9" font-family="Cascadia Code PL" font-size="12.00" fill="yellow">CTRL+ALT</text>
</g>
<!-- ASSISTANT&#45;&gt;CTRL+ALT -->
<g id="edge1" class="edge">
<title>ASSISTANT&#45;&gt;CTRL+ALT:n</title>
<path fill="none" stroke="gray" d="M254.18,-287.76C197.06,-283.45 94.26,-271.65 75.48,-241.84"/>
<polygon fill="gray" stroke="gray" points="78.75,-240.55 72.5,-232 72.05,-242.59 78.75,-240.55"/>
</g>
<!-- SHIFT or\nCAPS&#45;LOCK -->
<g id="node4" class="node">
<title>SHIFT or\nCAPS&#45;LOCK</title>
<polygon fill="none" stroke="white" points="222.5,-237 136.5,-237 132.5,-233 132.5,-183 218.5,-183 222.5,-187 222.5,-237"/>
<polyline fill="none" stroke="white" points="218.5,-233 132.5,-233 "/>
<polyline fill="none" stroke="white" points="218.5,-233 218.5,-183 "/>
<polyline fill="none" stroke="white" points="218.5,-233 222.5,-237 "/>
<text text-anchor="middle" x="177.5" y="-213.4" font-family="Cascadia Code PL" font-size="12.00" fill="yellow">SHIFT or</text>
<text text-anchor="middle" x="177.5" y="-200.4" font-family="Cascadia Code PL" font-size="12.00" fill="yellow">CAPS&#45;LOCK</text>
</g>
<!-- ASSISTANT&#45;&gt;SHIFT or\nCAPS&#45;LOCK -->
<g id="edge3" class="edge">
<title>ASSISTANT&#45;&gt;SHIFT or\nCAPS&#45;LOCK:n</title>
<path fill="none" stroke="gray" d="M254.21,-287.84C224.28,-284.07 186.51,-273.98 178.88,-247.19"/>
<polygon fill="gray" stroke="gray" points="182.31,-246.44 177.5,-237 175.37,-247.38 182.31,-246.44"/>
</g>
<!-- SCROLL&#45;LOCK -->
<g id="node6" class="node">
<title>SCROLL&#45;LOCK</title>
<polygon fill="none" stroke="white" points="344.5,-230.5 244.5,-230.5 240.5,-226.5 240.5,-189.5 340.5,-189.5 344.5,-193.5 344.5,-230.5"/>
<polyline fill="none" stroke="white" points="340.5,-226.5 240.5,-226.5 "/>
<polyline fill="none" stroke="white" points="340.5,-226.5 340.5,-189.5 "/>
<polyline fill="none" stroke="white" points="340.5,-226.5 344.5,-230.5 "/>
<text text-anchor="middle" x="292.5" y="-206.9" font-family="Cascadia Code PL" font-size="12.00" fill="yellow">SCROLL&#45;LOCK</text>
</g>
<!-- ASSISTANT&#45;&gt;SCROLL&#45;LOCK -->
<g id="edge5" class="edge">
<title>ASSISTANT&#45;&gt;SCROLL&#45;LOCK:n</title>
<path fill="none" stroke="gray" d="M292.5,-273C292.5,-264.24 292.5,-253.13 292.5,-242.26"/>
<polygon fill="gray" stroke="gray" points="296,-242 292.5,-232 289,-242 296,-242"/>
</g>
<!-- ALT -->
<g id="node8" class="node">
<title>ALT</title>
<path fill="none" stroke="white" d="M404.5,-230.5C404.5,-230.5 374.5,-230.5 374.5,-230.5 368.5,-230.5 362.5,-224.5 362.5,-218.5 362.5,-218.5 362.5,-201.5 362.5,-201.5 362.5,-195.5 368.5,-189.5 374.5,-189.5 374.5,-189.5 404.5,-189.5 404.5,-189.5 410.5,-189.5 416.5,-195.5 416.5,-201.5 416.5,-201.5 416.5,-218.5 416.5,-218.5 416.5,-224.5 410.5,-230.5 404.5,-230.5"/>
<text text-anchor="middle" x="389.5" y="-206.9" font-family="Cascadia Code PL" font-size="12.00" fill="yellow">ALT</text>
</g>
<!-- ASSISTANT&#45;&gt;ALT -->
<g id="edge7" class="edge">
<title>ASSISTANT&#45;&gt;ALT:n</title>
<path fill="none" stroke="gray" d="M330.56,-283.02C354.34,-276.51 381.63,-264.34 388.08,-242.14"/>
<polygon fill="gray" stroke="gray" points="391.58,-242.39 389.5,-232 384.65,-241.42 391.58,-242.39"/>
</g>
<!-- SPACE or\nMIDDLE&#45;CLICK -->
<g id="node10" class="node">
<title>SPACE or\nMIDDLE&#45;CLICK</title>
<path fill="none" stroke="white" d="M528.5,-237C528.5,-237 446.5,-237 446.5,-237 440.5,-237 434.5,-231 434.5,-225 434.5,-225 434.5,-195 434.5,-195 434.5,-189 440.5,-183 446.5,-183 446.5,-183 528.5,-183 528.5,-183 534.5,-183 540.5,-189 540.5,-195 540.5,-195 540.5,-225 540.5,-225 540.5,-231 534.5,-237 528.5,-237"/>
<text text-anchor="middle" x="487.5" y="-213.4" font-family="Cascadia Code PL" font-size="12.00" fill="yellow">SPACE or</text>
<text text-anchor="middle" x="487.5" y="-200.4" font-family="Cascadia Code PL" font-size="12.00" fill="yellow">MIDDLE&#45;CLICK</text>
</g>
<!-- ASSISTANT&#45;&gt;SPACE or\nMIDDLE&#45;CLICK -->
<g id="edge9" class="edge">
<title>ASSISTANT&#45;&gt;SPACE or\nMIDDLE&#45;CLICK:n</title>
<path fill="none" stroke="gray" d="M330.56,-287.4C381.32,-282.98 466.85,-271.9 484.33,-246.57"/>
<polygon fill="gray" stroke="gray" points="487.67,-247.59 487.5,-237 481.03,-245.39 487.67,-247.59"/>
</g>
<!-- ZOOM -->
<g id="node3" class="node">
<title>ZOOM</title>
<polygon fill="none" stroke="white" points="99.5,-147 45.5,-147 45.5,-111 99.5,-111 99.5,-147"/>
<text text-anchor="middle" x="72.5" y="-125.9" font-family="Cascadia Code PL" font-size="12.00" fill="cyan">ZOOM</text>
</g>
<!-- CTRL+ALT&#45;&gt;ZOOM -->
<g id="edge2" class="edge">
<title>CTRL+ALT&#45;&gt;ZOOM:n</title>
<path fill="none" stroke="gray" d="M72.5,-189.45C72.5,-180.11 72.5,-168.52 72.5,-157.22"/>
<polygon fill="gray" stroke="gray" points="76,-157 72.5,-147 69,-157 76,-157"/>
</g>
<!-- LEFT CLICK  -->
<g id="node16" class="node">
<title>LEFT CLICK </title>
<text text-anchor="middle" x="30.5" y="-65.4" font-family="Cascadia Code PL" font-size="12.00" fill="yellow">LEFT CLICK </text>
</g>
<!-- ZOOM&#45;&gt;LEFT CLICK  -->
<g id="edge15" class="edge">
<title>ZOOM&#45;&gt;LEFT CLICK :n</title>
<path fill="none" stroke="gray" d="M49.53,-110.95C42.1,-103.87 35,-94.97 32,-84.94"/>
<polygon fill="gray" stroke="gray" points="35.45,-84.37 30.5,-75 28.53,-85.41 35.45,-84.37"/>
</g>
<!-- RIGHT CLICK  -->
<g id="node18" class="node">
<title>RIGHT CLICK </title>
<text text-anchor="middle" x="114.5" y="-65.4" font-family="Cascadia Code PL" font-size="12.00" fill="yellow">RIGHT CLICK </text>
</g>
<!-- ZOOM&#45;&gt;RIGHT CLICK  -->
<g id="edge17" class="edge">
<title>ZOOM&#45;&gt;RIGHT CLICK :n</title>
<path fill="none" stroke="gray" d="M95.47,-110.95C102.9,-103.87 110,-94.97 113,-84.94"/>
<polygon fill="gray" stroke="gray" points="116.47,-85.41 114.5,-75 109.55,-84.37 116.47,-85.41"/>
</g>
<!-- CROSSHAIR -->
<g id="node5" class="node">
<title>CROSSHAIR</title>
<polygon fill="none" stroke="magenta" stroke-dasharray="5,2" points="217.5,-147 137.5,-147 137.5,-111 217.5,-111 217.5,-147"/>
<text text-anchor="middle" x="177.5" y="-125.9" font-family="Cascadia Code PL" font-size="12.00" fill="cyan">CROSSHAIR</text>
</g>
<!-- SHIFT or\nCAPS&#45;LOCK&#45;&gt;CROSSHAIR -->
<g id="edge4" class="edge">
<title>SHIFT or\nCAPS&#45;LOCK&#45;&gt;CROSSHAIR:n</title>
<path fill="none" stroke="gray" d="M177.5,-182.75C177.5,-174.82 177.5,-165.88 177.5,-157.12"/>
<polygon fill="gray" stroke="gray" points="181,-157 177.5,-147 174,-157 181,-157"/>
</g>
<!-- SYMMETRY -->
<g id="node7" class="node">
<title>SYMMETRY</title>
<polygon fill="none" stroke="magenta" stroke-dasharray="5,2" points="326,-147 249,-147 249,-111 326,-111 326,-147"/>
<text text-anchor="middle" x="287.5" y="-125.9" font-family="Cascadia Code PL" font-size="12.00" fill="cyan">SYMMETRY</text>
</g>
<!-- SCROLL&#45;LOCK&#45;&gt;SYMMETRY -->
<g id="edge6" class="edge">
<title>SCROLL&#45;LOCK&#45;&gt;SYMMETRY:n</title>
<path fill="none" stroke="gray" d="M290.12,-189.49C289.13,-180.15 288.12,-168.56 287.7,-157.24"/>
<polygon fill="gray" stroke="gray" points="291.2,-156.93 287.5,-147 284.2,-157.07 291.2,-156.93"/>
</g>
<!-- COLOR PICKER -->
<g id="node9" class="node">
<title>COLOR PICKER</title>
<polygon fill="none" stroke="white" points="439,-147 344,-147 344,-111 439,-111 439,-147"/>
<text text-anchor="middle" x="391.5" y="-125.9" font-family="Cascadia Code PL" font-size="12.00" fill="cyan">COLOR PICKER</text>
</g>
<!-- ALT&#45;&gt;COLOR PICKER -->
<g id="edge8" class="edge">
<title>ALT&#45;&gt;COLOR PICKER:n</title>
<path fill="none" stroke="gray" d="M390.45,-189.46C390.85,-180.12 391.25,-168.52 391.42,-157.22"/>
<polygon fill="gray" stroke="gray" points="394.92,-157.03 391.5,-147 387.92,-156.97 394.92,-157.03"/>
</g>
<!-- LEFT CLICK -->
<g id="node12" class="node">
<title>LEFT CLICK</title>
<text text-anchor="middle" x="303.5" y="-65.4" font-family="Cascadia Code PL" font-size="12.00" fill="yellow">LEFT CLICK</text>
</g>
<!-- COLOR PICKER&#45;&gt;LEFT CLICK -->
<g id="edge11" class="edge">
<title>COLOR PICKER&#45;&gt;LEFT CLICK:n</title>
<path fill="none" stroke="gray" d="M349.3,-110.91C332.54,-103.1 315.43,-93.56 307.72,-84.37"/>
<polygon fill="gray" stroke="gray" points="310.8,-82.68 303.5,-75 304.42,-85.56 310.8,-82.68"/>
</g>
<!-- RIGHT CLICK -->
<g id="node14" class="node">
<title>RIGHT CLICK</title>
<text text-anchor="middle" x="392.5" y="-65.4" font-family="Cascadia Code PL" font-size="12.00" fill="yellow">RIGHT CLICK</text>
</g>
<!-- COLOR PICKER&#45;&gt;RIGHT CLICK -->
<g id="edge13" class="edge">
<title>COLOR PICKER&#45;&gt;RIGHT CLICK:n</title>
<path fill="none" stroke="gray" d="M391.99,-110.82C392.17,-103.28 392.36,-94.1 392.45,-85.06"/>
<polygon fill="gray" stroke="gray" points="395.95,-85.02 392.5,-75 388.95,-84.98 395.95,-85.02"/>
</g>
<!-- PAN -->
<g id="node11" class="node">
<title>PAN</title>
<polygon fill="none" stroke="white" points="514.5,-147 460.5,-147 460.5,-111 514.5,-111 514.5,-147"/>
<text text-anchor="middle" x="487.5" y="-125.9" font-family="Cascadia Code PL" font-size="12.00" fill="cyan">PAN</text>
</g>
<!-- SPACE or\nMIDDLE&#45;CLICK&#45;&gt;PAN -->
<g id="edge10" class="edge">
<title>SPACE or\nMIDDLE&#45;CLICK&#45;&gt;PAN:n</title>
<path fill="none" stroke="gray" d="M487.5,-182.75C487.5,-174.82 487.5,-165.88 487.5,-157.12"/>
<polygon fill="gray" stroke="gray" points="491,-157 487.5,-147 484,-157 491,-157"/>
</g>
<!-- LEFT DRAG -->
<g id="node20" class="node">
<title>LEFT DRAG</title>
<text text-anchor="middle" x="487.5" y="-65.4" font-family="Cascadia Code PL" font-size="12.00" fill="yellow">LEFT DRAG</text>
</g>
<!-- PAN&#45;&gt;LEFT DRAG -->
<g id="edge19" class="edge">
<title>PAN&#45;&gt;LEFT DRAG:n</title>
<path fill="none" stroke="gray" d="M487.5,-110.81C487.5,-103.28 487.5,-94.1 487.5,-85.06"/>
<polygon fill="gray" stroke="gray" points="491,-85 487.5,-75 484,-85 491,-85"/>
</g>
<!-- FOREGROUND\nCOLOR -->
<g id="node13" class="node">
<title>FOREGROUND\nCOLOR</title>
<text text-anchor="middle" x="296.5" y="-16.4" font-family="Cascadia Code PL" font-size="12.00" fill="cyan">FOREGROUND</text>
<text text-anchor="middle" x="296.5" y="-3.4" font-family="Cascadia Code PL" font-size="12.00" fill="cyan">COLOR</text>
</g>
<!-- LEFT CLICK&#45;&gt;FOREGROUND\nCOLOR -->
<g id="edge12" class="edge">
<title>LEFT CLICK&#45;&gt;FOREGROUND\nCOLOR:n</title>
<path fill="none" stroke="gray" d="M301.95,-61.91C300.42,-56.03 298.16,-46.26 297.09,-36.3"/>
<polygon fill="gray" stroke="gray" points="300.57,-35.78 296.5,-26 293.58,-36.19 300.57,-35.78"/>
</g>
<!-- BACKGROUND\nCOLOR -->
<g id="node15" class="node">
<title>BACKGROUND\nCOLOR</title>
<text text-anchor="middle" x="393.5" y="-16.4" font-family="Cascadia Code PL" font-size="12.00" fill="cyan">BACKGROUND</text>
<text text-anchor="middle" x="393.5" y="-3.4" font-family="Cascadia Code PL" font-size="12.00" fill="cyan">COLOR</text>
</g>
<!-- RIGHT CLICK&#45;&gt;BACKGROUND\nCOLOR -->
<g id="edge14" class="edge">
<title>RIGHT CLICK&#45;&gt;BACKGROUND\nCOLOR:n</title>
<path fill="none" stroke="gray" d="M392.72,-61.86C392.94,-55.94 393.26,-46.12 393.42,-36.21"/>
<polygon fill="gray" stroke="gray" points="396.92,-36.03 393.5,-26 389.92,-35.97 396.92,-36.03"/>
</g>
<!-- ZOOM\nIN -->
<g id="node17" class="node">
<title>ZOOM\nIN</title>
<text text-anchor="middle" x="30.5" y="-16.4" font-family="Cascadia Code PL" font-size="12.00" fill="cyan">ZOOM</text>
<text text-anchor="middle" x="30.5" y="-3.4" font-family="Cascadia Code PL" font-size="12.00" fill="cyan">IN</text>
</g>
<!-- LEFT CLICK &#45;&gt;ZOOM\nIN -->
<g id="edge16" class="edge">
<title>LEFT CLICK &#45;&gt;ZOOM\nIN:n</title>
<path fill="none" stroke="gray" d="M30.5,-61.86C30.5,-55.94 30.5,-46.12 30.5,-36.2"/>
<polygon fill="gray" stroke="gray" points="34,-36 30.5,-26 27,-36 34,-36"/>
</g>
<!-- ZOOM\nOUT -->
<g id="node19" class="node">
<title>ZOOM\nOUT</title>
<text text-anchor="middle" x="114.5" y="-16.4" font-family="Cascadia Code PL" font-size="12.00" fill="cyan">ZOOM</text>
<text text-anchor="middle" x="114.5" y="-3.4" font-family="Cascadia Code PL" font-size="12.00" fill="cyan">OUT</text>
</g>
<!-- RIGHT CLICK &#45;&gt;ZOOM\nOUT -->
<g id="edge18" class="edge">
<title>RIGHT CLICK &#45;&gt;ZOOM\nOUT:n</title>
<path fill="none" stroke="gray" d="M114.5,-61.86C114.5,-55.94 114.5,-46.12 114.5,-36.2"/>
<polygon fill="gray" stroke="gray" points="118,-36 114.5,-26 111,-36 118,-36"/>
</g>
<!-- PAN CANVAS -->
<g id="node21" class="node">
<title>PAN CANVAS</title>
<text text-anchor="middle" x="487.5" y="-9.9" font-family="Cascadia Code PL" font-size="12.00" fill="cyan">PAN CANVAS</text>
</g>
<!-- LEFT DRAG&#45;&gt;PAN CANVAS -->
<g id="edge20" class="edge">
<title>LEFT DRAG&#45;&gt;PAN CANVAS:n</title>
<path fill="none" stroke="gray" d="M487.5,-61.77C487.5,-54.99 487.5,-43.1 487.5,-31.26"/>
<polygon fill="gray" stroke="gray" points="491,-31 487.5,-21 484,-31 491,-31"/>
</g>
</g>
</svg>
