<?xml version="1.0" encoding="UTF-8" standalone="no"?>
<!DOCTYPE svg PUBLIC "-//W3C//DTD SVG 1.1//EN"
 "http://www.w3.org/Graphics/SVG/1.1/DTD/svg11.dtd">
<!-- Generated by graphviz version 2.42.4 (0)
 -->
<!-- Title: BRUSH_SIZE_STATES Pages: 1 -->
<svg width="1274pt" height="529pt"
 viewBox="0.00 0.00 1273.50 529.00" xmlns="http://www.w3.org/2000/svg" xmlns:xlink="http://www.w3.org/1999/xlink">
<g id="graph0" class="graph" transform="scale(1 1) rotate(0) translate(4 525)">
<title>BRUSH_SIZE_STATES</title>
<text text-anchor="middle" x="632.75" y="-497.8" font-family="Cascadia Code PL" font-size="24.00" fill="white">BRUSH SIZE STATE MACHINE</text>
<g id="clust3" class="cluster">
<title>cluster_presets</title>
<polygon fill="transparent" stroke="orange" stroke-dasharray="5,2" points="496.5,-8 496.5,-467 632.5,-467 632.5,-8 496.5,-8"/>
<text text-anchor="middle" x="537" y="-454.2" font-family="Cascadia Code PL" font-size="11.00" fill="white">SIZE PRESETS</text>
</g>
<g id="clust4" class="cluster">
<title>cluster_preview</title>
<polygon fill="transparent" stroke="orange" stroke-dasharray="5,2" points="640.5,-237 640.5,-473 825.5,-473 825.5,-237 640.5,-237"/>
<text text-anchor="middle" x="671" y="-460.2" font-family="Cascadia Code PL" font-size="11.00" fill="white">PREVIEW</text>
</g>
<g id="clust5" class="cluster">
<title>cluster_persistence</title>
<polygon fill="transparent" stroke="orange" stroke-dasharray="5,2" points="833.5,-363 833.5,-479 955.5,-479 955.5,-363 833.5,-363"/>
<text text-anchor="middle" x="874" y="-466.2" font-family="Cascadia Code PL" font-size="11.00" fill="white">PERSISTENCE</text>
</g>
<g id="clust6" class="cluster">
<title>cluster_legend</title>
<polygon fill="transparent" stroke="white" stroke-dasharray="5,2" points="963.5,-276.64 963.5,-439.36 1257.5,-439.36 1257.5,-276.64 963.5,-276.64"/>
<text text-anchor="middle" x="991.5" y="-426.56" font-family="Cascadia Code PL" font-size="11.00" fill="white">LEGEND</text>
</g>
<!-- MAIN -->
<g id="node1" class="node">
<title>MAIN</title>
<polygon fill="none" stroke="orange" stroke-width="2" points="273,-429 270,-433 249,-433 246,-429 188,-429 188,-393 273,-393 273,-429"/>
<text text-anchor="middle" x="230.5" y="-407.6" font-family="Cascadia Code PL" font-size="13.00" fill="orange">BRUSH SIZE</text>
</g>
<!-- S_NORMAL -->
<g id="node2" class="node">
<title>S_NORMAL</title>
<polygon fill="none" stroke="white" points="311,-325 150,-325 150,-245 311,-245 311,-325"/>
<text text-anchor="middle" x="230.5" y="-312.2" font-family="Cascadia Code PL" font-size="11.00" fill="cyan">1 · NORMAL</text>
<text text-anchor="middle" x="230.5" y="-300.2" font-family="Cascadia Code PL" font-size="11.00" fill="cyan">─────────────────</text>
<text text-anchor="middle" x="230.5" y="-288.2" font-family="Cascadia Code PL" font-size="11.00" fill="cyan">BRUSH_SIZE.CURRENT = 1&#45;25</text>
<text text-anchor="middle" x="230.5" y="-276.2" font-family="Cascadia Code PL" font-size="11.00" fill="cyan">BRUSH_SIZE.SHAPE = CIRCLE</text>
<text text-anchor="middle" x="230.5" y="-264.2" font-family="Cascadia Code PL" font-size="11.00" fill="cyan">PIXEL_PERFECT = OFF</text>
<text text-anchor="middle" x="230.5" y="-252.2" font-family="Cascadia Code PL" font-size="11.00" fill="cyan">Standard round brush</text>
</g>
<!-- MAIN&#45;&gt;S_NORMAL -->
<g id="edge7" class="edge">
<title>MAIN&#45;&gt;S_NORMAL</title>
<path fill="none" stroke="#555555" stroke-dasharray="1,5" d="M230.5,-392.76C230.5,-375.32 230.5,-347.78 230.5,-325.03"/>
</g>
<!-- S_NORMAL&#45;&gt;S_NORMAL -->
<g id="edge5" class="edge">
<title>S_NORMAL&#45;&gt;S_NORMAL</title>
<path fill="none" stroke="#88aacc" d="M311.27,-295.25C321.93,-293.5 329,-290.09 329,-285 329,-281.74 326.1,-279.17 321.21,-277.28"/>
<polygon fill="#88aacc" stroke="#88aacc" points="321.82,-273.82 311.27,-274.75 320.1,-280.61 321.82,-273.82"/>
<text text-anchor="middle" x="388.5" y="-292.8" font-family="Cascadia Code PL" font-size="9.00" fill="#aaaaaa"> &#160;Scroll wheel: CURRENT ± 1</text>
<text text-anchor="middle" x="388.5" y="-282.8" font-family="Cascadia Code PL" font-size="9.00" fill="#aaaaaa"> &#160;Clamped to MIN..MAX (1&#45;25)</text>
<text text-anchor="middle" x="388.5" y="-272.8" font-family="Cascadia Code PL" font-size="9.00" fill="#aaaaaa"> &#160;BRUSH_PIXEL_SIZES() lookup</text>
</g>
<!-- S_SQUARE -->
<g id="node3" class="node">
<title>S_SQUARE</title>
<polygon fill="none" stroke="white" points="163,-183 0,-183 0,-115 163,-115 163,-183"/>
<text text-anchor="middle" x="81.5" y="-170.2" font-family="Cascadia Code PL" font-size="11.00" fill="cyan">2 · SQUARE MODE</text>
<text text-anchor="middle" x="81.5" y="-158.2" font-family="Cascadia Code PL" font-size="11.00" fill="cyan">─────────────────</text>
<text text-anchor="middle" x="81.5" y="-146.2" font-family="Cascadia Code PL" font-size="11.00" fill="cyan">BRUSH_SIZE.SHAPE = SQUARE</text>
<text text-anchor="middle" x="81.5" y="-134.2" font-family="Cascadia Code PL" font-size="11.00" fill="cyan">Square brush stamp</text>
<text text-anchor="middle" x="81.5" y="-122.2" font-family="Cascadia Code PL" font-size="11.00" fill="cyan">CURRENT = 1&#45;25</text>
</g>
<!-- S_NORMAL&#45;&gt;S_SQUARE -->
<g id="edge1" class="edge">
<title>S_NORMAL&#45;&gt;S_SQUARE</title>
<path fill="none" stroke="#6699ff" d="M149.98,-270.49C124.99,-262.17 99.97,-248.72 84.5,-227 77.66,-217.39 75.17,-205.27 74.86,-193.5"/>
<polygon fill="#6699ff" stroke="#6699ff" points="78.36,-193.4 75.08,-183.32 71.36,-193.24 78.36,-193.4"/>
<text text-anchor="middle" x="127" y="-219.8" font-family="Cascadia Code PL" font-size="9.00" fill="#aaaaaa"> &#160;Toggle shape</text>
<text text-anchor="middle" x="127" y="-209.8" font-family="Cascadia Code PL" font-size="9.00" fill="#aaaaaa"> &#160;SHAPE = &#45;1 (square)</text>
</g>
<!-- S_PIXEL_PERFECT -->
<g id="node4" class="node">
<title>S_PIXEL_PERFECT</title>
<polygon fill="none" stroke="white" points="487,-189 308,-189 308,-109 487,-109 487,-189"/>
<text text-anchor="middle" x="397.5" y="-176.2" font-family="Cascadia Code PL" font-size="11.00" fill="cyan">3 · PIXEL PERFECT</text>
<text text-anchor="middle" x="397.5" y="-164.2" font-family="Cascadia Code PL" font-size="11.00" fill="cyan">─────────────────</text>
<text text-anchor="middle" x="397.5" y="-152.2" font-family="Cascadia Code PL" font-size="11.00" fill="cyan">BRUSH_SIZE.PIXEL_PERFECT = ON</text>
<text text-anchor="middle" x="397.5" y="-140.2" font-family="Cascadia Code PL" font-size="11.00" fill="cyan">Removes corner pixels</text>
<text text-anchor="middle" x="397.5" y="-128.2" font-family="Cascadia Code PL" font-size="11.00" fill="cyan">Cleaner 45° strokes</text>
<text text-anchor="middle" x="397.5" y="-116.2" font-family="Cascadia Code PL" font-size="11.00" fill="cyan">Smooth diagonal lines</text>
</g>
<!-- S_NORMAL&#45;&gt;S_PIXEL_PERFECT -->
<g id="edge3" class="edge">
<title>S_NORMAL&#45;&gt;S_PIXEL_PERFECT</title>
<path fill="none" stroke="#66cc66" d="M256.58,-244.87C266.5,-231.81 278.55,-217.84 291.5,-207 296.61,-202.72 302.1,-198.62 307.78,-194.72"/>
<polygon fill="#66cc66" stroke="#66cc66" points="309.81,-197.58 316.24,-189.16 305.96,-191.73 309.81,-197.58"/>
<text text-anchor="middle" x="333" y="-219.8" font-family="Cascadia Code PL" font-size="9.00" fill="#aaaaaa"> &#160;Toggle pixel&#45;perfect</text>
<text text-anchor="middle" x="333" y="-209.8" font-family="Cascadia Code PL" font-size="9.00" fill="#aaaaaa"> &#160;PIXEL_PERFECT = &#45;1</text>
</g>
<!-- S_SQUARE&#45;&gt;S_NORMAL -->
<g id="edge2" class="edge">
<title>S_SQUARE&#45;&gt;S_NORMAL</title>
<path fill="none" stroke="#6699ff" d="M138.89,-183.29C149.53,-190.52 160.21,-198.55 169.5,-207 179.25,-215.87 188.68,-226.4 197.09,-236.78"/>
<polygon fill="#6699ff" stroke="#6699ff" points="194.36,-238.98 203.3,-244.67 199.86,-234.65 194.36,-238.98"/>
<text text-anchor="middle" x="226.5" y="-219.8" font-family="Cascadia Code PL" font-size="9.00" fill="#aaaaaa"> &#160;Toggle shape</text>
<text text-anchor="middle" x="226.5" y="-209.8" font-family="Cascadia Code PL" font-size="9.00" fill="#aaaaaa"> &#160;SHAPE = 0 (circle)</text>
</g>
<!-- S_SQUARE&#45;&gt;S_SQUARE -->
<g id="edge6" class="edge">
<title>S_SQUARE&#45;&gt;S_SQUARE</title>
<path fill="none" stroke="#88aacc" d="M163.09,-158.59C173.86,-156.95 181,-153.76 181,-149 181,-145.95 178.07,-143.54 173.13,-141.78"/>
<polygon fill="#88aacc" stroke="#88aacc" points="173.63,-138.3 163.09,-139.41 172.02,-145.11 173.63,-138.3"/>
<text text-anchor="middle" x="235.5" y="-151.8" font-family="Cascadia Code PL" font-size="9.00" fill="#aaaaaa"> &#160;Scroll wheel: CURRENT ± 1</text>
<text text-anchor="middle" x="235.5" y="-141.8" font-family="Cascadia Code PL" font-size="9.00" fill="#aaaaaa"> &#160;Same clamp logic</text>
</g>
<!-- S_PIXEL_PERFECT&#45;&gt;S_NORMAL -->
<g id="edge4" class="edge">
<title>S_PIXEL_PERFECT&#45;&gt;S_NORMAL</title>
<path fill="none" stroke="#cc6666" stroke-dasharray="5,2" d="M392.89,-189.08C389.61,-202.44 384.02,-216.61 374.5,-227 359.99,-242.83 340.52,-254.32 320.6,-262.66"/>
<polygon fill="#cc6666" stroke="#cc6666" points="319.14,-259.47 311.12,-266.38 321.7,-265.98 319.14,-259.47"/>
<text text-anchor="middle" x="428" y="-219.8" font-family="Cascadia Code PL" font-size="9.00" fill="#aaaaaa"> &#160;Toggle pixel&#45;perfect</text>
<text text-anchor="middle" x="428" y="-209.8" font-family="Cascadia Code PL" font-size="9.00" fill="#aaaaaa"> &#160;PIXEL_PERFECT = 0</text>
</g>
<!-- P1 -->
<g id="node5" class="node">
<title>P1</title>
<polygon fill="none" stroke="white" points="624,-439 505,-439 505,-383 624,-383 624,-439"/>
<text text-anchor="middle" x="564.5" y="-426.2" font-family="Cascadia Code PL" font-size="11.00" fill="cyan">Preset 1 (F1)</text>
<text text-anchor="middle" x="564.5" y="-414.2" font-family="Cascadia Code PL" font-size="11.00" fill="cyan">─────────────────</text>
<text text-anchor="middle" x="564.5" y="-402.2" font-family="Cascadia Code PL" font-size="11.00" fill="cyan">CURRENT = PRESET1</text>
<text text-anchor="middle" x="564.5" y="-390.2" font-family="Cascadia Code PL" font-size="11.00" fill="cyan">Jump to saved size</text>
</g>
<!-- P2 -->
<g id="node6" class="node">
<title>P2</title>
<polygon fill="none" stroke="white" points="624,-313 505,-313 505,-257 624,-257 624,-313"/>
<text text-anchor="middle" x="564.5" y="-300.2" font-family="Cascadia Code PL" font-size="11.00" fill="cyan">Preset 2 (F2)</text>
<text text-anchor="middle" x="564.5" y="-288.2" font-family="Cascadia Code PL" font-size="11.00" fill="cyan">─────────────────</text>
<text text-anchor="middle" x="564.5" y="-276.2" font-family="Cascadia Code PL" font-size="11.00" fill="cyan">CURRENT = PRESET2</text>
<text text-anchor="middle" x="564.5" y="-264.2" font-family="Cascadia Code PL" font-size="11.00" fill="cyan">Jump to saved size</text>
</g>
<!-- P1&#45;&gt;P2 -->
<!-- P3 -->
<g id="node7" class="node">
<title>P3</title>
<polygon fill="none" stroke="white" points="624,-177 505,-177 505,-121 624,-121 624,-177"/>
<text text-anchor="middle" x="564.5" y="-164.2" font-family="Cascadia Code PL" font-size="11.00" fill="cyan">Preset 3 (F3)</text>
<text text-anchor="middle" x="564.5" y="-152.2" font-family="Cascadia Code PL" font-size="11.00" fill="cyan">─────────────────</text>
<text text-anchor="middle" x="564.5" y="-140.2" font-family="Cascadia Code PL" font-size="11.00" fill="cyan">CURRENT = PRESET3</text>
<text text-anchor="middle" x="564.5" y="-128.2" font-family="Cascadia Code PL" font-size="11.00" fill="cyan">Jump to saved size</text>
</g>
<!-- P2&#45;&gt;P3 -->
<!-- P4 -->
<g id="node8" class="node">
<title>P4</title>
<polygon fill="none" stroke="white" points="624,-72 505,-72 505,-16 624,-16 624,-72"/>
<text text-anchor="middle" x="564.5" y="-59.2" font-family="Cascadia Code PL" font-size="11.00" fill="cyan">Preset 4 (F4)</text>
<text text-anchor="middle" x="564.5" y="-47.2" font-family="Cascadia Code PL" font-size="11.00" fill="cyan">─────────────────</text>
<text text-anchor="middle" x="564.5" y="-35.2" font-family="Cascadia Code PL" font-size="11.00" fill="cyan">CURRENT = PRESET4</text>
<text text-anchor="middle" x="564.5" y="-23.2" font-family="Cascadia Code PL" font-size="11.00" fill="cyan">Jump to saved size</text>
</g>
<!-- P3&#45;&gt;P4 -->
<!-- PR_OFF -->
<g id="node9" class="node">
<title>PR_OFF</title>
<polygon fill="none" stroke="white" points="780.5,-445 674.5,-445 674.5,-377 780.5,-377 780.5,-445"/>
<text text-anchor="middle" x="727.5" y="-432.2" font-family="Cascadia Code PL" font-size="11.00" fill="cyan">Preview OFF</text>
<text text-anchor="middle" x="727.5" y="-420.2" font-family="Cascadia Code PL" font-size="11.00" fill="cyan">─────────────────</text>
<text text-anchor="middle" x="727.5" y="-408.2" font-family="Cascadia Code PL" font-size="11.00" fill="cyan">PREVIEW = 0</text>
<text text-anchor="middle" x="727.5" y="-396.2" font-family="Cascadia Code PL" font-size="11.00" fill="cyan">No brush outline</text>
<text text-anchor="middle" x="727.5" y="-384.2" font-family="Cascadia Code PL" font-size="11.00" fill="cyan">shown at cursor</text>
</g>
<!-- PR_ON -->
<g id="node10" class="node">
<title>PR_ON</title>
<polygon fill="none" stroke="white" points="787,-325 672,-325 672,-245 787,-245 787,-325"/>
<text text-anchor="middle" x="729.5" y="-312.2" font-family="Cascadia Code PL" font-size="11.00" fill="cyan">Preview ON</text>
<text text-anchor="middle" x="729.5" y="-300.2" font-family="Cascadia Code PL" font-size="11.00" fill="cyan">─────────────────</text>
<text text-anchor="middle" x="729.5" y="-288.2" font-family="Cascadia Code PL" font-size="11.00" fill="cyan">PREVIEW = &#45;1</text>
<text text-anchor="middle" x="729.5" y="-276.2" font-family="Cascadia Code PL" font-size="11.00" fill="cyan">Brush outline shown</text>
<text text-anchor="middle" x="729.5" y="-264.2" font-family="Cascadia Code PL" font-size="11.00" fill="cyan">at cursor position</text>
<text text-anchor="middle" x="729.5" y="-252.2" font-family="Cascadia Code PL" font-size="11.00" fill="cyan">Updates each frame</text>
</g>
<!-- PR_OFF&#45;&gt;PR_ON -->
<g id="edge11" class="edge">
<title>PR_OFF&#45;&gt;PR_ON</title>
<path fill="none" stroke="#66cc66" d="M676.12,-376.87C667.1,-366.89 662.1,-355.3 667.5,-343 669,-339.59 670.81,-336.29 672.87,-333.11"/>
<polygon fill="#66cc66" stroke="#66cc66" points="675.72,-335.15 678.81,-325.01 670.07,-331.01 675.72,-335.15"/>
<text text-anchor="middle" x="699.5" y="-345.8" font-family="Cascadia Code PL" font-size="9.00" fill="#aaaaaa"> &#160;Toggle preview</text>
</g>
<!-- PR_ON&#45;&gt;PR_OFF -->
<g id="edge12" class="edge">
<title>PR_ON&#45;&gt;PR_OFF</title>
<path fill="none" stroke="#cc6666" stroke-dasharray="5,2" d="M731.53,-325.33C731.76,-334.42 731.81,-344.04 731.5,-353 731.34,-357.47 731.12,-362.13 730.85,-366.79"/>
<polygon fill="#cc6666" stroke="#cc6666" points="727.35,-366.67 730.22,-376.87 734.34,-367.11 727.35,-366.67"/>
<text text-anchor="middle" x="763.5" y="-345.8" font-family="Cascadia Code PL" font-size="9.00" fill="#aaaaaa"> &#160;Toggle preview</text>
</g>
<!-- D1 -->
<g id="node11" class="node">
<title>D1</title>
<polygon fill="none" stroke="white" points="947.5,-451 841.5,-451 841.5,-371 947.5,-371 947.5,-451"/>
<text text-anchor="middle" x="894.5" y="-438.2" font-family="Cascadia Code PL" font-size="11.00" fill="cyan">Saved in DRW</text>
<text text-anchor="middle" x="894.5" y="-426.2" font-family="Cascadia Code PL" font-size="11.00" fill="cyan">─────────────────</text>
<text text-anchor="middle" x="894.5" y="-414.2" font-family="Cascadia Code PL" font-size="11.00" fill="cyan">CURRENT, SHAPE</text>
<text text-anchor="middle" x="894.5" y="-402.2" font-family="Cascadia Code PL" font-size="11.00" fill="cyan">PIXEL_PERFECT</text>
<text text-anchor="middle" x="894.5" y="-390.2" font-family="Cascadia Code PL" font-size="11.00" fill="cyan">PRESET1&#45;4 values</text>
<text text-anchor="middle" x="894.5" y="-378.2" font-family="Cascadia Code PL" font-size="11.00" fill="cyan">Persisted on save</text>
</g>
<!-- L1 -->
<g id="node12" class="node">
<title>L1</title>
<ellipse fill="white" stroke="white" cx="1214.5" cy="-411" rx="0.36" ry="0.36"/>
</g>
<!-- L2 -->
<g id="node13" class="node">
<title>L2</title>
<ellipse fill="white" stroke="white" cx="1214.5" cy="-285" rx="0.36" ry="0.36"/>
</g>
<!-- L1&#45;&gt;L2 -->
<g id="edge13" class="edge">
<title>L1&#45;&gt;L2</title>
<path fill="none" stroke="#66cc66" d="M1214.5,-409.91C1214.5,-406.83 1214.5,-325.68 1214.5,-296.4"/>
<polygon fill="#66cc66" stroke="#66cc66" points="1218,-296.09 1214.5,-286.09 1211,-296.09 1218,-296.09"/>
<text text-anchor="middle" x="1232" y="-345.8" font-family="Cascadia Code PL" font-size="9.00" fill="#aaaaaa"> Activate</text>
</g>
<!-- L3 -->
<g id="node14" class="node">
<title>L3</title>
<ellipse fill="white" stroke="white" cx="1147.5" cy="-411" rx="0.36" ry="0.36"/>
</g>
<!-- L4 -->
<g id="node15" class="node">
<title>L4</title>
<ellipse fill="white" stroke="white" cx="1147.5" cy="-285" rx="0.36" ry="0.36"/>
</g>
<!-- L3&#45;&gt;L4 -->
<g id="edge14" class="edge">
<title>L3&#45;&gt;L4</title>
<path fill="none" stroke="#cc6666" stroke-dasharray="5,2" d="M1147.5,-409.91C1147.5,-406.83 1147.5,-325.68 1147.5,-296.4"/>
<polygon fill="#cc6666" stroke="#cc6666" points="1151,-296.09 1147.5,-286.09 1144,-296.09 1151,-296.09"/>
<text text-anchor="middle" x="1169.5" y="-345.8" font-family="Cascadia Code PL" font-size="9.00" fill="#aaaaaa"> Deactivate</text>
</g>
<!-- L5 -->
<g id="node16" class="node">
<title>L5</title>
<ellipse fill="white" stroke="white" cx="1070.5" cy="-411" rx="0.36" ry="0.36"/>
</g>
<!-- L6 -->
<g id="node17" class="node">
<title>L6</title>
<ellipse fill="white" stroke="white" cx="1070.5" cy="-285" rx="0.36" ry="0.36"/>
</g>
<!-- L5&#45;&gt;L6 -->
<g id="edge15" class="edge">
<title>L5&#45;&gt;L6</title>
<path fill="none" stroke="#6699ff" d="M1070.5,-409.91C1070.5,-406.83 1070.5,-325.68 1070.5,-296.4"/>
<polygon fill="#6699ff" stroke="#6699ff" points="1074,-296.09 1070.5,-286.09 1067,-296.09 1074,-296.09"/>
<text text-anchor="middle" x="1097.5" y="-345.8" font-family="Cascadia Code PL" font-size="9.00" fill="#aaaaaa"> Mode toggle</text>
</g>
<!-- L7 -->
<g id="node18" class="node">
<title>L7</title>
<ellipse fill="white" stroke="white" cx="989.5" cy="-411" rx="0.36" ry="0.36"/>
</g>
<!-- L8 -->
<g id="node19" class="node">
<title>L8</title>
<ellipse fill="white" stroke="white" cx="989.5" cy="-285" rx="0.36" ry="0.36"/>
</g>
<!-- L7&#45;&gt;L8 -->
<g id="edge16" class="edge">
<title>L7&#45;&gt;L8</title>
<path fill="none" stroke="#88aacc" d="M989.5,-409.91C989.5,-406.83 989.5,-325.68 989.5,-296.4"/>
<polygon fill="#88aacc" stroke="#88aacc" points="993,-296.09 989.5,-286.09 986,-296.09 993,-296.09"/>
<text text-anchor="middle" x="1018.5" y="-345.8" font-family="Cascadia Code PL" font-size="9.00" fill="#aaaaaa"> Self&#45;transition</text>
</g>
</g>
</svg>
