<?xml version="1.0" encoding="UTF-8" standalone="no"?>
<!DOCTYPE svg PUBLIC "-//W3C//DTD SVG 1.1//EN"
 "http://www.w3.org/Graphics/SVG/1.1/DTD/svg11.dtd">
<!-- Generated by graphviz version 2.42.4 (0)
 -->
<!-- Title: COLOR_MODE_STATES Pages: 1 -->
<svg width="1590pt" height="564pt"
 viewBox="0.00 0.00 1589.74 564.00" xmlns="http://www.w3.org/2000/svg" xmlns:xlink="http://www.w3.org/1999/xlink">
<g id="graph0" class="graph" transform="scale(1 1) rotate(0) translate(4 560)">
<title>COLOR_MODE_STATES</title>
<text text-anchor="middle" x="790.87" y="-532.8" font-family="Cascadia Code PL" font-size="24.00" fill="white">COLOR MODE SLOT STATE MACHINE</text>
<g id="clust3" class="cluster">
<title>cluster_fg</title>
<polygon fill="transparent" stroke="orange" stroke-dasharray="5,2" points="228.74,-398 228.74,-514 838.74,-514 838.74,-398 228.74,-398"/>
<text text-anchor="middle" x="291.74" y="-501.2" font-family="Cascadia Code PL" font-size="11.00" fill="white">FOREGROUND COLOR</text>
</g>
<g id="clust4" class="cluster">
<title>cluster_bg</title>
<polygon fill="transparent" stroke="orange" stroke-dasharray="5,2" points="846.74,-404 846.74,-508 1138.74,-508 1138.74,-404 846.74,-404"/>
<text text-anchor="middle" x="909.74" y="-495.2" font-family="Cascadia Code PL" font-size="11.00" fill="white">BACKGROUND COLOR</text>
</g>
<g id="clust5" class="cluster">
<title>cluster_invert</title>
<polygon fill="transparent" stroke="orange" stroke-dasharray="5,2" points="1146.74,-404 1146.74,-508 1320.74,-508 1320.74,-404 1146.74,-404"/>
<text text-anchor="middle" x="1191.74" y="-495.2" font-family="Cascadia Code PL" font-size="11.00" fill="white">COLOR INVERT</text>
</g>
<g id="clust6" class="cluster">
<title>cluster_legend</title>
<polygon fill="transparent" stroke="white" stroke-dasharray="5,2" points="1328.74,-311.64 1328.74,-474.36 1573.74,-474.36 1573.74,-311.64 1328.74,-311.64"/>
<text text-anchor="middle" x="1356.74" y="-461.56" font-family="Cascadia Code PL" font-size="11.00" fill="white">LEGEND</text>
</g>
<!-- MAIN -->
<g id="node1" class="node">
<title>MAIN</title>
<polygon fill="none" stroke="orange" stroke-width="2" points="218.24,-464 215.24,-468 194.24,-468 191.24,-464 119.24,-464 119.24,-428 218.24,-428 218.24,-464"/>
<text text-anchor="middle" x="168.74" y="-449.6" font-family="Cascadia Code PL" font-size="13.00" fill="orange">COLOR MODE</text>
<text text-anchor="middle" x="168.74" y="-435.6" font-family="Cascadia Code PL" font-size="13.00" fill="orange">SLOT</text>
</g>
<!-- S_NORMAL -->
<g id="node2" class="node">
<title>S_NORMAL</title>
<polygon fill="none" stroke="white" points="242.74,-360 94.74,-360 94.74,-280 242.74,-280 242.74,-360"/>
<text text-anchor="middle" x="168.74" y="-347.2" font-family="Cascadia Code PL" font-size="11.00" fill="cyan">1 · NORMAL</text>
<text text-anchor="middle" x="168.74" y="-335.2" font-family="Cascadia Code PL" font-size="11.00" fill="cyan">─────────────────</text>
<text text-anchor="middle" x="168.74" y="-323.2" font-family="Cascadia Code PL" font-size="11.00" fill="cyan">PAINT_COLOR~&amp; = FG</text>
<text text-anchor="middle" x="168.74" y="-311.2" font-family="Cascadia Code PL" font-size="11.00" fill="cyan">PAINT_BG_COLOR~&amp; = BG</text>
<text text-anchor="middle" x="168.74" y="-299.2" font-family="Cascadia Code PL" font-size="11.00" fill="cyan">DRAW_COLOR~&amp; = active</text>
<text text-anchor="middle" x="168.74" y="-287.2" font-family="Cascadia Code PL" font-size="11.00" fill="cyan">Standard painting mode</text>
</g>
<!-- MAIN&#45;&gt;S_NORMAL -->
<g id="edge6" class="edge">
<title>MAIN&#45;&gt;S_NORMAL</title>
<path fill="none" stroke="#555555" stroke-dasharray="1,5" d="M168.74,-427.76C168.74,-410.32 168.74,-382.78 168.74,-360.03"/>
</g>
<!-- S_SWAPPED -->
<g id="node3" class="node">
<title>S_SWAPPED</title>
<polygon fill="none" stroke="white" points="185.24,-214 18.24,-214 18.24,-134 185.24,-134 185.24,-214"/>
<text text-anchor="middle" x="101.74" y="-201.2" font-family="Cascadia Code PL" font-size="11.00" fill="cyan">2 · SWAPPED</text>
<text text-anchor="middle" x="101.74" y="-189.2" font-family="Cascadia Code PL" font-size="11.00" fill="cyan">─────────────────</text>
<text text-anchor="middle" x="101.74" y="-177.2" font-family="Cascadia Code PL" font-size="11.00" fill="cyan">FG ↔ BG swapped</text>
<text text-anchor="middle" x="101.74" y="-165.2" font-family="Cascadia Code PL" font-size="11.00" fill="cyan">PAINT_COLOR~&amp; = old BG</text>
<text text-anchor="middle" x="101.74" y="-153.2" font-family="Cascadia Code PL" font-size="11.00" fill="cyan">PAINT_BG_COLOR~&amp; = old FG</text>
<text text-anchor="middle" x="101.74" y="-141.2" font-family="Cascadia Code PL" font-size="11.00" fill="cyan">Reversed painting</text>
</g>
<!-- S_NORMAL&#45;&gt;S_SWAPPED -->
<g id="edge1" class="edge">
<title>S_NORMAL&#45;&gt;S_SWAPPED</title>
<path fill="none" stroke="#6699ff" d="M94.71,-312.13C61.83,-304.97 26.04,-290.6 5.74,-262 -4.75,-247.22 0.87,-233.12 13.51,-220.75"/>
<polygon fill="#6699ff" stroke="#6699ff" points="15.95,-223.26 21.19,-214.05 11.35,-217.98 15.95,-223.26"/>
<text text-anchor="middle" x="50.24" y="-254.8" font-family="Cascadia Code PL" font-size="9.00" fill="#aaaaaa"> &#160;Press X</text>
<text text-anchor="middle" x="50.24" y="-244.8" font-family="Cascadia Code PL" font-size="9.00" fill="#aaaaaa"> &#160;or click swap button</text>
<text text-anchor="middle" x="50.24" y="-234.8" font-family="Cascadia Code PL" font-size="9.00" fill="#aaaaaa"> &#160;COLOR_swap_fg_bg()</text>
</g>
<!-- S_RESET -->
<g id="node4" class="node">
<title>S_RESET</title>
<polygon fill="none" stroke="white" points="309.24,-68 132.24,-68 132.24,0 309.24,0 309.24,-68"/>
<text text-anchor="middle" x="220.74" y="-55.2" font-family="Cascadia Code PL" font-size="11.00" fill="cyan">3 · DEFAULT COLORS</text>
<text text-anchor="middle" x="220.74" y="-43.2" font-family="Cascadia Code PL" font-size="11.00" fill="cyan">─────────────────</text>
<text text-anchor="middle" x="220.74" y="-31.2" font-family="Cascadia Code PL" font-size="11.00" fill="cyan">FG = Black _RGB32(0,0,0)</text>
<text text-anchor="middle" x="220.74" y="-19.2" font-family="Cascadia Code PL" font-size="11.00" fill="cyan">BG = White _RGB32(255,255,255)</text>
<text text-anchor="middle" x="220.74" y="-7.2" font-family="Cascadia Code PL" font-size="11.00" fill="cyan">Default palette state</text>
</g>
<!-- S_NORMAL&#45;&gt;S_RESET -->
<g id="edge3" class="edge">
<title>S_NORMAL&#45;&gt;S_RESET</title>
<path fill="none" stroke="#cc6666" stroke-dasharray="5,2" d="M198.55,-279.91C201.81,-274.14 204.69,-268.09 206.74,-262 227.36,-200.77 227.34,-125.08 224.64,-78.42"/>
<polygon fill="#cc6666" stroke="#cc6666" points="228.13,-78.11 223.99,-68.35 221.14,-78.56 228.13,-78.11"/>
<text text-anchor="middle" x="274.24" y="-181.8" font-family="Cascadia Code PL" font-size="9.00" fill="#aaaaaa"> &#160;Press D</text>
<text text-anchor="middle" x="274.24" y="-171.8" font-family="Cascadia Code PL" font-size="9.00" fill="#aaaaaa"> &#160;or click reset button</text>
<text text-anchor="middle" x="274.24" y="-161.8" font-family="Cascadia Code PL" font-size="9.00" fill="#aaaaaa"> &#160;COLOR_reset_defaults()</text>
</g>
<!-- S_SWAPPED&#45;&gt;S_NORMAL -->
<g id="edge2" class="edge">
<title>S_SWAPPED&#45;&gt;S_NORMAL</title>
<path fill="none" stroke="#6699ff" d="M104.34,-214.11C106.52,-229.63 110.5,-247.25 117.74,-262 119.35,-265.29 121.21,-268.54 123.25,-271.71"/>
<polygon fill="#6699ff" stroke="#6699ff" points="120.39,-273.73 128.99,-279.91 126.12,-269.71 120.39,-273.73"/>
<text text-anchor="middle" x="162.24" y="-254.8" font-family="Cascadia Code PL" font-size="9.00" fill="#aaaaaa"> &#160;Press X again</text>
<text text-anchor="middle" x="162.24" y="-244.8" font-family="Cascadia Code PL" font-size="9.00" fill="#aaaaaa"> &#160;or click swap button</text>
<text text-anchor="middle" x="162.24" y="-234.8" font-family="Cascadia Code PL" font-size="9.00" fill="#aaaaaa"> &#160;COLOR_swap_fg_bg()</text>
</g>
<!-- S_SWAPPED&#45;&gt;S_RESET -->
<g id="edge4" class="edge">
<title>S_SWAPPED&#45;&gt;S_RESET</title>
<path fill="none" stroke="#cc6666" stroke-dasharray="5,2" d="M97.17,-133.67C97.27,-117.6 100.1,-99.62 109.74,-86 113.77,-80.3 118.6,-75.22 123.96,-70.7"/>
<polygon fill="#cc6666" stroke="#cc6666" points="126.32,-73.31 132.16,-64.47 122.08,-67.74 126.32,-73.31"/>
<text text-anchor="middle" x="158.24" y="-108.8" font-family="Cascadia Code PL" font-size="9.00" fill="#aaaaaa"> &#160;Press D</text>
<text text-anchor="middle" x="158.24" y="-98.8" font-family="Cascadia Code PL" font-size="9.00" fill="#aaaaaa"> &#160;or click reset button</text>
<text text-anchor="middle" x="158.24" y="-88.8" font-family="Cascadia Code PL" font-size="9.00" fill="#aaaaaa"> &#160;COLOR_reset_defaults()</text>
</g>
<!-- S_RESET&#45;&gt;S_NORMAL -->
<g id="edge5" class="edge">
<title>S_RESET&#45;&gt;S_NORMAL</title>
<path fill="none" stroke="#66cc66" d="M271.56,-68.06C292.84,-84.96 315.25,-107.55 326.74,-134 340.9,-166.61 343.54,-182.66 326.74,-214 310.45,-244.38 281.07,-267.47 252.02,-284.16"/>
<polygon fill="#66cc66" stroke="#66cc66" points="250.09,-281.23 243.03,-289.13 253.48,-287.35 250.09,-281.23"/>
<text text-anchor="middle" x="384.24" y="-181.8" font-family="Cascadia Code PL" font-size="9.00" fill="#aaaaaa"> &#160;Pick new color</text>
<text text-anchor="middle" x="384.24" y="-171.8" font-family="Cascadia Code PL" font-size="9.00" fill="#aaaaaa"> &#160;from palette or canvas</text>
<text text-anchor="middle" x="384.24" y="-161.8" font-family="Cascadia Code PL" font-size="9.00" fill="#aaaaaa"> &#160;FG/BG updated</text>
</g>
<!-- FG_PAL -->
<g id="node5" class="node">
<title>FG_PAL</title>
<polygon fill="none" stroke="white" points="830.24,-480 699.24,-480 699.24,-412 830.24,-412 830.24,-480"/>
<text text-anchor="middle" x="764.74" y="-467.2" font-family="Cascadia Code PL" font-size="11.00" fill="cyan">From Palette</text>
<text text-anchor="middle" x="764.74" y="-455.2" font-family="Cascadia Code PL" font-size="11.00" fill="cyan">─────────────────</text>
<text text-anchor="middle" x="764.74" y="-443.2" font-family="Cascadia Code PL" font-size="11.00" fill="cyan">Left&#45;click palette strip</text>
<text text-anchor="middle" x="764.74" y="-431.2" font-family="Cascadia Code PL" font-size="11.00" fill="cyan">PAL_color~&amp;(index%)</text>
<text text-anchor="middle" x="764.74" y="-419.2" font-family="Cascadia Code PL" font-size="11.00" fill="cyan">FG palette index stored</text>
</g>
<!-- FG_PICK -->
<g id="node6" class="node">
<title>FG_PICK</title>
<polygon fill="none" stroke="white" points="680.74,-480 554.74,-480 554.74,-412 680.74,-412 680.74,-480"/>
<text text-anchor="middle" x="617.74" y="-467.2" font-family="Cascadia Code PL" font-size="11.00" fill="cyan">From Canvas</text>
<text text-anchor="middle" x="617.74" y="-455.2" font-family="Cascadia Code PL" font-size="11.00" fill="cyan">─────────────────</text>
<text text-anchor="middle" x="617.74" y="-443.2" font-family="Cascadia Code PL" font-size="11.00" fill="cyan">Picker tool left&#45;click</text>
<text text-anchor="middle" x="617.74" y="-431.2" font-family="Cascadia Code PL" font-size="11.00" fill="cyan">Sample blended color</text>
<text text-anchor="middle" x="617.74" y="-419.2" font-family="Cascadia Code PL" font-size="11.00" fill="cyan">at canvas position</text>
</g>
<!-- FG_DIALOG -->
<g id="node7" class="node">
<title>FG_DIALOG</title>
<polygon fill="none" stroke="white" points="536.74,-480 406.74,-480 406.74,-412 536.74,-412 536.74,-480"/>
<text text-anchor="middle" x="471.74" y="-467.2" font-family="Cascadia Code PL" font-size="11.00" fill="cyan">From Dialog</text>
<text text-anchor="middle" x="471.74" y="-455.2" font-family="Cascadia Code PL" font-size="11.00" fill="cyan">─────────────────</text>
<text text-anchor="middle" x="471.74" y="-443.2" font-family="Cascadia Code PL" font-size="11.00" fill="cyan">Click FG swatch</text>
<text text-anchor="middle" x="471.74" y="-431.2" font-family="Cascadia Code PL" font-size="11.00" fill="cyan">Opens palette picker</text>
<text text-anchor="middle" x="471.74" y="-419.2" font-family="Cascadia Code PL" font-size="11.00" fill="cyan">Custom color selection</text>
</g>
<!-- FG_TRANSPARENT -->
<g id="node8" class="node">
<title>FG_TRANSPARENT</title>
<polygon fill="none" stroke="white" points="388.74,-486 236.74,-486 236.74,-406 388.74,-406 388.74,-486"/>
<text text-anchor="middle" x="312.74" y="-473.2" font-family="Cascadia Code PL" font-size="11.00" fill="cyan">Transparent FG</text>
<text text-anchor="middle" x="312.74" y="-461.2" font-family="Cascadia Code PL" font-size="11.00" fill="cyan">─────────────────</text>
<text text-anchor="middle" x="312.74" y="-449.2" font-family="Cascadia Code PL" font-size="11.00" fill="cyan">PAL_FG_IS_TRANSPARENT%</text>
<text text-anchor="middle" x="312.74" y="-437.2" font-family="Cascadia Code PL" font-size="11.00" fill="cyan">= TRUE</text>
<text text-anchor="middle" x="312.74" y="-425.2" font-family="Cascadia Code PL" font-size="11.00" fill="cyan">Eraser mode active</text>
<text text-anchor="middle" x="312.74" y="-413.2" font-family="Cascadia Code PL" font-size="11.00" fill="cyan">_RGBA32(0,0,0,0)</text>
</g>
<!-- BG_PAL -->
<g id="node9" class="node">
<title>BG_PAL</title>
<polygon fill="none" stroke="white" points="1130.74,-480 998.74,-480 998.74,-412 1130.74,-412 1130.74,-480"/>
<text text-anchor="middle" x="1064.74" y="-467.2" font-family="Cascadia Code PL" font-size="11.00" fill="cyan">From Palette</text>
<text text-anchor="middle" x="1064.74" y="-455.2" font-family="Cascadia Code PL" font-size="11.00" fill="cyan">─────────────────</text>
<text text-anchor="middle" x="1064.74" y="-443.2" font-family="Cascadia Code PL" font-size="11.00" fill="cyan">Right&#45;click palette strip</text>
<text text-anchor="middle" x="1064.74" y="-431.2" font-family="Cascadia Code PL" font-size="11.00" fill="cyan">PAL_color~&amp;(index%)</text>
<text text-anchor="middle" x="1064.74" y="-419.2" font-family="Cascadia Code PL" font-size="11.00" fill="cyan">BG palette index stored</text>
</g>
<!-- BG_PICK -->
<g id="node10" class="node">
<title>BG_PICK</title>
<polygon fill="none" stroke="white" points="980.74,-480 854.74,-480 854.74,-412 980.74,-412 980.74,-480"/>
<text text-anchor="middle" x="917.74" y="-467.2" font-family="Cascadia Code PL" font-size="11.00" fill="cyan">From Canvas</text>
<text text-anchor="middle" x="917.74" y="-455.2" font-family="Cascadia Code PL" font-size="11.00" fill="cyan">─────────────────</text>
<text text-anchor="middle" x="917.74" y="-443.2" font-family="Cascadia Code PL" font-size="11.00" fill="cyan">Picker tool right&#45;click</text>
<text text-anchor="middle" x="917.74" y="-431.2" font-family="Cascadia Code PL" font-size="11.00" fill="cyan">Sample blended color</text>
<text text-anchor="middle" x="917.74" y="-419.2" font-family="Cascadia Code PL" font-size="11.00" fill="cyan">at canvas position</text>
</g>
<!-- INV -->
<g id="node11" class="node">
<title>INV</title>
<polygon fill="none" stroke="white" points="1312.74,-480 1154.74,-480 1154.74,-412 1312.74,-412 1312.74,-480"/>
<text text-anchor="middle" x="1233.74" y="-467.2" font-family="Cascadia Code PL" font-size="11.00" fill="cyan">Invert FG Color</text>
<text text-anchor="middle" x="1233.74" y="-455.2" font-family="Cascadia Code PL" font-size="11.00" fill="cyan">─────────────────</text>
<text text-anchor="middle" x="1233.74" y="-443.2" font-family="Cascadia Code PL" font-size="11.00" fill="cyan">COLOR_INVERT tool</text>
<text text-anchor="middle" x="1233.74" y="-431.2" font-family="Cascadia Code PL" font-size="11.00" fill="cyan">R=255&#45;R, G=255&#45;G, B=255&#45;B</text>
<text text-anchor="middle" x="1233.74" y="-419.2" font-family="Cascadia Code PL" font-size="11.00" fill="cyan">Instant toggle</text>
</g>
<!-- L1 -->
<g id="node12" class="node">
<title>L1</title>
<ellipse fill="white" stroke="white" cx="1510.74" cy="-446" rx="0.36" ry="0.36"/>
</g>
<!-- L2 -->
<g id="node13" class="node">
<title>L2</title>
<ellipse fill="white" stroke="white" cx="1510.74" cy="-320" rx="0.36" ry="0.36"/>
</g>
<!-- L1&#45;&gt;L2 -->
<g id="edge7" class="edge">
<title>L1&#45;&gt;L2</title>
<path fill="none" stroke="#66cc66" d="M1510.74,-444.91C1510.74,-441.83 1510.74,-360.68 1510.74,-331.4"/>
<polygon fill="#66cc66" stroke="#66cc66" points="1514.24,-331.09 1510.74,-321.09 1507.24,-331.09 1514.24,-331.09"/>
<text text-anchor="middle" x="1538.24" y="-380.8" font-family="Cascadia Code PL" font-size="9.00" fill="#aaaaaa"> Set / Activate</text>
</g>
<!-- L3 -->
<g id="node14" class="node">
<title>L3</title>
<ellipse fill="white" stroke="white" cx="1435.74" cy="-446" rx="0.36" ry="0.36"/>
</g>
<!-- L4 -->
<g id="node15" class="node">
<title>L4</title>
<ellipse fill="white" stroke="white" cx="1435.74" cy="-320" rx="0.36" ry="0.36"/>
</g>
<!-- L3&#45;&gt;L4 -->
<g id="edge8" class="edge">
<title>L3&#45;&gt;L4</title>
<path fill="none" stroke="#cc6666" stroke-dasharray="5,2" d="M1435.74,-444.91C1435.74,-441.83 1435.74,-360.68 1435.74,-331.4"/>
<polygon fill="#cc6666" stroke="#cc6666" points="1439.24,-331.09 1435.74,-321.09 1432.24,-331.09 1439.24,-331.09"/>
<text text-anchor="middle" x="1461.74" y="-380.8" font-family="Cascadia Code PL" font-size="9.00" fill="#aaaaaa"> Reset / Clear</text>
</g>
<!-- L5 -->
<g id="node16" class="node">
<title>L5</title>
<ellipse fill="white" stroke="white" cx="1354.74" cy="-446" rx="0.36" ry="0.36"/>
</g>
<!-- L6 -->
<g id="node17" class="node">
<title>L6</title>
<ellipse fill="white" stroke="white" cx="1354.74" cy="-320" rx="0.36" ry="0.36"/>
</g>
<!-- L5&#45;&gt;L6 -->
<g id="edge9" class="edge">
<title>L5&#45;&gt;L6</title>
<path fill="none" stroke="#6699ff" d="M1354.74,-444.91C1354.74,-441.83 1354.74,-360.68 1354.74,-331.4"/>
<polygon fill="#6699ff" stroke="#6699ff" points="1358.24,-331.09 1354.74,-321.09 1351.24,-331.09 1358.24,-331.09"/>
<text text-anchor="middle" x="1383.74" y="-380.8" font-family="Cascadia Code PL" font-size="9.00" fill="#aaaaaa"> Swap / Toggle</text>
</g>
</g>
</svg>
