<?xml version="1.0" encoding="UTF-8" standalone="no"?>
<!DOCTYPE svg PUBLIC "-//W3C//DTD SVG 1.1//EN"
 "http://www.w3.org/Graphics/SVG/1.1/DTD/svg11.dtd">
<!-- Generated by graphviz version 2.42.4 (0)
 -->
<!-- Title: CROSSHAIR_STATES Pages: 1 -->
<svg width="877pt" height="562pt"
 viewBox="0.00 0.00 877.00 562.00" xmlns="http://www.w3.org/2000/svg" xmlns:xlink="http://www.w3.org/1999/xlink">
<g id="graph0" class="graph" transform="scale(1 1) rotate(0) translate(4 558)">
<title>CROSSHAIR_STATES</title>
<text text-anchor="middle" x="434.5" y="-530.8" font-family="Cascadia Code PL" font-size="24.00" fill="white">CROSSHAIR ASSISTANT STATE MACHINE</text>
<g id="clust3" class="cluster">
<title>cluster_outline</title>
<polygon fill="transparent" stroke="orange" stroke-dasharray="5,2" points="163,-284 163,-506 324,-506 324,-284 163,-284"/>
<text text-anchor="middle" x="214" y="-493.2" font-family="Cascadia Code PL" font-size="11.00" fill="white">OUTLINE STROKE</text>
</g>
<g id="clust4" class="cluster">
<title>cluster_rendering</title>
<polygon fill="transparent" stroke="orange" stroke-dasharray="5,2" points="332,-408 332,-512 636,-512 636,-408 332,-408"/>
<text text-anchor="middle" x="382.5" y="-499.2" font-family="Cascadia Code PL" font-size="11.00" fill="white">RENDER PIPELINE</text>
</g>
<g id="clust5" class="cluster">
<title>cluster_legend</title>
<polygon fill="transparent" stroke="white" stroke-dasharray="5,2" points="644,-317.64 644,-478.36 861,-478.36 861,-317.64 644,-317.64"/>
<text text-anchor="middle" x="672" y="-465.56" font-family="Cascadia Code PL" font-size="11.00" fill="white">LEGEND</text>
</g>
<!-- MAIN -->
<g id="node1" class="node">
<title>MAIN</title>
<polygon fill="none" stroke="orange" stroke-width="2" points="119,-468 116,-472 95,-472 92,-468 35,-468 35,-432 119,-432 119,-468"/>
<text text-anchor="middle" x="77" y="-453.6" font-family="Cascadia Code PL" font-size="13.00" fill="orange">CROSSHAIR</text>
<text text-anchor="middle" x="77" y="-439.6" font-family="Cascadia Code PL" font-size="13.00" fill="orange">ASSISTANT</text>
</g>
<!-- S_OFF -->
<g id="node2" class="node">
<title>S_OFF</title>
<polygon fill="none" stroke="white" points="154,-360 0,-360 0,-292 154,-292 154,-360"/>
<text text-anchor="middle" x="77" y="-347.2" font-family="Cascadia Code PL" font-size="11.00" fill="cyan">1 · OFF</text>
<text text-anchor="middle" x="77" y="-335.2" font-family="Cascadia Code PL" font-size="11.00" fill="cyan">─────────────────</text>
<text text-anchor="middle" x="77" y="-323.2" font-family="Cascadia Code PL" font-size="11.00" fill="cyan">CROSSHAIR.VISIBLE = FALSE</text>
<text text-anchor="middle" x="77" y="-311.2" font-family="Cascadia Code PL" font-size="11.00" fill="cyan">No crosshair lines drawn</text>
<text text-anchor="middle" x="77" y="-299.2" font-family="Cascadia Code PL" font-size="11.00" fill="cyan">Default state</text>
</g>
<!-- MAIN&#45;&gt;S_OFF -->
<g id="edge6" class="edge">
<title>MAIN&#45;&gt;S_OFF</title>
<path fill="none" stroke="#555555" stroke-dasharray="1,5" d="M77,-431.78C77,-413.26 77,-383.35 77,-360.22"/>
</g>
<!-- S_ON -->
<g id="node3" class="node">
<title>S_ON</title>
<polygon fill="none" stroke="white" points="153,-226 1,-226 1,-146 153,-146 153,-226"/>
<text text-anchor="middle" x="77" y="-213.2" font-family="Cascadia Code PL" font-size="11.00" fill="cyan">2 · ON</text>
<text text-anchor="middle" x="77" y="-201.2" font-family="Cascadia Code PL" font-size="11.00" fill="cyan">─────────────────</text>
<text text-anchor="middle" x="77" y="-189.2" font-family="Cascadia Code PL" font-size="11.00" fill="cyan">CROSSHAIR.VISIBLE = TRUE</text>
<text text-anchor="middle" x="77" y="-177.2" font-family="Cascadia Code PL" font-size="11.00" fill="cyan">Full&#45;screen H+V guide lines</text>
<text text-anchor="middle" x="77" y="-165.2" font-family="Cascadia Code PL" font-size="11.00" fill="cyan">Intersect at mouse position</text>
<text text-anchor="middle" x="77" y="-153.2" font-family="Cascadia Code PL" font-size="11.00" fill="cyan">Outline stroke configurable</text>
</g>
<!-- S_OFF&#45;&gt;S_ON -->
<g id="edge1" class="edge">
<title>S_OFF&#45;&gt;S_ON</title>
<path fill="none" stroke="#66cc66" d="M41.25,-291.96C37.07,-286.39 33.44,-280.34 31,-274 26.22,-261.55 26.56,-256.57 31,-244 32.1,-240.88 33.45,-237.81 34.99,-234.81"/>
<polygon fill="#66cc66" stroke="#66cc66" points="38.1,-236.42 40.12,-226.02 32.06,-232.9 38.1,-236.42"/>
<text text-anchor="middle" x="67" y="-266.8" font-family="Cascadia Code PL" font-size="9.00" fill="#aaaaaa"> &#160;Toggle crosshair</text>
<text text-anchor="middle" x="67" y="-256.8" font-family="Cascadia Code PL" font-size="9.00" fill="#aaaaaa"> &#160;View → Crosshair</text>
<text text-anchor="middle" x="67" y="-246.8" font-family="Cascadia Code PL" font-size="9.00" fill="#aaaaaa"> &#160;or hotkey</text>
</g>
<!-- S_ON&#45;&gt;S_OFF -->
<g id="edge2" class="edge">
<title>S_ON&#45;&gt;S_OFF</title>
<path fill="none" stroke="#cc6666" stroke-dasharray="5,2" d="M97.44,-226.11C99.73,-231.97 101.71,-238.05 103,-244 105.83,-257.03 106.11,-261.04 103,-274 102.33,-276.81 101.47,-279.64 100.48,-282.44"/>
<polygon fill="#cc6666" stroke="#cc6666" points="97.18,-281.26 96.68,-291.85 103.67,-283.88 97.18,-281.26"/>
<text text-anchor="middle" x="142" y="-266.8" font-family="Cascadia Code PL" font-size="9.00" fill="#aaaaaa"> &#160;Toggle crosshair</text>
<text text-anchor="middle" x="142" y="-256.8" font-family="Cascadia Code PL" font-size="9.00" fill="#aaaaaa"> &#160;View → Crosshair</text>
<text text-anchor="middle" x="142" y="-246.8" font-family="Cascadia Code PL" font-size="9.00" fill="#aaaaaa"> &#160;or hotkey</text>
</g>
<!-- S_DRAWING -->
<g id="node4" class="node">
<title>S_DRAWING</title>
<polygon fill="none" stroke="white" points="138,-80 16,-80 16,0 138,0 138,-80"/>
<text text-anchor="middle" x="77" y="-67.2" font-family="Cascadia Code PL" font-size="11.00" fill="cyan">3 · DRAWING</text>
<text text-anchor="middle" x="77" y="-55.2" font-family="Cascadia Code PL" font-size="11.00" fill="cyan">─────────────────</text>
<text text-anchor="middle" x="77" y="-43.2" font-family="Cascadia Code PL" font-size="11.00" fill="cyan">Active tool in use</text>
<text text-anchor="middle" x="77" y="-31.2" font-family="Cascadia Code PL" font-size="11.00" fill="cyan">Crosshair shown at</text>
<text text-anchor="middle" x="77" y="-19.2" font-family="Cascadia Code PL" font-size="11.00" fill="cyan">current canvas coords</text>
<text text-anchor="middle" x="77" y="-7.2" font-family="Cascadia Code PL" font-size="11.00" fill="cyan">Updates each frame</text>
</g>
<!-- S_ON&#45;&gt;S_DRAWING -->
<g id="edge3" class="edge">
<title>S_ON&#45;&gt;S_DRAWING</title>
<path fill="none" stroke="#66cc66" d="M33.28,-145.97C29.12,-140.36 25.52,-134.33 23,-128 18.06,-115.61 18.06,-110.39 23,-98 24.3,-94.74 25.89,-91.55 27.69,-88.46"/>
<polygon fill="#66cc66" stroke="#66cc66" points="30.67,-90.3 33.28,-80.03 24.84,-86.43 30.67,-90.3"/>
<text text-anchor="middle" x="67" y="-120.8" font-family="Cascadia Code PL" font-size="9.00" fill="#aaaaaa"> &#160;Mouse enters canvas</text>
<text text-anchor="middle" x="67" y="-110.8" font-family="Cascadia Code PL" font-size="9.00" fill="#aaaaaa"> &#160;Active drawing tool</text>
<text text-anchor="middle" x="67" y="-100.8" font-family="Cascadia Code PL" font-size="9.00" fill="#aaaaaa"> &#160;selected</text>
</g>
<!-- S_DRAWING&#45;&gt;S_ON -->
<g id="edge4" class="edge">
<title>S_DRAWING&#45;&gt;S_ON</title>
<path fill="none" stroke="#cc6666" stroke-dasharray="5,2" d="M104.01,-80.26C106.88,-86 109.35,-92 111,-98 114.54,-110.85 114.54,-115.15 111,-128 110.23,-130.81 109.27,-133.62 108.18,-136.41"/>
<polygon fill="#cc6666" stroke="#cc6666" points="104.9,-135.19 104.01,-145.74 111.29,-138.04 104.9,-135.19"/>
<text text-anchor="middle" x="158" y="-115.8" font-family="Cascadia Code PL" font-size="9.00" fill="#aaaaaa"> &#160;Mouse leaves canvas</text>
<text text-anchor="middle" x="158" y="-105.8" font-family="Cascadia Code PL" font-size="9.00" fill="#aaaaaa"> &#160;or tool released</text>
</g>
<!-- S_DRAWING&#45;&gt;S_DRAWING -->
<g id="edge5" class="edge">
<title>S_DRAWING&#45;&gt;S_DRAWING</title>
<path fill="none" stroke="#88aacc" d="M138.28,-52.6C148.75,-50.88 156,-46.68 156,-40 156,-35.72 153.02,-32.46 148.13,-30.21"/>
<polygon fill="#88aacc" stroke="#88aacc" points="148.86,-26.78 138.28,-27.4 146.93,-33.51 148.86,-26.78"/>
<text text-anchor="middle" x="199.5" y="-47.8" font-family="Cascadia Code PL" font-size="9.00" fill="#aaaaaa"> &#160;Mouse moves</text>
<text text-anchor="middle" x="199.5" y="-37.8" font-family="Cascadia Code PL" font-size="9.00" fill="#aaaaaa"> &#160;CROSSHAIR_render()</text>
<text text-anchor="middle" x="199.5" y="-27.8" font-family="Cascadia Code PL" font-size="9.00" fill="#aaaaaa"> &#160;updates position</text>
</g>
<!-- O_NONE -->
<g id="node5" class="node">
<title>O_NONE</title>
<polygon fill="none" stroke="white" points="296,-478 190,-478 190,-422 296,-422 296,-478"/>
<text text-anchor="middle" x="243" y="-465.2" font-family="Cascadia Code PL" font-size="11.00" fill="cyan">No Outline</text>
<text text-anchor="middle" x="243" y="-453.2" font-family="Cascadia Code PL" font-size="11.00" fill="cyan">─────────────────</text>
<text text-anchor="middle" x="243" y="-441.2" font-family="Cascadia Code PL" font-size="11.00" fill="cyan">Single&#45;pixel lines</text>
<text text-anchor="middle" x="243" y="-429.2" font-family="Cascadia Code PL" font-size="11.00" fill="cyan">Direct color only</text>
</g>
<!-- O_STROKE -->
<g id="node6" class="node">
<title>O_STROKE</title>
<polygon fill="none" stroke="white" points="308.5,-360 179.5,-360 179.5,-292 308.5,-292 308.5,-360"/>
<text text-anchor="middle" x="244" y="-347.2" font-family="Cascadia Code PL" font-size="11.00" fill="cyan">With Outline</text>
<text text-anchor="middle" x="244" y="-335.2" font-family="Cascadia Code PL" font-size="11.00" fill="cyan">─────────────────</text>
<text text-anchor="middle" x="244" y="-323.2" font-family="Cascadia Code PL" font-size="11.00" fill="cyan">Configurable outline</text>
<text text-anchor="middle" x="244" y="-311.2" font-family="Cascadia Code PL" font-size="11.00" fill="cyan">stroke width</text>
<text text-anchor="middle" x="244" y="-299.2" font-family="Cascadia Code PL" font-size="11.00" fill="cyan">Contrast against canvas</text>
</g>
<!-- O_NONE&#45;&gt;O_STROKE -->
<g id="edge7" class="edge">
<title>O_NONE&#45;&gt;O_STROKE</title>
<path fill="none" stroke="#6699ff" d="M205.08,-421.9C192.47,-409.39 183.18,-393.82 190,-378 191.42,-374.7 193.17,-371.52 195.16,-368.46"/>
<polygon fill="#6699ff" stroke="#6699ff" points="198.16,-370.31 201.34,-360.21 192.55,-366.12 198.16,-370.31"/>
<text text-anchor="middle" x="216" y="-390.8" font-family="Cascadia Code PL" font-size="9.00" fill="#aaaaaa"> &#160;CFG change</text>
<text text-anchor="middle" x="216" y="-380.8" font-family="Cascadia Code PL" font-size="9.00" fill="#aaaaaa"> &#160;outline &gt; 0</text>
</g>
<!-- O_STROKE&#45;&gt;O_NONE -->
<g id="edge8" class="edge">
<title>O_STROKE&#45;&gt;O_NONE</title>
<path fill="none" stroke="#6699ff" d="M243.73,-360.09C243.6,-375.99 243.44,-395.13 243.31,-411.57"/>
<polygon fill="#6699ff" stroke="#6699ff" points="239.8,-411.9 243.22,-421.92 246.8,-411.95 239.8,-411.9"/>
<text text-anchor="middle" x="269" y="-390.8" font-family="Cascadia Code PL" font-size="9.00" fill="#aaaaaa"> &#160;CFG change</text>
<text text-anchor="middle" x="269" y="-380.8" font-family="Cascadia Code PL" font-size="9.00" fill="#aaaaaa"> &#160;outline = 0</text>
</g>
<!-- R1 -->
<g id="node7" class="node">
<title>R1</title>
<polygon fill="none" stroke="white" points="627.5,-484 480.5,-484 480.5,-416 627.5,-416 627.5,-484"/>
<text text-anchor="middle" x="554" y="-471.2" font-family="Cascadia Code PL" font-size="11.00" fill="cyan">CROSSHAIR_render(dest&amp;)</text>
<text text-anchor="middle" x="554" y="-459.2" font-family="Cascadia Code PL" font-size="11.00" fill="cyan">─────────────────</text>
<text text-anchor="middle" x="554" y="-447.2" font-family="Cascadia Code PL" font-size="11.00" fill="cyan">Draw horizontal line</text>
<text text-anchor="middle" x="554" y="-435.2" font-family="Cascadia Code PL" font-size="11.00" fill="cyan">Draw vertical line</text>
<text text-anchor="middle" x="554" y="-423.2" font-family="Cascadia Code PL" font-size="11.00" fill="cyan">At canvas mouse coords</text>
</g>
<!-- R2 -->
<g id="node8" class="node">
<title>R2</title>
<polygon fill="none" stroke="white" points="462,-484 340,-484 340,-416 462,-416 462,-484"/>
<text text-anchor="middle" x="401" y="-471.2" font-family="Cascadia Code PL" font-size="11.00" fill="cyan">After Scene Cache</text>
<text text-anchor="middle" x="401" y="-459.2" font-family="Cascadia Code PL" font-size="11.00" fill="cyan">─────────────────</text>
<text text-anchor="middle" x="401" y="-447.2" font-family="Cascadia Code PL" font-size="11.00" fill="cyan">Rendered AFTER</text>
<text text-anchor="middle" x="401" y="-435.2" font-family="Cascadia Code PL" font-size="11.00" fill="cyan">SkipToPointer step 13</text>
<text text-anchor="middle" x="401" y="-423.2" font-family="Cascadia Code PL" font-size="11.00" fill="cyan">Not cached in scene</text>
</g>
<!-- L1 -->
<g id="node9" class="node">
<title>L1</title>
<ellipse fill="white" stroke="white" cx="818" cy="-450" rx="0.36" ry="0.36"/>
</g>
<!-- L2 -->
<g id="node10" class="node">
<title>L2</title>
<ellipse fill="white" stroke="white" cx="818" cy="-326" rx="0.36" ry="0.36"/>
</g>
<!-- L1&#45;&gt;L2 -->
<g id="edge9" class="edge">
<title>L1&#45;&gt;L2</title>
<path fill="none" stroke="#66cc66" d="M818,-448.91C818,-445.89 818,-366.04 818,-337.24"/>
<polygon fill="#66cc66" stroke="#66cc66" points="821.5,-337.09 818,-327.09 814.5,-337.09 821.5,-337.09"/>
<text text-anchor="middle" x="835.5" y="-385.8" font-family="Cascadia Code PL" font-size="9.00" fill="#aaaaaa"> Activate</text>
</g>
<!-- L3 -->
<g id="node11" class="node">
<title>L3</title>
<ellipse fill="white" stroke="white" cx="751" cy="-450" rx="0.36" ry="0.36"/>
</g>
<!-- L4 -->
<g id="node12" class="node">
<title>L4</title>
<ellipse fill="white" stroke="white" cx="751" cy="-326" rx="0.36" ry="0.36"/>
</g>
<!-- L3&#45;&gt;L4 -->
<g id="edge10" class="edge">
<title>L3&#45;&gt;L4</title>
<path fill="none" stroke="#cc6666" stroke-dasharray="5,2" d="M751,-448.91C751,-445.89 751,-366.04 751,-337.24"/>
<polygon fill="#cc6666" stroke="#cc6666" points="754.5,-337.09 751,-327.09 747.5,-337.09 754.5,-337.09"/>
<text text-anchor="middle" x="773" y="-385.8" font-family="Cascadia Code PL" font-size="9.00" fill="#aaaaaa"> Deactivate</text>
</g>
<!-- L5 -->
<g id="node13" class="node">
<title>L5</title>
<ellipse fill="white" stroke="white" cx="670" cy="-450" rx="0.36" ry="0.36"/>
</g>
<!-- L6 -->
<g id="node14" class="node">
<title>L6</title>
<ellipse fill="white" stroke="white" cx="670" cy="-326" rx="0.36" ry="0.36"/>
</g>
<!-- L5&#45;&gt;L6 -->
<g id="edge11" class="edge">
<title>L5&#45;&gt;L6</title>
<path fill="none" stroke="#88aacc" d="M670,-448.91C670,-445.89 670,-366.04 670,-337.24"/>
<polygon fill="#88aacc" stroke="#88aacc" points="673.5,-337.09 670,-327.09 666.5,-337.09 673.5,-337.09"/>
<text text-anchor="middle" x="699" y="-385.8" font-family="Cascadia Code PL" font-size="9.00" fill="#aaaaaa"> Self&#45;transition</text>
</g>
</g>
</svg>
