<?xml version="1.0" encoding="UTF-8" standalone="no"?>
<!DOCTYPE svg PUBLIC "-//W3C//DTD SVG 1.1//EN"
 "http://www.w3.org/Graphics/SVG/1.1/DTD/svg11.dtd">
<!-- Generated by graphviz version 2.42.4 (0)
 -->
<!-- Title: FILL_ADJUST Pages: 1 -->
<svg width="1365pt" height="515pt"
 viewBox="0.00 0.00 1364.50 515.00" xmlns="http://www.w3.org/2000/svg" xmlns:xlink="http://www.w3.org/1999/xlink">
<g id="graph0" class="graph" transform="scale(1 1) rotate(0) translate(4 511)">
<title>FILL_ADJUST</title>
<text text-anchor="middle" x="678.25" y="-483.8" font-family="Cascadia Code PL" font-size="24.00" fill="white">FILL ADJUST OVERLAY STATE MACHINE</text>
<g id="clust2" class="cluster">
<title>cluster_handles</title>
<polygon fill="transparent" stroke="orange" stroke-dasharray="5,2" points="532.5,-366 532.5,-465 880.5,-465 880.5,-366 532.5,-366"/>
<text text-anchor="middle" x="564" y="-452.2" font-family="Cascadia Code PL" font-size="11.00" fill="orange">HANDLES</text>
</g>
<g id="clust3" class="cluster">
<title>cluster_targets</title>
<polygon fill="transparent" stroke="orange" stroke-dasharray="5,2" points="888.5,-366 888.5,-465 1139.5,-465 1139.5,-366 888.5,-366"/>
<text text-anchor="middle" x="924" y="-452.2" font-family="Cascadia Code PL" font-size="11.00" fill="orange">APPLIES TO</text>
</g>
<g id="clust5" class="cluster">
<title>cluster_legend</title>
<polygon fill="transparent" stroke="white" stroke-dasharray="5,2" points="1147.5,-285.64 1147.5,-433.86 1348.5,-433.86 1348.5,-285.64 1147.5,-285.64"/>
<text text-anchor="middle" x="1175.5" y="-421.06" font-family="Cascadia Code PL" font-size="11.00" fill="white">LEGEND</text>
</g>
<!-- MAIN -->
<g id="node1" class="node">
<title>MAIN</title>
<polygon fill="none" stroke="orange" stroke-width="2" points="523,-423.5 520,-427.5 499,-427.5 496,-423.5 356,-423.5 356,-387.5 523,-387.5 523,-423.5"/>
<text text-anchor="middle" x="439.5" y="-402.1" font-family="Cascadia Code PL" font-size="13.00" fill="orange">FILL ADJUST (F8 OVERLAY)</text>
</g>
<!-- S_INACTIVE -->
<g id="node2" class="node">
<title>S_INACTIVE</title>
<polygon fill="none" stroke="white" points="509.5,-328 369.5,-328 369.5,-260 509.5,-260 509.5,-328"/>
<text text-anchor="middle" x="439.5" y="-315.2" font-family="Cascadia Code PL" font-size="11.00" fill="cyan">1 · INACTIVE</text>
<text text-anchor="middle" x="439.5" y="-303.2" font-family="Cascadia Code PL" font-size="11.00" fill="cyan">─────────────────</text>
<text text-anchor="middle" x="439.5" y="-291.2" font-family="Cascadia Code PL" font-size="11.00" fill="cyan">FILL_ADJ.active% = FALSE</text>
<text text-anchor="middle" x="439.5" y="-279.2" font-family="Cascadia Code PL" font-size="11.00" fill="cyan">Custom brush / paint</text>
<text text-anchor="middle" x="439.5" y="-267.2" font-family="Cascadia Code PL" font-size="11.00" fill="cyan">renders normally tiled</text>
</g>
<!-- MAIN&#45;&gt;S_INACTIVE -->
<g id="edge11" class="edge">
<title>MAIN&#45;&gt;S_INACTIVE</title>
<path fill="none" stroke="#555555" stroke-dasharray="1,5" d="M439.5,-387.39C439.5,-371.63 439.5,-347.81 439.5,-328.3"/>
</g>
<!-- S_ACTIVE -->
<g id="node3" class="node">
<title>S_ACTIVE</title>
<polygon fill="none" stroke="white" points="397,-194 260,-194 260,-114 397,-114 397,-194"/>
<text text-anchor="middle" x="328.5" y="-181.2" font-family="Cascadia Code PL" font-size="11.00" fill="cyan">2 · ACTIVE OVERLAY</text>
<text text-anchor="middle" x="328.5" y="-169.2" font-family="Cascadia Code PL" font-size="11.00" fill="cyan">─────────────────</text>
<text text-anchor="middle" x="328.5" y="-157.2" font-family="Cascadia Code PL" font-size="11.00" fill="cyan">F8 toggled on</text>
<text text-anchor="middle" x="328.5" y="-145.2" font-family="Cascadia Code PL" font-size="11.00" fill="cyan">Handles drawn over</text>
<text text-anchor="middle" x="328.5" y="-133.2" font-family="Cascadia Code PL" font-size="11.00" fill="cyan">tile preview</text>
<text text-anchor="middle" x="328.5" y="-121.2" font-family="Cascadia Code PL" font-size="11.00" fill="cyan">Live parameter feedback</text>
</g>
<!-- S_INACTIVE&#45;&gt;S_ACTIVE -->
<g id="edge1" class="edge">
<title>S_INACTIVE&#45;&gt;S_ACTIVE</title>
<path fill="none" stroke="#66cc66" d="M369.4,-274.57C353.71,-267.06 338.93,-256.58 329.5,-242 322.38,-230.99 319.97,-217.45 319.9,-204.35"/>
<polygon fill="#66cc66" stroke="#66cc66" points="323.41,-204.13 320.3,-194 316.42,-203.86 323.41,-204.13"/>
<text text-anchor="middle" x="373.5" y="-234.8" font-family="Cascadia Code PL" font-size="9.00" fill="#aaaaaa"> &#160;F8 pressed</text>
<text text-anchor="middle" x="373.5" y="-224.8" font-family="Cascadia Code PL" font-size="9.00" fill="#aaaaaa"> &#160;while custom brush /</text>
<text text-anchor="middle" x="373.5" y="-214.8" font-family="Cascadia Code PL" font-size="9.00" fill="#aaaaaa"> &#160;paint mode active</text>
</g>
<!-- S_ACTIVE&#45;&gt;S_INACTIVE -->
<g id="edge2" class="edge">
<title>S_ACTIVE&#45;&gt;S_INACTIVE</title>
<path fill="none" stroke="#cc6666" stroke-dasharray="5,2" d="M397.22,-191.25C404.83,-197.39 411.85,-204.31 417.5,-212 425.61,-223.05 430.73,-236.91 433.96,-250.02"/>
<polygon fill="#cc6666" stroke="#cc6666" points="430.55,-250.81 436.08,-259.85 437.39,-249.33 430.55,-250.81"/>
<text text-anchor="middle" x="478.5" y="-229.8" font-family="Cascadia Code PL" font-size="9.00" fill="#aaaaaa"> &#160;F8 / Esc / Enter</text>
<text text-anchor="middle" x="478.5" y="-219.8" font-family="Cascadia Code PL" font-size="9.00" fill="#aaaaaa"> &#160;Commit current values</text>
</g>
<!-- S_DRAG_OFFSET -->
<g id="node4" class="node">
<title>S_DRAG_OFFSET</title>
<polygon fill="none" stroke="white" points="127,-68 0,-68 0,0 127,0 127,-68"/>
<text text-anchor="middle" x="63.5" y="-55.2" font-family="Cascadia Code PL" font-size="11.00" fill="cyan">3 · DRAGGING OFFSET</text>
<text text-anchor="middle" x="63.5" y="-43.2" font-family="Cascadia Code PL" font-size="11.00" fill="cyan">─────────────────</text>
<text text-anchor="middle" x="63.5" y="-31.2" font-family="Cascadia Code PL" font-size="11.00" fill="cyan">B1 inside tile area</text>
<text text-anchor="middle" x="63.5" y="-19.2" font-family="Cascadia Code PL" font-size="11.00" fill="cyan">Update tileX, tileY</text>
<text text-anchor="middle" x="63.5" y="-7.2" font-family="Cascadia Code PL" font-size="11.00" fill="cyan">FRAME_IDLE% = FALSE</text>
</g>
<!-- S_ACTIVE&#45;&gt;S_DRAG_OFFSET -->
<g id="edge3" class="edge">
<title>S_ACTIVE&#45;&gt;S_DRAG_OFFSET</title>
<path fill="none" stroke="#66cc66" d="M259.99,-148.52C186.91,-142.15 78.19,-127.53 52.5,-96 48.35,-90.91 46.81,-84.78 46.86,-78.39"/>
<polygon fill="#66cc66" stroke="#66cc66" points="50.36,-78.61 48.11,-68.26 43.41,-77.76 50.36,-78.61"/>
<text text-anchor="middle" x="81.5" y="-88.8" font-family="Cascadia Code PL" font-size="9.00" fill="#aaaaaa"> &#160;B1 in tile area</text>
</g>
<!-- S_DRAG_SCALE -->
<g id="node5" class="node">
<title>S_DRAG_SCALE</title>
<polygon fill="none" stroke="white" points="276,-68 149,-68 149,0 276,0 276,-68"/>
<text text-anchor="middle" x="212.5" y="-55.2" font-family="Cascadia Code PL" font-size="11.00" fill="cyan">4 · DRAGGING SCALE</text>
<text text-anchor="middle" x="212.5" y="-43.2" font-family="Cascadia Code PL" font-size="11.00" fill="cyan">─────────────────</text>
<text text-anchor="middle" x="212.5" y="-31.2" font-family="Cascadia Code PL" font-size="11.00" fill="cyan">B1 on L&#45;handle</text>
<text text-anchor="middle" x="212.5" y="-19.2" font-family="Cascadia Code PL" font-size="11.00" fill="cyan">Independent X/Y scale</text>
<text text-anchor="middle" x="212.5" y="-7.2" font-family="Cascadia Code PL" font-size="11.00" fill="cyan">or uniform if Shift</text>
</g>
<!-- S_ACTIVE&#45;&gt;S_DRAG_SCALE -->
<g id="edge5" class="edge">
<title>S_ACTIVE&#45;&gt;S_DRAG_SCALE</title>
<path fill="none" stroke="#66cc66" d="M259.96,-136.88C238.85,-128.35 217.92,-115.44 205.5,-96 202.15,-90.76 200.7,-84.75 200.44,-78.58"/>
<polygon fill="#66cc66" stroke="#66cc66" points="203.96,-78.35 201.02,-68.17 196.97,-77.96 203.96,-78.35"/>
<text text-anchor="middle" x="238" y="-88.8" font-family="Cascadia Code PL" font-size="9.00" fill="#aaaaaa"> &#160;B1 on L&#45;handle</text>
</g>
<!-- S_DRAG_ROT -->
<g id="node6" class="node">
<title>S_DRAG_ROT</title>
<polygon fill="none" stroke="white" points="444,-68 319,-68 319,0 444,0 444,-68"/>
<text text-anchor="middle" x="381.5" y="-55.2" font-family="Cascadia Code PL" font-size="11.00" fill="cyan">5 · DRAGGING ROTATE</text>
<text text-anchor="middle" x="381.5" y="-43.2" font-family="Cascadia Code PL" font-size="11.00" fill="cyan">─────────────────</text>
<text text-anchor="middle" x="381.5" y="-31.2" font-family="Cascadia Code PL" font-size="11.00" fill="cyan">B1 on rotation handle</text>
<text text-anchor="middle" x="381.5" y="-19.2" font-family="Cascadia Code PL" font-size="11.00" fill="cyan">Update angle</text>
<text text-anchor="middle" x="381.5" y="-7.2" font-family="Cascadia Code PL" font-size="11.00" fill="cyan">Live rotation preview</text>
</g>
<!-- S_ACTIVE&#45;&gt;S_DRAG_ROT -->
<g id="edge7" class="edge">
<title>S_ACTIVE&#45;&gt;S_DRAG_ROT</title>
<path fill="none" stroke="#66cc66" d="M346.15,-113.71C351.38,-102.07 357.12,-89.28 362.43,-77.45"/>
<polygon fill="#66cc66" stroke="#66cc66" points="365.68,-78.76 366.58,-68.21 359.29,-75.9 365.68,-78.76"/>
<text text-anchor="middle" x="399.5" y="-88.8" font-family="Cascadia Code PL" font-size="9.00" fill="#aaaaaa"> &#160;B1 on rotate handle</text>
</g>
<!-- S_COMMITTING -->
<g id="node7" class="node">
<title>S_COMMITTING</title>
<polygon fill="none" stroke="white" points="651.5,-68 529.5,-68 529.5,0 651.5,0 651.5,-68"/>
<text text-anchor="middle" x="590.5" y="-55.2" font-family="Cascadia Code PL" font-size="11.00" fill="cyan">6 · COMMITTING</text>
<text text-anchor="middle" x="590.5" y="-43.2" font-family="Cascadia Code PL" font-size="11.00" fill="cyan">─────────────────</text>
<text text-anchor="middle" x="590.5" y="-31.2" font-family="Cascadia Code PL" font-size="11.00" fill="cyan">F8 / Enter to apply</text>
<text text-anchor="middle" x="590.5" y="-19.2" font-family="Cascadia Code PL" font-size="11.00" fill="cyan">Values persist on tool</text>
<text text-anchor="middle" x="590.5" y="-7.2" font-family="Cascadia Code PL" font-size="11.00" fill="cyan">Buffer flushed</text>
</g>
<!-- S_ACTIVE&#45;&gt;S_COMMITTING -->
<g id="edge9" class="edge">
<title>S_ACTIVE&#45;&gt;S_COMMITTING</title>
<path fill="none" stroke="#cccc66" d="M397.21,-135.23C429.69,-125.61 468.48,-112.34 501.5,-96 514.06,-89.78 526.89,-81.99 538.75,-74.07"/>
<polygon fill="#cccc66" stroke="#cccc66" points="540.91,-76.83 547.19,-68.3 536.96,-71.05 540.91,-76.83"/>
<text text-anchor="middle" x="562.5" y="-88.8" font-family="Cascadia Code PL" font-size="9.00" fill="#aaaaaa"> &#160;Enter / F8 toggle off</text>
</g>
<!-- S_DRAG_OFFSET&#45;&gt;S_ACTIVE -->
<g id="edge4" class="edge">
<title>S_DRAG_OFFSET&#45;&gt;S_ACTIVE</title>
<path fill="none" stroke="#cccc66" d="M104.73,-68.14C118.42,-78.06 134.1,-88.32 149.5,-96 181.11,-111.76 218.01,-124.39 250.06,-133.71"/>
<polygon fill="#cccc66" stroke="#cccc66" points="249.27,-137.13 259.85,-136.5 251.19,-130.39 249.27,-137.13"/>
<text text-anchor="middle" x="174" y="-88.8" font-family="Cascadia Code PL" font-size="9.00" fill="#aaaaaa"> &#160;B1 released</text>
</g>
<!-- S_DRAG_SCALE&#45;&gt;S_ACTIVE -->
<g id="edge6" class="edge">
<title>S_DRAG_SCALE&#45;&gt;S_ACTIVE</title>
<path fill="none" stroke="#cccc66" d="M251.55,-68.03C258.02,-73.87 264.55,-80 270.5,-86 276.87,-92.42 283.37,-99.42 289.6,-106.39"/>
<polygon fill="#cccc66" stroke="#cccc66" points="287.01,-108.74 296.24,-113.93 292.26,-104.11 287.01,-108.74"/>
<text text-anchor="middle" x="304" y="-88.8" font-family="Cascadia Code PL" font-size="9.00" fill="#aaaaaa"> &#160;B1 released</text>
</g>
<!-- S_DRAG_ROT&#45;&gt;S_ACTIVE -->
<g id="edge8" class="edge">
<title>S_DRAG_ROT&#45;&gt;S_ACTIVE</title>
<path fill="none" stroke="#cccc66" d="M439.92,-68.17C447.47,-76.57 450.7,-86.05 444.5,-96 435.43,-110.57 421.42,-121.52 406.24,-129.71"/>
<polygon fill="#cccc66" stroke="#cccc66" points="404.58,-126.63 397.19,-134.23 407.7,-132.9 404.58,-126.63"/>
<text text-anchor="middle" x="473" y="-88.8" font-family="Cascadia Code PL" font-size="9.00" fill="#aaaaaa"> &#160;B1 released</text>
</g>
<!-- S_COMMITTING&#45;&gt;S_INACTIVE -->
<g id="edge10" class="edge">
<title>S_COMMITTING&#45;&gt;S_INACTIVE</title>
<path fill="none" stroke="#cc6666" stroke-dasharray="5,2" d="M606.95,-68.11C609.59,-77.12 610.8,-86.9 608.5,-96 590.39,-167.52 581.16,-189.32 529.5,-242 525.39,-246.19 520.87,-250.14 516.1,-253.85"/>
<polygon fill="#cc6666" stroke="#cc6666" points="513.89,-251.13 507.87,-259.85 518.01,-256.78 513.89,-251.13"/>
<text text-anchor="middle" x="639" y="-156.8" font-family="Cascadia Code PL" font-size="9.00" fill="#aaaaaa"> &#160;Values written</text>
<text text-anchor="middle" x="639" y="-146.8" font-family="Cascadia Code PL" font-size="9.00" fill="#aaaaaa"> &#160;back to tool state</text>
</g>
<!-- H1 -->
<g id="node8" class="node">
<title>H1</title>
<polygon fill="none" stroke="white" points="872.5,-431.5 782.5,-431.5 782.5,-379.5 872.5,-379.5 872.5,-431.5"/>
<text text-anchor="middle" x="827.5" y="-419.5" font-family="Cascadia Code PL" font-size="10.00" fill="cyan">Center / Drag</text>
<text text-anchor="middle" x="827.5" y="-408.5" font-family="Cascadia Code PL" font-size="10.00" fill="cyan">────────────</text>
<text text-anchor="middle" x="827.5" y="-397.5" font-family="Cascadia Code PL" font-size="10.00" fill="cyan">Move tile origin</text>
<text text-anchor="middle" x="827.5" y="-386.5" font-family="Cascadia Code PL" font-size="10.00" fill="cyan">(offsetX, offsetY)</text>
</g>
<!-- H2 -->
<g id="node9" class="node">
<title>H2</title>
<polygon fill="none" stroke="white" points="764.5,-437 664.5,-437 664.5,-374 764.5,-374 764.5,-437"/>
<text text-anchor="middle" x="714.5" y="-425" font-family="Cascadia Code PL" font-size="10.00" fill="cyan">L&#45;Handle</text>
<text text-anchor="middle" x="714.5" y="-414" font-family="Cascadia Code PL" font-size="10.00" fill="cyan">────────────</text>
<text text-anchor="middle" x="714.5" y="-403" font-family="Cascadia Code PL" font-size="10.00" fill="cyan">Independent scale</text>
<text text-anchor="middle" x="714.5" y="-392" font-family="Cascadia Code PL" font-size="10.00" fill="cyan">X leg = scaleX</text>
<text text-anchor="middle" x="714.5" y="-381" font-family="Cascadia Code PL" font-size="10.00" fill="cyan">Y leg = scaleY</text>
</g>
<!-- H3 -->
<g id="node10" class="node">
<title>H3</title>
<polygon fill="none" stroke="white" points="646.5,-431.5 540.5,-431.5 540.5,-379.5 646.5,-379.5 646.5,-431.5"/>
<text text-anchor="middle" x="593.5" y="-419.5" font-family="Cascadia Code PL" font-size="10.00" fill="cyan">Rotation Knob</text>
<text text-anchor="middle" x="593.5" y="-408.5" font-family="Cascadia Code PL" font-size="10.00" fill="cyan">────────────</text>
<text text-anchor="middle" x="593.5" y="-397.5" font-family="Cascadia Code PL" font-size="10.00" fill="cyan">Angle in degrees</text>
<text text-anchor="middle" x="593.5" y="-386.5" font-family="Cascadia Code PL" font-size="10.00" fill="cyan">Snap to 15° w/ Shift</text>
</g>
<!-- TG1 -->
<g id="node11" class="node">
<title>TG1</title>
<polygon fill="none" stroke="white" points="1131.5,-431.5 1021.5,-431.5 1021.5,-379.5 1131.5,-379.5 1131.5,-431.5"/>
<text text-anchor="middle" x="1076.5" y="-419.5" font-family="Cascadia Code PL" font-size="10.00" fill="cyan">Custom Brush Tile</text>
<text text-anchor="middle" x="1076.5" y="-408.5" font-family="Cascadia Code PL" font-size="10.00" fill="cyan">────────────</text>
<text text-anchor="middle" x="1076.5" y="-397.5" font-family="Cascadia Code PL" font-size="10.00" fill="cyan">When brush is</text>
<text text-anchor="middle" x="1076.5" y="-386.5" font-family="Cascadia Code PL" font-size="10.00" fill="cyan">custom&#45;image based</text>
</g>
<!-- TG2 -->
<g id="node12" class="node">
<title>TG2</title>
<polygon fill="none" stroke="white" points="1003,-437 896,-437 896,-374 1003,-374 1003,-437"/>
<text text-anchor="middle" x="949.5" y="-425" font-family="Cascadia Code PL" font-size="10.00" fill="cyan">Paint Mode Fill</text>
<text text-anchor="middle" x="949.5" y="-414" font-family="Cascadia Code PL" font-size="10.00" fill="cyan">────────────</text>
<text text-anchor="middle" x="949.5" y="-403" font-family="Cascadia Code PL" font-size="10.00" fill="cyan">Tiled pattern fills</text>
<text text-anchor="middle" x="949.5" y="-392" font-family="Cascadia Code PL" font-size="10.00" fill="cyan">for rect / ellipse / fill</text>
<text text-anchor="middle" x="949.5" y="-381" font-family="Cascadia Code PL" font-size="10.00" fill="cyan">with custom brush</text>
</g>
<!-- L1 -->
<g id="node13" class="node">
<title>L1</title>
<ellipse fill="white" stroke="white" cx="1305.5" cy="-405.5" rx="0.36" ry="0.36"/>
</g>
<!-- L2 -->
<g id="node14" class="node">
<title>L2</title>
<ellipse fill="white" stroke="white" cx="1305.5" cy="-294" rx="0.36" ry="0.36"/>
</g>
<!-- L1&#45;&gt;L2 -->
<g id="edge12" class="edge">
<title>L1&#45;&gt;L2</title>
<path fill="none" stroke="#66cc66" d="M1305.5,-404.42C1305.5,-401.74 1305.5,-332.04 1305.5,-305.31"/>
<polygon fill="#66cc66" stroke="#66cc66" points="1309,-305.08 1305.5,-295.08 1302,-305.08 1309,-305.08"/>
<text text-anchor="middle" x="1323" y="-348.8" font-family="Cascadia Code PL" font-size="9.00" fill="#aaaaaa"> Activate</text>
</g>
<!-- L3 -->
<g id="node15" class="node">
<title>L3</title>
<ellipse fill="white" stroke="white" cx="1238.5" cy="-405.5" rx="0.36" ry="0.36"/>
</g>
<!-- L4 -->
<g id="node16" class="node">
<title>L4</title>
<ellipse fill="white" stroke="white" cx="1238.5" cy="-294" rx="0.36" ry="0.36"/>
</g>
<!-- L3&#45;&gt;L4 -->
<g id="edge13" class="edge">
<title>L3&#45;&gt;L4</title>
<path fill="none" stroke="#cc6666" stroke-dasharray="5,2" d="M1238.5,-404.42C1238.5,-401.74 1238.5,-332.04 1238.5,-305.31"/>
<polygon fill="#cc6666" stroke="#cc6666" points="1242,-305.08 1238.5,-295.08 1235,-305.08 1242,-305.08"/>
<text text-anchor="middle" x="1260.5" y="-348.8" font-family="Cascadia Code PL" font-size="9.00" fill="#aaaaaa"> Deactivate</text>
</g>
<!-- L5 -->
<g id="node17" class="node">
<title>L5</title>
<ellipse fill="white" stroke="white" cx="1173.5" cy="-405.5" rx="0.36" ry="0.36"/>
</g>
<!-- L6 -->
<g id="node18" class="node">
<title>L6</title>
<ellipse fill="white" stroke="white" cx="1173.5" cy="-294" rx="0.36" ry="0.36"/>
</g>
<!-- L5&#45;&gt;L6 -->
<g id="edge14" class="edge">
<title>L5&#45;&gt;L6</title>
<path fill="none" stroke="#cccc66" d="M1173.5,-404.42C1173.5,-401.74 1173.5,-332.04 1173.5,-305.31"/>
<polygon fill="#cccc66" stroke="#cccc66" points="1177,-305.08 1173.5,-295.08 1170,-305.08 1177,-305.08"/>
<text text-anchor="middle" x="1194.5" y="-348.8" font-family="Cascadia Code PL" font-size="9.00" fill="#aaaaaa"> Transition</text>
</g>
</g>
</svg>
