<?xml version="1.0" encoding="UTF-8" standalone="no"?>
<!DOCTYPE svg PUBLIC "-//W3C//DTD SVG 1.1//EN"
 "http://www.w3.org/Graphics/SVG/1.1/DTD/svg11.dtd">
<!-- Generated by graphviz version 2.42.4 (0)
 -->
<!-- Title: GRID_STATES Pages: 1 -->
<svg width="1534pt" height="456pt"
 viewBox="0.00 0.00 1534.00 456.00" xmlns="http://www.w3.org/2000/svg" xmlns:xlink="http://www.w3.org/1999/xlink">
<g id="graph0" class="graph" transform="scale(1 1) rotate(0) translate(4 452)">
<title>GRID_STATES</title>
<text text-anchor="middle" x="763" y="-424.8" font-family="Cascadia Code PL" font-size="24.00" fill="white">GRID STATE MACHINE</text>
<g id="clust3" class="cluster">
<title>cluster_snap</title>
<polygon fill="transparent" stroke="orange" stroke-dasharray="5,2" points="251,-8 251,-400 498,-400 498,-8 251,-8"/>
<text text-anchor="middle" x="292.5" y="-387.2" font-family="Cascadia Code PL" font-size="11.00" fill="white">SNAP MODES</text>
</g>
<g id="clust4" class="cluster">
<title>cluster_modes</title>
<polygon fill="transparent" stroke="orange" stroke-dasharray="5,2" points="506,-20 506,-400 727,-400 727,-20 506,-20"/>
<text text-anchor="middle" x="546.5" y="-387.2" font-family="Cascadia Code PL" font-size="11.00" fill="white">GRID MODES</text>
</g>
<g id="clust5" class="cluster">
<title>cluster_cell_fill</title>
<polygon fill="transparent" stroke="orange" stroke-dasharray="5,2" points="735,-160 735,-394 928,-394 928,-160 735,-160"/>
<text text-anchor="middle" x="779.5" y="-381.2" font-family="Cascadia Code PL" font-size="11.00" fill="white">GRID CELL FILL</text>
</g>
<g id="clust6" class="cluster">
<title>cluster_rendering</title>
<polygon fill="transparent" stroke="orange" stroke-dasharray="5,2" points="936,-290 936,-406 1217,-406 1217,-290 936,-290"/>
<text text-anchor="middle" x="1004.5" y="-393.2" font-family="Cascadia Code PL" font-size="11.00" fill="white">RENDER REQUIREMENTS</text>
</g>
<g id="clust7" class="cluster">
<title>cluster_legend</title>
<polygon fill="transparent" stroke="white" stroke-dasharray="5,2" points="1225,-193.64 1225,-366.36 1518,-366.36 1518,-193.64 1225,-193.64"/>
<text text-anchor="middle" x="1253" y="-353.56" font-family="Cascadia Code PL" font-size="11.00" fill="white">LEGEND</text>
</g>
<!-- MAIN -->
<g id="node1" class="node">
<title>MAIN</title>
<polygon fill="none" stroke="orange" stroke-width="2" points="152.5,-356 149.5,-360 128.5,-360 125.5,-356 57.5,-356 57.5,-320 152.5,-320 152.5,-356"/>
<text text-anchor="middle" x="105" y="-334.6" font-family="Cascadia Code PL" font-size="13.00" fill="orange">GRID SYSTEM</text>
</g>
<!-- S_HIDDEN -->
<g id="node2" class="node">
<title>S_HIDDEN</title>
<polygon fill="none" stroke="white" points="165.5,-236 44.5,-236 44.5,-168 165.5,-168 165.5,-236"/>
<text text-anchor="middle" x="105" y="-223.2" font-family="Cascadia Code PL" font-size="11.00" fill="cyan">1 · GRID HIDDEN</text>
<text text-anchor="middle" x="105" y="-211.2" font-family="Cascadia Code PL" font-size="11.00" fill="cyan">─────────────────</text>
<text text-anchor="middle" x="105" y="-199.2" font-family="Cascadia Code PL" font-size="11.00" fill="cyan">GRID.VISIBLE = FALSE</text>
<text text-anchor="middle" x="105" y="-187.2" font-family="Cascadia Code PL" font-size="11.00" fill="cyan">No grid overlay</text>
<text text-anchor="middle" x="105" y="-175.2" font-family="Cascadia Code PL" font-size="11.00" fill="cyan">No snap active</text>
</g>
<!-- MAIN&#45;&gt;S_HIDDEN -->
<g id="edge4" class="edge">
<title>MAIN&#45;&gt;S_HIDDEN</title>
<path fill="none" stroke="#555555" stroke-dasharray="1,5" d="M105,-319.76C105,-298.69 105,-262.6 105,-236.1"/>
</g>
<!-- S_VISIBLE -->
<g id="node3" class="node">
<title>S_VISIBLE</title>
<polygon fill="none" stroke="white" points="118,-96 0,-96 0,-16 118,-16 118,-96"/>
<text text-anchor="middle" x="59" y="-83.2" font-family="Cascadia Code PL" font-size="11.00" fill="cyan">2 · GRID VISIBLE</text>
<text text-anchor="middle" x="59" y="-71.2" font-family="Cascadia Code PL" font-size="11.00" fill="cyan">─────────────────</text>
<text text-anchor="middle" x="59" y="-59.2" font-family="Cascadia Code PL" font-size="11.00" fill="cyan">GRID.VISIBLE = TRUE</text>
<text text-anchor="middle" x="59" y="-47.2" font-family="Cascadia Code PL" font-size="11.00" fill="cyan">Grid lines drawn</text>
<text text-anchor="middle" x="59" y="-35.2" font-family="Cascadia Code PL" font-size="11.00" fill="cyan">on canvas overlay</text>
<text text-anchor="middle" x="59" y="-23.2" font-family="Cascadia Code PL" font-size="11.00" fill="cyan">GRID_draw() renders</text>
</g>
<!-- S_HIDDEN&#45;&gt;S_VISIBLE -->
<g id="edge1" class="edge">
<title>S_HIDDEN&#45;&gt;S_VISIBLE</title>
<path fill="none" stroke="#66cc66" d="M66.67,-167.76C60.68,-160.58 55.36,-152.55 52,-144 47.36,-132.2 46.5,-118.83 47.45,-106.17"/>
<polygon fill="#66cc66" stroke="#66cc66" points="50.93,-106.53 48.55,-96.21 43.97,-105.76 50.93,-106.53"/>
<text text-anchor="middle" x="95" y="-136.8" font-family="Cascadia Code PL" font-size="9.00" fill="#aaaaaa"> &#160;Toggle grid</text>
<text text-anchor="middle" x="95" y="-126.8" font-family="Cascadia Code PL" font-size="9.00" fill="#aaaaaa"> &#160;View → Grid → Show</text>
<text text-anchor="middle" x="95" y="-116.8" font-family="Cascadia Code PL" font-size="9.00" fill="#aaaaaa"> &#160;or hotkey G</text>
</g>
<!-- S_VISIBLE&#45;&gt;S_HIDDEN -->
<g id="edge2" class="edge">
<title>S_VISIBLE&#45;&gt;S_HIDDEN</title>
<path fill="none" stroke="#cc6666" stroke-dasharray="5,2" d="M118.12,-89.51C126.13,-96.51 133.22,-104.66 138,-114 145.18,-128.04 142.09,-144.02 135.51,-158.42"/>
<polygon fill="#cc6666" stroke="#cc6666" points="132.24,-157.13 130.76,-167.62 138.46,-160.34 132.24,-157.13"/>
<text text-anchor="middle" x="184.5" y="-136.8" font-family="Cascadia Code PL" font-size="9.00" fill="#aaaaaa"> &#160;Toggle grid</text>
<text text-anchor="middle" x="184.5" y="-126.8" font-family="Cascadia Code PL" font-size="9.00" fill="#aaaaaa"> &#160;View → Grid → Hide</text>
<text text-anchor="middle" x="184.5" y="-116.8" font-family="Cascadia Code PL" font-size="9.00" fill="#aaaaaa"> &#160;or hotkey G</text>
</g>
<!-- S_VISIBLE&#45;&gt;S_VISIBLE -->
<g id="edge3" class="edge">
<title>S_VISIBLE&#45;&gt;S_VISIBLE</title>
<path fill="none" stroke="#88aacc" d="M118.08,-68.71C128.63,-67.06 136,-62.82 136,-56 136,-51.63 132.98,-48.32 128.03,-46.07"/>
<polygon fill="#88aacc" stroke="#88aacc" points="128.65,-42.61 118.08,-43.29 126.77,-49.36 128.65,-42.61"/>
<text text-anchor="middle" x="184.5" y="-63.8" font-family="Cascadia Code PL" font-size="9.00" fill="#aaaaaa"> &#160;Grid settings change</text>
<text text-anchor="middle" x="184.5" y="-53.8" font-family="Cascadia Code PL" font-size="9.00" fill="#aaaaaa"> &#160;GRID_draw() re&#45;renders</text>
<text text-anchor="middle" x="184.5" y="-43.8" font-family="Cascadia Code PL" font-size="9.00" fill="#aaaaaa"> &#160;SCENE_DIRTY = TRUE</text>
</g>
<!-- SNAP_OFF -->
<g id="node4" class="node">
<title>SNAP_OFF</title>
<polygon fill="none" stroke="white" points="441.5,-372 294.5,-372 294.5,-304 441.5,-304 441.5,-372"/>
<text text-anchor="middle" x="368" y="-359.2" font-family="Cascadia Code PL" font-size="11.00" fill="cyan">Snap OFF</text>
<text text-anchor="middle" x="368" y="-347.2" font-family="Cascadia Code PL" font-size="11.00" fill="cyan">─────────────────</text>
<text text-anchor="middle" x="368" y="-335.2" font-family="Cascadia Code PL" font-size="11.00" fill="cyan">GRID.SNAP = FALSE</text>
<text text-anchor="middle" x="368" y="-323.2" font-family="Cascadia Code PL" font-size="11.00" fill="cyan">Mouse coords unmodified</text>
<text text-anchor="middle" x="368" y="-311.2" font-family="Cascadia Code PL" font-size="11.00" fill="cyan">Pixel&#45;precise placement</text>
</g>
<!-- SNAP_CORNER -->
<g id="node5" class="node">
<title>SNAP_CORNER</title>
<polygon fill="none" stroke="white" points="393,-242 259,-242 259,-162 393,-162 393,-242"/>
<text text-anchor="middle" x="326" y="-229.2" font-family="Cascadia Code PL" font-size="11.00" fill="cyan">Snap to Corner</text>
<text text-anchor="middle" x="326" y="-217.2" font-family="Cascadia Code PL" font-size="11.00" fill="cyan">─────────────────</text>
<text text-anchor="middle" x="326" y="-205.2" font-family="Cascadia Code PL" font-size="11.00" fill="cyan">GRID.SNAP = TRUE</text>
<text text-anchor="middle" x="326" y="-193.2" font-family="Cascadia Code PL" font-size="11.00" fill="cyan">SNAP_MODE = CORNER</text>
<text text-anchor="middle" x="326" y="-181.2" font-family="Cascadia Code PL" font-size="11.00" fill="cyan">Coords snap to</text>
<text text-anchor="middle" x="326" y="-169.2" font-family="Cascadia Code PL" font-size="11.00" fill="cyan">grid intersections</text>
</g>
<!-- SNAP_OFF&#45;&gt;SNAP_CORNER -->
<g id="edge5" class="edge">
<title>SNAP_OFF&#45;&gt;SNAP_CORNER</title>
<path fill="none" stroke="#66cc66" d="M304.73,-303.9C296.8,-297.07 289.8,-289.13 285,-280 280.08,-270.66 280.88,-260.69 284.65,-251.14"/>
<polygon fill="#66cc66" stroke="#66cc66" points="287.81,-252.65 289.09,-242.13 281.53,-249.56 287.81,-252.65"/>
<text text-anchor="middle" x="315.5" y="-272.8" font-family="Cascadia Code PL" font-size="9.00" fill="#aaaaaa"> &#160;Enable snap</text>
<text text-anchor="middle" x="315.5" y="-262.8" font-family="Cascadia Code PL" font-size="9.00" fill="#aaaaaa"> &#160;Toggle hotkey</text>
</g>
<!-- SNAP_CORNER&#45;&gt;SNAP_OFF -->
<g id="edge8" class="edge">
<title>SNAP_CORNER&#45;&gt;SNAP_OFF</title>
<path fill="none" stroke="#cc6666" stroke-dasharray="5,2" d="M340.08,-242.15C342.12,-248.11 344.16,-254.2 346,-260 349.48,-270.96 353.01,-282.87 356.19,-293.97"/>
<polygon fill="#cc6666" stroke="#cc6666" points="352.91,-295.23 359.01,-303.9 359.65,-293.32 352.91,-295.23"/>
<text text-anchor="middle" x="378.5" y="-267.8" font-family="Cascadia Code PL" font-size="9.00" fill="#aaaaaa"> &#160;Disable snap</text>
</g>
<!-- SNAP_CENTER -->
<g id="node6" class="node">
<title>SNAP_CENTER</title>
<polygon fill="none" stroke="white" points="452.5,-96 321.5,-96 321.5,-16 452.5,-16 452.5,-96"/>
<text text-anchor="middle" x="387" y="-83.2" font-family="Cascadia Code PL" font-size="11.00" fill="cyan">Snap to Center</text>
<text text-anchor="middle" x="387" y="-71.2" font-family="Cascadia Code PL" font-size="11.00" fill="cyan">─────────────────</text>
<text text-anchor="middle" x="387" y="-59.2" font-family="Cascadia Code PL" font-size="11.00" fill="cyan">GRID.SNAP = TRUE</text>
<text text-anchor="middle" x="387" y="-47.2" font-family="Cascadia Code PL" font-size="11.00" fill="cyan">SNAP_MODE = CENTER</text>
<text text-anchor="middle" x="387" y="-35.2" font-family="Cascadia Code PL" font-size="11.00" fill="cyan">Coords snap to</text>
<text text-anchor="middle" x="387" y="-23.2" font-family="Cascadia Code PL" font-size="11.00" fill="cyan">grid cell centers</text>
</g>
<!-- SNAP_CORNER&#45;&gt;SNAP_CENTER -->
<g id="edge6" class="edge">
<title>SNAP_CORNER&#45;&gt;SNAP_CENTER</title>
<path fill="none" stroke="#6699ff" d="M335.41,-161.67C339.65,-146.46 345.24,-129.11 352,-114 353.33,-111.03 354.78,-108.03 356.32,-105.04"/>
<polygon fill="#6699ff" stroke="#6699ff" points="359.46,-106.6 361.15,-96.14 353.31,-103.26 359.46,-106.6"/>
<text text-anchor="middle" x="388" y="-131.8" font-family="Cascadia Code PL" font-size="9.00" fill="#aaaaaa"> &#160;Cycle snap mode</text>
<text text-anchor="middle" x="388" y="-121.8" font-family="Cascadia Code PL" font-size="9.00" fill="#aaaaaa"> &#160;Shift+toggle</text>
</g>
<!-- SNAP_CENTER&#45;&gt;SNAP_OFF -->
<g id="edge7" class="edge">
<title>SNAP_CENTER&#45;&gt;SNAP_OFF</title>
<path fill="none" stroke="#cc6666" stroke-dasharray="5,2" d="M416.38,-96.05C419.5,-101.82 422.19,-107.89 424,-114 427.79,-126.78 424.68,-130.68 424,-144 420.88,-204.68 431.91,-223.32 410,-280 408.01,-285.16 405.42,-290.27 402.5,-295.18"/>
<polygon fill="#cc6666" stroke="#cc6666" points="399.43,-293.48 396.96,-303.78 405.31,-297.27 399.43,-293.48"/>
<text text-anchor="middle" x="454.5" y="-204.8" font-family="Cascadia Code PL" font-size="9.00" fill="#aaaaaa"> &#160;Disable snap</text>
<text text-anchor="middle" x="454.5" y="-194.8" font-family="Cascadia Code PL" font-size="9.00" fill="#aaaaaa"> &#160;Toggle hotkey</text>
</g>
<!-- MODE_LINES -->
<g id="node7" class="node">
<title>MODE_LINES</title>
<polygon fill="none" stroke="white" points="683,-372 549,-372 549,-304 683,-304 683,-372"/>
<text text-anchor="middle" x="616" y="-359.2" font-family="Cascadia Code PL" font-size="11.00" fill="cyan">Line Grid</text>
<text text-anchor="middle" x="616" y="-347.2" font-family="Cascadia Code PL" font-size="11.00" fill="cyan">─────────────────</text>
<text text-anchor="middle" x="616" y="-335.2" font-family="Cascadia Code PL" font-size="11.00" fill="cyan">Standard grid lines</text>
<text text-anchor="middle" x="616" y="-323.2" font-family="Cascadia Code PL" font-size="11.00" fill="cyan">CELL_W × CELL_H pixels</text>
<text text-anchor="middle" x="616" y="-311.2" font-family="Cascadia Code PL" font-size="11.00" fill="cyan">Configurable size</text>
</g>
<!-- MODE_DOTS -->
<g id="node8" class="node">
<title>MODE_DOTS</title>
<polygon fill="none" stroke="white" points="632,-236 514,-236 514,-168 632,-168 632,-236"/>
<text text-anchor="middle" x="573" y="-223.2" font-family="Cascadia Code PL" font-size="11.00" fill="cyan">Dot Grid</text>
<text text-anchor="middle" x="573" y="-211.2" font-family="Cascadia Code PL" font-size="11.00" fill="cyan">─────────────────</text>
<text text-anchor="middle" x="573" y="-199.2" font-family="Cascadia Code PL" font-size="11.00" fill="cyan">Dots at intersections</text>
<text text-anchor="middle" x="573" y="-187.2" font-family="Cascadia Code PL" font-size="11.00" fill="cyan">Lighter visual weight</text>
<text text-anchor="middle" x="573" y="-175.2" font-family="Cascadia Code PL" font-size="11.00" fill="cyan">Less obstructive</text>
</g>
<!-- MODE_LINES&#45;&gt;MODE_DOTS -->
<g id="edge9" class="edge">
<title>MODE_LINES&#45;&gt;MODE_DOTS</title>
<path fill="none" stroke="#6699ff" d="M605.37,-303.88C599.74,-286.32 592.75,-264.55 586.71,-245.74"/>
<polygon fill="#6699ff" stroke="#6699ff" points="590.04,-244.66 583.66,-236.21 583.38,-246.8 590.04,-244.66"/>
<text text-anchor="middle" x="622.5" y="-267.8" font-family="Cascadia Code PL" font-size="9.00" fill="#aaaaaa"> &#160;Cycle mode</text>
</g>
<!-- MODE_DASHES -->
<g id="node9" class="node">
<title>MODE_DASHES</title>
<polygon fill="none" stroke="white" points="691,-84 585,-84 585,-28 691,-28 691,-84"/>
<text text-anchor="middle" x="638" y="-71.2" font-family="Cascadia Code PL" font-size="11.00" fill="cyan">Dashed Grid</text>
<text text-anchor="middle" x="638" y="-59.2" font-family="Cascadia Code PL" font-size="11.00" fill="cyan">─────────────────</text>
<text text-anchor="middle" x="638" y="-47.2" font-family="Cascadia Code PL" font-size="11.00" fill="cyan">Dashed line grid</text>
<text text-anchor="middle" x="638" y="-35.2" font-family="Cascadia Code PL" font-size="11.00" fill="cyan">Hybrid visibility</text>
</g>
<!-- MODE_DOTS&#45;&gt;MODE_DASHES -->
<g id="edge10" class="edge">
<title>MODE_DOTS&#45;&gt;MODE_DASHES</title>
<path fill="none" stroke="#6699ff" d="M587.76,-167.93C595.04,-151.67 603.95,-131.8 612,-114 615.02,-107.32 618.25,-100.21 621.37,-93.36"/>
<polygon fill="#6699ff" stroke="#6699ff" points="624.57,-94.79 625.53,-84.24 618.2,-91.88 624.57,-94.79"/>
<text text-anchor="middle" x="637.5" y="-126.8" font-family="Cascadia Code PL" font-size="9.00" fill="#aaaaaa"> &#160;Cycle mode</text>
</g>
<!-- MODE_DASHES&#45;&gt;MODE_LINES -->
<g id="edge11" class="edge">
<title>MODE_DASHES&#45;&gt;MODE_LINES</title>
<path fill="none" stroke="#6699ff" d="M652.6,-84.07C656.82,-93.29 660.87,-103.85 663,-114 678.17,-186.37 675.4,-209.86 652,-280 650.29,-285.13 648.02,-290.28 645.45,-295.25"/>
<polygon fill="#6699ff" stroke="#6699ff" points="642.39,-293.56 640.56,-303.99 648.5,-296.97 642.39,-293.56"/>
<text text-anchor="middle" x="697.5" y="-199.8" font-family="Cascadia Code PL" font-size="9.00" fill="#aaaaaa"> &#160;Cycle mode</text>
</g>
<!-- CF_OFF -->
<g id="node10" class="node">
<title>CF_OFF</title>
<polygon fill="none" stroke="white" points="899,-366 763,-366 763,-310 899,-310 899,-366"/>
<text text-anchor="middle" x="831" y="-353.2" font-family="Cascadia Code PL" font-size="11.00" fill="cyan">Cell Fill OFF</text>
<text text-anchor="middle" x="831" y="-341.2" font-family="Cascadia Code PL" font-size="11.00" fill="cyan">─────────────────</text>
<text text-anchor="middle" x="831" y="-329.2" font-family="Cascadia Code PL" font-size="11.00" fill="cyan">Normal pixel painting</text>
<text text-anchor="middle" x="831" y="-317.2" font-family="Cascadia Code PL" font-size="11.00" fill="cyan">No cell&#45;wide operations</text>
</g>
<!-- CF_ON -->
<g id="node11" class="node">
<title>CF_ON</title>
<polygon fill="none" stroke="white" points="896.5,-236 765.5,-236 765.5,-168 896.5,-168 896.5,-236"/>
<text text-anchor="middle" x="831" y="-223.2" font-family="Cascadia Code PL" font-size="11.00" fill="cyan">Cell Fill ON</text>
<text text-anchor="middle" x="831" y="-211.2" font-family="Cascadia Code PL" font-size="11.00" fill="cyan">─────────────────</text>
<text text-anchor="middle" x="831" y="-199.2" font-family="Cascadia Code PL" font-size="11.00" fill="cyan">Click fills entire</text>
<text text-anchor="middle" x="831" y="-187.2" font-family="Cascadia Code PL" font-size="11.00" fill="cyan">grid cell with color</text>
<text text-anchor="middle" x="831" y="-175.2" font-family="Cascadia Code PL" font-size="11.00" fill="cyan">Fast tile&#45;based painting</text>
</g>
<!-- CF_OFF&#45;&gt;CF_ON -->
<g id="edge12" class="edge">
<title>CF_OFF&#45;&gt;CF_ON</title>
<path fill="none" stroke="#66cc66" d="M783.26,-309.65C766.23,-296.11 753.2,-278.67 762,-260 764.74,-254.19 768.39,-248.77 772.59,-243.76"/>
<polygon fill="#66cc66" stroke="#66cc66" points="775.34,-245.95 779.59,-236.24 770.22,-241.18 775.34,-245.95"/>
<text text-anchor="middle" x="799.5" y="-272.8" font-family="Cascadia Code PL" font-size="9.00" fill="#aaaaaa"> &#160;Enable cell fill</text>
<text text-anchor="middle" x="799.5" y="-262.8" font-family="Cascadia Code PL" font-size="9.00" fill="#aaaaaa"> &#160;Grid menu option</text>
</g>
<!-- CF_ON&#45;&gt;CF_OFF -->
<g id="edge13" class="edge">
<title>CF_ON&#45;&gt;CF_OFF</title>
<path fill="none" stroke="#cc6666" stroke-dasharray="5,2" d="M835.5,-236.33C836.83,-249.87 837.75,-265.67 837,-280 836.66,-286.39 836.12,-293.17 835.49,-299.73"/>
<polygon fill="#cc6666" stroke="#cc6666" points="832,-299.49 834.45,-309.79 838.96,-300.2 832,-299.49"/>
<text text-anchor="middle" x="867.5" y="-267.8" font-family="Cascadia Code PL" font-size="9.00" fill="#aaaaaa"> &#160;Disable cell fill</text>
</g>
<!-- R1 -->
<g id="node12" class="node">
<title>R1</title>
<polygon fill="none" stroke="white" points="1209.5,-378 1102.5,-378 1102.5,-298 1209.5,-298 1209.5,-378"/>
<text text-anchor="middle" x="1156" y="-365.2" font-family="Cascadia Code PL" font-size="11.00" fill="cyan">GRID_draw()</text>
<text text-anchor="middle" x="1156" y="-353.2" font-family="Cascadia Code PL" font-size="11.00" fill="cyan">─────────────────</text>
<text text-anchor="middle" x="1156" y="-341.2" font-family="Cascadia Code PL" font-size="11.00" fill="cyan">Renders into</text>
<text text-anchor="middle" x="1156" y="-329.2" font-family="Cascadia Code PL" font-size="11.00" fill="cyan">GRID.imgHandle&amp;</text>
<text text-anchor="middle" x="1156" y="-317.2" font-family="Cascadia Code PL" font-size="11.00" fill="cyan">Must be called on</text>
<text text-anchor="middle" x="1156" y="-305.2" font-family="Cascadia Code PL" font-size="11.00" fill="cyan">settings change</text>
</g>
<!-- R2 -->
<g id="node13" class="node">
<title>R2</title>
<polygon fill="none" stroke="white" points="1084,-372 944,-372 944,-304 1084,-304 1084,-372"/>
<text text-anchor="middle" x="1014" y="-359.2" font-family="Cascadia Code PL" font-size="11.00" fill="cyan">Invalidation</text>
<text text-anchor="middle" x="1014" y="-347.2" font-family="Cascadia Code PL" font-size="11.00" fill="cyan">─────────────────</text>
<text text-anchor="middle" x="1014" y="-335.2" font-family="Cascadia Code PL" font-size="11.00" fill="cyan">Set SCENE_DIRTY = TRUE</text>
<text text-anchor="middle" x="1014" y="-323.2" font-family="Cascadia Code PL" font-size="11.00" fill="cyan">Set FRAME_IDLE = FALSE</text>
<text text-anchor="middle" x="1014" y="-311.2" font-family="Cascadia Code PL" font-size="11.00" fill="cyan">After any grid change</text>
</g>
<!-- L1 -->
<g id="node14" class="node">
<title>L1</title>
<ellipse fill="white" stroke="white" cx="1475" cy="-338" rx="0.36" ry="0.36"/>
</g>
<!-- L2 -->
<g id="node15" class="node">
<title>L2</title>
<ellipse fill="white" stroke="white" cx="1475" cy="-202" rx="0.36" ry="0.36"/>
</g>
<!-- L1&#45;&gt;L2 -->
<g id="edge14" class="edge">
<title>L1&#45;&gt;L2</title>
<path fill="none" stroke="#66cc66" d="M1475,-336.9C1475,-333.55 1475,-244.22 1475,-213.37"/>
<polygon fill="#66cc66" stroke="#66cc66" points="1478.5,-213.09 1475,-203.09 1471.5,-213.09 1478.5,-213.09"/>
<text text-anchor="middle" x="1492.5" y="-267.8" font-family="Cascadia Code PL" font-size="9.00" fill="#aaaaaa"> Activate</text>
</g>
<!-- L3 -->
<g id="node16" class="node">
<title>L3</title>
<ellipse fill="white" stroke="white" cx="1408" cy="-338" rx="0.36" ry="0.36"/>
</g>
<!-- L4 -->
<g id="node17" class="node">
<title>L4</title>
<ellipse fill="white" stroke="white" cx="1408" cy="-202" rx="0.36" ry="0.36"/>
</g>
<!-- L3&#45;&gt;L4 -->
<g id="edge15" class="edge">
<title>L3&#45;&gt;L4</title>
<path fill="none" stroke="#cc6666" stroke-dasharray="5,2" d="M1408,-336.9C1408,-333.55 1408,-244.22 1408,-213.37"/>
<polygon fill="#cc6666" stroke="#cc6666" points="1411.5,-213.09 1408,-203.09 1404.5,-213.09 1411.5,-213.09"/>
<text text-anchor="middle" x="1430" y="-267.8" font-family="Cascadia Code PL" font-size="9.00" fill="#aaaaaa"> Deactivate</text>
</g>
<!-- L5 -->
<g id="node18" class="node">
<title>L5</title>
<ellipse fill="white" stroke="white" cx="1332" cy="-338" rx="0.36" ry="0.36"/>
</g>
<!-- L6 -->
<g id="node19" class="node">
<title>L6</title>
<ellipse fill="white" stroke="white" cx="1332" cy="-202" rx="0.36" ry="0.36"/>
</g>
<!-- L5&#45;&gt;L6 -->
<g id="edge16" class="edge">
<title>L5&#45;&gt;L6</title>
<path fill="none" stroke="#6699ff" d="M1332,-336.9C1332,-333.55 1332,-244.22 1332,-213.37"/>
<polygon fill="#6699ff" stroke="#6699ff" points="1335.5,-213.09 1332,-203.09 1328.5,-213.09 1335.5,-213.09"/>
<text text-anchor="middle" x="1358.5" y="-267.8" font-family="Cascadia Code PL" font-size="9.00" fill="#aaaaaa"> Mode switch</text>
</g>
<!-- L7 -->
<g id="node20" class="node">
<title>L7</title>
<ellipse fill="white" stroke="white" cx="1251" cy="-338" rx="0.36" ry="0.36"/>
</g>
<!-- L8 -->
<g id="node21" class="node">
<title>L8</title>
<ellipse fill="white" stroke="white" cx="1251" cy="-202" rx="0.36" ry="0.36"/>
</g>
<!-- L7&#45;&gt;L8 -->
<g id="edge17" class="edge">
<title>L7&#45;&gt;L8</title>
<path fill="none" stroke="#88aacc" d="M1251,-336.9C1251,-333.55 1251,-244.22 1251,-213.37"/>
<polygon fill="#88aacc" stroke="#88aacc" points="1254.5,-213.09 1251,-203.09 1247.5,-213.09 1254.5,-213.09"/>
<text text-anchor="middle" x="1280" y="-267.8" font-family="Cascadia Code PL" font-size="9.00" fill="#aaaaaa"> Self&#45;transition</text>
</g>
</g>
</svg>
