<?xml version="1.0" encoding="UTF-8" standalone="no"?>
<!DOCTYPE svg PUBLIC "-//W3C//DTD SVG 1.1//EN"
 "http://www.w3.org/Graphics/SVG/1.1/DTD/svg11.dtd">
<!-- Generated by graphviz version 2.42.4 (0)
 -->
<!-- Title: PATTERN_TILE_STATES Pages: 1 -->
<svg width="1074pt" height="542pt"
 viewBox="0.00 0.00 1073.62 542.00" xmlns="http://www.w3.org/2000/svg" xmlns:xlink="http://www.w3.org/1999/xlink">
<g id="graph0" class="graph" transform="scale(1 1) rotate(0) translate(4 538)">
<title>PATTERN_TILE_STATES</title>
<text text-anchor="middle" x="532.81" y="-510.8" font-family="Cascadia Code PL" font-size="24.00" fill="white">PATTERN TILE MODE STATE MACHINE</text>
<g id="clust3" class="cluster">
<title>cluster_tiling</title>
<polygon fill="transparent" stroke="orange" stroke-dasharray="5,2" points="176.62,-388 176.62,-492 634.62,-492 634.62,-388 176.62,-388"/>
<text text-anchor="middle" x="225.62" y="-479.2" font-family="Cascadia Code PL" font-size="11.00" fill="white">TILE RENDERING</text>
</g>
<g id="clust4" class="cluster">
<title>cluster_fill_adj</title>
<polygon fill="transparent" stroke="orange" stroke-dasharray="5,2" points="642.62,-134 642.62,-492 837.62,-492 837.62,-134 642.62,-134"/>
<text text-anchor="middle" x="705.12" y="-479.2" font-family="Cascadia Code PL" font-size="11.00" fill="white">FILL ADJUSTMENT (F8)</text>
</g>
<g id="clust5" class="cluster">
<title>cluster_legend</title>
<polygon fill="transparent" stroke="white" stroke-dasharray="5,2" points="845.62,-307.64 845.62,-458.36 1057.62,-458.36 1057.62,-307.64 845.62,-307.64"/>
<text text-anchor="middle" x="873.62" y="-445.56" font-family="Cascadia Code PL" font-size="11.00" fill="white">LEGEND</text>
</g>
<!-- MAIN -->
<g id="node1" class="node">
<title>MAIN</title>
<polygon fill="none" stroke="orange" stroke-width="2" points="167.12,-448 164.12,-452 143.12,-452 140.12,-448 86.12,-448 86.12,-412 167.12,-412 167.12,-448"/>
<text text-anchor="middle" x="126.62" y="-433.6" font-family="Cascadia Code PL" font-size="13.00" fill="orange">PATTERN</text>
<text text-anchor="middle" x="126.62" y="-419.6" font-family="Cascadia Code PL" font-size="13.00" fill="orange">TILE MODE</text>
</g>
<!-- S_OFF -->
<g id="node2" class="node">
<title>S_OFF</title>
<polygon fill="none" stroke="white" points="190.12,-350 63.12,-350 63.12,-282 190.12,-282 190.12,-350"/>
<text text-anchor="middle" x="126.62" y="-337.2" font-family="Cascadia Code PL" font-size="11.00" fill="cyan">1 · OFF</text>
<text text-anchor="middle" x="126.62" y="-325.2" font-family="Cascadia Code PL" font-size="11.00" fill="cyan">─────────────────</text>
<text text-anchor="middle" x="126.62" y="-313.2" font-family="Cascadia Code PL" font-size="11.00" fill="cyan">Drawing Mode: Color</text>
<text text-anchor="middle" x="126.62" y="-301.2" font-family="Cascadia Code PL" font-size="11.00" fill="cyan">Normal brush painting</text>
<text text-anchor="middle" x="126.62" y="-289.2" font-family="Cascadia Code PL" font-size="11.00" fill="cyan">Solid FG/BG colors</text>
</g>
<!-- MAIN&#45;&gt;S_OFF -->
<g id="edge7" class="edge">
<title>MAIN&#45;&gt;S_OFF</title>
<path fill="none" stroke="#555555" stroke-dasharray="1,5" d="M126.62,-411.99C126.62,-395.71 126.62,-370.71 126.62,-350.44"/>
</g>
<!-- S_PATTERN -->
<g id="node3" class="node">
<title>S_PATTERN</title>
<polygon fill="none" stroke="white" points="248.12,-216 119.12,-216 119.12,-136 248.12,-136 248.12,-216"/>
<text text-anchor="middle" x="183.62" y="-203.2" font-family="Cascadia Code PL" font-size="11.00" fill="cyan">2 · PATTERN MODE</text>
<text text-anchor="middle" x="183.62" y="-191.2" font-family="Cascadia Code PL" font-size="11.00" fill="cyan">─────────────────</text>
<text text-anchor="middle" x="183.62" y="-179.2" font-family="Cascadia Code PL" font-size="11.00" fill="cyan">Drawing Mode: Pattern</text>
<text text-anchor="middle" x="183.62" y="-167.2" font-family="Cascadia Code PL" font-size="11.00" fill="cyan">Pattern bin slot active</text>
<text text-anchor="middle" x="183.62" y="-155.2" font-family="Cascadia Code PL" font-size="11.00" fill="cyan">Brush fills with tile</text>
<text text-anchor="middle" x="183.62" y="-143.2" font-family="Cascadia Code PL" font-size="11.00" fill="cyan">from selected slot</text>
</g>
<!-- S_OFF&#45;&gt;S_PATTERN -->
<g id="edge1" class="edge">
<title>S_OFF&#45;&gt;S_PATTERN</title>
<path fill="none" stroke="#66cc66" d="M81.04,-281.84C66.94,-267.46 57.47,-250.22 67.62,-234 77.32,-218.5 88.2,-224.05 104.62,-216 106.37,-215.14 108.15,-214.27 109.93,-213.39"/>
<polygon fill="#66cc66" stroke="#66cc66" points="111.54,-216.51 118.97,-208.96 108.45,-210.22 111.54,-216.51"/>
<text text-anchor="middle" x="116.62" y="-256.8" font-family="Cascadia Code PL" font-size="9.00" fill="#aaaaaa"> &#160;Select Pattern bin</text>
<text text-anchor="middle" x="116.62" y="-246.8" font-family="Cascadia Code PL" font-size="9.00" fill="#aaaaaa"> &#160;in Drawer panel</text>
<text text-anchor="middle" x="116.62" y="-236.8" font-family="Cascadia Code PL" font-size="9.00" fill="#aaaaaa"> &#160;Drawing mode changes</text>
</g>
<!-- S_GRADIENT -->
<g id="node4" class="node">
<title>S_GRADIENT</title>
<polygon fill="none" stroke="white" points="209.12,-80 72.12,-80 72.12,0 209.12,0 209.12,-80"/>
<text text-anchor="middle" x="140.62" y="-67.2" font-family="Cascadia Code PL" font-size="11.00" fill="cyan">3 · GRADIENT MODE</text>
<text text-anchor="middle" x="140.62" y="-55.2" font-family="Cascadia Code PL" font-size="11.00" fill="cyan">─────────────────</text>
<text text-anchor="middle" x="140.62" y="-43.2" font-family="Cascadia Code PL" font-size="11.00" fill="cyan">Drawing Mode: Gradient</text>
<text text-anchor="middle" x="140.62" y="-31.2" font-family="Cascadia Code PL" font-size="11.00" fill="cyan">Gradient bin slot active</text>
<text text-anchor="middle" x="140.62" y="-19.2" font-family="Cascadia Code PL" font-size="11.00" fill="cyan">Fills use gradient</text>
<text text-anchor="middle" x="140.62" y="-7.2" font-family="Cascadia Code PL" font-size="11.00" fill="cyan">from selected slot</text>
</g>
<!-- S_OFF&#45;&gt;S_GRADIENT -->
<g id="edge2" class="edge">
<title>S_OFF&#45;&gt;S_GRADIENT</title>
<path fill="none" stroke="#66cc66" d="M68.81,-281.92C46.13,-265.42 22.86,-243.14 11.62,-216 -2.32,-182.33 -4.98,-166.44 11.62,-134 23.12,-111.54 42.85,-93.26 63.48,-79.04"/>
<polygon fill="#66cc66" stroke="#66cc66" points="65.61,-81.82 72.03,-73.39 61.76,-75.98 65.61,-81.82"/>
<text text-anchor="middle" x="60.62" y="-183.8" font-family="Cascadia Code PL" font-size="9.00" fill="#aaaaaa"> &#160;Select Gradient bin</text>
<text text-anchor="middle" x="60.62" y="-173.8" font-family="Cascadia Code PL" font-size="9.00" fill="#aaaaaa"> &#160;in Drawer panel</text>
<text text-anchor="middle" x="60.62" y="-163.8" font-family="Cascadia Code PL" font-size="9.00" fill="#aaaaaa"> &#160;Drawing mode changes</text>
</g>
<!-- S_PATTERN&#45;&gt;S_OFF -->
<g id="edge3" class="edge">
<title>S_PATTERN&#45;&gt;S_OFF</title>
<path fill="none" stroke="#cc6666" stroke-dasharray="5,2" d="M179.32,-216.29C176.67,-231.66 172.42,-249.13 165.62,-264 164.19,-267.14 162.53,-270.26 160.73,-273.33"/>
<polygon fill="#cc6666" stroke="#cc6666" points="157.76,-271.48 155.31,-281.79 163.65,-275.25 157.76,-271.48"/>
<text text-anchor="middle" x="214.62" y="-256.8" font-family="Cascadia Code PL" font-size="9.00" fill="#aaaaaa"> &#160;Select Color bin</text>
<text text-anchor="middle" x="214.62" y="-246.8" font-family="Cascadia Code PL" font-size="9.00" fill="#aaaaaa"> &#160;in Drawer panel</text>
<text text-anchor="middle" x="214.62" y="-236.8" font-family="Cascadia Code PL" font-size="9.00" fill="#aaaaaa"> &#160;Back to solid color</text>
</g>
<!-- S_PATTERN&#45;&gt;S_GRADIENT -->
<g id="edge5" class="edge">
<title>S_PATTERN&#45;&gt;S_GRADIENT</title>
<path fill="none" stroke="#6699ff" d="M118.86,-146.2C108.34,-138.58 98.85,-129.25 92.62,-118 87.36,-108.5 88.42,-98.52 92.77,-89.03"/>
<polygon fill="#6699ff" stroke="#6699ff" points="95.95,-90.52 97.85,-80.1 89.86,-87.06 95.95,-90.52"/>
<text text-anchor="middle" x="130.62" y="-110.8" font-family="Cascadia Code PL" font-size="9.00" fill="#aaaaaa"> &#160;Switch to gradient</text>
<text text-anchor="middle" x="130.62" y="-100.8" font-family="Cascadia Code PL" font-size="9.00" fill="#aaaaaa"> &#160;bin in Drawer</text>
</g>
<!-- S_GRADIENT&#45;&gt;S_OFF -->
<g id="edge4" class="edge">
<title>S_GRADIENT&#45;&gt;S_OFF</title>
<path fill="none" stroke="#cc6666" stroke-dasharray="5,2" d="M209.33,-65.4C224.51,-73.65 239.17,-84.35 249.62,-98 294.55,-156.63 299.32,-203.03 257.62,-264 244.3,-283.48 222.36,-295.52 200.2,-302.96"/>
<polygon fill="#cc6666" stroke="#cc6666" points="198.91,-299.7 190.38,-305.97 200.96,-306.39 198.91,-299.7"/>
<text text-anchor="middle" x="324.62" y="-183.8" font-family="Cascadia Code PL" font-size="9.00" fill="#aaaaaa"> &#160;Select Color bin</text>
<text text-anchor="middle" x="324.62" y="-173.8" font-family="Cascadia Code PL" font-size="9.00" fill="#aaaaaa"> &#160;in Drawer panel</text>
<text text-anchor="middle" x="324.62" y="-163.8" font-family="Cascadia Code PL" font-size="9.00" fill="#aaaaaa"> &#160;Back to solid color</text>
</g>
<!-- S_GRADIENT&#45;&gt;S_PATTERN -->
<g id="edge6" class="edge">
<title>S_GRADIENT&#45;&gt;S_PATTERN</title>
<path fill="none" stroke="#6699ff" d="M161.59,-80.3C164.21,-86.13 166.65,-92.15 168.62,-98 171.59,-106.82 174.04,-116.41 176.04,-125.74"/>
<polygon fill="#6699ff" stroke="#6699ff" points="172.64,-126.59 178.04,-135.7 179.5,-125.21 172.64,-126.59"/>
<text text-anchor="middle" x="209.62" y="-110.8" font-family="Cascadia Code PL" font-size="9.00" fill="#aaaaaa"> &#160;Switch to pattern</text>
<text text-anchor="middle" x="209.62" y="-100.8" font-family="Cascadia Code PL" font-size="9.00" fill="#aaaaaa"> &#160;bin in Drawer</text>
</g>
<!-- T1 -->
<g id="node5" class="node">
<title>T1</title>
<polygon fill="none" stroke="white" points="626.12,-464 483.12,-464 483.12,-396 626.12,-396 626.12,-464"/>
<text text-anchor="middle" x="554.62" y="-451.2" font-family="Cascadia Code PL" font-size="11.00" fill="cyan">Tile Origin</text>
<text text-anchor="middle" x="554.62" y="-439.2" font-family="Cascadia Code PL" font-size="11.00" fill="cyan">─────────────────</text>
<text text-anchor="middle" x="554.62" y="-427.2" font-family="Cascadia Code PL" font-size="11.00" fill="cyan">FILL_ADJ.ORIGIN_X/Y</text>
<text text-anchor="middle" x="554.62" y="-415.2" font-family="Cascadia Code PL" font-size="11.00" fill="cyan">Offset for tile placement</text>
<text text-anchor="middle" x="554.62" y="-403.2" font-family="Cascadia Code PL" font-size="11.00" fill="cyan">Adjustable via Fill&#45;Adj (F8)</text>
</g>
<!-- T2 -->
<g id="node6" class="node">
<title>T2</title>
<polygon fill="none" stroke="white" points="465.12,-464 328.12,-464 328.12,-396 465.12,-396 465.12,-464"/>
<text text-anchor="middle" x="396.62" y="-451.2" font-family="Cascadia Code PL" font-size="11.00" fill="cyan">Tile Scale</text>
<text text-anchor="middle" x="396.62" y="-439.2" font-family="Cascadia Code PL" font-size="11.00" fill="cyan">─────────────────</text>
<text text-anchor="middle" x="396.62" y="-427.2" font-family="Cascadia Code PL" font-size="11.00" fill="cyan">FILL_ADJ.TILE_W/H</text>
<text text-anchor="middle" x="396.62" y="-415.2" font-family="Cascadia Code PL" font-size="11.00" fill="cyan">Independent X/Y scaling</text>
<text text-anchor="middle" x="396.62" y="-403.2" font-family="Cascadia Code PL" font-size="11.00" fill="cyan">Adjustable via L&#45;handle</text>
</g>
<!-- T3 -->
<g id="node7" class="node">
<title>T3</title>
<polygon fill="none" stroke="white" points="310.12,-464 185.12,-464 185.12,-396 310.12,-396 310.12,-464"/>
<text text-anchor="middle" x="247.62" y="-451.2" font-family="Cascadia Code PL" font-size="11.00" fill="cyan">Tile Application</text>
<text text-anchor="middle" x="247.62" y="-439.2" font-family="Cascadia Code PL" font-size="11.00" fill="cyan">─────────────────</text>
<text text-anchor="middle" x="247.62" y="-427.2" font-family="Cascadia Code PL" font-size="11.00" fill="cyan">Pattern/gradient slot</text>
<text text-anchor="middle" x="247.62" y="-415.2" font-family="Cascadia Code PL" font-size="11.00" fill="cyan">image tiled into fill</text>
<text text-anchor="middle" x="247.62" y="-403.2" font-family="Cascadia Code PL" font-size="11.00" fill="cyan">or brush stroke region</text>
</g>
<!-- F_OFF -->
<g id="node8" class="node">
<title>F_OFF</title>
<polygon fill="none" stroke="white" points="798.62,-464 652.62,-464 652.62,-396 798.62,-396 798.62,-464"/>
<text text-anchor="middle" x="725.62" y="-451.2" font-family="Cascadia Code PL" font-size="11.00" fill="cyan">Fill&#45;Adj OFF</text>
<text text-anchor="middle" x="725.62" y="-439.2" font-family="Cascadia Code PL" font-size="11.00" fill="cyan">─────────────────</text>
<text text-anchor="middle" x="725.62" y="-427.2" font-family="Cascadia Code PL" font-size="11.00" fill="cyan">FILL_ADJ.ENABLED = FALSE</text>
<text text-anchor="middle" x="725.62" y="-415.2" font-family="Cascadia Code PL" font-size="11.00" fill="cyan">Immediate fill/brush</text>
<text text-anchor="middle" x="725.62" y="-403.2" font-family="Cascadia Code PL" font-size="11.00" fill="cyan">No overlay</text>
</g>
<!-- F_ON -->
<g id="node9" class="node">
<title>F_ON</title>
<polygon fill="none" stroke="white" points="810.12,-350 667.12,-350 667.12,-282 810.12,-282 810.12,-350"/>
<text text-anchor="middle" x="738.62" y="-337.2" font-family="Cascadia Code PL" font-size="11.00" fill="cyan">Fill&#45;Adj ON</text>
<text text-anchor="middle" x="738.62" y="-325.2" font-family="Cascadia Code PL" font-size="11.00" fill="cyan">─────────────────</text>
<text text-anchor="middle" x="738.62" y="-313.2" font-family="Cascadia Code PL" font-size="11.00" fill="cyan">FILL_ADJ.ENABLED = TRUE</text>
<text text-anchor="middle" x="738.62" y="-301.2" font-family="Cascadia Code PL" font-size="11.00" fill="cyan">After fill: enter adj mode</text>
<text text-anchor="middle" x="738.62" y="-289.2" font-family="Cascadia Code PL" font-size="11.00" fill="cyan">L&#45;handle for origin+scale</text>
</g>
<!-- F_OFF&#45;&gt;F_ON -->
<g id="edge8" class="edge">
<title>F_OFF&#45;&gt;F_ON</title>
<path fill="none" stroke="#66cc66" d="M699.44,-395.95C695.28,-387.03 693.3,-377.27 696.62,-368 697.75,-364.87 699.15,-361.79 700.77,-358.8"/>
<polygon fill="#66cc66" stroke="#66cc66" points="703.87,-360.44 706.15,-350.09 697.91,-356.76 703.87,-360.44"/>
<text text-anchor="middle" x="715.12" y="-370.8" font-family="Cascadia Code PL" font-size="9.00" fill="#aaaaaa"> &#160;Press F8</text>
</g>
<!-- F_ON&#45;&gt;F_OFF -->
<g id="edge9" class="edge">
<title>F_ON&#45;&gt;F_OFF</title>
<path fill="none" stroke="#cc6666" stroke-dasharray="5,2" d="M736.34,-350.29C735.6,-359.29 734.69,-369.03 733.62,-378 733.32,-380.53 732.99,-383.13 732.63,-385.75"/>
<polygon fill="#cc6666" stroke="#cc6666" points="729.14,-385.46 731.19,-395.85 736.07,-386.45 729.14,-385.46"/>
<text text-anchor="middle" x="753.12" y="-370.8" font-family="Cascadia Code PL" font-size="9.00" fill="#aaaaaa"> &#160;Press F8</text>
</g>
<!-- F_ACTIVE -->
<g id="node10" class="node">
<title>F_ACTIVE</title>
<polygon fill="none" stroke="white" points="806.62,-210 672.62,-210 672.62,-142 806.62,-142 806.62,-210"/>
<text text-anchor="middle" x="739.62" y="-197.2" font-family="Cascadia Code PL" font-size="11.00" fill="cyan">Adjusting</text>
<text text-anchor="middle" x="739.62" y="-185.2" font-family="Cascadia Code PL" font-size="11.00" fill="cyan">─────────────────</text>
<text text-anchor="middle" x="739.62" y="-173.2" font-family="Cascadia Code PL" font-size="11.00" fill="cyan">FILL_ADJ.ACTIVE = TRUE</text>
<text text-anchor="middle" x="739.62" y="-161.2" font-family="Cascadia Code PL" font-size="11.00" fill="cyan">Drag origin, scale X/Y</text>
<text text-anchor="middle" x="739.62" y="-149.2" font-family="Cascadia Code PL" font-size="11.00" fill="cyan">Live preview updates</text>
</g>
<!-- F_ON&#45;&gt;F_ACTIVE -->
<g id="edge10" class="edge">
<title>F_ON&#45;&gt;F_ACTIVE</title>
<path fill="none" stroke="#cccc66" d="M683.01,-281.99C677.65,-276.65 672.98,-270.65 669.62,-264 663.62,-252.1 663.9,-246.04 669.62,-234 672.4,-228.15 676.11,-222.7 680.38,-217.68"/>
<polygon fill="#cccc66" stroke="#cccc66" points="683.17,-219.82 687.48,-210.14 678.08,-215.02 683.17,-219.82"/>
<text text-anchor="middle" x="705.62" y="-251.8" font-family="Cascadia Code PL" font-size="9.00" fill="#aaaaaa"> &#160;Fill/brush release</text>
<text text-anchor="middle" x="705.62" y="-241.8" font-family="Cascadia Code PL" font-size="9.00" fill="#aaaaaa"> &#160;enters adj mode</text>
</g>
<!-- F_ACTIVE&#45;&gt;F_ON -->
<g id="edge11" class="edge">
<title>F_ACTIVE&#45;&gt;F_ON</title>
<path fill="none" stroke="#cccc66" d="M741.2,-210.05C741.76,-226.3 742.15,-246.18 741.62,-264 741.55,-266.52 741.45,-269.11 741.34,-271.72"/>
<polygon fill="#cccc66" stroke="#cccc66" points="737.84,-271.66 740.86,-281.82 744.84,-272 737.84,-271.66"/>
<text text-anchor="middle" x="774.62" y="-251.8" font-family="Cascadia Code PL" font-size="9.00" fill="#aaaaaa"> &#160;Enter = commit</text>
<text text-anchor="middle" x="774.62" y="-241.8" font-family="Cascadia Code PL" font-size="9.00" fill="#aaaaaa"> &#160;Esc = cancel</text>
</g>
<!-- L1 -->
<g id="node11" class="node">
<title>L1</title>
<ellipse fill="white" stroke="white" cx="1014.62" cy="-430" rx="0.36" ry="0.36"/>
</g>
<!-- L2 -->
<g id="node12" class="node">
<title>L2</title>
<ellipse fill="white" stroke="white" cx="1014.62" cy="-316" rx="0.36" ry="0.36"/>
</g>
<!-- L1&#45;&gt;L2 -->
<g id="edge12" class="edge">
<title>L1&#45;&gt;L2</title>
<path fill="none" stroke="#66cc66" d="M1014.62,-428.92C1014.62,-426.17 1014.62,-354.21 1014.62,-327.15"/>
<polygon fill="#66cc66" stroke="#66cc66" points="1018.12,-327.08 1014.62,-317.08 1011.12,-327.08 1018.12,-327.08"/>
<text text-anchor="middle" x="1032.12" y="-370.8" font-family="Cascadia Code PL" font-size="9.00" fill="#aaaaaa"> Activate</text>
</g>
<!-- L3 -->
<g id="node13" class="node">
<title>L3</title>
<ellipse fill="white" stroke="white" cx="947.62" cy="-430" rx="0.36" ry="0.36"/>
</g>
<!-- L4 -->
<g id="node14" class="node">
<title>L4</title>
<ellipse fill="white" stroke="white" cx="947.62" cy="-316" rx="0.36" ry="0.36"/>
</g>
<!-- L3&#45;&gt;L4 -->
<g id="edge13" class="edge">
<title>L3&#45;&gt;L4</title>
<path fill="none" stroke="#cc6666" stroke-dasharray="5,2" d="M947.62,-428.92C947.62,-426.17 947.62,-354.21 947.62,-327.15"/>
<polygon fill="#cc6666" stroke="#cc6666" points="951.12,-327.08 947.62,-317.08 944.12,-327.08 951.12,-327.08"/>
<text text-anchor="middle" x="969.62" y="-370.8" font-family="Cascadia Code PL" font-size="9.00" fill="#aaaaaa"> Deactivate</text>
</g>
<!-- L5 -->
<g id="node15" class="node">
<title>L5</title>
<ellipse fill="white" stroke="white" cx="871.62" cy="-430" rx="0.36" ry="0.36"/>
</g>
<!-- L6 -->
<g id="node16" class="node">
<title>L6</title>
<ellipse fill="white" stroke="white" cx="871.62" cy="-316" rx="0.36" ry="0.36"/>
</g>
<!-- L5&#45;&gt;L6 -->
<g id="edge14" class="edge">
<title>L5&#45;&gt;L6</title>
<path fill="none" stroke="#6699ff" d="M871.62,-428.92C871.62,-426.17 871.62,-354.21 871.62,-327.15"/>
<polygon fill="#6699ff" stroke="#6699ff" points="875.12,-327.08 871.62,-317.08 868.12,-327.08 875.12,-327.08"/>
<text text-anchor="middle" x="898.12" y="-370.8" font-family="Cascadia Code PL" font-size="9.00" fill="#aaaaaa"> Mode switch</text>
</g>
</g>
</svg>
