<?xml version="1.0" encoding="UTF-8" standalone="no"?>
<!DOCTYPE svg PUBLIC "-//W3C//DTD SVG 1.1//EN"
 "http://www.w3.org/Graphics/SVG/1.1/DTD/svg11.dtd">
<!-- Generated by graphviz version 2.42.4 (0)
 -->
<!-- Title: PICKER_LOUPE_STATES Pages: 1 -->
<svg width="1219pt" height="600pt"
 viewBox="0.00 0.00 1218.86 600.00" xmlns="http://www.w3.org/2000/svg" xmlns:xlink="http://www.w3.org/1999/xlink">
<g id="graph0" class="graph" transform="scale(1 1) rotate(0) translate(4 596)">
<title>PICKER_LOUPE_STATES</title>
<text text-anchor="middle" x="605.43" y="-568.8" font-family="Cascadia Code PL" font-size="24.00" fill="white">COLOR PICKER LOUPE STATE MACHINE</text>
<g id="clust3" class="cluster">
<title>cluster_display</title>
<polygon fill="transparent" stroke="orange" stroke-dasharray="5,2" points="191.86,-434 191.86,-550 665.86,-550 665.86,-434 191.86,-434"/>
<text text-anchor="middle" x="246.36" y="-537.2" font-family="Cascadia Code PL" font-size="11.00" fill="white">DISPLAY CONTENT</text>
</g>
<g id="clust4" class="cluster">
<title>cluster_integration</title>
<polygon fill="transparent" stroke="orange" stroke-dasharray="5,2" points="673.86,-434 673.86,-550 977.86,-550 977.86,-434 673.86,-434"/>
<text text-anchor="middle" x="716.36" y="-537.2" font-family="Cascadia Code PL" font-size="11.00" fill="white">INTEGRATION</text>
</g>
<g id="clust5" class="cluster">
<title>cluster_legend</title>
<polygon fill="transparent" stroke="white" stroke-dasharray="5,2" points="985.86,-353.64 985.86,-510.36 1202.86,-510.36 1202.86,-353.64 985.86,-353.64"/>
<text text-anchor="middle" x="1013.86" y="-497.56" font-family="Cascadia Code PL" font-size="11.00" fill="white">LEGEND</text>
</g>
<!-- MAIN -->
<g id="node1" class="node">
<title>MAIN</title>
<polygon fill="none" stroke="orange" stroke-width="2" points="181.36,-500 178.36,-504 157.36,-504 154.36,-500 80.36,-500 80.36,-464 181.36,-464 181.36,-500"/>
<text text-anchor="middle" x="130.86" y="-478.6" font-family="Cascadia Code PL" font-size="13.00" fill="orange">PICKER LOUPE</text>
</g>
<!-- S_HIDDEN -->
<g id="node2" class="node">
<title>S_HIDDEN</title>
<polygon fill="none" stroke="white" points="214.36,-396 47.36,-396 47.36,-328 214.36,-328 214.36,-396"/>
<text text-anchor="middle" x="130.86" y="-383.2" font-family="Cascadia Code PL" font-size="11.00" fill="cyan">1 · HIDDEN</text>
<text text-anchor="middle" x="130.86" y="-371.2" font-family="Cascadia Code PL" font-size="11.00" fill="cyan">─────────────────</text>
<text text-anchor="middle" x="130.86" y="-359.2" font-family="Cascadia Code PL" font-size="11.00" fill="cyan">PICKER_LOUPE.ACTIVE = FALSE</text>
<text text-anchor="middle" x="130.86" y="-347.2" font-family="Cascadia Code PL" font-size="11.00" fill="cyan">No magnifier visible</text>
<text text-anchor="middle" x="130.86" y="-335.2" font-family="Cascadia Code PL" font-size="11.00" fill="cyan">BUFFER not allocated</text>
</g>
<!-- MAIN&#45;&gt;S_HIDDEN -->
<g id="edge6" class="edge">
<title>MAIN&#45;&gt;S_HIDDEN</title>
<path fill="none" stroke="#555555" stroke-dasharray="1,5" d="M130.86,-463.84C130.86,-446.2 130.86,-418.27 130.86,-396.28"/>
</g>
<!-- S_VISIBLE -->
<g id="node3" class="node">
<title>S_VISIBLE</title>
<polygon fill="none" stroke="white" points="220.36,-262 41.36,-262 41.36,-182 220.36,-182 220.36,-262"/>
<text text-anchor="middle" x="130.86" y="-249.2" font-family="Cascadia Code PL" font-size="11.00" fill="cyan">2 · VISIBLE</text>
<text text-anchor="middle" x="130.86" y="-237.2" font-family="Cascadia Code PL" font-size="11.00" fill="cyan">─────────────────</text>
<text text-anchor="middle" x="130.86" y="-225.2" font-family="Cascadia Code PL" font-size="11.00" fill="cyan">PICKER_LOUPE.ACTIVE = TRUE</text>
<text text-anchor="middle" x="130.86" y="-213.2" font-family="Cascadia Code PL" font-size="11.00" fill="cyan">Magnified region at mouse</text>
<text text-anchor="middle" x="130.86" y="-201.2" font-family="Cascadia Code PL" font-size="11.00" fill="cyan">BUFFER + TEXT_BUFFER allocated</text>
<text text-anchor="middle" x="130.86" y="-189.2" font-family="Cascadia Code PL" font-size="11.00" fill="cyan">SAMPLE_COLOR displayed</text>
</g>
<!-- S_HIDDEN&#45;&gt;S_VISIBLE -->
<g id="edge1" class="edge">
<title>S_HIDDEN&#45;&gt;S_VISIBLE</title>
<path fill="none" stroke="#66cc66" d="M47.1,-342.74C30.85,-335.29 15.79,-324.78 5.86,-310 -8.92,-288.01 7.02,-269.91 31.89,-256.02"/>
<polygon fill="#66cc66" stroke="#66cc66" points="33.76,-258.99 41.02,-251.28 30.53,-252.78 33.76,-258.99"/>
<text text-anchor="middle" x="57.36" y="-302.8" font-family="Cascadia Code PL" font-size="9.00" fill="#aaaaaa"> &#160;PICKER_LOUPE_activate()</text>
<text text-anchor="middle" x="57.36" y="-292.8" font-family="Cascadia Code PL" font-size="9.00" fill="#aaaaaa"> &#160;Allocate BUFFER image</text>
<text text-anchor="middle" x="57.36" y="-282.8" font-family="Cascadia Code PL" font-size="9.00" fill="#aaaaaa"> &#160;Allocate TEXT_BUFFER</text>
</g>
<!-- S_VISIBLE&#45;&gt;S_HIDDEN -->
<g id="edge4" class="edge">
<title>S_VISIBLE&#45;&gt;S_HIDDEN</title>
<path fill="none" stroke="#cc6666" stroke-dasharray="5,2" d="M130.86,-262.16C130.86,-279.52 130.86,-300.01 130.86,-317.82"/>
<polygon fill="#cc6666" stroke="#cc6666" points="127.36,-317.95 130.86,-327.95 134.36,-317.95 127.36,-317.95"/>
<text text-anchor="middle" x="187.36" y="-302.8" font-family="Cascadia Code PL" font-size="9.00" fill="#aaaaaa"> &#160;PICKER_LOUPE_deactivate()</text>
<text text-anchor="middle" x="187.36" y="-292.8" font-family="Cascadia Code PL" font-size="9.00" fill="#aaaaaa"> &#160;Free BUFFER</text>
<text text-anchor="middle" x="187.36" y="-282.8" font-family="Cascadia Code PL" font-size="9.00" fill="#aaaaaa"> &#160;Free TEXT_BUFFER</text>
</g>
<!-- S_SAMPLING -->
<g id="node4" class="node">
<title>S_SAMPLING</title>
<polygon fill="none" stroke="white" points="269.86,-116 119.86,-116 119.86,0 269.86,0 269.86,-116"/>
<text text-anchor="middle" x="194.86" y="-103.2" font-family="Cascadia Code PL" font-size="11.00" fill="cyan">3 · SAMPLING</text>
<text text-anchor="middle" x="194.86" y="-91.2" font-family="Cascadia Code PL" font-size="11.00" fill="cyan">─────────────────</text>
<text text-anchor="middle" x="194.86" y="-79.2" font-family="Cascadia Code PL" font-size="11.00" fill="cyan">User hovering canvas</text>
<text text-anchor="middle" x="194.86" y="-67.2" font-family="Cascadia Code PL" font-size="11.00" fill="cyan">PICKER_LOUPE_render()</text>
<text text-anchor="middle" x="194.86" y="-55.2" font-family="Cascadia Code PL" font-size="11.00" fill="cyan">frames composited:</text>
<text text-anchor="middle" x="194.86" y="-43.2" font-family="Cascadia Code PL" font-size="11.00" fill="cyan">• 8×/16× magnified region</text>
<text text-anchor="middle" x="194.86" y="-31.2" font-family="Cascadia Code PL" font-size="11.00" fill="cyan">• Hex code overlay</text>
<text text-anchor="middle" x="194.86" y="-19.2" font-family="Cascadia Code PL" font-size="11.00" fill="cyan">• RGB values overlay</text>
<text text-anchor="middle" x="194.86" y="-7.2" font-family="Cascadia Code PL" font-size="11.00" fill="cyan">• Crosshair center</text>
</g>
<!-- S_VISIBLE&#45;&gt;S_SAMPLING -->
<g id="edge2" class="edge">
<title>S_VISIBLE&#45;&gt;S_SAMPLING</title>
<path fill="none" stroke="#66cc66" d="M145.4,-181.93C151.06,-166.91 157.67,-149.62 163.86,-134 164.93,-131.3 166.03,-128.55 167.14,-125.77"/>
<polygon fill="#66cc66" stroke="#66cc66" points="170.49,-126.84 170.99,-116.26 164,-124.22 170.49,-126.84"/>
<text text-anchor="middle" x="204.36" y="-156.8" font-family="Cascadia Code PL" font-size="9.00" fill="#aaaaaa"> &#160;Mouse over canvas</text>
<text text-anchor="middle" x="204.36" y="-146.8" font-family="Cascadia Code PL" font-size="9.00" fill="#aaaaaa"> &#160;Begin compositing</text>
<text text-anchor="middle" x="204.36" y="-136.8" font-family="Cascadia Code PL" font-size="9.00" fill="#aaaaaa"> &#160;magnified region</text>
</g>
<!-- S_SAMPLING&#45;&gt;S_HIDDEN -->
<g id="edge5" class="edge">
<title>S_SAMPLING&#45;&gt;S_HIDDEN</title>
<path fill="none" stroke="#cc6666" stroke-dasharray="5,2" d="M237.7,-116.28C240.58,-122.06 243.05,-128.01 244.86,-134 267.53,-208.87 287.4,-244.36 244.86,-310 239.18,-318.76 231.61,-326.02 223.06,-332.05"/>
<polygon fill="#cc6666" stroke="#cc6666" points="221.14,-329.12 214.59,-337.46 224.91,-335.02 221.14,-329.12"/>
<text text-anchor="middle" x="325.36" y="-224.8" font-family="Cascadia Code PL" font-size="9.00" fill="#aaaaaa"> &#160;Picker tool deselected</text>
<text text-anchor="middle" x="325.36" y="-214.8" font-family="Cascadia Code PL" font-size="9.00" fill="#aaaaaa"> &#160;PICKER_LOUPE_deactivate()</text>
</g>
<!-- S_SAMPLING&#45;&gt;S_SAMPLING -->
<g id="edge3" class="edge">
<title>S_SAMPLING&#45;&gt;S_SAMPLING</title>
<path fill="none" stroke="#88aacc" d="M270.03,-73.14C280.7,-70.69 287.86,-65.65 287.86,-58 287.86,-52.98 284.78,-49.08 279.64,-46.3"/>
<polygon fill="#88aacc" stroke="#88aacc" points="280.62,-42.94 270.03,-42.86 278.26,-49.53 280.62,-42.94"/>
<text text-anchor="middle" x="340.36" y="-65.8" font-family="Cascadia Code PL" font-size="9.00" fill="#aaaaaa"> &#160;Mouse moves</text>
<text text-anchor="middle" x="340.36" y="-55.8" font-family="Cascadia Code PL" font-size="9.00" fill="#aaaaaa"> &#160;SAMPLE_COLOR updated</text>
<text text-anchor="middle" x="340.36" y="-45.8" font-family="Cascadia Code PL" font-size="9.00" fill="#aaaaaa"> &#160;Region re&#45;composited</text>
</g>
<!-- D1 -->
<g id="node5" class="node">
<title>D1</title>
<polygon fill="none" stroke="white" points="657.36,-516 496.36,-516 496.36,-448 657.36,-448 657.36,-516"/>
<text text-anchor="middle" x="576.86" y="-503.2" font-family="Cascadia Code PL" font-size="11.00" fill="cyan">Magnified Region</text>
<text text-anchor="middle" x="576.86" y="-491.2" font-family="Cascadia Code PL" font-size="11.00" fill="cyan">─────────────────</text>
<text text-anchor="middle" x="576.86" y="-479.2" font-family="Cascadia Code PL" font-size="11.00" fill="cyan">BUFFER_W × BUFFER_H pixels</text>
<text text-anchor="middle" x="576.86" y="-467.2" font-family="Cascadia Code PL" font-size="11.00" fill="cyan">8× or 16× zoom</text>
<text text-anchor="middle" x="576.86" y="-455.2" font-family="Cascadia Code PL" font-size="11.00" fill="cyan">Composited from layers</text>
</g>
<!-- D2 -->
<g id="node6" class="node">
<title>D2</title>
<polygon fill="none" stroke="white" points="477.86,-522 353.86,-522 353.86,-442 477.86,-442 477.86,-522"/>
<text text-anchor="middle" x="415.86" y="-509.2" font-family="Cascadia Code PL" font-size="11.00" fill="cyan">Text Overlay</text>
<text text-anchor="middle" x="415.86" y="-497.2" font-family="Cascadia Code PL" font-size="11.00" fill="cyan">─────────────────</text>
<text text-anchor="middle" x="415.86" y="-485.2" font-family="Cascadia Code PL" font-size="11.00" fill="cyan">TEXT_BUFFER renders:</text>
<text text-anchor="middle" x="415.86" y="-473.2" font-family="Cascadia Code PL" font-size="11.00" fill="cyan">• #RRGGBB hex code</text>
<text text-anchor="middle" x="415.86" y="-461.2" font-family="Cascadia Code PL" font-size="11.00" fill="cyan">• R: G: B: values</text>
<text text-anchor="middle" x="415.86" y="-449.2" font-family="Cascadia Code PL" font-size="11.00" fill="cyan">• Font: FONT_HANDLE</text>
</g>
<!-- D3 -->
<g id="node7" class="node">
<title>D3</title>
<polygon fill="none" stroke="white" points="335.86,-516 199.86,-516 199.86,-448 335.86,-448 335.86,-516"/>
<text text-anchor="middle" x="267.86" y="-503.2" font-family="Cascadia Code PL" font-size="11.00" fill="cyan">Crosshair</text>
<text text-anchor="middle" x="267.86" y="-491.2" font-family="Cascadia Code PL" font-size="11.00" fill="cyan">─────────────────</text>
<text text-anchor="middle" x="267.86" y="-479.2" font-family="Cascadia Code PL" font-size="11.00" fill="cyan">Center pixel highlighted</text>
<text text-anchor="middle" x="267.86" y="-467.2" font-family="Cascadia Code PL" font-size="11.00" fill="cyan">Target crosshair drawn</text>
<text text-anchor="middle" x="267.86" y="-455.2" font-family="Cascadia Code PL" font-size="11.00" fill="cyan">SAMPLE_COLOR shown</text>
</g>
<!-- I1 -->
<g id="node8" class="node">
<title>I1</title>
<polygon fill="none" stroke="white" points="969.36,-522 844.36,-522 844.36,-442 969.36,-442 969.36,-522"/>
<text text-anchor="middle" x="906.86" y="-509.2" font-family="Cascadia Code PL" font-size="11.00" fill="cyan">Used by PICKER tool</text>
<text text-anchor="middle" x="906.86" y="-497.2" font-family="Cascadia Code PL" font-size="11.00" fill="cyan">─────────────────</text>
<text text-anchor="middle" x="906.86" y="-485.2" font-family="Cascadia Code PL" font-size="11.00" fill="cyan">Activated when picker</text>
<text text-anchor="middle" x="906.86" y="-473.2" font-family="Cascadia Code PL" font-size="11.00" fill="cyan">is active tool</text>
<text text-anchor="middle" x="906.86" y="-461.2" font-family="Cascadia Code PL" font-size="11.00" fill="cyan">Also via Alt+Click</text>
<text text-anchor="middle" x="906.86" y="-449.2" font-family="Cascadia Code PL" font-size="11.00" fill="cyan">temp picker mode</text>
</g>
<!-- I2 -->
<g id="node9" class="node">
<title>I2</title>
<polygon fill="none" stroke="white" points="825.86,-516 681.86,-516 681.86,-448 825.86,-448 825.86,-516"/>
<text text-anchor="middle" x="753.86" y="-503.2" font-family="Cascadia Code PL" font-size="11.00" fill="cyan">Color Resolution</text>
<text text-anchor="middle" x="753.86" y="-491.2" font-family="Cascadia Code PL" font-size="11.00" fill="cyan">─────────────────</text>
<text text-anchor="middle" x="753.86" y="-479.2" font-family="Cascadia Code PL" font-size="11.00" fill="cyan">PICKER_compose_region()</text>
<text text-anchor="middle" x="753.86" y="-467.2" font-family="Cascadia Code PL" font-size="11.00" fill="cyan">resolves blended color</text>
<text text-anchor="middle" x="753.86" y="-455.2" font-family="Cascadia Code PL" font-size="11.00" fill="cyan">through layer stack</text>
</g>
<!-- L1 -->
<g id="node10" class="node">
<title>L1</title>
<ellipse fill="white" stroke="white" cx="1159.86" cy="-482" rx="0.36" ry="0.36"/>
</g>
<!-- L2 -->
<g id="node11" class="node">
<title>L2</title>
<ellipse fill="white" stroke="white" cx="1159.86" cy="-362" rx="0.36" ry="0.36"/>
</g>
<!-- L1&#45;&gt;L2 -->
<g id="edge7" class="edge">
<title>L1&#45;&gt;L2</title>
<path fill="none" stroke="#66cc66" d="M1159.86,-480.91C1159.86,-478 1159.86,-401.48 1159.86,-373.3"/>
<polygon fill="#66cc66" stroke="#66cc66" points="1163.36,-373.08 1159.86,-363.08 1156.36,-373.08 1163.36,-373.08"/>
<text text-anchor="middle" x="1177.36" y="-416.8" font-family="Cascadia Code PL" font-size="9.00" fill="#aaaaaa"> Activate</text>
</g>
<!-- L3 -->
<g id="node12" class="node">
<title>L3</title>
<ellipse fill="white" stroke="white" cx="1092.86" cy="-482" rx="0.36" ry="0.36"/>
</g>
<!-- L4 -->
<g id="node13" class="node">
<title>L4</title>
<ellipse fill="white" stroke="white" cx="1092.86" cy="-362" rx="0.36" ry="0.36"/>
</g>
<!-- L3&#45;&gt;L4 -->
<g id="edge8" class="edge">
<title>L3&#45;&gt;L4</title>
<path fill="none" stroke="#cc6666" stroke-dasharray="5,2" d="M1092.86,-480.91C1092.86,-478 1092.86,-401.48 1092.86,-373.3"/>
<polygon fill="#cc6666" stroke="#cc6666" points="1096.36,-373.08 1092.86,-363.08 1089.36,-373.08 1096.36,-373.08"/>
<text text-anchor="middle" x="1114.86" y="-416.8" font-family="Cascadia Code PL" font-size="9.00" fill="#aaaaaa"> Deactivate</text>
</g>
<!-- L5 -->
<g id="node14" class="node">
<title>L5</title>
<ellipse fill="white" stroke="white" cx="1011.86" cy="-482" rx="0.36" ry="0.36"/>
</g>
<!-- L6 -->
<g id="node15" class="node">
<title>L6</title>
<ellipse fill="white" stroke="white" cx="1011.86" cy="-362" rx="0.36" ry="0.36"/>
</g>
<!-- L5&#45;&gt;L6 -->
<g id="edge9" class="edge">
<title>L5&#45;&gt;L6</title>
<path fill="none" stroke="#88aacc" d="M1011.86,-480.91C1011.86,-478 1011.86,-401.48 1011.86,-373.3"/>
<polygon fill="#88aacc" stroke="#88aacc" points="1015.36,-373.08 1011.86,-363.08 1008.36,-373.08 1015.36,-373.08"/>
<text text-anchor="middle" x="1040.86" y="-416.8" font-family="Cascadia Code PL" font-size="9.00" fill="#aaaaaa"> Self&#45;transition</text>
</g>
</g>
</svg>
