<?xml version="1.0" encoding="UTF-8" standalone="no"?>
<!DOCTYPE svg PUBLIC "-//W3C//DTD SVG 1.1//EN"
 "http://www.w3.org/Graphics/SVG/1.1/DTD/svg11.dtd">
<!-- Generated by graphviz version 2.42.4 (0)
 -->
<!-- Title: REFIMG_STATES Pages: 1 -->
<svg width="1314pt" height="720pt"
 viewBox="0.00 0.00 1314.35 720.00" xmlns="http://www.w3.org/2000/svg" xmlns:xlink="http://www.w3.org/1999/xlink">
<g id="graph0" class="graph" transform="scale(1 1) rotate(0) translate(4 716)">
<title>REFIMG_STATES</title>
<text text-anchor="middle" x="653.18" y="-688.8" font-family="Cascadia Code PL" font-size="24.00" fill="white">REFERENCE IMAGE STATE MACHINE</text>
<g id="clust3" class="cluster">
<title>cluster_opacity</title>
<polygon fill="transparent" stroke="orange" stroke-dasharray="5,2" points="369.35,-290 369.35,-664 612.35,-664 612.35,-290 369.35,-290"/>
<text text-anchor="middle" x="425.35" y="-651.2" font-family="Cascadia Code PL" font-size="11.00" fill="white">OPACITY CONTROL</text>
</g>
<g id="clust4" class="cluster">
<title>cluster_persistence</title>
<polygon fill="transparent" stroke="orange" stroke-dasharray="5,2" points="620.35,-554 620.35,-670 757.35,-670 757.35,-554 620.35,-554"/>
<text text-anchor="middle" x="688.85" y="-657.2" font-family="Cascadia Code PL" font-size="11.00" fill="white">PERSISTENCE (DRW v4+)</text>
</g>
<g id="clust5" class="cluster">
<title>cluster_sampling</title>
<polygon fill="transparent" stroke="orange" stroke-dasharray="5,2" points="765.35,-554 765.35,-670 961.35,-670 961.35,-554 765.35,-554"/>
<text text-anchor="middle" x="818.85" y="-657.2" font-family="Cascadia Code PL" font-size="11.00" fill="white">COLOR SAMPLING</text>
</g>
<g id="clust6" class="cluster">
<title>cluster_legend</title>
<polygon fill="transparent" stroke="white" stroke-dasharray="5,2" points="969.35,-463.64 969.35,-630.36 1298.35,-630.36 1298.35,-463.64 969.35,-463.64"/>
<text text-anchor="middle" x="997.35" y="-617.56" font-family="Cascadia Code PL" font-size="11.00" fill="white">LEGEND</text>
</g>
<!-- MAIN -->
<g id="node1" class="node">
<title>MAIN</title>
<polygon fill="none" stroke="orange" stroke-width="2" points="174.85,-620 171.85,-624 150.85,-624 147.85,-620 91.85,-620 91.85,-584 174.85,-584 174.85,-620"/>
<text text-anchor="middle" x="133.35" y="-605.6" font-family="Cascadia Code PL" font-size="13.00" fill="orange">REFERENCE</text>
<text text-anchor="middle" x="133.35" y="-591.6" font-family="Cascadia Code PL" font-size="13.00" fill="orange">IMAGE</text>
</g>
<!-- S_NONE -->
<g id="node2" class="node">
<title>S_NONE</title>
<polygon fill="none" stroke="white" points="192.85,-506 73.85,-506 73.85,-438 192.85,-438 192.85,-506"/>
<text text-anchor="middle" x="133.35" y="-493.2" font-family="Cascadia Code PL" font-size="11.00" fill="cyan">1 · NOT LOADED</text>
<text text-anchor="middle" x="133.35" y="-481.2" font-family="Cascadia Code PL" font-size="11.00" fill="cyan">─────────────────</text>
<text text-anchor="middle" x="133.35" y="-469.2" font-family="Cascadia Code PL" font-size="11.00" fill="cyan">REFIMG.IMAGE = 0</text>
<text text-anchor="middle" x="133.35" y="-457.2" font-family="Cascadia Code PL" font-size="11.00" fill="cyan">VISIBLE = FALSE</text>
<text text-anchor="middle" x="133.35" y="-445.2" font-family="Cascadia Code PL" font-size="11.00" fill="cyan">No reference overlay</text>
</g>
<!-- MAIN&#45;&gt;S_NONE -->
<g id="edge9" class="edge">
<title>MAIN&#45;&gt;S_NONE</title>
<path fill="none" stroke="#555555" stroke-dasharray="1,5" d="M133.35,-583.74C133.35,-563.95 133.35,-531.05 133.35,-506.24"/>
</g>
<!-- S_LOADED -->
<g id="node3" class="node">
<title>S_LOADED</title>
<polygon fill="none" stroke="white" points="161.85,-372 20.85,-372 20.85,-292 161.85,-292 161.85,-372"/>
<text text-anchor="middle" x="91.35" y="-359.2" font-family="Cascadia Code PL" font-size="11.00" fill="cyan">2 · LOADED (HIDDEN)</text>
<text text-anchor="middle" x="91.35" y="-347.2" font-family="Cascadia Code PL" font-size="11.00" fill="cyan">─────────────────</text>
<text text-anchor="middle" x="91.35" y="-335.2" font-family="Cascadia Code PL" font-size="11.00" fill="cyan">IMAGE &lt; &#45;1 (valid handle)</text>
<text text-anchor="middle" x="91.35" y="-323.2" font-family="Cascadia Code PL" font-size="11.00" fill="cyan">VISIBLE = FALSE</text>
<text text-anchor="middle" x="91.35" y="-311.2" font-family="Cascadia Code PL" font-size="11.00" fill="cyan">Image in memory</text>
<text text-anchor="middle" x="91.35" y="-299.2" font-family="Cascadia Code PL" font-size="11.00" fill="cyan">but not displayed</text>
</g>
<!-- S_NONE&#45;&gt;S_LOADED -->
<g id="edge1" class="edge">
<title>S_NONE&#45;&gt;S_LOADED</title>
<path fill="none" stroke="#66cc66" d="M73.68,-462.35C48.19,-455.37 20.79,-442.77 5.35,-420 -4.61,-405.32 1.09,-390.95 13.29,-378.26"/>
<polygon fill="#66cc66" stroke="#66cc66" points="15.73,-380.77 20.67,-371.39 10.97,-375.64 15.73,-380.77"/>
<text text-anchor="middle" x="58.35" y="-412.8" font-family="Cascadia Code PL" font-size="9.00" fill="#aaaaaa"> &#160;View → Ref Image → Load</text>
<text text-anchor="middle" x="58.35" y="-402.8" font-family="Cascadia Code PL" font-size="9.00" fill="#aaaaaa"> &#160;File dialog opens</text>
<text text-anchor="middle" x="58.35" y="-392.8" font-family="Cascadia Code PL" font-size="9.00" fill="#aaaaaa"> &#160;REFIMG_load(filename)</text>
</g>
<!-- S_LOADED&#45;&gt;S_NONE -->
<g id="edge7" class="edge">
<title>S_LOADED&#45;&gt;S_NONE</title>
<path fill="none" stroke="#cc6666" stroke-dasharray="5,2" d="M105.5,-372.12C107.53,-378.09 109.54,-384.19 111.35,-390 115.13,-402.18 118.9,-415.49 122.22,-427.74"/>
<polygon fill="#cc6666" stroke="#cc6666" points="118.93,-428.98 124.9,-437.74 125.69,-427.17 118.93,-428.98"/>
<text text-anchor="middle" x="173.35" y="-412.8" font-family="Cascadia Code PL" font-size="9.00" fill="#aaaaaa"> &#160;View → Ref Image → Clear</text>
<text text-anchor="middle" x="173.35" y="-402.8" font-family="Cascadia Code PL" font-size="9.00" fill="#aaaaaa"> &#160;_FREEIMAGE IMAGE</text>
<text text-anchor="middle" x="173.35" y="-392.8" font-family="Cascadia Code PL" font-size="9.00" fill="#aaaaaa"> &#160;VISIBLE = FALSE</text>
</g>
<!-- S_VISIBLE -->
<g id="node4" class="node">
<title>S_VISIBLE</title>
<polygon fill="none" stroke="white" points="253.35,-226 91.35,-226 91.35,-146 253.35,-146 253.35,-226"/>
<text text-anchor="middle" x="172.35" y="-213.2" font-family="Cascadia Code PL" font-size="11.00" fill="cyan">3 · VISIBLE</text>
<text text-anchor="middle" x="172.35" y="-201.2" font-family="Cascadia Code PL" font-size="11.00" fill="cyan">─────────────────</text>
<text text-anchor="middle" x="172.35" y="-189.2" font-family="Cascadia Code PL" font-size="11.00" fill="cyan">VISIBLE = TRUE</text>
<text text-anchor="middle" x="172.35" y="-177.2" font-family="Cascadia Code PL" font-size="11.00" fill="cyan">Rendered BEFORE grid+layers</text>
<text text-anchor="middle" x="172.35" y="-165.2" font-family="Cascadia Code PL" font-size="11.00" fill="cyan">Scaled at POS_X/Y</text>
<text text-anchor="middle" x="172.35" y="-153.2" font-family="Cascadia Code PL" font-size="11.00" fill="cyan">OPACITY% blended (0&#45;100)</text>
</g>
<!-- S_LOADED&#45;&gt;S_VISIBLE -->
<g id="edge2" class="edge">
<title>S_LOADED&#45;&gt;S_VISIBLE</title>
<path fill="none" stroke="#66cc66" d="M55.83,-291.77C46.24,-276.41 40.85,-258.93 50.35,-244 58.26,-231.58 69.65,-221.82 82.35,-214.17"/>
<polygon fill="#66cc66" stroke="#66cc66" points="84.26,-217.11 91.31,-209.2 80.87,-210.98 84.26,-217.11"/>
<text text-anchor="middle" x="100.35" y="-266.8" font-family="Cascadia Code PL" font-size="9.00" fill="#aaaaaa"> &#160;Ctrl+R toggle</text>
<text text-anchor="middle" x="100.35" y="-256.8" font-family="Cascadia Code PL" font-size="9.00" fill="#aaaaaa"> &#160;REFIMG_toggle_visible()</text>
<text text-anchor="middle" x="100.35" y="-246.8" font-family="Cascadia Code PL" font-size="9.00" fill="#aaaaaa"> &#160;VISIBLE = TRUE</text>
</g>
<!-- S_VISIBLE&#45;&gt;S_NONE -->
<g id="edge8" class="edge">
<title>S_VISIBLE&#45;&gt;S_NONE</title>
<path fill="none" stroke="#cc6666" stroke-dasharray="5,2" d="M223.04,-226.01C227.59,-231.55 231.53,-237.57 234.35,-244 250.08,-279.82 251.03,-386.79 230.35,-420 223.38,-431.2 213.07,-440.07 201.74,-447.05"/>
<polygon fill="#cc6666" stroke="#cc6666" points="199.9,-444.07 192.91,-452.04 203.34,-450.17 199.9,-444.07"/>
<text text-anchor="middle" x="299.35" y="-334.8" font-family="Cascadia Code PL" font-size="9.00" fill="#aaaaaa"> &#160;View → Ref Image → Clear</text>
<text text-anchor="middle" x="299.35" y="-324.8" font-family="Cascadia Code PL" font-size="9.00" fill="#aaaaaa"> &#160;REFIMG_unload()</text>
</g>
<!-- S_VISIBLE&#45;&gt;S_LOADED -->
<g id="edge3" class="edge">
<title>S_VISIBLE&#45;&gt;S_LOADED</title>
<path fill="none" stroke="#cc6666" stroke-dasharray="5,2" d="M167.25,-226.01C164.02,-241.68 158.79,-259.44 150.35,-274 148.36,-277.44 146.1,-280.8 143.66,-284.07"/>
<polygon fill="#cc6666" stroke="#cc6666" points="140.83,-282 137.25,-291.98 146.27,-286.41 140.83,-282"/>
<text text-anchor="middle" x="196.85" y="-266.8" font-family="Cascadia Code PL" font-size="9.00" fill="#aaaaaa"> &#160;Ctrl+R toggle</text>
<text text-anchor="middle" x="196.85" y="-256.8" font-family="Cascadia Code PL" font-size="9.00" fill="#aaaaaa"> &#160;VISIBLE = FALSE</text>
<text text-anchor="middle" x="196.85" y="-246.8" font-family="Cascadia Code PL" font-size="9.00" fill="#aaaaaa"> &#160;Still in memory</text>
</g>
<!-- S_REPOSITION -->
<g id="node5" class="node">
<title>S_REPOSITION</title>
<polygon fill="none" stroke="white" points="243.35,-80 101.35,-80 101.35,0 243.35,0 243.35,-80"/>
<text text-anchor="middle" x="172.35" y="-67.2" font-family="Cascadia Code PL" font-size="11.00" fill="cyan">4 · REPOSITIONING</text>
<text text-anchor="middle" x="172.35" y="-55.2" font-family="Cascadia Code PL" font-size="11.00" fill="cyan">─────────────────</text>
<text text-anchor="middle" x="172.35" y="-43.2" font-family="Cascadia Code PL" font-size="11.00" fill="cyan">REPOSITION = TRUE</text>
<text text-anchor="middle" x="172.35" y="-31.2" font-family="Cascadia Code PL" font-size="11.00" fill="cyan">Modal drag mode</text>
<text text-anchor="middle" x="172.35" y="-19.2" font-family="Cascadia Code PL" font-size="11.00" fill="cyan">DRAGGING tracks mouse</text>
<text text-anchor="middle" x="172.35" y="-7.2" font-family="Cascadia Code PL" font-size="11.00" fill="cyan">POS_X/Y updates on drag</text>
</g>
<!-- S_VISIBLE&#45;&gt;S_REPOSITION -->
<g id="edge4" class="edge">
<title>S_VISIBLE&#45;&gt;S_REPOSITION</title>
<path fill="none" stroke="#cccc66" d="M129.43,-145.89C125.35,-140.29 121.82,-134.29 119.35,-128 114.47,-115.59 114.47,-110.41 119.35,-98 120.62,-94.76 122.18,-91.59 123.95,-88.52"/>
<polygon fill="#cccc66" stroke="#cccc66" points="126.9,-90.4 129.43,-80.11 121.03,-86.58 126.9,-90.4"/>
<text text-anchor="middle" x="161.85" y="-120.8" font-family="Cascadia Code PL" font-size="9.00" fill="#aaaaaa"> &#160;View → Ref Image</text>
<text text-anchor="middle" x="161.85" y="-110.8" font-family="Cascadia Code PL" font-size="9.00" fill="#aaaaaa"> &#160;→ Reposition</text>
<text text-anchor="middle" x="161.85" y="-100.8" font-family="Cascadia Code PL" font-size="9.00" fill="#aaaaaa"> &#160;REPOSITION = TRUE</text>
</g>
<!-- S_REPOSITION&#45;&gt;S_VISIBLE -->
<g id="edge5" class="edge">
<title>S_REPOSITION&#45;&gt;S_VISIBLE</title>
<path fill="none" stroke="#cc6666" stroke-dasharray="5,2" d="M197.63,-80.07C200.39,-85.89 202.77,-91.96 204.35,-98 207.72,-110.9 207.72,-115.1 204.35,-128 203.61,-130.83 202.69,-133.67 201.65,-136.49"/>
<polygon fill="#cc6666" stroke="#cc6666" points="198.32,-135.36 197.63,-145.93 204.76,-138.1 198.32,-135.36"/>
<text text-anchor="middle" x="250.85" y="-120.8" font-family="Cascadia Code PL" font-size="9.00" fill="#aaaaaa"> &#160;Press Esc</text>
<text text-anchor="middle" x="250.85" y="-110.8" font-family="Cascadia Code PL" font-size="9.00" fill="#aaaaaa"> &#160;REPOSITION = FALSE</text>
<text text-anchor="middle" x="250.85" y="-100.8" font-family="Cascadia Code PL" font-size="9.00" fill="#aaaaaa"> &#160;PREV_TOOL restored</text>
</g>
<!-- S_REPOSITION&#45;&gt;S_REPOSITION -->
<g id="edge6" class="edge">
<title>S_REPOSITION&#45;&gt;S_REPOSITION</title>
<path fill="none" stroke="#88aacc" d="M243.58,-52.25C254.18,-50.34 261.35,-46.26 261.35,-40 261.35,-35.99 258.41,-32.88 253.5,-30.65"/>
<polygon fill="#88aacc" stroke="#88aacc" points="254.16,-27.2 243.58,-27.75 252.19,-33.92 254.16,-27.2"/>
<text text-anchor="middle" x="301.35" y="-52.8" font-family="Cascadia Code PL" font-size="9.00" fill="#aaaaaa"> &#160;Mouse drag</text>
<text text-anchor="middle" x="301.35" y="-42.8" font-family="Cascadia Code PL" font-size="9.00" fill="#aaaaaa"> &#160;DRAGGING = TRUE</text>
<text text-anchor="middle" x="301.35" y="-32.8" font-family="Cascadia Code PL" font-size="9.00" fill="#aaaaaa"> &#160;POS_X/Y updated</text>
<text text-anchor="middle" x="301.35" y="-22.8" font-family="Cascadia Code PL" font-size="9.00" fill="#aaaaaa"> &#160;via DRAG_OFS_X/Y</text>
</g>
<!-- OP_MIN -->
<g id="node6" class="node">
<title>OP_MIN</title>
<polygon fill="none" stroke="white" points="536.85,-636 409.85,-636 409.85,-568 536.85,-568 536.85,-636"/>
<text text-anchor="middle" x="473.35" y="-623.2" font-family="Cascadia Code PL" font-size="11.00" fill="cyan">Min Opacity</text>
<text text-anchor="middle" x="473.35" y="-611.2" font-family="Cascadia Code PL" font-size="11.00" fill="cyan">─────────────────</text>
<text text-anchor="middle" x="473.35" y="-599.2" font-family="Cascadia Code PL" font-size="11.00" fill="cyan">OPACITY = 5%</text>
<text text-anchor="middle" x="473.35" y="-587.2" font-family="Cascadia Code PL" font-size="11.00" fill="cyan">REFIMG_OPACITY_MIN</text>
<text text-anchor="middle" x="473.35" y="-575.2" font-family="Cascadia Code PL" font-size="11.00" fill="cyan">Barely visible</text>
</g>
<!-- OP_DEFAULT -->
<g id="node7" class="node">
<title>OP_DEFAULT</title>
<polygon fill="none" stroke="white" points="552.35,-506 404.35,-506 404.35,-438 552.35,-438 552.35,-506"/>
<text text-anchor="middle" x="478.35" y="-493.2" font-family="Cascadia Code PL" font-size="11.00" fill="cyan">Default</text>
<text text-anchor="middle" x="478.35" y="-481.2" font-family="Cascadia Code PL" font-size="11.00" fill="cyan">─────────────────</text>
<text text-anchor="middle" x="478.35" y="-469.2" font-family="Cascadia Code PL" font-size="11.00" fill="cyan">OPACITY = 30%</text>
<text text-anchor="middle" x="478.35" y="-457.2" font-family="Cascadia Code PL" font-size="11.00" fill="cyan">REFIMG_OPACITY_DEFAULT</text>
<text text-anchor="middle" x="478.35" y="-445.2" font-family="Cascadia Code PL" font-size="11.00" fill="cyan">Semi&#45;transparent</text>
</g>
<!-- OP_MIN&#45;&gt;OP_DEFAULT -->
<g id="edge10" class="edge">
<title>OP_MIN&#45;&gt;OP_DEFAULT</title>
<path fill="none" stroke="#66cc66" d="M411.28,-567.72C396.53,-555.27 387.35,-540.19 396.35,-524 398.46,-520.21 400.98,-516.66 403.8,-513.35"/>
<polygon fill="#66cc66" stroke="#66cc66" points="406.44,-515.65 410.9,-506.04 401.42,-510.78 406.44,-515.65"/>
<text text-anchor="middle" x="439.85" y="-536.8" font-family="Cascadia Code PL" font-size="9.00" fill="#aaaaaa"> &#160;Ctrl+Shift+Wheel Up</text>
<text text-anchor="middle" x="439.85" y="-526.8" font-family="Cascadia Code PL" font-size="9.00" fill="#aaaaaa"> &#160;OPACITY += STEP(5)</text>
</g>
<!-- OP_DEFAULT&#45;&gt;OP_MIN -->
<g id="edge13" class="edge">
<title>OP_DEFAULT&#45;&gt;OP_MIN</title>
<path fill="none" stroke="#cc6666" stroke-dasharray="5,2" d="M482.08,-506.16C482.61,-512.09 483.07,-518.22 483.35,-524 483.78,-532.88 484.12,-535.14 483.35,-544 482.96,-548.51 482.39,-553.21 481.73,-557.87"/>
<polygon fill="#cc6666" stroke="#cc6666" points="478.24,-557.55 480.15,-567.97 485.15,-558.64 478.24,-557.55"/>
<text text-anchor="middle" x="532.85" y="-536.8" font-family="Cascadia Code PL" font-size="9.00" fill="#aaaaaa"> &#160;Ctrl+Shift+Wheel Down</text>
<text text-anchor="middle" x="532.85" y="-526.8" font-family="Cascadia Code PL" font-size="9.00" fill="#aaaaaa"> &#160;OPACITY &#45;= STEP(5)</text>
</g>
<!-- OP_MAX -->
<g id="node8" class="node">
<title>OP_MAX</title>
<polygon fill="none" stroke="white" points="507.85,-366 378.85,-366 378.85,-298 507.85,-298 507.85,-366"/>
<text text-anchor="middle" x="443.35" y="-353.2" font-family="Cascadia Code PL" font-size="11.00" fill="cyan">Max Opacity</text>
<text text-anchor="middle" x="443.35" y="-341.2" font-family="Cascadia Code PL" font-size="11.00" fill="cyan">─────────────────</text>
<text text-anchor="middle" x="443.35" y="-329.2" font-family="Cascadia Code PL" font-size="11.00" fill="cyan">OPACITY = 100%</text>
<text text-anchor="middle" x="443.35" y="-317.2" font-family="Cascadia Code PL" font-size="11.00" fill="cyan">REFIMG_OPACITY_MAX</text>
<text text-anchor="middle" x="443.35" y="-305.2" font-family="Cascadia Code PL" font-size="11.00" fill="cyan">Fully opaque</text>
</g>
<!-- OP_DEFAULT&#45;&gt;OP_MAX -->
<g id="edge11" class="edge">
<title>OP_DEFAULT&#45;&gt;OP_MAX</title>
<path fill="none" stroke="#66cc66" d="M410.9,-437.96C405.14,-432.71 400.1,-426.74 396.35,-420 388.12,-405.2 393.22,-388.89 402.58,-374.43"/>
<polygon fill="#66cc66" stroke="#66cc66" points="405.54,-376.32 408.52,-366.15 399.85,-372.23 405.54,-376.32"/>
<text text-anchor="middle" x="439.85" y="-407.8" font-family="Cascadia Code PL" font-size="9.00" fill="#aaaaaa"> &#160;Ctrl+Shift+Wheel Up</text>
<text text-anchor="middle" x="439.85" y="-397.8" font-family="Cascadia Code PL" font-size="9.00" fill="#aaaaaa"> &#160;OPACITY += STEP(5)</text>
</g>
<!-- OP_MAX&#45;&gt;OP_DEFAULT -->
<g id="edge12" class="edge">
<title>OP_MAX&#45;&gt;OP_DEFAULT</title>
<path fill="none" stroke="#cc6666" stroke-dasharray="5,2" d="M471.57,-366.15C476.42,-373.56 480.73,-381.7 483.35,-390 487.1,-401.86 487.66,-415.17 486.8,-427.53"/>
<polygon fill="#cc6666" stroke="#cc6666" points="483.3,-427.32 485.78,-437.62 490.27,-428.03 483.3,-427.32"/>
<text text-anchor="middle" x="535.85" y="-407.8" font-family="Cascadia Code PL" font-size="9.00" fill="#aaaaaa"> &#160;Ctrl+Shift+Wheel Down</text>
<text text-anchor="middle" x="535.85" y="-397.8" font-family="Cascadia Code PL" font-size="9.00" fill="#aaaaaa"> &#160;OPACITY &#45;= STEP(5)</text>
</g>
<!-- P1 -->
<g id="node9" class="node">
<title>P1</title>
<polygon fill="none" stroke="white" points="742.35,-642 634.35,-642 634.35,-562 742.35,-562 742.35,-642"/>
<text text-anchor="middle" x="688.35" y="-629.2" font-family="Cascadia Code PL" font-size="11.00" fill="cyan">Saved Fields</text>
<text text-anchor="middle" x="688.35" y="-617.2" font-family="Cascadia Code PL" font-size="11.00" fill="cyan">─────────────────</text>
<text text-anchor="middle" x="688.35" y="-605.2" font-family="Cascadia Code PL" font-size="11.00" fill="cyan">FILENAME$</text>
<text text-anchor="middle" x="688.35" y="-593.2" font-family="Cascadia Code PL" font-size="11.00" fill="cyan">POS_X, POS_Y</text>
<text text-anchor="middle" x="688.35" y="-581.2" font-family="Cascadia Code PL" font-size="11.00" fill="cyan">SCALE_W, SCALE_H</text>
<text text-anchor="middle" x="688.35" y="-569.2" font-family="Cascadia Code PL" font-size="11.00" fill="cyan">OPACITY%</text>
</g>
<!-- S1 -->
<g id="node10" class="node">
<title>S1</title>
<polygon fill="none" stroke="white" points="952.85,-642 773.85,-642 773.85,-562 952.85,-562 952.85,-642"/>
<text text-anchor="middle" x="863.35" y="-629.2" font-family="Cascadia Code PL" font-size="11.00" fill="cyan">REFIMG_sample_color_at_canvas()</text>
<text text-anchor="middle" x="863.35" y="-617.2" font-family="Cascadia Code PL" font-size="11.00" fill="cyan">─────────────────</text>
<text text-anchor="middle" x="863.35" y="-605.2" font-family="Cascadia Code PL" font-size="11.00" fill="cyan">Sample pixel from</text>
<text text-anchor="middle" x="863.35" y="-593.2" font-family="Cascadia Code PL" font-size="11.00" fill="cyan">reference image at</text>
<text text-anchor="middle" x="863.35" y="-581.2" font-family="Cascadia Code PL" font-size="11.00" fill="cyan">canvas coordinates</text>
<text text-anchor="middle" x="863.35" y="-569.2" font-family="Cascadia Code PL" font-size="11.00" fill="cyan">(used by picker)</text>
</g>
<!-- L1 -->
<g id="node11" class="node">
<title>L1</title>
<ellipse fill="white" stroke="white" cx="1238.35" cy="-602" rx="0.36" ry="0.36"/>
</g>
<!-- L2 -->
<g id="node12" class="node">
<title>L2</title>
<ellipse fill="white" stroke="white" cx="1238.35" cy="-472" rx="0.36" ry="0.36"/>
</g>
<!-- L1&#45;&gt;L2 -->
<g id="edge14" class="edge">
<title>L1&#45;&gt;L2</title>
<path fill="none" stroke="#66cc66" d="M1238.35,-600.91C1238.35,-597.72 1238.35,-513.17 1238.35,-483.32"/>
<polygon fill="#66cc66" stroke="#66cc66" points="1241.85,-483.09 1238.35,-473.09 1234.85,-483.09 1241.85,-483.09"/>
<text text-anchor="middle" x="1264.35" y="-531.8" font-family="Cascadia Code PL" font-size="9.00" fill="#aaaaaa"> Load / Show</text>
</g>
<!-- L3 -->
<g id="node13" class="node">
<title>L3</title>
<ellipse fill="white" stroke="white" cx="1166.35" cy="-602" rx="0.36" ry="0.36"/>
</g>
<!-- L4 -->
<g id="node14" class="node">
<title>L4</title>
<ellipse fill="white" stroke="white" cx="1166.35" cy="-472" rx="0.36" ry="0.36"/>
</g>
<!-- L3&#45;&gt;L4 -->
<g id="edge15" class="edge">
<title>L3&#45;&gt;L4</title>
<path fill="none" stroke="#cc6666" stroke-dasharray="5,2" d="M1166.35,-600.91C1166.35,-597.72 1166.35,-513.17 1166.35,-483.32"/>
<polygon fill="#cc6666" stroke="#cc6666" points="1169.85,-483.09 1166.35,-473.09 1162.85,-483.09 1169.85,-483.09"/>
<text text-anchor="middle" x="1190.85" y="-531.8" font-family="Cascadia Code PL" font-size="9.00" fill="#aaaaaa"> Hide / Clear</text>
</g>
<!-- L5 -->
<g id="node15" class="node">
<title>L5</title>
<ellipse fill="white" stroke="white" cx="1076.35" cy="-602" rx="0.36" ry="0.36"/>
</g>
<!-- L6 -->
<g id="node16" class="node">
<title>L6</title>
<ellipse fill="white" stroke="white" cx="1076.35" cy="-472" rx="0.36" ry="0.36"/>
</g>
<!-- L5&#45;&gt;L6 -->
<g id="edge16" class="edge">
<title>L5&#45;&gt;L6</title>
<path fill="none" stroke="#cccc66" d="M1076.35,-600.91C1076.35,-597.72 1076.35,-513.17 1076.35,-483.32"/>
<polygon fill="#cccc66" stroke="#cccc66" points="1079.85,-483.09 1076.35,-473.09 1072.85,-483.09 1079.85,-483.09"/>
<text text-anchor="middle" x="1109.85" y="-531.8" font-family="Cascadia Code PL" font-size="9.00" fill="#aaaaaa"> Commit / Modal</text>
</g>
<!-- L7 -->
<g id="node17" class="node">
<title>L7</title>
<ellipse fill="white" stroke="white" cx="995.35" cy="-602" rx="0.36" ry="0.36"/>
</g>
<!-- L8 -->
<g id="node18" class="node">
<title>L8</title>
<ellipse fill="white" stroke="white" cx="995.35" cy="-472" rx="0.36" ry="0.36"/>
</g>
<!-- L7&#45;&gt;L8 -->
<g id="edge17" class="edge">
<title>L7&#45;&gt;L8</title>
<path fill="none" stroke="#88aacc" d="M995.35,-600.91C995.35,-597.72 995.35,-513.17 995.35,-483.32"/>
<polygon fill="#88aacc" stroke="#88aacc" points="998.85,-483.09 995.35,-473.09 991.85,-483.09 998.85,-483.09"/>
<text text-anchor="middle" x="1024.35" y="-531.8" font-family="Cascadia Code PL" font-size="9.00" fill="#aaaaaa"> Self&#45;transition</text>
</g>
</g>
</svg>
