<?xml version="1.0" encoding="UTF-8" standalone="no"?>
<!DOCTYPE svg PUBLIC "-//W3C//DTD SVG 1.1//EN"
 "http://www.w3.org/Graphics/SVG/1.1/DTD/svg11.dtd">
<!-- Generated by graphviz version 2.42.4 (0)
 -->
<!-- Title: SYMMETRY_STATES Pages: 1 -->
<svg width="1195pt" height="718pt"
 viewBox="0.00 0.00 1194.50 718.00" xmlns="http://www.w3.org/2000/svg" xmlns:xlink="http://www.w3.org/1999/xlink">
<g id="graph0" class="graph" transform="scale(1 1) rotate(0) translate(4 714)">
<title>SYMMETRY_STATES</title>
<text text-anchor="middle" x="593.25" y="-686.8" font-family="Cascadia Code PL" font-size="24.00" fill="white">SYMMETRY ASSISTANT STATE MACHINE</text>
<g id="clust3" class="cluster">
<title>cluster_center</title>
<polygon fill="transparent" stroke="orange" stroke-dasharray="5,2" points="215.5,-406 215.5,-662 457.5,-662 457.5,-406 215.5,-406"/>
<text text-anchor="middle" x="269" y="-649.2" font-family="Cascadia Code PL" font-size="11.00" fill="white">CENTER CONTROL</text>
</g>
<g id="clust4" class="cluster">
<title>cluster_guides</title>
<polygon fill="transparent" stroke="orange" stroke-dasharray="5,2" points="465.5,-412 465.5,-662 710.5,-662 710.5,-412 465.5,-412"/>
<text text-anchor="middle" x="520" y="-649.2" font-family="Cascadia Code PL" font-size="11.00" fill="white">GUIDE RENDERING</text>
</g>
<g id="clust5" class="cluster">
<title>cluster_paint</title>
<polygon fill="transparent" stroke="orange" stroke-dasharray="5,2" points="718.5,-552 718.5,-668 890.5,-668 890.5,-552 718.5,-552"/>
<text text-anchor="middle" x="777.5" y="-655.2" font-family="Cascadia Code PL" font-size="11.00" fill="white">PAINT INTEGRATION</text>
</g>
<g id="clust6" class="cluster">
<title>cluster_legend</title>
<polygon fill="transparent" stroke="white" stroke-dasharray="5,2" points="898.5,-445.64 898.5,-628.36 1178.5,-628.36 1178.5,-445.64 898.5,-445.64"/>
<text text-anchor="middle" x="926.5" y="-615.56" font-family="Cascadia Code PL" font-size="11.00" fill="white">LEGEND</text>
</g>
<!-- MAIN -->
<g id="node1" class="node">
<title>MAIN</title>
<polygon fill="none" stroke="orange" stroke-width="2" points="184,-618 181,-622 160,-622 157,-618 101,-618 101,-582 184,-582 184,-618"/>
<text text-anchor="middle" x="142.5" y="-603.6" font-family="Cascadia Code PL" font-size="13.00" fill="orange">SYMMETRY</text>
<text text-anchor="middle" x="142.5" y="-589.6" font-family="Cascadia Code PL" font-size="13.00" fill="orange">ASSISTANT</text>
</g>
<!-- S_OFF -->
<g id="node2" class="node">
<title>S_OFF</title>
<polygon fill="none" stroke="white" points="206.5,-488 78.5,-488 78.5,-420 206.5,-420 206.5,-488"/>
<text text-anchor="middle" x="142.5" y="-475.2" font-family="Cascadia Code PL" font-size="11.00" fill="cyan">1 · OFF (MODE=0)</text>
<text text-anchor="middle" x="142.5" y="-463.2" font-family="Cascadia Code PL" font-size="11.00" fill="cyan">─────────────────</text>
<text text-anchor="middle" x="142.5" y="-451.2" font-family="Cascadia Code PL" font-size="11.00" fill="cyan">No symmetry applied</text>
<text text-anchor="middle" x="142.5" y="-439.2" font-family="Cascadia Code PL" font-size="11.00" fill="cyan">Single paint point only</text>
<text text-anchor="middle" x="142.5" y="-427.2" font-family="Cascadia Code PL" font-size="11.00" fill="cyan">No guide lines</text>
</g>
<!-- MAIN&#45;&gt;S_OFF -->
<g id="edge5" class="edge">
<title>MAIN&#45;&gt;S_OFF</title>
<path fill="none" stroke="#555555" stroke-dasharray="1,5" d="M142.5,-581.92C142.5,-558.9 142.5,-517.43 142.5,-488.18"/>
</g>
<!-- S_VERT -->
<g id="node3" class="node">
<title>S_VERT</title>
<polygon fill="none" stroke="white" points="159,-348 0,-348 0,-280 159,-280 159,-348"/>
<text text-anchor="middle" x="79.5" y="-335.2" font-family="Cascadia Code PL" font-size="11.00" fill="cyan">2 · VERTICAL (MODE=1)</text>
<text text-anchor="middle" x="79.5" y="-323.2" font-family="Cascadia Code PL" font-size="11.00" fill="cyan">─────────────────</text>
<text text-anchor="middle" x="79.5" y="-311.2" font-family="Cascadia Code PL" font-size="11.00" fill="cyan">Left/right mirroring</text>
<text text-anchor="middle" x="79.5" y="-299.2" font-family="Cascadia Code PL" font-size="11.00" fill="cyan">Across vertical CENTER_X line</text>
<text text-anchor="middle" x="79.5" y="-287.2" font-family="Cascadia Code PL" font-size="11.00" fill="cyan">2 paint points per stroke</text>
</g>
<!-- S_OFF&#45;&gt;S_VERT -->
<g id="edge1" class="edge">
<title>S_OFF&#45;&gt;S_VERT</title>
<path fill="none" stroke="#66cc66" d="M100.76,-419.74C94.27,-412.61 88.42,-404.61 84.5,-396 79.25,-384.48 77.07,-371.07 76.45,-358.52"/>
<polygon fill="#66cc66" stroke="#66cc66" points="79.94,-358.17 76.26,-348.23 72.94,-358.29 79.94,-358.17"/>
<text text-anchor="middle" x="138" y="-388.8" font-family="Cascadia Code PL" font-size="9.00" fill="#aaaaaa"> &#160;Press F</text>
<text text-anchor="middle" x="138" y="-378.8" font-family="Cascadia Code PL" font-size="9.00" fill="#aaaaaa"> &#160;SYMMETRY_cycle_mode()</text>
<text text-anchor="middle" x="138" y="-368.8" font-family="Cascadia Code PL" font-size="9.00" fill="#aaaaaa"> &#160;MODE = 1</text>
</g>
<!-- S_CROSS -->
<g id="node4" class="node">
<title>S_CROSS</title>
<polygon fill="none" stroke="white" points="154.5,-214 0.5,-214 0.5,-134 154.5,-134 154.5,-214"/>
<text text-anchor="middle" x="77.5" y="-201.2" font-family="Cascadia Code PL" font-size="11.00" fill="cyan">3 · CROSS (MODE=2)</text>
<text text-anchor="middle" x="77.5" y="-189.2" font-family="Cascadia Code PL" font-size="11.00" fill="cyan">─────────────────</text>
<text text-anchor="middle" x="77.5" y="-177.2" font-family="Cascadia Code PL" font-size="11.00" fill="cyan">4&#45;way mirror</text>
<text text-anchor="middle" x="77.5" y="-165.2" font-family="Cascadia Code PL" font-size="11.00" fill="cyan">Vertical + Horizontal</text>
<text text-anchor="middle" x="77.5" y="-153.2" font-family="Cascadia Code PL" font-size="11.00" fill="cyan">CENTER_X + CENTER_Y lines</text>
<text text-anchor="middle" x="77.5" y="-141.2" font-family="Cascadia Code PL" font-size="11.00" fill="cyan">4 paint points per stroke</text>
</g>
<!-- S_VERT&#45;&gt;S_CROSS -->
<g id="edge2" class="edge">
<title>S_VERT&#45;&gt;S_CROSS</title>
<path fill="none" stroke="#66cc66" d="M77.26,-279.82C76.95,-273.89 76.67,-267.76 76.5,-262 76.14,-249.85 76.11,-236.74 76.23,-224.48"/>
<polygon fill="#66cc66" stroke="#66cc66" points="79.73,-224.46 76.37,-214.42 72.73,-224.37 79.73,-224.46"/>
<text text-anchor="middle" x="130" y="-254.8" font-family="Cascadia Code PL" font-size="9.00" fill="#aaaaaa"> &#160;Press F</text>
<text text-anchor="middle" x="130" y="-244.8" font-family="Cascadia Code PL" font-size="9.00" fill="#aaaaaa"> &#160;SYMMETRY_cycle_mode()</text>
<text text-anchor="middle" x="130" y="-234.8" font-family="Cascadia Code PL" font-size="9.00" fill="#aaaaaa"> &#160;MODE = 2</text>
</g>
<!-- S_ASTERISK -->
<g id="node5" class="node">
<title>S_ASTERISK</title>
<polygon fill="none" stroke="white" points="215.5,-68 69.5,-68 69.5,0 215.5,0 215.5,-68"/>
<text text-anchor="middle" x="142.5" y="-55.2" font-family="Cascadia Code PL" font-size="11.00" fill="cyan">4 · ASTERISK (MODE=3)</text>
<text text-anchor="middle" x="142.5" y="-43.2" font-family="Cascadia Code PL" font-size="11.00" fill="cyan">─────────────────</text>
<text text-anchor="middle" x="142.5" y="-31.2" font-family="Cascadia Code PL" font-size="11.00" fill="cyan">8&#45;way mirror</text>
<text text-anchor="middle" x="142.5" y="-19.2" font-family="Cascadia Code PL" font-size="11.00" fill="cyan">Vert + Horiz + 2 diagonals</text>
<text text-anchor="middle" x="142.5" y="-7.2" font-family="Cascadia Code PL" font-size="11.00" fill="cyan">8 paint points per stroke</text>
</g>
<!-- S_CROSS&#45;&gt;S_ASTERISK -->
<g id="edge3" class="edge">
<title>S_CROSS&#45;&gt;S_ASTERISK</title>
<path fill="none" stroke="#66cc66" d="M74.47,-133.62C74.82,-118.07 77.23,-100.49 84.5,-86 86.28,-82.46 88.41,-79.06 90.81,-75.81"/>
<polygon fill="#66cc66" stroke="#66cc66" points="93.54,-78 97.22,-68.06 88.15,-73.53 93.54,-78"/>
<text text-anchor="middle" x="138" y="-108.8" font-family="Cascadia Code PL" font-size="9.00" fill="#aaaaaa"> &#160;Press F</text>
<text text-anchor="middle" x="138" y="-98.8" font-family="Cascadia Code PL" font-size="9.00" fill="#aaaaaa"> &#160;SYMMETRY_cycle_mode()</text>
<text text-anchor="middle" x="138" y="-88.8" font-family="Cascadia Code PL" font-size="9.00" fill="#aaaaaa"> &#160;MODE = 3</text>
</g>
<!-- S_ASTERISK&#45;&gt;S_OFF -->
<g id="edge4" class="edge">
<title>S_ASTERISK&#45;&gt;S_OFF</title>
<path fill="none" stroke="#cc6666" stroke-dasharray="5,2" d="M180.79,-68.07C185.14,-73.59 188.93,-79.62 191.5,-86 242.95,-213.81 239.39,-266.81 191.5,-396 189.54,-401.28 186.86,-406.39 183.74,-411.25"/>
<polygon fill="#cc6666" stroke="#cc6666" points="180.67,-409.53 177.73,-419.71 186.38,-413.58 180.67,-409.53"/>
<text text-anchor="middle" x="282" y="-254.8" font-family="Cascadia Code PL" font-size="9.00" fill="#aaaaaa"> &#160;Press F</text>
<text text-anchor="middle" x="282" y="-244.8" font-family="Cascadia Code PL" font-size="9.00" fill="#aaaaaa"> &#160;SYMMETRY_cycle_mode()</text>
<text text-anchor="middle" x="282" y="-234.8" font-family="Cascadia Code PL" font-size="9.00" fill="#aaaaaa"> &#160;MODE = 0</text>
</g>
<!-- C_DEFAULT -->
<g id="node6" class="node">
<title>C_DEFAULT</title>
<polygon fill="none" stroke="white" points="401,-634 266,-634 266,-566 401,-566 401,-634"/>
<text text-anchor="middle" x="333.5" y="-621.2" font-family="Cascadia Code PL" font-size="11.00" fill="cyan">Default Center</text>
<text text-anchor="middle" x="333.5" y="-609.2" font-family="Cascadia Code PL" font-size="11.00" fill="cyan">─────────────────</text>
<text text-anchor="middle" x="333.5" y="-597.2" font-family="Cascadia Code PL" font-size="11.00" fill="cyan">CENTER_X = canvas W/2</text>
<text text-anchor="middle" x="333.5" y="-585.2" font-family="Cascadia Code PL" font-size="11.00" fill="cyan">CENTER_Y = canvas H/2</text>
<text text-anchor="middle" x="333.5" y="-573.2" font-family="Cascadia Code PL" font-size="11.00" fill="cyan">CENTER_SET = FALSE</text>
</g>
<!-- C_CUSTOM -->
<g id="node7" class="node">
<title>C_CUSTOM</title>
<polygon fill="none" stroke="white" points="400,-494 267,-494 267,-414 400,-414 400,-494"/>
<text text-anchor="middle" x="333.5" y="-481.2" font-family="Cascadia Code PL" font-size="11.00" fill="cyan">Custom Center</text>
<text text-anchor="middle" x="333.5" y="-469.2" font-family="Cascadia Code PL" font-size="11.00" fill="cyan">─────────────────</text>
<text text-anchor="middle" x="333.5" y="-457.2" font-family="Cascadia Code PL" font-size="11.00" fill="cyan">Ctrl+Click sets</text>
<text text-anchor="middle" x="333.5" y="-445.2" font-family="Cascadia Code PL" font-size="11.00" fill="cyan">CENTER_X/Y = click pos</text>
<text text-anchor="middle" x="333.5" y="-433.2" font-family="Cascadia Code PL" font-size="11.00" fill="cyan">CENTER_SET = TRUE</text>
<text text-anchor="middle" x="333.5" y="-421.2" font-family="Cascadia Code PL" font-size="11.00" fill="cyan">Crosshair shown</text>
</g>
<!-- C_DEFAULT&#45;&gt;C_CUSTOM -->
<g id="edge6" class="edge">
<title>C_DEFAULT&#45;&gt;C_CUSTOM</title>
<path fill="none" stroke="#cccc66" d="M265.57,-567.83C256.32,-560.67 248.1,-552.11 242.5,-542 236.04,-530.33 236.04,-523.67 242.5,-512 246.72,-504.38 252.43,-497.64 258.94,-491.72"/>
<polygon fill="#cccc66" stroke="#cccc66" points="261.44,-494.2 266.92,-485.14 256.98,-488.8 261.44,-494.2"/>
<text text-anchor="middle" x="298.5" y="-529.8" font-family="Cascadia Code PL" font-size="9.00" fill="#aaaaaa"> &#160;Ctrl+Click</text>
<text text-anchor="middle" x="298.5" y="-519.8" font-family="Cascadia Code PL" font-size="9.00" fill="#aaaaaa"> &#160;SYMMETRY_set_center(x,y)</text>
</g>
<!-- C_CUSTOM&#45;&gt;C_DEFAULT -->
<g id="edge7" class="edge">
<title>C_CUSTOM&#45;&gt;C_DEFAULT</title>
<path fill="none" stroke="#cc6666" stroke-dasharray="5,2" d="M349.93,-494.05C351.82,-499.97 353.44,-506.08 354.5,-512 356.84,-525.13 356.84,-528.87 354.5,-542 353.66,-546.68 352.47,-551.49 351.07,-556.23"/>
<polygon fill="#cc6666" stroke="#cc6666" points="347.73,-555.2 347.96,-565.79 354.38,-557.36 347.73,-555.2"/>
<text text-anchor="middle" x="392" y="-529.8" font-family="Cascadia Code PL" font-size="9.00" fill="#aaaaaa"> &#160;SYMMETRY_init()</text>
<text text-anchor="middle" x="392" y="-519.8" font-family="Cascadia Code PL" font-size="9.00" fill="#aaaaaa"> &#160;or canvas resize</text>
</g>
<!-- G_CLEAN -->
<g id="node8" class="node">
<title>G_CLEAN</title>
<polygon fill="none" stroke="white" points="618,-634 501,-634 501,-566 618,-566 618,-634"/>
<text text-anchor="middle" x="559.5" y="-621.2" font-family="Cascadia Code PL" font-size="11.00" fill="cyan">Guides Clean</text>
<text text-anchor="middle" x="559.5" y="-609.2" font-family="Cascadia Code PL" font-size="11.00" fill="cyan">─────────────────</text>
<text text-anchor="middle" x="559.5" y="-597.2" font-family="Cascadia Code PL" font-size="11.00" fill="cyan">DIRTY = FALSE</text>
<text text-anchor="middle" x="559.5" y="-585.2" font-family="Cascadia Code PL" font-size="11.00" fill="cyan">imgHandle&amp; current</text>
<text text-anchor="middle" x="559.5" y="-573.2" font-family="Cascadia Code PL" font-size="11.00" fill="cyan">Guide lines cached</text>
</g>
<!-- G_DIRTY -->
<g id="node9" class="node">
<title>G_DIRTY</title>
<polygon fill="none" stroke="white" points="643.5,-488 491.5,-488 491.5,-420 643.5,-420 643.5,-488"/>
<text text-anchor="middle" x="567.5" y="-475.2" font-family="Cascadia Code PL" font-size="11.00" fill="cyan">Guides Dirty</text>
<text text-anchor="middle" x="567.5" y="-463.2" font-family="Cascadia Code PL" font-size="11.00" fill="cyan">─────────────────</text>
<text text-anchor="middle" x="567.5" y="-451.2" font-family="Cascadia Code PL" font-size="11.00" fill="cyan">DIRTY = TRUE</text>
<text text-anchor="middle" x="567.5" y="-439.2" font-family="Cascadia Code PL" font-size="11.00" fill="cyan">Need regeneration</text>
<text text-anchor="middle" x="567.5" y="-427.2" font-family="Cascadia Code PL" font-size="11.00" fill="cyan">SYMMETRY_render_guides()</text>
</g>
<!-- G_CLEAN&#45;&gt;G_DIRTY -->
<g id="edge8" class="edge">
<title>G_CLEAN&#45;&gt;G_DIRTY</title>
<path fill="none" stroke="#cccc66" d="M509.89,-565.88C502.84,-558.87 496.6,-550.87 492.5,-542 486.91,-529.9 486.58,-523.94 492.5,-512 495.41,-506.13 499.24,-500.71 503.64,-495.73"/>
<polygon fill="#cccc66" stroke="#cccc66" points="506.45,-497.86 510.96,-488.28 501.46,-492.96 506.45,-497.86"/>
<text text-anchor="middle" x="528.5" y="-534.8" font-family="Cascadia Code PL" font-size="9.00" fill="#aaaaaa"> &#160;Mode change</text>
<text text-anchor="middle" x="528.5" y="-524.8" font-family="Cascadia Code PL" font-size="9.00" fill="#aaaaaa"> &#160;or center change</text>
<text text-anchor="middle" x="528.5" y="-514.8" font-family="Cascadia Code PL" font-size="9.00" fill="#aaaaaa"> &#160;DIRTY = TRUE</text>
</g>
<!-- G_DIRTY&#45;&gt;G_CLEAN -->
<g id="edge9" class="edge">
<title>G_DIRTY&#45;&gt;G_CLEAN</title>
<path fill="none" stroke="#66cc66" d="M566.77,-488.07C566.31,-504.32 565.59,-524.2 564.5,-542 564.23,-546.47 563.9,-551.14 563.53,-555.79"/>
<polygon fill="#66cc66" stroke="#66cc66" points="560.04,-555.61 562.71,-565.87 567.01,-556.19 560.04,-555.61"/>
<text text-anchor="middle" x="623.5" y="-534.8" font-family="Cascadia Code PL" font-size="9.00" fill="#aaaaaa"> &#160;SYMMETRY_render_guides()</text>
<text text-anchor="middle" x="623.5" y="-524.8" font-family="Cascadia Code PL" font-size="9.00" fill="#aaaaaa"> &#160;Regenerate image buffer</text>
<text text-anchor="middle" x="623.5" y="-514.8" font-family="Cascadia Code PL" font-size="9.00" fill="#aaaaaa"> &#160;DIRTY = FALSE</text>
</g>
<!-- P1 -->
<g id="node10" class="node">
<title>P1</title>
<polygon fill="none" stroke="white" points="882.5,-640 726.5,-640 726.5,-560 882.5,-560 882.5,-640"/>
<text text-anchor="middle" x="804.5" y="-627.2" font-family="Cascadia Code PL" font-size="11.00" fill="cyan">PAINT_pset_with_symmetry()</text>
<text text-anchor="middle" x="804.5" y="-615.2" font-family="Cascadia Code PL" font-size="11.00" fill="cyan">─────────────────</text>
<text text-anchor="middle" x="804.5" y="-603.2" font-family="Cascadia Code PL" font-size="11.00" fill="cyan">Calls SYMMETRY_get_</text>
<text text-anchor="middle" x="804.5" y="-591.2" font-family="Cascadia Code PL" font-size="11.00" fill="cyan">mirrored_points(x,y,...)</text>
<text text-anchor="middle" x="804.5" y="-579.2" font-family="Cascadia Code PL" font-size="11.00" fill="cyan">Returns mx(),my(),count</text>
<text text-anchor="middle" x="804.5" y="-567.2" font-family="Cascadia Code PL" font-size="11.00" fill="cyan">Paints at ALL positions</text>
</g>
<!-- L1 -->
<g id="node11" class="node">
<title>L1</title>
<ellipse fill="white" stroke="white" cx="1113.5" cy="-600" rx="0.36" ry="0.36"/>
</g>
<!-- L2 -->
<g id="node12" class="node">
<title>L2</title>
<ellipse fill="white" stroke="white" cx="1113.5" cy="-454" rx="0.36" ry="0.36"/>
</g>
<!-- L1&#45;&gt;L2 -->
<g id="edge10" class="edge">
<title>L1&#45;&gt;L2</title>
<path fill="none" stroke="#66cc66" d="M1113.5,-598.9C1113.5,-595.26 1113.5,-497.5 1113.5,-465.23"/>
<polygon fill="#66cc66" stroke="#66cc66" points="1117,-465.1 1113.5,-455.1 1110,-465.1 1117,-465.1"/>
<text text-anchor="middle" x="1142" y="-524.8" font-family="Cascadia Code PL" font-size="9.00" fill="#aaaaaa"> Cycle forward</text>
</g>
<!-- L3 -->
<g id="node13" class="node">
<title>L3</title>
<ellipse fill="white" stroke="white" cx="1017.5" cy="-600" rx="0.36" ry="0.36"/>
</g>
<!-- L4 -->
<g id="node14" class="node">
<title>L4</title>
<ellipse fill="white" stroke="white" cx="1017.5" cy="-454" rx="0.36" ry="0.36"/>
</g>
<!-- L3&#45;&gt;L4 -->
<g id="edge11" class="edge">
<title>L3&#45;&gt;L4</title>
<path fill="none" stroke="#cc6666" stroke-dasharray="5,2" d="M1017.5,-598.9C1017.5,-595.26 1017.5,-497.5 1017.5,-465.23"/>
<polygon fill="#cc6666" stroke="#cc6666" points="1021,-465.1 1017.5,-455.1 1014,-465.1 1021,-465.1"/>
<text text-anchor="middle" x="1054" y="-524.8" font-family="Cascadia Code PL" font-size="9.00" fill="#aaaaaa"> Deactivate / Reset</text>
</g>
<!-- L5 -->
<g id="node15" class="node">
<title>L5</title>
<ellipse fill="white" stroke="white" cx="924.5" cy="-600" rx="0.36" ry="0.36"/>
</g>
<!-- L6 -->
<g id="node16" class="node">
<title>L6</title>
<ellipse fill="white" stroke="white" cx="924.5" cy="-454" rx="0.36" ry="0.36"/>
</g>
<!-- L5&#45;&gt;L6 -->
<g id="edge12" class="edge">
<title>L5&#45;&gt;L6</title>
<path fill="none" stroke="#cccc66" d="M924.5,-598.9C924.5,-595.26 924.5,-497.5 924.5,-465.23"/>
<polygon fill="#cccc66" stroke="#cccc66" points="928,-465.1 924.5,-455.1 921,-465.1 928,-465.1"/>
<text text-anchor="middle" x="959.5" y="-524.8" font-family="Cascadia Code PL" font-size="9.00" fill="#aaaaaa"> Commit / Update</text>
</g>
</g>
</svg>
